<svg width="64" height="64" viewBox="0 0 64 64" fill="none" xmlns="http://www.w3.org/2000/svg">
<path fill-rule="evenodd" clip-rule="evenodd" d="M12.9024 6.72872C13.3142 6.41026 13.907 6.55332 14.2088 6.97751C15.5343 8.84026 17.7109 10.0553 20.1713 10.0553C24.2101 10.0553 27.4842 6.78117 27.4842 2.74234C27.4842 2.3202 27.4485 1.90641 27.3798 1.50385C27.2922 0.990203 27.6092 0.468605 28.126 0.401684C29.4683 0.22784 30.8371 0.138184 32.2268 0.138184C33.6169 0.138184 34.9859 0.22788 36.3286 0.4018C36.8453 0.468735 37.1624 0.990314 37.0748 1.50394C37.0061 1.90648 36.9703 2.32024 36.9703 2.74234C36.9703 6.78117 40.2444 10.0553 44.2833 10.0553C46.7435 10.0553 48.9199 8.84044 50.2455 6.9779C50.5473 6.55375 51.1401 6.41072 51.5519 6.72918C53.7716 8.44556 55.7566 10.4506 57.4508 12.6882C57.7633 13.1009 57.6179 13.6886 57.1953 13.9877C55.3242 15.3122 54.1028 17.4937 54.1028 19.9606C54.1028 23.9994 57.3769 27.2735 61.4158 27.2735C61.7951 27.2735 62.1677 27.2446 62.5315 27.189C63.0436 27.1106 63.5569 27.4324 63.6187 27.9467C63.7688 29.196 63.846 30.4676 63.846 31.7574C63.846 33.2274 63.7457 34.674 63.5515 36.0907C63.4824 36.5947 62.9798 36.9077 62.4764 36.8346C62.1301 36.7843 61.776 36.7582 61.4158 36.7582C57.3769 36.7582 54.1028 40.0323 54.1028 44.0712C54.1028 46.4383 55.2275 48.5427 56.9716 49.8793C57.375 50.1884 57.5014 50.7664 57.1891 51.1674C55.5175 53.3141 53.575 55.2395 51.413 56.8923C51.0094 57.2009 50.433 57.0697 50.1273 56.664C48.7927 54.8929 46.6717 53.7479 44.2833 53.7479C40.2444 53.7479 36.9703 57.022 36.9703 61.0609C36.9703 61.3967 36.993 61.7273 37.0368 62.0512C37.105 62.5549 36.7876 63.0542 36.2833 63.1187C34.9552 63.2888 33.6012 63.3765 32.2268 63.3765C30.8527 63.3765 29.4991 63.2889 28.1713 63.1189C27.667 63.0543 27.3495 62.555 27.4177 62.0513C27.4616 61.7274 27.4842 61.3968 27.4842 61.0609C27.4842 57.022 24.2101 53.7479 20.1713 53.7479C17.7827 53.7479 15.6616 54.8931 14.327 56.6644C14.0213 57.0701 13.4448 57.2013 13.0412 56.8928C10.8319 55.2039 8.85185 53.2303 7.15574 51.0268C6.84124 50.6182 6.97953 50.032 7.39637 49.7285C9.22274 48.399 10.4099 46.2443 10.4099 43.8123C10.4099 39.7735 7.13573 36.4994 3.0969 36.4994C2.70916 36.4994 2.32845 36.5296 1.95702 36.5877C1.44721 36.6675 0.934557 36.3502 0.868606 35.8384C0.696442 34.5024 0.607666 33.1402 0.607666 31.7574C0.607666 30.3742 0.696476 29.0118 0.868703 27.6755C0.934664 27.1638 1.4473 26.8465 1.9571 26.9263C2.32851 26.9844 2.70918 27.0146 3.0969 27.0146C7.13573 27.0146 10.4099 23.7405 10.4099 19.7016C10.4099 17.2698 9.22288 15.1153 7.3967 13.7857C6.97988 13.4822 6.84162 12.896 7.15612 12.4874C8.81652 10.3304 10.7491 8.39371 12.9024 6.72872Z" fill="#AE1717"/>
<path d="M27.5405 31.6418L27.5408 31.6416C27.9621 31.3043 28.2598 30.8369 28.3875 30.3125C28.5152 29.7881 28.4656 29.2362 28.2466 28.7429L25.9756 23.6288L25.9755 23.6287C25.7405 23.0995 25.3252 22.671 24.8037 22.4195C24.2823 22.168 23.6885 22.1097 23.128 22.2551C23.128 22.2551 23.128 22.2551 23.128 22.2551L18.8044 23.3767L18.8044 23.3767L18.803 23.377C18.2221 23.5289 17.7171 23.8886 17.3835 24.3879C17.05 24.8871 16.9112 25.4914 16.9933 26.0862L16.9933 26.0862L16.9935 26.0879C17.7748 31.652 20.3463 36.8104 24.3193 40.7834C28.2923 44.7563 33.4507 47.3279 39.0147 48.1092L39.016 48.1093C39.611 48.1919 40.2156 48.0531 40.715 47.7195C41.2145 47.3858 41.5742 46.8804 41.7257 46.2992L41.726 46.2983L42.8476 41.9751L42.8477 41.9747C42.9927 41.4144 42.9344 40.8209 42.6831 40.2996C42.4318 39.7783 42.0038 39.363 41.4751 39.1275L41.4744 39.1271L36.3612 36.8562C36.3611 36.8561 36.3611 36.8561 36.361 36.8561C35.8676 36.6369 35.3155 36.5873 34.791 36.7151C34.2665 36.8429 33.799 37.1409 33.4618 37.5625C33.4618 37.5625 33.4617 37.5626 33.4617 37.5626L31.8812 39.5353C29.3329 37.9264 27.175 35.7698 25.5646 33.2225L27.5405 31.6418Z" stroke="white" stroke-width="1.5"/>
<path d="M32.7378 21.5381C35.804 22.4059 41.7975 25.7729 41.2422 32.2988" stroke="white" stroke-width="1.5"/>
<path d="M32.1228 25.6895C33.8767 26.1858 37.3051 28.1118 36.9874 31.8447" stroke="white" stroke-width="1.5"/>
<path d="M32.7378 16.1318C37.7625 17.5539 47.5844 23.0717 46.6744 33.766" stroke="white" stroke-width="1.5"/>
</svg>
