<svg width="64" height="65" viewBox="0 0 64 65" fill="none" xmlns="http://www.w3.org/2000/svg">
<path fill-rule="evenodd" clip-rule="evenodd" d="M12.4578 7.36202C12.8696 7.04356 13.4624 7.18662 13.7642 7.61081C15.0898 9.47357 17.2663 10.6886 19.7267 10.6886C23.7655 10.6886 27.0397 7.41447 27.0397 3.37564C27.0397 2.9535 27.0039 2.53972 26.9352 2.13715C26.8476 1.6235 27.1646 1.10191 27.6814 1.03498C29.0238 0.861141 30.3925 0.771484 31.7823 0.771484C33.1723 0.771484 34.5414 0.861181 35.884 1.0351C36.4008 1.10204 36.7178 1.62361 36.6302 2.13724C36.5615 2.53978 36.5257 2.95354 36.5257 3.37564C36.5257 7.41447 39.7999 10.6886 43.8387 10.6886C46.2989 10.6886 48.4754 9.47374 49.8009 7.6112C50.1028 7.18705 50.6955 7.04402 51.1073 7.36248C53.327 9.07886 55.312 11.0839 57.0062 13.3215C57.3187 13.7342 57.1733 14.3219 56.7508 14.621C54.8797 15.9455 53.6582 18.127 53.6582 20.5939C53.6582 24.6327 56.9323 27.9068 60.9712 27.9068C61.3505 27.9068 61.7231 27.878 62.0869 27.8223C62.599 27.7439 63.1124 28.0657 63.1742 28.58C63.3242 29.8293 63.4014 31.1009 63.4014 32.3907C63.4014 33.8607 63.3011 35.3073 63.1069 36.724C63.0379 37.228 62.5352 37.541 62.0318 37.4679C61.6855 37.4176 61.3314 37.3915 60.9712 37.3915C56.9323 37.3915 53.6582 40.6656 53.6582 44.7045C53.6582 47.0716 54.7829 49.176 56.527 50.5126C56.9304 50.8217 57.0568 51.3997 56.7445 51.8007C55.0729 53.9474 53.1304 55.8728 50.9684 57.5256C50.5649 57.8342 49.9885 57.703 49.6827 57.2973C48.3481 55.5262 46.2271 54.3812 43.8387 54.3812C39.7999 54.3812 36.5257 57.6553 36.5257 61.6942C36.5257 62.03 36.5484 62.3606 36.5922 62.6845C36.6604 63.1882 36.343 63.6875 35.8387 63.752C34.5106 63.9221 33.1567 64.0098 31.7823 64.0098C30.4082 64.0098 29.0545 63.9222 27.7267 63.7522C27.2224 63.6876 26.905 63.1883 26.9732 62.6846C27.017 62.3607 27.0397 62.0301 27.0397 61.6942C27.0397 57.6553 23.7655 54.3812 19.7267 54.3812C17.3381 54.3812 15.217 55.5264 13.8824 57.2977C13.5767 57.7034 13.0003 57.8346 12.5967 57.5261C10.3874 55.8372 8.40727 53.8636 6.71116 51.6601C6.39666 51.2515 6.53495 50.6653 6.95179 50.3618C8.77816 49.0323 9.96527 46.8776 9.96527 44.4456C9.96527 40.4068 6.69115 37.1327 2.65232 37.1327C2.26458 37.1327 1.88387 37.1629 1.51244 37.221C1.00263 37.3008 0.489976 36.9835 0.424026 36.4717C0.251862 35.1357 0.163086 33.7735 0.163086 32.3907C0.163086 31.0075 0.251895 29.6451 0.424123 28.3088C0.490084 27.7971 1.00272 27.4798 1.51252 27.5596C1.88393 27.6177 2.2646 27.6479 2.65232 27.6479C6.69115 27.6479 9.96527 24.3738 9.96527 20.3349C9.96527 17.9031 8.7783 15.7486 6.95212 14.419C6.5353 14.1155 6.39704 13.5293 6.71154 13.1207C8.37194 10.9637 10.3045 9.02701 12.4578 7.36202Z" fill="#AE1717"/>
<path d="M27.6664 23.0103L24.254 15.9863C24.1783 15.7545 24.6172 15.291 26.9783 15.291C29.9297 15.291 31.1358 17.9728 33.846 17.9728C35.4793 17.9728 37.3063 17.2213 38.5289 16.5675C38.8084 16.418 39.1541 16.7285 39.0178 17.0146L36.1644 23.0044C36.0224 23.3026 35.7215 23.4925 35.3912 23.4925H28.4367C28.1088 23.4925 27.8097 23.3053 27.6664 23.0103Z" fill="white"/>
<path fill-rule="evenodd" clip-rule="evenodd" d="M26.6874 26.0599C22.8757 30.5226 15.6609 40.1127 19.0574 45.1964C20.78 47.7747 23.9311 49.4904 32.097 49.4904C36.0883 49.4904 42.1304 48.9113 44.5804 45.1964C47.7333 40.4156 40.9544 30.5835 36.9077 26.0361C36.7329 25.8397 36.4841 25.7319 36.2211 25.7319H26.9908L26.6874 26.0599ZM34.0056 43.3797C34.5955 43.0637 35.0379 42.6635 35.3328 42.1789C35.6383 41.6839 35.791 41.1467 35.791 40.5674C35.791 39.809 35.6014 39.2139 35.2222 38.782C34.8536 38.3396 34.4322 38.0236 33.9583 37.834C33.4843 37.6444 32.8101 37.4285 31.9359 37.1862V34.7373C32.4099 34.9058 32.6785 35.2745 32.7417 35.8433H35.633C35.5593 34.8531 35.2012 34.0789 34.5586 33.5207C33.9161 32.9624 33.0419 32.6412 31.9359 32.5569V31.2771H30.9247V32.5569C29.8082 32.6306 28.8918 32.9572 28.1755 33.5365C27.4698 34.1158 27.117 34.8847 27.117 35.8433C27.117 36.6122 27.3013 37.2178 27.67 37.6602C28.0386 38.1026 28.4652 38.4239 28.9497 38.624C29.4448 38.8241 30.1031 39.0295 30.9247 39.2402V41.7366C30.377 41.5575 30.0715 41.152 30.0083 40.52H27.1328C27.1749 41.5101 27.5383 42.2948 28.2229 42.8741C28.9076 43.4429 29.8082 43.7747 30.9247 43.8695V45.1651H31.9359V43.8853C32.7364 43.8537 33.4263 43.6852 34.0056 43.3797ZM30.2137 36.3804C30.0557 36.2014 29.9767 35.9802 29.9767 35.7169C29.9767 35.4114 30.061 35.1744 30.2295 35.0059C30.398 34.8268 30.6298 34.7109 30.9247 34.6583V36.8544C30.6192 36.7175 30.3822 36.5595 30.2137 36.3804ZM32.6785 41.4048C32.4994 41.6049 32.2519 41.7313 31.9359 41.784V39.5404C32.2729 39.6668 32.5257 39.8195 32.6943 39.9986C32.8733 40.1671 32.9629 40.3883 32.9629 40.6622C32.9629 40.9571 32.8681 41.2046 32.6785 41.4048Z" fill="white"/>
</svg>
