<svg width="64" height="64" viewBox="0 0 64 64" fill="none" xmlns="http://www.w3.org/2000/svg">
<path fill-rule="evenodd" clip-rule="evenodd" d="M12.3441 6.9001C12.756 6.58165 13.3488 6.72471 13.6506 7.14889C14.9761 9.01165 17.1527 10.2267 19.6131 10.2267C23.6519 10.2267 26.926 6.95256 26.926 2.91373C26.926 2.49159 26.8902 2.0778 26.8216 1.67523C26.734 1.16159 27.051 0.639992 27.5677 0.57307C28.9101 0.399227 30.2789 0.30957 31.6686 0.30957C33.0586 0.30957 34.4277 0.399267 35.7704 0.573187C36.2871 0.640121 36.6041 1.1617 36.5165 1.67533C36.4479 2.07787 36.4121 2.49162 36.4121 2.91373C36.4121 6.95256 39.6862 10.2267 43.725 10.2267C46.1852 10.2267 48.3617 9.01182 49.6872 7.14929C49.9891 6.72514 50.5819 6.58211 50.9937 6.90056C53.2133 8.61694 55.1984 10.622 56.8926 12.8596C57.2051 13.2723 57.0596 13.8599 56.6371 14.159C54.766 15.4835 53.5446 17.6651 53.5446 20.132C53.5446 24.1708 56.8187 27.4449 60.8575 27.4449C61.2369 27.4449 61.6095 27.416 61.9733 27.3603C62.4853 27.282 62.9987 27.6037 63.0605 28.1181C63.2106 29.3674 63.2878 30.639 63.2878 31.9287C63.2878 33.3988 63.1875 34.8454 62.9933 36.2621C62.9242 36.7661 62.4216 37.0791 61.9181 37.006C61.5719 36.9557 61.2177 36.9296 60.8575 36.9296C56.8187 36.9296 53.5446 40.2037 53.5446 44.2426C53.5446 46.6097 54.6692 48.7141 56.4133 50.0506C56.8168 50.3598 56.9431 50.9377 56.6309 51.3388C54.9592 53.4855 53.0168 55.4109 50.8548 57.0637C50.4512 57.3722 49.8748 57.2411 49.5691 56.8354C48.2345 55.0643 46.1135 53.9193 43.725 53.9193C39.6862 53.9193 36.4121 57.1934 36.4121 61.2323C36.4121 61.5681 36.4347 61.8987 36.4786 62.2225C36.5468 62.7263 36.2293 63.2256 35.7251 63.2901C34.3969 63.4602 33.043 63.5479 31.6686 63.5479C30.2945 63.5479 28.9409 63.4603 27.613 63.2902C27.1088 63.2257 26.7913 62.7264 26.8595 62.2226C26.9034 61.8988 26.926 61.5682 26.926 61.2323C26.926 57.1934 23.6519 53.9193 19.6131 53.9193C17.2245 53.9193 15.1033 55.0645 13.7687 56.8358C13.463 57.2415 12.8866 57.3727 12.483 57.0642C10.2737 55.3753 8.29362 53.4017 6.59752 51.1982C6.28302 50.7896 6.4213 50.2034 6.83815 49.8999C8.66451 48.5703 9.85162 46.4157 9.85162 43.9837C9.85162 39.9449 6.57751 36.6708 2.53868 36.6708C2.15093 36.6708 1.77023 36.701 1.39879 36.7591C0.888983 36.8389 0.376329 36.5216 0.310379 36.0098C0.138215 34.6738 0.0494385 33.3116 0.0494385 31.9287C0.0494385 30.5456 0.138248 29.1832 0.310476 27.8469C0.376436 27.3352 0.889074 27.0179 1.39887 27.0977C1.77028 27.1558 2.15095 27.186 2.53868 27.186C6.57751 27.186 9.85162 23.9119 9.85162 19.873C9.85162 17.4412 8.66465 15.2867 6.83847 13.9571C6.42165 13.6536 6.28339 13.0674 6.59789 12.6588C8.2583 10.5018 10.1908 8.56509 12.3441 6.9001Z" fill="#AE1717"/>
<path fill-rule="evenodd" clip-rule="evenodd" d="M33.639 16.1482C33.4679 16.3413 33.1257 17.3566 32.8784 18.4046C32.2495 21.0705 31.7444 22.0334 29.7737 24.3245C28.4144 25.9047 27.8037 26.8345 26.8773 28.7337C25.6019 31.3485 25.1117 32.0916 24.1025 32.9406C23.5102 33.439 23.4081 33.465 23.0996 33.1973C22.5449 32.7155 21.7005 32.6092 19.6094 32.7574L17.6418 32.897V40.0915V47.286H19.8226C21.5906 47.286 22.1806 47.2076 22.9402 46.8717C24.0752 46.3696 25.0363 46.4489 28.4724 47.3283C33.7824 48.6874 41.1275 48.109 43.0563 46.1801C43.6737 45.5628 43.7164 45.4346 43.6685 44.3455C43.6239 43.3337 43.6915 43.0766 44.1659 42.4556C44.8498 41.5603 45.0301 40.7099 44.7293 39.7985C44.5189 39.1605 44.5546 38.986 45.1089 37.9471C45.8251 36.6051 45.8496 36.2571 45.3121 35.0722L44.912 34.1903L45.3165 33.1092C45.8237 31.7538 45.8225 31.3764 45.3079 30.3134C44.7289 29.1172 43.7276 28.6717 41.0818 28.4333C39.9379 28.3302 38.2997 28.2427 37.4413 28.2391C35.5817 28.2311 34.4894 27.8546 34.4894 27.2218C34.4894 26.9858 35.0399 25.7403 35.7128 24.4538L36.9363 22.115L36.8609 20.2034C36.7959 18.5614 36.7078 18.1597 36.2359 17.3546C35.3622 15.8638 34.3199 15.3796 33.639 16.1482Z" stroke="white" stroke-width="1.5"/>
</svg>
