<svg width="64" height="64" viewBox="0 0 64 64" fill="none" xmlns="http://www.w3.org/2000/svg">
<path fill-rule="evenodd" clip-rule="evenodd" d="M12.6849 7.14351C13.0967 6.82505 13.6895 6.96812 13.9914 7.3923C15.3169 9.25506 17.4935 10.4701 19.9538 10.4701C23.9927 10.4701 27.2668 7.19597 27.2668 3.15714C27.2668 2.735 27.231 2.32121 27.1623 1.91864C27.0747 1.405 27.3918 0.8834 27.9085 0.816478C29.2509 0.642635 30.6197 0.552979 32.0094 0.552979C33.3994 0.552979 34.7685 0.642675 36.1111 0.816595C36.6279 0.88353 36.9449 1.40511 36.8573 1.91874C36.7886 2.32128 36.7529 2.73503 36.7529 3.15714C36.7529 7.19597 40.027 10.4701 44.0658 10.4701C46.526 10.4701 48.7025 9.25523 50.028 7.3927C50.3299 6.96854 50.9226 6.82551 51.3345 7.14397C53.5541 8.86035 55.5392 10.8654 57.2334 13.103C57.5459 13.5157 57.4004 14.1034 56.9779 14.4024C55.1068 15.727 53.8853 17.9085 53.8853 20.3754C53.8853 24.4142 57.1595 27.6883 61.1983 27.6883C61.5776 27.6883 61.9502 27.6594 62.314 27.6038C62.8261 27.5254 63.3395 27.8471 63.4013 28.3615C63.5513 29.6108 63.6285 30.8824 63.6285 32.1722C63.6285 33.6422 63.5282 35.0888 63.3341 36.5055C63.265 37.0095 62.7623 37.3225 62.2589 37.2494C61.9126 37.1991 61.5585 37.173 61.1983 37.173C57.1595 37.173 53.8853 40.4471 53.8853 44.486C53.8853 46.8531 55.01 48.9575 56.7541 50.2941C57.1576 50.6032 57.2839 51.1812 56.9716 51.5822C55.3 53.7289 53.3575 55.6543 51.1956 57.3071C50.792 57.6157 50.2156 57.4845 49.9098 57.0788C48.5752 55.3077 46.4542 54.1627 44.0658 54.1627C40.027 54.1627 36.7529 57.4368 36.7529 61.4757C36.7529 61.8115 36.7755 62.1421 36.8193 62.466C36.8875 62.9697 36.5701 63.469 36.0659 63.5335C34.7377 63.7036 33.3838 63.7913 32.0094 63.7913C30.6353 63.7913 29.2817 63.7037 27.9538 63.5337C27.4495 63.4691 27.1321 62.9698 27.2003 62.466C27.2441 62.1422 27.2668 61.8116 27.2668 61.4757C27.2668 57.4368 23.9927 54.1627 19.9538 54.1627C17.5652 54.1627 15.4441 55.3079 14.1095 57.0792C13.8038 57.4849 13.2274 57.6161 12.8238 57.3076C10.6145 55.6187 8.63438 53.6451 6.93828 51.4416C6.62377 51.033 6.76206 50.4468 7.17891 50.1433C9.00527 48.8138 10.1924 46.6591 10.1924 44.2271C10.1924 40.1883 6.91827 36.9142 2.87944 36.9142C2.49169 36.9142 2.11099 36.9444 1.73955 37.0025C1.22974 37.0823 0.717088 36.765 0.651138 36.2532C0.478974 34.9172 0.390198 33.555 0.390198 32.1722C0.390198 30.789 0.479007 29.4266 0.651235 28.0903C0.717196 27.5786 1.22983 27.2613 1.73963 27.3411C2.11104 27.3992 2.49171 27.4294 2.87944 27.4294C6.91827 27.4294 10.1924 24.1553 10.1924 20.1164C10.1924 17.6846 9.00541 15.5301 7.17923 14.2005C6.76241 13.897 6.62415 13.3108 6.93865 12.9022C8.59906 10.7452 10.5316 8.8085 12.6849 7.14351Z" fill="#AE1717"/>
<circle cx="37.4614" cy="32.172" r="10.1535" stroke="white" stroke-width="1.5"/>
<path d="M37.4614 25.4744V32.172L40.3629 35.0733" stroke="white" stroke-width="1.5"/>
<path d="M26.1847 24.7537L16.1676 24.7537" stroke="white" stroke-width="1.5"/>
<path d="M23.7715 32.1721H13.5824" stroke="white" stroke-width="1.5"/>
<path d="M26.1847 39.7856L16.1676 39.5906" stroke="white" stroke-width="1.5"/>
</svg>
