<svg width="32" height="32" viewBox="0 0 32 32" fill="none" xmlns="http://www.w3.org/2000/svg">
<path fill-rule="evenodd" clip-rule="evenodd" d="M21.1288 11.1283C21.1854 10.9994 21.2909 10.9199 21.4051 10.9199H25.0964C25.6105 10.9199 26.0851 11.2778 26.3402 11.8576L27.2066 13.8275C27.3342 14.1175 27.5715 14.2964 27.8285 14.2964H29.9677C31.5259 14.2964 32.5028 16.4833 31.7297 18.2409L30.5755 20.865C30.5188 20.9938 30.4133 21.0733 30.2991 21.0733H17.1659C16.9825 21.0733 16.8676 20.8161 16.9586 20.6093L21.1288 11.1283ZM22.2826 13.0911C22.2255 13.0911 22.1728 13.1309 22.1445 13.1953L19.7704 18.5927C19.7098 18.7306 19.7864 18.9021 19.9086 18.9021H29.4216C29.4787 18.9021 29.5315 18.8624 29.5598 18.7979L30.2786 17.1637C30.415 16.8535 30.2427 16.4676 29.9677 16.4676H27.2743C26.7602 16.4676 26.2856 16.1097 26.0305 15.5299L25.2786 13.8205C25.0803 13.3695 24.7111 13.0911 24.3113 13.0911H22.2826Z" fill="#AE1717"/>
<path fill-rule="evenodd" clip-rule="evenodd" d="M15.9292 19.9862L19.6918 11.4319C19.7872 11.215 19.6562 10.948 19.4646 10.9689L16.2183 11.3228C15.9601 11.8632 15.7428 12.4557 15.577 13.0908H16.763C16.8852 13.0908 16.9618 13.2623 16.9012 13.4002L15.2661 17.1176C15.3648 18.159 15.5974 19.1257 15.9292 19.9862ZM14.0594 20.8734C13.8107 20.2528 13.6079 19.5927 13.4574 18.9018H11.3107C11.658 19.3941 11.9432 19.9852 12.1427 20.604L13.9026 20.8508L14.0594 20.8734ZM13.8825 11.5774L12.0225 11.7802C11.8441 12.2549 11.6167 12.7033 11.3504 13.0908H13.4548C13.5683 12.5674 13.7118 12.0617 13.8825 11.5774ZM10.847 19.9031C10.9547 20.0811 11.0522 20.2694 11.1387 20.4633L0.000713043 18.9018H9.93239C10.2486 19.0979 10.563 19.4338 10.847 19.9031ZM0 13.0908H9.9946C10.2993 12.8961 10.5995 12.5667 10.8705 12.1075C10.9118 12.0375 10.9515 11.9658 10.9897 11.8928L0 13.0908Z" fill="#AE1717"/>
<path d="M16.4467 4.64997C15.3489 4.55016 14.3776 3.65473 13.8647 2.40695C13.861 2.39622 13.8554 2.38648 13.8483 2.37863C13.8413 2.3707 13.8329 2.36475 13.8238 2.36105C13.8147 2.35745 13.805 2.35627 13.7955 2.35754C13.786 2.35889 13.7768 2.36267 13.7686 2.36872C12.6745 3.28894 11.6926 4.45242 10.8681 5.81571C10.8625 5.82581 10.8586 5.83726 10.8567 5.84925C10.8547 5.86124 10.8548 5.8735 10.8569 5.8855C10.8589 5.8974 10.8629 5.90876 10.8686 5.91886C10.8743 5.92886 10.8815 5.93743 10.89 5.94401C11.8326 6.70139 12.4599 8.02618 12.4599 9.49271C12.4599 11.6731 11.0748 14.4428 9.31117 14.4071C9.02197 14.4012 8.73474 14.348 8.4572 14.2487C8.45165 14.2467 8.44596 14.2455 8.44023 14.2453C8.436 14.2451 8.43173 14.2454 8.42753 14.2461C8.42424 14.2466 8.42101 14.2475 8.41785 14.2487C8.41143 14.2509 8.40529 14.2543 8.39963 14.2587C8.39117 14.2652 8.38391 14.2739 8.37843 14.2841C8.37291 14.2943 8.36923 14.3059 8.36767 14.3179C8.14434 16.1161 8.08442 15.8808 8.30776 17.6789C8.30936 17.691 8.31304 17.7025 8.31855 17.7127C8.32407 17.7229 8.33132 17.7316 8.33979 17.7381C8.34826 17.7446 8.35773 17.7489 8.36766 17.7506C8.37758 17.7523 8.38768 17.7514 8.39729 17.748C8.67483 17.6486 8.96206 17.5953 9.25126 17.5896C11.0149 17.5541 12.4601 20.3277 12.4601 22.5081C12.4601 23.9743 11.8326 25.2991 10.8902 26.0565C10.8818 26.0631 10.8745 26.0716 10.8688 26.0816C10.8631 26.0917 10.8592 26.103 10.8571 26.115C10.8551 26.127 10.855 26.1393 10.8569 26.1513C10.8588 26.1632 10.8627 26.1746 10.8683 26.1848C11.706 27.5688 12.704 28.7464 13.8176 29.6729C13.8256 29.6786 13.8345 29.6823 13.8438 29.6835C13.853 29.6848 13.8624 29.6836 13.8713 29.6803C13.8764 29.6783 13.8812 29.6756 13.8858 29.6723C13.8891 29.6697 13.8923 29.6669 13.8953 29.6637C13.9023 29.6562 13.9079 29.6469 13.9118 29.6367C14.436 28.4468 15.3821 27.5998 16.4464 27.5009C18.0248 27.3546 19.2734 28.9117 19.2734 30.9755C19.2733 31.2804 19.2464 31.5843 19.1933 31.8822C19.1907 31.8923 19.19 31.9029 19.1911 31.9134C19.1923 31.924 19.1953 31.934 19.1999 31.9429C19.2026 31.9482 19.2059 31.953 19.2097 31.9572C19.2122 31.9601 19.215 31.9627 19.218 31.9651C19.2253 31.9708 19.2335 31.9745 19.2421 31.976C19.8411 32.0207 20.4421 32.0029 21.0386 31.923C21.6282 31.8442 22.2113 31.7054 22.782 31.5084C22.7988 31.5012 22.8129 31.4867 22.8216 31.4675C22.8303 31.4485 22.833 31.4262 22.8291 31.4049C22.7785 31.1224 22.7532 30.834 22.7537 30.5448C22.7537 28.5402 23.9087 26.8077 25.3029 26.6779C26.2052 26.5942 26.9831 27.205 27.4046 28.1799C27.4079 28.188 27.4128 28.195 27.4188 28.2004C27.4248 28.2058 27.4318 28.2094 27.4391 28.2109C27.4465 28.2123 27.454 28.2116 27.4611 28.2088C27.4682 28.206 27.4747 28.2012 27.4799 28.1948C28.3435 27.1863 29.0875 26.0357 29.6904 24.7761C29.6989 24.7591 29.7021 24.7391 29.6993 24.7195C29.6978 24.7083 29.6943 24.6977 29.6892 24.6883C29.6855 24.6814 29.6809 24.6752 29.6756 24.6699C29.0747 24.1744 28.6497 23.2668 28.5702 22.181H26.4729C25.2129 24.437 23.2761 25.9738 21.0389 26.1647C16.8047 26.5258 13.1448 21.9861 13.1448 16.0005C13.1448 10.0149 16.8047 5.47498 21.0389 5.83618C23.9829 6.08728 26.4067 8.6696 27.4528 12.1539L27.9077 13.1882H29.463C28.914 12.547 28.5568 11.5492 28.5568 10.4348C28.5568 9.13593 29.0454 8.03971 29.7582 7.50828C29.7659 7.50125 29.7721 7.49241 29.7766 7.48231C29.7799 7.47501 29.7822 7.46716 29.7835 7.45896C29.7867 7.43921 29.7837 7.41883 29.7752 7.40161C29.1658 6.09206 28.4056 4.89603 27.5176 3.85021C27.5122 3.84354 27.5056 3.83867 27.4983 3.83578C27.491 3.83299 27.4832 3.83236 27.4757 3.83407C27.4681 3.83569 27.4611 3.83966 27.455 3.84543C27.449 3.8512 27.4442 3.85869 27.4411 3.86725C27.0295 4.89522 26.2316 5.54855 25.3017 5.46226C23.9069 5.33432 22.7525 3.60352 22.7525 1.59889C22.7518 1.26438 22.7857 0.931041 22.8536 0.606809C22.8582 0.58553 22.8562 0.562809 22.8479 0.543153C22.8433 0.532333 22.837 0.522866 22.8294 0.515292C22.8232 0.509161 22.8162 0.504202 22.8086 0.500776C22.2292 0.298627 21.6369 0.156888 21.0379 0.0771824C20.4321 -0.0042362 19.8216 -0.0212773 19.2133 0.0262394C19.2046 0.0279526 19.1963 0.0319198 19.189 0.0379608C19.1817 0.0440019 19.1756 0.0519363 19.1711 0.0611331C19.1666 0.0704201 19.1638 0.080789 19.163 0.0915186C19.1621 0.102248 19.1632 0.113068 19.1662 0.123166C19.2374 0.466062 19.2735 0.818426 19.2736 1.17223C19.2736 3.23601 18.0251 4.79369 16.4467 4.64997Z" fill="white"/>
</svg>
