<svg width="677" height="574" viewBox="0 0 677 574" fill="none" xmlns="http://www.w3.org/2000/svg">
<path opacity="0.1" fill-rule="evenodd" clip-rule="evenodd" d="M82.1109 237.577C79.7307 234.468 75.2731 233.382 72.195 235.802C60.2187 245.217 49.4097 256.051 40.0207 268.049C37.631 271.103 38.6816 275.511 41.7361 277.9C51.9538 285.892 58.5216 298.334 58.5216 312.311C58.5216 336.424 38.9744 355.971 14.8617 355.971C13.0644 355.971 11.2924 355.863 9.55201 355.652C5.69938 355.185 1.83678 357.563 1.37146 361.416C0.465992 368.913 0 376.545 0 384.287C0 392.027 0.465782 399.658 1.37084 407.153C1.83607 411.006 5.69881 413.384 9.55156 412.917C11.2921 412.706 13.0642 412.598 14.8617 412.598C38.9744 412.598 58.5216 432.145 58.5216 456.257C58.5216 470.235 51.9529 482.679 41.7341 490.67C38.6793 493.059 37.6285 497.467 40.0182 500.521C49.6339 512.81 60.7392 523.877 73.0624 533.45C76.0798 535.794 80.4136 534.797 82.8142 531.824C90.8177 521.913 103.068 515.575 116.799 515.575C140.912 515.575 160.459 535.122 160.459 559.235C160.459 560.736 160.383 562.219 160.235 563.682C159.85 567.486 162.229 571.248 166.026 571.704C173.483 572.599 181.074 573.06 188.773 573.06C196.474 573.06 204.067 572.599 211.526 571.703C215.322 571.247 217.701 567.485 217.316 563.681C217.168 562.219 217.092 560.736 217.092 559.235C217.092 535.122 236.64 515.575 260.752 515.575C274.482 515.575 286.732 521.913 294.735 531.822C297.136 534.794 301.47 535.792 304.487 533.448C316.538 524.085 327.425 513.295 336.892 501.33C339.264 498.332 338.303 493.987 335.349 491.56C325.598 483.553 319.378 471.404 319.378 457.803C319.378 433.69 338.925 414.143 363.038 414.143C364.683 414.143 366.306 414.234 367.904 414.411C371.706 414.832 375.494 412.487 375.983 408.692C377.015 400.703 377.546 392.557 377.546 384.287C377.546 377.106 377.145 370.018 376.365 363.045C375.931 359.173 372.063 356.761 368.193 357.216C366.503 357.415 364.782 357.517 363.038 357.517C338.925 357.517 319.378 337.97 319.378 313.857C319.378 299.674 326.141 287.071 336.617 279.096C339.715 276.738 340.82 272.319 338.445 269.234C328.845 256.764 317.722 245.528 305.355 235.804C302.277 233.384 297.819 234.47 295.439 237.579C287.46 248 274.891 254.721 260.752 254.721C236.64 254.721 217.092 235.173 217.092 211.061C217.092 209.067 217.226 207.105 217.485 205.182C218.007 201.299 215.631 197.369 211.741 196.897C204.212 195.984 196.548 195.514 188.773 195.514C181 195.514 173.337 195.983 165.811 196.896C161.92 197.368 159.544 201.298 160.066 205.182C160.325 207.105 160.459 209.067 160.459 211.061C160.459 235.173 140.912 254.721 116.799 254.721C102.659 254.721 90.0899 247.999 82.1109 237.577ZM188.769 495.987C250.459 495.987 300.468 445.977 300.468 384.287C300.468 322.598 250.459 272.588 188.769 272.588C127.079 272.588 77.0696 322.598 77.0696 384.287C77.0696 445.977 127.079 495.987 188.769 495.987Z" fill="white"/>
<path opacity="0.1" fill-rule="evenodd" clip-rule="evenodd" d="M381.191 42.0635C378.811 38.9545 374.353 37.8679 371.275 40.2879C359.299 49.7038 348.49 60.5373 339.101 72.5357C336.711 75.5896 337.762 79.9978 340.816 82.3867C351.034 90.3778 357.602 102.821 357.602 116.798C357.602 140.91 338.055 160.458 313.942 160.458C312.145 160.458 310.373 160.349 308.632 160.138C304.78 159.671 300.917 162.049 300.452 165.902C299.546 173.399 299.08 181.032 299.08 188.773C299.08 196.513 299.546 204.144 300.451 211.639C300.916 215.492 304.779 217.871 308.632 217.404C310.372 217.193 312.145 217.084 313.942 217.084C338.055 217.084 357.602 236.631 357.602 260.744C357.602 274.722 351.033 287.165 340.814 295.156C337.76 297.545 336.709 301.954 339.099 305.008C348.714 317.296 359.819 328.363 372.143 337.936C375.16 340.28 379.494 339.283 381.895 336.31C389.898 326.4 402.148 320.061 415.879 320.061C439.992 320.061 459.539 339.608 459.539 363.721C459.539 365.222 459.463 366.706 459.315 368.168C458.931 371.972 461.31 375.734 465.106 376.19C472.563 377.086 480.155 377.546 487.854 377.546C495.554 377.546 503.147 377.085 510.606 376.189C514.402 375.733 516.781 371.971 516.396 368.168C516.248 366.705 516.173 365.222 516.173 363.721C516.173 339.608 535.72 320.061 559.833 320.061C573.563 320.061 585.812 326.399 593.816 336.308C596.216 339.281 600.55 340.278 603.567 337.934C615.619 328.572 626.505 317.781 635.972 305.816C638.345 302.818 637.383 298.473 634.429 296.047C624.678 288.04 618.458 275.891 618.458 262.289C618.458 238.176 638.006 218.629 662.118 218.629C663.763 218.629 665.387 218.72 666.984 218.897C670.787 219.319 674.574 216.973 675.064 213.179C676.095 205.189 676.627 197.043 676.627 188.773C676.627 181.592 676.226 174.504 675.445 167.531C675.011 163.659 671.143 161.247 667.274 161.702C665.583 161.901 663.863 162.003 662.118 162.003C638.006 162.003 618.458 142.456 618.458 118.344C618.458 104.161 625.221 91.5574 635.698 83.5823C638.796 81.224 639.9 76.805 637.525 73.72C627.926 61.2505 616.803 50.0145 604.435 40.2904C601.357 37.8704 596.899 38.9567 594.519 42.0655C586.54 52.4863 573.971 59.2069 559.833 59.2069C535.72 59.2069 516.173 39.6597 516.173 15.547C516.173 13.5536 516.306 11.5913 516.565 9.66873C517.088 5.78498 514.711 1.85493 510.821 1.38307C503.293 0.469979 495.628 0 487.854 0C480.081 0 472.418 0.469777 464.891 1.38249C461.001 1.85426 458.624 5.78444 459.147 9.6683C459.405 11.591 459.539 13.5534 459.539 15.547C459.539 39.6597 439.992 59.2069 415.879 59.2069C401.74 59.2069 389.17 52.4855 381.191 42.0635ZM487.849 300.473C549.539 300.473 599.548 250.463 599.548 188.774C599.548 127.084 549.539 77.0745 487.849 77.0745C426.159 77.0745 376.15 127.084 376.15 188.774C376.15 250.463 426.159 300.473 487.849 300.473Z" fill="white"/>
</svg>
