<svg width="65" height="64" viewBox="0 0 65 64" fill="none" xmlns="http://www.w3.org/2000/svg">
<path fill-rule="evenodd" clip-rule="evenodd" d="M13.2727 6.69014C13.6846 6.37168 14.2773 6.51475 14.5792 6.93893C15.9047 8.80169 18.0813 10.0167 20.5417 10.0167C24.5805 10.0167 27.8546 6.7426 27.8546 2.70377C27.8546 2.28163 27.8188 1.86784 27.7502 1.46527C27.6625 0.951628 27.9796 0.430031 28.4963 0.363109C29.8387 0.189266 31.2075 0.0996094 32.5972 0.0996094C33.9872 0.0996094 35.3563 0.189306 36.699 0.363226C37.2157 0.430161 37.5327 0.951739 37.4451 1.46537C37.3765 1.86791 37.3407 2.28166 37.3407 2.70377C37.3407 6.7426 40.6148 10.0167 44.6536 10.0167C47.1138 10.0167 49.2903 8.80186 50.6158 6.93933C50.9177 6.51518 51.5104 6.37214 51.9223 6.6906C54.1419 8.40698 56.127 10.4121 57.8212 12.6496C58.1337 13.0623 57.9882 13.65 57.5657 13.9491C55.6946 15.2736 54.4732 17.4552 54.4732 19.922C54.4732 23.9608 57.7473 27.235 61.7861 27.235C62.1655 27.235 62.5381 27.2061 62.9018 27.1504C63.4139 27.072 63.9273 27.3938 63.9891 27.9081C64.1392 29.1574 64.2164 30.4291 64.2164 31.7188C64.2164 33.1888 64.1161 34.6354 63.9219 36.0521C63.8528 36.5561 63.3502 36.8691 62.8467 36.796C62.5005 36.7457 62.1463 36.7197 61.7861 36.7197C57.7473 36.7197 54.4732 39.9938 54.4732 44.0326C54.4732 46.3997 55.5978 48.5041 57.3419 49.8407C57.7454 50.1499 57.8717 50.7278 57.5594 51.1288C55.8878 53.2755 53.9454 55.201 51.7834 56.8538C51.3798 57.1623 50.8034 57.0311 50.4977 56.6254C49.1631 54.8544 47.0421 53.7094 44.6536 53.7094C40.6148 53.7094 37.3407 56.9835 37.3407 61.0223C37.3407 61.3582 37.3633 61.6887 37.4072 62.0126C37.4754 62.5163 37.1579 63.0156 36.6537 63.0802C35.3255 63.2503 33.9716 63.338 32.5972 63.338C31.2231 63.338 29.8695 63.2503 28.5416 63.0803C28.0374 63.0157 27.7199 62.5165 27.7881 62.0127C27.832 61.6888 27.8546 61.3582 27.8546 61.0223C27.8546 56.9835 24.5805 53.7094 20.5417 53.7094C18.1531 53.7094 16.0319 54.8545 14.6973 56.6258C14.3916 57.0316 13.8152 57.1627 13.4116 56.8542C11.2023 55.1653 9.22221 53.1917 7.5261 50.9882C7.2116 50.5797 7.34989 49.9934 7.76674 49.6899C9.5931 48.3604 10.7802 46.2057 10.7802 43.7738C10.7802 39.7349 7.50609 36.4608 3.46727 36.4608C3.07952 36.4608 2.69881 36.491 2.32738 36.5491C1.81757 36.6289 1.30492 36.3116 1.23897 35.7998C1.0668 34.4638 0.978027 33.1017 0.978027 31.7188C0.978027 30.3356 1.06684 28.9732 1.23906 27.637C1.30503 27.1252 1.81766 26.8079 2.32746 26.8877C2.69887 26.9458 3.07954 26.976 3.46727 26.976C7.50609 26.976 10.7802 23.7019 10.7802 19.6631C10.7802 17.2313 9.59324 15.0767 7.76706 13.7471C7.35024 13.4436 7.21198 12.8574 7.52648 12.4488C9.18688 10.2918 11.1194 8.35513 13.2727 6.69014Z" fill="#AE1717"/>
<rect x="16.4246" y="29.2495" width="32.3451" height="17.9913" stroke="white" stroke-width="1.5"/>
<path d="M20.752 34.9385H30.6984" stroke="white" stroke-width="1.5"/>
<path d="M20.752 41.5518H30.6984" stroke="white" stroke-width="1.5"/>
<path fill-rule="evenodd" clip-rule="evenodd" d="M39.1334 28.9453C38.9742 25.3112 35.9776 22.4137 32.3042 22.4137C28.6309 22.4137 25.6342 25.3112 25.4751 28.9453H26.9769C27.1346 26.14 29.4594 23.9137 32.3042 23.9137C35.149 23.9137 37.4738 26.14 37.6315 28.9453H39.1334ZM19.2554 28.9453C19.2624 28.6396 19.2799 28.3363 19.3077 28.0357C19.4446 26.5526 20.8238 26.0166 21.6614 26.0166C22.3086 26.0166 22.8333 25.4919 22.8333 24.8447C22.8333 24.5263 22.7083 24.2401 22.5014 24.0275C21.9196 23.4297 21.3075 22.0552 22.2777 20.8922C22.7752 20.296 23.3248 19.7449 23.9196 19.2458C25.0923 18.2619 26.4798 18.8919 27.0756 19.4814C27.2889 19.6925 27.5779 19.8202 27.8998 19.8202C28.547 19.8202 29.0717 19.2955 29.0717 18.6483C29.0717 17.8089 29.6041 16.386 31.124 16.2495C31.5132 16.2146 31.907 16.1968 32.3045 16.1968C32.7022 16.1968 33.0961 16.2146 33.4854 16.2496C35.0052 16.3861 35.5376 17.8089 35.5376 18.6483C35.5376 19.2955 36.0623 19.8202 36.7095 19.8202C37.0313 19.8202 37.3204 19.6925 37.5337 19.4815C38.1295 18.892 39.5169 18.2621 40.6896 19.246C41.3102 19.7666 41.8815 20.344 42.3957 20.9701C43.3613 22.1457 42.7296 23.52 42.1394 24.1118C41.9264 24.3254 41.7973 24.6158 41.7973 24.9393C41.7973 25.5865 42.322 26.1112 42.9692 26.1112C43.8094 26.1112 45.1852 26.6553 45.3104 28.138L43.8157 28.2642C43.7816 27.86 43.3749 27.6112 42.9692 27.6112C41.4936 27.6112 40.2973 26.415 40.2973 24.9393C40.2973 24.2028 40.5953 23.5359 41.0773 23.0526C41.3822 22.7468 41.5106 22.2558 41.2366 21.9221C40.7811 21.3676 40.2751 20.8562 39.7255 20.3951C39.3928 20.116 38.8973 20.2424 38.5886 20.5478C38.1059 21.0253 37.4421 21.3202 36.7095 21.3202C35.2338 21.3202 34.0376 20.124 34.0376 18.6483C34.0376 18.2182 33.7796 17.782 33.3512 17.7436C33.0064 17.7126 32.6573 17.6968 32.3045 17.6968C31.9518 17.6968 31.6028 17.7126 31.2581 17.7435C30.8297 17.782 30.5717 18.2182 30.5717 18.6483C30.5717 20.124 29.3754 21.3202 27.8998 21.3202C27.1671 21.3202 26.5033 21.0253 26.0206 20.5477C25.7119 20.2423 25.2164 20.1159 24.8837 20.395C24.3569 20.837 23.8701 21.3251 23.4295 21.8532C23.154 22.1834 23.2765 22.6732 23.5764 22.9814C24.0448 23.4627 24.3333 24.12 24.3333 24.8447C24.3333 26.3204 23.137 27.5166 21.6614 27.5166C21.2513 27.5166 20.839 27.7653 20.8013 28.1737C20.7778 28.4286 20.7625 28.6859 20.7558 28.9453H19.2554ZM45.3537 28.9453H43.8532C43.8473 28.7166 43.8347 28.4895 43.8157 28.2642L45.3104 28.138C45.333 28.4051 45.3474 28.6743 45.3537 28.9453Z" fill="white"/>
</svg>
