<svg width="64" height="64" viewBox="0 0 64 64" fill="none" xmlns="http://www.w3.org/2000/svg">
<path fill-rule="evenodd" clip-rule="evenodd" d="M12.4944 7.07882C12.9063 6.76036 13.499 6.90342 13.8009 7.3276C15.1264 9.19036 17.303 10.4054 19.7633 10.4054C23.8022 10.4054 27.0763 7.13127 27.0763 3.09244C27.0763 2.6703 27.0405 2.25651 26.9718 1.85394C26.8842 1.3403 27.2013 0.818703 27.718 0.751781C29.0604 0.577938 30.4292 0.488281 31.8189 0.488281C33.2089 0.488281 34.578 0.577978 35.9206 0.751898C36.4374 0.818832 36.7544 1.34041 36.6668 1.85404C36.5981 2.25658 36.5624 2.67033 36.5624 3.09244C36.5624 7.13127 39.8365 10.4054 43.8753 10.4054C46.3355 10.4054 48.512 9.19053 49.8375 7.328C50.1394 6.90385 50.7321 6.76082 51.144 7.07928C53.3636 8.79565 55.3487 10.8007 57.0429 13.0383C57.3554 13.451 57.2099 14.0387 56.7874 14.3378C54.9163 15.6623 53.6949 17.8438 53.6949 20.3107C53.6949 24.3495 56.969 27.6236 61.0078 27.6236C61.3871 27.6236 61.7598 27.5947 62.1235 27.5391C62.6356 27.4607 63.149 27.7824 63.2108 28.2968C63.3608 29.5461 63.4381 30.8177 63.4381 32.1075C63.4381 33.5775 63.3377 35.0241 63.1436 36.4408C63.0745 36.9448 62.5718 37.2578 62.0684 37.1847C61.7221 37.1344 61.368 37.1083 61.0078 37.1083C56.969 37.1083 53.6949 40.3824 53.6949 44.4213C53.6949 46.7884 54.8195 48.8928 56.5636 50.2294C56.9671 50.5385 57.0934 51.1165 56.7811 51.5175C55.1095 53.6642 53.167 55.5896 51.0051 57.2424C50.6015 57.551 50.0251 57.4198 49.7193 57.0141C48.3848 55.243 46.2637 54.098 43.8753 54.098C39.8365 54.098 36.5624 57.3721 36.5624 61.411C36.5624 61.7468 36.585 62.0774 36.6289 62.4013C36.697 62.905 36.3796 63.4043 35.8754 63.4688C34.5472 63.6389 33.1933 63.7266 31.8189 63.7266C30.4448 63.7266 29.0912 63.639 27.7633 63.469C27.259 63.4044 26.9416 62.9051 27.0098 62.4013C27.0536 62.0775 27.0763 61.7469 27.0763 61.411C27.0763 57.3721 23.8022 54.098 19.7633 54.098C17.3747 54.098 15.2536 55.2432 13.919 57.0145C13.6133 57.4202 13.0369 57.5514 12.6333 57.2429C10.424 55.554 8.44389 53.5804 6.74778 51.3769C6.43328 50.9683 6.57157 50.3821 6.98842 50.0786C8.81478 48.7491 10.0019 46.5944 10.0019 44.1624C10.0019 40.1236 6.72777 36.8495 2.68895 36.8495C2.3012 36.8495 1.92049 36.8797 1.54906 36.9378C1.03925 37.0176 0.526598 36.7003 0.460647 36.1885C0.288483 34.8525 0.199707 33.4903 0.199707 32.1075C0.199707 30.7243 0.288517 29.3619 0.460744 28.0256C0.526705 27.5139 1.03934 27.1966 1.54914 27.2764C1.92055 27.3345 2.30122 27.3647 2.68895 27.3647C6.72777 27.3647 10.0019 24.0906 10.0019 20.0517C10.0019 17.6199 8.81492 15.4654 6.98874 14.1358C6.57192 13.8323 6.43366 13.2461 6.74816 12.8375C8.40856 10.6805 10.3411 8.7438 12.4944 7.07882Z" fill="#950E0E"/>
<path fill-rule="evenodd" clip-rule="evenodd" d="M39.0626 37.2301C43.0637 33.2291 43.0637 26.742 39.0626 22.741C35.0615 18.74 28.5746 18.74 24.5735 22.741C20.5725 26.742 20.5725 33.2291 24.5735 37.2301C26.6369 39.2934 31.8174 44.4753 31.8174 44.4753L39.0626 37.2301ZM31.8177 34.9743C34.9172 34.9743 37.4298 32.4617 37.4298 29.3622C37.4298 26.2627 34.9172 23.7501 31.8177 23.7501C28.7183 23.7501 26.2056 26.2627 26.2056 29.3622C26.2056 32.4617 28.7183 34.9743 31.8177 34.9743Z" fill="white"/>
</svg>
