<svg width="311" height="86" viewBox="0 0 311 86" fill="none" xmlns="http://www.w3.org/2000/svg">
<path d="M303.672 56.7469H304.435L305.448 54.2717H306.503L306.738 53.6965H303.866L303.63 54.2717H304.685L303.672 56.7469Z" fill="#AE1717"/>
<path d="M309.615 56.7469L310.854 53.6965H310.228L308.237 55.5921L307.779 53.6965H307.149L305.9 56.7469H306.616L307.349 54.9559L307.713 56.4244H308.057L309.644 54.9167L308.899 56.7469H309.615Z" fill="#AE1717"/>
<path fill-rule="evenodd" clip-rule="evenodd" d="M212.38 40.687C212.021 40.687 211.69 40.8792 211.512 41.1906L208.722 46.0743C208.341 46.7407 208.822 47.5698 209.589 47.5698H217.229C217.587 47.5698 217.919 47.3776 218.097 47.0662L220.143 43.4849C220.321 43.1735 220.652 42.9813 221.011 42.9813H221.658C222.426 42.9813 222.907 43.8103 222.526 44.4767L220.609 47.8309C220.431 48.1423 220.1 48.3345 219.742 48.3345H207.901C207.542 48.3345 207.211 48.5267 207.033 48.8381L203.368 55.2514C202.988 55.9177 203.469 56.7468 204.236 56.7468H224.876C225.235 56.7468 225.566 56.5546 225.744 56.2432L233.779 42.1824C234.16 41.5161 233.678 40.687 232.911 40.687H212.38ZM215.489 54.4525C214.721 54.4525 214.24 53.6234 214.621 52.9571L215.664 51.1324C215.842 50.821 216.173 50.6288 216.532 50.6288H217.288C218.056 50.6288 218.537 51.4579 218.156 52.1242L217.113 53.9489C216.935 54.2603 216.604 54.4525 216.245 54.4525H215.489Z" fill="#AE1717"/>
<path d="M193.502 33.424C193.886 32.7494 194.859 32.7509 195.241 33.4266L199.065 40.1927C199.239 40.4993 199.238 40.8746 199.063 41.1804L190.456 56.2434C190.278 56.5548 189.947 56.747 189.588 56.747H181.945C181.179 56.747 180.697 55.9193 181.077 55.253L193.502 33.424Z" fill="#AE1717"/>
<path d="M130.78 41.1652C130.958 40.8539 131.289 40.6619 131.648 40.6619H139.28C140.048 40.6619 140.529 41.4909 140.148 42.1573L132.114 56.218C131.936 56.5294 131.604 56.7216 131.246 56.7216H123.607C122.839 56.7216 122.358 55.8923 122.739 55.2259L130.78 41.1652Z" fill="#AE1717"/>
<path fill-rule="evenodd" clip-rule="evenodd" d="M282.707 41.1924C282.885 40.8801 283.216 40.6872 283.576 40.6872C285.824 40.6872 293.945 40.6872 296.188 40.6872C296.547 40.6872 296.874 40.4944 297.052 40.1822L300.899 33.424C301.283 32.7494 302.255 32.7509 302.637 33.4266L306.462 40.1927C306.635 40.4993 306.634 40.8746 306.459 41.1804L297.852 56.2434C297.674 56.5548 297.343 56.747 296.984 56.747H275.576C274.809 56.747 274.328 55.9195 274.707 55.2532L282.707 41.1924ZM294.608 44.4755C294.987 43.8091 294.506 42.9815 293.739 42.9815H292.245C291.886 42.9815 291.555 43.1737 291.377 43.4851L285.964 52.9573C285.583 53.6237 286.065 54.4527 286.832 54.4527H288.347C288.706 54.4527 289.038 54.2599 289.216 53.9477L294.608 44.4755Z" fill="#AE1717"/>
<path d="M163.292 40.6619H153.93C153.571 40.6619 153.24 40.8541 153.062 41.1655L145.027 55.2262C144.647 55.8925 145.128 56.7216 145.895 56.7216H153.535C153.893 56.7216 154.224 56.5294 154.402 56.218L161.693 43.4597C161.871 43.1483 162.202 42.9561 162.561 42.9561H164.082C164.849 42.9561 165.331 43.7852 164.95 44.4515L158.793 55.2262C158.412 55.8925 158.893 56.7216 159.661 56.7216H167.3C167.659 56.7216 167.99 56.5294 168.168 56.218L176.203 42.1573C176.583 41.4909 176.102 40.6619 175.335 40.6619H167.115H163.292Z" fill="#AE1717"/>
<path d="M256.922 40.6619H247.56C247.201 40.6619 246.87 40.8541 246.692 41.1655L238.658 55.2262C238.277 55.8925 238.758 56.7216 239.525 56.7216H247.165C247.523 56.7216 247.855 56.5294 248.033 56.218L255.323 43.4597C255.501 43.1483 255.832 42.9561 256.191 42.9561H257.712C258.48 42.9561 258.961 43.7852 258.58 44.4515L252.423 55.2262C252.042 55.8925 252.523 56.7216 253.291 56.7216H260.93C261.289 56.7216 261.62 56.5294 261.798 56.218L269.833 42.1573C270.214 41.4909 269.732 40.6619 268.965 40.6619H260.746H256.922Z" fill="#AE1717"/>
<path fill-rule="evenodd" clip-rule="evenodd" d="M73.5608 29.9957C73.7574 29.6517 74.1231 29.4395 74.5193 29.4395H87.3195C89.1021 29.4395 90.7481 30.3946 91.6325 31.9424L94.6371 37.2005C95.0794 37.9744 95.9023 38.452 96.7937 38.452H104.212C109.615 38.452 113.003 44.2893 110.322 48.9808L106.319 55.9849C106.123 56.3289 105.757 56.5411 105.361 56.5411H59.8186C59.1829 56.5411 58.7844 55.8544 59.0998 55.3024L73.5608 29.9957ZM77.5622 35.2349C77.3641 35.2349 77.1812 35.341 77.083 35.513L68.8505 49.9199C68.6402 50.2878 68.9059 50.7457 69.3297 50.7457H102.318C102.516 50.7457 102.699 50.6395 102.797 50.4676L105.29 46.1054C105.763 45.2775 105.165 44.2474 104.212 44.2474H94.8718C93.0892 44.2474 91.4432 43.2922 90.5588 41.7445L87.9515 37.1816C87.2636 35.9778 85.9834 35.2349 84.5969 35.2349H77.5622Z" fill="#AE1717"/>
<path fill-rule="evenodd" clip-rule="evenodd" d="M52.6819 56.411L52.7952 56.4236C53.4498 56.4944 54.0842 56.1706 54.4109 55.5989L68.5783 30.806C68.9091 30.227 68.4547 29.5145 67.7902 29.5702L51.8784 30.9054C51.1366 32.2676 50.5162 33.7158 50.0337 35.234H58.422C58.8458 35.234 59.1115 35.6918 58.9012 36.0598L50.8276 50.1885C50.6596 50.4827 50.3678 50.6805 50.039 50.7316C50.6862 52.763 51.5803 54.6688 52.6819 56.411ZM46.9503 35.234C47.3441 33.837 47.8417 32.4871 48.4338 31.1944L41.9833 31.7357C41.3647 33.0029 40.5759 34.1997 39.6526 35.234H46.9503ZM46.9588 50.7447C47.4808 52.589 48.1839 54.3508 49.0463 56.0073L48.503 55.947L42.4 55.2884C41.7082 53.6367 40.7191 52.0588 39.5146 50.7447H46.9588ZM37.9068 53.4177C38.2803 53.8927 38.6184 54.3951 38.9183 54.9127L0.295197 50.7447H34.7351C35.8317 51.2681 36.9219 52.1647 37.9068 53.4177ZM0.292725 35.234H34.9511C36.0077 34.7143 37.0486 33.8351 37.9882 32.6093C38.1314 32.4225 38.2693 32.2312 38.4016 32.0362L0.292725 35.234Z" fill="#AE1717"/>
<path d="M57.325 12.7045C53.5181 12.4381 50.1499 10.048 48.3714 6.71738C48.3585 6.68874 48.3391 6.66275 48.3147 6.64181C48.2901 6.62064 48.2611 6.60475 48.2295 6.59488C48.198 6.58526 48.1645 6.58213 48.1314 6.5855C48.0984 6.58911 48.0665 6.59922 48.038 6.61534C44.2442 9.07161 40.8393 12.1772 37.98 15.8161C37.9606 15.8431 37.9471 15.8736 37.9405 15.9056C37.9338 15.9376 37.934 15.9704 37.9411 16.0024C37.9482 16.0342 37.9621 16.0645 37.9818 16.0914C38.0014 16.1181 38.0267 16.141 38.0559 16.1586C41.3246 18.1802 43.5 21.7163 43.5 25.6308C43.5 31.4507 38.6967 38.8437 32.5811 38.7484C31.5782 38.7328 30.5822 38.5905 29.6198 38.3256C29.6005 38.3203 29.5808 38.3171 29.5609 38.3164C29.5463 38.3159 29.5315 38.3167 29.5169 38.3186C29.5055 38.32 29.4943 38.3224 29.4833 38.3256C29.4611 38.3316 29.4398 38.3405 29.4201 38.3523C29.3908 38.3696 29.3656 38.393 29.3466 38.4202C29.3275 38.4473 29.3147 38.4782 29.3093 38.5104C28.5348 43.3101 28.3271 42.6821 29.1016 47.4816C29.1071 47.5138 29.1199 47.5446 29.139 47.5718C29.1581 47.599 29.1833 47.6221 29.2126 47.6394C29.242 47.657 29.2748 47.6683 29.3093 47.6729C29.3437 47.6775 29.3787 47.6751 29.412 47.6659C30.3745 47.4007 31.3705 47.2585 32.3733 47.2431C38.489 47.1485 43.5008 54.5518 43.5008 60.3716C43.5008 64.2854 41.3246 67.8215 38.0568 69.8431C38.0275 69.8607 38.0023 69.8836 37.9825 69.9103C37.9628 69.9372 37.9491 69.9673 37.942 69.9993C37.9349 70.0313 37.9346 70.0641 37.9414 70.0961C37.948 70.1281 37.9615 70.1584 37.9808 70.1856C40.8858 73.8799 44.3464 77.023 48.2081 79.4961C48.2359 79.5113 48.2668 79.5212 48.2989 79.5245C48.3309 79.5279 48.3634 79.5248 48.3942 79.5159C48.4119 79.5106 48.4288 79.5033 48.4445 79.4944C48.4562 79.4877 48.4673 79.48 48.4776 79.4716C48.5018 79.4516 48.5213 79.4268 48.5348 79.3994C50.3524 76.2233 53.6332 73.9627 57.3241 73.6987C62.7976 73.3081 67.1274 77.4644 67.1274 82.9731C67.1269 83.7868 67.0338 84.5981 66.8495 85.3932C66.8406 85.4202 66.838 85.4486 66.842 85.4765C66.8459 85.5047 66.8563 85.5314 66.8724 85.5552C66.8819 85.5694 66.8933 85.5822 66.9062 85.5935C66.9151 85.6012 66.9249 85.6082 66.9352 85.6144C66.9605 85.6298 66.9889 85.6397 67.0187 85.6435C69.0958 85.7629 71.18 85.7155 73.2486 85.5023C75.2929 85.2917 77.315 84.9213 79.2939 84.3954C79.3524 84.3762 79.4014 84.3374 79.4315 84.2864C79.4617 84.2356 79.4708 84.1759 79.4573 84.1191C79.2818 83.3651 79.1942 82.5952 79.1959 81.8234C79.1959 76.4726 83.2013 71.8482 88.0359 71.5018C91.1648 71.2785 93.8622 72.9088 95.3238 75.5109C95.3354 75.5326 95.3523 75.5513 95.3731 75.5658C95.394 75.5802 95.4181 75.5898 95.4437 75.5937C95.4692 75.5975 95.4953 75.5956 95.52 75.5882C95.5445 75.5807 95.5669 75.5679 95.5852 75.5508C98.5798 72.859 101.16 69.7876 103.25 66.4254C103.28 66.3802 103.291 66.3267 103.281 66.2745C103.276 66.2447 103.264 66.2163 103.246 66.1912C103.233 66.1727 103.217 66.1561 103.199 66.1421C101.115 64.8194 99.6416 62.3968 99.3661 59.4987H92.0932C87.7236 65.5202 81.0074 69.6225 73.2494 70.132C58.5667 71.0958 45.8749 58.9784 45.8749 43.0016C45.8749 27.0248 58.5667 14.9066 73.2494 15.8707C83.4586 16.541 91.8636 23.4338 95.4911 32.7342L97.0685 35.4949H102.462C100.558 33.7835 99.3194 31.12 99.3194 28.1456C99.3194 24.6785 101.014 21.7524 103.486 20.3339C103.512 20.3152 103.534 20.2916 103.549 20.2646C103.561 20.2451 103.569 20.2242 103.573 20.2023C103.584 20.1496 103.574 20.0952 103.545 20.0492C101.431 16.5538 98.795 13.3613 95.7159 10.5698C95.6972 10.552 95.6742 10.539 95.6488 10.5313C95.6236 10.5238 95.5966 10.5221 95.5704 10.5267C95.5443 10.531 95.5197 10.5416 95.4988 10.557C95.4778 10.5724 95.4612 10.5924 95.4504 10.6153C94.0232 13.3591 91.2563 15.103 88.0318 14.8727C83.1948 14.5312 79.1918 9.9113 79.1918 4.56051C79.1892 3.66763 79.3069 2.77788 79.5423 1.91243C79.5584 1.85563 79.5513 1.79498 79.5224 1.74252C79.5066 1.71364 79.4847 1.68837 79.4583 1.66815C79.4369 1.65179 79.4126 1.63855 79.3862 1.6294C77.3772 1.08982 75.3233 0.711493 73.2462 0.498741C71.1452 0.281417 69.0283 0.235931 66.919 0.362763C66.8888 0.367336 66.86 0.377925 66.8346 0.39405C66.8092 0.410175 66.7881 0.431354 66.7724 0.455902C66.7568 0.480691 66.7473 0.508368 66.7444 0.537008C66.7414 0.565647 66.7452 0.594527 66.7557 0.621482C67.0025 1.53675 67.1276 2.47728 67.1281 3.42166C67.1281 8.93033 62.7984 13.0881 57.325 12.7045Z" fill="white"/>
</svg>
