<svg width="311" height="86" viewBox="0 0 311 86" fill="none" xmlns="http://www.w3.org/2000/svg">
<path d="M303.672 56.5016H304.435L305.448 54.0264H306.503L306.738 53.4512H303.866L303.631 54.0264H304.685L303.672 56.5016Z" fill="#AE1717"/>
<path d="M309.615 56.5016L310.855 53.4512H310.228L308.238 55.3468L307.78 53.4512H307.149L305.9 56.5016H306.616L307.349 54.7105L307.713 56.1791H308.057L309.644 54.6713L308.9 56.5016H309.615Z" fill="#AE1717"/>
<path fill-rule="evenodd" clip-rule="evenodd" d="M212.381 40.4417C212.022 40.4417 211.691 40.6338 211.513 40.9453L208.722 45.829C208.342 46.4953 208.823 47.3244 209.59 47.3244H217.23C217.588 47.3244 217.919 47.1322 218.097 46.8208L220.144 43.2395C220.322 42.9281 220.653 42.7359 221.012 42.7359H221.659C222.427 42.7359 222.908 43.565 222.527 44.2313L220.61 47.5855C220.432 47.897 220.101 48.0892 219.742 48.0892H207.902C207.543 48.0892 207.212 48.2814 207.034 48.5928L203.369 55.006C202.988 55.6723 203.47 56.5014 204.237 56.5014H224.877C225.236 56.5014 225.567 56.3092 225.745 55.9978L233.78 41.9371C234.16 41.2707 233.679 40.4417 232.912 40.4417H212.381ZM215.49 54.2072C214.722 54.2072 214.241 53.3781 214.622 52.7117L215.665 50.887C215.843 50.5756 216.174 50.3834 216.532 50.3834H217.289C218.056 50.3834 218.538 51.2125 218.157 51.8788L217.114 53.7035C216.936 54.015 216.605 54.2072 216.246 54.2072H215.49Z" fill="#AE1717"/>
<path d="M193.503 33.1786C193.887 32.504 194.86 32.5055 195.242 33.1813L199.066 39.9473C199.239 40.254 199.238 40.6292 199.064 40.9351L190.456 55.998C190.278 56.3094 189.947 56.5016 189.588 56.5016H181.946C181.179 56.5016 180.698 55.674 181.077 55.0076L193.503 33.1786Z" fill="#AE1717"/>
<path d="M130.781 40.9198C130.959 40.6086 131.29 40.4165 131.649 40.4165H139.281C140.049 40.4165 140.53 41.2456 140.149 41.9119L132.114 55.9727C131.936 56.2841 131.605 56.4763 131.246 56.4763H123.608C122.84 56.4763 122.359 55.6469 122.74 54.9806L130.781 40.9198Z" fill="#AE1717"/>
<path fill-rule="evenodd" clip-rule="evenodd" d="M282.708 40.9471C282.886 40.6347 283.217 40.4419 283.576 40.4419C285.825 40.4419 293.946 40.4419 296.188 40.4419C296.548 40.4419 296.874 40.249 297.052 39.9368L300.899 33.1786C301.283 32.504 302.256 32.5055 302.638 33.1813L306.462 39.9473C306.636 40.254 306.635 40.6292 306.46 40.9351L297.852 55.998C297.675 56.3094 297.343 56.5016 296.985 56.5016H275.576C274.809 56.5016 274.328 55.6741 274.707 55.0078L282.708 40.9471ZM294.608 44.2301C294.988 43.5638 294.506 42.7361 293.74 42.7361H292.245C291.887 42.7361 291.555 42.9283 291.377 43.2397L285.965 52.712C285.584 53.3783 286.065 54.2074 286.832 54.2074H288.348C288.707 54.2074 289.039 54.0146 289.216 53.7023L294.608 44.2301Z" fill="#AE1717"/>
<path d="M163.293 40.4165H153.931C153.572 40.4165 153.241 40.6087 153.063 40.9201L145.028 54.9809C144.648 55.6472 145.129 56.4763 145.896 56.4763H153.536C153.894 56.4763 154.225 56.2841 154.403 55.9727L161.694 43.2144C161.872 42.9029 162.203 42.7108 162.562 42.7108H164.083C164.85 42.7108 165.332 43.5398 164.951 44.2062L158.794 54.9809C158.413 55.6472 158.894 56.4763 159.662 56.4763H167.301C167.66 56.4763 167.991 56.2841 168.169 55.9727L176.204 41.9119C176.584 41.2456 176.103 40.4165 175.336 40.4165H167.116H163.293Z" fill="#AE1717"/>
<path d="M256.922 40.4165H247.561C247.202 40.4165 246.871 40.6087 246.693 40.9201L238.658 54.9809C238.277 55.6472 238.759 56.4763 239.526 56.4763H247.165C247.524 56.4763 247.855 56.2841 248.033 55.9727L255.324 43.2144C255.502 42.9029 255.833 42.7108 256.192 42.7108H257.713C258.48 42.7108 258.961 43.5398 258.581 44.2062L252.424 54.9809C252.043 55.6472 252.524 56.4763 253.292 56.4763H260.931C261.29 56.4763 261.621 56.2841 261.799 55.9727L269.833 41.9119C270.214 41.2456 269.733 40.4165 268.966 40.4165H260.746H256.922Z" fill="#AE1717"/>
<path fill-rule="evenodd" clip-rule="evenodd" d="M73.5606 29.7503C73.7571 29.4064 74.1229 29.1941 74.519 29.1941H87.3193C89.1019 29.1941 90.7479 30.1493 91.6323 31.697L94.6369 36.9551C95.0791 37.729 95.9021 38.2066 96.7934 38.2066H104.211C109.615 38.2066 113.002 44.0439 110.322 48.7354L106.319 55.7396C106.123 56.0835 105.757 56.2958 105.361 56.2958H59.8184C59.1827 56.2958 58.7842 55.609 59.0996 55.0571L73.5606 29.7503ZM77.562 34.9895C77.3639 34.9895 77.181 35.0957 77.0827 35.2676L68.8502 49.6745C68.64 50.0425 68.9057 50.5003 69.3295 50.5003H102.318C102.516 50.5003 102.699 50.3942 102.797 50.2222L105.29 45.8601C105.763 45.0322 105.165 44.002 104.211 44.002H94.8716C93.0889 44.002 91.443 43.0469 90.5586 41.4991L87.9512 36.9363C87.2633 35.7325 85.9831 34.9895 84.5966 34.9895H77.562Z" fill="#AE1717"/>
<path fill-rule="evenodd" clip-rule="evenodd" d="M52.6821 56.1657L52.7954 56.1782C53.4501 56.2491 54.0845 55.9252 54.4112 55.3535L68.5785 30.5606C68.9094 29.9817 68.455 29.2691 67.7905 29.3249L51.8787 30.66C51.1368 32.0223 50.5164 33.4704 50.0339 34.9886H58.4222C58.846 34.9886 59.1117 35.4464 58.9015 35.8144L50.8279 49.9432C50.6598 50.2373 50.368 50.4351 50.0393 50.4863C50.6864 52.5177 51.5806 54.4234 52.6821 56.1657ZM46.9506 34.9886C47.3444 33.5916 47.842 32.2418 48.434 30.9491L41.9836 31.4903C41.3649 32.7575 40.5762 33.9544 39.6529 34.9886H46.9506ZM46.959 50.4994C47.4811 52.3436 48.1841 54.1055 49.0465 55.7619L48.5032 55.7016L42.4002 55.043C41.7084 53.3913 40.7193 51.8134 39.5148 50.4994H46.959ZM37.9071 53.1723C38.2805 53.6474 38.6186 54.1497 38.9185 54.6673L0.295441 50.4994H34.7353C35.832 51.0227 36.9222 51.9194 37.9071 53.1723ZM0.292969 34.9886H34.9513C36.0079 34.4689 37.0488 33.5897 37.9884 32.3639C38.1316 32.1771 38.2695 31.9858 38.4018 31.7909L0.292969 34.9886Z" fill="#AE1717"/>
<path d="M57.325 12.4591C53.5181 12.1927 50.1499 9.80264 48.3714 6.47202C48.3585 6.44338 48.3391 6.41739 48.3147 6.39645C48.2901 6.37527 48.2611 6.35939 48.2295 6.34952C48.1979 6.3399 48.1645 6.33677 48.1314 6.34014C48.0984 6.34375 48.0665 6.35385 48.038 6.36998C44.2442 8.82625 40.8393 11.9318 37.98 15.5707C37.9606 15.5977 37.9471 15.6283 37.9405 15.6603C37.9338 15.6923 37.934 15.725 37.9411 15.757C37.9482 15.7888 37.9621 15.8191 37.9818 15.8461C38.0014 15.8728 38.0267 15.8957 38.0559 15.9132C41.3246 17.9348 43.5 21.471 43.5 25.3855C43.5 31.2053 38.6967 38.5984 32.5811 38.5031C31.5782 38.4874 30.5822 38.3452 29.6198 38.0802C29.6005 38.0749 29.5808 38.0718 29.5609 38.0711C29.5463 38.0706 29.5315 38.0713 29.5169 38.0732C29.5055 38.0747 29.4943 38.0771 29.4833 38.0802C29.4611 38.0862 29.4398 38.0951 29.4201 38.1069C29.3908 38.1242 29.3656 38.1476 29.3466 38.1748C29.3275 38.202 29.3147 38.2328 29.3093 38.265C28.5348 43.0647 28.3271 42.4368 29.1016 47.2362C29.1071 47.2684 29.1199 47.2993 29.139 47.3264C29.1581 47.3536 29.1833 47.3768 29.2126 47.3941C29.242 47.4116 29.2748 47.423 29.3093 47.4275C29.3437 47.4321 29.3787 47.4297 29.412 47.4206C30.3745 47.1553 31.3705 47.0131 32.3733 46.9977C38.489 46.9031 43.5008 54.3064 43.5008 60.1263C43.5008 64.04 41.3246 67.5762 38.0568 69.5978C38.0275 69.6154 38.0023 69.6382 37.9825 69.6649C37.9628 69.6919 37.9491 69.722 37.942 69.754C37.9349 69.786 37.9346 69.8187 37.9414 69.8507C37.948 69.8827 37.9615 69.9131 37.9808 69.9403C40.8858 73.6345 44.3464 76.7777 48.2081 79.2508C48.2359 79.2659 48.2668 79.2758 48.2989 79.2792C48.3309 79.2825 48.3634 79.2794 48.3942 79.2705C48.4119 79.2652 48.4288 79.258 48.4445 79.2491C48.4562 79.2423 48.4673 79.2346 48.4776 79.2262C48.5018 79.2062 48.5213 79.1815 48.5348 79.154C50.3524 75.9779 53.6332 73.7173 57.3241 73.4533C62.7976 73.0627 67.1274 77.219 67.1274 82.7277C67.1269 83.5414 67.0338 84.3527 66.8495 85.1479C66.8406 85.1748 66.838 85.2032 66.842 85.2311C66.8459 85.2593 66.8563 85.286 66.8724 85.3099C66.8819 85.3241 66.8933 85.3368 66.9062 85.3481C66.9151 85.3558 66.9249 85.3628 66.9352 85.3691C66.9605 85.3845 66.9889 85.3943 67.0187 85.3982C69.0958 85.5175 71.18 85.4701 73.2486 85.2569C75.2929 85.0463 77.315 84.6759 79.2939 84.1501C79.3524 84.1308 79.4014 84.0921 79.4315 84.041C79.4617 83.9903 79.4708 83.9306 79.4573 83.8738C79.2818 83.1198 79.1942 82.3499 79.1959 81.578C79.1959 76.2272 83.2013 71.6028 88.0359 71.2565C91.1648 71.0331 93.8622 72.6634 95.3238 75.2655C95.3354 75.2872 95.3523 75.306 95.3731 75.3204C95.394 75.3348 95.4181 75.3445 95.4437 75.3483C95.4692 75.3522 95.4953 75.3503 95.52 75.3428C95.5445 75.3353 95.5669 75.3226 95.5852 75.3055C98.5798 72.6136 101.16 69.5422 103.25 66.18C103.28 66.1348 103.291 66.0814 103.281 66.0291C103.276 65.9993 103.264 65.9709 103.246 65.9459C103.233 65.9273 103.217 65.9107 103.199 65.8968C101.115 64.5741 99.6416 62.1515 99.3661 59.2533H92.0932C87.7236 65.2749 81.0074 69.3771 73.2494 69.8866C58.5667 70.8505 45.8749 58.733 45.8749 42.7562C45.8749 26.7794 58.5667 14.6613 73.2494 15.6254C83.4586 16.2956 91.8636 23.1884 95.4911 32.4888L97.0685 35.2495H102.462C100.558 33.5381 99.3194 30.8746 99.3194 27.9002C99.3194 24.4331 101.014 21.5071 103.486 20.0886C103.512 20.0698 103.534 20.0462 103.549 20.0193C103.561 19.9998 103.569 19.9788 103.573 19.9569C103.584 19.9042 103.574 19.8498 103.545 19.8039C101.431 16.3084 98.795 13.1159 95.7159 10.3244C95.6972 10.3066 95.6742 10.2936 95.6488 10.2859C95.6236 10.2784 95.5966 10.2768 95.5704 10.2813C95.5443 10.2857 95.5197 10.2963 95.4988 10.3117C95.4778 10.3271 95.4612 10.347 95.4504 10.3699C94.0232 13.1138 91.2563 14.8576 88.0318 14.6273C83.1948 14.2858 79.1918 9.66594 79.1918 4.31515C79.1892 3.42227 79.3069 2.53251 79.5423 1.66707C79.5584 1.61027 79.5513 1.54962 79.5224 1.49716C79.5066 1.46828 79.4847 1.44301 79.4583 1.42279C79.4369 1.40642 79.4126 1.39319 79.3862 1.38404C77.3772 0.844463 75.3233 0.466131 73.2462 0.25338C71.1452 0.036056 69.0283 -0.00943048 66.919 0.117402C66.8888 0.121975 66.86 0.132564 66.8346 0.148689C66.8092 0.164814 66.7881 0.185993 66.7724 0.210541C66.7568 0.23533 66.7473 0.263007 66.7444 0.291646C66.7414 0.320286 66.7452 0.349166 66.7557 0.376121C67.0025 1.29138 67.1276 2.23192 67.1281 3.1763C67.1281 8.68497 62.7984 12.8428 57.325 12.4591Z" fill="white"/>
<path d="M127.794 75.7548L125.74 72.0258H125.163V75.7548H122.757V65.8766H126.795C127.574 65.8766 128.235 66.0126 128.779 66.2846C129.333 66.5567 129.746 66.9319 130.018 67.4104C130.29 67.8794 130.426 68.4047 130.426 68.9864C130.426 69.643 130.238 70.2294 129.863 70.7453C129.497 71.2613 128.953 71.6271 128.231 71.8429L130.51 75.7548H127.794ZM125.163 70.3232H126.655C127.096 70.3232 127.424 70.2153 127.64 69.9995C127.865 69.7838 127.977 69.4789 127.977 69.0849C127.977 68.7096 127.865 68.4141 127.64 68.1984C127.424 67.9826 127.096 67.8747 126.655 67.8747H125.163V70.3232Z" fill="white"/>
<path d="M134.343 67.8044V69.8025H137.565V71.66H134.343V73.827H137.987V75.7548H131.936V65.8766H137.987V67.8044H134.343Z" fill="white"/>
<path d="M147.078 69.0567C147.078 69.629 146.946 70.1543 146.684 70.6327C146.421 71.1018 146.017 71.4817 145.473 71.7725C144.929 72.0633 144.254 72.2088 143.447 72.2088H141.955V75.7548H139.549V65.8766H143.447C144.235 65.8766 144.901 66.0126 145.445 66.2846C145.989 66.5567 146.397 66.9319 146.669 67.4104C146.942 67.8888 147.078 68.4376 147.078 69.0567ZM143.264 70.295C143.724 70.295 144.066 70.1871 144.291 69.9714C144.517 69.7556 144.629 69.4507 144.629 69.0567C144.629 68.6627 144.517 68.3578 144.291 68.1421C144.066 67.9263 143.724 67.8184 143.264 67.8184H141.955V70.295H143.264Z" fill="white"/>
<path d="M154.48 74.0099H150.793L150.202 75.7548H147.683L151.257 65.8766H154.043L157.617 75.7548H155.071L154.48 74.0099ZM153.86 72.1525L152.636 68.5361L151.426 72.1525H153.86Z" fill="white"/>
<path d="M161.111 65.8766V75.7548H158.705V65.8766H161.111Z" fill="white"/>
<path d="M167.893 75.7548L165.838 72.0258H165.262V75.7548H162.855V65.8766H166.894C167.672 65.8766 168.334 66.0126 168.878 66.2846C169.431 66.5567 169.844 66.9319 170.116 67.4104C170.388 67.8794 170.524 68.4047 170.524 68.9864C170.524 69.643 170.337 70.2294 169.961 70.7453C169.596 71.2613 169.051 71.6271 168.329 71.8429L170.609 75.7548H167.893ZM165.262 70.3232H166.753C167.194 70.3232 167.522 70.2153 167.738 69.9995C167.963 69.7838 168.076 69.4789 168.076 69.0849C168.076 68.7096 167.963 68.4141 167.738 68.1984C167.522 67.9826 167.194 67.8747 166.753 67.8747H165.262V70.3232Z" fill="white"/>
<path d="M188.61 65.8766L186.035 75.7548H183.122L181.546 69.2537L179.914 75.7548H177.001L174.496 65.8766H177.071L178.492 73.0671L180.251 65.8766H182.897L184.585 73.0671L186.021 65.8766H188.61Z" fill="white"/>
<path d="M192.223 65.8766V75.7548H189.817V65.8766H192.223Z" fill="white"/>
<path d="M201.073 65.8766V67.8044H198.455V75.7548H196.049V67.8044H193.432V65.8766H201.073Z" fill="white"/>
<path d="M210.836 65.8766V75.7548H208.43V71.6881H204.687V75.7548H202.28V65.8766H204.687V69.7462H208.43V65.8766H210.836Z" fill="white"/>
<path d="M215.147 70.8016C215.147 69.826 215.358 68.9582 215.78 68.1984C216.202 67.4291 216.788 66.8334 217.539 66.4113C218.299 65.9797 219.157 65.764 220.114 65.764C221.287 65.764 222.29 66.0736 223.125 66.6927C223.96 67.3119 224.518 68.1561 224.8 69.2256H222.154C221.957 68.8128 221.676 68.4986 221.31 68.2828C220.954 68.067 220.546 67.9591 220.086 67.9591C219.345 67.9591 218.744 68.2171 218.285 68.7331C217.825 69.249 217.595 69.9385 217.595 70.8016C217.595 71.6647 217.825 72.3542 218.285 72.8701C218.744 73.3861 219.345 73.6441 220.086 73.6441C220.546 73.6441 220.954 73.5362 221.31 73.3204C221.676 73.1046 221.957 72.7904 222.154 72.3776H224.8C224.518 73.4471 223.96 74.2913 223.125 74.9105C222.29 75.5203 221.287 75.8251 220.114 75.8251C219.157 75.8251 218.299 75.6141 217.539 75.1919C216.788 74.7604 216.202 74.1647 215.78 73.4048C215.358 72.645 215.147 71.7772 215.147 70.8016Z" fill="white"/>
<path d="M230.945 75.8533C230.016 75.8533 229.163 75.6375 228.384 75.206C227.615 74.7745 227 74.1741 226.541 73.4048C226.091 72.6262 225.865 71.7538 225.865 70.7875C225.865 69.8213 226.091 68.9535 226.541 68.1843C227 67.415 227.615 66.8147 228.384 66.3831C229.163 65.9516 230.016 65.7358 230.945 65.7358C231.874 65.7358 232.723 65.9516 233.492 66.3831C234.271 66.8147 234.881 67.415 235.321 68.1843C235.772 68.9535 235.997 69.8213 235.997 70.7875C235.997 71.7538 235.772 72.6262 235.321 73.4048C234.871 74.1741 234.261 74.7745 233.492 75.206C232.723 75.6375 231.874 75.8533 230.945 75.8533ZM230.945 73.6581C231.733 73.6581 232.362 73.3955 232.831 72.8701C233.309 72.3448 233.548 71.6506 233.548 70.7875C233.548 69.9151 233.309 69.2209 232.831 68.7049C232.362 68.1796 231.733 67.9169 230.945 67.9169C230.148 67.9169 229.51 68.1749 229.031 68.6909C228.562 69.2068 228.328 69.9057 228.328 70.7875C228.328 71.66 228.562 72.3589 229.031 72.8842C229.51 73.4001 230.148 73.6581 230.945 73.6581Z" fill="white"/>
<path d="M246.173 75.7548H243.766L239.742 69.6618V75.7548H237.336V65.8766H239.742L243.766 71.9977V65.8766H246.173V75.7548Z" fill="white"/>
<path d="M254.347 65.8766V67.8044H250.323V69.8869H253.334V71.7585H250.323V75.7548H247.917V65.8766H254.347Z" fill="white"/>
<path d="M258.018 65.8766V75.7548H255.612V65.8766H258.018Z" fill="white"/>
<path d="M263.463 65.8766C264.504 65.8766 265.414 66.0829 266.193 66.4957C266.971 66.9085 267.572 67.4901 267.994 68.2406C268.425 68.9817 268.641 69.84 268.641 70.8157C268.641 71.7819 268.425 72.6403 267.994 73.3908C267.572 74.1412 266.967 74.7229 266.179 75.1356C265.4 75.5484 264.495 75.7548 263.463 75.7548H259.762V65.8766H263.463ZM263.308 73.6722C264.218 73.6722 264.926 73.4236 265.433 72.9264C265.94 72.4292 266.193 71.7256 266.193 70.8157C266.193 69.9057 265.94 69.1974 265.433 68.6909C264.926 68.1843 264.218 67.931 263.308 67.931H262.168V73.6722H263.308Z" fill="white"/>
<path d="M272.392 67.8044V69.8025H275.615V71.66H272.392V73.827H276.037V75.7548H269.986V65.8766H276.037V67.8044H272.392Z" fill="white"/>
<path d="M286.436 75.7548H284.03L280.005 69.6618V75.7548H277.599V65.8766H280.005L284.03 71.9977V65.8766H286.436V75.7548Z" fill="white"/>
<path d="M287.772 70.8016C287.772 69.826 287.983 68.9582 288.405 68.1984C288.827 67.4291 289.414 66.8334 290.164 66.4113C290.924 65.9797 291.782 65.764 292.739 65.764C293.912 65.764 294.916 66.0736 295.751 66.6927C296.585 67.3119 297.144 68.1561 297.425 69.2256H294.78C294.583 68.8128 294.301 68.4986 293.935 68.2828C293.579 68.067 293.171 67.9591 292.711 67.9591C291.97 67.9591 291.37 68.2171 290.91 68.7331C290.45 69.249 290.22 69.9385 290.22 70.8016C290.22 71.6647 290.45 72.3542 290.91 72.8701C291.37 73.3861 291.97 73.6441 292.711 73.6441C293.171 73.6441 293.579 73.5362 293.935 73.3204C294.301 73.1046 294.583 72.7904 294.78 72.3776H297.425C297.144 73.4471 296.585 74.2913 295.751 74.9105C294.916 75.5203 293.912 75.8251 292.739 75.8251C291.782 75.8251 290.924 75.6141 290.164 75.1919C289.414 74.7604 288.827 74.1647 288.405 73.4048C287.983 72.645 287.772 71.7772 287.772 70.8016Z" fill="white"/>
<path d="M301.305 67.8044V69.8025H304.527V71.66H301.305V73.827H304.949V75.7548H298.899V65.8766H304.949V67.8044H301.305Z" fill="white"/>
<path d="M307.637 75.8674C307.215 75.8674 306.868 75.7454 306.596 75.5015C306.333 75.2482 306.202 74.9386 306.202 74.5728C306.202 74.1975 306.333 73.8833 306.596 73.63C306.868 73.3767 307.215 73.2501 307.637 73.2501C308.05 73.2501 308.388 73.3767 308.65 73.63C308.922 73.8833 309.059 74.1975 309.059 74.5728C309.059 74.9386 308.922 75.2482 308.65 75.5015C308.388 75.7454 308.05 75.8674 307.637 75.8674Z" fill="white"/>
</svg>
