<svg width="64" height="64" viewBox="0 0 64 64" fill="none" xmlns="http://www.w3.org/2000/svg">
<path fill-rule="evenodd" clip-rule="evenodd" d="M12.9024 7.25411C13.3142 6.93565 13.907 7.07871 14.2088 7.5029C15.5343 9.36565 17.7109 10.5807 20.1713 10.5807C24.2101 10.5807 27.4842 7.30656 27.4842 3.26773C27.4842 2.84559 27.4485 2.43181 27.3798 2.02924C27.2922 1.51559 27.6092 0.993996 28.126 0.927074C29.4683 0.753231 30.8371 0.663574 32.2268 0.663574C33.6169 0.663574 34.9859 0.753271 36.3286 0.927191C36.8453 0.994125 37.1624 1.5157 37.0748 2.02933C37.0061 2.43187 36.9703 2.84563 36.9703 3.26773C36.9703 7.30656 40.2444 10.5807 44.2833 10.5807C46.7435 10.5807 48.9199 9.36583 50.2455 7.50329C50.5473 7.07914 51.1401 6.93611 51.5519 7.25457C53.7716 8.97095 55.7566 10.976 57.4508 13.2136C57.7633 13.6263 57.6179 14.2139 57.1953 14.513C55.3242 15.8375 54.1028 18.0191 54.1028 20.486C54.1028 24.5248 57.3769 27.7989 61.4158 27.7989C61.7951 27.7989 62.1677 27.77 62.5315 27.7144C63.0436 27.636 63.5569 27.9577 63.6187 28.4721C63.7688 29.7214 63.846 30.993 63.846 32.2827C63.846 33.7528 63.7457 35.1994 63.5515 36.6161C63.4824 37.1201 62.9798 37.4331 62.4764 37.36C62.1301 37.3097 61.776 37.2836 61.4158 37.2836C57.3769 37.2836 54.1028 40.5577 54.1028 44.5966C54.1028 46.9637 55.2275 49.0681 56.9716 50.4046C57.375 50.7138 57.5014 51.2917 57.1891 51.6928C55.5175 53.8395 53.575 55.7649 51.413 57.4177C51.0094 57.7263 50.433 57.5951 50.1273 57.1894C48.7927 55.4183 46.6717 54.2733 44.2833 54.2733C40.2444 54.2733 36.9703 57.5474 36.9703 61.5863C36.9703 61.9221 36.993 62.2527 37.0368 62.5765C37.105 63.0803 36.7876 63.5796 36.2833 63.6441C34.9552 63.8142 33.6012 63.9019 32.2268 63.9019C30.8527 63.9019 29.4991 63.8143 28.1713 63.6443C27.667 63.5797 27.3495 63.0804 27.4177 62.5766C27.4616 62.2528 27.4842 61.9222 27.4842 61.5863C27.4842 57.5474 24.2101 54.2733 20.1713 54.2733C17.7827 54.2733 15.6616 55.4185 14.327 57.1898C14.0213 57.5955 13.4448 57.7267 13.0412 57.4182C10.8319 55.7293 8.85185 53.7557 7.15574 51.5522C6.84124 51.1436 6.97953 50.5574 7.39637 50.2539C9.22274 48.9243 10.4099 46.7697 10.4099 44.3377C10.4099 40.2989 7.13573 37.0248 3.0969 37.0248C2.70916 37.0248 2.32845 37.055 1.95702 37.1131C1.44721 37.1929 0.934557 36.8756 0.868606 36.3638C0.696442 35.0278 0.607666 33.6656 0.607666 32.2827C0.607666 30.8996 0.696476 29.5372 0.868703 28.2009C0.934664 27.6892 1.4473 27.3719 1.9571 27.4517C2.32851 27.5098 2.70918 27.54 3.0969 27.54C7.13573 27.54 10.4099 24.2659 10.4099 20.227C10.4099 17.7952 9.22288 15.6407 7.3967 14.3111C6.97988 14.0076 6.84162 13.4214 7.15612 13.0128C8.81652 10.8558 10.7491 8.9191 12.9024 7.25411Z" fill="#AE1717"/>
<path d="M21.2231 32.5277L20.3246 32.0259L20.3245 32.0259L18.4847 30.9981L17.8348 30.635L17.4669 31.2822L16.3473 33.2519C16.369 32.4613 16.4834 31.5559 16.6856 30.6014C17.0193 29.0266 17.5784 27.3838 18.2866 26.0038C19.0629 24.4911 19.5421 23.855 21.1582 22.2473L21.1582 22.2473C22.7957 20.6184 24.3619 19.4854 26.068 18.7253C27.774 17.9652 29.6578 17.5611 31.9519 17.4379L34.4793 17.3022L35.0141 17.2735L35.1605 16.7583L35.3661 16.0351C35.7277 16.652 36.1695 17.4239 36.6063 18.1994C37.0977 19.0718 37.5801 19.9442 37.9323 20.6011C38.0249 20.774 38.1077 20.9303 38.1788 21.0667C38.0083 21.1613 37.8071 21.2722 37.5826 21.3955C36.9024 21.7691 36.0131 22.2538 35.1274 22.7341C34.3751 23.1421 33.6263 23.5465 33.0113 23.8766C33.0517 23.7035 33.0845 23.5402 33.1078 23.396C33.129 23.2647 33.1456 23.1293 33.149 23.0083C33.1507 22.9499 33.1501 22.8695 33.1371 22.7835L33.1366 22.7803C33.1292 22.7308 33.0953 22.5047 32.9079 22.3172C32.7332 22.1425 32.5266 22.0954 32.4509 22.0801C32.3495 22.0597 32.2511 22.0548 32.1727 22.0544C32.013 22.0535 31.8304 22.0714 31.648 22.0968C31.277 22.1485 30.8108 22.2452 30.3274 22.3646C29.3714 22.6006 28.2462 22.9505 27.557 23.2814C26.6896 23.6976 25.5766 24.5535 24.623 25.4975L24.623 25.4975C22.693 27.4085 21.7294 29.2683 21.3218 31.8919L21.3218 31.8919L21.2231 32.5277ZM42.0274 22.7875L42.7038 22.427L42.3286 21.7586L41.297 19.9205C41.2754 19.882 41.2539 19.8436 41.2326 19.8054C42.1936 20.4806 43.3371 21.4181 44.2398 22.3279L44.2398 22.3279C46.8837 24.9925 48.2737 27.8432 48.7817 31.6605L49.5252 31.5616L48.7817 31.6605C49.1915 34.739 48.4154 38.5195 46.7674 41.3912L45.9634 42.7922L45.6777 43.29L46.0835 43.6958L46.5267 44.139L44.1998 44.2226C44.1998 44.2226 44.1998 44.2226 44.1998 44.2226C43.0902 44.2624 42.0743 44.2893 41.3323 44.3008C41.1377 44.3038 40.9632 44.3057 40.8117 44.3066C40.8093 44.156 40.8076 43.9829 40.8064 43.79C40.8021 43.051 40.8072 42.0395 40.823 40.9347L40.8575 38.5021L41.5964 39.1339L42.3737 39.7985L42.774 38.8574L43.1979 37.8608L43.1979 37.8607C44.6341 34.4844 44.3055 30.4811 42.3349 27.4103C41.9781 26.8544 41.3401 26.1228 40.6947 25.4696C40.25 25.0194 39.7696 24.5738 39.3366 24.2255C39.5489 24.1088 39.8124 23.968 40.1388 23.7941L40.1388 23.7941L42.0274 22.7875ZM38.6926 23.7579C38.6873 23.7538 38.6887 23.7543 38.6947 23.7596C38.6939 23.759 38.6932 23.7584 38.6926 23.7579ZM17.6075 40.0573C17.5825 40.0401 17.3931 39.9098 17.1221 39.9351C17.0904 39.9381 17.0664 39.9424 17.0619 39.9432C17.0513 39.945 17.0428 39.9467 17.038 39.9477C17.0282 39.9497 17.0198 39.9516 17.0149 39.9528L16.9832 39.9604C16.9626 39.9654 16.9355 39.9723 16.9039 39.9804C16.8402 39.9967 16.7512 40.0198 16.644 40.0479C16.5265 40.0787 16.3858 40.1157 16.2307 40.1567C16.5065 39.6498 16.8342 39.0532 17.1715 38.4439C17.8852 37.1545 18.6228 35.8417 19.0047 35.188C19.2496 35.2925 19.6101 35.4744 20.131 35.7608L20.1311 35.7608C21.0829 36.284 22.6906 37.1605 23.7049 37.7092C23.8639 37.7952 24.0178 37.88 24.1641 37.9621C23.9861 38.01 23.8223 38.0598 23.6827 38.1085C23.5645 38.1499 23.4407 38.1983 23.3354 38.253C23.2864 38.2785 23.209 38.3217 23.1332 38.385C23.0952 38.4166 23.0344 38.4722 22.9782 38.5538C22.9238 38.6328 22.8397 38.7858 22.8397 38.9956C22.8397 39.2223 22.931 39.4172 22.9723 39.502C23.0288 39.6182 23.1015 39.7388 23.1779 39.8546C23.3321 40.0885 23.538 40.3582 23.7623 40.6284C24.2071 41.1641 24.7767 41.7648 25.2549 42.153L25.255 42.153C28.6587 44.9155 33.5771 45.5889 37.3786 43.787V44.6786V46.7899V47.5385L38.1273 47.5399L40.4708 47.5441C38.0729 48.8927 35.7071 49.4709 32.6493 49.4746C29.0648 49.4793 26.5139 48.7038 23.4384 46.6665C21.5447 45.412 19.8679 43.6556 18.7126 41.7176C18.4781 41.3242 18.2608 40.9654 18.0993 40.7038C18.019 40.5737 17.9504 40.4643 17.8997 40.3859C17.8751 40.3478 17.8505 40.3106 17.8292 40.2801C17.8198 40.2667 17.8028 40.2427 17.7824 40.2175C17.7743 40.2074 17.7506 40.1783 17.7171 40.1457C17.7021 40.1311 17.6643 40.0953 17.6095 40.0587C17.609 40.0583 17.6084 40.0579 17.6075 40.0573Z" stroke="white" stroke-width="1.5"/>
</svg>
