<svg width="237" height="85" viewBox="0 0 237 85" fill="none" xmlns="http://www.w3.org/2000/svg">
<path fill-rule="evenodd" clip-rule="evenodd" d="M183.124 1.3373C158.985 2.85115 129.386 9.69258 104.564 19.4965C86.7219 26.543 74.9778 32.9315 66.5337 40.1826C61.9917 44.0834 60.5153 46.7751 61.3647 49.6052C62.4037 53.066 66.2993 55.0099 76.7475 57.2819C85.5094 59.1871 92.497 60.1683 105.063 61.2565C115.184 62.1331 145.813 63.973 153.196 64.1478C156.077 64.216 158.391 64.4723 158.339 64.7173C158.287 64.9622 156.266 65.9937 153.85 67.0092C151.433 68.0242 147.547 69.6919 145.216 70.7149C126.201 79.0577 109.302 85.1017 109.302 83.56C109.302 80.482 124.896 71.9699 139.213 67.2332C141.535 66.4651 143.145 65.7403 142.791 65.6223C141.06 65.0463 128.575 69.7427 119.952 74.2135C110.704 79.0089 106.776 82.3677 108.038 84.4047C108.666 85.4198 112.492 84.9145 117.731 83.1244C126.292 80.1997 145.929 72.0072 156.439 66.9758C160.518 65.0224 161.349 64.8069 165.542 64.6142C169.451 64.4345 170.155 64.5186 170.155 65.1668C170.155 66.3073 164.887 69.6023 160.524 71.1903C158.237 72.0227 156.688 72.8679 156.688 73.2826C156.688 74.3604 158.14 74.117 161.676 72.4473C168.065 69.4311 181.129 67.2506 181.129 69.2011C181.129 69.5849 180.439 70.1394 179.595 70.4326C177.697 71.0932 178.048 71.7847 180.925 73.0546C182.903 73.9278 184.874 74.0348 204.179 74.3161C215.78 74.4853 227.741 74.4355 230.759 74.2051L236.246 73.7864L232.006 73.3618C229.674 73.1278 221.145 73.0651 213.052 73.2224C197.964 73.5151 184.496 72.9904 181.925 72.0092L180.477 71.4566L181.551 70.4585C182.94 69.1667 182.905 68.7087 181.334 67.6822C180.193 66.9355 179.516 66.9007 175.474 67.3801C172.96 67.6782 170.48 68.0884 169.963 68.2921C168.486 68.8725 169.2 67.5274 171.185 65.9882C172.89 64.6655 172.926 64.661 178.385 65.0603C181.403 65.2808 189.596 65.8219 196.592 66.263C203.587 66.704 212.319 67.4015 215.996 67.8132C222.182 68.5061 233.089 70.4705 235.123 71.2585C235.603 71.4442 235.996 71.3755 235.996 71.1057C235.996 70.347 231.829 68.9049 227.031 68.0038C220.04 66.6911 199.731 64.8333 183.623 64.0328C175.061 63.6076 173.2 63.3786 172.182 62.6235C170.517 61.3889 170.389 60.6885 171.749 60.2633C173.067 59.8517 182.276 56.0046 185.618 54.4693C186.853 53.9023 189.546 52.7165 191.604 51.8344C193.661 50.9523 199.356 48.505 204.259 46.3963C209.162 44.2875 214.549 42.028 216.231 41.3753C225.327 37.8419 235.125 33.7295 235.617 33.2381C236.675 32.1827 235.747 32.2485 233.004 33.4238C231.495 34.07 229.256 34.7554 228.029 34.9476C226.801 35.1393 224.756 35.9353 223.484 36.7163C222.212 37.4974 221.018 38.1366 220.83 38.1366C220.502 38.1366 203.714 45.1542 199.086 47.2261C196.31 48.4687 189.777 51.2863 186.117 52.8195C184.608 53.4518 180.792 55.1299 177.637 56.5497C169.791 60.0797 168.54 60.4724 163.671 60.9349L159.431 61.3376L165.128 61.809C169.097 62.1376 170.892 62.4816 171.044 62.9441C171.223 63.4837 170.111 63.5519 165.098 63.309C161.707 63.1447 153.77 62.7872 147.46 62.5144C141.15 62.2411 132.958 61.7996 129.254 61.5328C125.551 61.2659 117.582 60.7024 111.547 60.2808C96.9841 59.2627 92.1029 58.7097 82.7256 57.0151C69.5724 54.6386 64.4697 52.7787 63.0716 49.8521C61.9882 47.5851 62.6576 46.0413 66.3232 42.3491C70.6742 37.9673 76.8737 33.943 87.5305 28.5831C117.448 13.5367 162.042 2.27866 191.604 2.30903C198.03 2.3155 209.714 2.95519 214.548 3.56501C218.492 4.06282 217.186 2.98904 213.052 2.33392C209.783 1.8162 193.631 0.758842 190.855 0.880806C190.032 0.917146 186.553 1.12274 183.124 1.3373ZM233.833 30.977C233.053 31.3982 232.507 31.8333 232.618 31.9443C232.93 32.2554 235.996 30.9989 235.996 30.5604C235.996 30.0003 235.44 30.1074 233.833 30.977ZM216.045 42.6463C216.045 42.936 216.269 43.035 216.543 42.8658C216.818 42.6965 217.042 42.4596 217.042 42.3386C217.042 42.2176 216.818 42.1191 216.543 42.1191C216.269 42.1191 216.045 42.3565 216.045 42.6463Z" fill="white"/>
<path d="M27.1965 55.4746L0.764893 55.4746" stroke="white" stroke-width="2"/>
</svg>
