<svg width="64" height="64" viewBox="0 0 64 64" fill="none" xmlns="http://www.w3.org/2000/svg">
<path fill-rule="evenodd" clip-rule="evenodd" d="M14.2455 7.73093C13.8468 7.21021 13.1002 7.02823 12.5846 7.43356C10.5786 9.01066 8.76812 10.8252 7.19548 12.8349C6.79521 13.3464 6.97116 14.0847 7.48277 14.4849C9.19412 15.8234 10.2941 17.9075 10.2941 20.2485C10.2941 24.2874 7.02002 27.5615 2.98119 27.5615C2.68015 27.5615 2.38336 27.5433 2.09187 27.508C1.44657 27.4297 0.799598 27.8281 0.72165 28.4734C0.569953 29.7293 0.491882 31.0079 0.491882 32.3047C0.491882 33.601 0.569884 34.879 0.721449 36.1344C0.799367 36.7798 1.44638 37.1781 2.09171 37.0999C2.38326 37.0645 2.6801 37.0463 2.98119 37.0463C7.02002 37.0463 10.2941 40.3205 10.2941 44.3593C10.2941 46.7006 9.19383 48.785 7.4821 50.1235C6.97042 50.5236 6.79439 51.262 7.19467 51.7735C8.80526 53.8319 10.6654 55.6856 12.7295 57.2891C13.2349 57.6818 13.9608 57.5146 14.3629 57.0167C15.7035 55.3566 17.7555 54.2948 20.0555 54.2948C24.0943 54.2948 27.3684 57.5689 27.3684 61.6078C27.3684 61.8593 27.3557 62.1079 27.3309 62.353C27.2664 62.9902 27.6649 63.6203 28.3008 63.6967C29.55 63.8467 30.8215 63.9239 32.1111 63.9239C33.4009 63.9239 34.6727 63.8467 35.9221 63.6966C36.558 63.6202 36.9565 62.9901 36.892 62.3529C36.8672 62.1079 36.8545 61.8593 36.8545 61.6078C36.8545 57.5689 40.1286 54.2948 44.1674 54.2948C46.4673 54.2948 48.5191 55.3565 49.8597 57.0164C50.2618 57.5143 50.9877 57.6814 51.4931 57.2887C53.5117 55.7205 55.3351 53.9131 56.9209 51.9089C57.3183 51.4068 57.1572 50.679 56.6623 50.2726C55.029 48.9314 53.9871 46.8964 53.9871 44.6181C53.9871 40.5792 57.2613 37.3051 61.3001 37.3051C61.5756 37.3051 61.8475 37.3203 62.1151 37.35C62.7521 37.4207 63.3864 37.0278 63.4685 36.3922C63.6412 35.0541 63.7302 33.6898 63.7302 32.3047C63.7302 31.1017 63.6631 29.9144 63.5322 28.7463C63.4596 28.0978 62.8117 27.6937 62.1636 27.77C61.8804 27.8033 61.5922 27.8204 61.3001 27.8204C57.2613 27.8204 53.9871 24.5463 53.9871 20.5075C53.9871 18.132 55.1198 16.021 56.8745 14.6852C57.3934 14.2901 57.5784 13.55 57.1806 13.0332C55.5727 10.9447 53.7096 9.0627 51.638 7.43397C51.1225 7.02863 50.3759 7.21057 49.9772 7.73126C48.6407 9.47662 46.5355 10.6022 44.1674 10.6022C40.1286 10.6022 36.8545 7.3281 36.8545 3.28927C36.8545 2.95547 36.8768 2.62691 36.9201 2.30498C37.0077 1.65447 36.6096 0.996235 35.958 0.917203C34.6971 0.764266 33.4133 0.685547 32.1111 0.685547C30.8091 0.685547 29.5256 0.764232 28.2649 0.917106C27.6133 0.996123 27.2152 1.65438 27.3028 2.30491C27.3461 2.62686 27.3684 2.95545 27.3684 3.28927C27.3684 7.3281 24.0943 10.6022 20.0555 10.6022C17.6872 10.6022 15.5819 9.47648 14.2455 7.73093ZM32.1103 51.014C42.4432 51.014 50.8197 42.6375 50.8197 32.3046C50.8197 21.9716 42.4432 13.5952 32.1103 13.5952C21.7774 13.5952 13.4009 21.9716 13.4009 32.3046C13.4009 42.6375 21.7774 51.014 32.1103 51.014Z" fill="#AE1717"/>
</svg>
