<svg width="475" height="183" viewBox="0 0 475 183" fill="none" xmlns="http://www.w3.org/2000/svg">
<path opacity="0.7" d="M27 27.6198C27 22.8592 30.0858 19 33.8923 19H468.108C471.914 19 475 22.8592 475 27.6198V174.38C475 179.141 471.914 183 468.108 183H33.8923C30.0858 183 27 179.141 27 174.38V27.6198Z" fill="#950E0E"/>
<path d="M234.106 154.06V164.36C234.106 165.507 233.752 166.427 233.046 167.12C232.339 167.8 231.406 168.14 230.246 168.14C229.072 168.14 228.132 167.793 227.426 167.1C226.719 166.393 226.366 165.433 226.366 164.22H228.186C228.199 164.9 228.372 165.453 228.706 165.88C229.052 166.307 229.566 166.52 230.246 166.52C230.926 166.52 231.432 166.32 231.766 165.92C232.099 165.507 232.266 164.987 232.266 164.36V154.06H234.106ZM247.931 164.9H241.851L240.731 168H238.811L243.851 154.14H245.951L250.971 168H249.051L247.931 164.9ZM247.411 163.42L244.891 156.38L242.371 163.42H247.411ZM254.488 161.02C254.488 159.66 254.794 158.44 255.408 157.36C256.021 156.267 256.854 155.413 257.908 154.8C258.974 154.187 260.154 153.88 261.448 153.88C262.968 153.88 264.294 154.247 265.428 154.98C266.561 155.713 267.388 156.753 267.908 158.1H265.728C265.341 157.26 264.781 156.613 264.048 156.16C263.328 155.707 262.461 155.48 261.448 155.48C260.474 155.48 259.601 155.707 258.828 156.16C258.054 156.613 257.448 157.26 257.008 158.1C256.568 158.927 256.348 159.9 256.348 161.02C256.348 162.127 256.568 163.1 257.008 163.94C257.448 164.767 258.054 165.407 258.828 165.86C259.601 166.313 260.474 166.54 261.448 166.54C262.461 166.54 263.328 166.32 264.048 165.88C264.781 165.427 265.341 164.78 265.728 163.94H267.908C267.388 165.273 266.561 166.307 265.428 167.04C264.294 167.76 262.968 168.12 261.448 168.12C260.154 168.12 258.974 167.82 257.908 167.22C256.854 166.607 256.021 165.76 255.408 164.68C254.794 163.6 254.488 162.38 254.488 161.02ZM283.797 170.64L281.017 167.86C280.337 168.047 279.644 168.14 278.937 168.14C277.644 168.14 276.464 167.84 275.397 167.24C274.33 166.627 273.484 165.78 272.857 164.7C272.244 163.607 271.937 162.38 271.937 161.02C271.937 159.66 272.244 158.44 272.857 157.36C273.484 156.267 274.33 155.42 275.397 154.82C276.464 154.207 277.644 153.9 278.937 153.9C280.244 153.9 281.43 154.207 282.497 154.82C283.564 155.42 284.404 156.26 285.017 157.34C285.63 158.42 285.937 159.647 285.937 161.02C285.937 162.353 285.644 163.553 285.057 164.62C284.47 165.687 283.664 166.527 282.637 167.14L286.157 170.64H283.797ZM273.797 161.02C273.797 162.127 274.017 163.1 274.457 163.94C274.91 164.78 275.524 165.427 276.297 165.88C277.084 166.333 277.964 166.56 278.937 166.56C279.91 166.56 280.784 166.333 281.557 165.88C282.344 165.427 282.957 164.78 283.397 163.94C283.85 163.1 284.077 162.127 284.077 161.02C284.077 159.9 283.85 158.927 283.397 158.1C282.957 157.26 282.35 156.613 281.577 156.16C280.804 155.707 279.924 155.48 278.937 155.48C277.95 155.48 277.07 155.707 276.297 156.16C275.524 156.613 274.91 157.26 274.457 158.1C274.017 158.927 273.797 159.9 273.797 161.02ZM292.159 154.06V162.88C292.159 164.12 292.459 165.04 293.059 165.64C293.672 166.24 294.519 166.54 295.599 166.54C296.665 166.54 297.499 166.24 298.099 165.64C298.712 165.04 299.019 164.12 299.019 162.88V154.06H300.839V162.86C300.839 164.02 300.605 165 300.139 165.8C299.672 166.587 299.039 167.173 298.239 167.56C297.452 167.947 296.565 168.14 295.579 168.14C294.592 168.14 293.699 167.947 292.899 167.56C292.112 167.173 291.485 166.587 291.019 165.8C290.565 165 290.339 164.02 290.339 162.86V154.06H292.159ZM307.695 155.54V160.2H312.775V161.7H307.695V166.5H313.375V168H305.875V154.04H313.375V155.54H307.695ZM322.549 168.14C321.629 168.14 320.802 167.98 320.069 167.66C319.349 167.327 318.782 166.873 318.369 166.3C317.955 165.713 317.742 165.04 317.729 164.28H319.669C319.735 164.933 320.002 165.487 320.469 165.94C320.949 166.38 321.642 166.6 322.549 166.6C323.415 166.6 324.095 166.387 324.589 165.96C325.095 165.52 325.349 164.96 325.349 164.28C325.349 163.747 325.202 163.313 324.909 162.98C324.615 162.647 324.249 162.393 323.809 162.22C323.369 162.047 322.775 161.86 322.029 161.66C321.109 161.42 320.369 161.18 319.809 160.94C319.262 160.7 318.789 160.327 318.389 159.82C318.002 159.3 317.809 158.607 317.809 157.74C317.809 156.98 318.002 156.307 318.389 155.72C318.775 155.133 319.315 154.68 320.009 154.36C320.715 154.04 321.522 153.88 322.429 153.88C323.735 153.88 324.802 154.207 325.629 154.86C326.469 155.513 326.942 156.38 327.049 157.46H325.049C324.982 156.927 324.702 156.46 324.209 156.06C323.715 155.647 323.062 155.44 322.249 155.44C321.489 155.44 320.869 155.64 320.389 156.04C319.909 156.427 319.669 156.973 319.669 157.68C319.669 158.187 319.809 158.6 320.089 158.92C320.382 159.24 320.735 159.487 321.149 159.66C321.575 159.82 322.169 160.007 322.929 160.22C323.849 160.473 324.589 160.727 325.149 160.98C325.709 161.22 326.189 161.6 326.589 162.12C326.989 162.627 327.189 163.32 327.189 164.2C327.189 164.88 327.009 165.52 326.649 166.12C326.289 166.72 325.755 167.207 325.049 167.58C324.342 167.953 323.509 168.14 322.549 168.14ZM350.719 154.06L345.459 168H343.359L338.099 154.06H340.039L344.419 166.08L348.799 154.06H350.719ZM356.535 155.54V160.2H361.615V161.7H356.535V166.5H362.215V168H354.715V154.04H362.215V155.54H356.535ZM374.308 168L370.988 162.3H368.788V168H366.968V154.06H371.468C372.522 154.06 373.408 154.24 374.128 154.6C374.862 154.96 375.408 155.447 375.768 156.06C376.128 156.673 376.308 157.373 376.308 158.16C376.308 159.12 376.028 159.967 375.468 160.7C374.922 161.433 374.095 161.92 372.988 162.16L376.488 168H374.308ZM368.788 160.84H371.468C372.455 160.84 373.195 160.6 373.688 160.12C374.182 159.627 374.428 158.973 374.428 158.16C374.428 157.333 374.182 156.693 373.688 156.24C373.208 155.787 372.468 155.56 371.468 155.56H368.788V160.84ZM385.556 168.14C384.636 168.14 383.81 167.98 383.076 167.66C382.356 167.327 381.79 166.873 381.376 166.3C380.963 165.713 380.75 165.04 380.736 164.28H382.676C382.743 164.933 383.01 165.487 383.476 165.94C383.956 166.38 384.65 166.6 385.556 166.6C386.423 166.6 387.103 166.387 387.596 165.96C388.103 165.52 388.356 164.96 388.356 164.28C388.356 163.747 388.21 163.313 387.916 162.98C387.623 162.647 387.256 162.393 386.816 162.22C386.376 162.047 385.783 161.86 385.036 161.66C384.116 161.42 383.376 161.18 382.816 160.94C382.27 160.7 381.796 160.327 381.396 159.82C381.01 159.3 380.816 158.607 380.816 157.74C380.816 156.98 381.01 156.307 381.396 155.72C381.783 155.133 382.323 154.68 383.016 154.36C383.723 154.04 384.53 153.88 385.436 153.88C386.743 153.88 387.81 154.207 388.636 154.86C389.476 155.513 389.95 156.38 390.056 157.46H388.056C387.99 156.927 387.71 156.46 387.216 156.06C386.723 155.647 386.07 155.44 385.256 155.44C384.496 155.44 383.876 155.64 383.396 156.04C382.916 156.427 382.676 156.973 382.676 157.68C382.676 158.187 382.816 158.6 383.096 158.92C383.39 159.24 383.743 159.487 384.156 159.66C384.583 159.82 385.176 160.007 385.936 160.22C386.856 160.473 387.596 160.727 388.156 160.98C388.716 161.22 389.196 161.6 389.596 162.12C389.996 162.627 390.196 163.32 390.196 164.2C390.196 164.88 390.016 165.52 389.656 166.12C389.296 166.72 388.763 167.207 388.056 167.58C387.35 167.953 386.516 168.14 385.556 168.14ZM403.115 164.9H397.035L395.915 168H393.995L399.035 154.14H401.135L406.155 168H404.235L403.115 164.9ZM402.595 163.42L400.075 156.38L397.555 163.42H402.595ZM412.171 154.06V168H410.351V154.06H412.171ZM419.093 166.52H423.973V168H417.273V154.06H419.093V166.52ZM429.726 166.52H434.606V168H427.906V154.06H429.726V166.52ZM440.359 155.54V160.2H445.439V161.7H440.359V166.5H446.039V168H438.539V154.04H446.039V155.54H440.359ZM455.213 168.14C454.293 168.14 453.466 167.98 452.733 167.66C452.013 167.327 451.446 166.873 451.033 166.3C450.619 165.713 450.406 165.04 450.393 164.28H452.333C452.399 164.933 452.666 165.487 453.133 165.94C453.613 166.38 454.306 166.6 455.213 166.6C456.079 166.6 456.759 166.387 457.253 165.96C457.759 165.52 458.013 164.96 458.013 164.28C458.013 163.747 457.866 163.313 457.573 162.98C457.279 162.647 456.913 162.393 456.473 162.22C456.033 162.047 455.439 161.86 454.693 161.66C453.773 161.42 453.033 161.18 452.473 160.94C451.926 160.7 451.453 160.327 451.053 159.82C450.666 159.3 450.473 158.607 450.473 157.74C450.473 156.98 450.666 156.307 451.053 155.72C451.439 155.133 451.979 154.68 452.673 154.36C453.379 154.04 454.186 153.88 455.093 153.88C456.399 153.88 457.466 154.207 458.293 154.86C459.133 155.513 459.606 156.38 459.713 157.46H457.713C457.646 156.927 457.366 156.46 456.873 156.06C456.379 155.647 455.726 155.44 454.913 155.44C454.153 155.44 453.533 155.64 453.053 156.04C452.573 156.427 452.333 156.973 452.333 157.68C452.333 158.187 452.473 158.6 452.753 158.92C453.046 159.24 453.399 159.487 453.813 159.66C454.239 159.82 454.833 160.007 455.593 160.22C456.513 160.473 457.253 160.727 457.813 160.98C458.373 161.22 458.853 161.6 459.253 162.12C459.653 162.627 459.853 163.32 459.853 164.2C459.853 164.88 459.673 165.52 459.313 166.12C458.953 166.72 458.419 167.207 457.713 167.58C457.006 167.953 456.173 168.14 455.213 168.14Z" fill="white" fill-opacity="0.5"/>
<path d="M112.321 56.848V58.032H109.281V68H107.825V58.032H104.769V56.848H112.321ZM120.065 59.072C120.727 59.072 121.324 59.216 121.857 59.504C122.391 59.7813 122.807 60.2027 123.105 60.768C123.415 61.3333 123.569 62.0213 123.569 62.832V68H122.129V63.04C122.129 62.1653 121.911 61.4987 121.473 61.04C121.036 60.5707 120.439 60.336 119.681 60.336C118.913 60.336 118.3 60.576 117.841 61.056C117.393 61.536 117.169 62.2347 117.169 63.152V68H115.713V56.16H117.169V60.48C117.457 60.032 117.852 59.6853 118.353 59.44C118.865 59.1947 119.436 59.072 120.065 59.072ZM135.548 63.28C135.548 63.5573 135.532 63.8507 135.5 64.16H128.492C128.545 65.024 128.838 65.7013 129.372 66.192C129.916 66.672 130.572 66.912 131.34 66.912C131.969 66.912 132.492 66.768 132.908 66.48C133.334 66.1813 133.633 65.7867 133.804 65.296H135.372C135.137 66.1387 134.668 66.8267 133.964 67.36C133.26 67.8827 132.385 68.144 131.34 68.144C130.508 68.144 129.761 67.9573 129.1 67.584C128.449 67.2107 127.937 66.6827 127.564 66C127.19 65.3067 127.004 64.5067 127.004 63.6C127.004 62.6933 127.185 61.8987 127.548 61.216C127.91 60.5333 128.417 60.0107 129.068 59.648C129.729 59.2747 130.486 59.088 131.34 59.088C132.172 59.088 132.908 59.2693 133.548 59.632C134.188 59.9947 134.678 60.496 135.02 61.136C135.372 61.7653 135.548 62.48 135.548 63.28ZM134.044 62.976C134.044 62.4213 133.921 61.9467 133.676 61.552C133.43 61.1467 133.094 60.8427 132.668 60.64C132.252 60.4267 131.788 60.32 131.276 60.32C130.54 60.32 129.91 60.5547 129.388 61.024C128.876 61.4933 128.582 62.144 128.508 62.976H134.044ZM148.039 68.144C147.367 68.144 146.764 68.032 146.231 67.808C145.698 67.5733 145.276 67.2533 144.967 66.848C144.658 66.432 144.487 65.9573 144.455 65.424H145.959C146.002 65.8613 146.204 66.2187 146.567 66.496C146.94 66.7733 147.426 66.912 148.023 66.912C148.578 66.912 149.015 66.7893 149.335 66.544C149.655 66.2987 149.815 65.9893 149.815 65.616C149.815 65.232 149.644 64.9493 149.303 64.768C148.962 64.576 148.434 64.3893 147.719 64.208C147.068 64.0373 146.535 63.8667 146.119 63.696C145.714 63.5147 145.362 63.2533 145.063 62.912C144.775 62.56 144.631 62.1013 144.631 61.536C144.631 61.088 144.764 60.6773 145.031 60.304C145.298 59.9307 145.676 59.6373 146.167 59.424C146.658 59.2 147.218 59.088 147.847 59.088C148.818 59.088 149.602 59.3333 150.199 59.824C150.796 60.3147 151.116 60.9867 151.159 61.84H149.703C149.671 61.3813 149.484 61.0133 149.143 60.736C148.812 60.4587 148.364 60.32 147.799 60.32C147.276 60.32 146.86 60.432 146.551 60.656C146.242 60.88 146.087 61.1733 146.087 61.536C146.087 61.824 146.178 62.064 146.359 62.256C146.551 62.4373 146.786 62.5867 147.063 62.704C147.351 62.8107 147.746 62.9333 148.247 63.072C148.876 63.2427 149.388 63.4133 149.783 63.584C150.178 63.744 150.514 63.9893 150.791 64.32C151.079 64.6507 151.228 65.0827 151.239 65.616C151.239 66.096 151.106 66.528 150.839 66.912C150.572 67.296 150.194 67.6 149.703 67.824C149.223 68.0373 148.668 68.144 148.039 68.144ZM159.247 59.072C159.908 59.072 160.505 59.216 161.039 59.504C161.572 59.7813 161.988 60.2027 162.287 60.768C162.596 61.3333 162.751 62.0213 162.751 62.832V68H161.311V63.04C161.311 62.1653 161.092 61.4987 160.655 61.04C160.217 60.5707 159.62 60.336 158.863 60.336C158.095 60.336 157.481 60.576 157.023 61.056C156.575 61.536 156.351 62.2347 156.351 63.152V68H154.895V56.16H156.351V60.48C156.639 60.032 157.033 59.6853 157.535 59.44C158.047 59.1947 158.617 59.072 159.247 59.072ZM170.553 68.144C169.732 68.144 168.985 67.9573 168.313 67.584C167.652 67.2107 167.129 66.6827 166.745 66C166.372 65.3067 166.185 64.5067 166.185 63.6C166.185 62.704 166.377 61.9147 166.761 61.232C167.156 60.5387 167.689 60.0107 168.361 59.648C169.033 59.2747 169.785 59.088 170.617 59.088C171.449 59.088 172.201 59.2747 172.873 59.648C173.545 60.0107 174.073 60.5333 174.457 61.216C174.852 61.8987 175.049 62.6933 175.049 63.6C175.049 64.5067 174.846 65.3067 174.441 66C174.046 66.6827 173.508 67.2107 172.825 67.584C172.142 67.9573 171.385 68.144 170.553 68.144ZM170.553 66.864C171.076 66.864 171.566 66.7413 172.025 66.496C172.484 66.2507 172.852 65.8827 173.129 65.392C173.417 64.9013 173.561 64.304 173.561 63.6C173.561 62.896 173.422 62.2987 173.145 61.808C172.868 61.3173 172.505 60.9547 172.057 60.72C171.609 60.4747 171.124 60.352 170.601 60.352C170.068 60.352 169.577 60.4747 169.129 60.72C168.692 60.9547 168.34 61.3173 168.073 61.808C167.806 62.2987 167.673 62.896 167.673 63.6C167.673 64.3147 167.801 64.9173 168.057 65.408C168.324 65.8987 168.676 66.2667 169.113 66.512C169.55 66.7467 170.03 66.864 170.553 66.864ZM180.019 60.848C180.307 60.3467 180.734 59.9307 181.299 59.6C181.875 59.2587 182.542 59.088 183.299 59.088C184.078 59.088 184.782 59.2747 185.411 59.648C186.051 60.0213 186.553 60.5493 186.915 61.232C187.278 61.904 187.459 62.688 187.459 63.584C187.459 64.4693 187.278 65.2587 186.915 65.952C186.553 66.6453 186.051 67.184 185.411 67.568C184.782 67.952 184.078 68.144 183.299 68.144C182.553 68.144 181.891 67.9787 181.315 67.648C180.75 67.3067 180.318 66.8853 180.019 66.384V72.16H178.563V59.232H180.019V60.848ZM185.971 63.584C185.971 62.9227 185.838 62.3467 185.571 61.856C185.305 61.3653 184.942 60.992 184.483 60.736C184.035 60.48 183.539 60.352 182.995 60.352C182.462 60.352 181.966 60.4853 181.507 60.752C181.059 61.008 180.697 61.3867 180.419 61.888C180.153 62.3787 180.019 62.9493 180.019 63.6C180.019 64.2613 180.153 64.8427 180.419 65.344C180.697 65.8347 181.059 66.2133 181.507 66.48C181.966 66.736 182.462 66.864 182.995 66.864C183.539 66.864 184.035 66.736 184.483 66.48C184.942 66.2133 185.305 65.8347 185.571 65.344C185.838 64.8427 185.971 64.256 185.971 63.584ZM196.297 63.584C196.297 62.688 196.479 61.904 196.841 61.232C197.204 60.5493 197.7 60.0213 198.329 59.648C198.969 59.2747 199.684 59.088 200.473 59.088C201.156 59.088 201.791 59.248 202.377 59.568C202.964 59.8773 203.412 60.288 203.721 60.8V56.16H205.193V68H203.721V66.352C203.433 66.8747 203.007 67.3067 202.441 67.648C201.876 67.9787 201.215 68.144 200.457 68.144C199.679 68.144 198.969 67.952 198.329 67.568C197.7 67.184 197.204 66.6453 196.841 65.952C196.479 65.2587 196.297 64.4693 196.297 63.584ZM203.721 63.6C203.721 62.9387 203.588 62.3627 203.321 61.872C203.055 61.3813 202.692 61.008 202.233 60.752C201.785 60.4853 201.289 60.352 200.745 60.352C200.201 60.352 199.705 60.48 199.257 60.736C198.809 60.992 198.452 61.3653 198.185 61.856C197.919 62.3467 197.785 62.9227 197.785 63.584C197.785 64.256 197.919 64.8427 198.185 65.344C198.452 65.8347 198.809 66.2133 199.257 66.48C199.705 66.736 200.201 66.864 200.745 66.864C201.289 66.864 201.785 66.736 202.233 66.48C202.692 66.2133 203.055 65.8347 203.321 65.344C203.588 64.8427 203.721 64.2613 203.721 63.6ZM210.006 57.808C209.729 57.808 209.494 57.712 209.302 57.52C209.11 57.328 209.014 57.0933 209.014 56.816C209.014 56.5387 209.11 56.304 209.302 56.112C209.494 55.92 209.729 55.824 210.006 55.824C210.273 55.824 210.497 55.92 210.678 56.112C210.87 56.304 210.966 56.5387 210.966 56.816C210.966 57.0933 210.87 57.328 210.678 57.52C210.497 57.712 210.273 57.808 210.006 57.808ZM210.71 59.232V68H209.254V59.232H210.71ZM214.247 63.584C214.247 62.688 214.429 61.904 214.791 61.232C215.154 60.5493 215.65 60.0213 216.279 59.648C216.919 59.2747 217.634 59.088 218.423 59.088C219.106 59.088 219.741 59.248 220.327 59.568C220.914 59.8773 221.362 60.288 221.671 60.8V56.16H223.143V68H221.671V66.352C221.383 66.8747 220.957 67.3067 220.391 67.648C219.826 67.9787 219.165 68.144 218.407 68.144C217.629 68.144 216.919 67.952 216.279 67.568C215.65 67.184 215.154 66.6453 214.791 65.952C214.429 65.2587 214.247 64.4693 214.247 63.584ZM221.671 63.6C221.671 62.9387 221.538 62.3627 221.271 61.872C221.005 61.3813 220.642 61.008 220.183 60.752C219.735 60.4853 219.239 60.352 218.695 60.352C218.151 60.352 217.655 60.48 217.207 60.736C216.759 60.992 216.402 61.3653 216.135 61.856C215.869 62.3467 215.735 62.9227 215.735 63.584C215.735 64.256 215.869 64.8427 216.135 65.344C216.402 65.8347 216.759 66.2133 217.207 66.48C217.655 66.736 218.151 66.864 218.695 66.864C219.239 66.864 219.735 66.736 220.183 66.48C220.642 66.2133 221.005 65.8347 221.271 65.344C221.538 64.8427 221.671 64.2613 221.671 63.6ZM232.526 63.584C232.526 62.688 232.707 61.904 233.07 61.232C233.432 60.5493 233.928 60.0213 234.558 59.648C235.198 59.2747 235.907 59.088 236.686 59.088C237.454 59.088 238.12 59.2533 238.686 59.584C239.251 59.9147 239.672 60.3307 239.95 60.832V59.232H241.422V68H239.95V66.368C239.662 66.88 239.23 67.3067 238.654 67.648C238.088 67.9787 237.427 68.144 236.67 68.144C235.891 68.144 235.187 67.952 234.558 67.568C233.928 67.184 233.432 66.6453 233.07 65.952C232.707 65.2587 232.526 64.4693 232.526 63.584ZM239.95 63.6C239.95 62.9387 239.816 62.3627 239.55 61.872C239.283 61.3813 238.92 61.008 238.462 60.752C238.014 60.4853 237.518 60.352 236.974 60.352C236.43 60.352 235.934 60.48 235.486 60.736C235.038 60.992 234.68 61.3653 234.414 61.856C234.147 62.3467 234.014 62.9227 234.014 63.584C234.014 64.256 234.147 64.8427 234.414 65.344C234.68 65.8347 235.038 66.2133 235.486 66.48C235.934 66.736 236.43 66.864 236.974 66.864C237.518 66.864 238.014 66.736 238.462 66.48C238.92 66.2133 239.283 65.8347 239.55 65.344C239.816 64.8427 239.95 64.2613 239.95 63.6ZM254.964 59.088C255.721 59.088 256.382 59.2533 256.948 59.584C257.524 59.9147 257.95 60.3307 258.228 60.832V59.232H259.7V68.192C259.7 68.992 259.529 69.7013 259.188 70.32C258.846 70.9493 258.356 71.44 257.716 71.792C257.086 72.144 256.35 72.32 255.508 72.32C254.356 72.32 253.396 72.048 252.628 71.504C251.86 70.96 251.406 70.2187 251.268 69.28H252.708C252.868 69.8133 253.198 70.24 253.7 70.56C254.201 70.8907 254.804 71.056 255.508 71.056C256.308 71.056 256.958 70.8053 257.46 70.304C257.972 69.8027 258.228 69.0987 258.228 68.192V66.352C257.94 66.864 257.513 67.2907 256.948 67.632C256.382 67.9733 255.721 68.144 254.964 68.144C254.185 68.144 253.476 67.952 252.836 67.568C252.206 67.184 251.71 66.6453 251.348 65.952C250.985 65.2587 250.804 64.4693 250.804 63.584C250.804 62.688 250.985 61.904 251.348 61.232C251.71 60.5493 252.206 60.0213 252.836 59.648C253.476 59.2747 254.185 59.088 254.964 59.088ZM258.228 63.6C258.228 62.9387 258.094 62.3627 257.828 61.872C257.561 61.3813 257.198 61.008 256.74 60.752C256.292 60.4853 255.796 60.352 255.252 60.352C254.708 60.352 254.212 60.48 253.764 60.736C253.316 60.992 252.958 61.3653 252.692 61.856C252.425 62.3467 252.292 62.9227 252.292 63.584C252.292 64.256 252.425 64.8427 252.692 65.344C252.958 65.8347 253.316 66.2133 253.764 66.48C254.212 66.736 254.708 66.864 255.252 66.864C255.796 66.864 256.292 66.736 256.74 66.48C257.198 66.2133 257.561 65.8347 257.828 65.344C258.094 64.8427 258.228 64.2613 258.228 63.6ZM267.584 68.144C266.763 68.144 266.016 67.9573 265.344 67.584C264.683 67.2107 264.16 66.6827 263.776 66C263.403 65.3067 263.216 64.5067 263.216 63.6C263.216 62.704 263.408 61.9147 263.792 61.232C264.187 60.5387 264.72 60.0107 265.392 59.648C266.064 59.2747 266.816 59.088 267.648 59.088C268.48 59.088 269.232 59.2747 269.904 59.648C270.576 60.0107 271.104 60.5333 271.488 61.216C271.883 61.8987 272.08 62.6933 272.08 63.6C272.08 64.5067 271.877 65.3067 271.472 66C271.077 66.6827 270.539 67.2107 269.856 67.584C269.173 67.9573 268.416 68.144 267.584 68.144ZM267.584 66.864C268.107 66.864 268.597 66.7413 269.056 66.496C269.515 66.2507 269.883 65.8827 270.16 65.392C270.448 64.9013 270.592 64.304 270.592 63.6C270.592 62.896 270.453 62.2987 270.176 61.808C269.899 61.3173 269.536 60.9547 269.088 60.72C268.64 60.4747 268.155 60.352 267.632 60.352C267.099 60.352 266.608 60.4747 266.16 60.72C265.723 60.9547 265.371 61.3173 265.104 61.808C264.837 62.2987 264.704 62.896 264.704 63.6C264.704 64.3147 264.832 64.9173 265.088 65.408C265.355 65.8987 265.707 66.2667 266.144 66.512C266.581 66.7467 267.061 66.864 267.584 66.864ZM279.419 68.144C278.597 68.144 277.851 67.9573 277.179 67.584C276.517 67.2107 275.995 66.6827 275.611 66C275.237 65.3067 275.051 64.5067 275.051 63.6C275.051 62.704 275.243 61.9147 275.627 61.232C276.021 60.5387 276.555 60.0107 277.227 59.648C277.899 59.2747 278.651 59.088 279.483 59.088C280.315 59.088 281.067 59.2747 281.739 59.648C282.411 60.0107 282.939 60.5333 283.323 61.216C283.717 61.8987 283.915 62.6933 283.915 63.6C283.915 64.5067 283.712 65.3067 283.307 66C282.912 66.6827 282.373 67.2107 281.691 67.584C281.008 67.9573 280.251 68.144 279.419 68.144ZM279.419 66.864C279.941 66.864 280.432 66.7413 280.891 66.496C281.349 66.2507 281.717 65.8827 281.995 65.392C282.283 64.9013 282.427 64.304 282.427 63.6C282.427 62.896 282.288 62.2987 282.011 61.808C281.733 61.3173 281.371 60.9547 280.923 60.72C280.475 60.4747 279.989 60.352 279.467 60.352C278.933 60.352 278.443 60.4747 277.995 60.72C277.557 60.9547 277.205 61.3173 276.939 61.808C276.672 62.2987 276.539 62.896 276.539 63.6C276.539 64.3147 276.667 64.9173 276.923 65.408C277.189 65.8987 277.541 66.2667 277.979 66.512C278.416 66.7467 278.896 66.864 279.419 66.864ZM286.885 63.584C286.885 62.688 287.066 61.904 287.429 61.232C287.792 60.5493 288.288 60.0213 288.917 59.648C289.557 59.2747 290.272 59.088 291.061 59.088C291.744 59.088 292.378 59.248 292.965 59.568C293.552 59.8773 294 60.288 294.309 60.8V56.16H295.781V68H294.309V66.352C294.021 66.8747 293.594 67.3067 293.029 67.648C292.464 67.9787 291.802 68.144 291.045 68.144C290.266 68.144 289.557 67.952 288.917 67.568C288.288 67.184 287.792 66.6453 287.429 65.952C287.066 65.2587 286.885 64.4693 286.885 63.584ZM294.309 63.6C294.309 62.9387 294.176 62.3627 293.909 61.872C293.642 61.3813 293.28 61.008 292.821 60.752C292.373 60.4853 291.877 60.352 291.333 60.352C290.789 60.352 290.293 60.48 289.845 60.736C289.397 60.992 289.04 61.3653 288.773 61.856C288.506 62.3467 288.373 62.9227 288.373 63.584C288.373 64.256 288.506 64.8427 288.773 65.344C289.04 65.8347 289.397 66.2133 289.845 66.48C290.293 66.736 290.789 66.864 291.333 66.864C291.877 66.864 292.373 66.736 292.821 66.48C293.28 66.2133 293.642 65.8347 293.909 65.344C294.176 64.8427 294.309 64.2613 294.309 63.6ZM306.491 57.808C306.214 57.808 305.979 57.712 305.787 57.52C305.606 57.328 305.515 57.0933 305.515 56.816C305.515 56.5387 305.606 56.304 305.787 56.112C305.979 55.92 306.214 55.824 306.491 55.824C306.768 55.824 306.998 55.92 307.179 56.112C307.371 56.304 307.467 56.5387 307.467 56.816C307.467 57.0933 307.371 57.328 307.179 57.52C306.998 57.712 306.768 57.808 306.491 57.808ZM307.211 69.904C307.211 70.6827 307.014 71.2533 306.619 71.616C306.224 71.9787 305.648 72.16 304.891 72.16H304.043V70.928H304.651C305.056 70.928 305.339 70.848 305.499 70.688C305.67 70.528 305.755 70.256 305.755 69.872V59.232H307.211V69.904ZM315.1 68.144C314.278 68.144 313.532 67.9573 312.86 67.584C312.198 67.2107 311.676 66.6827 311.292 66C310.918 65.3067 310.732 64.5067 310.732 63.6C310.732 62.704 310.924 61.9147 311.308 61.232C311.702 60.5387 312.236 60.0107 312.908 59.648C313.58 59.2747 314.332 59.088 315.164 59.088C315.996 59.088 316.748 59.2747 317.42 59.648C318.092 60.0107 318.62 60.5333 319.004 61.216C319.398 61.8987 319.596 62.6933 319.596 63.6C319.596 64.5067 319.393 65.3067 318.988 66C318.593 66.6827 318.054 67.2107 317.372 67.584C316.689 67.9573 315.932 68.144 315.1 68.144ZM315.1 66.864C315.622 66.864 316.113 66.7413 316.572 66.496C317.03 66.2507 317.398 65.8827 317.676 65.392C317.964 64.9013 318.108 64.304 318.108 63.6C318.108 62.896 317.969 62.2987 317.692 61.808C317.414 61.3173 317.052 60.9547 316.604 60.72C316.156 60.4747 315.67 60.352 315.148 60.352C314.614 60.352 314.124 60.4747 313.676 60.72C313.238 60.9547 312.886 61.3173 312.62 61.808C312.353 62.2987 312.22 62.896 312.22 63.6C312.22 64.3147 312.348 64.9173 312.604 65.408C312.87 65.8987 313.222 66.2667 313.66 66.512C314.097 66.7467 314.577 66.864 315.1 66.864ZM324.566 60.864C324.865 60.3413 325.302 59.9147 325.878 59.584C326.454 59.2533 327.11 59.088 327.846 59.088C328.635 59.088 329.345 59.2747 329.974 59.648C330.603 60.0213 331.099 60.5493 331.462 61.232C331.825 61.904 332.006 62.688 332.006 63.584C332.006 64.4693 331.825 65.2587 331.462 65.952C331.099 66.6453 330.598 67.184 329.958 67.568C329.329 67.952 328.625 68.144 327.846 68.144C327.089 68.144 326.422 67.9787 325.846 67.648C325.281 67.3173 324.854 66.896 324.566 66.384V68H323.11V56.16H324.566V60.864ZM330.518 63.584C330.518 62.9227 330.385 62.3467 330.118 61.856C329.851 61.3653 329.489 60.992 329.03 60.736C328.582 60.48 328.086 60.352 327.542 60.352C327.009 60.352 326.513 60.4853 326.054 60.752C325.606 61.008 325.243 61.3867 324.966 61.888C324.699 62.3787 324.566 62.9493 324.566 63.6C324.566 64.2613 324.699 64.8427 324.966 65.344C325.243 65.8347 325.606 66.2133 326.054 66.48C326.513 66.736 327.009 66.864 327.542 66.864C328.086 66.864 328.582 66.736 329.03 66.48C329.489 66.2133 329.851 65.8347 330.118 65.344C330.385 64.8427 330.518 64.256 330.518 63.584ZM335.987 68.096C335.709 68.096 335.475 68 335.283 67.808C335.091 67.616 334.995 67.3813 334.995 67.104C334.995 66.8267 335.091 66.592 335.283 66.4C335.475 66.208 335.709 66.112 335.987 66.112C336.253 66.112 336.477 66.208 336.659 66.4C336.851 66.592 336.947 66.8267 336.947 67.104C336.947 67.3813 336.851 67.616 336.659 67.808C336.477 68 336.253 68.096 335.987 68.096ZM340.946 68.096C340.669 68.096 340.434 68 340.242 67.808C340.05 67.616 339.954 67.3813 339.954 67.104C339.954 66.8267 340.05 66.592 340.242 66.4C340.434 66.208 340.669 66.112 340.946 66.112C341.213 66.112 341.437 66.208 341.618 66.4C341.81 66.592 341.906 66.8267 341.906 67.104C341.906 67.3813 341.81 67.616 341.618 67.808C341.437 68 341.213 68.096 340.946 68.096ZM345.905 68.096C345.628 68.096 345.393 68 345.201 67.808C345.009 67.616 344.913 67.3813 344.913 67.104C344.913 66.8267 345.009 66.592 345.201 66.4C345.393 66.208 345.628 66.112 345.905 66.112C346.172 66.112 346.396 66.208 346.577 66.4C346.769 66.592 346.865 66.8267 346.865 67.104C346.865 67.3813 346.769 67.616 346.577 67.808C346.396 68 346.172 68.096 345.905 68.096ZM357.722 56.848V68H356.266V56.848H357.722ZM379.35 59.232L376.614 68H375.11L372.998 61.04L370.886 68H369.382L366.63 59.232H368.118L370.134 66.592L372.31 59.232H373.798L375.926 66.608L377.91 59.232H379.35ZM383.147 57.808C382.869 57.808 382.635 57.712 382.443 57.52C382.251 57.328 382.155 57.0933 382.155 56.816C382.155 56.5387 382.251 56.304 382.443 56.112C382.635 55.92 382.869 55.824 383.147 55.824C383.413 55.824 383.637 55.92 383.819 56.112C384.011 56.304 384.107 56.5387 384.107 56.816C384.107 57.0933 384.011 57.328 383.819 57.52C383.637 57.712 383.413 57.808 383.147 57.808ZM383.851 59.232V68H382.395V59.232H383.851ZM389.388 56.16V68H387.932V56.16H389.388ZM394.926 56.16V68H393.47V56.16H394.926ZM96.7724 87.584C96.7724 86.688 96.9537 85.904 97.3164 85.232C97.679 84.5493 98.175 84.0213 98.8044 83.648C99.4444 83.2747 100.159 83.088 100.948 83.088C101.631 83.088 102.266 83.248 102.852 83.568C103.439 83.8773 103.887 84.288 104.196 84.8V80.16H105.668V92H104.196V90.352C103.908 90.8747 103.482 91.3067 102.916 91.648C102.351 91.9787 101.69 92.144 100.932 92.144C100.154 92.144 99.4444 91.952 98.8044 91.568C98.175 91.184 97.679 90.6453 97.3164 89.952C96.9537 89.2587 96.7724 88.4693 96.7724 87.584ZM104.196 87.6C104.196 86.9387 104.063 86.3627 103.796 85.872C103.53 85.3813 103.167 85.008 102.708 84.752C102.26 84.4853 101.764 84.352 101.22 84.352C100.676 84.352 100.18 84.48 99.7324 84.736C99.2844 84.992 98.927 85.3653 98.6604 85.856C98.3937 86.3467 98.2604 86.9227 98.2604 87.584C98.2604 88.256 98.3937 88.8427 98.6604 89.344C98.927 89.8347 99.2844 90.2133 99.7324 90.48C100.18 90.736 100.676 90.864 101.22 90.864C101.764 90.864 102.26 90.736 102.708 90.48C103.167 90.2133 103.53 89.8347 103.796 89.344C104.063 88.8427 104.196 88.2613 104.196 87.6ZM117.729 87.28C117.729 87.5573 117.713 87.8507 117.681 88.16H110.673C110.726 89.024 111.02 89.7013 111.553 90.192C112.097 90.672 112.753 90.912 113.521 90.912C114.15 90.912 114.673 90.768 115.089 90.48C115.516 90.1813 115.814 89.7867 115.985 89.296H117.553C117.318 90.1387 116.849 90.8267 116.145 91.36C115.441 91.8827 114.566 92.144 113.521 92.144C112.689 92.144 111.942 91.9573 111.281 91.584C110.63 91.2107 110.118 90.6827 109.745 90C109.372 89.3067 109.185 88.5067 109.185 87.6C109.185 86.6933 109.366 85.8987 109.729 85.216C110.092 84.5333 110.598 84.0107 111.249 83.648C111.91 83.2747 112.668 83.088 113.521 83.088C114.353 83.088 115.089 83.2693 115.729 83.632C116.369 83.9947 116.86 84.496 117.201 85.136C117.553 85.7653 117.729 86.48 117.729 87.28ZM116.225 86.976C116.225 86.4213 116.102 85.9467 115.857 85.552C115.612 85.1467 115.276 84.8427 114.849 84.64C114.433 84.4267 113.969 84.32 113.457 84.32C112.721 84.32 112.092 84.5547 111.569 85.024C111.057 85.4933 110.764 86.144 110.689 86.976H116.225ZM124.819 84.432H122.979V92H121.523V84.432H120.387V83.232H121.523V82.608C121.523 81.6267 121.773 80.912 122.275 80.464C122.787 80.0053 123.603 79.776 124.723 79.776V80.992C124.083 80.992 123.629 81.12 123.363 81.376C123.107 81.6213 122.979 82.032 122.979 82.608V83.232H124.819V84.432ZM128.868 81.808C128.591 81.808 128.356 81.712 128.164 81.52C127.972 81.328 127.876 81.0933 127.876 80.816C127.876 80.5387 127.972 80.304 128.164 80.112C128.356 79.92 128.591 79.824 128.868 79.824C129.135 79.824 129.359 79.92 129.54 80.112C129.732 80.304 129.828 80.5387 129.828 80.816C129.828 81.0933 129.732 81.328 129.54 81.52C129.359 81.712 129.135 81.808 128.868 81.808ZM129.572 83.232V92H128.116V83.232H129.572ZM137.926 83.072C138.993 83.072 139.857 83.3973 140.518 84.048C141.179 84.688 141.51 85.616 141.51 86.832V92H140.07V87.04C140.07 86.1653 139.851 85.4987 139.414 85.04C138.977 84.5707 138.379 84.336 137.622 84.336C136.854 84.336 136.241 84.576 135.782 85.056C135.334 85.536 135.11 86.2347 135.11 87.152V92H133.654V83.232H135.11V84.48C135.398 84.032 135.787 83.6853 136.278 83.44C136.779 83.1947 137.329 83.072 137.926 83.072ZM146.24 81.808C145.963 81.808 145.728 81.712 145.536 81.52C145.344 81.328 145.248 81.0933 145.248 80.816C145.248 80.5387 145.344 80.304 145.536 80.112C145.728 79.92 145.963 79.824 146.24 79.824C146.507 79.824 146.731 79.92 146.912 80.112C147.104 80.304 147.2 80.5387 147.2 80.816C147.2 81.0933 147.104 81.328 146.912 81.52C146.731 81.712 146.507 81.808 146.24 81.808ZM146.944 83.232V92H145.488V83.232H146.944ZM152.802 84.432V89.6C152.802 90.0267 152.892 90.3307 153.074 90.512C153.255 90.6827 153.57 90.768 154.018 90.768H155.09V92H153.778C152.967 92 152.359 91.8133 151.954 91.44C151.548 91.0667 151.346 90.4533 151.346 89.6V84.432H150.21V83.232H151.346V81.024H152.802V83.232H155.09V84.432H152.802ZM166.454 87.28C166.454 87.5573 166.438 87.8507 166.406 88.16H159.398C159.451 89.024 159.745 89.7013 160.278 90.192C160.822 90.672 161.478 90.912 162.246 90.912C162.875 90.912 163.398 90.768 163.814 90.48C164.241 90.1813 164.539 89.7867 164.71 89.296H166.278C166.043 90.1387 165.574 90.8267 164.87 91.36C164.166 91.8827 163.291 92.144 162.246 92.144C161.414 92.144 160.667 91.9573 160.006 91.584C159.355 91.2107 158.843 90.6827 158.47 90C158.097 89.3067 157.91 88.5067 157.91 87.6C157.91 86.6933 158.091 85.8987 158.454 85.216C158.817 84.5333 159.323 84.0107 159.974 83.648C160.635 83.2747 161.393 83.088 162.246 83.088C163.078 83.088 163.814 83.2693 164.454 83.632C165.094 83.9947 165.585 84.496 165.926 85.136C166.278 85.7653 166.454 86.48 166.454 87.28ZM164.95 86.976C164.95 86.4213 164.827 85.9467 164.582 85.552C164.337 85.1467 164.001 84.8427 163.574 84.64C163.158 84.4267 162.694 84.32 162.182 84.32C161.446 84.32 160.817 84.5547 160.294 85.024C159.782 85.4933 159.489 86.144 159.414 86.976H164.95ZM171.432 80.16V92H169.976V80.16H171.432ZM183.065 83.232L177.785 96.128H176.281L178.009 91.904L174.473 83.232H176.089L178.841 90.336L181.561 83.232H183.065ZM193.451 84.864C193.749 84.3413 194.187 83.9147 194.763 83.584C195.339 83.2533 195.995 83.088 196.731 83.088C197.52 83.088 198.229 83.2747 198.859 83.648C199.488 84.0213 199.984 84.5493 200.347 85.232C200.709 85.904 200.891 86.688 200.891 87.584C200.891 88.4693 200.709 89.2587 200.347 89.952C199.984 90.6453 199.483 91.184 198.843 91.568C198.213 91.952 197.509 92.144 196.731 92.144C195.973 92.144 195.307 91.9787 194.731 91.648C194.165 91.3173 193.739 90.896 193.451 90.384V92H191.995V80.16H193.451V84.864ZM199.403 87.584C199.403 86.9227 199.269 86.3467 199.003 85.856C198.736 85.3653 198.373 84.992 197.915 84.736C197.467 84.48 196.971 84.352 196.427 84.352C195.893 84.352 195.397 84.4853 194.939 84.752C194.491 85.008 194.128 85.3867 193.851 85.888C193.584 86.3787 193.451 86.9493 193.451 87.6C193.451 88.2613 193.584 88.8427 193.851 89.344C194.128 89.8347 194.491 90.2133 194.939 90.48C195.397 90.736 195.893 90.864 196.427 90.864C196.971 90.864 197.467 90.736 197.915 90.48C198.373 90.2133 198.736 89.8347 199.003 89.344C199.269 88.8427 199.403 88.256 199.403 87.584ZM205.863 84.656C206.119 84.1547 206.482 83.7653 206.951 83.488C207.431 83.2107 208.012 83.072 208.695 83.072V84.576H208.311C206.679 84.576 205.863 85.4613 205.863 87.232V92H204.407V83.232H205.863V84.656ZM212.728 81.808C212.45 81.808 212.216 81.712 212.024 81.52C211.832 81.328 211.736 81.0933 211.736 80.816C211.736 80.5387 211.832 80.304 212.024 80.112C212.216 79.92 212.45 79.824 212.728 79.824C212.994 79.824 213.218 79.92 213.4 80.112C213.592 80.304 213.688 80.5387 213.688 80.816C213.688 81.0933 213.592 81.328 213.4 81.52C213.218 81.712 212.994 81.808 212.728 81.808ZM213.432 83.232V92H211.976V83.232H213.432ZM221.785 83.072C222.852 83.072 223.716 83.3973 224.377 84.048C225.039 84.688 225.369 85.616 225.369 86.832V92H223.929V87.04C223.929 86.1653 223.711 85.4987 223.273 85.04C222.836 84.5707 222.239 84.336 221.481 84.336C220.713 84.336 220.1 84.576 219.641 85.056C219.193 85.536 218.969 86.2347 218.969 87.152V92H217.513V83.232H218.969V84.48C219.257 84.032 219.647 83.6853 220.137 83.44C220.639 83.1947 221.188 83.072 221.785 83.072ZM232.964 83.088C233.721 83.088 234.382 83.2533 234.948 83.584C235.524 83.9147 235.95 84.3307 236.228 84.832V83.232H237.7V92.192C237.7 92.992 237.529 93.7013 237.188 94.32C236.846 94.9493 236.356 95.44 235.716 95.792C235.086 96.144 234.35 96.32 233.508 96.32C232.356 96.32 231.396 96.048 230.628 95.504C229.86 94.96 229.406 94.2187 229.268 93.28H230.708C230.868 93.8133 231.198 94.24 231.7 94.56C232.201 94.8907 232.804 95.056 233.508 95.056C234.308 95.056 234.958 94.8053 235.46 94.304C235.972 93.8027 236.228 93.0987 236.228 92.192V90.352C235.94 90.864 235.513 91.2907 234.948 91.632C234.382 91.9733 233.721 92.144 232.964 92.144C232.185 92.144 231.476 91.952 230.836 91.568C230.206 91.184 229.71 90.6453 229.348 89.952C228.985 89.2587 228.804 88.4693 228.804 87.584C228.804 86.688 228.985 85.904 229.348 85.232C229.71 84.5493 230.206 84.0213 230.836 83.648C231.476 83.2747 232.185 83.088 232.964 83.088ZM236.228 87.6C236.228 86.9387 236.094 86.3627 235.828 85.872C235.561 85.3813 235.198 85.008 234.74 84.752C234.292 84.4853 233.796 84.352 233.252 84.352C232.708 84.352 232.212 84.48 231.764 84.736C231.316 84.992 230.958 85.3653 230.692 85.856C230.425 86.3467 230.292 86.9227 230.292 87.584C230.292 88.256 230.425 88.8427 230.692 89.344C230.958 89.8347 231.316 90.2133 231.764 90.48C232.212 90.736 232.708 90.864 233.252 90.864C233.796 90.864 234.292 90.736 234.74 90.48C235.198 90.2133 235.561 89.8347 235.828 89.344C236.094 88.8427 236.228 88.2613 236.228 87.6ZM258.17 83.072C258.852 83.072 259.46 83.216 259.994 83.504C260.527 83.7813 260.948 84.2027 261.258 84.768C261.567 85.3333 261.722 86.0213 261.722 86.832V92H260.282V87.04C260.282 86.1653 260.063 85.4987 259.626 85.04C259.199 84.5707 258.618 84.336 257.882 84.336C257.124 84.336 256.522 84.5813 256.074 85.072C255.626 85.552 255.402 86.2507 255.402 87.168V92H253.962V87.04C253.962 86.1653 253.743 85.4987 253.306 85.04C252.879 84.5707 252.298 84.336 251.562 84.336C250.804 84.336 250.202 84.5813 249.754 85.072C249.306 85.552 249.082 86.2507 249.082 87.168V92H247.626V83.232H249.082V84.496C249.37 84.0373 249.754 83.6853 250.234 83.44C250.724 83.1947 251.263 83.072 251.85 83.072C252.586 83.072 253.236 83.2373 253.802 83.568C254.367 83.8987 254.788 84.384 255.066 85.024C255.311 84.4053 255.716 83.9253 256.282 83.584C256.847 83.2427 257.476 83.072 258.17 83.072ZM273.262 83.232L267.982 96.128H266.478L268.206 91.904L264.67 83.232H266.286L269.038 90.336L271.758 83.232H273.262ZM283.967 84.432V89.6C283.967 90.0267 284.058 90.3307 284.239 90.512C284.421 90.6827 284.735 90.768 285.183 90.768H286.255V92H284.943C284.133 92 283.525 91.8133 283.119 91.44C282.714 91.0667 282.511 90.4533 282.511 89.6V84.432H281.375V83.232H282.511V81.024H283.967V83.232H286.255V84.432H283.967ZM291.076 84.656C291.332 84.1547 291.694 83.7653 292.164 83.488C292.644 83.2107 293.225 83.072 293.908 83.072V84.576H293.524C291.892 84.576 291.076 85.4613 291.076 87.232V92H289.62V83.232H291.076V84.656ZM304.964 83.232V92H303.508V90.704C303.231 91.152 302.842 91.504 302.34 91.76C301.85 92.0053 301.306 92.128 300.708 92.128C300.026 92.128 299.412 91.9893 298.868 91.712C298.324 91.424 297.892 90.9973 297.572 90.432C297.263 89.8667 297.108 89.1787 297.108 88.368V83.232H298.548V88.176C298.548 89.04 298.767 89.7067 299.204 90.176C299.642 90.6347 300.239 90.864 300.996 90.864C301.775 90.864 302.388 90.624 302.836 90.144C303.284 89.664 303.508 88.9653 303.508 88.048V83.232H304.964ZM308.479 87.6C308.479 86.6933 308.66 85.904 309.023 85.232C309.385 84.5493 309.887 84.0213 310.527 83.648C311.177 83.2747 311.919 83.088 312.751 83.088C313.828 83.088 314.713 83.3493 315.407 83.872C316.111 84.3947 316.575 85.12 316.799 86.048H315.231C315.081 85.5147 314.788 85.0933 314.351 84.784C313.924 84.4747 313.391 84.32 312.751 84.32C311.919 84.32 311.247 84.608 310.735 85.184C310.223 85.7493 309.967 86.5547 309.967 87.6C309.967 88.656 310.223 89.472 310.735 90.048C311.247 90.624 311.919 90.912 312.751 90.912C313.391 90.912 313.924 90.7627 314.351 90.464C314.777 90.1653 315.071 89.7387 315.231 89.184H316.799C316.564 90.08 316.095 90.8 315.391 91.344C314.687 91.8773 313.807 92.144 312.751 92.144C311.919 92.144 311.177 91.9573 310.527 91.584C309.887 91.2107 309.385 90.6827 309.023 90C308.66 89.3173 308.479 88.5173 308.479 87.6ZM325.237 92L321.797 88.128V92H320.341V80.16H321.797V87.12L325.173 83.232H327.205L323.077 87.6L327.221 92H325.237ZM337.497 84.864C337.796 84.3413 338.233 83.9147 338.809 83.584C339.385 83.2533 340.041 83.088 340.777 83.088C341.567 83.088 342.276 83.2747 342.905 83.648C343.535 84.0213 344.031 84.5493 344.393 85.232C344.756 85.904 344.937 86.688 344.937 87.584C344.937 88.4693 344.756 89.2587 344.393 89.952C344.031 90.6453 343.529 91.184 342.889 91.568C342.26 91.952 341.556 92.144 340.777 92.144C340.02 92.144 339.353 91.9787 338.777 91.648C338.212 91.3173 337.785 90.896 337.497 90.384V92H336.041V80.16H337.497V84.864ZM343.449 87.584C343.449 86.9227 343.316 86.3467 343.049 85.856C342.783 85.3653 342.42 84.992 341.961 84.736C341.513 84.48 341.017 84.352 340.473 84.352C339.94 84.352 339.444 84.4853 338.985 84.752C338.537 85.008 338.175 85.3867 337.897 85.888C337.631 86.3787 337.497 86.9493 337.497 87.6C337.497 88.2613 337.631 88.8427 337.897 89.344C338.175 89.8347 338.537 90.2133 338.985 90.48C339.444 90.736 339.94 90.864 340.473 90.864C341.017 90.864 341.513 90.736 341.961 90.48C342.42 90.2133 342.783 89.8347 343.049 89.344C343.316 88.8427 343.449 88.256 343.449 87.584ZM347.91 87.584C347.91 86.688 348.091 85.904 348.454 85.232C348.817 84.5493 349.313 84.0213 349.942 83.648C350.582 83.2747 351.291 83.088 352.07 83.088C352.838 83.088 353.505 83.2533 354.07 83.584C354.635 83.9147 355.057 84.3307 355.334 84.832V83.232H356.806V92H355.334V90.368C355.046 90.88 354.614 91.3067 354.038 91.648C353.473 91.9787 352.811 92.144 352.054 92.144C351.275 92.144 350.571 91.952 349.942 91.568C349.313 91.184 348.817 90.6453 348.454 89.952C348.091 89.2587 347.91 88.4693 347.91 87.584ZM355.334 87.6C355.334 86.9387 355.201 86.3627 354.934 85.872C354.667 85.3813 354.305 85.008 353.846 84.752C353.398 84.4853 352.902 84.352 352.358 84.352C351.814 84.352 351.318 84.48 350.87 84.736C350.422 84.992 350.065 85.3653 349.798 85.856C349.531 86.3467 349.398 86.9227 349.398 87.584C349.398 88.256 349.531 88.8427 349.798 89.344C350.065 89.8347 350.422 90.2133 350.87 90.48C351.318 90.736 351.814 90.864 352.358 90.864C352.902 90.864 353.398 90.736 353.846 90.48C354.305 90.2133 354.667 89.8347 354.934 89.344C355.201 88.8427 355.334 88.2613 355.334 87.6ZM360.322 87.6C360.322 86.6933 360.504 85.904 360.866 85.232C361.229 84.5493 361.73 84.0213 362.37 83.648C363.021 83.2747 363.762 83.088 364.594 83.088C365.672 83.088 366.557 83.3493 367.25 83.872C367.954 84.3947 368.418 85.12 368.642 86.048H367.074C366.925 85.5147 366.632 85.0933 366.194 84.784C365.768 84.4747 365.234 84.32 364.594 84.32C363.762 84.32 363.09 84.608 362.578 85.184C362.066 85.7493 361.81 86.5547 361.81 87.6C361.81 88.656 362.066 89.472 362.578 90.048C363.09 90.624 363.762 90.912 364.594 90.912C365.234 90.912 365.768 90.7627 366.194 90.464C366.621 90.1653 366.914 89.7387 367.074 89.184H368.642C368.408 90.08 367.938 90.8 367.234 91.344C366.53 91.8773 365.65 92.144 364.594 92.144C363.762 92.144 363.021 91.9573 362.37 91.584C361.73 91.2107 361.229 90.6827 360.866 90C360.504 89.3173 360.322 88.5173 360.322 87.6ZM377.081 92L373.641 88.128V92H372.185V80.16H373.641V87.12L377.017 83.232H379.049L374.921 87.6L379.065 92H377.081ZM389.661 84.432V89.6C389.661 90.0267 389.752 90.3307 389.933 90.512C390.114 90.6827 390.429 90.768 390.877 90.768H391.949V92H390.637C389.826 92 389.218 91.8133 388.813 91.44C388.408 91.0667 388.205 90.4533 388.205 89.6V84.432H387.069V83.232H388.205V81.024H389.661V83.232H391.949V84.432H389.661ZM399.137 92.144C398.316 92.144 397.569 91.9573 396.897 91.584C396.236 91.2107 395.713 90.6827 395.329 90C394.956 89.3067 394.769 88.5067 394.769 87.6C394.769 86.704 394.961 85.9147 395.345 85.232C395.74 84.5387 396.273 84.0107 396.945 83.648C397.617 83.2747 398.369 83.088 399.201 83.088C400.033 83.088 400.785 83.2747 401.457 83.648C402.129 84.0107 402.657 84.5333 403.041 85.216C403.436 85.8987 403.633 86.6933 403.633 87.6C403.633 88.5067 403.431 89.3067 403.025 90C402.631 90.6827 402.092 91.2107 401.409 91.584C400.727 91.9573 399.969 92.144 399.137 92.144ZM399.137 90.864C399.66 90.864 400.151 90.7413 400.609 90.496C401.068 90.2507 401.436 89.8827 401.713 89.392C402.001 88.9013 402.145 88.304 402.145 87.6C402.145 86.896 402.007 86.2987 401.729 85.808C401.452 85.3173 401.089 84.9547 400.641 84.72C400.193 84.4747 399.708 84.352 399.185 84.352C398.652 84.352 398.161 84.4747 397.713 84.72C397.276 84.9547 396.924 85.3173 396.657 85.808C396.391 86.2987 396.257 86.896 396.257 87.6C396.257 88.3147 396.385 88.9173 396.641 89.408C396.908 89.8987 397.26 90.2667 397.697 90.512C398.135 90.7467 398.615 90.864 399.137 90.864ZM225.484 107.232L222.748 116H221.244L219.132 109.04L217.02 116H215.516L212.764 107.232H214.252L216.268 114.592L218.444 107.232H219.932L222.06 114.608L224.044 107.232H225.484ZM232.353 116.144C231.532 116.144 230.785 115.957 230.113 115.584C229.452 115.211 228.929 114.683 228.545 114C228.172 113.307 227.985 112.507 227.985 111.6C227.985 110.704 228.177 109.915 228.561 109.232C228.956 108.539 229.489 108.011 230.161 107.648C230.833 107.275 231.585 107.088 232.417 107.088C233.249 107.088 234.001 107.275 234.673 107.648C235.345 108.011 235.873 108.533 236.257 109.216C236.652 109.899 236.849 110.693 236.849 111.6C236.849 112.507 236.646 113.307 236.241 114C235.846 114.683 235.308 115.211 234.625 115.584C233.942 115.957 233.185 116.144 232.353 116.144ZM232.353 114.864C232.876 114.864 233.366 114.741 233.825 114.496C234.284 114.251 234.652 113.883 234.929 113.392C235.217 112.901 235.361 112.304 235.361 111.6C235.361 110.896 235.222 110.299 234.945 109.808C234.668 109.317 234.305 108.955 233.857 108.72C233.409 108.475 232.924 108.352 232.401 108.352C231.868 108.352 231.377 108.475 230.929 108.72C230.492 108.955 230.14 109.317 229.873 109.808C229.606 110.299 229.473 110.896 229.473 111.6C229.473 112.315 229.601 112.917 229.857 113.408C230.124 113.899 230.476 114.267 230.913 114.512C231.35 114.747 231.83 114.864 232.353 114.864ZM241.819 108.656C242.075 108.155 242.438 107.765 242.907 107.488C243.387 107.211 243.969 107.072 244.651 107.072V108.576H244.267C242.635 108.576 241.819 109.461 241.819 111.232V116H240.363V107.232H241.819V108.656ZM252.828 116L249.388 112.128V116H247.932V104.16H249.388V111.12L252.764 107.232H254.796L250.668 111.6L254.812 116H252.828ZM267.456 116.144C266.635 116.144 265.888 115.957 265.216 115.584C264.555 115.211 264.032 114.683 263.648 114C263.275 113.307 263.088 112.507 263.088 111.6C263.088 110.704 263.28 109.915 263.664 109.232C264.059 108.539 264.592 108.011 265.264 107.648C265.936 107.275 266.688 107.088 267.52 107.088C268.352 107.088 269.104 107.275 269.776 107.648C270.448 108.011 270.976 108.533 271.36 109.216C271.755 109.899 271.952 110.693 271.952 111.6C271.952 112.507 271.749 113.307 271.344 114C270.949 114.683 270.411 115.211 269.728 115.584C269.045 115.957 268.288 116.144 267.456 116.144ZM267.456 114.864C267.979 114.864 268.469 114.741 268.928 114.496C269.387 114.251 269.755 113.883 270.032 113.392C270.32 112.901 270.464 112.304 270.464 111.6C270.464 110.896 270.325 110.299 270.048 109.808C269.771 109.317 269.408 108.955 268.96 108.72C268.512 108.475 268.027 108.352 267.504 108.352C266.971 108.352 266.48 108.475 266.032 108.72C265.595 108.955 265.243 109.317 264.976 109.808C264.709 110.299 264.576 110.896 264.576 111.6C264.576 112.315 264.704 112.917 264.96 113.408C265.227 113.899 265.579 114.267 266.016 114.512C266.453 114.747 266.933 114.864 267.456 114.864ZM279.738 107.072C280.805 107.072 281.669 107.397 282.33 108.048C282.992 108.688 283.322 109.616 283.322 110.832V116H281.882V111.04C281.882 110.165 281.664 109.499 281.226 109.04C280.789 108.571 280.192 108.336 279.434 108.336C278.666 108.336 278.053 108.576 277.594 109.056C277.146 109.536 276.922 110.235 276.922 111.152V116H275.466V107.232H276.922V108.48C277.21 108.032 277.6 107.685 278.09 107.44C278.592 107.195 279.141 107.072 279.738 107.072ZM287.765 116.096C287.487 116.096 287.253 116 287.061 115.808C286.869 115.616 286.773 115.381 286.773 115.104C286.773 114.827 286.869 114.592 287.061 114.4C287.253 114.208 287.487 114.112 287.765 114.112C288.031 114.112 288.255 114.208 288.437 114.4C288.629 114.592 288.725 114.827 288.725 115.104C288.725 115.381 288.629 115.616 288.437 115.808C288.255 116 288.031 116.096 287.765 116.096Z" fill="white"/>
<path opacity="0.2" d="M275 141L460.991 141" stroke="white"/>
<path d="M60.8643 35.6367C58.9111 37.0527 56.7871 38.1514 54.4922 38.9326C52.2461 39.7139 50.0488 40.1045 47.9004 40.1045C46.4355 40.1045 45.0195 39.9092 43.6523 39.5186C42.334 39.0791 41.1621 38.4443 40.1367 37.6143C39.1113 36.7842 38.2812 35.7344 37.6465 34.4648C37.0605 33.1465 36.7676 31.6328 36.7676 29.9238C36.7676 27.873 37.0605 25.9443 37.6465 24.1377C38.2324 22.2822 39.1357 20.2803 40.3564 18.1318C41.5771 15.9346 43.0908 13.4687 44.8975 10.7344C46.7041 8 48.8281 4.72852 51.2695 0.919922H63.8672L56.1768 22.0869L60.8643 35.6367ZM28.4912 35.7832C26.5381 37.1992 24.4141 38.2979 22.1191 39.0791C19.873 39.8115 17.6758 40.1777 15.5273 40.1777C14.0625 40.1777 12.6465 39.9824 11.2793 39.5918C9.96094 39.1523 8.78906 38.5176 7.76367 37.6875C6.73828 36.8574 5.9082 35.8076 5.27344 34.5381C4.6875 33.2197 4.39453 31.7061 4.39453 29.9971C4.39453 27.9463 4.6875 26.0176 5.27344 24.2109C5.85938 22.3555 6.7627 20.3535 7.9834 18.2051C9.2041 16.0078 10.7178 13.542 12.5244 10.8076C14.3311 8.07324 16.4551 4.80176 18.8965 0.993164H31.4941L23.8037 22.1602L28.4912 35.7832Z" fill="white" fill-opacity="0.5"/>
</svg>
