<svg width="475" height="183" viewBox="0 0 475 183" fill="none" xmlns="http://www.w3.org/2000/svg">
<path opacity="0.7" d="M27 27.6198C27 22.8592 30.0858 19 33.8923 19H468.108C471.914 19 475 22.8592 475 27.6198V174.38C475 179.141 471.914 183 468.108 183H33.8923C30.0858 183 27 179.141 27 174.38V27.6198Z" fill="#950E0E"/>
<path d="M255.687 154.06V168H253.867V154.06H255.687ZM271.349 158.1C270.962 157.287 270.402 156.66 269.669 156.22C268.935 155.767 268.082 155.54 267.109 155.54C266.135 155.54 265.255 155.767 264.469 156.22C263.695 156.66 263.082 157.3 262.629 158.14C262.189 158.967 261.969 159.927 261.969 161.02C261.969 162.113 262.189 163.073 262.629 163.9C263.082 164.727 263.695 165.367 264.469 165.82C265.255 166.26 266.135 166.48 267.109 166.48C268.469 166.48 269.589 166.073 270.469 165.26C271.349 164.447 271.862 163.347 272.009 161.96H266.449V160.48H273.949V161.88C273.842 163.027 273.482 164.08 272.869 165.04C272.255 165.987 271.449 166.74 270.449 167.3C269.449 167.847 268.335 168.12 267.109 168.12C265.815 168.12 264.635 167.82 263.569 167.22C262.502 166.607 261.655 165.76 261.029 164.68C260.415 163.6 260.109 162.38 260.109 161.02C260.109 159.66 260.415 158.44 261.029 157.36C261.655 156.267 262.502 155.42 263.569 154.82C264.635 154.207 265.815 153.9 267.109 153.9C268.589 153.9 269.895 154.267 271.029 155C272.175 155.733 273.009 156.767 273.529 158.1H271.349ZM288.915 158.1C288.529 157.287 287.969 156.66 287.235 156.22C286.502 155.767 285.649 155.54 284.675 155.54C283.702 155.54 282.822 155.767 282.035 156.22C281.262 156.66 280.649 157.3 280.195 158.14C279.755 158.967 279.535 159.927 279.535 161.02C279.535 162.113 279.755 163.073 280.195 163.9C280.649 164.727 281.262 165.367 282.035 165.82C282.822 166.26 283.702 166.48 284.675 166.48C286.035 166.48 287.155 166.073 288.035 165.26C288.915 164.447 289.429 163.347 289.575 161.96H284.015V160.48H291.515V161.88C291.409 163.027 291.049 164.08 290.435 165.04C289.822 165.987 289.015 166.74 288.015 167.3C287.015 167.847 285.902 168.12 284.675 168.12C283.382 168.12 282.202 167.82 281.135 167.22C280.069 166.607 279.222 165.76 278.595 164.68C277.982 163.6 277.675 162.38 277.675 161.02C277.675 159.66 277.982 158.44 278.595 157.36C279.222 156.267 280.069 155.42 281.135 154.82C282.202 154.207 283.382 153.9 284.675 153.9C286.155 153.9 287.462 154.267 288.595 155C289.742 155.733 290.575 156.767 291.095 158.1H288.915ZM305.682 154.06L301.142 162.74V168H299.322V162.74L294.762 154.06H296.782L300.222 161.12L303.662 154.06H305.682ZM334.453 154.06L330.413 168H328.373L325.133 156.78L321.773 168L319.753 168.02L315.853 154.06H317.793L320.833 165.88L324.193 154.06H326.233L329.433 165.84L332.493 154.06H334.453ZM349.185 154.06V168H347.365V161.68H340.265V168H338.445V154.06H340.265V160.18H347.365V154.06H349.185ZM356.113 155.54V160.2H361.193V161.7H356.113V166.5H361.793V168H354.293V154.04H361.793V155.54H356.113ZM368.367 155.54V160.2H373.447V161.7H368.367V166.5H374.047V168H366.547V154.04H374.047V155.54H368.367ZM380.62 166.52H385.5V168H378.8V154.06H380.62V166.52ZM403.573 154.16V168H401.753V157.68L397.153 168H395.873L391.253 157.66V168H389.433V154.16H391.393L396.513 165.6L401.633 154.16H403.573ZM416.9 164.9H410.82L409.7 168H407.78L412.82 154.14H414.92L419.94 168H418.02L416.9 164.9ZM416.38 163.42L413.86 156.38L411.34 163.42H416.38ZM431.696 168L425.956 161.64V168H424.136V154.06H425.956V160.52L431.716 154.06H434.016L427.696 161.04L434.076 168H431.696ZM439.929 155.54V160.2H445.009V161.7H439.929V166.5H445.609V168H438.109V154.04H445.609V155.54H439.929ZM457.703 168L454.383 162.3H452.183V168H450.363V154.06H454.863C455.916 154.06 456.803 154.24 457.523 154.6C458.256 154.96 458.803 155.447 459.163 156.06C459.523 156.673 459.703 157.373 459.703 158.16C459.703 159.12 459.423 159.967 458.863 160.7C458.316 161.433 457.49 161.92 456.383 162.16L459.883 168H457.703ZM452.183 160.84H454.863C455.85 160.84 456.59 160.6 457.083 160.12C457.576 159.627 457.823 158.973 457.823 158.16C457.823 157.333 457.576 156.693 457.083 156.24C456.603 155.787 455.863 155.56 454.863 155.56H452.183V160.84Z" fill="white" fill-opacity="0.5"/>
<path d="M76.9355 41.848L73.7035 53H72.0715L69.4795 44.024L66.7915 53L65.1755 53.016L62.0555 41.848H63.6075L66.0395 51.304L68.7275 41.848H70.3595L72.9195 51.272L75.3675 41.848H76.9355ZM79.5848 48.584C79.5848 47.688 79.7662 46.904 80.1288 46.232C80.4915 45.5493 80.9875 45.0213 81.6168 44.648C82.2568 44.2747 82.9662 44.088 83.7448 44.088C84.5128 44.088 85.1795 44.2533 85.7448 44.584C86.3102 44.9147 86.7315 45.3307 87.0088 45.832V44.232H88.4808V53H87.0088V51.368C86.7208 51.88 86.2888 52.3067 85.7128 52.648C85.1475 52.9787 84.4862 53.144 83.7288 53.144C82.9502 53.144 82.2462 52.952 81.6168 52.568C80.9875 52.184 80.4915 51.6453 80.1288 50.952C79.7662 50.2587 79.5848 49.4693 79.5848 48.584ZM87.0088 48.6C87.0088 47.9387 86.8755 47.3627 86.6088 46.872C86.3422 46.3813 85.9795 46.008 85.5208 45.752C85.0728 45.4853 84.5768 45.352 84.0328 45.352C83.4888 45.352 82.9928 45.48 82.5448 45.736C82.0968 45.992 81.7395 46.3653 81.4728 46.856C81.2062 47.3467 81.0728 47.9227 81.0728 48.584C81.0728 49.256 81.2062 49.8427 81.4728 50.344C81.7395 50.8347 82.0968 51.2133 82.5448 51.48C82.9928 51.736 83.4888 51.864 84.0328 51.864C84.5768 51.864 85.0728 51.736 85.5208 51.48C85.9795 51.2133 86.3422 50.8347 86.6088 50.344C86.8755 49.8427 87.0088 49.2613 87.0088 48.6ZM95.6453 53.144C94.9733 53.144 94.3707 53.032 93.8373 52.808C93.304 52.5733 92.8827 52.2533 92.5733 51.848C92.264 51.432 92.0933 50.9573 92.0613 50.424H93.5653C93.608 50.8613 93.8107 51.2187 94.1733 51.496C94.5467 51.7733 95.032 51.912 95.6293 51.912C96.184 51.912 96.6213 51.7893 96.9413 51.544C97.2613 51.2987 97.4213 50.9893 97.4213 50.616C97.4213 50.232 97.2507 49.9493 96.9093 49.768C96.568 49.576 96.04 49.3893 95.3253 49.208C94.6747 49.0373 94.1413 48.8667 93.7253 48.696C93.32 48.5147 92.968 48.2533 92.6693 47.912C92.3813 47.56 92.2373 47.1013 92.2373 46.536C92.2373 46.088 92.3707 45.6773 92.6373 45.304C92.904 44.9307 93.2827 44.6373 93.7733 44.424C94.264 44.2 94.824 44.088 95.4533 44.088C96.424 44.088 97.208 44.3333 97.8053 44.824C98.4027 45.3147 98.7227 45.9867 98.7653 46.84H97.3093C97.2773 46.3813 97.0907 46.0133 96.7493 45.736C96.4187 45.4587 95.9707 45.32 95.4053 45.32C94.8827 45.32 94.4667 45.432 94.1573 45.656C93.848 45.88 93.6933 46.1733 93.6933 46.536C93.6933 46.824 93.784 47.064 93.9653 47.256C94.1573 47.4373 94.392 47.5867 94.6693 47.704C94.9573 47.8107 95.352 47.9333 95.8533 48.072C96.4827 48.2427 96.9947 48.4133 97.3893 48.584C97.784 48.744 98.12 48.9893 98.3973 49.32C98.6853 49.6507 98.8347 50.0827 98.8453 50.616C98.8453 51.096 98.712 51.528 98.4453 51.912C98.1787 52.296 97.8 52.6 97.3093 52.824C96.8293 53.0373 96.2747 53.144 95.6453 53.144ZM109.118 42.808C108.841 42.808 108.606 42.712 108.414 42.52C108.222 42.328 108.126 42.0933 108.126 41.816C108.126 41.5387 108.222 41.304 108.414 41.112C108.606 40.92 108.841 40.824 109.118 40.824C109.385 40.824 109.609 40.92 109.79 41.112C109.982 41.304 110.078 41.5387 110.078 41.816C110.078 42.0933 109.982 42.328 109.79 42.52C109.609 42.712 109.385 42.808 109.118 42.808ZM109.822 44.232V53H108.366V44.232H109.822ZM118.176 44.072C119.243 44.072 120.107 44.3973 120.768 45.048C121.429 45.688 121.76 46.616 121.76 47.832V53H120.32V48.04C120.32 47.1653 120.101 46.4987 119.664 46.04C119.227 45.5707 118.629 45.336 117.872 45.336C117.104 45.336 116.491 45.576 116.032 46.056C115.584 46.536 115.36 47.2347 115.36 48.152V53H113.904V44.232H115.36V45.48C115.648 45.032 116.037 44.6853 116.528 44.44C117.029 44.1947 117.579 44.072 118.176 44.072ZM135.876 44.072C136.943 44.072 137.807 44.3973 138.468 45.048C139.129 45.688 139.46 46.616 139.46 47.832V53H138.02V48.04C138.02 47.1653 137.801 46.4987 137.364 46.04C136.927 45.5707 136.329 45.336 135.572 45.336C134.804 45.336 134.191 45.576 133.732 46.056C133.284 46.536 133.06 47.2347 133.06 48.152V53H131.604V44.232H133.06V45.48C133.348 45.032 133.737 44.6853 134.228 44.44C134.729 44.1947 135.279 44.072 135.876 44.072ZM153.128 53.144C152.307 53.144 151.56 52.9573 150.888 52.584C150.227 52.2107 149.704 51.6827 149.32 51C148.947 50.3067 148.76 49.5067 148.76 48.6C148.76 47.704 148.952 46.9147 149.336 46.232C149.731 45.5387 150.264 45.0107 150.936 44.648C151.608 44.2747 152.36 44.088 153.192 44.088C154.024 44.088 154.776 44.2747 155.448 44.648C156.12 45.0107 156.648 45.5333 157.032 46.216C157.427 46.8987 157.624 47.6933 157.624 48.6C157.624 49.5067 157.421 50.3067 157.016 51C156.621 51.6827 156.083 52.2107 155.4 52.584C154.717 52.9573 153.96 53.144 153.128 53.144ZM153.128 51.864C153.651 51.864 154.141 51.7413 154.6 51.496C155.059 51.2507 155.427 50.8827 155.704 50.392C155.992 49.9013 156.136 49.304 156.136 48.6C156.136 47.896 155.997 47.2987 155.72 46.808C155.443 46.3173 155.08 45.9547 154.632 45.72C154.184 45.4747 153.699 45.352 153.176 45.352C152.643 45.352 152.152 45.4747 151.704 45.72C151.267 45.9547 150.915 46.3173 150.648 46.808C150.381 47.2987 150.248 47.896 150.248 48.6C150.248 49.3147 150.376 49.9173 150.632 50.408C150.899 50.8987 151.251 51.2667 151.688 51.512C152.125 51.7467 152.605 51.864 153.128 51.864ZM168.914 44.232V53H167.458V51.704C167.181 52.152 166.792 52.504 166.29 52.76C165.8 53.0053 165.256 53.128 164.658 53.128C163.976 53.128 163.362 52.9893 162.818 52.712C162.274 52.424 161.842 51.9973 161.522 51.432C161.213 50.8667 161.058 50.1787 161.058 49.368V44.232H162.498V49.176C162.498 50.04 162.717 50.7067 163.154 51.176C163.592 51.6347 164.189 51.864 164.946 51.864C165.725 51.864 166.338 51.624 166.786 51.144C167.234 50.664 167.458 49.9653 167.458 49.048V44.232H168.914ZM174.749 45.432V50.6C174.749 51.0267 174.839 51.3307 175.021 51.512C175.202 51.6827 175.517 51.768 175.965 51.768H177.037V53H175.725C174.914 53 174.306 52.8133 173.901 52.44C173.495 52.0667 173.293 51.4533 173.293 50.6V45.432H172.157V44.232H173.293V42.024H174.749V44.232H177.037V45.432H174.749ZM187.018 42.808C186.741 42.808 186.506 42.712 186.314 42.52C186.122 42.328 186.026 42.0933 186.026 41.816C186.026 41.5387 186.122 41.304 186.314 41.112C186.506 40.92 186.741 40.824 187.018 40.824C187.285 40.824 187.509 40.92 187.69 41.112C187.882 41.304 187.978 41.5387 187.978 41.816C187.978 42.0933 187.882 42.328 187.69 42.52C187.509 42.712 187.285 42.808 187.018 42.808ZM187.722 44.232V53H186.266V44.232H187.722ZM196.076 44.072C197.143 44.072 198.007 44.3973 198.668 45.048C199.329 45.688 199.66 46.616 199.66 47.832V53H198.22V48.04C198.22 47.1653 198.001 46.4987 197.564 46.04C197.127 45.5707 196.529 45.336 195.772 45.336C195.004 45.336 194.391 45.576 193.932 46.056C193.484 46.536 193.26 47.2347 193.26 48.152V53H191.804V44.232H193.26V45.48C193.548 45.032 193.937 44.6853 194.428 44.44C194.929 44.1947 195.479 44.072 196.076 44.072ZM208.96 48.584C208.96 47.688 209.141 46.904 209.504 46.232C209.867 45.5493 210.363 45.0213 210.992 44.648C211.632 44.2747 212.341 44.088 213.12 44.088C213.888 44.088 214.555 44.2533 215.12 44.584C215.685 44.9147 216.107 45.3307 216.384 45.832V44.232H217.856V53H216.384V51.368C216.096 51.88 215.664 52.3067 215.088 52.648C214.523 52.9787 213.861 53.144 213.104 53.144C212.325 53.144 211.621 52.952 210.992 52.568C210.363 52.184 209.867 51.6453 209.504 50.952C209.141 50.2587 208.96 49.4693 208.96 48.584ZM216.384 48.6C216.384 47.9387 216.251 47.3627 215.984 46.872C215.717 46.3813 215.355 46.008 214.896 45.752C214.448 45.4853 213.952 45.352 213.408 45.352C212.864 45.352 212.368 45.48 211.92 45.736C211.472 45.992 211.115 46.3653 210.848 46.856C210.581 47.3467 210.448 47.9227 210.448 48.584C210.448 49.256 210.581 49.8427 210.848 50.344C211.115 50.8347 211.472 51.2133 211.92 51.48C212.368 51.736 212.864 51.864 213.408 51.864C213.952 51.864 214.448 51.736 214.896 51.48C215.355 51.2133 215.717 50.8347 215.984 50.344C216.251 49.8427 216.384 49.2613 216.384 48.6ZM230.886 53.144C230.214 53.144 229.611 53.032 229.078 52.808C228.545 52.5733 228.123 52.2533 227.814 51.848C227.505 51.432 227.334 50.9573 227.302 50.424H228.806C228.849 50.8613 229.051 51.2187 229.414 51.496C229.787 51.7733 230.273 51.912 230.87 51.912C231.425 51.912 231.862 51.7893 232.182 51.544C232.502 51.2987 232.662 50.9893 232.662 50.616C232.662 50.232 232.491 49.9493 232.15 49.768C231.809 49.576 231.281 49.3893 230.566 49.208C229.915 49.0373 229.382 48.8667 228.966 48.696C228.561 48.5147 228.209 48.2533 227.91 47.912C227.622 47.56 227.478 47.1013 227.478 46.536C227.478 46.088 227.611 45.6773 227.878 45.304C228.145 44.9307 228.523 44.6373 229.014 44.424C229.505 44.2 230.065 44.088 230.694 44.088C231.665 44.088 232.449 44.3333 233.046 44.824C233.643 45.3147 233.963 45.9867 234.006 46.84H232.55C232.518 46.3813 232.331 46.0133 231.99 45.736C231.659 45.4587 231.211 45.32 230.646 45.32C230.123 45.32 229.707 45.432 229.398 45.656C229.089 45.88 228.934 46.1733 228.934 46.536C228.934 46.824 229.025 47.064 229.206 47.256C229.398 47.4373 229.633 47.5867 229.91 47.704C230.198 47.8107 230.593 47.9333 231.094 48.072C231.723 48.2427 232.235 48.4133 232.63 48.584C233.025 48.744 233.361 48.9893 233.638 49.32C233.926 49.6507 234.075 50.0827 234.086 50.616C234.086 51.096 233.953 51.528 233.686 51.912C233.419 52.296 233.041 52.6 232.55 52.824C232.07 53.0373 231.515 53.144 230.886 53.144ZM242.093 44.072C242.755 44.072 243.352 44.216 243.885 44.504C244.419 44.7813 244.835 45.2027 245.133 45.768C245.443 46.3333 245.597 47.0213 245.597 47.832V53H244.157V48.04C244.157 47.1653 243.939 46.4987 243.501 46.04C243.064 45.5707 242.467 45.336 241.709 45.336C240.941 45.336 240.328 45.576 239.869 46.056C239.421 46.536 239.197 47.2347 239.197 48.152V53H237.741V41.16H239.197V45.48C239.485 45.032 239.88 44.6853 240.381 44.44C240.893 44.1947 241.464 44.072 242.093 44.072ZM253.4 53.144C252.578 53.144 251.832 52.9573 251.16 52.584C250.498 52.2107 249.976 51.6827 249.592 51C249.218 50.3067 249.032 49.5067 249.032 48.6C249.032 47.704 249.224 46.9147 249.608 46.232C250.002 45.5387 250.536 45.0107 251.208 44.648C251.88 44.2747 252.632 44.088 253.464 44.088C254.296 44.088 255.048 44.2747 255.72 44.648C256.392 45.0107 256.92 45.5333 257.304 46.216C257.698 46.8987 257.896 47.6933 257.896 48.6C257.896 49.5067 257.693 50.3067 257.288 51C256.893 51.6827 256.354 52.2107 255.672 52.584C254.989 52.9573 254.232 53.144 253.4 53.144ZM253.4 51.864C253.922 51.864 254.413 51.7413 254.872 51.496C255.33 51.2507 255.698 50.8827 255.976 50.392C256.264 49.9013 256.408 49.304 256.408 48.6C256.408 47.896 256.269 47.2987 255.992 46.808C255.714 46.3173 255.352 45.9547 254.904 45.72C254.456 45.4747 253.97 45.352 253.448 45.352C252.914 45.352 252.424 45.4747 251.976 45.72C251.538 45.9547 251.186 46.3173 250.92 46.808C250.653 47.2987 250.52 47.896 250.52 48.6C250.52 49.3147 250.648 49.9173 250.904 50.408C251.17 50.8987 251.522 51.2667 251.96 51.512C252.397 51.7467 252.877 51.864 253.4 51.864ZM262.866 45.656C263.122 45.1547 263.485 44.7653 263.954 44.488C264.434 44.2107 265.015 44.072 265.698 44.072V45.576H265.314C263.682 45.576 262.866 46.4613 262.866 48.232V53H261.41V44.232H262.866V45.656ZM270.755 45.432V50.6C270.755 51.0267 270.846 51.3307 271.027 51.512C271.208 51.6827 271.523 51.768 271.971 51.768H273.043V53H271.731C270.92 53 270.312 52.8133 269.907 52.44C269.502 52.0667 269.299 51.4533 269.299 50.6V45.432H268.163V44.232H269.299V42.024H270.755V44.232H273.043V45.432H270.755ZM284.049 45.432V50.6C284.049 51.0267 284.139 51.3307 284.321 51.512C284.502 51.6827 284.817 51.768 285.265 51.768H286.337V53H285.025C284.214 53 283.606 52.8133 283.201 52.44C282.795 52.0667 282.593 51.4533 282.593 50.6V45.432H281.457V44.232H282.593V42.024H284.049V44.232H286.337V45.432H284.049ZM290.453 42.808C290.175 42.808 289.941 42.712 289.749 42.52C289.557 42.328 289.461 42.0933 289.461 41.816C289.461 41.5387 289.557 41.304 289.749 41.112C289.941 40.92 290.175 40.824 290.453 40.824C290.719 40.824 290.943 40.92 291.125 41.112C291.317 41.304 291.413 41.5387 291.413 41.816C291.413 42.0933 291.317 42.328 291.125 42.52C290.943 42.712 290.719 42.808 290.453 42.808ZM291.157 44.232V53H289.701V44.232H291.157ZM305.782 44.072C306.465 44.072 307.073 44.216 307.606 44.504C308.14 44.7813 308.561 45.2027 308.87 45.768C309.18 46.3333 309.334 47.0213 309.334 47.832V53H307.894V48.04C307.894 47.1653 307.676 46.4987 307.238 46.04C306.812 45.5707 306.23 45.336 305.494 45.336C304.737 45.336 304.134 45.5813 303.686 46.072C303.238 46.552 303.014 47.2507 303.014 48.168V53H301.574V48.04C301.574 47.1653 301.356 46.4987 300.918 46.04C300.492 45.5707 299.91 45.336 299.174 45.336C298.417 45.336 297.814 45.5813 297.366 46.072C296.918 46.552 296.694 47.2507 296.694 48.168V53H295.238V44.232H296.694V45.496C296.982 45.0373 297.366 44.6853 297.846 44.44C298.337 44.1947 298.876 44.072 299.462 44.072C300.198 44.072 300.849 44.2373 301.414 44.568C301.98 44.8987 302.401 45.384 302.678 46.024C302.924 45.4053 303.329 44.9253 303.894 44.584C304.46 44.2427 305.089 44.072 305.782 44.072ZM321.323 48.28C321.323 48.5573 321.307 48.8507 321.275 49.16H314.267C314.32 50.024 314.613 50.7013 315.147 51.192C315.691 51.672 316.347 51.912 317.115 51.912C317.744 51.912 318.267 51.768 318.683 51.48C319.109 51.1813 319.408 50.7867 319.579 50.296H321.147C320.912 51.1387 320.443 51.8267 319.739 52.36C319.035 52.8827 318.16 53.144 317.115 53.144C316.283 53.144 315.536 52.9573 314.875 52.584C314.224 52.2107 313.712 51.6827 313.339 51C312.965 50.3067 312.779 49.5067 312.779 48.6C312.779 47.6933 312.96 46.8987 313.323 46.216C313.685 45.5333 314.192 45.0107 314.843 44.648C315.504 44.2747 316.261 44.088 317.115 44.088C317.947 44.088 318.683 44.2693 319.323 44.632C319.963 44.9947 320.453 45.496 320.795 46.136C321.147 46.7653 321.323 47.48 321.323 48.28ZM319.819 47.976C319.819 47.4213 319.696 46.9467 319.451 46.552C319.205 46.1467 318.869 45.8427 318.443 45.64C318.027 45.4267 317.563 45.32 317.051 45.32C316.315 45.32 315.685 45.5547 315.163 46.024C314.651 46.4933 314.357 47.144 314.283 47.976H319.819ZM325.308 53.096C325.031 53.096 324.796 53 324.604 52.808C324.412 52.616 324.316 52.3813 324.316 52.104C324.316 51.8267 324.412 51.592 324.604 51.4C324.796 51.208 325.031 51.112 325.308 51.112C325.575 51.112 325.799 51.208 325.98 51.4C326.172 51.592 326.268 51.8267 326.268 52.104C326.268 52.3813 326.172 52.616 325.98 52.808C325.799 53 325.575 53.096 325.308 53.096ZM341.253 47.256C341.659 47.32 342.027 47.4853 342.357 47.752C342.699 48.0187 342.965 48.3493 343.157 48.744C343.36 49.1387 343.461 49.56 343.461 50.008C343.461 50.5733 343.317 51.0853 343.029 51.544C342.741 51.992 342.32 52.3493 341.765 52.616C341.221 52.872 340.576 53 339.829 53H335.669V41.848H339.669C340.427 41.848 341.072 41.976 341.605 42.232C342.139 42.4773 342.539 42.8133 342.805 43.24C343.072 43.6667 343.205 44.1467 343.205 44.68C343.205 45.3413 343.024 45.8907 342.661 46.328C342.309 46.7547 341.84 47.064 341.253 47.256ZM337.125 46.664H339.573C340.256 46.664 340.784 46.504 341.157 46.184C341.531 45.864 341.717 45.4213 341.717 44.856C341.717 44.2907 341.531 43.848 341.157 43.528C340.784 43.208 340.245 43.048 339.541 43.048H337.125V46.664ZM339.701 51.8C340.427 51.8 340.992 51.6293 341.397 51.288C341.803 50.9467 342.005 50.472 342.005 49.864C342.005 49.2453 341.792 48.76 341.365 48.408C340.939 48.0453 340.368 47.864 339.653 47.864H337.125V51.8H339.701ZM355.082 48.28C355.082 48.5573 355.066 48.8507 355.034 49.16H348.026C348.079 50.024 348.373 50.7013 348.906 51.192C349.45 51.672 350.106 51.912 350.874 51.912C351.503 51.912 352.026 51.768 352.442 51.48C352.869 51.1813 353.167 50.7867 353.338 50.296H354.906C354.671 51.1387 354.202 51.8267 353.498 52.36C352.794 52.8827 351.919 53.144 350.874 53.144C350.042 53.144 349.295 52.9573 348.634 52.584C347.983 52.2107 347.471 51.6827 347.098 51C346.725 50.3067 346.538 49.5067 346.538 48.6C346.538 47.6933 346.719 46.8987 347.082 46.216C347.445 45.5333 347.951 45.0107 348.602 44.648C349.263 44.2747 350.021 44.088 350.874 44.088C351.706 44.088 352.442 44.2693 353.082 44.632C353.722 44.9947 354.213 45.496 354.554 46.136C354.906 46.7653 355.082 47.48 355.082 48.28ZM353.578 47.976C353.578 47.4213 353.455 46.9467 353.21 46.552C352.965 46.1467 352.629 45.8427 352.202 45.64C351.786 45.4267 351.322 45.32 350.81 45.32C350.074 45.32 349.445 45.5547 348.922 46.024C348.41 46.4933 348.117 47.144 348.042 47.976H353.578ZM362.876 44.072C363.943 44.072 364.807 44.3973 365.468 45.048C366.129 45.688 366.46 46.616 366.46 47.832V53H365.02V48.04C365.02 47.1653 364.801 46.4987 364.364 46.04C363.927 45.5707 363.329 45.336 362.572 45.336C361.804 45.336 361.191 45.576 360.732 46.056C360.284 46.536 360.06 47.2347 360.06 48.152V53H358.604V44.232H360.06V45.48C360.348 45.032 360.737 44.6853 361.228 44.44C361.729 44.1947 362.279 44.072 362.876 44.072ZM380.656 44.072C381.317 44.072 381.915 44.216 382.448 44.504C382.981 44.7813 383.397 45.2027 383.696 45.768C384.005 46.3333 384.16 47.0213 384.16 47.832V53H382.72V48.04C382.72 47.1653 382.501 46.4987 382.064 46.04C381.627 45.5707 381.029 45.336 380.272 45.336C379.504 45.336 378.891 45.576 378.432 46.056C377.984 46.536 377.76 47.2347 377.76 48.152V53H376.304V41.16H377.76V45.48C378.048 45.032 378.443 44.6853 378.944 44.44C379.456 44.1947 380.027 44.072 380.656 44.072ZM396.138 48.28C396.138 48.5573 396.122 48.8507 396.09 49.16H389.082C389.136 50.024 389.429 50.7013 389.962 51.192C390.506 51.672 391.162 51.912 391.93 51.912C392.56 51.912 393.082 51.768 393.498 51.48C393.925 51.1813 394.224 50.7867 394.394 50.296H395.962C395.728 51.1387 395.258 51.8267 394.554 52.36C393.85 52.8827 392.976 53.144 391.93 53.144C391.098 53.144 390.352 52.9573 389.69 52.584C389.04 52.2107 388.528 51.6827 388.154 51C387.781 50.3067 387.594 49.5067 387.594 48.6C387.594 47.6933 387.776 46.8987 388.138 46.216C388.501 45.5333 389.008 45.0107 389.658 44.648C390.32 44.2747 391.077 44.088 391.93 44.088C392.762 44.088 393.498 44.2693 394.138 44.632C394.778 44.9947 395.269 45.496 395.61 46.136C395.962 46.7653 396.138 47.48 396.138 48.28ZM394.634 47.976C394.634 47.4213 394.512 46.9467 394.266 46.552C394.021 46.1467 393.685 45.8427 393.258 45.64C392.842 45.4267 392.378 45.32 391.866 45.32C391.13 45.32 390.501 45.5547 389.978 46.024C389.466 46.4933 389.173 47.144 389.098 47.976H394.634ZM401.116 41.16V53H399.66V41.16H401.116ZM406.654 45.848C406.942 45.3467 407.368 44.9307 407.934 44.6C408.51 44.2587 409.176 44.088 409.934 44.088C410.712 44.088 411.416 44.2747 412.046 44.648C412.686 45.0213 413.187 45.5493 413.55 46.232C413.912 46.904 414.094 47.688 414.094 48.584C414.094 49.4693 413.912 50.2587 413.55 50.952C413.187 51.6453 412.686 52.184 412.046 52.568C411.416 52.952 410.712 53.144 409.934 53.144C409.187 53.144 408.526 52.9787 407.95 52.648C407.384 52.3067 406.952 51.8853 406.654 51.384V57.16H405.198V44.232H406.654V45.848ZM412.606 48.584C412.606 47.9227 412.472 47.3467 412.206 46.856C411.939 46.3653 411.576 45.992 411.118 45.736C410.67 45.48 410.174 45.352 409.63 45.352C409.096 45.352 408.6 45.4853 408.142 45.752C407.694 46.008 407.331 46.3867 407.054 46.888C406.787 47.3787 406.654 47.9493 406.654 48.6C406.654 49.2613 406.787 49.8427 407.054 50.344C407.331 50.8347 407.694 51.2133 408.142 51.48C408.6 51.736 409.096 51.864 409.63 51.864C410.174 51.864 410.67 51.736 411.118 51.48C411.576 51.2133 411.939 50.8347 412.206 50.344C412.472 49.8427 412.606 49.256 412.606 48.584ZM425.61 48.28C425.61 48.5573 425.594 48.8507 425.562 49.16H418.554C418.607 50.024 418.901 50.7013 419.434 51.192C419.978 51.672 420.634 51.912 421.402 51.912C422.031 51.912 422.554 51.768 422.97 51.48C423.397 51.1813 423.695 50.7867 423.866 50.296H425.434C425.199 51.1387 424.73 51.8267 424.026 52.36C423.322 52.8827 422.447 53.144 421.402 53.144C420.57 53.144 419.823 52.9573 419.162 52.584C418.511 52.2107 417.999 51.6827 417.626 51C417.253 50.3067 417.066 49.5067 417.066 48.6C417.066 47.6933 417.247 46.8987 417.61 46.216C417.973 45.5333 418.479 45.0107 419.13 44.648C419.791 44.2747 420.549 44.088 421.402 44.088C422.234 44.088 422.97 44.2693 423.61 44.632C424.25 44.9947 424.741 45.496 425.082 46.136C425.434 46.7653 425.61 47.48 425.61 48.28ZM424.106 47.976C424.106 47.4213 423.983 46.9467 423.738 46.552C423.493 46.1467 423.157 45.8427 422.73 45.64C422.314 45.4267 421.85 45.32 421.338 45.32C420.602 45.32 419.973 45.5547 419.45 46.024C418.938 46.4933 418.645 47.144 418.57 47.976H424.106ZM428.588 48.584C428.588 47.688 428.769 46.904 429.132 46.232C429.495 45.5493 429.991 45.0213 430.62 44.648C431.26 44.2747 431.975 44.088 432.764 44.088C433.447 44.088 434.081 44.248 434.668 44.568C435.255 44.8773 435.703 45.288 436.012 45.8V41.16H437.484V53H436.012V51.352C435.724 51.8747 435.297 52.3067 434.732 52.648C434.167 52.9787 433.505 53.144 432.748 53.144C431.969 53.144 431.26 52.952 430.62 52.568C429.991 52.184 429.495 51.6453 429.132 50.952C428.769 50.2587 428.588 49.4693 428.588 48.584ZM436.012 48.6C436.012 47.9387 435.879 47.3627 435.612 46.872C435.345 46.3813 434.983 46.008 434.524 45.752C434.076 45.4853 433.58 45.352 433.036 45.352C432.492 45.352 431.996 45.48 431.548 45.736C431.1 45.992 430.743 46.3653 430.476 46.856C430.209 47.3467 430.076 47.9227 430.076 48.584C430.076 49.256 430.209 49.8427 430.476 50.344C430.743 50.8347 431.1 51.2133 431.548 51.48C431.996 51.736 432.492 51.864 433.036 51.864C433.58 51.864 434.076 51.736 434.524 51.48C434.983 51.2133 435.345 50.8347 435.612 50.344C435.879 49.8427 436.012 49.2613 436.012 48.6ZM62.7403 77.144C61.919 77.144 61.1723 76.9573 60.5003 76.584C59.839 76.2107 59.3163 75.6827 58.9323 75C58.559 74.3067 58.3723 73.5067 58.3723 72.6C58.3723 71.704 58.5643 70.9147 58.9483 70.232C59.343 69.5387 59.8763 69.0107 60.5483 68.648C61.2203 68.2747 61.9723 68.088 62.8043 68.088C63.6363 68.088 64.3883 68.2747 65.0603 68.648C65.7323 69.0107 66.2603 69.5333 66.6443 70.216C67.039 70.8987 67.2363 71.6933 67.2363 72.6C67.2363 73.5067 67.0337 74.3067 66.6283 75C66.2337 75.6827 65.695 76.2107 65.0123 76.584C64.3297 76.9573 63.5723 77.144 62.7403 77.144ZM62.7403 75.864C63.263 75.864 63.7537 75.7413 64.2123 75.496C64.671 75.2507 65.039 74.8827 65.3163 74.392C65.6043 73.9013 65.7483 73.304 65.7483 72.6C65.7483 71.896 65.6097 71.2987 65.3323 70.808C65.055 70.3173 64.6923 69.9547 64.2443 69.72C63.7963 69.4747 63.311 69.352 62.7883 69.352C62.255 69.352 61.7643 69.4747 61.3163 69.72C60.879 69.9547 60.527 70.3173 60.2603 70.808C59.9937 71.2987 59.8603 71.896 59.8603 72.6C59.8603 73.3147 59.9883 73.9173 60.2443 74.408C60.511 74.8987 60.863 75.2667 61.3003 75.512C61.7377 75.7467 62.2177 75.864 62.7403 75.864ZM78.5267 68.232V77H77.0707V75.704C76.7934 76.152 76.4041 76.504 75.9027 76.76C75.4121 77.0053 74.8681 77.128 74.2707 77.128C73.5881 77.128 72.9747 76.9893 72.4307 76.712C71.8867 76.424 71.4547 75.9973 71.1347 75.432C70.8254 74.8667 70.6707 74.1787 70.6707 73.368V68.232H72.1107V73.176C72.1107 74.04 72.3294 74.7067 72.7667 75.176C73.2041 75.6347 73.8014 75.864 74.5587 75.864C75.3374 75.864 75.9507 75.624 76.3987 75.144C76.8467 74.664 77.0707 73.9653 77.0707 73.048V68.232H78.5267ZM84.3611 69.432V74.6C84.3611 75.0267 84.4518 75.3307 84.6331 75.512C84.8144 75.6827 85.1291 75.768 85.5771 75.768H86.6491V77H85.3371C84.5264 77 83.9184 76.8133 83.5131 76.44C83.1078 76.0667 82.9051 75.4533 82.9051 74.6V69.432H81.7691V68.232H82.9051V66.024H84.3611V68.232H86.6491V69.432H84.3611ZM97.3348 69.864C97.6335 69.3413 98.0708 68.9147 98.6468 68.584C99.2228 68.2533 99.8788 68.088 100.615 68.088C101.404 68.088 102.114 68.2747 102.743 68.648C103.372 69.0213 103.868 69.5493 104.231 70.232C104.594 70.904 104.775 71.688 104.775 72.584C104.775 73.4693 104.594 74.2587 104.231 74.952C103.868 75.6453 103.367 76.184 102.727 76.568C102.098 76.952 101.394 77.144 100.615 77.144C99.8575 77.144 99.1908 76.9787 98.6148 76.648C98.0495 76.3173 97.6228 75.896 97.3348 75.384V77H95.8788V65.16H97.3348V69.864ZM103.287 72.584C103.287 71.9227 103.154 71.3467 102.887 70.856C102.62 70.3653 102.258 69.992 101.799 69.736C101.351 69.48 100.855 69.352 100.311 69.352C99.7775 69.352 99.2815 69.4853 98.8228 69.752C98.3748 70.008 98.0122 70.3867 97.7348 70.888C97.4682 71.3787 97.3348 71.9493 97.3348 72.6C97.3348 73.2613 97.4682 73.8427 97.7348 74.344C98.0122 74.8347 98.3748 75.2133 98.8228 75.48C99.2815 75.736 99.7775 75.864 100.311 75.864C100.855 75.864 101.351 75.736 101.799 75.48C102.258 75.2133 102.62 74.8347 102.887 74.344C103.154 73.8427 103.287 73.256 103.287 72.584ZM109.043 66.808C108.766 66.808 108.531 66.712 108.339 66.52C108.147 66.328 108.051 66.0933 108.051 65.816C108.051 65.5387 108.147 65.304 108.339 65.112C108.531 64.92 108.766 64.824 109.043 64.824C109.31 64.824 109.534 64.92 109.715 65.112C109.907 65.304 110.003 65.5387 110.003 65.816C110.003 66.0933 109.907 66.328 109.715 66.52C109.534 66.712 109.31 66.808 109.043 66.808ZM109.747 68.232V77H108.291V68.232H109.747ZM117.445 68.088C118.202 68.088 118.864 68.2533 119.429 68.584C120.005 68.9147 120.432 69.3307 120.709 69.832V68.232H122.181V77.192C122.181 77.992 122.01 78.7013 121.669 79.32C121.328 79.9493 120.837 80.44 120.197 80.792C119.568 81.144 118.832 81.32 117.989 81.32C116.837 81.32 115.877 81.048 115.109 80.504C114.341 79.96 113.888 79.2187 113.749 78.28H115.189C115.349 78.8133 115.68 79.24 116.181 79.56C116.682 79.8907 117.285 80.056 117.989 80.056C118.789 80.056 119.44 79.8053 119.941 79.304C120.453 78.8027 120.709 78.0987 120.709 77.192V75.352C120.421 75.864 119.994 76.2907 119.429 76.632C118.864 76.9733 118.202 77.144 117.445 77.144C116.666 77.144 115.957 76.952 115.317 76.568C114.688 76.184 114.192 75.6453 113.829 74.952C113.466 74.2587 113.285 73.4693 113.285 72.584C113.285 71.688 113.466 70.904 113.829 70.232C114.192 69.5493 114.688 69.0213 115.317 68.648C115.957 68.2747 116.666 68.088 117.445 68.088ZM120.709 72.6C120.709 71.9387 120.576 71.3627 120.309 70.872C120.042 70.3813 119.68 70.008 119.221 69.752C118.773 69.4853 118.277 69.352 117.733 69.352C117.189 69.352 116.693 69.48 116.245 69.736C115.797 69.992 115.44 70.3653 115.173 70.856C114.906 71.3467 114.773 71.9227 114.773 72.584C114.773 73.256 114.906 73.8427 115.173 74.344C115.44 74.8347 115.797 75.2133 116.245 75.48C116.693 75.736 117.189 75.864 117.733 75.864C118.277 75.864 118.773 75.736 119.221 75.48C119.68 75.2133 120.042 74.8347 120.309 74.344C120.576 73.8427 120.709 73.2613 120.709 72.6ZM133.883 69.432V74.6C133.883 75.0267 133.974 75.3307 134.155 75.512C134.336 75.6827 134.651 75.768 135.099 75.768H136.171V77H134.859C134.048 77 133.44 76.8133 133.035 76.44C132.63 76.0667 132.427 75.4533 132.427 74.6V69.432H131.291V68.232H132.427V66.024H133.883V68.232H136.171V69.432H133.883ZM140.287 66.808C140.01 66.808 139.775 66.712 139.583 66.52C139.391 66.328 139.295 66.0933 139.295 65.816C139.295 65.5387 139.391 65.304 139.583 65.112C139.775 64.92 140.01 64.824 140.287 64.824C140.554 64.824 140.778 64.92 140.959 65.112C141.151 65.304 141.247 65.5387 141.247 65.816C141.247 66.0933 141.151 66.328 140.959 66.52C140.778 66.712 140.554 66.808 140.287 66.808ZM140.991 68.232V77H139.535V68.232H140.991ZM155.617 68.072C156.299 68.072 156.907 68.216 157.441 68.504C157.974 68.7813 158.395 69.2027 158.705 69.768C159.014 70.3333 159.169 71.0213 159.169 71.832V77H157.729V72.04C157.729 71.1653 157.51 70.4987 157.073 70.04C156.646 69.5707 156.065 69.336 155.329 69.336C154.571 69.336 153.969 69.5813 153.521 70.072C153.073 70.552 152.849 71.2507 152.849 72.168V77H151.409V72.04C151.409 71.1653 151.19 70.4987 150.753 70.04C150.326 69.5707 149.745 69.336 149.009 69.336C148.251 69.336 147.649 69.5813 147.201 70.072C146.753 70.552 146.529 71.2507 146.529 72.168V77H145.073V68.232H146.529V69.496C146.817 69.0373 147.201 68.6853 147.681 68.44C148.171 68.1947 148.71 68.072 149.297 68.072C150.033 68.072 150.683 68.2373 151.249 68.568C151.814 68.8987 152.235 69.384 152.513 70.024C152.758 69.4053 153.163 68.9253 153.729 68.584C154.294 68.2427 154.923 68.072 155.617 68.072ZM171.157 72.28C171.157 72.5573 171.141 72.8507 171.109 73.16H164.101C164.154 74.024 164.448 74.7013 164.981 75.192C165.525 75.672 166.181 75.912 166.949 75.912C167.578 75.912 168.101 75.768 168.517 75.48C168.944 75.1813 169.242 74.7867 169.413 74.296H170.981C170.746 75.1387 170.277 75.8267 169.573 76.36C168.869 76.8827 167.994 77.144 166.949 77.144C166.117 77.144 165.37 76.9573 164.709 76.584C164.058 76.2107 163.546 75.6827 163.173 75C162.8 74.3067 162.613 73.5067 162.613 72.6C162.613 71.6933 162.794 70.8987 163.157 70.216C163.52 69.5333 164.026 69.0107 164.677 68.648C165.338 68.2747 166.096 68.088 166.949 68.088C167.781 68.088 168.517 68.2693 169.157 68.632C169.797 68.9947 170.288 69.496 170.629 70.136C170.981 70.7653 171.157 71.48 171.157 72.28ZM169.653 71.976C169.653 71.4213 169.53 70.9467 169.285 70.552C169.04 70.1467 168.704 69.8427 168.277 69.64C167.861 69.4267 167.397 69.32 166.885 69.32C166.149 69.32 165.52 69.5547 164.997 70.024C164.485 70.4933 164.192 71.144 164.117 71.976H169.653ZM182 69.864C182.299 69.3413 182.736 68.9147 183.312 68.584C183.888 68.2533 184.544 68.088 185.28 68.088C186.07 68.088 186.779 68.2747 187.408 68.648C188.038 69.0213 188.534 69.5493 188.896 70.232C189.259 70.904 189.44 71.688 189.44 72.584C189.44 73.4693 189.259 74.2587 188.896 74.952C188.534 75.6453 188.032 76.184 187.392 76.568C186.763 76.952 186.059 77.144 185.28 77.144C184.523 77.144 183.856 76.9787 183.28 76.648C182.715 76.3173 182.288 75.896 182 75.384V77H180.544V65.16H182V69.864ZM187.952 72.584C187.952 71.9227 187.819 71.3467 187.552 70.856C187.286 70.3653 186.923 69.992 186.464 69.736C186.016 69.48 185.52 69.352 184.976 69.352C184.443 69.352 183.947 69.4853 183.488 69.752C183.04 70.008 182.678 70.3867 182.4 70.888C182.134 71.3787 182 71.9493 182 72.6C182 73.2613 182.134 73.8427 182.4 74.344C182.678 74.8347 183.04 75.2133 183.488 75.48C183.947 75.736 184.443 75.864 184.976 75.864C185.52 75.864 186.016 75.736 186.464 75.48C186.923 75.2133 187.286 74.8347 187.552 74.344C187.819 73.8427 187.952 73.256 187.952 72.584ZM200.509 68.232L195.229 81.128H193.725L195.453 76.904L191.917 68.232H193.533L196.285 75.336L199.005 68.232H200.509ZM213.054 68.088C213.812 68.088 214.473 68.2533 215.038 68.584C215.614 68.9147 216.041 69.3307 216.318 69.832V68.232H217.79V77.192C217.79 77.992 217.62 78.7013 217.278 79.32C216.937 79.9493 216.446 80.44 215.806 80.792C215.177 81.144 214.441 81.32 213.598 81.32C212.446 81.32 211.486 81.048 210.718 80.504C209.95 79.96 209.497 79.2187 209.358 78.28H210.798C210.958 78.8133 211.289 79.24 211.79 79.56C212.292 79.8907 212.894 80.056 213.598 80.056C214.398 80.056 215.049 79.8053 215.55 79.304C216.062 78.8027 216.318 78.0987 216.318 77.192V75.352C216.03 75.864 215.604 76.2907 215.038 76.632C214.473 76.9733 213.812 77.144 213.054 77.144C212.276 77.144 211.566 76.952 210.926 76.568C210.297 76.184 209.801 75.6453 209.438 74.952C209.076 74.2587 208.894 73.4693 208.894 72.584C208.894 71.688 209.076 70.904 209.438 70.232C209.801 69.5493 210.297 69.0213 210.926 68.648C211.566 68.2747 212.276 68.088 213.054 68.088ZM216.318 72.6C216.318 71.9387 216.185 71.3627 215.918 70.872C215.652 70.3813 215.289 70.008 214.83 69.752C214.382 69.4853 213.886 69.352 213.342 69.352C212.798 69.352 212.302 69.48 211.854 69.736C211.406 69.992 211.049 70.3653 210.782 70.856C210.516 71.3467 210.382 71.9227 210.382 72.584C210.382 73.256 210.516 73.8427 210.782 74.344C211.049 74.8347 211.406 75.2133 211.854 75.48C212.302 75.736 212.798 75.864 213.342 75.864C213.886 75.864 214.382 75.736 214.83 75.48C215.289 75.2133 215.652 74.8347 215.918 74.344C216.185 73.8427 216.318 73.2613 216.318 72.6ZM229.851 72.28C229.851 72.5573 229.835 72.8507 229.803 73.16H222.795C222.848 74.024 223.141 74.7013 223.675 75.192C224.219 75.672 224.875 75.912 225.643 75.912C226.272 75.912 226.795 75.768 227.211 75.48C227.637 75.1813 227.936 74.7867 228.107 74.296H229.675C229.44 75.1387 228.971 75.8267 228.267 76.36C227.563 76.8827 226.688 77.144 225.643 77.144C224.811 77.144 224.064 76.9573 223.403 76.584C222.752 76.2107 222.24 75.6827 221.867 75C221.493 74.3067 221.307 73.5067 221.307 72.6C221.307 71.6933 221.488 70.8987 221.851 70.216C222.213 69.5333 222.72 69.0107 223.371 68.648C224.032 68.2747 224.789 68.088 225.643 68.088C226.475 68.088 227.211 68.2693 227.851 68.632C228.491 68.9947 228.981 69.496 229.323 70.136C229.675 70.7653 229.851 71.48 229.851 72.28ZM228.347 71.976C228.347 71.4213 228.224 70.9467 227.979 70.552C227.733 70.1467 227.397 69.8427 226.971 69.64C226.555 69.4267 226.091 69.32 225.579 69.32C224.843 69.32 224.213 69.5547 223.691 70.024C223.179 70.4933 222.885 71.144 222.811 71.976H228.347ZM235.149 69.432V74.6C235.149 75.0267 235.239 75.3307 235.421 75.512C235.602 75.6827 235.917 75.768 236.365 75.768H237.437V77H236.125C235.314 77 234.706 76.8133 234.301 76.44C233.895 76.0667 233.693 75.4533 233.693 74.6V69.432H232.557V68.232H233.693V66.024H235.149V68.232H237.437V69.432H235.149ZM242.577 69.432V74.6C242.577 75.0267 242.667 75.3307 242.849 75.512C243.03 75.6827 243.345 75.768 243.793 75.768H244.865V77H243.553C242.742 77 242.134 76.8133 241.729 76.44C241.323 76.0667 241.121 75.4533 241.121 74.6V69.432H239.985V68.232H241.121V66.024H242.577V68.232H244.865V69.432H242.577ZM248.981 66.808C248.704 66.808 248.469 66.712 248.277 66.52C248.085 66.328 247.989 66.0933 247.989 65.816C247.989 65.5387 248.085 65.304 248.277 65.112C248.469 64.92 248.704 64.824 248.981 64.824C249.248 64.824 249.472 64.92 249.653 65.112C249.845 65.304 249.941 65.5387 249.941 65.816C249.941 66.0933 249.845 66.328 249.653 66.52C249.472 66.712 249.248 66.808 248.981 66.808ZM249.685 68.232V77H248.229V68.232H249.685ZM258.038 68.072C259.105 68.072 259.969 68.3973 260.63 69.048C261.292 69.688 261.622 70.616 261.622 71.832V77H260.182V72.04C260.182 71.1653 259.964 70.4987 259.526 70.04C259.089 69.5707 258.492 69.336 257.734 69.336C256.966 69.336 256.353 69.576 255.894 70.056C255.446 70.536 255.222 71.2347 255.222 72.152V77H253.766V68.232H255.222V69.48C255.51 69.032 255.9 68.6853 256.39 68.44C256.892 68.1947 257.441 68.072 258.038 68.072ZM269.217 68.088C269.974 68.088 270.635 68.2533 271.201 68.584C271.777 68.9147 272.203 69.3307 272.481 69.832V68.232H273.953V77.192C273.953 77.992 273.782 78.7013 273.441 79.32C273.099 79.9493 272.609 80.44 271.969 80.792C271.339 81.144 270.603 81.32 269.761 81.32C268.609 81.32 267.649 81.048 266.881 80.504C266.113 79.96 265.659 79.2187 265.521 78.28H266.961C267.121 78.8133 267.451 79.24 267.953 79.56C268.454 79.8907 269.057 80.056 269.761 80.056C270.561 80.056 271.211 79.8053 271.713 79.304C272.225 78.8027 272.481 78.0987 272.481 77.192V75.352C272.193 75.864 271.766 76.2907 271.201 76.632C270.635 76.9733 269.974 77.144 269.217 77.144C268.438 77.144 267.729 76.952 267.089 76.568C266.459 76.184 265.963 75.6453 265.601 74.952C265.238 74.2587 265.057 73.4693 265.057 72.584C265.057 71.688 265.238 70.904 265.601 70.232C265.963 69.5493 266.459 69.0213 267.089 68.648C267.729 68.2747 268.438 68.088 269.217 68.088ZM272.481 72.6C272.481 71.9387 272.347 71.3627 272.081 70.872C271.814 70.3813 271.451 70.008 270.993 69.752C270.545 69.4853 270.049 69.352 269.505 69.352C268.961 69.352 268.465 69.48 268.017 69.736C267.569 69.992 267.211 70.3653 266.945 70.856C266.678 71.3467 266.545 71.9227 266.545 72.584C266.545 73.256 266.678 73.8427 266.945 74.344C267.211 74.8347 267.569 75.2133 268.017 75.48C268.465 75.736 268.961 75.864 269.505 75.864C270.049 75.864 270.545 75.736 270.993 75.48C271.451 75.2133 271.814 74.8347 272.081 74.344C272.347 73.8427 272.481 73.2613 272.481 72.6ZM285.655 69.432V74.6C285.655 75.0267 285.746 75.3307 285.927 75.512C286.108 75.6827 286.423 75.768 286.871 75.768H287.943V77H286.631C285.82 77 285.212 76.8133 284.807 76.44C284.402 76.0667 284.199 75.4533 284.199 74.6V69.432H283.063V68.232H284.199V66.024H285.655V68.232H287.943V69.432H285.655ZM295.659 68.072C296.32 68.072 296.918 68.216 297.451 68.504C297.984 68.7813 298.4 69.2027 298.699 69.768C299.008 70.3333 299.163 71.0213 299.163 71.832V77H297.723V72.04C297.723 71.1653 297.504 70.4987 297.067 70.04C296.63 69.5707 296.032 69.336 295.275 69.336C294.507 69.336 293.894 69.576 293.435 70.056C292.987 70.536 292.763 71.2347 292.763 72.152V77H291.307V65.16H292.763V69.48C293.051 69.032 293.446 68.6853 293.947 68.44C294.459 68.1947 295.03 68.072 295.659 68.072ZM311.141 72.28C311.141 72.5573 311.125 72.8507 311.093 73.16H304.085C304.139 74.024 304.432 74.7013 304.965 75.192C305.509 75.672 306.165 75.912 306.933 75.912C307.563 75.912 308.085 75.768 308.501 75.48C308.928 75.1813 309.227 74.7867 309.397 74.296H310.965C310.731 75.1387 310.261 75.8267 309.557 76.36C308.853 76.8827 307.979 77.144 306.933 77.144C306.101 77.144 305.355 76.9573 304.693 76.584C304.043 76.2107 303.531 75.6827 303.157 75C302.784 74.3067 302.597 73.5067 302.597 72.6C302.597 71.6933 302.779 70.8987 303.141 70.216C303.504 69.5333 304.011 69.0107 304.661 68.648C305.323 68.2747 306.08 68.088 306.933 68.088C307.765 68.088 308.501 68.2693 309.141 68.632C309.781 68.9947 310.272 69.496 310.613 70.136C310.965 70.7653 311.141 71.48 311.141 72.28ZM309.637 71.976C309.637 71.4213 309.515 70.9467 309.269 70.552C309.024 70.1467 308.688 69.8427 308.261 69.64C307.845 69.4267 307.381 69.32 306.869 69.32C306.133 69.32 305.504 69.5547 304.981 70.024C304.469 70.4933 304.176 71.144 304.101 71.976H309.637ZM322.305 69.432V74.6C322.305 75.0267 322.395 75.3307 322.577 75.512C322.758 75.6827 323.073 75.768 323.521 75.768H324.593V77H323.281C322.47 77 321.862 76.8133 321.457 76.44C321.051 76.0667 320.849 75.4533 320.849 74.6V69.432H319.713V68.232H320.849V66.024H322.305V68.232H324.593V69.432H322.305ZM329.413 69.656C329.669 69.1547 330.032 68.7653 330.501 68.488C330.981 68.2107 331.562 68.072 332.245 68.072V69.576H331.861C330.229 69.576 329.413 70.4613 329.413 72.232V77H327.957V68.232H329.413V69.656ZM343.302 68.232V77H341.846V75.704C341.568 76.152 341.179 76.504 340.678 76.76C340.187 77.0053 339.643 77.128 339.046 77.128C338.363 77.128 337.75 76.9893 337.206 76.712C336.662 76.424 336.23 75.9973 335.91 75.432C335.6 74.8667 335.446 74.1787 335.446 73.368V68.232H336.886V73.176C336.886 74.04 337.104 74.7067 337.542 75.176C337.979 75.6347 338.576 75.864 339.334 75.864C340.112 75.864 340.726 75.624 341.174 75.144C341.622 74.664 341.846 73.9653 341.846 73.048V68.232H343.302ZM346.816 72.6C346.816 71.6933 346.997 70.904 347.36 70.232C347.723 69.5493 348.224 69.0213 348.864 68.648C349.515 68.2747 350.256 68.088 351.088 68.088C352.165 68.088 353.051 68.3493 353.744 68.872C354.448 69.3947 354.912 70.12 355.136 71.048H353.568C353.419 70.5147 353.125 70.0933 352.688 69.784C352.261 69.4747 351.728 69.32 351.088 69.32C350.256 69.32 349.584 69.608 349.072 70.184C348.56 70.7493 348.304 71.5547 348.304 72.6C348.304 73.656 348.56 74.472 349.072 75.048C349.584 75.624 350.256 75.912 351.088 75.912C351.728 75.912 352.261 75.7627 352.688 75.464C353.115 75.1653 353.408 74.7387 353.568 74.184H355.136C354.901 75.08 354.432 75.8 353.728 76.344C353.024 76.8773 352.144 77.144 351.088 77.144C350.256 77.144 349.515 76.9573 348.864 76.584C348.224 76.2107 347.723 75.6827 347.36 75C346.997 74.3173 346.816 73.5173 346.816 72.6ZM363.575 77L360.135 73.128V77H358.679V65.16H360.135V72.12L363.511 68.232H365.543L361.415 72.6L365.559 77H363.575ZM376.155 69.432V74.6C376.155 75.0267 376.246 75.3307 376.427 75.512C376.608 75.6827 376.923 75.768 377.371 75.768H378.443V77H377.131C376.32 77 375.712 76.8133 375.307 76.44C374.902 76.0667 374.699 75.4533 374.699 74.6V69.432H373.563V68.232H374.699V66.024H376.155V68.232H378.443V69.432H376.155ZM385.631 77.144C384.81 77.144 384.063 76.9573 383.391 76.584C382.73 76.2107 382.207 75.6827 381.823 75C381.45 74.3067 381.263 73.5067 381.263 72.6C381.263 71.704 381.455 70.9147 381.839 70.232C382.234 69.5387 382.767 69.0107 383.439 68.648C384.111 68.2747 384.863 68.088 385.695 68.088C386.527 68.088 387.279 68.2747 387.951 68.648C388.623 69.0107 389.151 69.5333 389.535 70.216C389.93 70.8987 390.127 71.6933 390.127 72.6C390.127 73.5067 389.924 74.3067 389.519 75C389.124 75.6827 388.586 76.2107 387.903 76.584C387.22 76.9573 386.463 77.144 385.631 77.144ZM385.631 75.864C386.154 75.864 386.644 75.7413 387.103 75.496C387.562 75.2507 387.93 74.8827 388.207 74.392C388.495 73.9013 388.639 73.304 388.639 72.6C388.639 71.896 388.5 71.2987 388.223 70.808C387.946 70.3173 387.583 69.9547 387.135 69.72C386.687 69.4747 386.202 69.352 385.679 69.352C385.146 69.352 384.655 69.4747 384.207 69.72C383.77 69.9547 383.418 70.3173 383.151 70.808C382.884 71.2987 382.751 71.896 382.751 72.6C382.751 73.3147 382.879 73.9173 383.135 74.408C383.402 74.8987 383.754 75.2667 384.191 75.512C384.628 75.7467 385.108 75.864 385.631 75.864ZM402.611 77.144C401.939 77.144 401.336 77.032 400.803 76.808C400.27 76.5733 399.848 76.2533 399.539 75.848C399.23 75.432 399.059 74.9573 399.027 74.424H400.531C400.574 74.8613 400.776 75.2187 401.139 75.496C401.512 75.7733 401.998 75.912 402.595 75.912C403.15 75.912 403.587 75.7893 403.907 75.544C404.227 75.2987 404.387 74.9893 404.387 74.616C404.387 74.232 404.216 73.9493 403.875 73.768C403.534 73.576 403.006 73.3893 402.291 73.208C401.64 73.0373 401.107 72.8667 400.691 72.696C400.286 72.5147 399.934 72.2533 399.635 71.912C399.347 71.56 399.203 71.1013 399.203 70.536C399.203 70.088 399.336 69.6773 399.603 69.304C399.87 68.9307 400.248 68.6373 400.739 68.424C401.23 68.2 401.79 68.088 402.419 68.088C403.39 68.088 404.174 68.3333 404.771 68.824C405.368 69.3147 405.688 69.9867 405.731 70.84H404.275C404.243 70.3813 404.056 70.0133 403.715 69.736C403.384 69.4587 402.936 69.32 402.371 69.32C401.848 69.32 401.432 69.432 401.123 69.656C400.814 69.88 400.659 70.1733 400.659 70.536C400.659 70.824 400.75 71.064 400.931 71.256C401.123 71.4373 401.358 71.5867 401.635 71.704C401.923 71.8107 402.318 71.9333 402.819 72.072C403.448 72.2427 403.96 72.4133 404.355 72.584C404.75 72.744 405.086 72.9893 405.363 73.32C405.651 73.6507 405.8 74.0827 405.811 74.616C405.811 75.096 405.678 75.528 405.411 75.912C405.144 76.296 404.766 76.6 404.275 76.824C403.795 77.0373 403.24 77.144 402.611 77.144ZM413.818 68.072C414.48 68.072 415.077 68.216 415.61 68.504C416.144 68.7813 416.56 69.2027 416.858 69.768C417.168 70.3333 417.322 71.0213 417.322 71.832V77H415.882V72.04C415.882 71.1653 415.664 70.4987 415.226 70.04C414.789 69.5707 414.192 69.336 413.434 69.336C412.666 69.336 412.053 69.576 411.594 70.056C411.146 70.536 410.922 71.2347 410.922 72.152V77H409.466V65.16H410.922V69.48C411.21 69.032 411.605 68.6853 412.106 68.44C412.618 68.1947 413.189 68.072 413.818 68.072ZM425.125 77.144C424.303 77.144 423.557 76.9573 422.885 76.584C422.223 76.2107 421.701 75.6827 421.317 75C420.943 74.3067 420.757 73.5067 420.757 72.6C420.757 71.704 420.949 70.9147 421.333 70.232C421.727 69.5387 422.261 69.0107 422.933 68.648C423.605 68.2747 424.357 68.088 425.189 68.088C426.021 68.088 426.773 68.2747 427.445 68.648C428.117 69.0107 428.645 69.5333 429.029 70.216C429.423 70.8987 429.621 71.6933 429.621 72.6C429.621 73.5067 429.418 74.3067 429.013 75C428.618 75.6827 428.079 76.2107 427.397 76.584C426.714 76.9573 425.957 77.144 425.125 77.144ZM425.125 75.864C425.647 75.864 426.138 75.7413 426.597 75.496C427.055 75.2507 427.423 74.8827 427.701 74.392C427.989 73.9013 428.133 73.304 428.133 72.6C428.133 71.896 427.994 71.2987 427.717 70.808C427.439 70.3173 427.077 69.9547 426.629 69.72C426.181 69.4747 425.695 69.352 425.173 69.352C424.639 69.352 424.149 69.4747 423.701 69.72C423.263 69.9547 422.911 70.3173 422.645 70.808C422.378 71.2987 422.245 71.896 422.245 72.6C422.245 73.3147 422.373 73.9173 422.629 74.408C422.895 74.8987 423.247 75.2667 423.685 75.512C424.122 75.7467 424.602 75.864 425.125 75.864ZM434.591 69.848C434.879 69.3467 435.306 68.9307 435.871 68.6C436.447 68.2587 437.114 68.088 437.871 68.088C438.65 68.088 439.354 68.2747 439.983 68.648C440.623 69.0213 441.124 69.5493 441.487 70.232C441.85 70.904 442.031 71.688 442.031 72.584C442.031 73.4693 441.85 74.2587 441.487 74.952C441.124 75.6453 440.623 76.184 439.983 76.568C439.354 76.952 438.65 77.144 437.871 77.144C437.124 77.144 436.463 76.9787 435.887 76.648C435.322 76.3067 434.89 75.8853 434.591 75.384V81.16H433.135V68.232H434.591V69.848ZM440.543 72.584C440.543 71.9227 440.41 71.3467 440.143 70.856C439.876 70.3653 439.514 69.992 439.055 69.736C438.607 69.48 438.111 69.352 437.567 69.352C437.034 69.352 436.538 69.4853 436.079 69.752C435.631 70.008 435.268 70.3867 434.991 70.888C434.724 71.3787 434.591 71.9493 434.591 72.6C434.591 73.2613 434.724 73.8427 434.991 74.344C435.268 74.8347 435.631 75.2133 436.079 75.48C436.538 75.736 437.034 75.864 437.567 75.864C438.111 75.864 438.607 75.736 439.055 75.48C439.514 75.2133 439.876 74.8347 440.143 74.344C440.41 73.8427 440.543 73.256 440.543 72.584ZM99.3848 93.656C99.6408 93.1547 100.004 92.7653 100.473 92.488C100.953 92.2107 101.534 92.072 102.217 92.072V93.576H101.833C100.201 93.576 99.3848 94.4613 99.3848 96.232V101H97.9288V92.232H99.3848V93.656ZM106.25 90.808C105.972 90.808 105.738 90.712 105.546 90.52C105.354 90.328 105.258 90.0933 105.258 89.816C105.258 89.5387 105.354 89.304 105.546 89.112C105.738 88.92 105.972 88.824 106.25 88.824C106.516 88.824 106.74 88.92 106.922 89.112C107.114 89.304 107.21 89.5387 107.21 89.816C107.21 90.0933 107.114 90.328 106.922 90.52C106.74 90.712 106.516 90.808 106.25 90.808ZM106.954 92.232V101H105.498V92.232H106.954ZM114.651 92.088C115.408 92.088 116.07 92.2533 116.635 92.584C117.211 92.9147 117.638 93.3307 117.915 93.832V92.232H119.387V101.192C119.387 101.992 119.216 102.701 118.875 103.32C118.534 103.949 118.043 104.44 117.403 104.792C116.774 105.144 116.038 105.32 115.195 105.32C114.043 105.32 113.083 105.048 112.315 104.504C111.547 103.96 111.094 103.219 110.955 102.28H112.395C112.555 102.813 112.886 103.24 113.387 103.56C113.888 103.891 114.491 104.056 115.195 104.056C115.995 104.056 116.646 103.805 117.147 103.304C117.659 102.803 117.915 102.099 117.915 101.192V99.352C117.627 99.864 117.2 100.291 116.635 100.632C116.07 100.973 115.408 101.144 114.651 101.144C113.872 101.144 113.163 100.952 112.523 100.568C111.894 100.184 111.398 99.6453 111.035 98.952C110.672 98.2587 110.491 97.4693 110.491 96.584C110.491 95.688 110.672 94.904 111.035 94.232C111.398 93.5493 111.894 93.0213 112.523 92.648C113.163 92.2747 113.872 92.088 114.651 92.088ZM117.915 96.6C117.915 95.9387 117.782 95.3627 117.515 94.872C117.248 94.3813 116.886 94.008 116.427 93.752C115.979 93.4853 115.483 93.352 114.939 93.352C114.395 93.352 113.899 93.48 113.451 93.736C113.003 93.992 112.646 94.3653 112.379 94.856C112.112 95.3467 111.979 95.9227 111.979 96.584C111.979 97.256 112.112 97.8427 112.379 98.344C112.646 98.8347 113.003 99.2133 113.451 99.48C113.899 99.736 114.395 99.864 114.939 99.864C115.483 99.864 115.979 99.736 116.427 99.48C116.886 99.2133 117.248 98.8347 117.515 98.344C117.782 97.8427 117.915 97.2613 117.915 96.6ZM127.8 92.072C128.461 92.072 129.058 92.216 129.592 92.504C130.125 92.7813 130.541 93.2027 130.84 93.768C131.149 94.3333 131.304 95.0213 131.304 95.832V101H129.864V96.04C129.864 95.1653 129.645 94.4987 129.208 94.04C128.77 93.5707 128.173 93.336 127.416 93.336C126.648 93.336 126.034 93.576 125.576 94.056C125.128 94.536 124.904 95.2347 124.904 96.152V101H123.448V89.16H124.904V93.48C125.192 93.032 125.586 92.6853 126.088 92.44C126.6 92.1947 127.17 92.072 127.8 92.072ZM137.058 93.432V98.6C137.058 99.0267 137.149 99.3307 137.33 99.512C137.511 99.6827 137.826 99.768 138.274 99.768H139.346V101H138.034C137.223 101 136.615 100.813 136.21 100.44C135.805 100.067 135.602 99.4533 135.602 98.6V93.432H134.466V92.232H135.602V90.024H137.058V92.232H139.346V93.432H137.058ZM148.032 96.584C148.032 95.688 148.213 94.904 148.576 94.232C148.938 93.5493 149.434 93.0213 150.064 92.648C150.704 92.2747 151.413 92.088 152.192 92.088C152.96 92.088 153.626 92.2533 154.192 92.584C154.757 92.9147 155.178 93.3307 155.456 93.832V92.232H156.928V101H155.456V99.368C155.168 99.88 154.736 100.307 154.16 100.648C153.594 100.979 152.933 101.144 152.176 101.144C151.397 101.144 150.693 100.952 150.064 100.568C149.434 100.184 148.938 99.6453 148.576 98.952C148.213 98.2587 148.032 97.4693 148.032 96.584ZM155.456 96.6C155.456 95.9387 155.322 95.3627 155.056 94.872C154.789 94.3813 154.426 94.008 153.968 93.752C153.52 93.4853 153.024 93.352 152.48 93.352C151.936 93.352 151.44 93.48 150.992 93.736C150.544 93.992 150.186 94.3653 149.92 94.856C149.653 95.3467 149.52 95.9227 149.52 96.584C149.52 97.256 149.653 97.8427 149.92 98.344C150.186 98.8347 150.544 99.2133 150.992 99.48C151.44 99.736 151.936 99.864 152.48 99.864C153.024 99.864 153.52 99.736 153.968 99.48C154.426 99.2133 154.789 98.8347 155.056 98.344C155.322 97.8427 155.456 97.2613 155.456 96.6ZM172.668 92.232L169.932 101H168.428L166.316 94.04L164.204 101H162.7L159.948 92.232H161.436L163.452 99.592L165.628 92.232H167.116L169.244 99.608L171.228 92.232H172.668ZM175.169 96.584C175.169 95.688 175.351 94.904 175.713 94.232C176.076 93.5493 176.572 93.0213 177.201 92.648C177.841 92.2747 178.551 92.088 179.329 92.088C180.097 92.088 180.764 92.2533 181.329 92.584C181.895 92.9147 182.316 93.3307 182.593 93.832V92.232H184.065V101H182.593V99.368C182.305 99.88 181.873 100.307 181.297 100.648C180.732 100.979 180.071 101.144 179.313 101.144C178.535 101.144 177.831 100.952 177.201 100.568C176.572 100.184 176.076 99.6453 175.713 98.952C175.351 98.2587 175.169 97.4693 175.169 96.584ZM182.593 96.6C182.593 95.9387 182.46 95.3627 182.193 94.872C181.927 94.3813 181.564 94.008 181.105 93.752C180.657 93.4853 180.161 93.352 179.617 93.352C179.073 93.352 178.577 93.48 178.129 93.736C177.681 93.992 177.324 94.3653 177.057 94.856C176.791 95.3467 176.657 95.9227 176.657 96.584C176.657 97.256 176.791 97.8427 177.057 98.344C177.324 98.8347 177.681 99.2133 178.129 99.48C178.577 99.736 179.073 99.864 179.617 99.864C180.161 99.864 180.657 99.736 181.105 99.48C181.564 99.2133 181.927 98.8347 182.193 98.344C182.46 97.8427 182.593 97.2613 182.593 96.6ZM195.678 92.232L190.398 105.128H188.894L190.622 100.904L187.086 92.232H188.702L191.454 99.336L194.174 92.232H195.678ZM200.245 98.984L198.453 103.288H197.477L198.645 98.984H200.245ZM210.835 93.848C211.123 93.3467 211.55 92.9307 212.115 92.6C212.691 92.2587 213.358 92.088 214.115 92.088C214.894 92.088 215.598 92.2747 216.227 92.648C216.867 93.0213 217.368 93.5493 217.731 94.232C218.094 94.904 218.275 95.688 218.275 96.584C218.275 97.4693 218.094 98.2587 217.731 98.952C217.368 99.6453 216.867 100.184 216.227 100.568C215.598 100.952 214.894 101.144 214.115 101.144C213.368 101.144 212.707 100.979 212.131 100.648C211.566 100.307 211.134 99.8853 210.835 99.384V105.16H209.379V92.232H210.835V93.848ZM216.787 96.584C216.787 95.9227 216.654 95.3467 216.387 94.856C216.12 94.3653 215.758 93.992 215.299 93.736C214.851 93.48 214.355 93.352 213.811 93.352C213.278 93.352 212.782 93.4853 212.323 93.752C211.875 94.008 211.512 94.3867 211.235 94.888C210.968 95.3787 210.835 95.9493 210.835 96.6C210.835 97.2613 210.968 97.8427 211.235 98.344C211.512 98.8347 211.875 99.2133 212.323 99.48C212.782 99.736 213.278 99.864 213.811 99.864C214.355 99.864 214.851 99.736 215.299 99.48C215.758 99.2133 216.12 98.8347 216.387 98.344C216.654 97.8427 216.787 97.256 216.787 96.584ZM223.247 93.656C223.503 93.1547 223.866 92.7653 224.335 92.488C224.815 92.2107 225.397 92.072 226.079 92.072V93.576H225.695C224.063 93.576 223.247 94.4613 223.247 96.232V101H221.791V92.232H223.247V93.656ZM233.184 101.144C232.363 101.144 231.616 100.957 230.944 100.584C230.283 100.211 229.76 99.6827 229.376 99C229.003 98.3067 228.816 97.5067 228.816 96.6C228.816 95.704 229.008 94.9147 229.392 94.232C229.787 93.5387 230.32 93.0107 230.992 92.648C231.664 92.2747 232.416 92.088 233.248 92.088C234.08 92.088 234.832 92.2747 235.504 92.648C236.176 93.0107 236.704 93.5333 237.088 94.216C237.483 94.8987 237.68 95.6933 237.68 96.6C237.68 97.5067 237.477 98.3067 237.072 99C236.677 99.6827 236.139 100.211 235.456 100.584C234.773 100.957 234.016 101.144 233.184 101.144ZM233.184 99.864C233.707 99.864 234.197 99.7413 234.656 99.496C235.115 99.2507 235.483 98.8827 235.76 98.392C236.048 97.9013 236.192 97.304 236.192 96.6C236.192 95.896 236.053 95.2987 235.776 94.808C235.499 94.3173 235.136 93.9547 234.688 93.72C234.24 93.4747 233.755 93.352 233.232 93.352C232.699 93.352 232.208 93.4747 231.76 93.72C231.323 93.9547 230.971 94.3173 230.704 94.808C230.437 95.2987 230.304 95.896 230.304 96.6C230.304 97.3147 230.432 97.9173 230.688 98.408C230.955 98.8987 231.307 99.2667 231.744 99.512C232.181 99.7467 232.661 99.864 233.184 99.864ZM244.762 93.432H242.922V101H241.466V93.432H240.33V92.232H241.466V91.608C241.466 90.6267 241.717 89.912 242.218 89.464C242.73 89.0053 243.546 88.776 244.666 88.776V89.992C244.026 89.992 243.573 90.12 243.306 90.376C243.05 90.6213 242.922 91.032 242.922 91.608V92.232H244.762V93.432ZM256.06 96.28C256.06 96.5573 256.044 96.8507 256.012 97.16H249.004C249.057 98.024 249.351 98.7013 249.884 99.192C250.428 99.672 251.084 99.912 251.852 99.912C252.481 99.912 253.004 99.768 253.42 99.48C253.847 99.1813 254.145 98.7867 254.316 98.296H255.884C255.649 99.1387 255.18 99.8267 254.476 100.36C253.772 100.883 252.897 101.144 251.852 101.144C251.02 101.144 250.273 100.957 249.612 100.584C248.961 100.211 248.449 99.6827 248.076 99C247.703 98.3067 247.516 97.5067 247.516 96.6C247.516 95.6933 247.697 94.8987 248.06 94.216C248.423 93.5333 248.929 93.0107 249.58 92.648C250.241 92.2747 250.999 92.088 251.852 92.088C252.684 92.088 253.42 92.2693 254.06 92.632C254.7 92.9947 255.191 93.496 255.532 94.136C255.884 94.7653 256.06 95.48 256.06 96.28ZM254.556 95.976C254.556 95.4213 254.433 94.9467 254.188 94.552C253.943 94.1467 253.607 93.8427 253.18 93.64C252.764 93.4267 252.3 93.32 251.788 93.32C251.052 93.32 250.423 93.5547 249.9 94.024C249.388 94.4933 249.095 95.144 249.02 95.976H254.556ZM262.686 101.144C262.014 101.144 261.411 101.032 260.878 100.808C260.345 100.573 259.923 100.253 259.614 99.848C259.305 99.432 259.134 98.9573 259.102 98.424H260.606C260.649 98.8613 260.851 99.2187 261.214 99.496C261.587 99.7733 262.073 99.912 262.67 99.912C263.225 99.912 263.662 99.7893 263.982 99.544C264.302 99.2987 264.462 98.9893 264.462 98.616C264.462 98.232 264.291 97.9493 263.95 97.768C263.609 97.576 263.081 97.3893 262.366 97.208C261.715 97.0373 261.182 96.8667 260.766 96.696C260.361 96.5147 260.009 96.2533 259.71 95.912C259.422 95.56 259.278 95.1013 259.278 94.536C259.278 94.088 259.411 93.6773 259.678 93.304C259.945 92.9307 260.323 92.6373 260.814 92.424C261.305 92.2 261.865 92.088 262.494 92.088C263.465 92.088 264.249 92.3333 264.846 92.824C265.443 93.3147 265.763 93.9867 265.806 94.84H264.35C264.318 94.3813 264.131 94.0133 263.79 93.736C263.459 93.4587 263.011 93.32 262.446 93.32C261.923 93.32 261.507 93.432 261.198 93.656C260.889 93.88 260.734 94.1733 260.734 94.536C260.734 94.824 260.825 95.064 261.006 95.256C261.198 95.4373 261.433 95.5867 261.71 95.704C261.998 95.8107 262.393 95.9333 262.894 96.072C263.523 96.2427 264.035 96.4133 264.43 96.584C264.825 96.744 265.161 96.9893 265.438 97.32C265.726 97.6507 265.875 98.0827 265.886 98.616C265.886 99.096 265.753 99.528 265.486 99.912C265.219 100.296 264.841 100.6 264.35 100.824C263.87 101.037 263.315 101.144 262.686 101.144ZM272.645 101.144C271.973 101.144 271.371 101.032 270.837 100.808C270.304 100.573 269.883 100.253 269.573 99.848C269.264 99.432 269.093 98.9573 269.061 98.424H270.565C270.608 98.8613 270.811 99.2187 271.173 99.496C271.547 99.7733 272.032 99.912 272.629 99.912C273.184 99.912 273.621 99.7893 273.941 99.544C274.261 99.2987 274.421 98.9893 274.421 98.616C274.421 98.232 274.251 97.9493 273.909 97.768C273.568 97.576 273.04 97.3893 272.325 97.208C271.675 97.0373 271.141 96.8667 270.725 96.696C270.32 96.5147 269.968 96.2533 269.669 95.912C269.381 95.56 269.237 95.1013 269.237 94.536C269.237 94.088 269.371 93.6773 269.637 93.304C269.904 92.9307 270.283 92.6373 270.773 92.424C271.264 92.2 271.824 92.088 272.453 92.088C273.424 92.088 274.208 92.3333 274.805 92.824C275.403 93.3147 275.723 93.9867 275.765 94.84H274.309C274.277 94.3813 274.091 94.0133 273.749 93.736C273.419 93.4587 272.971 93.32 272.405 93.32C271.883 93.32 271.467 93.432 271.157 93.656C270.848 93.88 270.693 94.1733 270.693 94.536C270.693 94.824 270.784 95.064 270.965 95.256C271.157 95.4373 271.392 95.5867 271.669 95.704C271.957 95.8107 272.352 95.9333 272.853 96.072C273.483 96.2427 273.995 96.4133 274.389 96.584C274.784 96.744 275.12 96.9893 275.397 97.32C275.685 97.6507 275.835 98.0827 275.845 98.616C275.845 99.096 275.712 99.528 275.445 99.912C275.179 100.296 274.8 100.6 274.309 100.824C273.829 101.037 273.275 101.144 272.645 101.144ZM280.253 90.808C279.975 90.808 279.741 90.712 279.549 90.52C279.357 90.328 279.261 90.0933 279.261 89.816C279.261 89.5387 279.357 89.304 279.549 89.112C279.741 88.92 279.975 88.824 280.253 88.824C280.519 88.824 280.743 88.92 280.925 89.112C281.117 89.304 281.213 89.5387 281.213 89.816C281.213 90.0933 281.117 90.328 280.925 90.52C280.743 90.712 280.519 90.808 280.253 90.808ZM280.957 92.232V101H279.501V92.232H280.957ZM288.862 101.144C288.041 101.144 287.294 100.957 286.622 100.584C285.961 100.211 285.438 99.6827 285.054 99C284.681 98.3067 284.494 97.5067 284.494 96.6C284.494 95.704 284.686 94.9147 285.07 94.232C285.465 93.5387 285.998 93.0107 286.67 92.648C287.342 92.2747 288.094 92.088 288.926 92.088C289.758 92.088 290.51 92.2747 291.182 92.648C291.854 93.0107 292.382 93.5333 292.766 94.216C293.161 94.8987 293.358 95.6933 293.358 96.6C293.358 97.5067 293.156 98.3067 292.75 99C292.356 99.6827 291.817 100.211 291.134 100.584C290.452 100.957 289.694 101.144 288.862 101.144ZM288.862 99.864C289.385 99.864 289.876 99.7413 290.334 99.496C290.793 99.2507 291.161 98.8827 291.438 98.392C291.726 97.9013 291.87 97.304 291.87 96.6C291.87 95.896 291.732 95.2987 291.454 94.808C291.177 94.3173 290.814 93.9547 290.366 93.72C289.918 93.4747 289.433 93.352 288.91 93.352C288.377 93.352 287.886 93.4747 287.438 93.72C287.001 93.9547 286.649 94.3173 286.382 94.808C286.116 95.2987 285.982 95.896 285.982 96.6C285.982 97.3147 286.11 97.9173 286.366 98.408C286.633 98.8987 286.985 99.2667 287.422 99.512C287.86 99.7467 288.34 99.864 288.862 99.864ZM301.145 92.072C302.211 92.072 303.075 92.3973 303.737 93.048C304.398 93.688 304.729 94.616 304.729 95.832V101H303.289V96.04C303.289 95.1653 303.07 94.4987 302.633 94.04C302.195 93.5707 301.598 93.336 300.841 93.336C300.073 93.336 299.459 93.576 299.001 94.056C298.553 94.536 298.329 95.2347 298.329 96.152V101H296.873V92.232H298.329V93.48C298.617 93.032 299.006 92.6853 299.497 92.44C299.998 92.1947 300.547 92.072 301.145 92.072ZM308.163 96.584C308.163 95.688 308.344 94.904 308.707 94.232C309.07 93.5493 309.566 93.0213 310.195 92.648C310.835 92.2747 311.544 92.088 312.323 92.088C313.091 92.088 313.758 92.2533 314.323 92.584C314.888 92.9147 315.31 93.3307 315.587 93.832V92.232H317.059V101H315.587V99.368C315.299 99.88 314.867 100.307 314.291 100.648C313.726 100.979 313.064 101.144 312.307 101.144C311.528 101.144 310.824 100.952 310.195 100.568C309.566 100.184 309.07 99.6453 308.707 98.952C308.344 98.2587 308.163 97.4693 308.163 96.584ZM315.587 96.6C315.587 95.9387 315.454 95.3627 315.187 94.872C314.92 94.3813 314.558 94.008 314.099 93.752C313.651 93.4853 313.155 93.352 312.611 93.352C312.067 93.352 311.571 93.48 311.123 93.736C310.675 93.992 310.318 94.3653 310.051 94.856C309.784 95.3467 309.651 95.9227 309.651 96.584C309.651 97.256 309.784 97.8427 310.051 98.344C310.318 98.8347 310.675 99.2133 311.123 99.48C311.571 99.736 312.067 99.864 312.611 99.864C313.155 99.864 313.651 99.736 314.099 99.48C314.558 99.2133 314.92 98.8347 315.187 98.344C315.454 97.8427 315.587 97.2613 315.587 96.6ZM322.575 89.16V101H321.119V89.16H322.575ZM334.299 93.432V98.6C334.299 99.0267 334.389 99.3307 334.571 99.512C334.752 99.6827 335.067 99.768 335.515 99.768H336.587V101H335.275C334.464 101 333.856 100.813 333.451 100.44C333.045 100.067 332.843 99.4533 332.843 98.6V93.432H331.707V92.232H332.843V90.024H334.299V92.232H336.587V93.432H334.299ZM347.951 96.28C347.951 96.5573 347.935 96.8507 347.903 97.16H340.895C340.948 98.024 341.241 98.7013 341.775 99.192C342.319 99.672 342.975 99.912 343.743 99.912C344.372 99.912 344.895 99.768 345.311 99.48C345.737 99.1813 346.036 98.7867 346.207 98.296H347.775C347.54 99.1387 347.071 99.8267 346.367 100.36C345.663 100.883 344.788 101.144 343.743 101.144C342.911 101.144 342.164 100.957 341.503 100.584C340.852 100.211 340.34 99.6827 339.967 99C339.593 98.3067 339.407 97.5067 339.407 96.6C339.407 95.6933 339.588 94.8987 339.951 94.216C340.313 93.5333 340.82 93.0107 341.471 92.648C342.132 92.2747 342.889 92.088 343.743 92.088C344.575 92.088 345.311 92.2693 345.951 92.632C346.591 92.9947 347.081 93.496 347.423 94.136C347.775 94.7653 347.951 95.48 347.951 96.28ZM346.447 95.976C346.447 95.4213 346.324 94.9467 346.079 94.552C345.833 94.1467 345.497 93.8427 345.071 93.64C344.655 93.4267 344.191 93.32 343.679 93.32C342.943 93.32 342.313 93.5547 341.791 94.024C341.279 94.4933 340.985 95.144 340.911 95.976H346.447ZM350.929 96.584C350.929 95.688 351.11 94.904 351.473 94.232C351.835 93.5493 352.331 93.0213 352.961 92.648C353.601 92.2747 354.31 92.088 355.089 92.088C355.857 92.088 356.523 92.2533 357.089 92.584C357.654 92.9147 358.075 93.3307 358.353 93.832V92.232H359.825V101H358.353V99.368C358.065 99.88 357.633 100.307 357.057 100.648C356.491 100.979 355.83 101.144 355.073 101.144C354.294 101.144 353.59 100.952 352.961 100.568C352.331 100.184 351.835 99.6453 351.473 98.952C351.11 98.2587 350.929 97.4693 350.929 96.584ZM358.353 96.6C358.353 95.9387 358.219 95.3627 357.953 94.872C357.686 94.3813 357.323 94.008 356.865 93.752C356.417 93.4853 355.921 93.352 355.377 93.352C354.833 93.352 354.337 93.48 353.889 93.736C353.441 93.992 353.083 94.3653 352.817 94.856C352.55 95.3467 352.417 95.9227 352.417 96.584C352.417 97.256 352.55 97.8427 352.817 98.344C353.083 98.8347 353.441 99.2133 353.889 99.48C354.337 99.736 354.833 99.864 355.377 99.864C355.921 99.864 356.417 99.736 356.865 99.48C357.323 99.2133 357.686 98.8347 357.953 98.344C358.219 97.8427 358.353 97.2613 358.353 96.6ZM374.429 92.072C375.112 92.072 375.72 92.216 376.253 92.504C376.786 92.7813 377.208 93.2027 377.517 93.768C377.826 94.3333 377.981 95.0213 377.981 95.832V101H376.541V96.04C376.541 95.1653 376.322 94.4987 375.885 94.04C375.458 93.5707 374.877 93.336 374.141 93.336C373.384 93.336 372.781 93.5813 372.333 94.072C371.885 94.552 371.661 95.2507 371.661 96.168V101H370.221V96.04C370.221 95.1653 370.002 94.4987 369.565 94.04C369.138 93.5707 368.557 93.336 367.821 93.336C367.064 93.336 366.461 93.5813 366.013 94.072C365.565 94.552 365.341 95.2507 365.341 96.168V101H363.885V92.232H365.341V93.496C365.629 93.0373 366.013 92.6853 366.493 92.44C366.984 92.1947 367.522 92.072 368.109 92.072C368.845 92.072 369.496 92.2373 370.061 92.568C370.626 92.8987 371.048 93.384 371.325 94.024C371.57 93.4053 371.976 92.9253 372.541 92.584C373.106 92.2427 373.736 92.072 374.429 92.072ZM391.659 101.144C390.838 101.144 390.091 100.957 389.419 100.584C388.758 100.211 388.235 99.6827 387.851 99C387.478 98.3067 387.291 97.5067 387.291 96.6C387.291 95.704 387.483 94.9147 387.867 94.232C388.262 93.5387 388.795 93.0107 389.467 92.648C390.139 92.2747 390.891 92.088 391.723 92.088C392.555 92.088 393.307 92.2747 393.979 92.648C394.651 93.0107 395.179 93.5333 395.563 94.216C395.958 94.8987 396.155 95.6933 396.155 96.6C396.155 97.5067 395.952 98.3067 395.547 99C395.152 99.6827 394.614 100.211 393.931 100.584C393.248 100.957 392.491 101.144 391.659 101.144ZM391.659 99.864C392.182 99.864 392.672 99.7413 393.131 99.496C393.59 99.2507 393.958 98.8827 394.235 98.392C394.523 97.9013 394.667 97.304 394.667 96.6C394.667 95.896 394.528 95.2987 394.251 94.808C393.974 94.3173 393.611 93.9547 393.163 93.72C392.715 93.4747 392.23 93.352 391.707 93.352C391.174 93.352 390.683 93.4747 390.235 93.72C389.798 93.9547 389.446 94.3173 389.179 94.808C388.912 95.2987 388.779 95.896 388.779 96.6C388.779 97.3147 388.907 97.9173 389.163 98.408C389.43 98.8987 389.782 99.2667 390.219 99.512C390.656 99.7467 391.136 99.864 391.659 99.864ZM403.237 93.432H401.397V101H399.941V93.432H398.805V92.232H399.941V91.608C399.941 90.6267 400.192 89.912 400.693 89.464C401.205 89.0053 402.021 88.776 403.141 88.776V89.992C402.501 89.992 402.048 90.12 401.781 90.376C401.525 90.6213 401.397 91.032 401.397 91.608V92.232H403.237V93.432ZM70.1619 116.072C70.8446 116.072 71.4526 116.216 71.9859 116.504C72.5192 116.781 72.9406 117.203 73.2499 117.768C73.5592 118.333 73.7139 119.021 73.7139 119.832V125H72.2739V120.04C72.2739 119.165 72.0552 118.499 71.6179 118.04C71.1912 117.571 70.6099 117.336 69.8739 117.336C69.1166 117.336 68.5139 117.581 68.0659 118.072C67.6179 118.552 67.3939 119.251 67.3939 120.168V125H65.9539V120.04C65.9539 119.165 65.7352 118.499 65.2979 118.04C64.8712 117.571 64.2899 117.336 63.5539 117.336C62.7966 117.336 62.1939 117.581 61.7459 118.072C61.2979 118.552 61.0739 119.251 61.0739 120.168V125H59.6179V116.232H61.0739V117.496C61.3619 117.037 61.7459 116.685 62.2259 116.44C62.7166 116.195 63.2552 116.072 63.8419 116.072C64.5779 116.072 65.2286 116.237 65.7939 116.568C66.3592 116.899 66.7806 117.384 67.0579 118.024C67.3032 117.405 67.7086 116.925 68.2739 116.584C68.8392 116.243 69.4686 116.072 70.1619 116.072ZM85.7023 120.28C85.7023 120.557 85.6863 120.851 85.6543 121.16H78.6463C78.6996 122.024 78.993 122.701 79.5263 123.192C80.0703 123.672 80.7263 123.912 81.4943 123.912C82.1236 123.912 82.6463 123.768 83.0623 123.48C83.489 123.181 83.7876 122.787 83.9583 122.296H85.5263C85.2916 123.139 84.8223 123.827 84.1183 124.36C83.4143 124.883 82.5396 125.144 81.4943 125.144C80.6623 125.144 79.9156 124.957 79.2543 124.584C78.6036 124.211 78.0916 123.683 77.7183 123C77.345 122.307 77.1583 121.507 77.1583 120.6C77.1583 119.693 77.3396 118.899 77.7023 118.216C78.065 117.533 78.5716 117.011 79.2223 116.648C79.8836 116.275 80.641 116.088 81.4943 116.088C82.3263 116.088 83.0623 116.269 83.7023 116.632C84.3423 116.995 84.833 117.496 85.1743 118.136C85.5263 118.765 85.7023 119.48 85.7023 120.28ZM84.1983 119.976C84.1983 119.421 84.0756 118.947 83.8303 118.552C83.585 118.147 83.249 117.843 82.8223 117.64C82.4063 117.427 81.9423 117.32 81.4303 117.32C80.6943 117.32 80.065 117.555 79.5423 118.024C79.0303 118.493 78.737 119.144 78.6623 119.976H84.1983ZM88.6802 120.6C88.6802 119.693 88.8615 118.904 89.2242 118.232C89.5868 117.549 90.0882 117.021 90.7282 116.648C91.3788 116.275 92.1202 116.088 92.9522 116.088C94.0295 116.088 94.9148 116.349 95.6082 116.872C96.3122 117.395 96.7762 118.12 97.0002 119.048H95.4322C95.2828 118.515 94.9895 118.093 94.5522 117.784C94.1255 117.475 93.5922 117.32 92.9522 117.32C92.1202 117.32 91.4482 117.608 90.9362 118.184C90.4242 118.749 90.1682 119.555 90.1682 120.6C90.1682 121.656 90.4242 122.472 90.9362 123.048C91.4482 123.624 92.1202 123.912 92.9522 123.912C93.5922 123.912 94.1255 123.763 94.5522 123.464C94.9788 123.165 95.2722 122.739 95.4322 122.184H97.0002C96.7655 123.08 96.2962 123.8 95.5922 124.344C94.8882 124.877 94.0082 125.144 92.9522 125.144C92.1202 125.144 91.3788 124.957 90.7282 124.584C90.0882 124.211 89.5868 123.683 89.2242 123C88.8615 122.317 88.6802 121.517 88.6802 120.6ZM104.895 116.072C105.556 116.072 106.154 116.216 106.687 116.504C107.22 116.781 107.636 117.203 107.935 117.768C108.244 118.333 108.399 119.021 108.399 119.832V125H106.959V120.04C106.959 119.165 106.74 118.499 106.303 118.04C105.866 117.571 105.268 117.336 104.511 117.336C103.743 117.336 103.13 117.576 102.671 118.056C102.223 118.536 101.999 119.235 101.999 120.152V125H100.543V113.16H101.999V117.48C102.287 117.032 102.682 116.685 103.183 116.44C103.695 116.195 104.266 116.072 104.895 116.072ZM111.833 120.584C111.833 119.688 112.015 118.904 112.377 118.232C112.74 117.549 113.236 117.021 113.865 116.648C114.505 116.275 115.215 116.088 115.993 116.088C116.761 116.088 117.428 116.253 117.993 116.584C118.559 116.915 118.98 117.331 119.257 117.832V116.232H120.729V125H119.257V123.368C118.969 123.88 118.537 124.307 117.961 124.648C117.396 124.979 116.735 125.144 115.977 125.144C115.199 125.144 114.495 124.952 113.865 124.568C113.236 124.184 112.74 123.645 112.377 122.952C112.015 122.259 111.833 121.469 111.833 120.584ZM119.257 120.6C119.257 119.939 119.124 119.363 118.857 118.872C118.591 118.381 118.228 118.008 117.769 117.752C117.321 117.485 116.825 117.352 116.281 117.352C115.737 117.352 115.241 117.48 114.793 117.736C114.345 117.992 113.988 118.365 113.721 118.856C113.455 119.347 113.321 119.923 113.321 120.584C113.321 121.256 113.455 121.843 113.721 122.344C113.988 122.835 114.345 123.213 114.793 123.48C115.241 123.736 115.737 123.864 116.281 123.864C116.825 123.864 117.321 123.736 117.769 123.48C118.228 123.213 118.591 122.835 118.857 122.344C119.124 121.843 119.257 121.261 119.257 120.6ZM129.062 116.072C130.128 116.072 130.992 116.397 131.654 117.048C132.315 117.688 132.646 118.616 132.646 119.832V125H131.206V120.04C131.206 119.165 130.987 118.499 130.55 118.04C130.112 117.571 129.515 117.336 128.758 117.336C127.99 117.336 127.376 117.576 126.918 118.056C126.47 118.536 126.246 119.235 126.246 120.152V125H124.79V116.232H126.246V117.48C126.534 117.032 126.923 116.685 127.414 116.44C127.915 116.195 128.464 116.072 129.062 116.072ZM137.376 114.808C137.099 114.808 136.864 114.712 136.672 114.52C136.48 114.328 136.384 114.093 136.384 113.816C136.384 113.539 136.48 113.304 136.672 113.112C136.864 112.92 137.099 112.824 137.376 112.824C137.643 112.824 137.867 112.92 138.048 113.112C138.24 113.304 138.336 113.539 138.336 113.816C138.336 114.093 138.24 114.328 138.048 114.52C137.867 114.712 137.643 114.808 137.376 114.808ZM138.08 116.232V125H136.624V116.232H138.08ZM141.618 120.6C141.618 119.693 141.799 118.904 142.162 118.232C142.524 117.549 143.026 117.021 143.666 116.648C144.316 116.275 145.058 116.088 145.89 116.088C146.967 116.088 147.852 116.349 148.546 116.872C149.25 117.395 149.714 118.12 149.938 119.048H148.37C148.22 118.515 147.927 118.093 147.49 117.784C147.063 117.475 146.53 117.32 145.89 117.32C145.058 117.32 144.386 117.608 143.874 118.184C143.362 118.749 143.106 119.555 143.106 120.6C143.106 121.656 143.362 122.472 143.874 123.048C144.386 123.624 145.058 123.912 145.89 123.912C146.53 123.912 147.063 123.763 147.49 123.464C147.916 123.165 148.21 122.739 148.37 122.184H149.938C149.703 123.08 149.234 123.8 148.53 124.344C147.826 124.877 146.946 125.144 145.89 125.144C145.058 125.144 144.316 124.957 143.666 124.584C143.026 124.211 142.524 123.683 142.162 123C141.799 122.317 141.618 121.517 141.618 120.6ZM156.584 125.144C155.912 125.144 155.31 125.032 154.776 124.808C154.243 124.573 153.822 124.253 153.512 123.848C153.203 123.432 153.032 122.957 153 122.424H154.504C154.547 122.861 154.75 123.219 155.112 123.496C155.486 123.773 155.971 123.912 156.568 123.912C157.123 123.912 157.56 123.789 157.88 123.544C158.2 123.299 158.36 122.989 158.36 122.616C158.36 122.232 158.19 121.949 157.848 121.768C157.507 121.576 156.979 121.389 156.264 121.208C155.614 121.037 155.08 120.867 154.664 120.696C154.259 120.515 153.907 120.253 153.608 119.912C153.32 119.56 153.176 119.101 153.176 118.536C153.176 118.088 153.31 117.677 153.576 117.304C153.843 116.931 154.222 116.637 154.712 116.424C155.203 116.2 155.763 116.088 156.392 116.088C157.363 116.088 158.147 116.333 158.744 116.824C159.342 117.315 159.662 117.987 159.704 118.84H158.248C158.216 118.381 158.03 118.013 157.688 117.736C157.358 117.459 156.91 117.32 156.344 117.32C155.822 117.32 155.406 117.432 155.096 117.656C154.787 117.88 154.632 118.173 154.632 118.536C154.632 118.824 154.723 119.064 154.904 119.256C155.096 119.437 155.331 119.587 155.608 119.704C155.896 119.811 156.291 119.933 156.792 120.072C157.422 120.243 157.934 120.413 158.328 120.584C158.723 120.744 159.059 120.989 159.336 121.32C159.624 121.651 159.774 122.083 159.784 122.616C159.784 123.096 159.651 123.528 159.384 123.912C159.118 124.296 158.739 124.6 158.248 124.824C157.768 125.037 157.214 125.144 156.584 125.144ZM163.904 125.096C163.626 125.096 163.392 125 163.2 124.808C163.008 124.616 162.912 124.381 162.912 124.104C162.912 123.827 163.008 123.592 163.2 123.4C163.392 123.208 163.626 123.112 163.904 123.112C164.17 123.112 164.394 123.208 164.576 123.4C164.768 123.592 164.864 123.827 164.864 124.104C164.864 124.381 164.768 124.616 164.576 124.808C164.394 125 164.17 125.096 163.904 125.096ZM182.713 117.08C182.403 116.429 181.955 115.928 181.369 115.576C180.782 115.213 180.099 115.032 179.321 115.032C178.542 115.032 177.838 115.213 177.209 115.576C176.59 115.928 176.099 116.44 175.737 117.112C175.385 117.773 175.209 118.541 175.209 119.416C175.209 120.291 175.385 121.059 175.737 121.72C176.099 122.381 176.59 122.893 177.209 123.256C177.838 123.608 178.542 123.784 179.321 123.784C180.409 123.784 181.305 123.459 182.009 122.808C182.713 122.157 183.123 121.277 183.241 120.168H178.793V118.984H184.793V120.104C184.707 121.021 184.419 121.864 183.929 122.632C183.438 123.389 182.793 123.992 181.993 124.44C181.193 124.877 180.302 125.096 179.321 125.096C178.286 125.096 177.342 124.856 176.489 124.376C175.635 123.885 174.958 123.208 174.457 122.344C173.966 121.48 173.721 120.504 173.721 119.416C173.721 118.328 173.966 117.352 174.457 116.488C174.958 115.613 175.635 114.936 176.489 114.456C177.342 113.965 178.286 113.72 179.321 113.72C180.505 113.72 181.55 114.013 182.457 114.6C183.374 115.187 184.041 116.013 184.457 117.08H182.713ZM192.142 125.144C191.321 125.144 190.574 124.957 189.902 124.584C189.241 124.211 188.718 123.683 188.334 123C187.961 122.307 187.774 121.507 187.774 120.6C187.774 119.704 187.966 118.915 188.35 118.232C188.745 117.539 189.278 117.011 189.95 116.648C190.622 116.275 191.374 116.088 192.206 116.088C193.038 116.088 193.79 116.275 194.462 116.648C195.134 117.011 195.662 117.533 196.046 118.216C196.441 118.899 196.638 119.693 196.638 120.6C196.638 121.507 196.435 122.307 196.03 123C195.635 123.683 195.097 124.211 194.414 124.584C193.731 124.957 192.974 125.144 192.142 125.144ZM192.142 123.864C192.665 123.864 193.155 123.741 193.614 123.496C194.073 123.251 194.441 122.883 194.718 122.392C195.006 121.901 195.15 121.304 195.15 120.6C195.15 119.896 195.011 119.299 194.734 118.808C194.457 118.317 194.094 117.955 193.646 117.72C193.198 117.475 192.713 117.352 192.19 117.352C191.657 117.352 191.166 117.475 190.718 117.72C190.281 117.955 189.929 118.317 189.662 118.808C189.395 119.299 189.262 119.896 189.262 120.6C189.262 121.315 189.39 121.917 189.646 122.408C189.913 122.899 190.265 123.267 190.702 123.512C191.139 123.747 191.619 123.864 192.142 123.864ZM203.976 125.144C203.155 125.144 202.408 124.957 201.736 124.584C201.075 124.211 200.552 123.683 200.168 123C199.795 122.307 199.608 121.507 199.608 120.6C199.608 119.704 199.8 118.915 200.184 118.232C200.579 117.539 201.112 117.011 201.784 116.648C202.456 116.275 203.208 116.088 204.04 116.088C204.872 116.088 205.624 116.275 206.296 116.648C206.968 117.011 207.496 117.533 207.88 118.216C208.275 118.899 208.472 119.693 208.472 120.6C208.472 121.507 208.27 122.307 207.864 123C207.47 123.683 206.931 124.211 206.248 124.584C205.566 124.957 204.808 125.144 203.976 125.144ZM203.976 123.864C204.499 123.864 204.99 123.741 205.448 123.496C205.907 123.251 206.275 122.883 206.552 122.392C206.84 121.901 206.984 121.304 206.984 120.6C206.984 119.896 206.846 119.299 206.568 118.808C206.291 118.317 205.928 117.955 205.48 117.72C205.032 117.475 204.547 117.352 204.024 117.352C203.491 117.352 203 117.475 202.552 117.72C202.115 117.955 201.763 118.317 201.496 118.808C201.23 119.299 201.096 119.896 201.096 120.6C201.096 121.315 201.224 121.917 201.48 122.408C201.747 122.899 202.099 123.267 202.536 123.512C202.974 123.747 203.454 123.864 203.976 123.864ZM211.443 120.584C211.443 119.688 211.624 118.904 211.987 118.232C212.349 117.549 212.845 117.021 213.475 116.648C214.115 116.275 214.829 116.088 215.619 116.088C216.301 116.088 216.936 116.248 217.523 116.568C218.109 116.877 218.557 117.288 218.867 117.8V113.16H220.339V125H218.867V123.352C218.579 123.875 218.152 124.307 217.587 124.648C217.021 124.979 216.36 125.144 215.603 125.144C214.824 125.144 214.115 124.952 213.475 124.568C212.845 124.184 212.349 123.645 211.987 122.952C211.624 122.259 211.443 121.469 211.443 120.584ZM218.867 120.6C218.867 119.939 218.733 119.363 218.467 118.872C218.2 118.381 217.837 118.008 217.379 117.752C216.931 117.485 216.435 117.352 215.891 117.352C215.347 117.352 214.851 117.48 214.403 117.736C213.955 117.992 213.597 118.365 213.331 118.856C213.064 119.347 212.931 119.923 212.931 120.584C212.931 121.256 213.064 121.843 213.331 122.344C213.597 122.835 213.955 123.213 214.403 123.48C214.851 123.736 215.347 123.864 215.891 123.864C216.435 123.864 216.931 123.736 217.379 123.48C217.837 123.213 218.2 122.835 218.467 122.344C218.733 121.843 218.867 121.261 218.867 120.6ZM238.265 120.28C238.265 120.557 238.249 120.851 238.217 121.16H231.209C231.262 122.024 231.555 122.701 232.089 123.192C232.633 123.672 233.289 123.912 234.057 123.912C234.686 123.912 235.209 123.768 235.625 123.48C236.051 123.181 236.35 122.787 236.521 122.296H238.089C237.854 123.139 237.385 123.827 236.681 124.36C235.977 124.883 235.102 125.144 234.057 125.144C233.225 125.144 232.478 124.957 231.817 124.584C231.166 124.211 230.654 123.683 230.281 123C229.907 122.307 229.721 121.507 229.721 120.6C229.721 119.693 229.902 118.899 230.265 118.216C230.627 117.533 231.134 117.011 231.785 116.648C232.446 116.275 233.203 116.088 234.057 116.088C234.889 116.088 235.625 116.269 236.265 116.632C236.905 116.995 237.395 117.496 237.737 118.136C238.089 118.765 238.265 119.48 238.265 120.28ZM236.761 119.976C236.761 119.421 236.638 118.947 236.393 118.552C236.147 118.147 235.811 117.843 235.385 117.64C234.969 117.427 234.505 117.32 233.993 117.32C233.257 117.32 232.627 117.555 232.105 118.024C231.593 118.493 231.299 119.144 231.225 119.976H236.761ZM246.363 125L244.283 121.736L242.283 125H240.763L243.595 120.648L240.763 116.232H242.411L244.491 119.48L246.475 116.232H247.995L245.179 120.568L248.011 125H246.363ZM252.499 117.848C252.787 117.347 253.214 116.931 253.779 116.6C254.355 116.259 255.022 116.088 255.779 116.088C256.558 116.088 257.262 116.275 257.891 116.648C258.531 117.021 259.032 117.549 259.395 118.232C259.758 118.904 259.939 119.688 259.939 120.584C259.939 121.469 259.758 122.259 259.395 122.952C259.032 123.645 258.531 124.184 257.891 124.568C257.262 124.952 256.558 125.144 255.779 125.144C255.032 125.144 254.371 124.979 253.795 124.648C253.23 124.307 252.798 123.885 252.499 123.384V129.16H251.043V116.232H252.499V117.848ZM258.451 120.584C258.451 119.923 258.318 119.347 258.051 118.856C257.784 118.365 257.422 117.992 256.963 117.736C256.515 117.48 256.019 117.352 255.475 117.352C254.942 117.352 254.446 117.485 253.987 117.752C253.539 118.008 253.176 118.387 252.899 118.888C252.632 119.379 252.499 119.949 252.499 120.6C252.499 121.261 252.632 121.843 252.899 122.344C253.176 122.835 253.539 123.213 253.987 123.48C254.446 123.736 254.942 123.864 255.475 123.864C256.019 123.864 256.515 123.736 256.963 123.48C257.422 123.213 257.784 122.835 258.051 122.344C258.318 121.843 258.451 121.256 258.451 120.584ZM271.455 120.28C271.455 120.557 271.439 120.851 271.407 121.16H264.399C264.453 122.024 264.746 122.701 265.279 123.192C265.823 123.672 266.479 123.912 267.247 123.912C267.877 123.912 268.399 123.768 268.815 123.48C269.242 123.181 269.541 122.787 269.711 122.296H271.279C271.045 123.139 270.575 123.827 269.871 124.36C269.167 124.883 268.293 125.144 267.247 125.144C266.415 125.144 265.669 124.957 265.007 124.584C264.357 124.211 263.845 123.683 263.471 123C263.098 122.307 262.911 121.507 262.911 120.6C262.911 119.693 263.093 118.899 263.455 118.216C263.818 117.533 264.325 117.011 264.975 116.648C265.637 116.275 266.394 116.088 267.247 116.088C268.079 116.088 268.815 116.269 269.455 116.632C270.095 116.995 270.586 117.496 270.927 118.136C271.279 118.765 271.455 119.48 271.455 120.28ZM269.951 119.976C269.951 119.421 269.829 118.947 269.583 118.552C269.338 118.147 269.002 117.843 268.575 117.64C268.159 117.427 267.695 117.32 267.183 117.32C266.447 117.32 265.818 117.555 265.295 118.024C264.783 118.493 264.49 119.144 264.415 119.976H269.951ZM276.433 117.656C276.689 117.155 277.052 116.765 277.521 116.488C278.001 116.211 278.583 116.072 279.265 116.072V117.576H278.881C277.249 117.576 276.433 118.461 276.433 120.232V125H274.977V116.232H276.433V117.656ZM283.298 114.808C283.021 114.808 282.786 114.712 282.594 114.52C282.402 114.328 282.306 114.093 282.306 113.816C282.306 113.539 282.402 113.304 282.594 113.112C282.786 112.92 283.021 112.824 283.298 112.824C283.565 112.824 283.789 112.92 283.97 113.112C284.162 113.304 284.258 113.539 284.258 113.816C284.258 114.093 284.162 114.328 283.97 114.52C283.789 114.712 283.565 114.808 283.298 114.808ZM284.002 116.232V125H282.546V116.232H284.002ZM296.084 120.28C296.084 120.557 296.068 120.851 296.036 121.16H289.028C289.081 122.024 289.374 122.701 289.908 123.192C290.452 123.672 291.108 123.912 291.876 123.912C292.505 123.912 293.028 123.768 293.444 123.48C293.87 123.181 294.169 122.787 294.34 122.296H295.908C295.673 123.139 295.204 123.827 294.5 124.36C293.796 124.883 292.921 125.144 291.876 125.144C291.044 125.144 290.297 124.957 289.636 124.584C288.985 124.211 288.473 123.683 288.1 123C287.726 122.307 287.54 121.507 287.54 120.6C287.54 119.693 287.721 118.899 288.084 118.216C288.446 117.533 288.953 117.011 289.604 116.648C290.265 116.275 291.022 116.088 291.876 116.088C292.708 116.088 293.444 116.269 294.084 116.632C294.724 116.995 295.214 117.496 295.556 118.136C295.908 118.765 296.084 119.48 296.084 120.28ZM294.58 119.976C294.58 119.421 294.457 118.947 294.212 118.552C293.966 118.147 293.63 117.843 293.204 117.64C292.788 117.427 292.324 117.32 291.812 117.32C291.076 117.32 290.446 117.555 289.924 118.024C289.412 118.493 289.118 119.144 289.044 119.976H294.58ZM303.877 116.072C304.944 116.072 305.808 116.397 306.469 117.048C307.131 117.688 307.461 118.616 307.461 119.832V125H306.021V120.04C306.021 119.165 305.803 118.499 305.365 118.04C304.928 117.571 304.331 117.336 303.573 117.336C302.805 117.336 302.192 117.576 301.733 118.056C301.285 118.536 301.061 119.235 301.061 120.152V125H299.605V116.232H301.061V117.48C301.349 117.032 301.739 116.685 302.229 116.44C302.731 116.195 303.28 116.072 303.877 116.072ZM310.896 120.6C310.896 119.693 311.077 118.904 311.44 118.232C311.802 117.549 312.304 117.021 312.944 116.648C313.594 116.275 314.336 116.088 315.168 116.088C316.245 116.088 317.13 116.349 317.824 116.872C318.528 117.395 318.992 118.12 319.216 119.048H317.648C317.498 118.515 317.205 118.093 316.768 117.784C316.341 117.475 315.808 117.32 315.168 117.32C314.336 117.32 313.664 117.608 313.152 118.184C312.64 118.749 312.384 119.555 312.384 120.6C312.384 121.656 312.64 122.472 313.152 123.048C313.664 123.624 314.336 123.912 315.168 123.912C315.808 123.912 316.341 123.763 316.768 123.464C317.194 123.165 317.488 122.739 317.648 122.184H319.216C318.981 123.08 318.512 123.8 317.808 124.344C317.104 124.877 316.224 125.144 315.168 125.144C314.336 125.144 313.594 124.957 312.944 124.584C312.304 124.211 311.802 123.683 311.44 123C311.077 122.317 310.896 121.517 310.896 120.6ZM330.759 120.28C330.759 120.557 330.743 120.851 330.711 121.16H323.703C323.756 122.024 324.049 122.701 324.583 123.192C325.127 123.672 325.783 123.912 326.551 123.912C327.18 123.912 327.703 123.768 328.119 123.48C328.545 123.181 328.844 122.787 329.015 122.296H330.583C330.348 123.139 329.879 123.827 329.175 124.36C328.471 124.883 327.596 125.144 326.551 125.144C325.719 125.144 324.972 124.957 324.311 124.584C323.66 124.211 323.148 123.683 322.775 123C322.401 122.307 322.215 121.507 322.215 120.6C322.215 119.693 322.396 118.899 322.759 118.216C323.121 117.533 323.628 117.011 324.279 116.648C324.94 116.275 325.697 116.088 326.551 116.088C327.383 116.088 328.119 116.269 328.759 116.632C329.399 116.995 329.889 117.496 330.231 118.136C330.583 118.765 330.759 119.48 330.759 120.28ZM329.255 119.976C329.255 119.421 329.132 118.947 328.887 118.552C328.641 118.147 328.305 117.843 327.879 117.64C327.463 117.427 326.999 117.32 326.487 117.32C325.751 117.32 325.121 117.555 324.599 118.024C324.087 118.493 323.793 119.144 323.719 119.976H329.255ZM335.784 122.984L333.992 127.288H333.016L334.184 122.984H335.784ZM348.486 117.432H346.646V125H345.19V117.432H344.054V116.232H345.19V115.608C345.19 114.627 345.441 113.912 345.942 113.464C346.454 113.005 347.27 112.776 348.39 112.776V113.992C347.75 113.992 347.297 114.12 347.03 114.376C346.774 114.621 346.646 115.032 346.646 115.608V116.232H348.486V117.432ZM351.24 120.584C351.24 119.688 351.421 118.904 351.784 118.232C352.146 117.549 352.642 117.021 353.272 116.648C353.912 116.275 354.621 116.088 355.4 116.088C356.168 116.088 356.834 116.253 357.4 116.584C357.965 116.915 358.386 117.331 358.664 117.832V116.232H360.136V125H358.664V123.368C358.376 123.88 357.944 124.307 357.368 124.648C356.802 124.979 356.141 125.144 355.384 125.144C354.605 125.144 353.901 124.952 353.272 124.568C352.642 124.184 352.146 123.645 351.784 122.952C351.421 122.259 351.24 121.469 351.24 120.584ZM358.664 120.6C358.664 119.939 358.53 119.363 358.264 118.872C357.997 118.381 357.634 118.008 357.176 117.752C356.728 117.485 356.232 117.352 355.688 117.352C355.144 117.352 354.648 117.48 354.2 117.736C353.752 117.992 353.394 118.365 353.128 118.856C352.861 119.347 352.728 119.923 352.728 120.584C352.728 121.256 352.861 121.843 353.128 122.344C353.394 122.835 353.752 123.213 354.2 123.48C354.648 123.736 355.144 123.864 355.688 123.864C356.232 123.864 356.728 123.736 357.176 123.48C357.634 123.213 357.997 122.835 358.264 122.344C358.53 121.843 358.664 121.261 358.664 120.6ZM364.948 114.808C364.671 114.808 364.436 114.712 364.244 114.52C364.052 114.328 363.956 114.093 363.956 113.816C363.956 113.539 364.052 113.304 364.244 113.112C364.436 112.92 364.671 112.824 364.948 112.824C365.215 112.824 365.439 112.92 365.62 113.112C365.812 113.304 365.908 113.539 365.908 113.816C365.908 114.093 365.812 114.328 365.62 114.52C365.439 114.712 365.215 114.808 364.948 114.808ZM365.652 116.232V125H364.196V116.232H365.652ZM371.19 117.656C371.446 117.155 371.808 116.765 372.278 116.488C372.758 116.211 373.339 116.072 374.022 116.072V117.576H373.638C372.006 117.576 371.19 118.461 371.19 120.232V125H369.734V116.232H371.19V117.656ZM384.624 117.848C384.912 117.347 385.339 116.931 385.904 116.6C386.48 116.259 387.147 116.088 387.904 116.088C388.683 116.088 389.387 116.275 390.016 116.648C390.656 117.021 391.157 117.549 391.52 118.232C391.883 118.904 392.064 119.688 392.064 120.584C392.064 121.469 391.883 122.259 391.52 122.952C391.157 123.645 390.656 124.184 390.016 124.568C389.387 124.952 388.683 125.144 387.904 125.144C387.157 125.144 386.496 124.979 385.92 124.648C385.355 124.307 384.923 123.885 384.624 123.384V129.16H383.168V116.232H384.624V117.848ZM390.576 120.584C390.576 119.923 390.443 119.347 390.176 118.856C389.909 118.365 389.547 117.992 389.088 117.736C388.64 117.48 388.144 117.352 387.6 117.352C387.067 117.352 386.571 117.485 386.112 117.752C385.664 118.008 385.301 118.387 385.024 118.888C384.757 119.379 384.624 119.949 384.624 120.6C384.624 121.261 384.757 121.843 385.024 122.344C385.301 122.835 385.664 123.213 386.112 123.48C386.571 123.736 387.067 123.864 387.6 123.864C388.144 123.864 388.64 123.736 389.088 123.48C389.547 123.213 389.909 122.835 390.176 122.344C390.443 121.843 390.576 121.256 390.576 120.584ZM397.036 117.656C397.292 117.155 397.655 116.765 398.124 116.488C398.604 116.211 399.186 116.072 399.868 116.072V117.576H399.484C397.852 117.576 397.036 118.461 397.036 120.232V125H395.58V116.232H397.036V117.656ZM403.901 114.808C403.624 114.808 403.389 114.712 403.197 114.52C403.005 114.328 402.909 114.093 402.909 113.816C402.909 113.539 403.005 113.304 403.197 113.112C403.389 112.92 403.624 112.824 403.901 112.824C404.168 112.824 404.392 112.92 404.573 113.112C404.765 113.304 404.861 113.539 404.861 113.816C404.861 114.093 404.765 114.328 404.573 114.52C404.392 114.712 404.168 114.808 403.901 114.808ZM404.605 116.232V125H403.149V116.232H404.605ZM408.143 120.6C408.143 119.693 408.324 118.904 408.687 118.232C409.049 117.549 409.551 117.021 410.191 116.648C410.841 116.275 411.583 116.088 412.415 116.088C413.492 116.088 414.377 116.349 415.071 116.872C415.775 117.395 416.239 118.12 416.463 119.048H414.895C414.745 118.515 414.452 118.093 414.015 117.784C413.588 117.475 413.055 117.32 412.415 117.32C411.583 117.32 410.911 117.608 410.399 118.184C409.887 118.749 409.631 119.555 409.631 120.6C409.631 121.656 409.887 122.472 410.399 123.048C410.911 123.624 411.583 123.912 412.415 123.912C413.055 123.912 413.588 123.763 414.015 123.464C414.441 123.165 414.735 122.739 414.895 122.184H416.463C416.228 123.08 415.759 123.8 415.055 124.344C414.351 124.877 413.471 125.144 412.415 125.144C411.583 125.144 410.841 124.957 410.191 124.584C409.551 124.211 409.049 123.683 408.687 123C408.324 122.317 408.143 121.517 408.143 120.6ZM428.005 120.28C428.005 120.557 427.989 120.851 427.957 121.16H420.949C421.003 122.024 421.296 122.701 421.829 123.192C422.373 123.672 423.029 123.912 423.797 123.912C424.427 123.912 424.949 123.768 425.365 123.48C425.792 123.181 426.091 122.787 426.261 122.296H427.829C427.595 123.139 427.125 123.827 426.421 124.36C425.717 124.883 424.843 125.144 423.797 125.144C422.965 125.144 422.219 124.957 421.557 124.584C420.907 124.211 420.395 123.683 420.021 123C419.648 122.307 419.461 121.507 419.461 120.6C419.461 119.693 419.643 118.899 420.005 118.216C420.368 117.533 420.875 117.011 421.525 116.648C422.187 116.275 422.944 116.088 423.797 116.088C424.629 116.088 425.365 116.269 426.005 116.632C426.645 116.995 427.136 117.496 427.477 118.136C427.829 118.765 428.005 119.48 428.005 120.28ZM426.501 119.976C426.501 119.421 426.379 118.947 426.133 118.552C425.888 118.147 425.552 117.843 425.125 117.64C424.709 117.427 424.245 117.32 423.733 117.32C422.997 117.32 422.368 117.555 421.845 118.024C421.333 118.493 421.04 119.144 420.965 119.976H426.501ZM434.631 125.144C433.959 125.144 433.357 125.032 432.823 124.808C432.29 124.573 431.869 124.253 431.559 123.848C431.25 123.432 431.079 122.957 431.047 122.424H432.551C432.594 122.861 432.797 123.219 433.159 123.496C433.533 123.773 434.018 123.912 434.615 123.912C435.17 123.912 435.607 123.789 435.927 123.544C436.247 123.299 436.407 122.989 436.407 122.616C436.407 122.232 436.237 121.949 435.895 121.768C435.554 121.576 435.026 121.389 434.311 121.208C433.661 121.037 433.127 120.867 432.711 120.696C432.306 120.515 431.954 120.253 431.655 119.912C431.367 119.56 431.223 119.101 431.223 118.536C431.223 118.088 431.357 117.677 431.623 117.304C431.89 116.931 432.269 116.637 432.759 116.424C433.25 116.2 433.81 116.088 434.439 116.088C435.41 116.088 436.194 116.333 436.791 116.824C437.389 117.315 437.709 117.987 437.751 118.84H436.295C436.263 118.381 436.077 118.013 435.735 117.736C435.405 117.459 434.957 117.32 434.391 117.32C433.869 117.32 433.453 117.432 433.143 117.656C432.834 117.88 432.679 118.173 432.679 118.536C432.679 118.824 432.77 119.064 432.951 119.256C433.143 119.437 433.378 119.587 433.655 119.704C433.943 119.811 434.338 119.933 434.839 120.072C435.469 120.243 435.981 120.413 436.375 120.584C436.77 120.744 437.106 120.989 437.383 121.32C437.671 121.651 437.821 122.083 437.831 122.616C437.831 123.096 437.698 123.528 437.431 123.912C437.165 124.296 436.786 124.6 436.295 124.824C435.815 125.037 435.261 125.144 434.631 125.144ZM441.951 125.096C441.673 125.096 441.439 125 441.247 124.808C441.055 124.616 440.959 124.381 440.959 124.104C440.959 123.827 441.055 123.592 441.247 123.4C441.439 123.208 441.673 123.112 441.951 123.112C442.217 123.112 442.441 123.208 442.623 123.4C442.815 123.592 442.911 123.827 442.911 124.104C442.911 124.381 442.815 124.616 442.623 124.808C442.441 125 442.217 125.096 441.951 125.096Z" fill="white"/>
<path opacity="0.2" d="M275 141L460.991 141" stroke="white"/>
<path d="M60.8643 35.6367C58.9111 37.0527 56.7871 38.1514 54.4922 38.9326C52.2461 39.7139 50.0488 40.1045 47.9004 40.1045C46.4355 40.1045 45.0195 39.9092 43.6523 39.5186C42.334 39.0791 41.1621 38.4443 40.1367 37.6143C39.1113 36.7842 38.2812 35.7344 37.6465 34.4648C37.0605 33.1465 36.7676 31.6328 36.7676 29.9238C36.7676 27.873 37.0605 25.9443 37.6465 24.1377C38.2324 22.2822 39.1357 20.2803 40.3564 18.1318C41.5771 15.9346 43.0908 13.4687 44.8975 10.7344C46.7041 8 48.8281 4.72852 51.2695 0.919922H63.8672L56.1768 22.0869L60.8643 35.6367ZM28.4912 35.7832C26.5381 37.1992 24.4141 38.2979 22.1191 39.0791C19.873 39.8115 17.6758 40.1777 15.5273 40.1777C14.0625 40.1777 12.6465 39.9824 11.2793 39.5918C9.96094 39.1523 8.78906 38.5176 7.76367 37.6875C6.73828 36.8574 5.9082 35.8076 5.27344 34.5381C4.6875 33.2197 4.39453 31.7061 4.39453 29.9971C4.39453 27.9463 4.6875 26.0176 5.27344 24.2109C5.85938 22.3555 6.7627 20.3535 7.9834 18.2051C9.2041 16.0078 10.7178 13.542 12.5244 10.8076C14.3311 8.07324 16.4551 4.80176 18.8965 0.993164H31.4941L23.8037 22.1602L28.4912 35.7832Z" fill="white" fill-opacity="0.5"/>
</svg>
