<svg width="475" height="183" viewBox="0 0 475 183" fill="none" xmlns="http://www.w3.org/2000/svg">
<path opacity="0.7" d="M27 27.6198C27 22.8592 30.0858 19 33.8923 19H468.108C471.914 19 475 22.8592 475 27.6198V174.38C475 179.141 471.914 183 468.108 183H33.8923C30.0858 183 27 179.141 27 174.38V27.6198Z" fill="#950E0E"/>
<path d="M285.938 154.06L281.898 168H279.858L276.618 156.78L273.258 168L271.238 168.02L267.338 154.06H269.278L272.318 165.88L275.678 154.06H277.718L280.918 165.84L283.978 154.06H285.938ZM291.749 154.06V168H289.929V154.06H291.749ZM298.671 166.52H303.551V168H296.851V154.06H298.671V166.52ZM309.304 166.52H314.184V168H307.484V154.06H309.304V166.52ZM319.937 154.06V168H318.117V154.06H319.937ZM333.279 164.9H327.199L326.079 168H324.159L329.199 154.14H331.299L336.319 168H334.399L333.279 164.9ZM332.759 163.42L330.239 156.38L327.719 163.42H332.759ZM354.655 154.16V168H352.835V157.68L348.235 168H346.955L342.335 157.66V168H340.515V154.16H342.475L347.595 165.6L352.715 154.16H354.655ZM381.214 154.16V168H379.394V157.68L374.794 168H373.514L368.894 157.66V168H367.074V154.16H369.034L374.154 165.6L379.274 154.16H381.214ZM392.62 168.14C391.327 168.14 390.147 167.84 389.08 167.24C388.014 166.627 387.167 165.78 386.54 164.7C385.927 163.607 385.62 162.38 385.62 161.02C385.62 159.66 385.927 158.44 386.54 157.36C387.167 156.267 388.014 155.42 389.08 154.82C390.147 154.207 391.327 153.9 392.62 153.9C393.927 153.9 395.114 154.207 396.18 154.82C397.247 155.42 398.087 156.26 398.7 157.34C399.314 158.42 399.62 159.647 399.62 161.02C399.62 162.393 399.314 163.62 398.7 164.7C398.087 165.78 397.247 166.627 396.18 167.24C395.114 167.84 393.927 168.14 392.62 168.14ZM392.62 166.56C393.594 166.56 394.467 166.333 395.24 165.88C396.027 165.427 396.64 164.78 397.08 163.94C397.534 163.1 397.76 162.127 397.76 161.02C397.76 159.9 397.534 158.927 397.08 158.1C396.64 157.26 396.034 156.613 395.26 156.16C394.487 155.707 393.607 155.48 392.62 155.48C391.634 155.48 390.754 155.707 389.98 156.16C389.207 156.613 388.594 157.26 388.14 158.1C387.7 158.927 387.48 159.9 387.48 161.02C387.48 162.127 387.7 163.1 388.14 163.94C388.594 164.78 389.207 165.427 389.98 165.88C390.767 166.333 391.647 166.56 392.62 166.56ZM411.363 168L408.043 162.3H405.843V168H404.023V154.06H408.523C409.576 154.06 410.463 154.24 411.183 154.6C411.916 154.96 412.463 155.447 412.823 156.06C413.183 156.673 413.363 157.373 413.363 158.16C413.363 159.12 413.083 159.967 412.523 160.7C411.976 161.433 411.15 161.92 410.043 162.16L413.543 168H411.363ZM405.843 160.84H408.523C409.51 160.84 410.25 160.6 410.743 160.12C411.236 159.627 411.483 158.973 411.483 158.16C411.483 157.333 411.236 156.693 410.743 156.24C410.263 155.787 409.523 155.56 408.523 155.56H405.843V160.84ZM426.771 154.06V155.54H422.971V168H421.151V155.54H417.331V154.06H426.771ZM432.831 155.54V160.2H437.911V161.7H432.831V166.5H438.511V168H431.011V154.04H438.511V155.54H432.831ZM445.085 166.52H449.965V168H443.265V154.06H445.085V166.52ZM455.718 166.52H460.598V168H453.898V154.06H455.718V166.52Z" fill="white" fill-opacity="0.5"/>
<path d="M70.4803 47.256C70.8856 47.32 71.2536 47.4853 71.5843 47.752C71.9256 48.0187 72.1923 48.3493 72.3843 48.744C72.5869 49.1387 72.6883 49.56 72.6883 50.008C72.6883 50.5733 72.5443 51.0853 72.2563 51.544C71.9683 51.992 71.5469 52.3493 70.9923 52.616C70.4483 52.872 69.8029 53 69.0563 53H64.8963V41.848H68.8963C69.6536 41.848 70.2989 41.976 70.8323 42.232C71.3656 42.4773 71.7656 42.8133 72.0323 43.24C72.2989 43.6667 72.4323 44.1467 72.4323 44.68C72.4323 45.3413 72.2509 45.8907 71.8883 46.328C71.5363 46.7547 71.0669 47.064 70.4803 47.256ZM66.3523 46.664H68.8003C69.4829 46.664 70.0109 46.504 70.3843 46.184C70.7576 45.864 70.9443 45.4213 70.9443 44.856C70.9443 44.2907 70.7576 43.848 70.3843 43.528C70.0109 43.208 69.4723 43.048 68.7683 43.048H66.3523V46.664ZM68.9283 51.8C69.6536 51.8 70.2189 51.6293 70.6243 51.288C71.0296 50.9467 71.2323 50.472 71.2323 49.864C71.2323 49.2453 71.0189 48.76 70.5923 48.408C70.1656 48.0453 69.5949 47.864 68.8803 47.864H66.3523V51.8H68.9283ZM84.3088 48.28C84.3088 48.5573 84.2928 48.8507 84.2608 49.16H77.2528C77.3061 50.024 77.5994 50.7013 78.1328 51.192C78.6768 51.672 79.3328 51.912 80.1008 51.912C80.7301 51.912 81.2528 51.768 81.6688 51.48C82.0954 51.1813 82.3941 50.7867 82.5648 50.296H84.1328C83.8981 51.1387 83.4288 51.8267 82.7248 52.36C82.0208 52.8827 81.1461 53.144 80.1008 53.144C79.2688 53.144 78.5221 52.9573 77.8608 52.584C77.2101 52.2107 76.6981 51.6827 76.3248 51C75.9514 50.3067 75.7648 49.5067 75.7648 48.6C75.7648 47.6933 75.9461 46.8987 76.3088 46.216C76.6714 45.5333 77.1781 45.0107 77.8288 44.648C78.4901 44.2747 79.2474 44.088 80.1008 44.088C80.9328 44.088 81.6688 44.2693 82.3088 44.632C82.9488 44.9947 83.4394 45.496 83.7808 46.136C84.1328 46.7653 84.3088 47.48 84.3088 48.28ZM82.8048 47.976C82.8048 47.4213 82.6821 46.9467 82.4368 46.552C82.1914 46.1467 81.8554 45.8427 81.4288 45.64C81.0128 45.4267 80.5488 45.32 80.0368 45.32C79.3008 45.32 78.6714 45.5547 78.1488 46.024C77.6368 46.4933 77.3434 47.144 77.2688 47.976H82.8048ZM92.1026 44.072C93.1693 44.072 94.0333 44.3973 94.6946 45.048C95.356 45.688 95.6866 46.616 95.6866 47.832V53H94.2466V48.04C94.2466 47.1653 94.028 46.4987 93.5906 46.04C93.1533 45.5707 92.556 45.336 91.7986 45.336C91.0306 45.336 90.4173 45.576 89.9586 46.056C89.5106 46.536 89.2866 47.2347 89.2866 48.152V53H87.8306V44.232H89.2866V45.48C89.5746 45.032 89.964 44.6853 90.4546 44.44C90.956 44.1947 91.5053 44.072 92.1026 44.072ZM109.883 44.072C110.544 44.072 111.141 44.216 111.675 44.504C112.208 44.7813 112.624 45.2027 112.923 45.768C113.232 46.3333 113.387 47.0213 113.387 47.832V53H111.947V48.04C111.947 47.1653 111.728 46.4987 111.291 46.04C110.853 45.5707 110.256 45.336 109.499 45.336C108.731 45.336 108.117 45.576 107.659 46.056C107.211 46.536 106.987 47.2347 106.987 48.152V53H105.531V41.16H106.987V45.48C107.275 45.032 107.669 44.6853 108.171 44.44C108.683 44.1947 109.253 44.072 109.883 44.072ZM116.821 48.584C116.821 47.688 117.002 46.904 117.365 46.232C117.728 45.5493 118.224 45.0213 118.853 44.648C119.493 44.2747 120.202 44.088 120.981 44.088C121.749 44.088 122.416 44.2533 122.981 44.584C123.546 44.9147 123.968 45.3307 124.245 45.832V44.232H125.717V53H124.245V51.368C123.957 51.88 123.525 52.3067 122.949 52.648C122.384 52.9787 121.722 53.144 120.965 53.144C120.186 53.144 119.482 52.952 118.853 52.568C118.224 52.184 117.728 51.6453 117.365 50.952C117.002 50.2587 116.821 49.4693 116.821 48.584ZM124.245 48.6C124.245 47.9387 124.112 47.3627 123.845 46.872C123.578 46.3813 123.216 46.008 122.757 45.752C122.309 45.4853 121.813 45.352 121.269 45.352C120.725 45.352 120.229 45.48 119.781 45.736C119.333 45.992 118.976 46.3653 118.709 46.856C118.442 47.3467 118.309 47.9227 118.309 48.584C118.309 49.256 118.442 49.8427 118.709 50.344C118.976 50.8347 119.333 51.2133 119.781 51.48C120.229 51.736 120.725 51.864 121.269 51.864C121.813 51.864 122.309 51.736 122.757 51.48C123.216 51.2133 123.578 50.8347 123.845 50.344C124.112 49.8427 124.245 49.2613 124.245 48.6ZM132.882 53.144C132.21 53.144 131.607 53.032 131.074 52.808C130.54 52.5733 130.119 52.2533 129.81 51.848C129.5 51.432 129.33 50.9573 129.298 50.424H130.802C130.844 50.8613 131.047 51.2187 131.41 51.496C131.783 51.7733 132.268 51.912 132.866 51.912C133.42 51.912 133.858 51.7893 134.178 51.544C134.498 51.2987 134.658 50.9893 134.658 50.616C134.658 50.232 134.487 49.9493 134.146 49.768C133.804 49.576 133.276 49.3893 132.562 49.208C131.911 49.0373 131.378 48.8667 130.962 48.696C130.556 48.5147 130.204 48.2533 129.906 47.912C129.618 47.56 129.474 47.1013 129.474 46.536C129.474 46.088 129.607 45.6773 129.874 45.304C130.14 44.9307 130.519 44.6373 131.01 44.424C131.5 44.2 132.06 44.088 132.69 44.088C133.66 44.088 134.444 44.3333 135.042 44.824C135.639 45.3147 135.959 45.9867 136.002 46.84H134.546C134.514 46.3813 134.327 46.0133 133.986 45.736C133.655 45.4587 133.207 45.32 132.642 45.32C132.119 45.32 131.703 45.432 131.394 45.656C131.084 45.88 130.93 46.1733 130.93 46.536C130.93 46.824 131.02 47.064 131.202 47.256C131.394 47.4373 131.628 47.5867 131.906 47.704C132.194 47.8107 132.588 47.9333 133.09 48.072C133.719 48.2427 134.231 48.4133 134.626 48.584C135.02 48.744 135.356 48.9893 135.634 49.32C135.922 49.6507 136.071 50.0827 136.082 50.616C136.082 51.096 135.948 51.528 135.682 51.912C135.415 52.296 135.036 52.6 134.546 52.824C134.066 53.0373 133.511 53.144 132.882 53.144ZM147.059 45.864C147.357 45.3413 147.795 44.9147 148.371 44.584C148.947 44.2533 149.603 44.088 150.339 44.088C151.128 44.088 151.837 44.2747 152.467 44.648C153.096 45.0213 153.592 45.5493 153.955 46.232C154.317 46.904 154.499 47.688 154.499 48.584C154.499 49.4693 154.317 50.2587 153.955 50.952C153.592 51.6453 153.091 52.184 152.451 52.568C151.821 52.952 151.117 53.144 150.339 53.144C149.581 53.144 148.915 52.9787 148.339 52.648C147.773 52.3173 147.347 51.896 147.059 51.384V53H145.603V41.16H147.059V45.864ZM153.011 48.584C153.011 47.9227 152.877 47.3467 152.611 46.856C152.344 46.3653 151.981 45.992 151.523 45.736C151.075 45.48 150.579 45.352 150.035 45.352C149.501 45.352 149.005 45.4853 148.547 45.752C148.099 46.008 147.736 46.3867 147.459 46.888C147.192 47.3787 147.059 47.9493 147.059 48.6C147.059 49.2613 147.192 49.8427 147.459 50.344C147.736 50.8347 148.099 51.2133 148.547 51.48C149.005 51.736 149.501 51.864 150.035 51.864C150.579 51.864 151.075 51.736 151.523 51.48C151.981 51.2133 152.344 50.8347 152.611 50.344C152.877 49.8427 153.011 49.256 153.011 48.584ZM166.015 48.28C166.015 48.5573 165.999 48.8507 165.967 49.16H158.959C159.012 50.024 159.306 50.7013 159.839 51.192C160.383 51.672 161.039 51.912 161.807 51.912C162.436 51.912 162.959 51.768 163.375 51.48C163.802 51.1813 164.1 50.7867 164.271 50.296H165.839C165.604 51.1387 165.135 51.8267 164.431 52.36C163.727 52.8827 162.852 53.144 161.807 53.144C160.975 53.144 160.228 52.9573 159.567 52.584C158.916 52.2107 158.404 51.6827 158.031 51C157.658 50.3067 157.471 49.5067 157.471 48.6C157.471 47.6933 157.652 46.8987 158.015 46.216C158.378 45.5333 158.884 45.0107 159.535 44.648C160.196 44.2747 160.954 44.088 161.807 44.088C162.639 44.088 163.375 44.2693 164.015 44.632C164.655 44.9947 165.146 45.496 165.487 46.136C165.839 46.7653 166.015 47.48 166.015 48.28ZM164.511 47.976C164.511 47.4213 164.388 46.9467 164.143 46.552C163.898 46.1467 163.562 45.8427 163.135 45.64C162.719 45.4267 162.255 45.32 161.743 45.32C161.007 45.32 160.378 45.5547 159.855 46.024C159.343 46.4933 159.05 47.144 158.975 47.976H164.511ZM177.537 48.28C177.537 48.5573 177.521 48.8507 177.489 49.16H170.481C170.534 50.024 170.828 50.7013 171.361 51.192C171.905 51.672 172.561 51.912 173.329 51.912C173.958 51.912 174.481 51.768 174.897 51.48C175.324 51.1813 175.622 50.7867 175.793 50.296H177.361C177.126 51.1387 176.657 51.8267 175.953 52.36C175.249 52.8827 174.374 53.144 173.329 53.144C172.497 53.144 171.75 52.9573 171.089 52.584C170.438 52.2107 169.926 51.6827 169.553 51C169.18 50.3067 168.993 49.5067 168.993 48.6C168.993 47.6933 169.174 46.8987 169.537 46.216C169.9 45.5333 170.406 45.0107 171.057 44.648C171.718 44.2747 172.476 44.088 173.329 44.088C174.161 44.088 174.897 44.2693 175.537 44.632C176.177 44.9947 176.668 45.496 177.009 46.136C177.361 46.7653 177.537 47.48 177.537 48.28ZM176.033 47.976C176.033 47.4213 175.91 46.9467 175.665 46.552C175.42 46.1467 175.084 45.8427 174.657 45.64C174.241 45.4267 173.777 45.32 173.265 45.32C172.529 45.32 171.9 45.5547 171.377 46.024C170.865 46.4933 170.572 47.144 170.497 47.976H176.033ZM185.331 44.072C186.397 44.072 187.261 44.3973 187.923 45.048C188.584 45.688 188.915 46.616 188.915 47.832V53H187.475V48.04C187.475 47.1653 187.256 46.4987 186.819 46.04C186.381 45.5707 185.784 45.336 185.027 45.336C184.259 45.336 183.645 45.576 183.187 46.056C182.739 46.536 182.515 47.2347 182.515 48.152V53H181.059V44.232H182.515V45.48C182.803 45.032 183.192 44.6853 183.683 44.44C184.184 44.1947 184.733 44.072 185.331 44.072ZM206.759 48.28C206.759 48.5573 206.743 48.8507 206.711 49.16H199.703C199.756 50.024 200.049 50.7013 200.583 51.192C201.127 51.672 201.783 51.912 202.551 51.912C203.18 51.912 203.703 51.768 204.119 51.48C204.545 51.1813 204.844 50.7867 205.015 50.296H206.583C206.348 51.1387 205.879 51.8267 205.175 52.36C204.471 52.8827 203.596 53.144 202.551 53.144C201.719 53.144 200.972 52.9573 200.311 52.584C199.66 52.2107 199.148 51.6827 198.775 51C198.401 50.3067 198.215 49.5067 198.215 48.6C198.215 47.6933 198.396 46.8987 198.759 46.216C199.121 45.5333 199.628 45.0107 200.279 44.648C200.94 44.2747 201.697 44.088 202.551 44.088C203.383 44.088 204.119 44.2693 204.759 44.632C205.399 44.9947 205.889 45.496 206.231 46.136C206.583 46.7653 206.759 47.48 206.759 48.28ZM205.255 47.976C205.255 47.4213 205.132 46.9467 204.887 46.552C204.641 46.1467 204.305 45.8427 203.879 45.64C203.463 45.4267 202.999 45.32 202.487 45.32C201.751 45.32 201.121 45.5547 200.599 46.024C200.087 46.4933 199.793 47.144 199.719 47.976H205.255ZM214.857 53L212.777 49.736L210.777 53H209.257L212.089 48.648L209.257 44.232H210.905L212.985 47.48L214.969 44.232H216.489L213.673 48.568L216.505 53H214.857ZM221.313 45.432V50.6C221.313 51.0267 221.404 51.3307 221.585 51.512C221.766 51.6827 222.081 51.768 222.529 51.768H223.601V53H222.289C221.478 53 220.87 52.8133 220.465 52.44C220.06 52.0667 219.857 51.4533 219.857 50.6V45.432H218.721V44.232H219.857V42.024H221.313V44.232H223.601V45.432H221.313ZM228.421 45.656C228.677 45.1547 229.04 44.7653 229.509 44.488C229.989 44.2107 230.57 44.072 231.253 44.072V45.576H230.869C229.237 45.576 228.421 46.4613 228.421 48.232V53H226.965V44.232H228.421V45.656ZM242.534 48.28C242.534 48.5573 242.518 48.8507 242.486 49.16H235.478C235.531 50.024 235.824 50.7013 236.358 51.192C236.902 51.672 237.558 51.912 238.326 51.912C238.955 51.912 239.478 51.768 239.894 51.48C240.32 51.1813 240.619 50.7867 240.79 50.296H242.358C242.123 51.1387 241.654 51.8267 240.95 52.36C240.246 52.8827 239.371 53.144 238.326 53.144C237.494 53.144 236.747 52.9573 236.086 52.584C235.435 52.2107 234.923 51.6827 234.55 51C234.176 50.3067 233.99 49.5067 233.99 48.6C233.99 47.6933 234.171 46.8987 234.534 46.216C234.896 45.5333 235.403 45.0107 236.054 44.648C236.715 44.2747 237.472 44.088 238.326 44.088C239.158 44.088 239.894 44.2693 240.534 44.632C241.174 44.9947 241.664 45.496 242.006 46.136C242.358 46.7653 242.534 47.48 242.534 48.28ZM241.03 47.976C241.03 47.4213 240.907 46.9467 240.662 46.552C240.416 46.1467 240.08 45.8427 239.654 45.64C239.238 45.4267 238.774 45.32 238.262 45.32C237.526 45.32 236.896 45.5547 236.374 46.024C235.862 46.4933 235.568 47.144 235.494 47.976H241.03ZM256.6 44.072C257.282 44.072 257.89 44.216 258.424 44.504C258.957 44.7813 259.378 45.2027 259.688 45.768C259.997 46.3333 260.152 47.0213 260.152 47.832V53H258.712V48.04C258.712 47.1653 258.493 46.4987 258.056 46.04C257.629 45.5707 257.048 45.336 256.312 45.336C255.554 45.336 254.952 45.5813 254.504 46.072C254.056 46.552 253.832 47.2507 253.832 48.168V53H252.392V48.04C252.392 47.1653 252.173 46.4987 251.736 46.04C251.309 45.5707 250.728 45.336 249.992 45.336C249.234 45.336 248.632 45.5813 248.184 46.072C247.736 46.552 247.512 47.2507 247.512 48.168V53H246.056V44.232H247.512V45.496C247.8 45.0373 248.184 44.6853 248.664 44.44C249.154 44.1947 249.693 44.072 250.28 44.072C251.016 44.072 251.666 44.2373 252.232 44.568C252.797 44.8987 253.218 45.384 253.496 46.024C253.741 45.4053 254.146 44.9253 254.712 44.584C255.277 44.2427 255.906 44.072 256.6 44.072ZM272.14 48.28C272.14 48.5573 272.124 48.8507 272.092 49.16H265.084C265.137 50.024 265.431 50.7013 265.964 51.192C266.508 51.672 267.164 51.912 267.932 51.912C268.561 51.912 269.084 51.768 269.5 51.48C269.927 51.1813 270.225 50.7867 270.396 50.296H271.964C271.729 51.1387 271.26 51.8267 270.556 52.36C269.852 52.8827 268.977 53.144 267.932 53.144C267.1 53.144 266.353 52.9573 265.692 52.584C265.041 52.2107 264.529 51.6827 264.156 51C263.783 50.3067 263.596 49.5067 263.596 48.6C263.596 47.6933 263.777 46.8987 264.14 46.216C264.503 45.5333 265.009 45.0107 265.66 44.648C266.321 44.2747 267.079 44.088 267.932 44.088C268.764 44.088 269.5 44.2693 270.14 44.632C270.78 44.9947 271.271 45.496 271.612 46.136C271.964 46.7653 272.14 47.48 272.14 48.28ZM270.636 47.976C270.636 47.4213 270.513 46.9467 270.268 46.552C270.023 46.1467 269.687 45.8427 269.26 45.64C268.844 45.4267 268.38 45.32 267.868 45.32C267.132 45.32 266.503 45.5547 265.98 46.024C265.468 46.4933 265.175 47.144 265.1 47.976H270.636ZM277.118 41.16V53H275.662V41.16H277.118ZM288.751 44.232L283.471 57.128H281.967L283.695 52.904L280.159 44.232H281.775L284.527 51.336L287.247 44.232H288.751ZM302.033 44.072C302.694 44.072 303.291 44.216 303.825 44.504C304.358 44.7813 304.774 45.2027 305.073 45.768C305.382 46.3333 305.537 47.0213 305.537 47.832V53H304.097V48.04C304.097 47.1653 303.878 46.4987 303.441 46.04C303.003 45.5707 302.406 45.336 301.649 45.336C300.881 45.336 300.267 45.576 299.809 46.056C299.361 46.536 299.137 47.2347 299.137 48.152V53H297.681V41.16H299.137V45.48C299.425 45.032 299.819 44.6853 300.321 44.44C300.833 44.1947 301.403 44.072 302.033 44.072ZM317.515 48.28C317.515 48.5573 317.499 48.8507 317.467 49.16H310.459C310.512 50.024 310.806 50.7013 311.339 51.192C311.883 51.672 312.539 51.912 313.307 51.912C313.936 51.912 314.459 51.768 314.875 51.48C315.302 51.1813 315.6 50.7867 315.771 50.296H317.339C317.104 51.1387 316.635 51.8267 315.931 52.36C315.227 52.8827 314.352 53.144 313.307 53.144C312.475 53.144 311.728 52.9573 311.067 52.584C310.416 52.2107 309.904 51.6827 309.531 51C309.158 50.3067 308.971 49.5067 308.971 48.6C308.971 47.6933 309.152 46.8987 309.515 46.216C309.878 45.5333 310.384 45.0107 311.035 44.648C311.696 44.2747 312.454 44.088 313.307 44.088C314.139 44.088 314.875 44.2693 315.515 44.632C316.155 44.9947 316.646 45.496 316.987 46.136C317.339 46.7653 317.515 47.48 317.515 48.28ZM316.011 47.976C316.011 47.4213 315.888 46.9467 315.643 46.552C315.398 46.1467 315.062 45.8427 314.635 45.64C314.219 45.4267 313.755 45.32 313.243 45.32C312.507 45.32 311.878 45.5547 311.355 46.024C310.843 46.4933 310.55 47.144 310.475 47.976H316.011ZM322.493 41.16V53H321.037V41.16H322.493ZM328.03 45.848C328.318 45.3467 328.745 44.9307 329.31 44.6C329.886 44.2587 330.553 44.088 331.31 44.088C332.089 44.088 332.793 44.2747 333.422 44.648C334.062 45.0213 334.564 45.5493 334.926 46.232C335.289 46.904 335.47 47.688 335.47 48.584C335.47 49.4693 335.289 50.2587 334.926 50.952C334.564 51.6453 334.062 52.184 333.422 52.568C332.793 52.952 332.089 53.144 331.31 53.144C330.564 53.144 329.902 52.9787 329.326 52.648C328.761 52.3067 328.329 51.8853 328.03 51.384V57.16H326.574V44.232H328.03V45.848ZM333.982 48.584C333.982 47.9227 333.849 47.3467 333.582 46.856C333.316 46.3653 332.953 45.992 332.494 45.736C332.046 45.48 331.55 45.352 331.006 45.352C330.473 45.352 329.977 45.4853 329.518 45.752C329.07 46.008 328.708 46.3867 328.43 46.888C328.164 47.3787 328.03 47.9493 328.03 48.6C328.03 49.2613 328.164 49.8427 328.43 50.344C328.708 50.8347 329.07 51.2133 329.518 51.48C329.977 51.736 330.473 51.864 331.006 51.864C331.55 51.864 332.046 51.736 332.494 51.48C332.953 51.2133 333.316 50.8347 333.582 50.344C333.849 49.8427 333.982 49.256 333.982 48.584ZM342.555 45.432H340.715V53H339.259V45.432H338.123V44.232H339.259V43.608C339.259 42.6267 339.51 41.912 340.011 41.464C340.523 41.0053 341.339 40.776 342.459 40.776V41.992C341.819 41.992 341.366 42.12 341.099 42.376C340.843 42.6213 340.715 43.032 340.715 43.608V44.232H342.555V45.432ZM353.628 44.232V53H352.172V51.704C351.895 52.152 351.506 52.504 351.004 52.76C350.514 53.0053 349.97 53.128 349.372 53.128C348.69 53.128 348.076 52.9893 347.532 52.712C346.988 52.424 346.556 51.9973 346.236 51.432C345.927 50.8667 345.772 50.1787 345.772 49.368V44.232H347.212V49.176C347.212 50.04 347.431 50.7067 347.868 51.176C348.306 51.6347 348.903 51.864 349.66 51.864C350.439 51.864 351.052 51.624 351.5 51.144C351.948 50.664 352.172 49.9653 352.172 49.048V44.232H353.628ZM359.143 41.16V53H357.687V41.16H359.143ZM380.77 44.232L378.034 53H376.53L374.418 46.04L372.306 53H370.802L368.05 44.232H369.538L371.554 51.592L373.73 44.232H375.218L377.346 51.608L379.33 44.232H380.77ZM384.567 42.808C384.29 42.808 384.055 42.712 383.863 42.52C383.671 42.328 383.575 42.0933 383.575 41.816C383.575 41.5387 383.671 41.304 383.863 41.112C384.055 40.92 384.29 40.824 384.567 40.824C384.834 40.824 385.058 40.92 385.239 41.112C385.431 41.304 385.527 41.5387 385.527 41.816C385.527 42.0933 385.431 42.328 385.239 42.52C385.058 42.712 384.834 42.808 384.567 42.808ZM385.271 44.232V53H383.815V44.232H385.271ZM391.128 45.432V50.6C391.128 51.0267 391.219 51.3307 391.4 51.512C391.582 51.6827 391.896 51.768 392.344 51.768H393.416V53H392.104C391.294 53 390.686 52.8133 390.28 52.44C389.875 52.0667 389.672 51.4533 389.672 50.6V45.432H388.536V44.232H389.672V42.024H391.128V44.232H393.416V45.432H391.128ZM401.133 44.072C401.794 44.072 402.391 44.216 402.925 44.504C403.458 44.7813 403.874 45.2027 404.173 45.768C404.482 46.3333 404.637 47.0213 404.637 47.832V53H403.197V48.04C403.197 47.1653 402.978 46.4987 402.541 46.04C402.103 45.5707 401.506 45.336 400.749 45.336C399.981 45.336 399.367 45.576 398.909 46.056C398.461 46.536 398.237 47.2347 398.237 48.152V53H396.781V41.16H398.237V45.48C398.525 45.032 398.919 44.6853 399.421 44.44C399.933 44.1947 400.503 44.072 401.133 44.072ZM418.305 53.144C417.483 53.144 416.737 52.9573 416.065 52.584C415.403 52.2107 414.881 51.6827 414.497 51C414.123 50.3067 413.937 49.5067 413.937 48.6C413.937 47.704 414.129 46.9147 414.513 46.232C414.907 45.5387 415.441 45.0107 416.113 44.648C416.785 44.2747 417.537 44.088 418.369 44.088C419.201 44.088 419.953 44.2747 420.625 44.648C421.297 45.0107 421.825 45.5333 422.209 46.216C422.603 46.8987 422.801 47.6933 422.801 48.6C422.801 49.5067 422.598 50.3067 422.193 51C421.798 51.6827 421.259 52.2107 420.577 52.584C419.894 52.9573 419.137 53.144 418.305 53.144ZM418.305 51.864C418.827 51.864 419.318 51.7413 419.777 51.496C420.235 51.2507 420.603 50.8827 420.881 50.392C421.169 49.9013 421.313 49.304 421.313 48.6C421.313 47.896 421.174 47.2987 420.897 46.808C420.619 46.3173 420.257 45.9547 419.809 45.72C419.361 45.4747 418.875 45.352 418.353 45.352C417.819 45.352 417.329 45.4747 416.881 45.72C416.443 45.9547 416.091 46.3173 415.825 46.808C415.558 47.2987 415.425 47.896 415.425 48.6C415.425 49.3147 415.553 49.9173 415.809 50.408C416.075 50.8987 416.427 51.2667 416.865 51.512C417.302 51.7467 417.782 51.864 418.305 51.864ZM434.091 44.232V53H432.635V51.704C432.358 52.152 431.968 52.504 431.467 52.76C430.976 53.0053 430.432 53.128 429.835 53.128C429.152 53.128 428.539 52.9893 427.995 52.712C427.451 52.424 427.019 51.9973 426.699 51.432C426.39 50.8667 426.235 50.1787 426.235 49.368V44.232H427.675V49.176C427.675 50.04 427.894 50.7067 428.331 51.176C428.768 51.6347 429.366 51.864 430.123 51.864C430.902 51.864 431.515 51.624 431.963 51.144C432.411 50.664 432.635 49.9653 432.635 49.048V44.232H434.091ZM439.605 45.656C439.861 45.1547 440.224 44.7653 440.693 44.488C441.173 44.2107 441.755 44.072 442.437 44.072V45.576H442.053C440.421 45.576 439.605 46.4613 439.605 48.232V53H438.149V44.232H439.605V45.656ZM95.2194 69.656C95.4754 69.1547 95.8381 68.7653 96.3074 68.488C96.7874 68.2107 97.3688 68.072 98.0514 68.072V69.576H97.6674C96.0354 69.576 95.2194 70.4613 95.2194 72.232V77H93.7634V68.232H95.2194V69.656ZM109.332 72.28C109.332 72.5573 109.316 72.8507 109.284 73.16H102.276C102.33 74.024 102.623 74.7013 103.156 75.192C103.7 75.672 104.356 75.912 105.124 75.912C105.754 75.912 106.276 75.768 106.692 75.48C107.119 75.1813 107.418 74.7867 107.588 74.296H109.156C108.922 75.1387 108.452 75.8267 107.748 76.36C107.044 76.8827 106.17 77.144 105.124 77.144C104.292 77.144 103.546 76.9573 102.884 76.584C102.234 76.2107 101.722 75.6827 101.348 75C100.975 74.3067 100.788 73.5067 100.788 72.6C100.788 71.6933 100.97 70.8987 101.332 70.216C101.695 69.5333 102.202 69.0107 102.852 68.648C103.514 68.2747 104.271 68.088 105.124 68.088C105.956 68.088 106.692 68.2693 107.332 68.632C107.972 68.9947 108.463 69.496 108.804 70.136C109.156 70.7653 109.332 71.48 109.332 72.28ZM107.828 71.976C107.828 71.4213 107.706 70.9467 107.46 70.552C107.215 70.1467 106.879 69.8427 106.452 69.64C106.036 69.4267 105.572 69.32 105.06 69.32C104.324 69.32 103.695 69.5547 103.172 70.024C102.66 70.4933 102.367 71.144 102.292 71.976H107.828ZM114.31 69.848C114.598 69.3467 115.025 68.9307 115.59 68.6C116.166 68.2587 116.833 68.088 117.59 68.088C118.369 68.088 119.073 68.2747 119.702 68.648C120.342 69.0213 120.843 69.5493 121.206 70.232C121.569 70.904 121.75 71.688 121.75 72.584C121.75 73.4693 121.569 74.2587 121.206 74.952C120.843 75.6453 120.342 76.184 119.702 76.568C119.073 76.952 118.369 77.144 117.59 77.144C116.843 77.144 116.182 76.9787 115.606 76.648C115.041 76.3067 114.609 75.8853 114.31 75.384V81.16H112.854V68.232H114.31V69.848ZM120.262 72.584C120.262 71.9227 120.129 71.3467 119.862 70.856C119.595 70.3653 119.233 69.992 118.774 69.736C118.326 69.48 117.83 69.352 117.286 69.352C116.753 69.352 116.257 69.4853 115.798 69.752C115.35 70.008 114.987 70.3867 114.71 70.888C114.443 71.3787 114.31 71.9493 114.31 72.6C114.31 73.2613 114.443 73.8427 114.71 74.344C114.987 74.8347 115.35 75.2133 115.798 75.48C116.257 75.736 116.753 75.864 117.286 75.864C117.83 75.864 118.326 75.736 118.774 75.48C119.233 75.2133 119.595 74.8347 119.862 74.344C120.129 73.8427 120.262 73.256 120.262 72.584ZM124.723 72.584C124.723 71.688 124.904 70.904 125.267 70.232C125.629 69.5493 126.125 69.0213 126.755 68.648C127.395 68.2747 128.104 68.088 128.883 68.088C129.651 68.088 130.317 68.2533 130.883 68.584C131.448 68.9147 131.869 69.3307 132.147 69.832V68.232H133.619V77H132.147V75.368C131.859 75.88 131.427 76.3067 130.851 76.648C130.285 76.9787 129.624 77.144 128.867 77.144C128.088 77.144 127.384 76.952 126.755 76.568C126.125 76.184 125.629 75.6453 125.267 74.952C124.904 74.2587 124.723 73.4693 124.723 72.584ZM132.147 72.6C132.147 71.9387 132.013 71.3627 131.747 70.872C131.48 70.3813 131.117 70.008 130.659 69.752C130.211 69.4853 129.715 69.352 129.171 69.352C128.627 69.352 128.131 69.48 127.683 69.736C127.235 69.992 126.877 70.3653 126.611 70.856C126.344 71.3467 126.211 71.9227 126.211 72.584C126.211 73.256 126.344 73.8427 126.611 74.344C126.877 74.8347 127.235 75.2133 127.683 75.48C128.131 75.736 128.627 75.864 129.171 75.864C129.715 75.864 130.211 75.736 130.659 75.48C131.117 75.2133 131.48 74.8347 131.747 74.344C132.013 73.8427 132.147 73.2613 132.147 72.6ZM138.431 66.808C138.154 66.808 137.919 66.712 137.727 66.52C137.535 66.328 137.439 66.0933 137.439 65.816C137.439 65.5387 137.535 65.304 137.727 65.112C137.919 64.92 138.154 64.824 138.431 64.824C138.698 64.824 138.922 64.92 139.103 65.112C139.295 65.304 139.391 65.5387 139.391 65.816C139.391 66.0933 139.295 66.328 139.103 66.52C138.922 66.712 138.698 66.808 138.431 66.808ZM139.135 68.232V77H137.679V68.232H139.135ZM144.673 69.656C144.929 69.1547 145.291 68.7653 145.761 68.488C146.241 68.2107 146.822 68.072 147.505 68.072V69.576H147.121C145.489 69.576 144.673 70.4613 144.673 72.232V77H143.217V68.232H144.673V69.656ZM151.249 77.096C150.972 77.096 150.737 77 150.545 76.808C150.353 76.616 150.257 76.3813 150.257 76.104C150.257 75.8267 150.353 75.592 150.545 75.4C150.737 75.208 150.972 75.112 151.249 75.112C151.516 75.112 151.74 75.208 151.921 75.4C152.113 75.592 152.209 75.8267 152.209 76.104C152.209 76.3813 152.113 76.616 151.921 76.808C151.74 77 151.516 77.096 151.249 77.096ZM168.474 65.848V67.032H165.434V77H163.978V67.032H160.922V65.848H168.474ZM176.219 68.072C176.88 68.072 177.477 68.216 178.011 68.504C178.544 68.7813 178.96 69.2027 179.259 69.768C179.568 70.3333 179.723 71.0213 179.723 71.832V77H178.283V72.04C178.283 71.1653 178.064 70.4987 177.627 70.04C177.189 69.5707 176.592 69.336 175.835 69.336C175.067 69.336 174.453 69.576 173.995 70.056C173.547 70.536 173.323 71.2347 173.323 72.152V77H171.867V65.16H173.323V69.48C173.611 69.032 174.005 68.6853 174.507 68.44C175.019 68.1947 175.589 68.072 176.219 68.072ZM191.701 72.28C191.701 72.5573 191.685 72.8507 191.653 73.16H184.645C184.698 74.024 184.992 74.7013 185.525 75.192C186.069 75.672 186.725 75.912 187.493 75.912C188.122 75.912 188.645 75.768 189.061 75.48C189.488 75.1813 189.786 74.7867 189.957 74.296H191.525C191.29 75.1387 190.821 75.8267 190.117 76.36C189.413 76.8827 188.538 77.144 187.493 77.144C186.661 77.144 185.914 76.9573 185.253 76.584C184.602 76.2107 184.09 75.6827 183.717 75C183.344 74.3067 183.157 73.5067 183.157 72.6C183.157 71.6933 183.338 70.8987 183.701 70.216C184.064 69.5333 184.57 69.0107 185.221 68.648C185.882 68.2747 186.64 68.088 187.493 68.088C188.325 68.088 189.061 68.2693 189.701 68.632C190.341 68.9947 190.832 69.496 191.173 70.136C191.525 70.7653 191.701 71.48 191.701 72.28ZM190.197 71.976C190.197 71.4213 190.074 70.9467 189.829 70.552C189.584 70.1467 189.248 69.8427 188.821 69.64C188.405 69.4267 187.941 69.32 187.429 69.32C186.693 69.32 186.064 69.5547 185.541 70.024C185.029 70.4933 184.736 71.144 184.661 71.976H190.197ZM202.544 69.848C202.832 69.3467 203.259 68.9307 203.824 68.6C204.4 68.2587 205.067 68.088 205.824 68.088C206.603 68.088 207.307 68.2747 207.936 68.648C208.576 69.0213 209.078 69.5493 209.44 70.232C209.803 70.904 209.984 71.688 209.984 72.584C209.984 73.4693 209.803 74.2587 209.44 74.952C209.078 75.6453 208.576 76.184 207.936 76.568C207.307 76.952 206.603 77.144 205.824 77.144C205.078 77.144 204.416 76.9787 203.84 76.648C203.275 76.3067 202.843 75.8853 202.544 75.384V81.16H201.088V68.232H202.544V69.848ZM208.496 72.584C208.496 71.9227 208.363 71.3467 208.096 70.856C207.83 70.3653 207.467 69.992 207.008 69.736C206.56 69.48 206.064 69.352 205.52 69.352C204.987 69.352 204.491 69.4853 204.032 69.752C203.584 70.008 203.222 70.3867 202.944 70.888C202.678 71.3787 202.544 71.9493 202.544 72.6C202.544 73.2613 202.678 73.8427 202.944 74.344C203.222 74.8347 203.584 75.2133 204.032 75.48C204.491 75.736 204.987 75.864 205.52 75.864C206.064 75.864 206.56 75.736 207.008 75.48C207.467 75.2133 207.83 74.8347 208.096 74.344C208.363 73.8427 208.496 73.256 208.496 72.584ZM214.957 69.656C215.213 69.1547 215.576 68.7653 216.045 68.488C216.525 68.2107 217.106 68.072 217.789 68.072V69.576H217.405C215.773 69.576 214.957 70.4613 214.957 72.232V77H213.501V68.232H214.957V69.656ZM224.894 77.144C224.072 77.144 223.326 76.9573 222.654 76.584C221.992 76.2107 221.47 75.6827 221.086 75C220.712 74.3067 220.526 73.5067 220.526 72.6C220.526 71.704 220.718 70.9147 221.102 70.232C221.496 69.5387 222.03 69.0107 222.702 68.648C223.374 68.2747 224.126 68.088 224.958 68.088C225.79 68.088 226.542 68.2747 227.214 68.648C227.886 69.0107 228.414 69.5333 228.798 70.216C229.192 70.8987 229.39 71.6933 229.39 72.6C229.39 73.5067 229.187 74.3067 228.782 75C228.387 75.6827 227.848 76.2107 227.166 76.584C226.483 76.9573 225.726 77.144 224.894 77.144ZM224.894 75.864C225.416 75.864 225.907 75.7413 226.366 75.496C226.824 75.2507 227.192 74.8827 227.47 74.392C227.758 73.9013 227.902 73.304 227.902 72.6C227.902 71.896 227.763 71.2987 227.486 70.808C227.208 70.3173 226.846 69.9547 226.398 69.72C225.95 69.4747 225.464 69.352 224.942 69.352C224.408 69.352 223.918 69.4747 223.47 69.72C223.032 69.9547 222.68 70.3173 222.414 70.808C222.147 71.2987 222.014 71.896 222.014 72.6C222.014 73.3147 222.142 73.9173 222.398 74.408C222.664 74.8987 223.016 75.2667 223.454 75.512C223.891 75.7467 224.371 75.864 224.894 75.864ZM232.36 72.6C232.36 71.6933 232.541 70.904 232.904 70.232C233.267 69.5493 233.768 69.0213 234.408 68.648C235.059 68.2747 235.8 68.088 236.632 68.088C237.709 68.088 238.595 68.3493 239.288 68.872C239.992 69.3947 240.456 70.12 240.68 71.048H239.112C238.963 70.5147 238.669 70.0933 238.232 69.784C237.805 69.4747 237.272 69.32 236.632 69.32C235.8 69.32 235.128 69.608 234.616 70.184C234.104 70.7493 233.848 71.5547 233.848 72.6C233.848 73.656 234.104 74.472 234.616 75.048C235.128 75.624 235.8 75.912 236.632 75.912C237.272 75.912 237.805 75.7627 238.232 75.464C238.659 75.1653 238.952 74.7387 239.112 74.184H240.68C240.445 75.08 239.976 75.8 239.272 76.344C238.568 76.8773 237.688 77.144 236.632 77.144C235.8 77.144 235.059 76.9573 234.408 76.584C233.768 76.2107 233.267 75.6827 232.904 75C232.541 74.3173 232.36 73.5173 232.36 72.6ZM252.223 72.28C252.223 72.5573 252.207 72.8507 252.175 73.16H245.167C245.22 74.024 245.513 74.7013 246.047 75.192C246.591 75.672 247.247 75.912 248.015 75.912C248.644 75.912 249.167 75.768 249.583 75.48C250.009 75.1813 250.308 74.7867 250.479 74.296H252.047C251.812 75.1387 251.343 75.8267 250.639 76.36C249.935 76.8827 249.06 77.144 248.015 77.144C247.183 77.144 246.436 76.9573 245.775 76.584C245.124 76.2107 244.612 75.6827 244.239 75C243.865 74.3067 243.679 73.5067 243.679 72.6C243.679 71.6933 243.86 70.8987 244.223 70.216C244.585 69.5333 245.092 69.0107 245.743 68.648C246.404 68.2747 247.161 68.088 248.015 68.088C248.847 68.088 249.583 68.2693 250.223 68.632C250.863 68.9947 251.353 69.496 251.695 70.136C252.047 70.7653 252.223 71.48 252.223 72.28ZM250.719 71.976C250.719 71.4213 250.596 70.9467 250.351 70.552C250.105 70.1467 249.769 69.8427 249.343 69.64C248.927 69.4267 248.463 69.32 247.951 69.32C247.215 69.32 246.585 69.5547 246.063 70.024C245.551 70.4933 245.257 71.144 245.183 71.976H250.719ZM258.849 77.144C258.177 77.144 257.574 77.032 257.041 76.808C256.507 76.5733 256.086 76.2533 255.777 75.848C255.467 75.432 255.297 74.9573 255.265 74.424H256.769C256.811 74.8613 257.014 75.2187 257.377 75.496C257.75 75.7733 258.235 75.912 258.833 75.912C259.387 75.912 259.825 75.7893 260.145 75.544C260.465 75.2987 260.625 74.9893 260.625 74.616C260.625 74.232 260.454 73.9493 260.113 73.768C259.771 73.576 259.243 73.3893 258.529 73.208C257.878 73.0373 257.345 72.8667 256.929 72.696C256.523 72.5147 256.171 72.2533 255.873 71.912C255.585 71.56 255.441 71.1013 255.441 70.536C255.441 70.088 255.574 69.6773 255.841 69.304C256.107 68.9307 256.486 68.6373 256.977 68.424C257.467 68.2 258.027 68.088 258.657 68.088C259.627 68.088 260.411 68.3333 261.009 68.824C261.606 69.3147 261.926 69.9867 261.969 70.84H260.513C260.481 70.3813 260.294 70.0133 259.953 69.736C259.622 69.4587 259.174 69.32 258.609 69.32C258.086 69.32 257.67 69.432 257.361 69.656C257.051 69.88 256.897 70.1733 256.897 70.536C256.897 70.824 256.987 71.064 257.169 71.256C257.361 71.4373 257.595 71.5867 257.873 71.704C258.161 71.8107 258.555 71.9333 259.057 72.072C259.686 72.2427 260.198 72.4133 260.593 72.584C260.987 72.744 261.323 72.9893 261.601 73.32C261.889 73.6507 262.038 74.0827 262.049 74.616C262.049 75.096 261.915 75.528 261.649 75.912C261.382 76.296 261.003 76.6 260.513 76.824C260.033 77.0373 259.478 77.144 258.849 77.144ZM268.808 77.144C268.136 77.144 267.533 77.032 267 76.808C266.467 76.5733 266.045 76.2533 265.736 75.848C265.427 75.432 265.256 74.9573 265.224 74.424H266.728C266.771 74.8613 266.973 75.2187 267.336 75.496C267.709 75.7733 268.195 75.912 268.792 75.912C269.347 75.912 269.784 75.7893 270.104 75.544C270.424 75.2987 270.584 74.9893 270.584 74.616C270.584 74.232 270.413 73.9493 270.072 73.768C269.731 73.576 269.203 73.3893 268.488 73.208C267.837 73.0373 267.304 72.8667 266.888 72.696C266.483 72.5147 266.131 72.2533 265.832 71.912C265.544 71.56 265.4 71.1013 265.4 70.536C265.4 70.088 265.533 69.6773 265.8 69.304C266.067 68.9307 266.445 68.6373 266.936 68.424C267.427 68.2 267.987 68.088 268.616 68.088C269.587 68.088 270.371 68.3333 270.968 68.824C271.565 69.3147 271.885 69.9867 271.928 70.84H270.472C270.44 70.3813 270.253 70.0133 269.912 69.736C269.581 69.4587 269.133 69.32 268.568 69.32C268.045 69.32 267.629 69.432 267.32 69.656C267.011 69.88 266.856 70.1733 266.856 70.536C266.856 70.824 266.947 71.064 267.128 71.256C267.32 71.4373 267.555 71.5867 267.832 71.704C268.12 71.8107 268.515 71.9333 269.016 72.072C269.645 72.2427 270.157 72.4133 270.552 72.584C270.947 72.744 271.283 72.9893 271.56 73.32C271.848 73.6507 271.997 74.0827 272.008 74.616C272.008 75.096 271.875 75.528 271.608 75.912C271.341 76.296 270.963 76.6 270.472 76.824C269.992 77.0373 269.437 77.144 268.808 77.144ZM293.209 68.232L290.473 77H288.969L286.857 70.04L284.745 77H283.241L280.489 68.232H281.977L283.993 75.592L286.169 68.232H287.657L289.785 75.608L291.769 68.232H293.209ZM295.71 72.584C295.71 71.688 295.891 70.904 296.254 70.232C296.617 69.5493 297.113 69.0213 297.742 68.648C298.382 68.2747 299.091 68.088 299.87 68.088C300.638 68.088 301.305 68.2533 301.87 68.584C302.435 68.9147 302.857 69.3307 303.134 69.832V68.232H304.606V77H303.134V75.368C302.846 75.88 302.414 76.3067 301.838 76.648C301.273 76.9787 300.611 77.144 299.854 77.144C299.075 77.144 298.371 76.952 297.742 76.568C297.113 76.184 296.617 75.6453 296.254 74.952C295.891 74.2587 295.71 73.4693 295.71 72.584ZM303.134 72.6C303.134 71.9387 303.001 71.3627 302.734 70.872C302.467 70.3813 302.105 70.008 301.646 69.752C301.198 69.4853 300.702 69.352 300.158 69.352C299.614 69.352 299.118 69.48 298.67 69.736C298.222 69.992 297.865 70.3653 297.598 70.856C297.331 71.3467 297.198 71.9227 297.198 72.584C297.198 73.256 297.331 73.8427 297.598 74.344C297.865 74.8347 298.222 75.2133 298.67 75.48C299.118 75.736 299.614 75.864 300.158 75.864C300.702 75.864 301.198 75.736 301.646 75.48C302.105 75.2133 302.467 74.8347 302.734 74.344C303.001 73.8427 303.134 73.2613 303.134 72.6ZM311.771 77.144C311.099 77.144 310.496 77.032 309.963 76.808C309.429 76.5733 309.008 76.2533 308.699 75.848C308.389 75.432 308.219 74.9573 308.187 74.424H309.691C309.733 74.8613 309.936 75.2187 310.299 75.496C310.672 75.7733 311.157 75.912 311.755 75.912C312.309 75.912 312.747 75.7893 313.067 75.544C313.387 75.2987 313.547 74.9893 313.547 74.616C313.547 74.232 313.376 73.9493 313.035 73.768C312.693 73.576 312.165 73.3893 311.451 73.208C310.8 73.0373 310.267 72.8667 309.851 72.696C309.445 72.5147 309.093 72.2533 308.795 71.912C308.507 71.56 308.363 71.1013 308.363 70.536C308.363 70.088 308.496 69.6773 308.763 69.304C309.029 68.9307 309.408 68.6373 309.899 68.424C310.389 68.2 310.949 68.088 311.579 68.088C312.549 68.088 313.333 68.3333 313.931 68.824C314.528 69.3147 314.848 69.9867 314.891 70.84H313.435C313.403 70.3813 313.216 70.0133 312.875 69.736C312.544 69.4587 312.096 69.32 311.531 69.32C311.008 69.32 310.592 69.432 310.283 69.656C309.973 69.88 309.819 70.1733 309.819 70.536C309.819 70.824 309.909 71.064 310.091 71.256C310.283 71.4373 310.517 71.5867 310.795 71.704C311.083 71.8107 311.477 71.9333 311.979 72.072C312.608 72.2427 313.12 72.4133 313.515 72.584C313.909 72.744 314.245 72.9893 314.523 73.32C314.811 73.6507 314.96 74.0827 314.971 74.616C314.971 75.096 314.837 75.528 314.571 75.912C314.304 76.296 313.925 76.6 313.435 76.824C312.955 77.0373 312.4 77.144 311.771 77.144ZM323.948 72.584C323.948 71.688 324.129 70.904 324.492 70.232C324.854 69.5493 325.35 69.0213 325.98 68.648C326.62 68.2747 327.334 68.088 328.124 68.088C328.881 68.088 329.542 68.2587 330.108 68.6C330.684 68.9307 331.105 69.3413 331.372 69.832V68.232H332.844V81.16H331.372V75.384C331.094 75.8747 330.668 76.2907 330.092 76.632C329.516 76.9733 328.844 77.144 328.076 77.144C327.308 77.144 326.609 76.952 325.98 76.568C325.35 76.184 324.854 75.6453 324.492 74.952C324.129 74.2587 323.948 73.4693 323.948 72.584ZM331.372 72.6C331.372 71.9387 331.238 71.3627 330.972 70.872C330.705 70.3813 330.342 70.008 329.884 69.752C329.436 69.4853 328.94 69.352 328.396 69.352C327.852 69.352 327.356 69.48 326.908 69.736C326.46 69.992 326.102 70.3653 325.836 70.856C325.569 71.3467 325.436 71.9227 325.436 72.584C325.436 73.256 325.569 73.8427 325.836 74.344C326.102 74.8347 326.46 75.2133 326.908 75.48C327.356 75.736 327.852 75.864 328.396 75.864C328.94 75.864 329.436 75.736 329.884 75.48C330.342 75.2133 330.705 74.8347 330.972 74.344C331.238 73.8427 331.372 73.2613 331.372 72.6ZM344.68 68.232V77H343.224V75.704C342.947 76.152 342.557 76.504 342.056 76.76C341.565 77.0053 341.021 77.128 340.424 77.128C339.741 77.128 339.128 76.9893 338.584 76.712C338.04 76.424 337.608 75.9973 337.288 75.432C336.979 74.8667 336.824 74.1787 336.824 73.368V68.232H338.264V73.176C338.264 74.04 338.483 74.7067 338.92 75.176C339.357 75.6347 339.955 75.864 340.712 75.864C341.491 75.864 342.104 75.624 342.552 75.144C343 74.664 343.224 73.9653 343.224 73.048V68.232H344.68ZM349.49 66.808C349.213 66.808 348.978 66.712 348.786 66.52C348.594 66.328 348.498 66.0933 348.498 65.816C348.498 65.5387 348.594 65.304 348.786 65.112C348.978 64.92 349.213 64.824 349.49 64.824C349.757 64.824 349.981 64.92 350.162 65.112C350.354 65.304 350.45 65.5387 350.45 65.816C350.45 66.0933 350.354 66.328 350.162 66.52C349.981 66.712 349.757 66.808 349.49 66.808ZM350.194 68.232V77H348.738V68.232H350.194ZM353.732 72.6C353.732 71.6933 353.913 70.904 354.276 70.232C354.639 69.5493 355.14 69.0213 355.78 68.648C356.431 68.2747 357.172 68.088 358.004 68.088C359.081 68.088 359.967 68.3493 360.66 68.872C361.364 69.3947 361.828 70.12 362.052 71.048H360.484C360.335 70.5147 360.041 70.0933 359.604 69.784C359.177 69.4747 358.644 69.32 358.004 69.32C357.172 69.32 356.5 69.608 355.988 70.184C355.476 70.7493 355.22 71.5547 355.22 72.6C355.22 73.656 355.476 74.472 355.988 75.048C356.5 75.624 357.172 75.912 358.004 75.912C358.644 75.912 359.177 75.7627 359.604 75.464C360.031 75.1653 360.324 74.7387 360.484 74.184H362.052C361.817 75.08 361.348 75.8 360.644 76.344C359.94 76.8773 359.06 77.144 358.004 77.144C357.172 77.144 356.431 76.9573 355.78 76.584C355.14 76.2107 354.639 75.6827 354.276 75C353.913 74.3173 353.732 73.5173 353.732 72.6ZM370.491 77L367.051 73.128V77H365.595V65.16H367.051V72.12L370.427 68.232H372.459L368.331 72.6L372.475 77H370.491ZM376.933 74.984L375.141 79.288H374.165L375.333 74.984H376.933ZM387.843 69.432V74.6C387.843 75.0267 387.933 75.3307 388.115 75.512C388.296 75.6827 388.611 75.768 389.059 75.768H390.131V77H388.819C388.008 77 387.4 76.8133 386.995 76.44C386.589 76.0667 386.387 75.4533 386.387 74.6V69.432H385.251V68.232H386.387V66.024H387.843V68.232H390.131V69.432H387.843ZM397.847 68.072C398.508 68.072 399.105 68.216 399.639 68.504C400.172 68.7813 400.588 69.2027 400.887 69.768C401.196 70.3333 401.351 71.0213 401.351 71.832V77H399.911V72.04C399.911 71.1653 399.692 70.4987 399.255 70.04C398.817 69.5707 398.22 69.336 397.463 69.336C396.695 69.336 396.081 69.576 395.623 70.056C395.175 70.536 394.951 71.2347 394.951 72.152V77H393.495V65.16H394.951V69.48C395.239 69.032 395.633 68.6853 396.135 68.44C396.647 68.1947 397.217 68.072 397.847 68.072ZM413.329 72.28C413.329 72.5573 413.313 72.8507 413.281 73.16H406.273C406.326 74.024 406.62 74.7013 407.153 75.192C407.697 75.672 408.353 75.912 409.121 75.912C409.75 75.912 410.273 75.768 410.689 75.48C411.116 75.1813 411.414 74.7867 411.585 74.296H413.153C412.918 75.1387 412.449 75.8267 411.745 76.36C411.041 76.8827 410.166 77.144 409.121 77.144C408.289 77.144 407.542 76.9573 406.881 76.584C406.23 76.2107 405.718 75.6827 405.345 75C404.972 74.3067 404.785 73.5067 404.785 72.6C404.785 71.6933 404.966 70.8987 405.329 70.216C405.692 69.5333 406.198 69.0107 406.849 68.648C407.51 68.2747 408.268 68.088 409.121 68.088C409.953 68.088 410.689 68.2693 411.329 68.632C411.969 68.9947 412.46 69.496 412.801 70.136C413.153 70.7653 413.329 71.48 413.329 72.28ZM411.825 71.976C411.825 71.4213 411.702 70.9467 411.457 70.552C411.212 70.1467 410.876 69.8427 410.449 69.64C410.033 69.4267 409.569 69.32 409.057 69.32C408.321 69.32 407.692 69.5547 407.169 70.024C406.657 70.4933 406.364 71.144 406.289 71.976H411.825ZM74.2116 93.848C74.4996 93.3467 74.9263 92.9307 75.4916 92.6C76.0676 92.2587 76.7343 92.088 77.4916 92.088C78.2703 92.088 78.9743 92.2747 79.6036 92.648C80.2436 93.0213 80.745 93.5493 81.1076 94.232C81.4703 94.904 81.6516 95.688 81.6516 96.584C81.6516 97.4693 81.4703 98.2587 81.1076 98.952C80.745 99.6453 80.2436 100.184 79.6036 100.568C78.9743 100.952 78.2703 101.144 77.4916 101.144C76.745 101.144 76.0836 100.979 75.5076 100.648C74.9423 100.307 74.5103 99.8853 74.2116 99.384V105.16H72.7556V92.232H74.2116V93.848ZM80.1636 96.584C80.1636 95.9227 80.0303 95.3467 79.7636 94.856C79.497 94.3653 79.1343 93.992 78.6756 93.736C78.2276 93.48 77.7316 93.352 77.1876 93.352C76.6543 93.352 76.1583 93.4853 75.6996 93.752C75.2516 94.008 74.889 94.3867 74.6116 94.888C74.345 95.3787 74.2116 95.9493 74.2116 96.6C74.2116 97.2613 74.345 97.8427 74.6116 98.344C74.889 98.8347 75.2516 99.2133 75.6996 99.48C76.1583 99.736 76.6543 99.864 77.1876 99.864C77.7316 99.864 78.2276 99.736 78.6756 99.48C79.1343 99.2133 79.497 98.8347 79.7636 98.344C80.0303 97.8427 80.1636 97.256 80.1636 96.584ZM86.6241 93.656C86.8801 93.1547 87.2428 92.7653 87.7121 92.488C88.1921 92.2107 88.7735 92.072 89.4561 92.072V93.576H89.0721C87.4401 93.576 86.6241 94.4613 86.6241 96.232V101H85.1681V92.232H86.6241V93.656ZM93.4889 90.808C93.2116 90.808 92.9769 90.712 92.7849 90.52C92.5929 90.328 92.4969 90.0933 92.4969 89.816C92.4969 89.5387 92.5929 89.304 92.7849 89.112C92.9769 88.92 93.2116 88.824 93.4889 88.824C93.7556 88.824 93.9796 88.92 94.1609 89.112C94.3529 89.304 94.4489 89.5387 94.4489 89.816C94.4489 90.0933 94.3529 90.328 94.1609 90.52C93.9796 90.712 93.7556 90.808 93.4889 90.808ZM94.1929 92.232V101H92.7369V92.232H94.1929ZM97.7304 96.6C97.7304 95.6933 97.9117 94.904 98.2744 94.232C98.6371 93.5493 99.1384 93.0213 99.7784 92.648C100.429 92.2747 101.17 92.088 102.002 92.088C103.08 92.088 103.965 92.3493 104.658 92.872C105.362 93.3947 105.826 94.12 106.05 95.048H104.482C104.333 94.5147 104.04 94.0933 103.602 93.784C103.176 93.4747 102.642 93.32 102.002 93.32C101.17 93.32 100.498 93.608 99.9864 94.184C99.4744 94.7493 99.2184 95.5547 99.2184 96.6C99.2184 97.656 99.4744 98.472 99.9864 99.048C100.498 99.624 101.17 99.912 102.002 99.912C102.642 99.912 103.176 99.7627 103.602 99.464C104.029 99.1653 104.322 98.7387 104.482 98.184H106.05C105.816 99.08 105.346 99.8 104.642 100.344C103.938 100.877 103.058 101.144 102.002 101.144C101.17 101.144 100.429 100.957 99.7784 100.584C99.1384 100.211 98.6371 99.6827 98.2744 99C97.9117 98.3173 97.7304 97.5173 97.7304 96.6ZM110.345 90.808C110.068 90.808 109.833 90.712 109.641 90.52C109.449 90.328 109.353 90.0933 109.353 89.816C109.353 89.5387 109.449 89.304 109.641 89.112C109.833 88.92 110.068 88.824 110.345 88.824C110.612 88.824 110.836 88.92 111.017 89.112C111.209 89.304 111.305 89.5387 111.305 89.816C111.305 90.0933 111.209 90.328 111.017 90.52C110.836 90.712 110.612 90.808 110.345 90.808ZM111.049 92.232V101H109.593V92.232H111.049ZM119.403 92.072C120.469 92.072 121.333 92.3973 121.995 93.048C122.656 93.688 122.987 94.616 122.987 95.832V101H121.547V96.04C121.547 95.1653 121.328 94.4987 120.891 94.04C120.453 93.5707 119.856 93.336 119.099 93.336C118.331 93.336 117.717 93.576 117.259 94.056C116.811 94.536 116.587 95.2347 116.587 96.152V101H115.131V92.232H116.587V93.48C116.875 93.032 117.264 92.6853 117.755 92.44C118.256 92.1947 118.805 92.072 119.403 92.072ZM130.581 92.088C131.338 92.088 132 92.2533 132.565 92.584C133.141 92.9147 133.568 93.3307 133.845 93.832V92.232H135.317V101.192C135.317 101.992 135.146 102.701 134.805 103.32C134.464 103.949 133.973 104.44 133.333 104.792C132.704 105.144 131.968 105.32 131.125 105.32C129.973 105.32 129.013 105.048 128.245 104.504C127.477 103.96 127.024 103.219 126.885 102.28H128.325C128.485 102.813 128.816 103.24 129.317 103.56C129.818 103.891 130.421 104.056 131.125 104.056C131.925 104.056 132.576 103.805 133.077 103.304C133.589 102.803 133.845 102.099 133.845 101.192V99.352C133.557 99.864 133.13 100.291 132.565 100.632C132 100.973 131.338 101.144 130.581 101.144C129.802 101.144 129.093 100.952 128.453 100.568C127.824 100.184 127.328 99.6453 126.965 98.952C126.602 98.2587 126.421 97.4693 126.421 96.584C126.421 95.688 126.602 94.904 126.965 94.232C127.328 93.5493 127.824 93.0213 128.453 92.648C129.093 92.2747 129.802 92.088 130.581 92.088ZM133.845 96.6C133.845 95.9387 133.712 95.3627 133.445 94.872C133.178 94.3813 132.816 94.008 132.357 93.752C131.909 93.4853 131.413 93.352 130.869 93.352C130.325 93.352 129.829 93.48 129.381 93.736C128.933 93.992 128.576 94.3653 128.309 94.856C128.042 95.3467 127.909 95.9227 127.909 96.584C127.909 97.256 128.042 97.8427 128.309 98.344C128.576 98.8347 128.933 99.2133 129.381 99.48C129.829 99.736 130.325 99.864 130.869 99.864C131.413 99.864 131.909 99.736 132.357 99.48C132.816 99.2133 133.178 98.8347 133.445 98.344C133.712 97.8427 133.845 97.2613 133.845 96.6ZM156.923 92.232L154.187 101H152.683L150.571 94.04L148.459 101H146.955L144.203 92.232H145.691L147.707 99.592L149.883 92.232H151.371L153.499 99.608L155.483 92.232H156.923ZM159.424 96.584C159.424 95.688 159.605 94.904 159.968 94.232C160.331 93.5493 160.827 93.0213 161.456 92.648C162.096 92.2747 162.805 92.088 163.584 92.088C164.352 92.088 165.019 92.2533 165.584 92.584C166.149 92.9147 166.571 93.3307 166.848 93.832V92.232H168.32V101H166.848V99.368C166.56 99.88 166.128 100.307 165.552 100.648C164.987 100.979 164.325 101.144 163.568 101.144C162.789 101.144 162.085 100.952 161.456 100.568C160.827 100.184 160.331 99.6453 159.968 98.952C159.605 98.2587 159.424 97.4693 159.424 96.584ZM166.848 96.6C166.848 95.9387 166.715 95.3627 166.448 94.872C166.181 94.3813 165.819 94.008 165.36 93.752C164.912 93.4853 164.416 93.352 163.872 93.352C163.328 93.352 162.832 93.48 162.384 93.736C161.936 93.992 161.579 94.3653 161.312 94.856C161.045 95.3467 160.912 95.9227 160.912 96.584C160.912 97.256 161.045 97.8427 161.312 98.344C161.579 98.8347 161.936 99.2133 162.384 99.48C162.832 99.736 163.328 99.864 163.872 99.864C164.416 99.864 164.912 99.736 165.36 99.48C165.819 99.2133 166.181 98.8347 166.448 98.344C166.715 97.8427 166.848 97.2613 166.848 96.6ZM175.485 101.144C174.813 101.144 174.21 101.032 173.677 100.808C173.143 100.573 172.722 100.253 172.413 99.848C172.103 99.432 171.933 98.9573 171.901 98.424H173.405C173.447 98.8613 173.65 99.2187 174.013 99.496C174.386 99.7733 174.871 99.912 175.469 99.912C176.023 99.912 176.461 99.7893 176.781 99.544C177.101 99.2987 177.261 98.9893 177.261 98.616C177.261 98.232 177.09 97.9493 176.749 97.768C176.407 97.576 175.879 97.3893 175.165 97.208C174.514 97.0373 173.981 96.8667 173.565 96.696C173.159 96.5147 172.807 96.2533 172.509 95.912C172.221 95.56 172.077 95.1013 172.077 94.536C172.077 94.088 172.21 93.6773 172.477 93.304C172.743 92.9307 173.122 92.6373 173.613 92.424C174.103 92.2 174.663 92.088 175.293 92.088C176.263 92.088 177.047 92.3333 177.645 92.824C178.242 93.3147 178.562 93.9867 178.605 94.84H177.149C177.117 94.3813 176.93 94.0133 176.589 93.736C176.258 93.4587 175.81 93.32 175.245 93.32C174.722 93.32 174.306 93.432 173.997 93.656C173.687 93.88 173.533 94.1733 173.533 94.536C173.533 94.824 173.623 95.064 173.805 95.256C173.997 95.4373 174.231 95.5867 174.509 95.704C174.797 95.8107 175.191 95.9333 175.693 96.072C176.322 96.2427 176.834 96.4133 177.229 96.584C177.623 96.744 177.959 96.9893 178.237 97.32C178.525 97.6507 178.674 98.0827 178.685 98.616C178.685 99.096 178.551 99.528 178.285 99.912C178.018 100.296 177.639 100.6 177.149 100.824C176.669 101.037 176.114 101.144 175.485 101.144ZM199.886 92.232L197.15 101H195.646L193.534 94.04L191.422 101H189.918L187.166 92.232H188.654L190.67 99.592L192.846 92.232H194.334L196.462 99.608L198.446 92.232H199.886ZM210.931 96.28C210.931 96.5573 210.915 96.8507 210.883 97.16H203.875C203.928 98.024 204.221 98.7013 204.755 99.192C205.299 99.672 205.955 99.912 206.723 99.912C207.352 99.912 207.875 99.768 208.291 99.48C208.717 99.1813 209.016 98.7867 209.187 98.296H210.755C210.52 99.1387 210.051 99.8267 209.347 100.36C208.643 100.883 207.768 101.144 206.723 101.144C205.891 101.144 205.144 100.957 204.483 100.584C203.832 100.211 203.32 99.6827 202.947 99C202.573 98.3067 202.387 97.5067 202.387 96.6C202.387 95.6933 202.568 94.8987 202.931 94.216C203.293 93.5333 203.8 93.0107 204.451 92.648C205.112 92.2747 205.869 92.088 206.723 92.088C207.555 92.088 208.291 92.2693 208.931 92.632C209.571 92.9947 210.061 93.496 210.403 94.136C210.755 94.7653 210.931 95.48 210.931 96.28ZM209.427 95.976C209.427 95.4213 209.304 94.9467 209.059 94.552C208.813 94.1467 208.477 93.8427 208.051 93.64C207.635 93.4267 207.171 93.32 206.659 93.32C205.923 93.32 205.293 93.5547 204.771 94.024C204.259 94.4933 203.965 95.144 203.891 95.976H209.427ZM215.909 89.16V101H214.453V89.16H215.909ZM221.446 89.16V101H219.99V89.16H221.446ZM243.073 92.232L240.337 101H238.833L236.721 94.04L234.609 101H233.105L230.353 92.232H231.841L233.857 99.592L236.033 92.232H237.521L239.649 99.608L241.633 92.232H243.073ZM246.87 90.808C246.593 90.808 246.358 90.712 246.166 90.52C245.974 90.328 245.878 90.0933 245.878 89.816C245.878 89.5387 245.974 89.304 246.166 89.112C246.358 88.92 246.593 88.824 246.87 88.824C247.137 88.824 247.361 88.92 247.542 89.112C247.734 89.304 247.83 89.5387 247.83 89.816C247.83 90.0933 247.734 90.328 247.542 90.52C247.361 90.712 247.137 90.808 246.87 90.808ZM247.574 92.232V101H246.118V92.232H247.574ZM253.432 93.432V98.6C253.432 99.0267 253.522 99.3307 253.704 99.512C253.885 99.6827 254.2 99.768 254.648 99.768H255.72V101H254.408C253.597 101 252.989 100.813 252.584 100.44C252.178 100.067 251.976 99.4533 251.976 98.6V93.432H250.84V92.232H251.976V90.024H253.432V92.232H255.72V93.432H253.432ZM263.436 92.072C264.097 92.072 264.694 92.216 265.228 92.504C265.761 92.7813 266.177 93.2027 266.476 93.768C266.785 94.3333 266.94 95.0213 266.94 95.832V101H265.5V96.04C265.5 95.1653 265.281 94.4987 264.844 94.04C264.406 93.5707 263.809 93.336 263.052 93.336C262.284 93.336 261.67 93.576 261.212 94.056C260.764 94.536 260.54 95.2347 260.54 96.152V101H259.084V89.16H260.54V93.48C260.828 93.032 261.222 92.6853 261.724 92.44C262.236 92.1947 262.806 92.072 263.436 92.072ZM271.67 90.808C271.393 90.808 271.158 90.712 270.966 90.52C270.774 90.328 270.678 90.0933 270.678 89.816C270.678 89.5387 270.774 89.304 270.966 89.112C271.158 88.92 271.393 88.824 271.67 88.824C271.937 88.824 272.161 88.92 272.342 89.112C272.534 89.304 272.63 89.5387 272.63 89.816C272.63 90.0933 272.534 90.328 272.342 90.52C272.161 90.712 271.937 90.808 271.67 90.808ZM272.374 92.232V101H270.918V92.232H272.374ZM280.728 92.072C281.794 92.072 282.658 92.3973 283.32 93.048C283.981 93.688 284.312 94.616 284.312 95.832V101H282.872V96.04C282.872 95.1653 282.653 94.4987 282.216 94.04C281.778 93.5707 281.181 93.336 280.424 93.336C279.656 93.336 279.042 93.576 278.584 94.056C278.136 94.536 277.912 95.2347 277.912 96.152V101H276.456V92.232H277.912V93.48C278.2 93.032 278.589 92.6853 279.08 92.44C279.581 92.1947 280.13 92.072 280.728 92.072ZM295.612 93.656C295.868 93.1547 296.23 92.7653 296.7 92.488C297.18 92.2107 297.761 92.072 298.444 92.072V93.576H298.06C296.428 93.576 295.612 94.4613 295.612 96.232V101H294.156V92.232H295.612V93.656ZM309.724 96.28C309.724 96.5573 309.708 96.8507 309.676 97.16H302.668C302.722 98.024 303.015 98.7013 303.548 99.192C304.092 99.672 304.748 99.912 305.516 99.912C306.146 99.912 306.668 99.768 307.084 99.48C307.511 99.1813 307.81 98.7867 307.98 98.296H309.548C309.314 99.1387 308.844 99.8267 308.14 100.36C307.436 100.883 306.562 101.144 305.516 101.144C304.684 101.144 303.938 100.957 303.276 100.584C302.626 100.211 302.114 99.6827 301.74 99C301.367 98.3067 301.18 97.5067 301.18 96.6C301.18 95.6933 301.362 94.8987 301.724 94.216C302.087 93.5333 302.594 93.0107 303.244 92.648C303.906 92.2747 304.663 92.088 305.516 92.088C306.348 92.088 307.084 92.2693 307.724 92.632C308.364 92.9947 308.855 93.496 309.196 94.136C309.548 94.7653 309.724 95.48 309.724 96.28ZM308.22 95.976C308.22 95.4213 308.098 94.9467 307.852 94.552C307.607 94.1467 307.271 93.8427 306.844 93.64C306.428 93.4267 305.964 93.32 305.452 93.32C304.716 93.32 304.087 93.5547 303.564 94.024C303.052 94.4933 302.759 95.144 302.684 95.976H308.22ZM312.702 96.584C312.702 95.688 312.884 94.904 313.246 94.232C313.609 93.5493 314.105 93.0213 314.734 92.648C315.374 92.2747 316.084 92.088 316.862 92.088C317.63 92.088 318.297 92.2533 318.862 92.584C319.428 92.9147 319.849 93.3307 320.126 93.832V92.232H321.598V101H320.126V99.368C319.838 99.88 319.406 100.307 318.83 100.648C318.265 100.979 317.604 101.144 316.846 101.144C316.068 101.144 315.364 100.952 314.734 100.568C314.105 100.184 313.609 99.6453 313.246 98.952C312.884 98.2587 312.702 97.4693 312.702 96.584ZM320.126 96.6C320.126 95.9387 319.993 95.3627 319.726 94.872C319.46 94.3813 319.097 94.008 318.638 93.752C318.19 93.4853 317.694 93.352 317.15 93.352C316.606 93.352 316.11 93.48 315.662 93.736C315.214 93.992 314.857 94.3653 314.59 94.856C314.324 95.3467 314.19 95.9227 314.19 96.584C314.19 97.256 314.324 97.8427 314.59 98.344C314.857 98.8347 315.214 99.2133 315.662 99.48C316.11 99.736 316.606 99.864 317.15 99.864C317.694 99.864 318.19 99.736 318.638 99.48C319.097 99.2133 319.46 98.8347 319.726 98.344C319.993 97.8427 320.126 97.2613 320.126 96.6ZM328.763 101.144C328.091 101.144 327.488 101.032 326.955 100.808C326.421 100.573 326 100.253 325.691 99.848C325.381 99.432 325.211 98.9573 325.179 98.424H326.683C326.725 98.8613 326.928 99.2187 327.291 99.496C327.664 99.7733 328.149 99.912 328.747 99.912C329.301 99.912 329.739 99.7893 330.059 99.544C330.379 99.2987 330.539 98.9893 330.539 98.616C330.539 98.232 330.368 97.9493 330.027 97.768C329.685 97.576 329.157 97.3893 328.443 97.208C327.792 97.0373 327.259 96.8667 326.843 96.696C326.437 96.5147 326.085 96.2533 325.787 95.912C325.499 95.56 325.355 95.1013 325.355 94.536C325.355 94.088 325.488 93.6773 325.755 93.304C326.021 92.9307 326.4 92.6373 326.891 92.424C327.381 92.2 327.941 92.088 328.571 92.088C329.541 92.088 330.325 92.3333 330.923 92.824C331.52 93.3147 331.84 93.9867 331.883 94.84H330.427C330.395 94.3813 330.208 94.0133 329.867 93.736C329.536 93.4587 329.088 93.32 328.523 93.32C328 93.32 327.584 93.432 327.275 93.656C326.965 93.88 326.811 94.1733 326.811 94.536C326.811 94.824 326.901 95.064 327.083 95.256C327.275 95.4373 327.509 95.5867 327.787 95.704C328.075 95.8107 328.469 95.9333 328.971 96.072C329.6 96.2427 330.112 96.4133 330.507 96.584C330.901 96.744 331.237 96.9893 331.515 97.32C331.803 97.6507 331.952 98.0827 331.963 98.616C331.963 99.096 331.829 99.528 331.563 99.912C331.296 100.296 330.917 100.6 330.427 100.824C329.947 101.037 329.392 101.144 328.763 101.144ZM339.442 101.144C338.621 101.144 337.874 100.957 337.202 100.584C336.541 100.211 336.018 99.6827 335.634 99C335.261 98.3067 335.074 97.5067 335.074 96.6C335.074 95.704 335.266 94.9147 335.65 94.232C336.045 93.5387 336.578 93.0107 337.25 92.648C337.922 92.2747 338.674 92.088 339.506 92.088C340.338 92.088 341.09 92.2747 341.762 92.648C342.434 93.0107 342.962 93.5333 343.346 94.216C343.741 94.8987 343.938 95.6933 343.938 96.6C343.938 97.5067 343.735 98.3067 343.33 99C342.935 99.6827 342.397 100.211 341.714 100.584C341.031 100.957 340.274 101.144 339.442 101.144ZM339.442 99.864C339.965 99.864 340.455 99.7413 340.914 99.496C341.373 99.2507 341.741 98.8827 342.018 98.392C342.306 97.9013 342.45 97.304 342.45 96.6C342.45 95.896 342.311 95.2987 342.034 94.808C341.757 94.3173 341.394 93.9547 340.946 93.72C340.498 93.4747 340.013 93.352 339.49 93.352C338.957 93.352 338.466 93.4747 338.018 93.72C337.581 93.9547 337.229 94.3173 336.962 94.808C336.695 95.2987 336.562 95.896 336.562 96.6C336.562 97.3147 336.69 97.9173 336.946 98.408C337.213 98.8987 337.565 99.2667 338.002 99.512C338.439 99.7467 338.919 99.864 339.442 99.864ZM351.725 92.072C352.791 92.072 353.655 92.3973 354.317 93.048C354.978 93.688 355.309 94.616 355.309 95.832V101H353.869V96.04C353.869 95.1653 353.65 94.4987 353.213 94.04C352.775 93.5707 352.178 93.336 351.421 93.336C350.653 93.336 350.039 93.576 349.581 94.056C349.133 94.536 348.909 95.2347 348.909 96.152V101H347.453V92.232H348.909V93.48C349.197 93.032 349.586 92.6853 350.077 92.44C350.578 92.1947 351.127 92.072 351.725 92.072ZM359.751 101.096C359.474 101.096 359.239 101 359.047 100.808C358.855 100.616 358.759 100.381 358.759 100.104C358.759 99.8267 358.855 99.592 359.047 99.4C359.239 99.208 359.474 99.112 359.751 99.112C360.018 99.112 360.242 99.208 360.423 99.4C360.615 99.592 360.711 99.8267 360.711 100.104C360.711 100.381 360.615 100.616 360.423 100.808C360.242 101 360.018 101.096 359.751 101.096ZM371.568 89.848V101H370.112V89.848H371.568ZM393.195 92.232L390.459 101H388.955L386.843 94.04L384.731 101H383.227L380.475 92.232H381.963L383.979 99.592L386.155 92.232H387.643L389.771 99.608L391.755 92.232H393.195ZM400.064 101.144C399.243 101.144 398.496 100.957 397.824 100.584C397.163 100.211 396.64 99.6827 396.256 99C395.883 98.3067 395.696 97.5067 395.696 96.6C395.696 95.704 395.888 94.9147 396.272 94.232C396.667 93.5387 397.2 93.0107 397.872 92.648C398.544 92.2747 399.296 92.088 400.128 92.088C400.96 92.088 401.712 92.2747 402.384 92.648C403.056 93.0107 403.584 93.5333 403.968 94.216C404.363 94.8987 404.56 95.6933 404.56 96.6C404.56 97.5067 404.357 98.3067 403.952 99C403.557 99.6827 403.019 100.211 402.336 100.584C401.653 100.957 400.896 101.144 400.064 101.144ZM400.064 99.864C400.587 99.864 401.077 99.7413 401.536 99.496C401.995 99.2507 402.363 98.8827 402.64 98.392C402.928 97.9013 403.072 97.304 403.072 96.6C403.072 95.896 402.933 95.2987 402.656 94.808C402.379 94.3173 402.016 93.9547 401.568 93.72C401.12 93.4747 400.635 93.352 400.112 93.352C399.579 93.352 399.088 93.4747 398.64 93.72C398.203 93.9547 397.851 94.3173 397.584 94.808C397.317 95.2987 397.184 95.896 397.184 96.6C397.184 97.3147 397.312 97.9173 397.568 98.408C397.835 98.8987 398.187 99.2667 398.624 99.512C399.061 99.7467 399.541 99.864 400.064 99.864ZM415.85 92.232V101H414.394V99.704C414.117 100.152 413.728 100.504 413.226 100.76C412.736 101.005 412.192 101.128 411.594 101.128C410.912 101.128 410.298 100.989 409.754 100.712C409.21 100.424 408.778 99.9973 408.458 99.432C408.149 98.8667 407.994 98.1787 407.994 97.368V92.232H409.434V97.176C409.434 98.04 409.653 98.7067 410.09 99.176C410.528 99.6347 411.125 99.864 411.882 99.864C412.661 99.864 413.274 99.624 413.722 99.144C414.17 98.664 414.394 97.9653 414.394 97.048V92.232H415.85ZM421.365 89.16V101H419.909V89.16H421.365ZM424.902 96.584C424.902 95.688 425.084 94.904 425.446 94.232C425.809 93.5493 426.305 93.0213 426.934 92.648C427.574 92.2747 428.289 92.088 429.078 92.088C429.761 92.088 430.396 92.248 430.982 92.568C431.569 92.8773 432.017 93.288 432.326 93.8V89.16H433.798V101H432.326V99.352C432.038 99.8747 431.612 100.307 431.046 100.648C430.481 100.979 429.82 101.144 429.062 101.144C428.284 101.144 427.574 100.952 426.934 100.568C426.305 100.184 425.809 99.6453 425.446 98.952C425.084 98.2587 424.902 97.4693 424.902 96.584ZM432.326 96.6C432.326 95.9387 432.193 95.3627 431.926 94.872C431.66 94.3813 431.297 94.008 430.838 93.752C430.39 93.4853 429.894 93.352 429.35 93.352C428.806 93.352 428.31 93.48 427.862 93.736C427.414 93.992 427.057 94.3653 426.79 94.856C426.524 95.3467 426.39 95.9227 426.39 96.584C426.39 97.256 426.524 97.8427 426.79 98.344C427.057 98.8347 427.414 99.2133 427.862 99.48C428.31 99.736 428.806 99.864 429.35 99.864C429.894 99.864 430.39 99.736 430.838 99.48C431.297 99.2133 431.66 98.8347 431.926 98.344C432.193 97.8427 432.326 97.2613 432.326 96.6ZM64.9523 117.656C65.2083 117.155 65.5709 116.765 66.0403 116.488C66.5203 116.211 67.1016 116.072 67.7843 116.072V117.576H67.4003C65.7683 117.576 64.9523 118.461 64.9523 120.232V125H63.4963V116.232H64.9523V117.656ZM79.065 120.28C79.065 120.557 79.049 120.851 79.017 121.16H72.009C72.0623 122.024 72.3557 122.701 72.889 123.192C73.433 123.672 74.089 123.912 74.857 123.912C75.4863 123.912 76.009 123.768 76.425 123.48C76.8517 123.181 77.1503 122.787 77.321 122.296H78.889C78.6543 123.139 78.185 123.827 77.481 124.36C76.777 124.883 75.9023 125.144 74.857 125.144C74.025 125.144 73.2783 124.957 72.617 124.584C71.9663 124.211 71.4543 123.683 71.081 123C70.7077 122.307 70.521 121.507 70.521 120.6C70.521 119.693 70.7023 118.899 71.065 118.216C71.4277 117.533 71.9343 117.011 72.585 116.648C73.2463 116.275 74.0037 116.088 74.857 116.088C75.689 116.088 76.425 116.269 77.065 116.632C77.705 116.995 78.1957 117.496 78.537 118.136C78.889 118.765 79.065 119.48 79.065 120.28ZM77.561 119.976C77.561 119.421 77.4383 118.947 77.193 118.552C76.9477 118.147 76.6117 117.843 76.185 117.64C75.769 117.427 75.305 117.32 74.793 117.32C74.057 117.32 73.4277 117.555 72.905 118.024C72.393 118.493 72.0997 119.144 72.025 119.976H77.561ZM82.0429 120.6C82.0429 119.693 82.2242 118.904 82.5869 118.232C82.9495 117.549 83.4509 117.021 84.0909 116.648C84.7415 116.275 85.4829 116.088 86.3149 116.088C87.3922 116.088 88.2775 116.349 88.9709 116.872C89.6749 117.395 90.1389 118.12 90.3629 119.048H88.7949C88.6455 118.515 88.3522 118.093 87.9149 117.784C87.4882 117.475 86.9549 117.32 86.3149 117.32C85.4829 117.32 84.8109 117.608 84.2989 118.184C83.7869 118.749 83.5309 119.555 83.5309 120.6C83.5309 121.656 83.7869 122.472 84.2989 123.048C84.8109 123.624 85.4829 123.912 86.3149 123.912C86.9549 123.912 87.4882 123.763 87.9149 123.464C88.3415 123.165 88.6349 122.739 88.7949 122.184H90.3629C90.1282 123.08 89.6589 123.8 88.9549 124.344C88.2509 124.877 87.3709 125.144 86.3149 125.144C85.4829 125.144 84.7415 124.957 84.0909 124.584C83.4509 124.211 82.9495 123.683 82.5869 123C82.2242 122.317 82.0429 121.517 82.0429 120.6ZM97.7296 125.144C96.9083 125.144 96.1616 124.957 95.4896 124.584C94.8283 124.211 94.3056 123.683 93.9216 123C93.5483 122.307 93.3616 121.507 93.3616 120.6C93.3616 119.704 93.5536 118.915 93.9376 118.232C94.3323 117.539 94.8656 117.011 95.5376 116.648C96.2096 116.275 96.9616 116.088 97.7936 116.088C98.6256 116.088 99.3776 116.275 100.05 116.648C100.722 117.011 101.25 117.533 101.634 118.216C102.028 118.899 102.226 119.693 102.226 120.6C102.226 121.507 102.023 122.307 101.618 123C101.223 123.683 100.684 124.211 100.002 124.584C99.319 124.957 98.5616 125.144 97.7296 125.144ZM97.7296 123.864C98.2523 123.864 98.743 123.741 99.2016 123.496C99.6603 123.251 100.028 122.883 100.306 122.392C100.594 121.901 100.738 121.304 100.738 120.6C100.738 119.896 100.599 119.299 100.322 118.808C100.044 118.317 99.6816 117.955 99.2336 117.72C98.7856 117.475 98.3003 117.352 97.7776 117.352C97.2443 117.352 96.7536 117.475 96.3056 117.72C95.8683 117.955 95.5163 118.317 95.2496 118.808C94.983 119.299 94.8496 119.896 94.8496 120.6C94.8496 121.315 94.9776 121.917 95.2336 122.408C95.5003 122.899 95.8523 123.267 96.2896 123.512C96.727 123.747 97.207 123.864 97.7296 123.864ZM116.284 116.072C116.967 116.072 117.575 116.216 118.108 116.504C118.641 116.781 119.063 117.203 119.372 117.768C119.681 118.333 119.836 119.021 119.836 119.832V125H118.396V120.04C118.396 119.165 118.177 118.499 117.74 118.04C117.313 117.571 116.732 117.336 115.996 117.336C115.239 117.336 114.636 117.581 114.188 118.072C113.74 118.552 113.516 119.251 113.516 120.168V125H112.076V120.04C112.076 119.165 111.857 118.499 111.42 118.04C110.993 117.571 110.412 117.336 109.676 117.336C108.919 117.336 108.316 117.581 107.868 118.072C107.42 118.552 107.196 119.251 107.196 120.168V125H105.74V116.232H107.196V117.496C107.484 117.037 107.868 116.685 108.348 116.44C108.839 116.195 109.377 116.072 109.964 116.072C110.7 116.072 111.351 116.237 111.916 116.568C112.481 116.899 112.903 117.384 113.18 118.024C113.425 117.405 113.831 116.925 114.396 116.584C114.961 116.243 115.591 116.072 116.284 116.072ZM134.368 116.072C135.051 116.072 135.659 116.216 136.192 116.504C136.726 116.781 137.147 117.203 137.456 117.768C137.766 118.333 137.92 119.021 137.92 119.832V125H136.48V120.04C136.48 119.165 136.262 118.499 135.824 118.04C135.398 117.571 134.816 117.336 134.08 117.336C133.323 117.336 132.72 117.581 132.272 118.072C131.824 118.552 131.6 119.251 131.6 120.168V125H130.16V120.04C130.16 119.165 129.942 118.499 129.504 118.04C129.078 117.571 128.496 117.336 127.76 117.336C127.003 117.336 126.4 117.581 125.952 118.072C125.504 118.552 125.28 119.251 125.28 120.168V125H123.824V116.232H125.28V117.496C125.568 117.037 125.952 116.685 126.432 116.44C126.923 116.195 127.462 116.072 128.048 116.072C128.784 116.072 129.435 116.237 130 116.568C130.566 116.899 130.987 117.384 131.264 118.024C131.51 117.405 131.915 116.925 132.48 116.584C133.046 116.243 133.675 116.072 134.368 116.072ZM149.909 120.28C149.909 120.557 149.893 120.851 149.861 121.16H142.853C142.906 122.024 143.199 122.701 143.733 123.192C144.277 123.672 144.933 123.912 145.701 123.912C146.33 123.912 146.853 123.768 147.269 123.48C147.695 123.181 147.994 122.787 148.165 122.296H149.733C149.498 123.139 149.029 123.827 148.325 124.36C147.621 124.883 146.746 125.144 145.701 125.144C144.869 125.144 144.122 124.957 143.461 124.584C142.81 124.211 142.298 123.683 141.925 123C141.551 122.307 141.365 121.507 141.365 120.6C141.365 119.693 141.546 118.899 141.909 118.216C142.271 117.533 142.778 117.011 143.429 116.648C144.09 116.275 144.847 116.088 145.701 116.088C146.533 116.088 147.269 116.269 147.909 116.632C148.549 116.995 149.039 117.496 149.381 118.136C149.733 118.765 149.909 119.48 149.909 120.28ZM148.405 119.976C148.405 119.421 148.282 118.947 148.037 118.552C147.791 118.147 147.455 117.843 147.029 117.64C146.613 117.427 146.149 117.32 145.637 117.32C144.901 117.32 144.271 117.555 143.749 118.024C143.237 118.493 142.943 119.144 142.869 119.976H148.405ZM157.703 116.072C158.769 116.072 159.633 116.397 160.295 117.048C160.956 117.688 161.287 118.616 161.287 119.832V125H159.847V120.04C159.847 119.165 159.628 118.499 159.191 118.04C158.753 117.571 158.156 117.336 157.399 117.336C156.631 117.336 156.017 117.576 155.559 118.056C155.111 118.536 154.887 119.235 154.887 120.152V125H153.431V116.232H154.887V117.48C155.175 117.032 155.564 116.685 156.055 116.44C156.556 116.195 157.105 116.072 157.703 116.072ZM164.721 120.584C164.721 119.688 164.902 118.904 165.265 118.232C165.628 117.549 166.124 117.021 166.753 116.648C167.393 116.275 168.108 116.088 168.897 116.088C169.58 116.088 170.214 116.248 170.801 116.568C171.388 116.877 171.836 117.288 172.145 117.8V113.16H173.617V125H172.145V123.352C171.857 123.875 171.43 124.307 170.865 124.648C170.3 124.979 169.638 125.144 168.881 125.144C168.102 125.144 167.393 124.952 166.753 124.568C166.124 124.184 165.628 123.645 165.265 122.952C164.902 122.259 164.721 121.469 164.721 120.584ZM172.145 120.6C172.145 119.939 172.012 119.363 171.745 118.872C171.478 118.381 171.116 118.008 170.657 117.752C170.209 117.485 169.713 117.352 169.169 117.352C168.625 117.352 168.129 117.48 167.681 117.736C167.233 117.992 166.876 118.365 166.609 118.856C166.342 119.347 166.209 119.923 166.209 120.584C166.209 121.256 166.342 121.843 166.609 122.344C166.876 122.835 167.233 123.213 167.681 123.48C168.129 123.736 168.625 123.864 169.169 123.864C169.713 123.864 170.209 123.736 170.657 123.48C171.116 123.213 171.478 122.835 171.745 122.344C172.012 121.843 172.145 121.261 172.145 120.6ZM182.999 120.584C182.999 119.688 183.18 118.904 183.543 118.232C183.906 117.549 184.402 117.021 185.031 116.648C185.671 116.275 186.38 116.088 187.159 116.088C187.927 116.088 188.594 116.253 189.159 116.584C189.724 116.915 190.146 117.331 190.423 117.832V116.232H191.895V125H190.423V123.368C190.135 123.88 189.703 124.307 189.127 124.648C188.562 124.979 187.9 125.144 187.143 125.144C186.364 125.144 185.66 124.952 185.031 124.568C184.402 124.184 183.906 123.645 183.543 122.952C183.18 122.259 182.999 121.469 182.999 120.584ZM190.423 120.6C190.423 119.939 190.29 119.363 190.023 118.872C189.756 118.381 189.394 118.008 188.935 117.752C188.487 117.485 187.991 117.352 187.447 117.352C186.903 117.352 186.407 117.48 185.959 117.736C185.511 117.992 185.154 118.365 184.887 118.856C184.62 119.347 184.487 119.923 184.487 120.584C184.487 121.256 184.62 121.843 184.887 122.344C185.154 122.835 185.511 123.213 185.959 123.48C186.407 123.736 186.903 123.864 187.447 123.864C187.991 123.864 188.487 123.736 188.935 123.48C189.394 123.213 189.756 122.835 190.023 122.344C190.29 121.843 190.423 121.261 190.423 120.6ZM200.228 116.072C201.294 116.072 202.158 116.397 202.82 117.048C203.481 117.688 203.812 118.616 203.812 119.832V125H202.372V120.04C202.372 119.165 202.153 118.499 201.716 118.04C201.278 117.571 200.681 117.336 199.924 117.336C199.156 117.336 198.542 117.576 198.084 118.056C197.636 118.536 197.412 119.235 197.412 120.152V125H195.956V116.232H197.412V117.48C197.7 117.032 198.089 116.685 198.58 116.44C199.081 116.195 199.63 116.072 200.228 116.072ZM215.342 116.232L210.062 129.128H208.558L210.286 124.904L206.75 116.232H208.366L211.118 123.336L213.838 116.232H215.342ZM222.23 125.144C221.408 125.144 220.662 124.957 219.99 124.584C219.328 124.211 218.806 123.683 218.422 123C218.048 122.307 217.862 121.507 217.862 120.6C217.862 119.704 218.054 118.915 218.438 118.232C218.832 117.539 219.366 117.011 220.038 116.648C220.71 116.275 221.462 116.088 222.294 116.088C223.126 116.088 223.878 116.275 224.55 116.648C225.222 117.011 225.75 117.533 226.134 118.216C226.528 118.899 226.726 119.693 226.726 120.6C226.726 121.507 226.523 122.307 226.118 123C225.723 123.683 225.184 124.211 224.502 124.584C223.819 124.957 223.062 125.144 222.23 125.144ZM222.23 123.864C222.752 123.864 223.243 123.741 223.702 123.496C224.16 123.251 224.528 122.883 224.806 122.392C225.094 121.901 225.238 121.304 225.238 120.6C225.238 119.896 225.099 119.299 224.822 118.808C224.544 118.317 224.182 117.955 223.734 117.72C223.286 117.475 222.8 117.352 222.278 117.352C221.744 117.352 221.254 117.475 220.806 117.72C220.368 117.955 220.016 118.317 219.75 118.808C219.483 119.299 219.35 119.896 219.35 120.6C219.35 121.315 219.478 121.917 219.734 122.408C220 122.899 220.352 123.267 220.79 123.512C221.227 123.747 221.707 123.864 222.23 123.864ZM234.512 116.072C235.579 116.072 236.443 116.397 237.104 117.048C237.765 117.688 238.096 118.616 238.096 119.832V125H236.656V120.04C236.656 119.165 236.437 118.499 236 118.04C235.563 117.571 234.965 117.336 234.208 117.336C233.44 117.336 232.827 117.576 232.368 118.056C231.92 118.536 231.696 119.235 231.696 120.152V125H230.24V116.232H231.696V117.48C231.984 117.032 232.373 116.685 232.864 116.44C233.365 116.195 233.915 116.072 234.512 116.072ZM250.074 120.28C250.074 120.557 250.058 120.851 250.026 121.16H243.018C243.072 122.024 243.365 122.701 243.898 123.192C244.442 123.672 245.098 123.912 245.866 123.912C246.496 123.912 247.018 123.768 247.434 123.48C247.861 123.181 248.16 122.787 248.33 122.296H249.898C249.664 123.139 249.194 123.827 248.49 124.36C247.786 124.883 246.912 125.144 245.866 125.144C245.034 125.144 244.288 124.957 243.626 124.584C242.976 124.211 242.464 123.683 242.09 123C241.717 122.307 241.53 121.507 241.53 120.6C241.53 119.693 241.712 118.899 242.074 118.216C242.437 117.533 242.944 117.011 243.594 116.648C244.256 116.275 245.013 116.088 245.866 116.088C246.698 116.088 247.434 116.269 248.074 116.632C248.714 116.995 249.205 117.496 249.546 118.136C249.898 118.765 250.074 119.48 250.074 120.28ZM248.57 119.976C248.57 119.421 248.448 118.947 248.202 118.552C247.957 118.147 247.621 117.843 247.194 117.64C246.778 117.427 246.314 117.32 245.802 117.32C245.066 117.32 244.437 117.555 243.914 118.024C243.402 118.493 243.109 119.144 243.034 119.976H248.57ZM263.814 116.072C264.475 116.072 265.073 116.216 265.606 116.504C266.139 116.781 266.555 117.203 266.854 117.768C267.163 118.333 267.318 119.021 267.318 119.832V125H265.878V120.04C265.878 119.165 265.659 118.499 265.222 118.04C264.785 117.571 264.187 117.336 263.43 117.336C262.662 117.336 262.049 117.576 261.59 118.056C261.142 118.536 260.918 119.235 260.918 120.152V125H259.462V113.16H260.918V117.48C261.206 117.032 261.601 116.685 262.102 116.44C262.614 116.195 263.185 116.072 263.814 116.072ZM279.296 120.28C279.296 120.557 279.28 120.851 279.248 121.16H272.24C272.294 122.024 272.587 122.701 273.12 123.192C273.664 123.672 274.32 123.912 275.088 123.912C275.718 123.912 276.24 123.768 276.656 123.48C277.083 123.181 277.382 122.787 277.552 122.296H279.12C278.886 123.139 278.416 123.827 277.712 124.36C277.008 124.883 276.134 125.144 275.088 125.144C274.256 125.144 273.51 124.957 272.848 124.584C272.198 124.211 271.686 123.683 271.312 123C270.939 122.307 270.752 121.507 270.752 120.6C270.752 119.693 270.934 118.899 271.296 118.216C271.659 117.533 272.166 117.011 272.816 116.648C273.478 116.275 274.235 116.088 275.088 116.088C275.92 116.088 276.656 116.269 277.296 116.632C277.936 116.995 278.427 117.496 278.768 118.136C279.12 118.765 279.296 119.48 279.296 120.28ZM277.792 119.976C277.792 119.421 277.67 118.947 277.424 118.552C277.179 118.147 276.843 117.843 276.416 117.64C276 117.427 275.536 117.32 275.024 117.32C274.288 117.32 273.659 117.555 273.136 118.024C272.624 118.493 272.331 119.144 272.256 119.976H277.792ZM284.274 117.656C284.53 117.155 284.893 116.765 285.362 116.488C285.842 116.211 286.423 116.072 287.106 116.072V117.576H286.722C285.09 117.576 284.274 118.461 284.274 120.232V125H282.818V116.232H284.274V117.656ZM298.387 120.28C298.387 120.557 298.371 120.851 298.339 121.16H291.331C291.384 122.024 291.678 122.701 292.211 123.192C292.755 123.672 293.411 123.912 294.179 123.912C294.808 123.912 295.331 123.768 295.747 123.48C296.174 123.181 296.472 122.787 296.643 122.296H298.211C297.976 123.139 297.507 123.827 296.803 124.36C296.099 124.883 295.224 125.144 294.179 125.144C293.347 125.144 292.6 124.957 291.939 124.584C291.288 124.211 290.776 123.683 290.403 123C290.03 122.307 289.843 121.507 289.843 120.6C289.843 119.693 290.024 118.899 290.387 118.216C290.75 117.533 291.256 117.011 291.907 116.648C292.568 116.275 293.326 116.088 294.179 116.088C295.011 116.088 295.747 116.269 296.387 116.632C297.027 116.995 297.518 117.496 297.859 118.136C298.211 118.765 298.387 119.48 298.387 120.28ZM296.883 119.976C296.883 119.421 296.76 118.947 296.515 118.552C296.27 118.147 295.934 117.843 295.507 117.64C295.091 117.427 294.627 117.32 294.115 117.32C293.379 117.32 292.75 117.555 292.227 118.024C291.715 118.493 291.422 119.144 291.347 119.976H296.883ZM303.797 113.848L303.621 121.848H302.405L302.229 113.848H303.797ZM303.077 125.096C302.799 125.096 302.565 125 302.373 124.808C302.181 124.616 302.085 124.381 302.085 124.104C302.085 123.827 302.181 123.592 302.373 123.4C302.565 123.208 302.799 123.112 303.077 123.112C303.343 123.112 303.567 123.208 303.749 123.4C303.941 123.592 304.037 123.827 304.037 124.104C304.037 124.381 303.941 124.616 303.749 124.808C303.567 125 303.343 125.096 303.077 125.096ZM323.356 113.848L319.148 125H317.468L313.26 113.848H314.812L318.316 123.464L321.82 113.848H323.356ZM334.552 120.28C334.552 120.557 334.536 120.851 334.504 121.16H327.496C327.55 122.024 327.843 122.701 328.376 123.192C328.92 123.672 329.576 123.912 330.344 123.912C330.974 123.912 331.496 123.768 331.912 123.48C332.339 123.181 332.638 122.787 332.808 122.296H334.376C334.142 123.139 333.672 123.827 332.968 124.36C332.264 124.883 331.39 125.144 330.344 125.144C329.512 125.144 328.766 124.957 328.104 124.584C327.454 124.211 326.942 123.683 326.568 123C326.195 122.307 326.008 121.507 326.008 120.6C326.008 119.693 326.19 118.899 326.552 118.216C326.915 117.533 327.422 117.011 328.072 116.648C328.734 116.275 329.491 116.088 330.344 116.088C331.176 116.088 331.912 116.269 332.552 116.632C333.192 116.995 333.683 117.496 334.024 118.136C334.376 118.765 334.552 119.48 334.552 120.28ZM333.048 119.976C333.048 119.421 332.926 118.947 332.68 118.552C332.435 118.147 332.099 117.843 331.672 117.64C331.256 117.427 330.792 117.32 330.28 117.32C329.544 117.32 328.915 117.555 328.392 118.024C327.88 118.493 327.587 119.144 327.512 119.976H333.048ZM339.53 117.656C339.786 117.155 340.149 116.765 340.618 116.488C341.098 116.211 341.68 116.072 342.362 116.072V117.576H341.978C340.346 117.576 339.53 118.461 339.53 120.232V125H338.074V116.232H339.53V117.656ZM353.195 116.232L347.915 129.128H346.411L348.139 124.904L344.603 116.232H346.219L348.971 123.336L351.691 116.232H353.195ZM365.228 125.144C364.556 125.144 363.954 125.032 363.42 124.808C362.887 124.573 362.466 124.253 362.156 123.848C361.847 123.432 361.676 122.957 361.644 122.424H363.148C363.191 122.861 363.394 123.219 363.756 123.496C364.13 123.773 364.615 123.912 365.212 123.912C365.767 123.912 366.204 123.789 366.524 123.544C366.844 123.299 367.004 122.989 367.004 122.616C367.004 122.232 366.834 121.949 366.492 121.768C366.151 121.576 365.623 121.389 364.908 121.208C364.258 121.037 363.724 120.867 363.308 120.696C362.903 120.515 362.551 120.253 362.252 119.912C361.964 119.56 361.82 119.101 361.82 118.536C361.82 118.088 361.954 117.677 362.22 117.304C362.487 116.931 362.866 116.637 363.356 116.424C363.847 116.2 364.407 116.088 365.036 116.088C366.007 116.088 366.791 116.333 367.388 116.824C367.986 117.315 368.306 117.987 368.348 118.84H366.892C366.86 118.381 366.674 118.013 366.332 117.736C366.002 117.459 365.554 117.32 364.988 117.32C364.466 117.32 364.05 117.432 363.74 117.656C363.431 117.88 363.276 118.173 363.276 118.536C363.276 118.824 363.367 119.064 363.548 119.256C363.74 119.437 363.975 119.587 364.252 119.704C364.54 119.811 364.935 119.933 365.436 120.072C366.066 120.243 366.578 120.413 366.972 120.584C367.367 120.744 367.703 120.989 367.98 121.32C368.268 121.651 368.418 122.083 368.428 122.616C368.428 123.096 368.295 123.528 368.028 123.912C367.762 124.296 367.383 124.6 366.892 124.824C366.412 125.037 365.858 125.144 365.228 125.144ZM371.54 120.584C371.54 119.688 371.721 118.904 372.084 118.232C372.446 117.549 372.942 117.021 373.572 116.648C374.212 116.275 374.921 116.088 375.7 116.088C376.468 116.088 377.134 116.253 377.7 116.584C378.265 116.915 378.686 117.331 378.964 117.832V116.232H380.436V125H378.964V123.368C378.676 123.88 378.244 124.307 377.668 124.648C377.102 124.979 376.441 125.144 375.684 125.144C374.905 125.144 374.201 124.952 373.572 124.568C372.942 124.184 372.446 123.645 372.084 122.952C371.721 122.259 371.54 121.469 371.54 120.584ZM378.964 120.6C378.964 119.939 378.83 119.363 378.564 118.872C378.297 118.381 377.934 118.008 377.476 117.752C377.028 117.485 376.532 117.352 375.988 117.352C375.444 117.352 374.948 117.48 374.5 117.736C374.052 117.992 373.694 118.365 373.428 118.856C373.161 119.347 373.028 119.923 373.028 120.584C373.028 121.256 373.161 121.843 373.428 122.344C373.694 122.835 374.052 123.213 374.5 123.48C374.948 123.736 375.444 123.864 375.988 123.864C376.532 123.864 377.028 123.736 377.476 123.48C377.934 123.213 378.297 122.835 378.564 122.344C378.83 121.843 378.964 121.261 378.964 120.6ZM386.272 117.432V122.6C386.272 123.027 386.363 123.331 386.544 123.512C386.726 123.683 387.04 123.768 387.488 123.768H388.56V125H387.248C386.438 125 385.83 124.813 385.424 124.44C385.019 124.067 384.816 123.453 384.816 122.6V117.432H383.68V116.232H384.816V114.024H386.272V116.232H388.56V117.432H386.272ZM392.676 114.808C392.399 114.808 392.164 114.712 391.972 114.52C391.78 114.328 391.684 114.093 391.684 113.816C391.684 113.539 391.78 113.304 391.972 113.112C392.164 112.92 392.399 112.824 392.676 112.824C392.943 112.824 393.167 112.92 393.348 113.112C393.54 113.304 393.636 113.539 393.636 113.816C393.636 114.093 393.54 114.328 393.348 114.52C393.167 114.712 392.943 114.808 392.676 114.808ZM393.38 116.232V125H391.924V116.232H393.38ZM400.566 125.144C399.894 125.144 399.291 125.032 398.758 124.808C398.225 124.573 397.803 124.253 397.494 123.848C397.185 123.432 397.014 122.957 396.982 122.424H398.486C398.529 122.861 398.731 123.219 399.094 123.496C399.467 123.773 399.953 123.912 400.55 123.912C401.105 123.912 401.542 123.789 401.862 123.544C402.182 123.299 402.342 122.989 402.342 122.616C402.342 122.232 402.171 121.949 401.83 121.768C401.489 121.576 400.961 121.389 400.246 121.208C399.595 121.037 399.062 120.867 398.646 120.696C398.241 120.515 397.889 120.253 397.59 119.912C397.302 119.56 397.158 119.101 397.158 118.536C397.158 118.088 397.291 117.677 397.558 117.304C397.825 116.931 398.203 116.637 398.694 116.424C399.185 116.2 399.745 116.088 400.374 116.088C401.345 116.088 402.129 116.333 402.726 116.824C403.323 117.315 403.643 117.987 403.686 118.84H402.23C402.198 118.381 402.011 118.013 401.67 117.736C401.339 117.459 400.891 117.32 400.326 117.32C399.803 117.32 399.387 117.432 399.078 117.656C398.769 117.88 398.614 118.173 398.614 118.536C398.614 118.824 398.705 119.064 398.886 119.256C399.078 119.437 399.313 119.587 399.59 119.704C399.878 119.811 400.273 119.933 400.774 120.072C401.403 120.243 401.915 120.413 402.31 120.584C402.705 120.744 403.041 120.989 403.318 121.32C403.606 121.651 403.755 122.083 403.766 122.616C403.766 123.096 403.633 123.528 403.366 123.912C403.099 124.296 402.721 124.6 402.23 124.824C401.75 125.037 401.195 125.144 400.566 125.144ZM410.989 117.432H409.149V125H407.693V117.432H406.557V116.232H407.693V115.608C407.693 114.627 407.944 113.912 408.445 113.464C408.957 113.005 409.773 112.776 410.893 112.776V113.992C410.253 113.992 409.8 114.12 409.533 114.376C409.277 114.621 409.149 115.032 409.149 115.608V116.232H410.989V117.432ZM415.039 114.808C414.762 114.808 414.527 114.712 414.335 114.52C414.143 114.328 414.047 114.093 414.047 113.816C414.047 113.539 414.143 113.304 414.335 113.112C414.527 112.92 414.762 112.824 415.039 112.824C415.306 112.824 415.53 112.92 415.711 113.112C415.903 113.304 415.999 113.539 415.999 113.816C415.999 114.093 415.903 114.328 415.711 114.52C415.53 114.712 415.306 114.808 415.039 114.808ZM415.743 116.232V125H414.287V116.232H415.743ZM427.824 120.28C427.824 120.557 427.808 120.851 427.776 121.16H420.768C420.822 122.024 421.115 122.701 421.648 123.192C422.192 123.672 422.848 123.912 423.616 123.912C424.246 123.912 424.768 123.768 425.184 123.48C425.611 123.181 425.91 122.787 426.08 122.296H427.648C427.414 123.139 426.944 123.827 426.24 124.36C425.536 124.883 424.662 125.144 423.616 125.144C422.784 125.144 422.038 124.957 421.376 124.584C420.726 124.211 420.214 123.683 419.84 123C419.467 122.307 419.28 121.507 419.28 120.6C419.28 119.693 419.462 118.899 419.824 118.216C420.187 117.533 420.694 117.011 421.344 116.648C422.006 116.275 422.763 116.088 423.616 116.088C424.448 116.088 425.184 116.269 425.824 116.632C426.464 116.995 426.955 117.496 427.296 118.136C427.648 118.765 427.824 119.48 427.824 120.28ZM426.32 119.976C426.32 119.421 426.198 118.947 425.952 118.552C425.707 118.147 425.371 117.843 424.944 117.64C424.528 117.427 424.064 117.32 423.552 117.32C422.816 117.32 422.187 117.555 421.664 118.024C421.152 118.493 420.859 119.144 420.784 119.976H426.32ZM430.802 120.584C430.802 119.688 430.984 118.904 431.346 118.232C431.709 117.549 432.205 117.021 432.834 116.648C433.474 116.275 434.189 116.088 434.978 116.088C435.661 116.088 436.296 116.248 436.882 116.568C437.469 116.877 437.917 117.288 438.226 117.8V113.16H439.698V125H438.226V123.352C437.938 123.875 437.512 124.307 436.946 124.648C436.381 124.979 435.72 125.144 434.962 125.144C434.184 125.144 433.474 124.952 432.834 124.568C432.205 124.184 431.709 123.645 431.346 122.952C430.984 122.259 430.802 121.469 430.802 120.584ZM438.226 120.6C438.226 119.939 438.093 119.363 437.826 118.872C437.56 118.381 437.197 118.008 436.738 117.752C436.29 117.485 435.794 117.352 435.25 117.352C434.706 117.352 434.21 117.48 433.762 117.736C433.314 117.992 432.957 118.365 432.69 118.856C432.424 119.347 432.29 119.923 432.29 120.584C432.29 121.256 432.424 121.843 432.69 122.344C432.957 122.835 433.314 123.213 433.762 123.48C434.21 123.736 434.706 123.864 435.25 123.864C435.794 123.864 436.29 123.736 436.738 123.48C437.197 123.213 437.56 122.835 437.826 122.344C438.093 121.843 438.226 121.261 438.226 120.6ZM444.223 125.096C443.945 125.096 443.711 125 443.519 124.808C443.327 124.616 443.231 124.381 443.231 124.104C443.231 123.827 443.327 123.592 443.519 123.4C443.711 123.208 443.945 123.112 444.223 123.112C444.489 123.112 444.713 123.208 444.895 123.4C445.087 123.592 445.183 123.827 445.183 124.104C445.183 124.381 445.087 124.616 444.895 124.808C444.713 125 444.489 125.096 444.223 125.096Z" fill="white"/>
<path opacity="0.2" d="M275 141L460.991 141" stroke="white"/>
<path d="M60.8643 35.6367C58.9111 37.0527 56.7871 38.1514 54.4922 38.9326C52.2461 39.7139 50.0488 40.1045 47.9004 40.1045C46.4355 40.1045 45.0195 39.9092 43.6523 39.5186C42.334 39.0791 41.1621 38.4443 40.1367 37.6143C39.1113 36.7842 38.2812 35.7344 37.6465 34.4648C37.0605 33.1465 36.7676 31.6328 36.7676 29.9238C36.7676 27.873 37.0605 25.9443 37.6465 24.1377C38.2324 22.2822 39.1357 20.2803 40.3564 18.1318C41.5771 15.9346 43.0908 13.4687 44.8975 10.7344C46.7041 8 48.8281 4.72852 51.2695 0.919922H63.8672L56.1768 22.0869L60.8643 35.6367ZM28.4912 35.7832C26.5381 37.1992 24.4141 38.2979 22.1191 39.0791C19.873 39.8115 17.6758 40.1777 15.5273 40.1777C14.0625 40.1777 12.6465 39.9824 11.2793 39.5918C9.96094 39.1523 8.78906 38.5176 7.76367 37.6875C6.73828 36.8574 5.9082 35.8076 5.27344 34.5381C4.6875 33.2197 4.39453 31.7061 4.39453 29.9971C4.39453 27.9463 4.6875 26.0176 5.27344 24.2109C5.85938 22.3555 6.7627 20.3535 7.9834 18.2051C9.2041 16.0078 10.7178 13.542 12.5244 10.8076C14.3311 8.07324 16.4551 4.80176 18.8965 0.993164H31.4941L23.8037 22.1602L28.4912 35.7832Z" fill="white" fill-opacity="0.5"/>
</svg>
