<svg width="475" height="183" viewBox="0 0 475 183" fill="none" xmlns="http://www.w3.org/2000/svg">
<path opacity="0.7" d="M27 27.6198C27 22.8592 30.0858 19 33.8923 19H468.108C471.914 19 475 22.8592 475 27.6198V174.38C475 179.141 471.914 183 468.108 183H33.8923C30.0858 183 27 179.141 27 174.38V27.6198Z" fill="#950E0E"/>
<path d="M378.627 154.06V164.36C378.627 165.507 378.274 166.427 377.567 167.12C376.86 167.8 375.927 168.14 374.767 168.14C373.594 168.14 372.654 167.793 371.947 167.1C371.24 166.393 370.887 165.433 370.887 164.22H372.707C372.72 164.9 372.894 165.453 373.227 165.88C373.574 166.307 374.087 166.52 374.767 166.52C375.447 166.52 375.954 166.32 376.287 165.92C376.62 165.507 376.787 164.987 376.787 164.36V154.06H378.627ZM390.533 168.14C389.239 168.14 388.059 167.84 386.993 167.24C385.926 166.627 385.079 165.78 384.453 164.7C383.839 163.607 383.533 162.38 383.533 161.02C383.533 159.66 383.839 158.44 384.453 157.36C385.079 156.267 385.926 155.42 386.993 154.82C388.059 154.207 389.239 153.9 390.533 153.9C391.839 153.9 393.026 154.207 394.093 154.82C395.159 155.42 395.999 156.26 396.613 157.34C397.226 158.42 397.533 159.647 397.533 161.02C397.533 162.393 397.226 163.62 396.613 164.7C395.999 165.78 395.159 166.627 394.093 167.24C393.026 167.84 391.839 168.14 390.533 168.14ZM390.533 166.56C391.506 166.56 392.379 166.333 393.153 165.88C393.939 165.427 394.553 164.78 394.993 163.94C395.446 163.1 395.673 162.127 395.673 161.02C395.673 159.9 395.446 158.927 394.993 158.1C394.553 157.26 393.946 156.613 393.173 156.16C392.399 155.707 391.519 155.48 390.533 155.48C389.546 155.48 388.666 155.707 387.893 156.16C387.119 156.613 386.506 157.26 386.053 158.1C385.613 158.927 385.393 159.9 385.393 161.02C385.393 162.127 385.613 163.1 386.053 163.94C386.506 164.78 387.119 165.427 387.893 165.88C388.679 166.333 389.559 166.56 390.533 166.56ZM416.247 160.82C416.754 160.9 417.214 161.107 417.627 161.44C418.054 161.773 418.387 162.187 418.627 162.68C418.881 163.173 419.007 163.7 419.007 164.26C419.007 164.967 418.827 165.607 418.467 166.18C418.107 166.74 417.581 167.187 416.887 167.52C416.207 167.84 415.401 168 414.467 168H409.267V154.06H414.267C415.214 154.06 416.021 154.22 416.687 154.54C417.354 154.847 417.854 155.267 418.187 155.8C418.521 156.333 418.687 156.933 418.687 157.6C418.687 158.427 418.461 159.113 418.007 159.66C417.567 160.193 416.981 160.58 416.247 160.82ZM411.087 160.08H414.147C415.001 160.08 415.661 159.88 416.127 159.48C416.594 159.08 416.827 158.527 416.827 157.82C416.827 157.113 416.594 156.56 416.127 156.16C415.661 155.76 414.987 155.56 414.107 155.56H411.087V160.08ZM414.307 166.5C415.214 166.5 415.921 166.287 416.427 165.86C416.934 165.433 417.187 164.84 417.187 164.08C417.187 163.307 416.921 162.7 416.387 162.26C415.854 161.807 415.141 161.58 414.247 161.58H411.087V166.5H414.307ZM425.353 155.54V160.2H430.433V161.7H425.353V166.5H431.033V168H423.533V154.04H431.033V155.54H425.353ZM444.367 154.06V155.54H440.567V168H438.747V155.54H434.927V154.06H444.367ZM459.347 154.06V168H457.527V161.68H450.427V168H448.607V154.06H450.427V160.18H457.527V154.06H459.347Z" fill="white" fill-opacity="0.5"/>
<path d="M111.767 84.08C111.458 83.4293 111.01 82.928 110.423 82.576C109.837 82.2133 109.154 82.032 108.375 82.032C107.597 82.032 106.893 82.2133 106.263 82.576C105.645 82.928 105.154 83.44 104.791 84.112C104.439 84.7733 104.263 85.5413 104.263 86.416C104.263 87.2907 104.439 88.0587 104.791 88.72C105.154 89.3813 105.645 89.8933 106.263 90.256C106.893 90.608 107.597 90.784 108.375 90.784C109.463 90.784 110.359 90.4587 111.063 89.808C111.767 89.1573 112.178 88.2773 112.295 87.168H107.847V85.984H113.847V87.104C113.762 88.0213 113.474 88.864 112.983 89.632C112.493 90.3893 111.847 90.992 111.047 91.44C110.247 91.8773 109.357 92.096 108.375 92.096C107.341 92.096 106.397 91.856 105.543 91.376C104.69 90.8853 104.013 90.208 103.511 89.344C103.021 88.48 102.775 87.504 102.775 86.416C102.775 85.328 103.021 84.352 103.511 83.488C104.013 82.6133 104.69 81.936 105.543 81.456C106.397 80.9653 107.341 80.72 108.375 80.72C109.559 80.72 110.605 81.0133 111.511 81.6C112.429 82.1867 113.095 83.0133 113.511 84.08H111.767ZM118.829 84.656C119.085 84.1547 119.447 83.7653 119.917 83.488C120.397 83.2107 120.978 83.072 121.661 83.072V84.576H121.277C119.645 84.576 118.829 85.4613 118.829 87.232V92H117.373V83.232H118.829V84.656ZM132.941 87.28C132.941 87.5573 132.925 87.8507 132.893 88.16H125.885C125.939 89.024 126.232 89.7013 126.765 90.192C127.309 90.672 127.965 90.912 128.733 90.912C129.363 90.912 129.885 90.768 130.301 90.48C130.728 90.1813 131.027 89.7867 131.197 89.296H132.765C132.531 90.1387 132.061 90.8267 131.357 91.36C130.653 91.8827 129.779 92.144 128.733 92.144C127.901 92.144 127.155 91.9573 126.493 91.584C125.843 91.2107 125.331 90.6827 124.957 90C124.584 89.3067 124.397 88.5067 124.397 87.6C124.397 86.6933 124.579 85.8987 124.941 85.216C125.304 84.5333 125.811 84.0107 126.461 83.648C127.123 83.2747 127.88 83.088 128.733 83.088C129.565 83.088 130.301 83.2693 130.941 83.632C131.581 83.9947 132.072 84.496 132.413 85.136C132.765 85.7653 132.941 86.48 132.941 87.28ZM131.437 86.976C131.437 86.4213 131.315 85.9467 131.069 85.552C130.824 85.1467 130.488 84.8427 130.061 84.64C129.645 84.4267 129.181 84.32 128.669 84.32C127.933 84.32 127.304 84.5547 126.781 85.024C126.269 85.4933 125.976 86.144 125.901 86.976H131.437ZM135.919 87.584C135.919 86.688 136.101 85.904 136.463 85.232C136.826 84.5493 137.322 84.0213 137.951 83.648C138.591 83.2747 139.301 83.088 140.079 83.088C140.847 83.088 141.514 83.2533 142.079 83.584C142.645 83.9147 143.066 84.3307 143.343 84.832V83.232H144.815V92H143.343V90.368C143.055 90.88 142.623 91.3067 142.047 91.648C141.482 91.9787 140.821 92.144 140.063 92.144C139.285 92.144 138.581 91.952 137.951 91.568C137.322 91.184 136.826 90.6453 136.463 89.952C136.101 89.2587 135.919 88.4693 135.919 87.584ZM143.343 87.6C143.343 86.9387 143.21 86.3627 142.943 85.872C142.677 85.3813 142.314 85.008 141.855 84.752C141.407 84.4853 140.911 84.352 140.367 84.352C139.823 84.352 139.327 84.48 138.879 84.736C138.431 84.992 138.074 85.3653 137.807 85.856C137.541 86.3467 137.407 86.9227 137.407 87.584C137.407 88.256 137.541 88.8427 137.807 89.344C138.074 89.8347 138.431 90.2133 138.879 90.48C139.327 90.736 139.823 90.864 140.367 90.864C140.911 90.864 141.407 90.736 141.855 90.48C142.314 90.2133 142.677 89.8347 142.943 89.344C143.21 88.8427 143.343 88.2613 143.343 87.6ZM150.652 84.432V89.6C150.652 90.0267 150.742 90.3307 150.924 90.512C151.105 90.6827 151.42 90.768 151.868 90.768H152.94V92H151.628C150.817 92 150.209 91.8133 149.804 91.44C149.398 91.0667 149.196 90.4533 149.196 89.6V84.432H148.06V83.232H149.196V81.024H150.652V83.232H152.94V84.432H150.652ZM165.273 92.144C164.601 92.144 163.999 92.032 163.465 91.808C162.932 91.5733 162.511 91.2533 162.201 90.848C161.892 90.432 161.721 89.9573 161.689 89.424H163.193C163.236 89.8613 163.439 90.2187 163.801 90.496C164.175 90.7733 164.66 90.912 165.257 90.912C165.812 90.912 166.249 90.7893 166.569 90.544C166.889 90.2987 167.049 89.9893 167.049 89.616C167.049 89.232 166.879 88.9493 166.537 88.768C166.196 88.576 165.668 88.3893 164.953 88.208C164.303 88.0373 163.769 87.8667 163.353 87.696C162.948 87.5147 162.596 87.2533 162.297 86.912C162.009 86.56 161.865 86.1013 161.865 85.536C161.865 85.088 161.999 84.6773 162.265 84.304C162.532 83.9307 162.911 83.6373 163.401 83.424C163.892 83.2 164.452 83.088 165.081 83.088C166.052 83.088 166.836 83.3333 167.433 83.824C168.031 84.3147 168.351 84.9867 168.393 85.84H166.937C166.905 85.3813 166.719 85.0133 166.377 84.736C166.047 84.4587 165.599 84.32 165.033 84.32C164.511 84.32 164.095 84.432 163.785 84.656C163.476 84.88 163.321 85.1733 163.321 85.536C163.321 85.824 163.412 86.064 163.593 86.256C163.785 86.4373 164.02 86.5867 164.297 86.704C164.585 86.8107 164.98 86.9333 165.481 87.072C166.111 87.2427 166.623 87.4133 167.017 87.584C167.412 87.744 167.748 87.9893 168.025 88.32C168.313 88.6507 168.463 89.0827 168.473 89.616C168.473 90.096 168.34 90.528 168.073 90.912C167.807 91.296 167.428 91.6 166.937 91.824C166.457 92.0373 165.903 92.144 165.273 92.144ZM180.129 87.28C180.129 87.5573 180.113 87.8507 180.081 88.16H173.073C173.126 89.024 173.42 89.7013 173.953 90.192C174.497 90.672 175.153 90.912 175.921 90.912C176.55 90.912 177.073 90.768 177.489 90.48C177.916 90.1813 178.214 89.7867 178.385 89.296H179.953C179.718 90.1387 179.249 90.8267 178.545 91.36C177.841 91.8827 176.966 92.144 175.921 92.144C175.089 92.144 174.342 91.9573 173.681 91.584C173.03 91.2107 172.518 90.6827 172.145 90C171.772 89.3067 171.585 88.5067 171.585 87.6C171.585 86.6933 171.766 85.8987 172.129 85.216C172.492 84.5333 172.998 84.0107 173.649 83.648C174.31 83.2747 175.068 83.088 175.921 83.088C176.753 83.088 177.489 83.2693 178.129 83.632C178.769 83.9947 179.26 84.496 179.601 85.136C179.953 85.7653 180.129 86.48 180.129 87.28ZM178.625 86.976C178.625 86.4213 178.502 85.9467 178.257 85.552C178.012 85.1467 177.676 84.8427 177.249 84.64C176.833 84.4267 176.369 84.32 175.857 84.32C175.121 84.32 174.492 84.5547 173.969 85.024C173.457 85.4933 173.164 86.144 173.089 86.976H178.625ZM185.107 84.656C185.363 84.1547 185.725 83.7653 186.195 83.488C186.675 83.2107 187.256 83.072 187.939 83.072V84.576H187.555C185.923 84.576 185.107 85.4613 185.107 87.232V92H183.651V83.232H185.107V84.656ZM194.483 90.656L197.203 83.232H198.755L195.315 92H193.619L190.179 83.232H191.747L194.483 90.656ZM202.54 81.808C202.263 81.808 202.028 81.712 201.836 81.52C201.644 81.328 201.548 81.0933 201.548 80.816C201.548 80.5387 201.644 80.304 201.836 80.112C202.028 79.92 202.263 79.824 202.54 79.824C202.807 79.824 203.031 79.92 203.212 80.112C203.404 80.304 203.5 80.5387 203.5 80.816C203.5 81.0933 203.404 81.328 203.212 81.52C203.031 81.712 202.807 81.808 202.54 81.808ZM203.244 83.232V92H201.788V83.232H203.244ZM206.782 87.6C206.782 86.6933 206.963 85.904 207.326 85.232C207.688 84.5493 208.19 84.0213 208.83 83.648C209.48 83.2747 210.222 83.088 211.054 83.088C212.131 83.088 213.016 83.3493 213.71 83.872C214.414 84.3947 214.878 85.12 215.102 86.048H213.534C213.384 85.5147 213.091 85.0933 212.654 84.784C212.227 84.4747 211.694 84.32 211.054 84.32C210.222 84.32 209.55 84.608 209.038 85.184C208.526 85.7493 208.27 86.5547 208.27 87.6C208.27 88.656 208.526 89.472 209.038 90.048C209.55 90.624 210.222 90.912 211.054 90.912C211.694 90.912 212.227 90.7627 212.654 90.464C213.08 90.1653 213.374 89.7387 213.534 89.184H215.102C214.867 90.08 214.398 90.8 213.694 91.344C212.99 91.8773 212.11 92.144 211.054 92.144C210.222 92.144 209.48 91.9573 208.83 91.584C208.19 91.2107 207.688 90.6827 207.326 90C206.963 89.3173 206.782 88.5173 206.782 87.6ZM226.644 87.28C226.644 87.5573 226.628 87.8507 226.596 88.16H219.588C219.642 89.024 219.935 89.7013 220.468 90.192C221.012 90.672 221.668 90.912 222.436 90.912C223.066 90.912 223.588 90.768 224.004 90.48C224.431 90.1813 224.73 89.7867 224.9 89.296H226.468C226.234 90.1387 225.764 90.8267 225.06 91.36C224.356 91.8827 223.482 92.144 222.436 92.144C221.604 92.144 220.858 91.9573 220.196 91.584C219.546 91.2107 219.034 90.6827 218.66 90C218.287 89.3067 218.1 88.5067 218.1 87.6C218.1 86.6933 218.282 85.8987 218.644 85.216C219.007 84.5333 219.514 84.0107 220.164 83.648C220.826 83.2747 221.583 83.088 222.436 83.088C223.268 83.088 224.004 83.2693 224.644 83.632C225.284 83.9947 225.775 84.496 226.116 85.136C226.468 85.7653 226.644 86.48 226.644 87.28ZM225.14 86.976C225.14 86.4213 225.018 85.9467 224.772 85.552C224.527 85.1467 224.191 84.8427 223.764 84.64C223.348 84.4267 222.884 84.32 222.372 84.32C221.636 84.32 221.007 84.5547 220.484 85.024C219.972 85.4933 219.679 86.144 219.604 86.976H225.14ZM230.63 92.096C230.353 92.096 230.118 92 229.926 91.808C229.734 91.616 229.638 91.3813 229.638 91.104C229.638 90.8267 229.734 90.592 229.926 90.4C230.118 90.208 230.353 90.112 230.63 90.112C230.897 90.112 231.121 90.208 231.302 90.4C231.494 90.592 231.59 90.8267 231.59 91.104C231.59 91.3813 231.494 91.616 231.302 91.808C231.121 92 230.897 92.096 230.63 92.096ZM249.439 84.08C249.13 83.4293 248.682 82.928 248.095 82.576C247.509 82.2133 246.826 82.032 246.047 82.032C245.269 82.032 244.565 82.2133 243.935 82.576C243.317 82.928 242.826 83.44 242.463 84.112C242.111 84.7733 241.935 85.5413 241.935 86.416C241.935 87.2907 242.111 88.0587 242.463 88.72C242.826 89.3813 243.317 89.8933 243.935 90.256C244.565 90.608 245.269 90.784 246.047 90.784C247.135 90.784 248.031 90.4587 248.735 89.808C249.439 89.1573 249.85 88.2773 249.967 87.168H245.519V85.984H251.519V87.104C251.434 88.0213 251.146 88.864 250.655 89.632C250.165 90.3893 249.519 90.992 248.719 91.44C247.919 91.8773 247.029 92.096 246.047 92.096C245.013 92.096 244.069 91.856 243.215 91.376C242.362 90.8853 241.685 90.208 241.183 89.344C240.693 88.48 240.447 87.504 240.447 86.416C240.447 85.328 240.693 84.352 241.183 83.488C241.685 82.6133 242.362 81.936 243.215 81.456C244.069 80.9653 245.013 80.72 246.047 80.72C247.231 80.72 248.277 81.0133 249.183 81.6C250.101 82.1867 250.767 83.0133 251.183 84.08H249.439ZM256.501 84.656C256.757 84.1547 257.119 83.7653 257.589 83.488C258.069 83.2107 258.65 83.072 259.333 83.072V84.576H258.949C257.317 84.576 256.501 85.4613 256.501 87.232V92H255.045V83.232H256.501V84.656ZM270.613 87.28C270.613 87.5573 270.597 87.8507 270.565 88.16H263.557C263.611 89.024 263.904 89.7013 264.437 90.192C264.981 90.672 265.637 90.912 266.405 90.912C267.035 90.912 267.557 90.768 267.973 90.48C268.4 90.1813 268.699 89.7867 268.869 89.296H270.437C270.203 90.1387 269.733 90.8267 269.029 91.36C268.325 91.8827 267.451 92.144 266.405 92.144C265.573 92.144 264.827 91.9573 264.165 91.584C263.515 91.2107 263.003 90.6827 262.629 90C262.256 89.3067 262.069 88.5067 262.069 87.6C262.069 86.6933 262.251 85.8987 262.613 85.216C262.976 84.5333 263.483 84.0107 264.133 83.648C264.795 83.2747 265.552 83.088 266.405 83.088C267.237 83.088 267.973 83.2693 268.613 83.632C269.253 83.9947 269.744 84.496 270.085 85.136C270.437 85.7653 270.613 86.48 270.613 87.28ZM269.109 86.976C269.109 86.4213 268.987 85.9467 268.741 85.552C268.496 85.1467 268.16 84.8427 267.733 84.64C267.317 84.4267 266.853 84.32 266.341 84.32C265.605 84.32 264.976 84.5547 264.453 85.024C263.941 85.4933 263.648 86.144 263.573 86.976H269.109ZM273.591 87.584C273.591 86.688 273.772 85.904 274.135 85.232C274.498 84.5493 274.994 84.0213 275.623 83.648C276.263 83.2747 276.972 83.088 277.751 83.088C278.519 83.088 279.186 83.2533 279.751 83.584C280.316 83.9147 280.738 84.3307 281.015 84.832V83.232H282.487V92H281.015V90.368C280.727 90.88 280.295 91.3067 279.719 91.648C279.154 91.9787 278.492 92.144 277.735 92.144C276.956 92.144 276.252 91.952 275.623 91.568C274.994 91.184 274.498 90.6453 274.135 89.952C273.772 89.2587 273.591 88.4693 273.591 87.584ZM281.015 87.6C281.015 86.9387 280.882 86.3627 280.615 85.872C280.348 85.3813 279.986 85.008 279.527 84.752C279.079 84.4853 278.583 84.352 278.039 84.352C277.495 84.352 276.999 84.48 276.551 84.736C276.103 84.992 275.746 85.3653 275.479 85.856C275.212 86.3467 275.079 86.9227 275.079 87.584C275.079 88.256 275.212 88.8427 275.479 89.344C275.746 89.8347 276.103 90.2133 276.551 90.48C276.999 90.736 277.495 90.864 278.039 90.864C278.583 90.864 279.079 90.736 279.527 90.48C279.986 90.2133 280.348 89.8347 280.615 89.344C280.882 88.8427 281.015 88.2613 281.015 87.6ZM288.324 84.432V89.6C288.324 90.0267 288.414 90.3307 288.596 90.512C288.777 90.6827 289.092 90.768 289.54 90.768H290.612V92H289.3C288.489 92 287.881 91.8133 287.476 91.44C287.07 91.0667 286.868 90.4533 286.868 89.6V84.432H285.732V83.232H286.868V81.024H288.324V83.232H290.612V84.432H288.324ZM301.297 84.848C301.585 84.3467 302.012 83.9307 302.577 83.6C303.153 83.2587 303.82 83.088 304.577 83.088C305.356 83.088 306.06 83.2747 306.689 83.648C307.329 84.0213 307.831 84.5493 308.193 85.232C308.556 85.904 308.737 86.688 308.737 87.584C308.737 88.4693 308.556 89.2587 308.193 89.952C307.831 90.6453 307.329 91.184 306.689 91.568C306.06 91.952 305.356 92.144 304.577 92.144C303.831 92.144 303.169 91.9787 302.593 91.648C302.028 91.3067 301.596 90.8853 301.297 90.384V96.16H299.841V83.232H301.297V84.848ZM307.249 87.584C307.249 86.9227 307.116 86.3467 306.849 85.856C306.583 85.3653 306.22 84.992 305.761 84.736C305.313 84.48 304.817 84.352 304.273 84.352C303.74 84.352 303.244 84.4853 302.785 84.752C302.337 85.008 301.975 85.3867 301.697 85.888C301.431 86.3787 301.297 86.9493 301.297 87.6C301.297 88.2613 301.431 88.8427 301.697 89.344C301.975 89.8347 302.337 90.2133 302.785 90.48C303.244 90.736 303.74 90.864 304.273 90.864C304.817 90.864 305.313 90.736 305.761 90.48C306.22 90.2133 306.583 89.8347 306.849 89.344C307.116 88.8427 307.249 88.256 307.249 87.584ZM313.71 84.656C313.966 84.1547 314.329 83.7653 314.798 83.488C315.278 83.2107 315.859 83.072 316.542 83.072V84.576H316.158C314.526 84.576 313.71 85.4613 313.71 87.232V92H312.254V83.232H313.71V84.656ZM320.575 81.808C320.297 81.808 320.063 81.712 319.871 81.52C319.679 81.328 319.583 81.0933 319.583 80.816C319.583 80.5387 319.679 80.304 319.871 80.112C320.063 79.92 320.297 79.824 320.575 79.824C320.841 79.824 321.065 79.92 321.247 80.112C321.439 80.304 321.535 80.5387 321.535 80.816C321.535 81.0933 321.439 81.328 321.247 81.52C321.065 81.712 320.841 81.808 320.575 81.808ZM321.279 83.232V92H319.823V83.232H321.279ZM324.816 87.6C324.816 86.6933 324.997 85.904 325.36 85.232C325.723 84.5493 326.224 84.0213 326.864 83.648C327.515 83.2747 328.256 83.088 329.088 83.088C330.165 83.088 331.051 83.3493 331.744 83.872C332.448 84.3947 332.912 85.12 333.136 86.048H331.568C331.419 85.5147 331.125 85.0933 330.688 84.784C330.261 84.4747 329.728 84.32 329.088 84.32C328.256 84.32 327.584 84.608 327.072 85.184C326.56 85.7493 326.304 86.5547 326.304 87.6C326.304 88.656 326.56 89.472 327.072 90.048C327.584 90.624 328.256 90.912 329.088 90.912C329.728 90.912 330.261 90.7627 330.688 90.464C331.115 90.1653 331.408 89.7387 331.568 89.184H333.136C332.901 90.08 332.432 90.8 331.728 91.344C331.024 91.8773 330.144 92.144 329.088 92.144C328.256 92.144 327.515 91.9573 326.864 91.584C326.224 91.2107 325.723 90.6827 325.36 90C324.997 89.3173 324.816 88.5173 324.816 87.6ZM344.679 87.28C344.679 87.5573 344.663 87.8507 344.631 88.16H337.623C337.676 89.024 337.97 89.7013 338.503 90.192C339.047 90.672 339.703 90.912 340.471 90.912C341.1 90.912 341.623 90.768 342.039 90.48C342.466 90.1813 342.764 89.7867 342.935 89.296H344.503C344.268 90.1387 343.799 90.8267 343.095 91.36C342.391 91.8827 341.516 92.144 340.471 92.144C339.639 92.144 338.892 91.9573 338.231 91.584C337.58 91.2107 337.068 90.6827 336.695 90C336.322 89.3067 336.135 88.5067 336.135 87.6C336.135 86.6933 336.316 85.8987 336.679 85.216C337.042 84.5333 337.548 84.0107 338.199 83.648C338.86 83.2747 339.618 83.088 340.471 83.088C341.303 83.088 342.039 83.2693 342.679 83.632C343.319 83.9947 343.81 84.496 344.151 85.136C344.503 85.7653 344.679 86.48 344.679 87.28ZM343.175 86.976C343.175 86.4213 343.052 85.9467 342.807 85.552C342.562 85.1467 342.226 84.8427 341.799 84.64C341.383 84.4267 340.919 84.32 340.407 84.32C339.671 84.32 339.042 84.5547 338.519 85.024C338.007 85.4933 337.714 86.144 337.639 86.976H343.175ZM348.665 92.096C348.387 92.096 348.153 92 347.961 91.808C347.769 91.616 347.673 91.3813 347.673 91.104C347.673 90.8267 347.769 90.592 347.961 90.4C348.153 90.208 348.387 90.112 348.665 90.112C348.931 90.112 349.155 90.208 349.337 90.4C349.529 90.592 349.625 90.8267 349.625 91.104C349.625 91.3813 349.529 91.616 349.337 91.808C349.155 92 348.931 92.096 348.665 92.096ZM368.242 80.848L364.034 92H362.354L358.146 80.848H359.698L363.202 90.464L366.706 80.848H368.242ZM379.438 87.28C379.438 87.5573 379.422 87.8507 379.39 88.16H372.382C372.436 89.024 372.729 89.7013 373.262 90.192C373.806 90.672 374.462 90.912 375.23 90.912C375.86 90.912 376.382 90.768 376.798 90.48C377.225 90.1813 377.524 89.7867 377.694 89.296H379.262C379.028 90.1387 378.558 90.8267 377.854 91.36C377.15 91.8827 376.276 92.144 375.23 92.144C374.398 92.144 373.652 91.9573 372.99 91.584C372.34 91.2107 371.828 90.6827 371.454 90C371.081 89.3067 370.894 88.5067 370.894 87.6C370.894 86.6933 371.076 85.8987 371.438 85.216C371.801 84.5333 372.308 84.0107 372.958 83.648C373.62 83.2747 374.377 83.088 375.23 83.088C376.062 83.088 376.798 83.2693 377.438 83.632C378.078 83.9947 378.569 84.496 378.91 85.136C379.262 85.7653 379.438 86.48 379.438 87.28ZM377.934 86.976C377.934 86.4213 377.812 85.9467 377.566 85.552C377.321 85.1467 376.985 84.8427 376.558 84.64C376.142 84.4267 375.678 84.32 375.166 84.32C374.43 84.32 373.801 84.5547 373.278 85.024C372.766 85.4933 372.473 86.144 372.398 86.976H377.934ZM384.416 84.656C384.672 84.1547 385.035 83.7653 385.504 83.488C385.984 83.2107 386.565 83.072 387.248 83.072V84.576H386.864C385.232 84.576 384.416 85.4613 384.416 87.232V92H382.96V83.232H384.416V84.656ZM398.081 83.232L392.801 96.128H391.297L393.025 91.904L389.489 83.232H391.105L393.857 90.336L396.577 83.232H398.081ZM212.839 116.144C212.167 116.144 211.564 116.032 211.031 115.808C210.498 115.573 210.076 115.253 209.767 114.848C209.458 114.432 209.287 113.957 209.255 113.424H210.759C210.802 113.861 211.004 114.219 211.367 114.496C211.74 114.773 212.226 114.912 212.823 114.912C213.378 114.912 213.815 114.789 214.135 114.544C214.455 114.299 214.615 113.989 214.615 113.616C214.615 113.232 214.444 112.949 214.103 112.768C213.762 112.576 213.234 112.389 212.519 112.208C211.868 112.037 211.335 111.867 210.919 111.696C210.514 111.515 210.162 111.253 209.863 110.912C209.575 110.56 209.431 110.101 209.431 109.536C209.431 109.088 209.564 108.677 209.831 108.304C210.098 107.931 210.476 107.637 210.967 107.424C211.458 107.2 212.018 107.088 212.647 107.088C213.618 107.088 214.402 107.333 214.999 107.824C215.596 108.315 215.916 108.987 215.959 109.84H214.503C214.471 109.381 214.284 109.013 213.943 108.736C213.612 108.459 213.164 108.32 212.599 108.32C212.076 108.32 211.66 108.432 211.351 108.656C211.042 108.88 210.887 109.173 210.887 109.536C210.887 109.824 210.978 110.064 211.159 110.256C211.351 110.437 211.586 110.587 211.863 110.704C212.151 110.811 212.546 110.933 213.047 111.072C213.676 111.243 214.188 111.413 214.583 111.584C214.978 111.744 215.314 111.989 215.591 112.32C215.879 112.651 216.028 113.083 216.039 113.616C216.039 114.096 215.906 114.528 215.639 114.912C215.372 115.296 214.994 115.6 214.503 115.824C214.023 116.037 213.468 116.144 212.839 116.144ZM219.151 111.584C219.151 110.688 219.332 109.904 219.695 109.232C220.057 108.549 220.553 108.021 221.183 107.648C221.823 107.275 222.532 107.088 223.311 107.088C224.079 107.088 224.745 107.253 225.311 107.584C225.876 107.915 226.297 108.331 226.575 108.832V107.232H228.047V116H226.575V114.368C226.287 114.88 225.855 115.307 225.279 115.648C224.713 115.979 224.052 116.144 223.295 116.144C222.516 116.144 221.812 115.952 221.183 115.568C220.553 115.184 220.057 114.645 219.695 113.952C219.332 113.259 219.151 112.469 219.151 111.584ZM226.575 111.6C226.575 110.939 226.441 110.363 226.175 109.872C225.908 109.381 225.545 109.008 225.087 108.752C224.639 108.485 224.143 108.352 223.599 108.352C223.055 108.352 222.559 108.48 222.111 108.736C221.663 108.992 221.305 109.365 221.039 109.856C220.772 110.347 220.639 110.923 220.639 111.584C220.639 112.256 220.772 112.843 221.039 113.344C221.305 113.835 221.663 114.213 222.111 114.48C222.559 114.736 223.055 114.864 223.599 114.864C224.143 114.864 224.639 114.736 225.087 114.48C225.545 114.213 225.908 113.835 226.175 113.344C226.441 112.843 226.575 112.261 226.575 111.6ZM233.883 108.432V113.6C233.883 114.027 233.974 114.331 234.155 114.512C234.336 114.683 234.651 114.768 235.099 114.768H236.171V116H234.859C234.048 116 233.44 115.813 233.035 115.44C232.63 115.067 232.427 114.453 232.427 113.6V108.432H231.291V107.232H232.427V105.024H233.883V107.232H236.171V108.432H233.883ZM240.287 105.808C240.01 105.808 239.775 105.712 239.583 105.52C239.391 105.328 239.295 105.093 239.295 104.816C239.295 104.539 239.391 104.304 239.583 104.112C239.775 103.92 240.01 103.824 240.287 103.824C240.554 103.824 240.778 103.92 240.959 104.112C241.151 104.304 241.247 104.539 241.247 104.816C241.247 105.093 241.151 105.328 240.959 105.52C240.778 105.712 240.554 105.808 240.287 105.808ZM240.991 107.232V116H239.535V107.232H240.991ZM248.177 116.144C247.505 116.144 246.902 116.032 246.369 115.808C245.835 115.573 245.414 115.253 245.105 114.848C244.795 114.432 244.625 113.957 244.593 113.424H246.097C246.139 113.861 246.342 114.219 246.705 114.496C247.078 114.773 247.563 114.912 248.161 114.912C248.715 114.912 249.153 114.789 249.473 114.544C249.793 114.299 249.953 113.989 249.953 113.616C249.953 113.232 249.782 112.949 249.441 112.768C249.099 112.576 248.571 112.389 247.857 112.208C247.206 112.037 246.673 111.867 246.257 111.696C245.851 111.515 245.499 111.253 245.201 110.912C244.913 110.56 244.769 110.101 244.769 109.536C244.769 109.088 244.902 108.677 245.169 108.304C245.435 107.931 245.814 107.637 246.305 107.424C246.795 107.2 247.355 107.088 247.985 107.088C248.955 107.088 249.739 107.333 250.337 107.824C250.934 108.315 251.254 108.987 251.297 109.84H249.841C249.809 109.381 249.622 109.013 249.281 108.736C248.95 108.459 248.502 108.32 247.937 108.32C247.414 108.32 246.998 108.432 246.689 108.656C246.379 108.88 246.225 109.173 246.225 109.536C246.225 109.824 246.315 110.064 246.497 110.256C246.689 110.437 246.923 110.587 247.201 110.704C247.489 110.811 247.883 110.933 248.385 111.072C249.014 111.243 249.526 111.413 249.921 111.584C250.315 111.744 250.651 111.989 250.929 112.32C251.217 112.651 251.366 113.083 251.377 113.616C251.377 114.096 251.243 114.528 250.977 114.912C250.71 115.296 250.331 115.6 249.841 115.824C249.361 116.037 248.806 116.144 248.177 116.144ZM258.6 108.432H256.76V116H255.304V108.432H254.168V107.232H255.304V106.608C255.304 105.627 255.555 104.912 256.056 104.464C256.568 104.005 257.384 103.776 258.504 103.776V104.992C257.864 104.992 257.411 105.12 257.144 105.376C256.888 105.621 256.76 106.032 256.76 106.608V107.232H258.6V108.432ZM262.65 105.808C262.372 105.808 262.138 105.712 261.946 105.52C261.754 105.328 261.658 105.093 261.658 104.816C261.658 104.539 261.754 104.304 261.946 104.112C262.138 103.92 262.372 103.824 262.65 103.824C262.916 103.824 263.14 103.92 263.322 104.112C263.514 104.304 263.61 104.539 263.61 104.816C263.61 105.093 263.514 105.328 263.322 105.52C263.14 105.712 262.916 105.808 262.65 105.808ZM263.354 107.232V116H261.898V107.232H263.354ZM275.435 111.28C275.435 111.557 275.419 111.851 275.387 112.16H268.379C268.432 113.024 268.726 113.701 269.259 114.192C269.803 114.672 270.459 114.912 271.227 114.912C271.856 114.912 272.379 114.768 272.795 114.48C273.222 114.181 273.52 113.787 273.691 113.296H275.259C275.024 114.139 274.555 114.827 273.851 115.36C273.147 115.883 272.272 116.144 271.227 116.144C270.395 116.144 269.648 115.957 268.987 115.584C268.336 115.211 267.824 114.683 267.451 114C267.078 113.307 266.891 112.507 266.891 111.6C266.891 110.693 267.072 109.899 267.435 109.216C267.798 108.533 268.304 108.011 268.955 107.648C269.616 107.275 270.374 107.088 271.227 107.088C272.059 107.088 272.795 107.269 273.435 107.632C274.075 107.995 274.566 108.496 274.907 109.136C275.259 109.765 275.435 110.48 275.435 111.28ZM273.931 110.976C273.931 110.421 273.808 109.947 273.563 109.552C273.318 109.147 272.982 108.843 272.555 108.64C272.139 108.427 271.675 108.32 271.163 108.32C270.427 108.32 269.798 108.555 269.275 109.024C268.763 109.493 268.47 110.144 268.395 110.976H273.931ZM278.413 111.584C278.413 110.688 278.594 109.904 278.957 109.232C279.32 108.549 279.816 108.021 280.445 107.648C281.085 107.275 281.8 107.088 282.589 107.088C283.272 107.088 283.906 107.248 284.493 107.568C285.08 107.877 285.528 108.288 285.837 108.8V104.16H287.309V116H285.837V114.352C285.549 114.875 285.122 115.307 284.557 115.648C283.992 115.979 283.33 116.144 282.573 116.144C281.794 116.144 281.085 115.952 280.445 115.568C279.816 115.184 279.32 114.645 278.957 113.952C278.594 113.259 278.413 112.469 278.413 111.584ZM285.837 111.6C285.837 110.939 285.704 110.363 285.437 109.872C285.17 109.381 284.808 109.008 284.349 108.752C283.901 108.485 283.405 108.352 282.861 108.352C282.317 108.352 281.821 108.48 281.373 108.736C280.925 108.992 280.568 109.365 280.301 109.856C280.034 110.347 279.901 110.923 279.901 111.584C279.901 112.256 280.034 112.843 280.301 113.344C280.568 113.835 280.925 114.213 281.373 114.48C281.821 114.736 282.317 114.864 282.861 114.864C283.405 114.864 283.901 114.736 284.349 114.48C284.808 114.213 285.17 113.835 285.437 113.344C285.704 112.843 285.837 112.261 285.837 111.6ZM291.834 116.096C291.556 116.096 291.322 116 291.13 115.808C290.938 115.616 290.842 115.381 290.842 115.104C290.842 114.827 290.938 114.592 291.13 114.4C291.322 114.208 291.556 114.112 291.834 114.112C292.1 114.112 292.324 114.208 292.506 114.4C292.698 114.592 292.794 114.827 292.794 115.104C292.794 115.381 292.698 115.616 292.506 115.808C292.324 116 292.1 116.096 291.834 116.096Z" fill="white"/>
<path opacity="0.2" d="M275 141L460.991 141" stroke="white"/>
<path d="M60.8643 35.6367C58.9111 37.0527 56.7871 38.1514 54.4922 38.9326C52.2461 39.7139 50.0488 40.1045 47.9004 40.1045C46.4355 40.1045 45.0195 39.9092 43.6523 39.5186C42.334 39.0791 41.1621 38.4443 40.1367 37.6143C39.1113 36.7842 38.2812 35.7344 37.6465 34.4648C37.0605 33.1465 36.7676 31.6328 36.7676 29.9238C36.7676 27.873 37.0605 25.9443 37.6465 24.1377C38.2324 22.2822 39.1357 20.2803 40.3564 18.1318C41.5771 15.9346 43.0908 13.4687 44.8975 10.7344C46.7041 8 48.8281 4.72852 51.2695 0.919922H63.8672L56.1768 22.0869L60.8643 35.6367ZM28.4912 35.7832C26.5381 37.1992 24.4141 38.2979 22.1191 39.0791C19.873 39.8115 17.6758 40.1777 15.5273 40.1777C14.0625 40.1777 12.6465 39.9824 11.2793 39.5918C9.96094 39.1523 8.78906 38.5176 7.76367 37.6875C6.73828 36.8574 5.9082 35.8076 5.27344 34.5381C4.6875 33.2197 4.39453 31.7061 4.39453 29.9971C4.39453 27.9463 4.6875 26.0176 5.27344 24.2109C5.85938 22.3555 6.7627 20.3535 7.9834 18.2051C9.2041 16.0078 10.7178 13.542 12.5244 10.8076C14.3311 8.07324 16.4551 4.80176 18.8965 0.993164H31.4941L23.8037 22.1602L28.4912 35.7832Z" fill="white" fill-opacity="0.5"/>
</svg>
