<svg width="475" height="183" viewBox="0 0 475 183" fill="none" xmlns="http://www.w3.org/2000/svg">
<path opacity="0.7" d="M27 27.6198C27 22.8592 30.0858 19 33.8923 19H468.108C471.914 19 475 22.8592 475 27.6198V174.38C475 179.141 471.914 183 468.108 183H33.8923C30.0858 183 27 179.141 27 174.38V27.6198Z" fill="#950E0E"/>
<path d="M271.112 158.1C270.726 157.287 270.166 156.66 269.432 156.22C268.699 155.767 267.846 155.54 266.872 155.54C265.899 155.54 265.019 155.767 264.232 156.22C263.459 156.66 262.846 157.3 262.392 158.14C261.952 158.967 261.732 159.927 261.732 161.02C261.732 162.113 261.952 163.073 262.392 163.9C262.846 164.727 263.459 165.367 264.232 165.82C265.019 166.26 265.899 166.48 266.872 166.48C268.232 166.48 269.352 166.073 270.232 165.26C271.112 164.447 271.626 163.347 271.772 161.96H266.212V160.48H273.712V161.88C273.606 163.027 273.246 164.08 272.632 165.04C272.019 165.987 271.212 166.74 270.212 167.3C269.212 167.847 268.099 168.12 266.872 168.12C265.579 168.12 264.399 167.82 263.332 167.22C262.266 166.607 261.419 165.76 260.792 164.68C260.179 163.6 259.872 162.38 259.872 161.02C259.872 159.66 260.179 158.44 260.792 157.36C261.419 156.267 262.266 155.42 263.332 154.82C264.399 154.207 265.579 153.9 266.872 153.9C268.352 153.9 269.659 154.267 270.792 155C271.939 155.733 272.772 156.767 273.292 158.1H271.112ZM279.939 155.54V160.2H285.019V161.7H279.939V166.5H285.619V168H278.119V154.04H285.619V155.54H279.939ZM297.713 168L294.393 162.3H292.193V168H290.373V154.06H294.873C295.926 154.06 296.813 154.24 297.533 154.6C298.266 154.96 298.813 155.447 299.173 156.06C299.533 156.673 299.713 157.373 299.713 158.16C299.713 159.12 299.433 159.967 298.873 160.7C298.326 161.433 297.499 161.92 296.393 162.16L299.893 168H297.713ZM292.193 160.84H294.873C295.859 160.84 296.599 160.6 297.093 160.12C297.586 159.627 297.833 158.973 297.833 158.16C297.833 157.333 297.586 156.693 297.093 156.24C296.613 155.787 295.873 155.56 294.873 155.56H292.193V160.84ZM318.681 154.16V168H316.861V157.68L312.261 168H310.981L306.361 157.66V168H304.541V154.16H306.501L311.621 165.6L316.741 154.16H318.681ZM332.007 164.9H325.927L324.807 168H322.887L327.927 154.14H330.027L335.047 168H333.127L332.007 164.9ZM331.487 163.42L328.967 156.38L326.447 163.42H331.487ZM350.204 168H348.384L341.064 156.9V168H339.244V154.04H341.064L348.384 165.12V154.04H350.204V168ZM370.518 154.06V155.54H364.458V160.24H369.378V161.72H364.458V168H362.638V154.06H370.518ZM376.537 155.54V160.2H381.617V161.7H376.537V166.5H382.217V168H374.717V154.04H382.217V155.54H376.537ZM388.79 166.52H393.67V168H386.97V154.06H388.79V166.52ZM401.943 154.06C403.463 154.06 404.777 154.347 405.883 154.92C407.003 155.48 407.857 156.287 408.443 157.34C409.043 158.393 409.343 159.633 409.343 161.06C409.343 162.487 409.043 163.727 408.443 164.78C407.857 165.82 407.003 166.62 405.883 167.18C404.777 167.727 403.463 168 401.943 168H397.603V154.06H401.943ZM401.943 166.5C403.743 166.5 405.117 166.027 406.063 165.08C407.01 164.12 407.483 162.78 407.483 161.06C407.483 159.327 407.003 157.973 406.043 157C405.097 156.027 403.73 155.54 401.943 155.54H399.423V166.5H401.943ZM427.884 154.16V168H426.064V157.68L421.464 168H420.184L415.564 157.66V168H413.744V154.16H415.704L420.824 165.6L425.944 154.16H427.884ZM441.21 164.9H435.13L434.01 168H432.09L437.13 154.14H439.23L444.25 168H442.33L441.21 164.9ZM440.69 163.42L438.17 156.38L435.65 163.42H440.69ZM459.407 168H457.587L450.267 156.9V168H448.447V154.04H450.267L457.587 165.12V154.04H459.407V168Z" fill="white" fill-opacity="0.5"/>
<path d="M111.155 44.848V56H109.699V50.944H104.019V56H102.563V44.848H104.019V49.744H109.699V44.848H111.155ZM115.993 45.808C115.716 45.808 115.481 45.712 115.289 45.52C115.097 45.328 115.001 45.0933 115.001 44.816C115.001 44.5387 115.097 44.304 115.289 44.112C115.481 43.92 115.716 43.824 115.993 43.824C116.26 43.824 116.484 43.92 116.665 44.112C116.857 44.304 116.953 44.5387 116.953 44.816C116.953 45.0933 116.857 45.328 116.665 45.52C116.484 45.712 116.26 45.808 115.993 45.808ZM116.697 47.232V56H115.241V47.232H116.697ZM124.395 47.088C125.152 47.088 125.814 47.2533 126.379 47.584C126.955 47.9147 127.382 48.3307 127.659 48.832V47.232H129.131V56.192C129.131 56.992 128.96 57.7013 128.619 58.32C128.278 58.9493 127.787 59.44 127.147 59.792C126.518 60.144 125.782 60.32 124.939 60.32C123.787 60.32 122.827 60.048 122.059 59.504C121.291 58.96 120.838 58.2187 120.699 57.28H122.139C122.299 57.8133 122.63 58.24 123.131 58.56C123.632 58.8907 124.235 59.056 124.939 59.056C125.739 59.056 126.39 58.8053 126.891 58.304C127.403 57.8027 127.659 57.0987 127.659 56.192V54.352C127.371 54.864 126.944 55.2907 126.379 55.632C125.814 55.9733 125.152 56.144 124.395 56.144C123.616 56.144 122.907 55.952 122.267 55.568C121.638 55.184 121.142 54.6453 120.779 53.952C120.416 53.2587 120.235 52.4693 120.235 51.584C120.235 50.688 120.416 49.904 120.779 49.232C121.142 48.5493 121.638 48.0213 122.267 47.648C122.907 47.2747 123.616 47.088 124.395 47.088ZM127.659 51.6C127.659 50.9387 127.526 50.3627 127.259 49.872C126.992 49.3813 126.63 49.008 126.171 48.752C125.723 48.4853 125.227 48.352 124.683 48.352C124.139 48.352 123.643 48.48 123.195 48.736C122.747 48.992 122.39 49.3653 122.123 49.856C121.856 50.3467 121.723 50.9227 121.723 51.584C121.723 52.256 121.856 52.8427 122.123 53.344C122.39 53.8347 122.747 54.2133 123.195 54.48C123.643 54.736 124.139 54.864 124.683 54.864C125.227 54.864 125.723 54.736 126.171 54.48C126.63 54.2133 126.992 53.8347 127.259 53.344C127.526 52.8427 127.659 52.2613 127.659 51.6ZM137.543 47.072C138.205 47.072 138.802 47.216 139.335 47.504C139.869 47.7813 140.285 48.2027 140.583 48.768C140.893 49.3333 141.047 50.0213 141.047 50.832V56H139.607V51.04C139.607 50.1653 139.389 49.4987 138.951 49.04C138.514 48.5707 137.917 48.336 137.159 48.336C136.391 48.336 135.778 48.576 135.319 49.056C134.871 49.536 134.647 50.2347 134.647 51.152V56H133.191V44.16H134.647V48.48C134.935 48.032 135.33 47.6853 135.831 47.44C136.343 47.1947 136.914 47.072 137.543 47.072ZM146.482 44.16V56H145.026V44.16H146.482ZM158.115 47.232L152.835 60.128H151.331L153.059 55.904L149.523 47.232H151.139L153.891 54.336L156.611 47.232H158.115ZM168.501 48.656C168.757 48.1547 169.119 47.7653 169.589 47.488C170.069 47.2107 170.65 47.072 171.333 47.072V48.576H170.949C169.317 48.576 168.501 49.4613 168.501 51.232V56H167.045V47.232H168.501V48.656ZM182.613 51.28C182.613 51.5573 182.597 51.8507 182.565 52.16H175.557C175.611 53.024 175.904 53.7013 176.437 54.192C176.981 54.672 177.637 54.912 178.405 54.912C179.035 54.912 179.557 54.768 179.973 54.48C180.4 54.1813 180.699 53.7867 180.869 53.296H182.437C182.203 54.1387 181.733 54.8267 181.029 55.36C180.325 55.8827 179.451 56.144 178.405 56.144C177.573 56.144 176.827 55.9573 176.165 55.584C175.515 55.2107 175.003 54.6827 174.629 54C174.256 53.3067 174.069 52.5067 174.069 51.6C174.069 50.6933 174.251 49.8987 174.613 49.216C174.976 48.5333 175.483 48.0107 176.133 47.648C176.795 47.2747 177.552 47.088 178.405 47.088C179.237 47.088 179.973 47.2693 180.613 47.632C181.253 47.9947 181.744 48.496 182.085 49.136C182.437 49.7653 182.613 50.48 182.613 51.28ZM181.109 50.976C181.109 50.4213 180.987 49.9467 180.741 49.552C180.496 49.1467 180.16 48.8427 179.733 48.64C179.317 48.4267 178.853 48.32 178.341 48.32C177.605 48.32 176.976 48.5547 176.453 49.024C175.941 49.4933 175.648 50.144 175.573 50.976H181.109ZM185.591 51.6C185.591 50.6933 185.772 49.904 186.135 49.232C186.498 48.5493 186.999 48.0213 187.639 47.648C188.29 47.2747 189.031 47.088 189.863 47.088C190.94 47.088 191.826 47.3493 192.519 47.872C193.223 48.3947 193.687 49.12 193.911 50.048H192.343C192.194 49.5147 191.9 49.0933 191.463 48.784C191.036 48.4747 190.503 48.32 189.863 48.32C189.031 48.32 188.359 48.608 187.847 49.184C187.335 49.7493 187.079 50.5547 187.079 51.6C187.079 52.656 187.335 53.472 187.847 54.048C188.359 54.624 189.031 54.912 189.863 54.912C190.503 54.912 191.036 54.7627 191.463 54.464C191.89 54.1653 192.183 53.7387 192.343 53.184H193.911C193.676 54.08 193.207 54.8 192.503 55.344C191.799 55.8773 190.919 56.144 189.863 56.144C189.031 56.144 188.29 55.9573 187.639 55.584C186.999 55.2107 186.498 54.6827 186.135 54C185.772 53.3173 185.591 52.5173 185.591 51.6ZM201.278 56.144C200.457 56.144 199.71 55.9573 199.038 55.584C198.377 55.2107 197.854 54.6827 197.47 54C197.097 53.3067 196.91 52.5067 196.91 51.6C196.91 50.704 197.102 49.9147 197.486 49.232C197.881 48.5387 198.414 48.0107 199.086 47.648C199.758 47.2747 200.51 47.088 201.342 47.088C202.174 47.088 202.926 47.2747 203.598 47.648C204.27 48.0107 204.798 48.5333 205.182 49.216C205.577 49.8987 205.774 50.6933 205.774 51.6C205.774 52.5067 205.571 53.3067 205.166 54C204.771 54.6827 204.233 55.2107 203.55 55.584C202.867 55.9573 202.11 56.144 201.278 56.144ZM201.278 54.864C201.801 54.864 202.291 54.7413 202.75 54.496C203.209 54.2507 203.577 53.8827 203.854 53.392C204.142 52.9013 204.286 52.304 204.286 51.6C204.286 50.896 204.147 50.2987 203.87 49.808C203.593 49.3173 203.23 48.9547 202.782 48.72C202.334 48.4747 201.849 48.352 201.326 48.352C200.793 48.352 200.302 48.4747 199.854 48.72C199.417 48.9547 199.065 49.3173 198.798 49.808C198.531 50.2987 198.398 50.896 198.398 51.6C198.398 52.3147 198.526 52.9173 198.782 53.408C199.049 53.8987 199.401 54.2667 199.838 54.512C200.275 54.7467 200.755 54.864 201.278 54.864ZM219.832 47.072C220.515 47.072 221.123 47.216 221.656 47.504C222.19 47.7813 222.611 48.2027 222.92 48.768C223.23 49.3333 223.384 50.0213 223.384 50.832V56H221.944V51.04C221.944 50.1653 221.726 49.4987 221.288 49.04C220.862 48.5707 220.28 48.336 219.544 48.336C218.787 48.336 218.184 48.5813 217.736 49.072C217.288 49.552 217.064 50.2507 217.064 51.168V56H215.624V51.04C215.624 50.1653 215.406 49.4987 214.968 49.04C214.542 48.5707 213.96 48.336 213.224 48.336C212.467 48.336 211.864 48.5813 211.416 49.072C210.968 49.552 210.744 50.2507 210.744 51.168V56H209.288V47.232H210.744V48.496C211.032 48.0373 211.416 47.6853 211.896 47.44C212.387 47.1947 212.926 47.072 213.512 47.072C214.248 47.072 214.899 47.2373 215.464 47.568C216.03 47.8987 216.451 48.384 216.728 49.024C216.974 48.4053 217.379 47.9253 217.944 47.584C218.51 47.2427 219.139 47.072 219.832 47.072ZM237.917 47.072C238.599 47.072 239.207 47.216 239.741 47.504C240.274 47.7813 240.695 48.2027 241.005 48.768C241.314 49.3333 241.469 50.0213 241.469 50.832V56H240.029V51.04C240.029 50.1653 239.81 49.4987 239.373 49.04C238.946 48.5707 238.365 48.336 237.629 48.336C236.871 48.336 236.269 48.5813 235.821 49.072C235.373 49.552 235.149 50.2507 235.149 51.168V56H233.709V51.04C233.709 50.1653 233.49 49.4987 233.053 49.04C232.626 48.5707 232.045 48.336 231.309 48.336C230.551 48.336 229.949 48.5813 229.501 49.072C229.053 49.552 228.829 50.2507 228.829 51.168V56H227.373V47.232H228.829V48.496C229.117 48.0373 229.501 47.6853 229.981 47.44C230.471 47.1947 231.01 47.072 231.597 47.072C232.333 47.072 232.983 47.2373 233.549 47.568C234.114 47.8987 234.535 48.384 234.813 49.024C235.058 48.4053 235.463 47.9253 236.029 47.584C236.594 47.2427 237.223 47.072 237.917 47.072ZM253.457 51.28C253.457 51.5573 253.441 51.8507 253.409 52.16H246.401C246.454 53.024 246.748 53.7013 247.281 54.192C247.825 54.672 248.481 54.912 249.249 54.912C249.878 54.912 250.401 54.768 250.817 54.48C251.244 54.1813 251.542 53.7867 251.713 53.296H253.281C253.046 54.1387 252.577 54.8267 251.873 55.36C251.169 55.8827 250.294 56.144 249.249 56.144C248.417 56.144 247.67 55.9573 247.009 55.584C246.358 55.2107 245.846 54.6827 245.473 54C245.1 53.3067 244.913 52.5067 244.913 51.6C244.913 50.6933 245.094 49.8987 245.457 49.216C245.82 48.5333 246.326 48.0107 246.977 47.648C247.638 47.2747 248.396 47.088 249.249 47.088C250.081 47.088 250.817 47.2693 251.457 47.632C252.097 47.9947 252.588 48.496 252.929 49.136C253.281 49.7653 253.457 50.48 253.457 51.28ZM251.953 50.976C251.953 50.4213 251.83 49.9467 251.585 49.552C251.34 49.1467 251.004 48.8427 250.577 48.64C250.161 48.4267 249.697 48.32 249.185 48.32C248.449 48.32 247.82 48.5547 247.297 49.024C246.785 49.4933 246.492 50.144 246.417 50.976H251.953ZM261.251 47.072C262.318 47.072 263.182 47.3973 263.843 48.048C264.504 48.688 264.835 49.616 264.835 50.832V56H263.395V51.04C263.395 50.1653 263.176 49.4987 262.739 49.04C262.302 48.5707 261.704 48.336 260.947 48.336C260.179 48.336 259.566 48.576 259.107 49.056C258.659 49.536 258.435 50.2347 258.435 51.152V56H256.979V47.232H258.435V48.48C258.723 48.032 259.112 47.6853 259.603 47.44C260.104 47.1947 260.654 47.072 261.251 47.072ZM268.269 51.584C268.269 50.688 268.451 49.904 268.813 49.232C269.176 48.5493 269.672 48.0213 270.301 47.648C270.941 47.2747 271.656 47.088 272.445 47.088C273.128 47.088 273.763 47.248 274.349 47.568C274.936 47.8773 275.384 48.288 275.693 48.8V44.16H277.165V56H275.693V54.352C275.405 54.8747 274.979 55.3067 274.413 55.648C273.848 55.9787 273.187 56.144 272.429 56.144C271.651 56.144 270.941 55.952 270.301 55.568C269.672 55.184 269.176 54.6453 268.813 53.952C268.451 53.2587 268.269 52.4693 268.269 51.584ZM275.693 51.6C275.693 50.9387 275.56 50.3627 275.293 49.872C275.027 49.3813 274.664 49.008 274.205 48.752C273.757 48.4853 273.261 48.352 272.717 48.352C272.173 48.352 271.677 48.48 271.229 48.736C270.781 48.992 270.424 49.3653 270.157 49.856C269.891 50.3467 269.757 50.9227 269.757 51.584C269.757 52.256 269.891 52.8427 270.157 53.344C270.424 53.8347 270.781 54.2133 271.229 54.48C271.677 54.736 272.173 54.864 272.717 54.864C273.261 54.864 273.757 54.736 274.205 54.48C274.664 54.2133 275.027 53.8347 275.293 53.344C275.56 52.8427 275.693 52.2613 275.693 51.6ZM283.114 44.848L282.938 52.848H281.722L281.546 44.848H283.114ZM282.394 56.096C282.116 56.096 281.882 56 281.69 55.808C281.498 55.616 281.402 55.3813 281.402 55.104C281.402 54.8267 281.498 54.592 281.69 54.4C281.882 54.208 282.116 54.112 282.394 54.112C282.66 54.112 282.884 54.208 283.066 54.4C283.258 54.592 283.354 54.8267 283.354 55.104C283.354 55.3813 283.258 55.616 283.066 55.808C282.884 56 282.66 56.096 282.394 56.096ZM301.905 48.08C301.596 47.4293 301.148 46.928 300.561 46.576C299.974 46.2133 299.292 46.032 298.513 46.032C297.734 46.032 297.03 46.2133 296.401 46.576C295.782 46.928 295.292 47.44 294.929 48.112C294.577 48.7733 294.401 49.5413 294.401 50.416C294.401 51.2907 294.577 52.0587 294.929 52.72C295.292 53.3813 295.782 53.8933 296.401 54.256C297.03 54.608 297.734 54.784 298.513 54.784C299.601 54.784 300.497 54.4587 301.201 53.808C301.905 53.1573 302.316 52.2773 302.433 51.168H297.985V49.984H303.985V51.104C303.9 52.0213 303.612 52.864 303.121 53.632C302.63 54.3893 301.985 54.992 301.185 55.44C300.385 55.8773 299.494 56.096 298.513 56.096C297.478 56.096 296.534 55.856 295.681 55.376C294.828 54.8853 294.15 54.208 293.649 53.344C293.158 52.48 292.913 51.504 292.913 50.416C292.913 49.328 293.158 48.352 293.649 47.488C294.15 46.6133 294.828 45.936 295.681 45.456C296.534 44.9653 297.478 44.72 298.513 44.72C299.697 44.72 300.742 45.0133 301.649 45.6C302.566 46.1867 303.233 47.0133 303.649 48.08H301.905ZM308.966 48.656C309.222 48.1547 309.585 47.7653 310.054 47.488C310.534 47.2107 311.115 47.072 311.798 47.072V48.576H311.414C309.782 48.576 308.966 49.4613 308.966 51.232V56H307.51V47.232H308.966V48.656ZM323.079 51.28C323.079 51.5573 323.063 51.8507 323.031 52.16H316.023C316.076 53.024 316.37 53.7013 316.903 54.192C317.447 54.672 318.103 54.912 318.871 54.912C319.5 54.912 320.023 54.768 320.439 54.48C320.866 54.1813 321.164 53.7867 321.335 53.296H322.903C322.668 54.1387 322.199 54.8267 321.495 55.36C320.791 55.8827 319.916 56.144 318.871 56.144C318.039 56.144 317.292 55.9573 316.631 55.584C315.98 55.2107 315.468 54.6827 315.095 54C314.722 53.3067 314.535 52.5067 314.535 51.6C314.535 50.6933 314.716 49.8987 315.079 49.216C315.442 48.5333 315.948 48.0107 316.599 47.648C317.26 47.2747 318.018 47.088 318.871 47.088C319.703 47.088 320.439 47.2693 321.079 47.632C321.719 47.9947 322.21 48.496 322.551 49.136C322.903 49.7653 323.079 50.48 323.079 51.28ZM321.575 50.976C321.575 50.4213 321.452 49.9467 321.207 49.552C320.962 49.1467 320.626 48.8427 320.199 48.64C319.783 48.4267 319.319 48.32 318.807 48.32C318.071 48.32 317.442 48.5547 316.919 49.024C316.407 49.4933 316.114 50.144 316.039 50.976H321.575ZM326.057 51.584C326.057 50.688 326.238 49.904 326.601 49.232C326.963 48.5493 327.459 48.0213 328.089 47.648C328.729 47.2747 329.438 47.088 330.217 47.088C330.985 47.088 331.651 47.2533 332.217 47.584C332.782 47.9147 333.203 48.3307 333.481 48.832V47.232H334.953V56H333.481V54.368C333.193 54.88 332.761 55.3067 332.185 55.648C331.619 55.9787 330.958 56.144 330.201 56.144C329.422 56.144 328.718 55.952 328.089 55.568C327.459 55.184 326.963 54.6453 326.601 53.952C326.238 53.2587 326.057 52.4693 326.057 51.584ZM333.481 51.6C333.481 50.9387 333.347 50.3627 333.081 49.872C332.814 49.3813 332.451 49.008 331.993 48.752C331.545 48.4853 331.049 48.352 330.505 48.352C329.961 48.352 329.465 48.48 329.017 48.736C328.569 48.992 328.211 49.3653 327.945 49.856C327.678 50.3467 327.545 50.9227 327.545 51.584C327.545 52.256 327.678 52.8427 327.945 53.344C328.211 53.8347 328.569 54.2133 329.017 54.48C329.465 54.736 329.961 54.864 330.505 54.864C331.049 54.864 331.545 54.736 331.993 54.48C332.451 54.2133 332.814 53.8347 333.081 53.344C333.347 52.8427 333.481 52.2613 333.481 51.6ZM340.789 48.432V53.6C340.789 54.0267 340.88 54.3307 341.061 54.512C341.243 54.6827 341.557 54.768 342.005 54.768H343.077V56H341.765C340.955 56 340.347 55.8133 339.941 55.44C339.536 55.0667 339.333 54.4533 339.333 53.6V48.432H338.197V47.232H339.333V45.024H340.789V47.232H343.077V48.432H340.789ZM355.923 47.088C356.68 47.088 357.342 47.2533 357.907 47.584C358.483 47.9147 358.91 48.3307 359.187 48.832V47.232H360.659V56.192C360.659 56.992 360.488 57.7013 360.147 58.32C359.806 58.9493 359.315 59.44 358.675 59.792C358.046 60.144 357.31 60.32 356.467 60.32C355.315 60.32 354.355 60.048 353.587 59.504C352.819 58.96 352.366 58.2187 352.227 57.28H353.667C353.827 57.8133 354.158 58.24 354.659 58.56C355.16 58.8907 355.763 59.056 356.467 59.056C357.267 59.056 357.918 58.8053 358.419 58.304C358.931 57.8027 359.187 57.0987 359.187 56.192V54.352C358.899 54.864 358.472 55.2907 357.907 55.632C357.342 55.9733 356.68 56.144 355.923 56.144C355.144 56.144 354.435 55.952 353.795 55.568C353.166 55.184 352.67 54.6453 352.307 53.952C351.944 53.2587 351.763 52.4693 351.763 51.584C351.763 50.688 351.944 49.904 352.307 49.232C352.67 48.5493 353.166 48.0213 353.795 47.648C354.435 47.2747 355.144 47.088 355.923 47.088ZM359.187 51.6C359.187 50.9387 359.054 50.3627 358.787 49.872C358.52 49.3813 358.158 49.008 357.699 48.752C357.251 48.4853 356.755 48.352 356.211 48.352C355.667 48.352 355.171 48.48 354.723 48.736C354.275 48.992 353.918 49.3653 353.651 49.856C353.384 50.3467 353.251 50.9227 353.251 51.584C353.251 52.256 353.384 52.8427 353.651 53.344C353.918 53.8347 354.275 54.2133 354.723 54.48C355.171 54.736 355.667 54.864 356.211 54.864C356.755 54.864 357.251 54.736 357.699 54.48C358.158 54.2133 358.52 53.8347 358.787 53.344C359.054 52.8427 359.187 52.2613 359.187 51.6ZM372.495 47.232V56H371.039V54.704C370.762 55.152 370.373 55.504 369.871 55.76C369.381 56.0053 368.837 56.128 368.239 56.128C367.557 56.128 366.943 55.9893 366.399 55.712C365.855 55.424 365.423 54.9973 365.103 54.432C364.794 53.8667 364.639 53.1787 364.639 52.368V47.232H366.079V52.176C366.079 53.04 366.298 53.7067 366.735 54.176C367.173 54.6347 367.77 54.864 368.527 54.864C369.306 54.864 369.919 54.624 370.367 54.144C370.815 53.664 371.039 52.9653 371.039 52.048V47.232H372.495ZM384.106 47.232L378.826 60.128H377.322L379.05 55.904L375.514 47.232H377.13L379.882 54.336L382.602 47.232H384.106ZM390.274 56.144C389.602 56.144 388.999 56.032 388.466 55.808C387.932 55.5733 387.511 55.2533 387.202 54.848C386.892 54.432 386.722 53.9573 386.69 53.424H388.194C388.236 53.8613 388.439 54.2187 388.802 54.496C389.175 54.7733 389.66 54.912 390.258 54.912C390.812 54.912 391.25 54.7893 391.57 54.544C391.89 54.2987 392.05 53.9893 392.05 53.616C392.05 53.232 391.879 52.9493 391.538 52.768C391.196 52.576 390.668 52.3893 389.954 52.208C389.303 52.0373 388.77 51.8667 388.354 51.696C387.948 51.5147 387.596 51.2533 387.298 50.912C387.01 50.56 386.866 50.1013 386.866 49.536C386.866 49.088 386.999 48.6773 387.266 48.304C387.532 47.9307 387.911 47.6373 388.402 47.424C388.892 47.2 389.452 47.088 390.082 47.088C391.052 47.088 391.836 47.3333 392.434 47.824C393.031 48.3147 393.351 48.9867 393.394 49.84H391.938C391.906 49.3813 391.719 49.0133 391.378 48.736C391.047 48.4587 390.599 48.32 390.034 48.32C389.511 48.32 389.095 48.432 388.786 48.656C388.476 48.88 388.322 49.1733 388.322 49.536C388.322 49.824 388.412 50.064 388.594 50.256C388.786 50.4373 389.02 50.5867 389.298 50.704C389.586 50.8107 389.98 50.9333 390.482 51.072C391.111 51.2427 391.623 51.4133 392.018 51.584C392.412 51.744 392.748 51.9893 393.026 52.32C393.314 52.6507 393.463 53.0827 393.474 53.616C393.474 54.096 393.34 54.528 393.074 54.912C392.807 55.296 392.428 55.6 391.938 55.824C391.458 56.0373 390.903 56.144 390.274 56.144ZM398.633 53.984L396.841 58.288H395.865L397.033 53.984H398.633ZM88.5427 72.848C88.8307 72.3467 89.2574 71.9307 89.8227 71.6C90.3987 71.2587 91.0654 71.088 91.8227 71.088C92.6014 71.088 93.3054 71.2747 93.9347 71.648C94.5747 72.0213 95.076 72.5493 95.4387 73.232C95.8014 73.904 95.9827 74.688 95.9827 75.584C95.9827 76.4693 95.8014 77.2587 95.4387 77.952C95.076 78.6453 94.5747 79.184 93.9347 79.568C93.3054 79.952 92.6014 80.144 91.8227 80.144C91.076 80.144 90.4147 79.9787 89.8387 79.648C89.2734 79.3067 88.8414 78.8853 88.5427 78.384V84.16H87.0867V71.232H88.5427V72.848ZM94.4947 75.584C94.4947 74.9227 94.3614 74.3467 94.0947 73.856C93.828 73.3653 93.4654 72.992 93.0067 72.736C92.5587 72.48 92.0627 72.352 91.5187 72.352C90.9854 72.352 90.4894 72.4853 90.0307 72.752C89.5827 73.008 89.22 73.3867 88.9427 73.888C88.676 74.3787 88.5427 74.9493 88.5427 75.6C88.5427 76.2613 88.676 76.8427 88.9427 77.344C89.22 77.8347 89.5827 78.2133 90.0307 78.48C90.4894 78.736 90.9854 78.864 91.5187 78.864C92.0627 78.864 92.5587 78.736 93.0067 78.48C93.4654 78.2133 93.828 77.8347 94.0947 77.344C94.3614 76.8427 94.4947 76.256 94.4947 75.584ZM100.955 72.656C101.211 72.1547 101.574 71.7653 102.043 71.488C102.523 71.2107 103.105 71.072 103.787 71.072V72.576H103.403C101.771 72.576 100.955 73.4613 100.955 75.232V80H99.4992V71.232H100.955V72.656ZM110.892 80.144C110.071 80.144 109.324 79.9573 108.652 79.584C107.991 79.2107 107.468 78.6827 107.084 78C106.711 77.3067 106.524 76.5067 106.524 75.6C106.524 74.704 106.716 73.9147 107.1 73.232C107.495 72.5387 108.028 72.0107 108.7 71.648C109.372 71.2747 110.124 71.088 110.956 71.088C111.788 71.088 112.54 71.2747 113.212 71.648C113.884 72.0107 114.412 72.5333 114.796 73.216C115.191 73.8987 115.388 74.6933 115.388 75.6C115.388 76.5067 115.185 77.3067 114.78 78C114.385 78.6827 113.847 79.2107 113.164 79.584C112.481 79.9573 111.724 80.144 110.892 80.144ZM110.892 78.864C111.415 78.864 111.905 78.7413 112.364 78.496C112.823 78.2507 113.191 77.8827 113.468 77.392C113.756 76.9013 113.9 76.304 113.9 75.6C113.9 74.896 113.761 74.2987 113.484 73.808C113.207 73.3173 112.844 72.9547 112.396 72.72C111.948 72.4747 111.463 72.352 110.94 72.352C110.407 72.352 109.916 72.4747 109.468 72.72C109.031 72.9547 108.679 73.3173 108.412 73.808C108.145 74.2987 108.012 74.896 108.012 75.6C108.012 76.3147 108.14 76.9173 108.396 77.408C108.663 77.8987 109.015 78.2667 109.452 78.512C109.889 78.7467 110.369 78.864 110.892 78.864ZM122.47 72.432H120.63V80H119.174V72.432H118.038V71.232H119.174V70.608C119.174 69.6267 119.425 68.912 119.926 68.464C120.438 68.0053 121.254 67.776 122.374 67.776V68.992C121.734 68.992 121.281 69.12 121.014 69.376C120.758 69.6213 120.63 70.032 120.63 70.608V71.232H122.47V72.432ZM133.768 75.28C133.768 75.5573 133.752 75.8507 133.72 76.16H126.712C126.765 77.024 127.059 77.7013 127.592 78.192C128.136 78.672 128.792 78.912 129.56 78.912C130.189 78.912 130.712 78.768 131.128 78.48C131.555 78.1813 131.853 77.7867 132.024 77.296H133.592C133.357 78.1387 132.888 78.8267 132.184 79.36C131.48 79.8827 130.605 80.144 129.56 80.144C128.728 80.144 127.981 79.9573 127.32 79.584C126.669 79.2107 126.157 78.6827 125.784 78C125.411 77.3067 125.224 76.5067 125.224 75.6C125.224 74.6933 125.405 73.8987 125.768 73.216C126.131 72.5333 126.637 72.0107 127.288 71.648C127.949 71.2747 128.707 71.088 129.56 71.088C130.392 71.088 131.128 71.2693 131.768 71.632C132.408 71.9947 132.899 72.496 133.24 73.136C133.592 73.7653 133.768 74.48 133.768 75.28ZM132.264 74.976C132.264 74.4213 132.141 73.9467 131.896 73.552C131.651 73.1467 131.315 72.8427 130.888 72.64C130.472 72.4267 130.008 72.32 129.496 72.32C128.76 72.32 128.131 72.5547 127.608 73.024C127.096 73.4933 126.803 74.144 126.728 74.976H132.264ZM140.394 80.144C139.722 80.144 139.119 80.032 138.586 79.808C138.052 79.5733 137.631 79.2533 137.322 78.848C137.012 78.432 136.842 77.9573 136.81 77.424H138.314C138.356 77.8613 138.559 78.2187 138.922 78.496C139.295 78.7733 139.78 78.912 140.378 78.912C140.932 78.912 141.37 78.7893 141.69 78.544C142.01 78.2987 142.17 77.9893 142.17 77.616C142.17 77.232 141.999 76.9493 141.658 76.768C141.316 76.576 140.788 76.3893 140.074 76.208C139.423 76.0373 138.89 75.8667 138.474 75.696C138.068 75.5147 137.716 75.2533 137.418 74.912C137.13 74.56 136.986 74.1013 136.986 73.536C136.986 73.088 137.119 72.6773 137.386 72.304C137.652 71.9307 138.031 71.6373 138.522 71.424C139.012 71.2 139.572 71.088 140.202 71.088C141.172 71.088 141.956 71.3333 142.554 71.824C143.151 72.3147 143.471 72.9867 143.514 73.84H142.058C142.026 73.3813 141.839 73.0133 141.498 72.736C141.167 72.4587 140.719 72.32 140.154 72.32C139.631 72.32 139.215 72.432 138.906 72.656C138.596 72.88 138.442 73.1733 138.442 73.536C138.442 73.824 138.532 74.064 138.714 74.256C138.906 74.4373 139.14 74.5867 139.418 74.704C139.706 74.8107 140.1 74.9333 140.602 75.072C141.231 75.2427 141.743 75.4133 142.138 75.584C142.532 75.744 142.868 75.9893 143.146 76.32C143.434 76.6507 143.583 77.0827 143.594 77.616C143.594 78.096 143.46 78.528 143.194 78.912C142.927 79.296 142.548 79.6 142.058 79.824C141.578 80.0373 141.023 80.144 140.394 80.144ZM150.353 80.144C149.681 80.144 149.079 80.032 148.545 79.808C148.012 79.5733 147.591 79.2533 147.281 78.848C146.972 78.432 146.801 77.9573 146.769 77.424H148.273C148.316 77.8613 148.519 78.2187 148.881 78.496C149.255 78.7733 149.74 78.912 150.337 78.912C150.892 78.912 151.329 78.7893 151.649 78.544C151.969 78.2987 152.129 77.9893 152.129 77.616C152.129 77.232 151.959 76.9493 151.617 76.768C151.276 76.576 150.748 76.3893 150.033 76.208C149.383 76.0373 148.849 75.8667 148.433 75.696C148.028 75.5147 147.676 75.2533 147.377 74.912C147.089 74.56 146.945 74.1013 146.945 73.536C146.945 73.088 147.079 72.6773 147.345 72.304C147.612 71.9307 147.991 71.6373 148.481 71.424C148.972 71.2 149.532 71.088 150.161 71.088C151.132 71.088 151.916 71.3333 152.513 71.824C153.111 72.3147 153.431 72.9867 153.473 73.84H152.017C151.985 73.3813 151.799 73.0133 151.457 72.736C151.127 72.4587 150.679 72.32 150.113 72.32C149.591 72.32 149.175 72.432 148.865 72.656C148.556 72.88 148.401 73.1733 148.401 73.536C148.401 73.824 148.492 74.064 148.673 74.256C148.865 74.4373 149.1 74.5867 149.377 74.704C149.665 74.8107 150.06 74.9333 150.561 75.072C151.191 75.2427 151.703 75.4133 152.097 75.584C152.492 75.744 152.828 75.9893 153.105 76.32C153.393 76.6507 153.543 77.0827 153.553 77.616C153.553 78.096 153.42 78.528 153.153 78.912C152.887 79.296 152.508 79.6 152.017 79.824C151.537 80.0373 150.983 80.144 150.353 80.144ZM157.961 69.808C157.683 69.808 157.449 69.712 157.257 69.52C157.065 69.328 156.969 69.0933 156.969 68.816C156.969 68.5387 157.065 68.304 157.257 68.112C157.449 67.92 157.683 67.824 157.961 67.824C158.227 67.824 158.451 67.92 158.633 68.112C158.825 68.304 158.921 68.5387 158.921 68.816C158.921 69.0933 158.825 69.328 158.633 69.52C158.451 69.712 158.227 69.808 157.961 69.808ZM158.665 71.232V80H157.209V71.232H158.665ZM166.57 80.144C165.749 80.144 165.002 79.9573 164.33 79.584C163.669 79.2107 163.146 78.6827 162.762 78C162.389 77.3067 162.202 76.5067 162.202 75.6C162.202 74.704 162.394 73.9147 162.778 73.232C163.173 72.5387 163.706 72.0107 164.378 71.648C165.05 71.2747 165.802 71.088 166.634 71.088C167.466 71.088 168.218 71.2747 168.89 71.648C169.562 72.0107 170.09 72.5333 170.474 73.216C170.869 73.8987 171.066 74.6933 171.066 75.6C171.066 76.5067 170.863 77.3067 170.458 78C170.063 78.6827 169.525 79.2107 168.842 79.584C168.159 79.9573 167.402 80.144 166.57 80.144ZM166.57 78.864C167.093 78.864 167.583 78.7413 168.042 78.496C168.501 78.2507 168.869 77.8827 169.146 77.392C169.434 76.9013 169.578 76.304 169.578 75.6C169.578 74.896 169.439 74.2987 169.162 73.808C168.885 73.3173 168.522 72.9547 168.074 72.72C167.626 72.4747 167.141 72.352 166.618 72.352C166.085 72.352 165.594 72.4747 165.146 72.72C164.709 72.9547 164.357 73.3173 164.09 73.808C163.823 74.2987 163.69 74.896 163.69 75.6C163.69 76.3147 163.818 76.9173 164.074 77.408C164.341 77.8987 164.693 78.2667 165.13 78.512C165.567 78.7467 166.047 78.864 166.57 78.864ZM178.852 71.072C179.919 71.072 180.783 71.3973 181.444 72.048C182.106 72.688 182.436 73.616 182.436 74.832V80H180.996V75.04C180.996 74.1653 180.778 73.4987 180.34 73.04C179.903 72.5707 179.306 72.336 178.548 72.336C177.78 72.336 177.167 72.576 176.708 73.056C176.26 73.536 176.036 74.2347 176.036 75.152V80H174.58V71.232H176.036V72.48C176.324 72.032 176.714 71.6853 177.204 71.44C177.706 71.1947 178.255 71.072 178.852 71.072ZM185.871 75.584C185.871 74.688 186.052 73.904 186.415 73.232C186.777 72.5493 187.273 72.0213 187.903 71.648C188.543 71.2747 189.252 71.088 190.031 71.088C190.799 71.088 191.465 71.2533 192.031 71.584C192.596 71.9147 193.017 72.3307 193.295 72.832V71.232H194.767V80H193.295V78.368C193.007 78.88 192.575 79.3067 191.999 79.648C191.433 79.9787 190.772 80.144 190.015 80.144C189.236 80.144 188.532 79.952 187.903 79.568C187.273 79.184 186.777 78.6453 186.415 77.952C186.052 77.2587 185.871 76.4693 185.871 75.584ZM193.295 75.6C193.295 74.9387 193.161 74.3627 192.895 73.872C192.628 73.3813 192.265 73.008 191.807 72.752C191.359 72.4853 190.863 72.352 190.319 72.352C189.775 72.352 189.279 72.48 188.831 72.736C188.383 72.992 188.025 73.3653 187.759 73.856C187.492 74.3467 187.359 74.9227 187.359 75.584C187.359 76.256 187.492 76.8427 187.759 77.344C188.025 77.8347 188.383 78.2133 188.831 78.48C189.279 78.736 189.775 78.864 190.319 78.864C190.863 78.864 191.359 78.736 191.807 78.48C192.265 78.2133 192.628 77.8347 192.895 77.344C193.161 76.8427 193.295 76.2613 193.295 75.6ZM200.283 68.16V80H198.827V68.16H200.283ZM221.91 71.232L219.174 80H217.67L215.558 73.04L213.446 80H211.942L209.19 71.232H210.678L212.694 78.592L214.87 71.232H216.358L218.486 78.608L220.47 71.232H221.91ZM228.779 80.144C227.958 80.144 227.211 79.9573 226.539 79.584C225.878 79.2107 225.355 78.6827 224.971 78C224.598 77.3067 224.411 76.5067 224.411 75.6C224.411 74.704 224.603 73.9147 224.987 73.232C225.382 72.5387 225.915 72.0107 226.587 71.648C227.259 71.2747 228.011 71.088 228.843 71.088C229.675 71.088 230.427 71.2747 231.099 71.648C231.771 72.0107 232.299 72.5333 232.683 73.216C233.078 73.8987 233.275 74.6933 233.275 75.6C233.275 76.5067 233.073 77.3067 232.667 78C232.273 78.6827 231.734 79.2107 231.051 79.584C230.369 79.9573 229.611 80.144 228.779 80.144ZM228.779 78.864C229.302 78.864 229.793 78.7413 230.251 78.496C230.71 78.2507 231.078 77.8827 231.355 77.392C231.643 76.9013 231.787 76.304 231.787 75.6C231.787 74.896 231.649 74.2987 231.371 73.808C231.094 73.3173 230.731 72.9547 230.283 72.72C229.835 72.4747 229.35 72.352 228.827 72.352C228.294 72.352 227.803 72.4747 227.355 72.72C226.918 72.9547 226.566 73.3173 226.299 73.808C226.033 74.2987 225.899 74.896 225.899 75.6C225.899 76.3147 226.027 76.9173 226.283 77.408C226.55 77.8987 226.902 78.2667 227.339 78.512C227.777 78.7467 228.257 78.864 228.779 78.864ZM238.246 72.656C238.502 72.1547 238.864 71.7653 239.334 71.488C239.814 71.2107 240.395 71.072 241.078 71.072V72.576H240.694C239.062 72.576 238.246 73.4613 238.246 75.232V80H236.79V71.232H238.246V72.656ZM249.255 80L245.815 76.128V80H244.359V68.16H245.815V75.12L249.191 71.232H251.223L247.095 75.6L251.239 80H249.255ZM255.697 77.984L253.905 82.288H252.929L254.097 77.984H255.697ZM264.286 75.584C264.286 74.688 264.468 73.904 264.83 73.232C265.193 72.5493 265.689 72.0213 266.318 71.648C266.958 71.2747 267.668 71.088 268.446 71.088C269.214 71.088 269.881 71.2533 270.446 71.584C271.012 71.9147 271.433 72.3307 271.71 72.832V71.232H273.182V80H271.71V78.368C271.422 78.88 270.99 79.3067 270.414 79.648C269.849 79.9787 269.188 80.144 268.43 80.144C267.652 80.144 266.948 79.952 266.318 79.568C265.689 79.184 265.193 78.6453 264.83 77.952C264.468 77.2587 264.286 76.4693 264.286 75.584ZM271.71 75.6C271.71 74.9387 271.577 74.3627 271.31 73.872C271.044 73.3813 270.681 73.008 270.222 72.752C269.774 72.4853 269.278 72.352 268.734 72.352C268.19 72.352 267.694 72.48 267.246 72.736C266.798 72.992 266.441 73.3653 266.174 73.856C265.908 74.3467 265.774 74.9227 265.774 75.584C265.774 76.256 265.908 76.8427 266.174 77.344C266.441 77.8347 266.798 78.2133 267.246 78.48C267.694 78.736 268.19 78.864 268.734 78.864C269.278 78.864 269.774 78.736 270.222 78.48C270.681 78.2133 271.044 77.8347 271.31 77.344C271.577 76.8427 271.71 76.2613 271.71 75.6ZM276.699 75.584C276.699 74.688 276.88 73.904 277.243 73.232C277.606 72.5493 278.102 72.0213 278.731 71.648C279.371 71.2747 280.086 71.088 280.875 71.088C281.558 71.088 282.192 71.248 282.779 71.568C283.366 71.8773 283.814 72.288 284.123 72.8V68.16H285.595V80H284.123V78.352C283.835 78.8747 283.408 79.3067 282.843 79.648C282.278 79.9787 281.616 80.144 280.859 80.144C280.08 80.144 279.371 79.952 278.731 79.568C278.102 79.184 277.606 78.6453 277.243 77.952C276.88 77.2587 276.699 76.4693 276.699 75.584ZM284.123 75.6C284.123 74.9387 283.99 74.3627 283.723 73.872C283.456 73.3813 283.094 73.008 282.635 72.752C282.187 72.4853 281.691 72.352 281.147 72.352C280.603 72.352 280.107 72.48 279.659 72.736C279.211 72.992 278.854 73.3653 278.587 73.856C278.32 74.3467 278.187 74.9227 278.187 75.584C278.187 76.256 278.32 76.8427 278.587 77.344C278.854 77.8347 279.211 78.2133 279.659 78.48C280.107 78.736 280.603 78.864 281.147 78.864C281.691 78.864 282.187 78.736 282.635 78.48C283.094 78.2133 283.456 77.8347 283.723 77.344C283.99 76.8427 284.123 76.2613 284.123 75.6ZM297.655 75.28C297.655 75.5573 297.639 75.8507 297.607 76.16H290.599C290.653 77.024 290.946 77.7013 291.479 78.192C292.023 78.672 292.679 78.912 293.447 78.912C294.077 78.912 294.599 78.768 295.015 78.48C295.442 78.1813 295.741 77.7867 295.911 77.296H297.479C297.245 78.1387 296.775 78.8267 296.071 79.36C295.367 79.8827 294.493 80.144 293.447 80.144C292.615 80.144 291.869 79.9573 291.207 79.584C290.557 79.2107 290.045 78.6827 289.671 78C289.298 77.3067 289.111 76.5067 289.111 75.6C289.111 74.6933 289.293 73.8987 289.655 73.216C290.018 72.5333 290.525 72.0107 291.175 71.648C291.837 71.2747 292.594 71.088 293.447 71.088C294.279 71.088 295.015 71.2693 295.655 71.632C296.295 71.9947 296.786 72.496 297.127 73.136C297.479 73.7653 297.655 74.48 297.655 75.28ZM296.151 74.976C296.151 74.4213 296.029 73.9467 295.783 73.552C295.538 73.1467 295.202 72.8427 294.775 72.64C294.359 72.4267 293.895 72.32 293.383 72.32C292.647 72.32 292.018 72.5547 291.495 73.024C290.983 73.4933 290.69 74.144 290.615 74.976H296.151ZM300.633 75.584C300.633 74.688 300.815 73.904 301.177 73.232C301.54 72.5493 302.036 72.0213 302.665 71.648C303.305 71.2747 304.02 71.088 304.809 71.088C305.567 71.088 306.228 71.2587 306.793 71.6C307.369 71.9307 307.791 72.3413 308.057 72.832V71.232H309.529V84.16H308.057V78.384C307.78 78.8747 307.353 79.2907 306.777 79.632C306.201 79.9733 305.529 80.144 304.761 80.144C303.993 80.144 303.295 79.952 302.665 79.568C302.036 79.184 301.54 78.6453 301.177 77.952C300.815 77.2587 300.633 76.4693 300.633 75.584ZM308.057 75.6C308.057 74.9387 307.924 74.3627 307.657 73.872C307.391 73.3813 307.028 73.008 306.569 72.752C306.121 72.4853 305.625 72.352 305.081 72.352C304.537 72.352 304.041 72.48 303.593 72.736C303.145 72.992 302.788 73.3653 302.521 73.856C302.255 74.3467 302.121 74.9227 302.121 75.584C302.121 76.256 302.255 76.8427 302.521 77.344C302.788 77.8347 303.145 78.2133 303.593 78.48C304.041 78.736 304.537 78.864 305.081 78.864C305.625 78.864 306.121 78.736 306.569 78.48C307.028 78.2133 307.391 77.8347 307.657 77.344C307.924 76.8427 308.057 76.2613 308.057 75.6ZM321.366 71.232V80H319.91V78.704C319.632 79.152 319.243 79.504 318.742 79.76C318.251 80.0053 317.707 80.128 317.11 80.128C316.427 80.128 315.814 79.9893 315.27 79.712C314.726 79.424 314.294 78.9973 313.974 78.432C313.664 77.8667 313.51 77.1787 313.51 76.368V71.232H314.95V76.176C314.95 77.04 315.168 77.7067 315.606 78.176C316.043 78.6347 316.64 78.864 317.398 78.864C318.176 78.864 318.79 78.624 319.238 78.144C319.686 77.664 319.91 76.9653 319.91 76.048V71.232H321.366ZM324.88 75.584C324.88 74.688 325.062 73.904 325.424 73.232C325.787 72.5493 326.283 72.0213 326.912 71.648C327.552 71.2747 328.262 71.088 329.04 71.088C329.808 71.088 330.475 71.2533 331.04 71.584C331.606 71.9147 332.027 72.3307 332.304 72.832V71.232H333.776V80H332.304V78.368C332.016 78.88 331.584 79.3067 331.008 79.648C330.443 79.9787 329.782 80.144 329.024 80.144C328.246 80.144 327.542 79.952 326.912 79.568C326.283 79.184 325.787 78.6453 325.424 77.952C325.062 77.2587 324.88 76.4693 324.88 75.584ZM332.304 75.6C332.304 74.9387 332.171 74.3627 331.904 73.872C331.638 73.3813 331.275 73.008 330.816 72.752C330.368 72.4853 329.872 72.352 329.328 72.352C328.784 72.352 328.288 72.48 327.84 72.736C327.392 72.992 327.035 73.3653 326.768 73.856C326.502 74.3467 326.368 74.9227 326.368 75.584C326.368 76.256 326.502 76.8427 326.768 77.344C327.035 77.8347 327.392 78.2133 327.84 78.48C328.288 78.736 328.784 78.864 329.328 78.864C329.872 78.864 330.368 78.736 330.816 78.48C331.275 78.2133 331.638 77.8347 331.904 77.344C332.171 76.8427 332.304 76.2613 332.304 75.6ZM339.613 72.432V77.6C339.613 78.0267 339.703 78.3307 339.885 78.512C340.066 78.6827 340.381 78.768 340.829 78.768H341.901V80H340.589C339.778 80 339.17 79.8133 338.765 79.44C338.359 79.0667 338.157 78.4533 338.157 77.6V72.432H337.021V71.232H338.157V69.024H339.613V71.232H341.901V72.432H339.613ZM353.265 75.28C353.265 75.5573 353.249 75.8507 353.217 76.16H346.209C346.262 77.024 346.556 77.7013 347.089 78.192C347.633 78.672 348.289 78.912 349.057 78.912C349.686 78.912 350.209 78.768 350.625 78.48C351.052 78.1813 351.35 77.7867 351.521 77.296H353.089C352.854 78.1387 352.385 78.8267 351.681 79.36C350.977 79.8827 350.102 80.144 349.057 80.144C348.225 80.144 347.478 79.9573 346.817 79.584C346.166 79.2107 345.654 78.6827 345.281 78C344.908 77.3067 344.721 76.5067 344.721 75.6C344.721 74.6933 344.902 73.8987 345.265 73.216C345.628 72.5333 346.134 72.0107 346.785 71.648C347.446 71.2747 348.204 71.088 349.057 71.088C349.889 71.088 350.625 71.2693 351.265 71.632C351.905 71.9947 352.396 72.496 352.737 73.136C353.089 73.7653 353.265 74.48 353.265 75.28ZM351.761 74.976C351.761 74.4213 351.638 73.9467 351.393 73.552C351.148 73.1467 350.812 72.8427 350.385 72.64C349.969 72.4267 349.505 72.32 348.993 72.32C348.257 72.32 347.628 72.5547 347.105 73.024C346.593 73.4933 346.3 74.144 346.225 74.976H351.761ZM364.108 72.848C364.396 72.3467 364.823 71.9307 365.388 71.6C365.964 71.2587 366.631 71.088 367.388 71.088C368.167 71.088 368.871 71.2747 369.5 71.648C370.14 72.0213 370.642 72.5493 371.004 73.232C371.367 73.904 371.548 74.688 371.548 75.584C371.548 76.4693 371.367 77.2587 371.004 77.952C370.642 78.6453 370.14 79.184 369.5 79.568C368.871 79.952 368.167 80.144 367.388 80.144C366.642 80.144 365.98 79.9787 365.404 79.648C364.839 79.3067 364.407 78.8853 364.108 78.384V84.16H362.652V71.232H364.108V72.848ZM370.06 75.584C370.06 74.9227 369.927 74.3467 369.66 73.856C369.394 73.3653 369.031 72.992 368.572 72.736C368.124 72.48 367.628 72.352 367.084 72.352C366.551 72.352 366.055 72.4853 365.596 72.752C365.148 73.008 364.786 73.3867 364.508 73.888C364.242 74.3787 364.108 74.9493 364.108 75.6C364.108 76.2613 364.242 76.8427 364.508 77.344C364.786 77.8347 365.148 78.2133 365.596 78.48C366.055 78.736 366.551 78.864 367.084 78.864C367.628 78.864 368.124 78.736 368.572 78.48C369.031 78.2133 369.394 77.8347 369.66 77.344C369.927 76.8427 370.06 76.256 370.06 75.584ZM376.521 72.656C376.777 72.1547 377.139 71.7653 377.609 71.488C378.089 71.2107 378.67 71.072 379.353 71.072V72.576H378.969C377.337 72.576 376.521 73.4613 376.521 75.232V80H375.065V71.232H376.521V72.656ZM383.386 69.808C383.108 69.808 382.874 69.712 382.682 69.52C382.49 69.328 382.394 69.0933 382.394 68.816C382.394 68.5387 382.49 68.304 382.682 68.112C382.874 67.92 383.108 67.824 383.386 67.824C383.652 67.824 383.876 67.92 384.058 68.112C384.25 68.304 384.346 68.5387 384.346 68.816C384.346 69.0933 384.25 69.328 384.058 69.52C383.876 69.712 383.652 69.808 383.386 69.808ZM384.09 71.232V80H382.634V71.232H384.09ZM387.627 75.6C387.627 74.6933 387.808 73.904 388.171 73.232C388.534 72.5493 389.035 72.0213 389.675 71.648C390.326 71.2747 391.067 71.088 391.899 71.088C392.976 71.088 393.862 71.3493 394.555 71.872C395.259 72.3947 395.723 73.12 395.947 74.048H394.379C394.23 73.5147 393.936 73.0933 393.499 72.784C393.072 72.4747 392.539 72.32 391.899 72.32C391.067 72.32 390.395 72.608 389.883 73.184C389.371 73.7493 389.115 74.5547 389.115 75.6C389.115 76.656 389.371 77.472 389.883 78.048C390.395 78.624 391.067 78.912 391.899 78.912C392.539 78.912 393.072 78.7627 393.499 78.464C393.926 78.1653 394.219 77.7387 394.379 77.184H395.947C395.712 78.08 395.243 78.8 394.539 79.344C393.835 79.8773 392.955 80.144 391.899 80.144C391.067 80.144 390.326 79.9573 389.675 79.584C389.035 79.2107 388.534 78.6827 388.171 78C387.808 77.3173 387.627 76.5173 387.627 75.6ZM407.49 75.28C407.49 75.5573 407.474 75.8507 407.442 76.16H400.434C400.487 77.024 400.78 77.7013 401.314 78.192C401.858 78.672 402.514 78.912 403.282 78.912C403.911 78.912 404.434 78.768 404.85 78.48C405.276 78.1813 405.575 77.7867 405.746 77.296H407.314C407.079 78.1387 406.61 78.8267 405.906 79.36C405.202 79.8827 404.327 80.144 403.282 80.144C402.45 80.144 401.703 79.9573 401.042 79.584C400.391 79.2107 399.879 78.6827 399.506 78C399.132 77.3067 398.946 76.5067 398.946 75.6C398.946 74.6933 399.127 73.8987 399.49 73.216C399.852 72.5333 400.359 72.0107 401.01 71.648C401.671 71.2747 402.428 71.088 403.282 71.088C404.114 71.088 404.85 71.2693 405.49 71.632C406.13 71.9947 406.62 72.496 406.962 73.136C407.314 73.7653 407.49 74.48 407.49 75.28ZM405.986 74.976C405.986 74.4213 405.863 73.9467 405.618 73.552C405.372 73.1467 405.036 72.8427 404.61 72.64C404.194 72.4267 403.73 72.32 403.218 72.32C402.482 72.32 401.852 72.5547 401.33 73.024C400.818 73.4933 400.524 74.144 400.45 74.976H405.986ZM412.9 68.848L412.724 76.848H411.508L411.332 68.848H412.9ZM412.18 80.096C411.902 80.096 411.668 80 411.476 79.808C411.284 79.616 411.188 79.3813 411.188 79.104C411.188 78.8267 411.284 78.592 411.476 78.4C411.668 78.208 411.902 78.112 412.18 78.112C412.446 78.112 412.67 78.208 412.852 78.4C413.044 78.592 413.14 78.8267 413.14 79.104C413.14 79.3813 413.044 79.616 412.852 79.808C412.67 80 412.446 80.096 412.18 80.096ZM117.007 98.256C117.412 98.32 117.78 98.4853 118.111 98.752C118.452 99.0187 118.719 99.3493 118.911 99.744C119.113 100.139 119.215 100.56 119.215 101.008C119.215 101.573 119.071 102.085 118.783 102.544C118.495 102.992 118.073 103.349 117.519 103.616C116.975 103.872 116.329 104 115.583 104H111.423V92.848H115.423C116.18 92.848 116.825 92.976 117.359 93.232C117.892 93.4773 118.292 93.8133 118.559 94.24C118.825 94.6667 118.959 95.1467 118.959 95.68C118.959 96.3413 118.777 96.8907 118.415 97.328C118.063 97.7547 117.593 98.064 117.007 98.256ZM112.879 97.664H115.327C116.009 97.664 116.537 97.504 116.911 97.184C117.284 96.864 117.471 96.4213 117.471 95.856C117.471 95.2907 117.284 94.848 116.911 94.528C116.537 94.208 115.999 94.048 115.295 94.048H112.879V97.664ZM115.455 102.8C116.18 102.8 116.745 102.629 117.151 102.288C117.556 101.947 117.759 101.472 117.759 100.864C117.759 100.245 117.545 99.76 117.119 99.408C116.692 99.0453 116.121 98.864 115.407 98.864H112.879V102.8H115.455ZM130.835 99.28C130.835 99.5573 130.819 99.8507 130.787 100.16H123.779C123.832 101.024 124.126 101.701 124.659 102.192C125.203 102.672 125.859 102.912 126.627 102.912C127.256 102.912 127.779 102.768 128.195 102.48C128.622 102.181 128.92 101.787 129.091 101.296H130.659C130.424 102.139 129.955 102.827 129.251 103.36C128.547 103.883 127.672 104.144 126.627 104.144C125.795 104.144 125.048 103.957 124.387 103.584C123.736 103.211 123.224 102.683 122.851 102C122.478 101.307 122.291 100.507 122.291 99.6C122.291 98.6933 122.472 97.8987 122.835 97.216C123.198 96.5333 123.704 96.0107 124.355 95.648C125.016 95.2747 125.774 95.088 126.627 95.088C127.459 95.088 128.195 95.2693 128.835 95.632C129.475 95.9947 129.966 96.496 130.307 97.136C130.659 97.7653 130.835 98.48 130.835 99.28ZM129.331 98.976C129.331 98.4213 129.208 97.9467 128.963 97.552C128.718 97.1467 128.382 96.8427 127.955 96.64C127.539 96.4267 127.075 96.32 126.563 96.32C125.827 96.32 125.198 96.5547 124.675 97.024C124.163 97.4933 123.87 98.144 123.795 98.976H129.331ZM138.629 95.072C139.696 95.072 140.56 95.3973 141.221 96.048C141.882 96.688 142.213 97.616 142.213 98.832V104H140.773V99.04C140.773 98.1653 140.554 97.4987 140.117 97.04C139.68 96.5707 139.082 96.336 138.325 96.336C137.557 96.336 136.944 96.576 136.485 97.056C136.037 97.536 135.813 98.2347 135.813 99.152V104H134.357V95.232H135.813V96.48C136.101 96.032 136.49 95.6853 136.981 95.44C137.482 95.1947 138.032 95.072 138.629 95.072ZM152.809 93.808C152.532 93.808 152.297 93.712 152.105 93.52C151.913 93.328 151.817 93.0933 151.817 92.816C151.817 92.5387 151.913 92.304 152.105 92.112C152.297 91.92 152.532 91.824 152.809 91.824C153.076 91.824 153.3 91.92 153.481 92.112C153.673 92.304 153.769 92.5387 153.769 92.816C153.769 93.0933 153.673 93.328 153.481 93.52C153.3 93.712 153.076 93.808 152.809 93.808ZM153.513 95.232V104H152.057V95.232H153.513ZM160.699 104.144C160.027 104.144 159.424 104.032 158.891 103.808C158.357 103.573 157.936 103.253 157.627 102.848C157.317 102.432 157.147 101.957 157.115 101.424H158.619C158.661 101.861 158.864 102.219 159.227 102.496C159.6 102.773 160.085 102.912 160.683 102.912C161.237 102.912 161.675 102.789 161.995 102.544C162.315 102.299 162.475 101.989 162.475 101.616C162.475 101.232 162.304 100.949 161.963 100.768C161.621 100.576 161.093 100.389 160.379 100.208C159.728 100.037 159.195 99.8667 158.779 99.696C158.373 99.5147 158.021 99.2533 157.723 98.912C157.435 98.56 157.291 98.1013 157.291 97.536C157.291 97.088 157.424 96.6773 157.691 96.304C157.957 95.9307 158.336 95.6373 158.827 95.424C159.317 95.2 159.877 95.088 160.507 95.088C161.477 95.088 162.261 95.3333 162.859 95.824C163.456 96.3147 163.776 96.9867 163.819 97.84H162.363C162.331 97.3813 162.144 97.0133 161.803 96.736C161.472 96.4587 161.024 96.32 160.459 96.32C159.936 96.32 159.52 96.432 159.211 96.656C158.901 96.88 158.747 97.1733 158.747 97.536C158.747 97.824 158.837 98.064 159.019 98.256C159.211 98.4373 159.445 98.5867 159.723 98.704C160.011 98.8107 160.405 98.9333 160.907 99.072C161.536 99.2427 162.048 99.4133 162.443 99.584C162.837 99.744 163.173 99.9893 163.451 100.32C163.739 100.651 163.888 101.083 163.899 101.616C163.899 102.096 163.765 102.528 163.499 102.912C163.232 103.296 162.853 103.6 162.363 103.824C161.883 104.037 161.328 104.144 160.699 104.144ZM176.524 104.144C175.852 104.144 175.249 104.032 174.716 103.808C174.182 103.573 173.761 103.253 173.452 102.848C173.142 102.432 172.972 101.957 172.94 101.424H174.444C174.486 101.861 174.689 102.219 175.052 102.496C175.425 102.773 175.91 102.912 176.508 102.912C177.062 102.912 177.5 102.789 177.82 102.544C178.14 102.299 178.3 101.989 178.3 101.616C178.3 101.232 178.129 100.949 177.788 100.768C177.446 100.576 176.918 100.389 176.204 100.208C175.553 100.037 175.02 99.8667 174.604 99.696C174.198 99.5147 173.846 99.2533 173.548 98.912C173.26 98.56 173.116 98.1013 173.116 97.536C173.116 97.088 173.249 96.6773 173.516 96.304C173.782 95.9307 174.161 95.6373 174.652 95.424C175.142 95.2 175.702 95.088 176.332 95.088C177.302 95.088 178.086 95.3333 178.684 95.824C179.281 96.3147 179.601 96.9867 179.644 97.84H178.188C178.156 97.3813 177.969 97.0133 177.628 96.736C177.297 96.4587 176.849 96.32 176.284 96.32C175.761 96.32 175.345 96.432 175.036 96.656C174.726 96.88 174.572 97.1733 174.572 97.536C174.572 97.824 174.662 98.064 174.844 98.256C175.036 98.4373 175.27 98.5867 175.548 98.704C175.836 98.8107 176.23 98.9333 176.732 99.072C177.361 99.2427 177.873 99.4133 178.268 99.584C178.662 99.744 178.998 99.9893 179.276 100.32C179.564 100.651 179.713 101.083 179.724 101.616C179.724 102.096 179.59 102.528 179.324 102.912C179.057 103.296 178.678 103.6 178.188 103.824C177.708 104.037 177.153 104.144 176.524 104.144ZM191.379 99.28C191.379 99.5573 191.363 99.8507 191.331 100.16H184.323C184.376 101.024 184.67 101.701 185.203 102.192C185.747 102.672 186.403 102.912 187.171 102.912C187.8 102.912 188.323 102.768 188.739 102.48C189.166 102.181 189.464 101.787 189.635 101.296H191.203C190.968 102.139 190.499 102.827 189.795 103.36C189.091 103.883 188.216 104.144 187.171 104.144C186.339 104.144 185.592 103.957 184.931 103.584C184.28 103.211 183.768 102.683 183.395 102C183.022 101.307 182.835 100.507 182.835 99.6C182.835 98.6933 183.016 97.8987 183.379 97.216C183.742 96.5333 184.248 96.0107 184.899 95.648C185.56 95.2747 186.318 95.088 187.171 95.088C188.003 95.088 188.739 95.2693 189.379 95.632C190.019 95.9947 190.51 96.496 190.851 97.136C191.203 97.7653 191.379 98.48 191.379 99.28ZM189.875 98.976C189.875 98.4213 189.752 97.9467 189.507 97.552C189.262 97.1467 188.926 96.8427 188.499 96.64C188.083 96.4267 187.619 96.32 187.107 96.32C186.371 96.32 185.742 96.5547 185.219 97.024C184.707 97.4933 184.414 98.144 184.339 98.976H189.875ZM196.357 96.848C196.645 96.3467 197.071 95.9307 197.637 95.6C198.213 95.2587 198.879 95.088 199.637 95.088C200.415 95.088 201.119 95.2747 201.749 95.648C202.389 96.0213 202.89 96.5493 203.253 97.232C203.615 97.904 203.797 98.688 203.797 99.584C203.797 100.469 203.615 101.259 203.253 101.952C202.89 102.645 202.389 103.184 201.749 103.568C201.119 103.952 200.415 104.144 199.637 104.144C198.89 104.144 198.229 103.979 197.653 103.648C197.087 103.307 196.655 102.885 196.357 102.384V108.16H194.901V95.232H196.357V96.848ZM202.309 99.584C202.309 98.9227 202.175 98.3467 201.909 97.856C201.642 97.3653 201.279 96.992 200.821 96.736C200.373 96.48 199.877 96.352 199.333 96.352C198.799 96.352 198.303 96.4853 197.845 96.752C197.397 97.008 197.034 97.3867 196.757 97.888C196.49 98.3787 196.357 98.9493 196.357 99.6C196.357 100.261 196.49 100.843 196.757 101.344C197.034 101.835 197.397 102.213 197.845 102.48C198.303 102.736 198.799 102.864 199.333 102.864C199.877 102.864 200.373 102.736 200.821 102.48C201.279 102.213 201.642 101.835 201.909 101.344C202.175 100.843 202.309 100.256 202.309 99.584ZM206.769 99.584C206.769 98.688 206.951 97.904 207.313 97.232C207.676 96.5493 208.172 96.0213 208.801 95.648C209.441 95.2747 210.151 95.088 210.929 95.088C211.697 95.088 212.364 95.2533 212.929 95.584C213.495 95.9147 213.916 96.3307 214.193 96.832V95.232H215.665V104H214.193V102.368C213.905 102.88 213.473 103.307 212.897 103.648C212.332 103.979 211.671 104.144 210.913 104.144C210.135 104.144 209.431 103.952 208.801 103.568C208.172 103.184 207.676 102.645 207.313 101.952C206.951 101.259 206.769 100.469 206.769 99.584ZM214.193 99.6C214.193 98.9387 214.06 98.3627 213.793 97.872C213.527 97.3813 213.164 97.008 212.705 96.752C212.257 96.4853 211.761 96.352 211.217 96.352C210.673 96.352 210.177 96.48 209.729 96.736C209.281 96.992 208.924 97.3653 208.657 97.856C208.391 98.3467 208.257 98.9227 208.257 99.584C208.257 100.256 208.391 100.843 208.657 101.344C208.924 101.835 209.281 102.213 209.729 102.48C210.177 102.736 210.673 102.864 211.217 102.864C211.761 102.864 212.257 102.736 212.705 102.48C213.164 102.213 213.527 101.835 213.793 101.344C214.06 100.843 214.193 100.261 214.193 99.6ZM221.182 96.656C221.438 96.1547 221.8 95.7653 222.27 95.488C222.75 95.2107 223.331 95.072 224.014 95.072V96.576H223.63C221.998 96.576 221.182 97.4613 221.182 99.232V104H219.726V95.232H221.182V96.656ZM226.751 99.584C226.751 98.688 226.932 97.904 227.295 97.232C227.657 96.5493 228.153 96.0213 228.783 95.648C229.423 95.2747 230.132 95.088 230.911 95.088C231.679 95.088 232.345 95.2533 232.911 95.584C233.476 95.9147 233.897 96.3307 234.175 96.832V95.232H235.647V104H234.175V102.368C233.887 102.88 233.455 103.307 232.879 103.648C232.313 103.979 231.652 104.144 230.895 104.144C230.116 104.144 229.412 103.952 228.783 103.568C228.153 103.184 227.657 102.645 227.295 101.952C226.932 101.259 226.751 100.469 226.751 99.584ZM234.175 99.6C234.175 98.9387 234.041 98.3627 233.775 97.872C233.508 97.3813 233.145 97.008 232.687 96.752C232.239 96.4853 231.743 96.352 231.199 96.352C230.655 96.352 230.159 96.48 229.711 96.736C229.263 96.992 228.905 97.3653 228.639 97.856C228.372 98.3467 228.239 98.9227 228.239 99.584C228.239 100.256 228.372 100.843 228.639 101.344C228.905 101.835 229.263 102.213 229.711 102.48C230.159 102.736 230.655 102.864 231.199 102.864C231.743 102.864 232.239 102.736 232.687 102.48C233.145 102.213 233.508 101.835 233.775 101.344C234.041 100.843 234.175 100.261 234.175 99.6ZM241.483 96.432V101.6C241.483 102.027 241.574 102.331 241.755 102.512C241.936 102.683 242.251 102.768 242.699 102.768H243.771V104H242.459C241.648 104 241.04 103.813 240.635 103.44C240.23 103.067 240.027 102.453 240.027 101.6V96.432H238.891V95.232H240.027V93.024H241.483V95.232H243.771V96.432H241.483ZM255.135 99.28C255.135 99.5573 255.119 99.8507 255.087 100.16H248.079C248.132 101.024 248.426 101.701 248.959 102.192C249.503 102.672 250.159 102.912 250.927 102.912C251.556 102.912 252.079 102.768 252.495 102.48C252.922 102.181 253.22 101.787 253.391 101.296H254.959C254.724 102.139 254.255 102.827 253.551 103.36C252.847 103.883 251.972 104.144 250.927 104.144C250.095 104.144 249.348 103.957 248.687 103.584C248.036 103.211 247.524 102.683 247.151 102C246.778 101.307 246.591 100.507 246.591 99.6C246.591 98.6933 246.772 97.8987 247.135 97.216C247.498 96.5333 248.004 96.0107 248.655 95.648C249.316 95.2747 250.074 95.088 250.927 95.088C251.759 95.088 252.495 95.2693 253.135 95.632C253.775 95.9947 254.266 96.496 254.607 97.136C254.959 97.7653 255.135 98.48 255.135 99.28ZM253.631 98.976C253.631 98.4213 253.508 97.9467 253.263 97.552C253.018 97.1467 252.682 96.8427 252.255 96.64C251.839 96.4267 251.375 96.32 250.863 96.32C250.127 96.32 249.498 96.5547 248.975 97.024C248.463 97.4933 248.17 98.144 248.095 98.976H253.631ZM266.299 96.432V101.6C266.299 102.027 266.389 102.331 266.571 102.512C266.752 102.683 267.067 102.768 267.515 102.768H268.587V104H267.275C266.464 104 265.856 103.813 265.451 103.44C265.045 103.067 264.843 102.453 264.843 101.6V96.432H263.707V95.232H264.843V93.024H266.299V95.232H268.587V96.432H266.299ZM276.303 95.072C276.964 95.072 277.561 95.216 278.095 95.504C278.628 95.7813 279.044 96.2027 279.343 96.768C279.652 97.3333 279.807 98.0213 279.807 98.832V104H278.367V99.04C278.367 98.1653 278.148 97.4987 277.711 97.04C277.273 96.5707 276.676 96.336 275.919 96.336C275.151 96.336 274.537 96.576 274.079 97.056C273.631 97.536 273.407 98.2347 273.407 99.152V104H271.951V92.16H273.407V96.48C273.695 96.032 274.089 95.6853 274.591 95.44C275.103 95.1947 275.673 95.072 276.303 95.072ZM283.241 99.584C283.241 98.688 283.422 97.904 283.785 97.232C284.148 96.5493 284.644 96.0213 285.273 95.648C285.913 95.2747 286.622 95.088 287.401 95.088C288.169 95.088 288.836 95.2533 289.401 95.584C289.966 95.9147 290.388 96.3307 290.665 96.832V95.232H292.137V104H290.665V102.368C290.377 102.88 289.945 103.307 289.369 103.648C288.804 103.979 288.142 104.144 287.385 104.144C286.606 104.144 285.902 103.952 285.273 103.568C284.644 103.184 284.148 102.645 283.785 101.952C283.422 101.259 283.241 100.469 283.241 99.584ZM290.665 99.6C290.665 98.9387 290.532 98.3627 290.265 97.872C289.998 97.3813 289.636 97.008 289.177 96.752C288.729 96.4853 288.233 96.352 287.689 96.352C287.145 96.352 286.649 96.48 286.201 96.736C285.753 96.992 285.396 97.3653 285.129 97.856C284.862 98.3467 284.729 98.9227 284.729 99.584C284.729 100.256 284.862 100.843 285.129 101.344C285.396 101.835 285.753 102.213 286.201 102.48C286.649 102.736 287.145 102.864 287.689 102.864C288.233 102.864 288.729 102.736 289.177 102.48C289.636 102.213 289.998 101.835 290.265 101.344C290.532 100.843 290.665 100.261 290.665 99.6ZM300.47 95.072C301.536 95.072 302.4 95.3973 303.062 96.048C303.723 96.688 304.054 97.616 304.054 98.832V104H302.614V99.04C302.614 98.1653 302.395 97.4987 301.958 97.04C301.52 96.5707 300.923 96.336 300.166 96.336C299.398 96.336 298.784 96.576 298.326 97.056C297.878 97.536 297.654 98.2347 297.654 99.152V104H296.198V95.232H297.654V96.48C297.942 96.032 298.331 95.6853 298.822 95.44C299.323 95.1947 299.872 95.072 300.47 95.072ZM312.928 104L309.488 100.128V104H308.032V92.16H309.488V99.12L312.864 95.232H314.896L310.768 99.6L314.912 104H312.928ZM320.97 104.144C320.298 104.144 319.696 104.032 319.162 103.808C318.629 103.573 318.208 103.253 317.898 102.848C317.589 102.432 317.418 101.957 317.386 101.424H318.89C318.933 101.861 319.136 102.219 319.498 102.496C319.872 102.773 320.357 102.912 320.954 102.912C321.509 102.912 321.946 102.789 322.266 102.544C322.586 102.299 322.746 101.989 322.746 101.616C322.746 101.232 322.576 100.949 322.234 100.768C321.893 100.576 321.365 100.389 320.65 100.208C320 100.037 319.466 99.8667 319.05 99.696C318.645 99.5147 318.293 99.2533 317.994 98.912C317.706 98.56 317.562 98.1013 317.562 97.536C317.562 97.088 317.696 96.6773 317.962 96.304C318.229 95.9307 318.608 95.6373 319.098 95.424C319.589 95.2 320.149 95.088 320.778 95.088C321.749 95.088 322.533 95.3333 323.13 95.824C323.728 96.3147 324.048 96.9867 324.09 97.84H322.634C322.602 97.3813 322.416 97.0133 322.074 96.736C321.744 96.4587 321.296 96.32 320.73 96.32C320.208 96.32 319.792 96.432 319.482 96.656C319.173 96.88 319.018 97.1733 319.018 97.536C319.018 97.824 319.109 98.064 319.29 98.256C319.482 98.4373 319.717 98.5867 319.994 98.704C320.282 98.8107 320.677 98.9333 321.178 99.072C321.808 99.2427 322.32 99.4133 322.714 99.584C323.109 99.744 323.445 99.9893 323.722 100.32C324.01 100.651 324.16 101.083 324.17 101.616C324.17 102.096 324.037 102.528 323.77 102.912C323.504 103.296 323.125 103.6 322.634 103.824C322.154 104.037 321.6 104.144 320.97 104.144ZM329.714 92.848L329.538 100.848H328.322L328.146 92.848H329.714ZM328.994 104.096C328.716 104.096 328.482 104 328.29 103.808C328.098 103.616 328.002 103.381 328.002 103.104C328.002 102.827 328.098 102.592 328.29 102.4C328.482 102.208 328.716 102.112 328.994 102.112C329.26 102.112 329.484 102.208 329.666 102.4C329.858 102.592 329.954 102.827 329.954 103.104C329.954 103.381 329.858 103.616 329.666 103.808C329.484 104 329.26 104.096 328.994 104.096ZM348.505 96.08C348.196 95.4293 347.748 94.928 347.161 94.576C346.574 94.2133 345.892 94.032 345.113 94.032C344.334 94.032 343.63 94.2133 343.001 94.576C342.382 94.928 341.892 95.44 341.529 96.112C341.177 96.7733 341.001 97.5413 341.001 98.416C341.001 99.2907 341.177 100.059 341.529 100.72C341.892 101.381 342.382 101.893 343.001 102.256C343.63 102.608 344.334 102.784 345.113 102.784C346.201 102.784 347.097 102.459 347.801 101.808C348.505 101.157 348.916 100.277 349.033 99.168H344.585V97.984H350.585V99.104C350.5 100.021 350.212 100.864 349.721 101.632C349.23 102.389 348.585 102.992 347.785 103.44C346.985 103.877 346.094 104.096 345.113 104.096C344.078 104.096 343.134 103.856 342.281 103.376C341.428 102.885 340.75 102.208 340.249 101.344C339.758 100.48 339.513 99.504 339.513 98.416C339.513 97.328 339.758 96.352 340.249 95.488C340.75 94.6133 341.428 93.936 342.281 93.456C343.134 92.9653 344.078 92.72 345.113 92.72C346.297 92.72 347.342 93.0133 348.249 93.6C349.166 94.1867 349.833 95.0133 350.249 96.08H348.505ZM355.566 96.656C355.822 96.1547 356.185 95.7653 356.654 95.488C357.134 95.2107 357.715 95.072 358.398 95.072V96.576H358.014C356.382 96.576 355.566 97.4613 355.566 99.232V104H354.11V95.232H355.566V96.656ZM369.679 99.28C369.679 99.5573 369.663 99.8507 369.631 100.16H362.623C362.676 101.024 362.97 101.701 363.503 102.192C364.047 102.672 364.703 102.912 365.471 102.912C366.1 102.912 366.623 102.768 367.039 102.48C367.466 102.181 367.764 101.787 367.935 101.296H369.503C369.268 102.139 368.799 102.827 368.095 103.36C367.391 103.883 366.516 104.144 365.471 104.144C364.639 104.144 363.892 103.957 363.231 103.584C362.58 103.211 362.068 102.683 361.695 102C361.322 101.307 361.135 100.507 361.135 99.6C361.135 98.6933 361.316 97.8987 361.679 97.216C362.042 96.5333 362.548 96.0107 363.199 95.648C363.86 95.2747 364.618 95.088 365.471 95.088C366.303 95.088 367.039 95.2693 367.679 95.632C368.319 95.9947 368.81 96.496 369.151 97.136C369.503 97.7653 369.679 98.48 369.679 99.28ZM368.175 98.976C368.175 98.4213 368.052 97.9467 367.807 97.552C367.562 97.1467 367.226 96.8427 366.799 96.64C366.383 96.4267 365.919 96.32 365.407 96.32C364.671 96.32 364.042 96.5547 363.519 97.024C363.007 97.4933 362.714 98.144 362.639 98.976H368.175ZM372.657 99.584C372.657 98.688 372.838 97.904 373.201 97.232C373.563 96.5493 374.059 96.0213 374.689 95.648C375.329 95.2747 376.038 95.088 376.817 95.088C377.585 95.088 378.251 95.2533 378.817 95.584C379.382 95.9147 379.803 96.3307 380.081 96.832V95.232H381.553V104H380.081V102.368C379.793 102.88 379.361 103.307 378.785 103.648C378.219 103.979 377.558 104.144 376.801 104.144C376.022 104.144 375.318 103.952 374.689 103.568C374.059 103.184 373.563 102.645 373.201 101.952C372.838 101.259 372.657 100.469 372.657 99.584ZM380.081 99.6C380.081 98.9387 379.947 98.3627 379.681 97.872C379.414 97.3813 379.051 97.008 378.593 96.752C378.145 96.4853 377.649 96.352 377.105 96.352C376.561 96.352 376.065 96.48 375.617 96.736C375.169 96.992 374.811 97.3653 374.545 97.856C374.278 98.3467 374.145 98.9227 374.145 99.584C374.145 100.256 374.278 100.843 374.545 101.344C374.811 101.835 375.169 102.213 375.617 102.48C376.065 102.736 376.561 102.864 377.105 102.864C377.649 102.864 378.145 102.736 378.593 102.48C379.051 102.213 379.414 101.835 379.681 101.344C379.947 100.843 380.081 100.261 380.081 99.6ZM387.389 96.432V101.6C387.389 102.027 387.48 102.331 387.661 102.512C387.843 102.683 388.157 102.768 388.605 102.768H389.677V104H388.365C387.555 104 386.947 103.813 386.541 103.44C386.136 103.067 385.933 102.453 385.933 101.6V96.432H384.797V95.232H385.933V93.024H387.389V95.232H389.677V96.432H387.389ZM152.602 128.144C151.93 128.144 151.327 128.032 150.794 127.808C150.26 127.573 149.839 127.253 149.53 126.848C149.22 126.432 149.05 125.957 149.018 125.424H150.522C150.564 125.861 150.767 126.219 151.13 126.496C151.503 126.773 151.988 126.912 152.586 126.912C153.14 126.912 153.578 126.789 153.898 126.544C154.218 126.299 154.378 125.989 154.378 125.616C154.378 125.232 154.207 124.949 153.866 124.768C153.524 124.576 152.996 124.389 152.282 124.208C151.631 124.037 151.098 123.867 150.682 123.696C150.276 123.515 149.924 123.253 149.626 122.912C149.338 122.56 149.194 122.101 149.194 121.536C149.194 121.088 149.327 120.677 149.594 120.304C149.86 119.931 150.239 119.637 150.73 119.424C151.22 119.2 151.78 119.088 152.41 119.088C153.38 119.088 154.164 119.333 154.762 119.824C155.359 120.315 155.679 120.987 155.722 121.84H154.266C154.234 121.381 154.047 121.013 153.706 120.736C153.375 120.459 152.927 120.32 152.362 120.32C151.839 120.32 151.423 120.432 151.114 120.656C150.804 120.88 150.65 121.173 150.65 121.536C150.65 121.824 150.74 122.064 150.922 122.256C151.114 122.437 151.348 122.587 151.626 122.704C151.914 122.811 152.308 122.933 152.81 123.072C153.439 123.243 153.951 123.413 154.346 123.584C154.74 123.744 155.076 123.989 155.354 124.32C155.642 124.651 155.791 125.083 155.802 125.616C155.802 126.096 155.668 126.528 155.402 126.912C155.135 127.296 154.756 127.6 154.266 127.824C153.786 128.037 153.231 128.144 152.602 128.144ZM163.809 119.072C164.47 119.072 165.068 119.216 165.601 119.504C166.134 119.781 166.55 120.203 166.849 120.768C167.158 121.333 167.313 122.021 167.313 122.832V128H165.873V123.04C165.873 122.165 165.654 121.499 165.217 121.04C164.78 120.571 164.182 120.336 163.425 120.336C162.657 120.336 162.044 120.576 161.585 121.056C161.137 121.536 160.913 122.235 160.913 123.152V128H159.457V116.16H160.913V120.48C161.201 120.032 161.596 119.685 162.097 119.44C162.609 119.195 163.18 119.072 163.809 119.072ZM175.115 128.144C174.294 128.144 173.547 127.957 172.875 127.584C172.214 127.211 171.691 126.683 171.307 126C170.934 125.307 170.747 124.507 170.747 123.6C170.747 122.704 170.939 121.915 171.323 121.232C171.718 120.539 172.251 120.011 172.923 119.648C173.595 119.275 174.347 119.088 175.179 119.088C176.011 119.088 176.763 119.275 177.435 119.648C178.107 120.011 178.635 120.533 179.019 121.216C179.414 121.899 179.611 122.693 179.611 123.6C179.611 124.507 179.409 125.307 179.003 126C178.609 126.683 178.07 127.211 177.387 127.584C176.705 127.957 175.947 128.144 175.115 128.144ZM175.115 126.864C175.638 126.864 176.129 126.741 176.587 126.496C177.046 126.251 177.414 125.883 177.691 125.392C177.979 124.901 178.123 124.304 178.123 123.6C178.123 122.896 177.985 122.299 177.707 121.808C177.43 121.317 177.067 120.955 176.619 120.72C176.171 120.475 175.686 120.352 175.163 120.352C174.63 120.352 174.139 120.475 173.691 120.72C173.254 120.955 172.902 121.317 172.635 121.808C172.369 122.299 172.235 122.896 172.235 123.6C172.235 124.315 172.363 124.917 172.619 125.408C172.886 125.899 173.238 126.267 173.675 126.512C174.113 126.747 174.593 126.864 175.115 126.864ZM184.582 120.848C184.87 120.347 185.296 119.931 185.862 119.6C186.438 119.259 187.104 119.088 187.862 119.088C188.64 119.088 189.344 119.275 189.974 119.648C190.614 120.021 191.115 120.549 191.478 121.232C191.84 121.904 192.022 122.688 192.022 123.584C192.022 124.469 191.84 125.259 191.478 125.952C191.115 126.645 190.614 127.184 189.974 127.568C189.344 127.952 188.64 128.144 187.862 128.144C187.115 128.144 186.454 127.979 185.878 127.648C185.312 127.307 184.88 126.885 184.582 126.384V132.16H183.126V119.232H184.582V120.848ZM190.534 123.584C190.534 122.923 190.4 122.347 190.134 121.856C189.867 121.365 189.504 120.992 189.046 120.736C188.598 120.48 188.102 120.352 187.558 120.352C187.024 120.352 186.528 120.485 186.07 120.752C185.622 121.008 185.259 121.387 184.982 121.888C184.715 122.379 184.582 122.949 184.582 123.6C184.582 124.261 184.715 124.843 184.982 125.344C185.259 125.835 185.622 126.213 186.07 126.48C186.528 126.736 187.024 126.864 187.558 126.864C188.102 126.864 188.598 126.736 189.046 126.48C189.504 126.213 189.867 125.835 190.134 125.344C190.4 124.843 190.534 124.256 190.534 123.584ZM202.156 117.808C201.879 117.808 201.644 117.712 201.452 117.52C201.26 117.328 201.164 117.093 201.164 116.816C201.164 116.539 201.26 116.304 201.452 116.112C201.644 115.92 201.879 115.824 202.156 115.824C202.423 115.824 202.647 115.92 202.828 116.112C203.02 116.304 203.116 116.539 203.116 116.816C203.116 117.093 203.02 117.328 202.828 117.52C202.647 117.712 202.423 117.808 202.156 117.808ZM202.86 119.232V128H201.404V119.232H202.86ZM211.213 119.072C212.28 119.072 213.144 119.397 213.805 120.048C214.467 120.688 214.797 121.616 214.797 122.832V128H213.357V123.04C213.357 122.165 213.139 121.499 212.701 121.04C212.264 120.571 211.667 120.336 210.909 120.336C210.141 120.336 209.528 120.576 209.069 121.056C208.621 121.536 208.397 122.235 208.397 123.152V128H206.941V119.232H208.397V120.48C208.685 120.032 209.075 119.685 209.565 119.44C210.067 119.195 210.616 119.072 211.213 119.072ZM229.697 128.112C228.663 128.112 227.719 127.872 226.865 127.392C226.012 126.901 225.335 126.224 224.833 125.36C224.343 124.485 224.097 123.504 224.097 122.416C224.097 121.328 224.343 120.352 224.833 119.488C225.335 118.613 226.012 117.936 226.865 117.456C227.719 116.965 228.663 116.72 229.697 116.72C230.743 116.72 231.692 116.965 232.545 117.456C233.399 117.936 234.071 118.608 234.561 119.472C235.052 120.336 235.297 121.317 235.297 122.416C235.297 123.515 235.052 124.496 234.561 125.36C234.071 126.224 233.399 126.901 232.545 127.392C231.692 127.872 230.743 128.112 229.697 128.112ZM229.697 126.848C230.476 126.848 231.175 126.667 231.793 126.304C232.423 125.941 232.913 125.424 233.265 124.752C233.628 124.08 233.809 123.301 233.809 122.416C233.809 121.52 233.628 120.741 233.265 120.08C232.913 119.408 232.428 118.891 231.809 118.528C231.191 118.165 230.487 117.984 229.697 117.984C228.908 117.984 228.204 118.165 227.585 118.528C226.967 118.891 226.476 119.408 226.113 120.08C225.761 120.741 225.585 121.52 225.585 122.416C225.585 123.301 225.761 124.08 226.113 124.752C226.476 125.424 226.967 125.941 227.585 126.304C228.215 126.667 228.919 126.848 229.697 126.848ZM240.275 120.656C240.531 120.155 240.894 119.765 241.363 119.488C241.843 119.211 242.425 119.072 243.107 119.072V120.576H242.723C241.091 120.576 240.275 121.461 240.275 123.232V128H238.819V119.232H240.275V120.656ZM247.844 116.16V128H246.388V116.16H247.844ZM251.382 123.584C251.382 122.688 251.563 121.904 251.926 121.232C252.288 120.549 252.784 120.021 253.414 119.648C254.054 119.275 254.763 119.088 255.542 119.088C256.31 119.088 256.976 119.253 257.542 119.584C258.107 119.915 258.528 120.331 258.806 120.832V119.232H260.278V128H258.806V126.368C258.518 126.88 258.086 127.307 257.51 127.648C256.944 127.979 256.283 128.144 255.526 128.144C254.747 128.144 254.043 127.952 253.414 127.568C252.784 127.184 252.288 126.645 251.926 125.952C251.563 125.259 251.382 124.469 251.382 123.584ZM258.806 123.6C258.806 122.939 258.672 122.363 258.406 121.872C258.139 121.381 257.776 121.008 257.318 120.752C256.87 120.485 256.374 120.352 255.83 120.352C255.286 120.352 254.79 120.48 254.342 120.736C253.894 120.992 253.536 121.365 253.27 121.856C253.003 122.347 252.87 122.923 252.87 123.584C252.87 124.256 253.003 124.843 253.27 125.344C253.536 125.835 253.894 126.213 254.342 126.48C254.79 126.736 255.286 126.864 255.83 126.864C256.374 126.864 256.87 126.736 257.318 126.48C257.776 126.213 258.139 125.835 258.406 125.344C258.672 124.843 258.806 124.261 258.806 123.6ZM268.61 119.072C269.677 119.072 270.541 119.397 271.202 120.048C271.864 120.688 272.194 121.616 272.194 122.832V128H270.754V123.04C270.754 122.165 270.536 121.499 270.098 121.04C269.661 120.571 269.064 120.336 268.306 120.336C267.538 120.336 266.925 120.576 266.466 121.056C266.018 121.536 265.794 122.235 265.794 123.152V128H264.338V119.232H265.794V120.48C266.082 120.032 266.472 119.685 266.962 119.44C267.464 119.195 268.013 119.072 268.61 119.072ZM275.629 123.584C275.629 122.688 275.81 121.904 276.173 121.232C276.535 120.549 277.031 120.021 277.661 119.648C278.301 119.275 279.015 119.088 279.805 119.088C280.487 119.088 281.122 119.248 281.709 119.568C282.295 119.877 282.743 120.288 283.053 120.8V116.16H284.525V128H283.053V126.352C282.765 126.875 282.338 127.307 281.773 127.648C281.207 127.979 280.546 128.144 279.789 128.144C279.01 128.144 278.301 127.952 277.661 127.568C277.031 127.184 276.535 126.645 276.173 125.952C275.81 125.259 275.629 124.469 275.629 123.584ZM283.053 123.6C283.053 122.939 282.919 122.363 282.653 121.872C282.386 121.381 282.023 121.008 281.565 120.752C281.117 120.485 280.621 120.352 280.077 120.352C279.533 120.352 279.037 120.48 278.589 120.736C278.141 120.992 277.783 121.365 277.517 121.856C277.25 122.347 277.117 122.923 277.117 123.584C277.117 124.256 277.25 124.843 277.517 125.344C277.783 125.835 278.141 126.213 278.589 126.48C279.037 126.736 279.533 126.864 280.077 126.864C280.621 126.864 281.117 126.736 281.565 126.48C282.023 126.213 282.386 125.835 282.653 125.344C282.919 124.843 283.053 124.261 283.053 123.6ZM292.409 128.144C291.588 128.144 290.841 127.957 290.169 127.584C289.508 127.211 288.985 126.683 288.601 126C288.228 125.307 288.041 124.507 288.041 123.6C288.041 122.704 288.233 121.915 288.617 121.232C289.012 120.539 289.545 120.011 290.217 119.648C290.889 119.275 291.641 119.088 292.473 119.088C293.305 119.088 294.057 119.275 294.729 119.648C295.401 120.011 295.929 120.533 296.313 121.216C296.708 121.899 296.905 122.693 296.905 123.6C296.905 124.507 296.702 125.307 296.297 126C295.902 126.683 295.364 127.211 294.681 127.584C293.998 127.957 293.241 128.144 292.409 128.144ZM292.409 126.864C292.932 126.864 293.422 126.741 293.881 126.496C294.34 126.251 294.708 125.883 294.985 125.392C295.273 124.901 295.417 124.304 295.417 123.6C295.417 122.896 295.278 122.299 295.001 121.808C294.724 121.317 294.361 120.955 293.913 120.72C293.465 120.475 292.98 120.352 292.457 120.352C291.924 120.352 291.433 120.475 290.985 120.72C290.548 120.955 290.196 121.317 289.929 121.808C289.662 122.299 289.529 122.896 289.529 123.6C289.529 124.315 289.657 124.917 289.913 125.408C290.18 125.899 290.532 126.267 290.969 126.512C291.406 126.747 291.886 126.864 292.409 126.864ZM305.741 123.584C305.741 122.688 305.922 121.904 306.285 121.232C306.648 120.549 307.144 120.021 307.773 119.648C308.413 119.275 309.122 119.088 309.901 119.088C310.669 119.088 311.336 119.253 311.901 119.584C312.466 119.915 312.888 120.331 313.165 120.832V119.232H314.637V128H313.165V126.368C312.877 126.88 312.445 127.307 311.869 127.648C311.304 127.979 310.642 128.144 309.885 128.144C309.106 128.144 308.402 127.952 307.773 127.568C307.144 127.184 306.648 126.645 306.285 125.952C305.922 125.259 305.741 124.469 305.741 123.584ZM313.165 123.6C313.165 122.939 313.032 122.363 312.765 121.872C312.498 121.381 312.136 121.008 311.677 120.752C311.229 120.485 310.733 120.352 310.189 120.352C309.645 120.352 309.149 120.48 308.701 120.736C308.253 120.992 307.896 121.365 307.629 121.856C307.362 122.347 307.229 122.923 307.229 123.584C307.229 124.256 307.362 124.843 307.629 125.344C307.896 125.835 308.253 126.213 308.701 126.48C309.149 126.736 309.645 126.864 310.189 126.864C310.733 126.864 311.229 126.736 311.677 126.48C312.136 126.213 312.498 125.835 312.765 125.344C313.032 124.843 313.165 124.261 313.165 123.6ZM320.154 120.656C320.41 120.155 320.772 119.765 321.242 119.488C321.722 119.211 322.303 119.072 322.986 119.072V120.576H322.602C320.97 120.576 320.154 121.461 320.154 123.232V128H318.698V119.232H320.154V120.656ZM334.266 123.28C334.266 123.557 334.25 123.851 334.218 124.16H327.21C327.264 125.024 327.557 125.701 328.09 126.192C328.634 126.672 329.29 126.912 330.058 126.912C330.688 126.912 331.21 126.768 331.626 126.48C332.053 126.181 332.352 125.787 332.522 125.296H334.09C333.856 126.139 333.386 126.827 332.682 127.36C331.978 127.883 331.104 128.144 330.058 128.144C329.226 128.144 328.48 127.957 327.818 127.584C327.168 127.211 326.656 126.683 326.282 126C325.909 125.307 325.722 124.507 325.722 123.6C325.722 122.693 325.904 121.899 326.266 121.216C326.629 120.533 327.136 120.011 327.786 119.648C328.448 119.275 329.205 119.088 330.058 119.088C330.89 119.088 331.626 119.269 332.266 119.632C332.906 119.995 333.397 120.496 333.738 121.136C334.09 121.765 334.266 122.48 334.266 123.28ZM332.762 122.976C332.762 122.421 332.64 121.947 332.394 121.552C332.149 121.147 331.813 120.843 331.386 120.64C330.97 120.427 330.506 120.32 329.994 120.32C329.258 120.32 328.629 120.555 328.106 121.024C327.594 121.493 327.301 122.144 327.226 122.976H332.762ZM337.244 123.584C337.244 122.688 337.426 121.904 337.788 121.232C338.151 120.549 338.647 120.021 339.276 119.648C339.916 119.275 340.626 119.088 341.404 119.088C342.172 119.088 342.839 119.253 343.404 119.584C343.97 119.915 344.391 120.331 344.668 120.832V119.232H346.14V128H344.668V126.368C344.38 126.88 343.948 127.307 343.372 127.648C342.807 127.979 342.146 128.144 341.388 128.144C340.61 128.144 339.906 127.952 339.276 127.568C338.647 127.184 338.151 126.645 337.788 125.952C337.426 125.259 337.244 124.469 337.244 123.584ZM344.668 123.6C344.668 122.939 344.535 122.363 344.268 121.872C344.002 121.381 343.639 121.008 343.18 120.752C342.732 120.485 342.236 120.352 341.692 120.352C341.148 120.352 340.652 120.48 340.204 120.736C339.756 120.992 339.399 121.365 339.132 121.856C338.866 122.347 338.732 122.923 338.732 123.584C338.732 124.256 338.866 124.843 339.132 125.344C339.399 125.835 339.756 126.213 340.204 126.48C340.652 126.736 341.148 126.864 341.692 126.864C342.236 126.864 342.732 126.736 343.18 126.48C343.639 126.213 344.002 125.835 344.268 125.344C344.535 124.843 344.668 124.261 344.668 123.6ZM352.089 116.848L351.913 124.848H350.697L350.521 116.848H352.089ZM351.369 128.096C351.091 128.096 350.857 128 350.665 127.808C350.473 127.616 350.377 127.381 350.377 127.104C350.377 126.827 350.473 126.592 350.665 126.4C350.857 126.208 351.091 126.112 351.369 126.112C351.635 126.112 351.859 126.208 352.041 126.4C352.233 126.592 352.329 126.827 352.329 127.104C352.329 127.381 352.233 127.616 352.041 127.808C351.859 128 351.635 128.096 351.369 128.096Z" fill="white"/>
<path opacity="0.2" d="M275 141L460.991 141" stroke="white"/>
<path d="M60.8643 35.6367C58.9111 37.0527 56.7871 38.1514 54.4922 38.9326C52.2461 39.7139 50.0488 40.1045 47.9004 40.1045C46.4355 40.1045 45.0195 39.9092 43.6523 39.5186C42.334 39.0791 41.1621 38.4443 40.1367 37.6143C39.1113 36.7842 38.2812 35.7344 37.6465 34.4648C37.0605 33.1465 36.7676 31.6328 36.7676 29.9238C36.7676 27.873 37.0605 25.9443 37.6465 24.1377C38.2324 22.2822 39.1357 20.2803 40.3564 18.1318C41.5771 15.9346 43.0908 13.4687 44.8975 10.7344C46.7041 8 48.8281 4.72852 51.2695 0.919922H63.8672L56.1768 22.0869L60.8643 35.6367ZM28.4912 35.7832C26.5381 37.1992 24.4141 38.2979 22.1191 39.0791C19.873 39.8115 17.6758 40.1777 15.5273 40.1777C14.0625 40.1777 12.6465 39.9824 11.2793 39.5918C9.96094 39.1523 8.78906 38.5176 7.76367 37.6875C6.73828 36.8574 5.9082 35.8076 5.27344 34.5381C4.6875 33.2197 4.39453 31.7061 4.39453 29.9971C4.39453 27.9463 4.6875 26.0176 5.27344 24.2109C5.85938 22.3555 6.7627 20.3535 7.9834 18.2051C9.2041 16.0078 10.7178 13.542 12.5244 10.8076C14.3311 8.07324 16.4551 4.80176 18.8965 0.993164H31.4941L23.8037 22.1602L28.4912 35.7832Z" fill="white" fill-opacity="0.5"/>
</svg>
