<svg width="1343" height="130" viewBox="0 0 1343 130" fill="none" xmlns="http://www.w3.org/2000/svg">
<mask id="mask0" mask-type="alpha" maskUnits="userSpaceOnUse" x="0" y="0" width="1343" height="130">
<rect width="1343" height="130" fill="#C4C4C4"/>
</mask>
<g mask="url(#mask0)">
<path opacity="0.5" fill-rule="evenodd" clip-rule="evenodd" d="M736.923 43.627L739.523 40.8314C740.954 39.2936 742.393 38.2058 742.721 38.4149C742.922 38.5434 744.321 39.4319 746.286 40.6797C747.519 41.463 748.976 42.3878 750.499 43.3551C756.683 47.2827 758.515 49.1925 763.687 57.1024C768.245 64.0749 776.558 73.3434 798.181 95.5619L826.669 124.835L830.278 121.571C832.263 119.776 834.243 118.307 834.678 118.307C836.135 118.307 839.548 122.911 840.201 125.756C840.496 127.044 841.185 128.451 842.174 129.877H820.605L791.754 100.301C769.436 77.4235 760.436 68.8987 754.535 65.0473C747.696 60.5829 746.157 58.976 741.838 51.7965L736.923 43.627Z" fill="#950E0E"/>
<path opacity="0.5" fill-rule="evenodd" clip-rule="evenodd" d="M1101.16 46.8763C1101.98 46.2593 1103.14 46.5372 1103.7 47.3936C1107.42 53.1134 1113.86 56.896 1121.2 56.896C1132.71 56.896 1142.05 47.5594 1142.05 36.0421C1142.05 34.5345 1141.89 33.0643 1141.59 31.6474C1141.37 30.6478 1142 29.6259 1143.01 29.4847C1147.11 28.9122 1151.31 28.6162 1155.57 28.6162C1159.84 28.6162 1164.03 28.9123 1168.14 29.4851C1169.15 29.6263 1169.78 30.6481 1169.56 31.6477C1169.26 33.0645 1169.1 34.5346 1169.1 36.0421C1169.1 47.5594 1178.44 56.896 1189.95 56.896C1197.28 56.896 1203.73 53.1139 1207.45 47.3948C1208.01 46.5384 1209.17 46.2605 1209.98 46.8775C1216.83 52.0636 1222.91 58.204 1228.02 65.1005C1228.63 65.9162 1228.35 67.07 1227.49 67.6219C1221.75 71.3366 1217.96 77.7958 1217.96 85.1421C1217.96 96.6593 1227.29 105.996 1238.81 105.996C1240.19 105.996 1241.54 105.861 1242.85 105.605C1243.85 105.409 1244.85 106.043 1244.98 107.051C1245.48 110.891 1245.74 114.807 1245.74 118.782C1245.74 122.539 1245.51 126.241 1245.06 129.877H1207.77C1208.53 126.298 1208.92 122.587 1208.92 118.782C1208.92 89.3168 1185.04 65.4302 1155.57 65.4302C1126.11 65.4302 1102.22 89.3168 1102.22 118.782C1102.22 122.587 1102.62 126.298 1103.37 129.877H1066.08C1065.64 126.241 1065.41 122.539 1065.41 118.782C1065.41 114.541 1065.7 110.369 1066.27 106.284C1066.41 105.281 1067.41 104.656 1068.4 104.854C1069.73 105.119 1071.1 105.258 1072.51 105.258C1084.02 105.258 1093.36 95.921 1093.36 84.4037C1093.36 77.1589 1089.67 70.777 1084.06 67.0391C1083.22 66.4779 1082.95 65.3269 1083.56 64.5193C1088.58 57.8581 1094.51 51.9165 1101.16 46.8763Z" fill="#950E0E"/>
<path opacity="0.5" fill-rule="evenodd" clip-rule="evenodd" d="M494.415 0C492.335 4.28521 489.603 9.90208 484.794 19.7888C476.899 36.0174 474.465 41.0319 471.281 47.626C465.708 59.1713 462.039 65.9106 459.566 69.146C454.189 76.1816 450.62 79.1781 439.87 85.6817C433.261 89.6805 429.597 93.0173 427.284 97.1442C423.898 103.184 423.407 110.576 425.969 116.919C427.618 120.999 432.289 125.679 436.042 127.009C436.383 127.13 436.911 127.133 437.215 127.017C437.983 126.725 438.085 126.125 439.779 111.953C440.121 109.092 440.352 108.127 440.782 107.766C441.439 107.214 448.835 106.647 451.673 106.931C454.247 107.189 455.303 107.834 456.078 109.621C456.581 110.779 456.614 111.355 456.262 112.807C456.025 113.782 455.729 115.864 455.603 117.433C455.477 119.003 455.263 121.645 455.128 123.306C454.993 124.966 455.044 127.124 455.241 128.101L455.601 129.877L458.319 128.772C461.45 127.5 464.183 125.671 466.709 123.159C468.227 121.648 468.814 120.798 470.84 117.175C473.074 113.177 473.818 111.298 474.233 108.606C474.306 108.126 474.479 108.193 475.871 109.239L477.426 110.407L479.218 108.962C480.68 107.782 481.005 107.392 480.986 106.84C480.973 106.427 481.278 105.746 481.772 105.091C482.31 104.376 482.697 103.457 482.93 102.338C483.386 100.153 483.396 97.5309 482.949 97.7789C482.761 97.8833 481.907 97.7963 481.051 97.5854C479.226 97.1353 479.005 96.869 477.918 93.7951C475.832 87.8999 476.026 81.9776 478.564 74.1139C479.36 71.6471 485.225 60.8024 518.667 0H494.415Z" fill="#950E0E"/>
<path opacity="0.5" fill-rule="evenodd" clip-rule="evenodd" d="M159.839 19.0105C160.832 18.8972 161.722 18.779 161.816 18.7478C161.911 18.7168 162.313 18.6849 162.71 18.6773C163.574 18.6607 163.863 19.0107 163.566 19.7148C163.461 19.9646 162.482 21.0912 161.392 22.2185C160.301 23.3456 158.171 25.617 156.657 27.2658C155.144 28.9147 153.383 30.8052 152.745 31.4666C152.107 32.128 151.584 32.7035 151.584 32.7457C151.584 32.7878 151.06 33.363 150.42 34.0239C149.78 34.6848 148.81 35.7138 148.265 36.3105C147.811 36.8075 147.545 37.0559 147.442 37.3594C147.292 37.8045 147.494 38.3682 147.973 40.0083C148.172 40.6902 148.404 41.4874 148.489 41.7796C148.574 42.0719 148.806 42.869 149.005 43.551C149.204 44.233 149.432 45.0301 149.511 45.3224L149.921 46.828C150.067 47.3639 150.265 48.0414 150.362 48.3337C150.46 48.626 150.677 49.3566 150.847 49.9573L151.154 51.0494L152.1 51.3181C152.62 51.4658 153.588 51.7156 154.25 51.873C154.912 52.0307 155.879 52.2698 156.399 52.4045C156.92 52.5393 157.848 52.769 158.463 52.9151C161.45 53.6255 162.051 53.7753 162.863 54.0123C163.376 54.162 163.725 54.2782 164.064 54.2554C164.89 54.1998 165.66 53.32 168.609 50.0919C173.506 44.7304 178.8 39.1297 179.646 38.414C181.009 37.2614 181.71 36.9851 181.91 37.5222C182.073 37.9595 181.24 44.4324 180.719 46.7759C180.584 47.3805 180.475 48.051 180.475 48.266C180.475 48.4809 180.364 49.0624 180.228 49.5581C180.092 50.0537 179.854 50.9774 179.698 51.6107C179.32 53.146 177.88 57.785 177.608 58.3419C177.489 58.5855 177.082 59.4623 176.703 60.2904C176.046 61.7271 175.328 63.1118 175.143 63.3017C175.096 63.3504 174.834 63.7291 174.561 64.1431C174.288 64.5571 173.998 64.8959 173.916 64.8959C173.835 64.8959 173.768 64.9719 173.768 65.0646C173.768 65.2456 172.1 67.0216 171.93 67.0216C171.874 67.0216 171.742 67.1323 171.637 67.2674C171.212 67.815 168.393 69.1479 167.663 69.1463C167.223 69.1453 165.179 69.8278 163.708 70.4669C162.457 71.0105 160.436 72.0585 160.383 72.1908C160.352 72.2705 160.233 72.3357 160.121 72.3357C159.909 72.3357 156.713 74.529 155.797 75.3024C155.514 75.5422 154.895 76.0662 154.422 76.4668C153.442 77.2967 149.798 81.0196 148.675 82.3373C148.263 82.8209 147.54 83.7376 147.068 84.3744C146.596 85.0114 146.142 85.5589 146.06 85.5913C145.977 85.6239 145.909 85.7568 145.909 85.8866C145.909 86.0164 145.844 86.1493 145.763 86.1819C145.501 86.2878 143.345 89.6518 142.642 91.0528C142.406 91.5238 142.115 92.0146 141.997 92.1432C141.879 92.272 141.782 92.4461 141.782 92.5303C141.782 92.6144 141.318 93.3981 140.75 94.2721C140.183 95.1461 139.719 95.9019 139.719 95.952C139.719 96.0022 139.254 96.8531 138.687 97.8433C138.119 98.8335 137.655 99.6854 137.655 99.7362C137.655 99.7872 137.423 100.183 137.139 100.616C136.855 101.049 136.623 101.474 136.623 101.559C136.623 101.645 136.527 101.82 136.408 101.949C136.29 102.078 136.015 102.542 135.797 102.98C135.579 103.419 135.251 104.017 135.069 104.309C134.886 104.601 134.658 105 134.563 105.194C134.467 105.389 134.311 105.668 134.217 105.814C133.935 106.253 131.98 109.736 131.98 109.8C131.98 109.833 131.531 110.643 130.983 111.601C130.434 112.559 129.93 113.462 129.863 113.608C129.796 113.755 129.587 114.113 129.399 114.406C129.211 114.698 128.973 115.156 128.868 115.424C128.764 115.692 128.629 115.912 128.567 115.913C128.505 115.914 128.302 116.273 128.115 116.71C127.929 117.147 127.723 117.505 127.659 117.505C127.595 117.505 127.457 117.725 127.353 117.993C127.249 118.261 127.01 118.719 126.823 119.011C126.635 119.303 126.426 119.662 126.359 119.808C126.292 119.954 125.788 120.858 125.239 121.815C124.69 122.773 124.242 123.584 124.242 123.617C124.242 123.649 123.793 124.46 123.244 125.418C122.696 126.376 122.192 127.279 122.125 127.425C122.057 127.571 121.849 127.93 121.661 128.222C121.473 128.515 121.234 128.973 121.13 129.241C121.026 129.509 120.89 129.729 120.828 129.73C120.804 129.73 120.756 129.785 120.696 129.877H96C96.1234 129.658 96.2532 129.428 96.3831 129.196C96.9033 128.271 97.4223 127.354 97.5365 127.159C97.6507 126.965 97.8259 126.646 97.926 126.451C98.0261 126.256 98.2607 125.857 98.4474 125.565C98.6342 125.273 98.8419 124.914 98.9091 124.768C98.9762 124.622 99.4648 123.745 99.9944 122.82C100.524 121.894 101.013 121.017 101.08 120.871C101.147 120.725 101.355 120.366 101.541 120.074C101.728 119.782 101.963 119.383 102.063 119.188C102.163 118.993 102.338 118.675 102.452 118.48C102.567 118.285 103.086 117.368 103.606 116.443C104.126 115.517 104.645 114.6 104.759 114.406C104.873 114.211 105.048 113.892 105.149 113.697C105.249 113.502 105.483 113.104 105.67 112.811C105.857 112.519 106.064 112.16 106.132 112.014C106.199 111.868 106.687 110.991 107.217 110.066C107.747 109.14 108.235 108.263 108.302 108.117C108.37 107.971 108.577 107.612 108.764 107.32C108.951 107.028 109.185 106.629 109.285 106.434C109.385 106.24 109.561 105.921 109.675 105.726C109.789 105.531 110.308 104.614 110.828 103.689C111.348 102.763 111.867 101.847 111.982 101.652C112.096 101.457 112.271 101.138 112.371 100.943C112.471 100.748 112.706 100.35 112.893 100.058C113.079 99.7652 113.287 99.4066 113.354 99.2604C113.421 99.1143 113.91 98.2374 114.44 97.3119C114.969 96.3864 115.458 95.5095 115.525 95.3634C115.592 95.2173 115.8 94.8586 115.987 94.5663C116.173 94.274 116.408 93.8755 116.508 93.6806C116.608 93.4858 116.783 93.1669 116.897 92.9721C117.012 92.7772 117.531 91.8605 118.051 90.935C118.571 90.0095 119.09 89.0928 119.204 88.8979C119.318 88.7031 119.494 88.3842 119.594 88.1894C119.694 87.9945 119.928 87.596 120.115 87.3037C120.302 87.0114 120.51 86.6527 120.577 86.5066C120.644 86.3605 121.043 85.643 121.463 84.9124C121.884 84.1817 122.534 82.986 122.909 82.2553C123.712 80.6884 124.445 79.3682 124.579 79.244C124.632 79.1953 124.829 78.8366 125.017 78.4469C125.205 78.0572 125.404 77.6985 125.458 77.6498C125.512 77.6011 125.966 76.6844 126.467 75.6127C126.968 74.541 127.446 73.5257 127.529 73.3565C128.049 72.3027 129.249 68.3503 129.641 66.4016C130.365 62.8009 130.519 57.0337 130.231 44.2595C130.081 37.6226 130.3 35.8071 131.578 33.0716C131.844 32.5026 132.101 31.9973 132.15 31.9486C132.199 31.8999 132.471 31.5032 132.754 31.0673C133.418 30.0463 135.807 27.5855 136.799 26.9002C137.223 26.6079 137.595 26.3089 137.626 26.2359C137.658 26.1629 137.751 26.1031 137.833 26.1031C137.915 26.1031 138.315 25.8838 138.721 25.6159C139.889 24.8465 140.086 24.7318 141.18 24.1845C142.672 23.438 144.285 22.7771 147.285 21.6824C147.616 21.5616 148.158 21.4008 148.489 21.3252C148.82 21.2493 149.826 20.9888 150.724 20.7457C153.432 20.0138 156.999 19.3347 159.839 19.0105Z" fill="#950E0E"/>
</g>
</svg>
