<svg width="400" height="452" viewBox="0 0 400 452" fill="none" xmlns="http://www.w3.org/2000/svg">
<path opacity="0.5" fill-rule="evenodd" clip-rule="evenodd" d="M232 279.238L234.6 276.442C236.031 274.904 237.47 273.817 237.798 274.026C238 274.154 239.399 275.043 241.363 276.291C242.597 277.074 244.053 277.999 245.576 278.966C251.76 282.894 253.592 284.803 258.764 292.713C263.322 299.686 271.635 308.954 293.258 331.173L321.746 360.446L325.355 357.182C327.34 355.387 329.32 353.918 329.755 353.918C331.212 353.918 334.625 358.522 335.278 361.367C336.26 365.647 341.591 371.237 347.808 374.507C352.067 376.747 358.921 383.168 376.645 401.526C396.18 421.76 399.895 426.082 399.895 428.573C399.895 430.883 398.278 433.204 392.572 439.08C388.409 443.369 386.035 446.165 383.308 446.566C383.096 446.597 382.883 446.614 382.666 446.616H382.584C378.087 446.577 372.205 440.18 356.116 423.705C338.902 406.077 333.062 399.429 330.822 394.907C326.568 386.32 322.599 382.136 316.839 380.165C312.632 378.726 309.895 376.338 309.895 374.108C309.895 373.807 311.329 371.879 313.081 369.823L316.266 366.086L286.831 335.912C264.513 313.034 255.513 304.51 249.612 300.658C242.773 296.194 241.234 294.587 236.915 287.407L232 279.238ZM390.88 431.96C395.417 431.06 392.755 427.441 371.254 405.276C359.241 392.892 348.901 382.759 348.276 382.759C347.651 382.759 346.564 383.474 345.86 384.348C344.763 385.71 347.766 389.227 366.984 409.095C379.64 422.179 390.037 432.127 390.88 431.96ZM385.895 436.943C385.895 436.377 376.121 425.809 364.175 413.457C344.291 392.898 340.508 389.683 338.562 391.687C338.195 392.064 337.895 393.121 337.895 394.036C337.895 395.8 380.801 440.443 382.497 440.443C383.046 440.443 384.035 439.887 384.695 439.207C385.355 438.527 385.895 437.508 385.895 436.943Z" fill="#950E0E"/>
<path opacity="0.5" fill-rule="evenodd" clip-rule="evenodd" d="M54.7571 18.2601C55.5712 17.6431 56.735 17.921 57.2918 18.7774C61.0103 24.4972 67.4575 28.2797 74.7882 28.2797C86.3055 28.2797 95.6421 18.9432 95.6421 7.42594C95.6421 5.91832 95.4821 4.44807 95.1782 3.03123C94.9637 2.03156 95.5882 1.00973 96.6009 0.868539C100.707 0.295988 104.902 0 109.166 0C113.431 0 117.627 0.296104 121.734 0.868875C122.746 1.01009 123.371 2.03188 123.157 3.03153C122.853 4.44827 122.693 5.91842 122.693 7.42594C122.693 18.9432 132.029 28.2797 143.546 28.2797C150.877 28.2797 157.324 24.4977 161.042 18.7786C161.599 17.9222 162.763 17.6443 163.577 18.2613C170.42 23.4474 176.499 29.5878 181.618 36.4843C182.223 37.2999 181.94 38.4538 181.088 39.0056C175.347 42.7204 171.549 49.1795 171.549 56.5259C171.549 68.0431 180.885 77.3797 192.403 77.3797C193.785 77.3797 195.135 77.2453 196.442 76.9888C197.439 76.793 198.445 77.4269 198.576 78.4349C199.075 82.2747 199.332 86.1904 199.332 90.1661C199.332 94.6488 199.005 99.055 198.374 103.362C198.229 104.35 197.244 104.967 196.263 104.783C195.012 104.549 193.721 104.427 192.403 104.427C180.885 104.427 171.549 113.763 171.549 125.28C171.549 132.334 175.051 138.57 180.411 142.344C181.227 142.918 181.472 144.053 180.867 144.846C175.814 151.461 169.866 157.357 163.204 162.352C162.406 162.95 161.274 162.696 160.707 161.876C156.943 156.438 150.661 152.875 143.546 152.875C132.029 152.875 122.693 162.211 122.693 173.729C122.693 174.978 122.802 176.201 123.013 177.389C123.187 178.372 122.561 179.35 121.573 179.486C117.588 180.034 113.519 180.322 109.385 180.332H108.948C104.814 180.322 100.746 180.034 96.7616 179.486C95.7734 179.35 95.1478 178.372 95.3217 177.39C95.5322 176.201 95.6421 174.978 95.6421 173.729C95.6421 162.211 86.3055 152.875 74.7882 152.875C67.6732 152.875 61.3905 156.438 57.627 161.877C57.0598 162.697 55.9279 162.952 55.1303 162.354C48.3276 157.253 42.2695 151.214 37.1484 144.428C36.5389 143.62 36.8074 142.469 37.6493 141.908C43.2576 138.17 46.9525 131.788 46.9525 124.542C46.9525 113.025 37.6159 103.689 26.0987 103.689C24.6941 103.689 23.3219 103.827 21.9952 104.092C21.0023 104.29 19.998 103.665 19.8589 102.662C19.2927 98.578 19 94.4062 19 90.1661C19 85.9252 19.2928 81.7527 19.8592 77.6677C19.9983 76.6648 21.0026 76.0397 21.9955 76.2378C23.3221 76.5025 24.6942 76.6413 26.0987 76.6413C37.6159 76.6413 46.9525 67.3048 46.9525 55.7875C46.9525 48.5427 43.2581 42.1608 37.6504 38.4229C36.8086 37.8617 36.5402 36.7107 37.1496 35.9031C42.1766 29.2419 48.1064 23.3003 54.7571 18.2601ZM162.516 90.1662C162.516 119.632 138.63 143.519 109.164 143.519C79.6983 143.519 55.8117 119.632 55.8117 90.1662C55.8117 60.7006 79.6983 36.814 109.164 36.814C138.63 36.814 162.516 60.7006 162.516 90.1662Z" fill="#950E0E"/>
<path opacity="0.5" fill-rule="evenodd" clip-rule="evenodd" d="M270.87 211.039C270.566 211.155 270.038 211.151 269.697 211.03C265.944 209.7 261.273 205.02 259.624 200.94C257.062 194.598 257.554 187.205 260.939 181.165C263.252 177.038 266.916 173.702 273.525 169.703C284.275 163.199 287.844 160.203 293.221 153.167C295.694 149.932 299.363 143.192 304.937 131.647C308.12 125.053 310.554 120.039 318.449 103.81C326.336 87.5969 328.634 82.8664 331.64 76.6611C333.385 73.0568 336.398 66.8563 338.335 62.8821C340.271 58.9079 343.316 52.6472 345.101 48.9695C346.885 45.2917 348.919 41.1201 349.62 39.6992C350.32 38.2782 352.406 33.9795 354.255 30.1464C356.104 26.3135 358.63 21.3274 359.87 19.0662L362.123 14.9551L363.916 13.8222C367.893 11.3087 372.403 11.3971 376.91 14.0774C379.841 15.8204 381.729 18.3084 382.825 21.8726C383.242 23.2283 383.553 24.0846 383.603 24.9557C383.713 26.8926 382.527 28.9031 378.32 36.642C375.402 42.0104 364.225 62.3826 353.482 81.9135C319.015 144.574 313.025 155.64 312.219 158.135C309.681 165.999 309.487 171.921 311.573 177.816C312.661 180.89 312.881 181.156 314.706 181.607C315.562 181.817 316.416 181.905 316.605 181.8C317.052 181.552 317.041 184.174 316.586 186.359C316.352 187.478 315.966 188.397 315.427 189.112C314.934 189.767 314.628 190.448 314.642 190.861C314.66 191.413 314.335 191.803 312.873 192.983L311.082 194.429L309.526 193.26C308.135 192.214 307.962 192.147 307.888 192.627C307.474 195.319 306.73 197.198 304.495 201.196C302.47 204.819 301.883 205.669 300.364 207.18C297.839 209.692 295.105 211.521 291.974 212.793L289.256 213.898L288.897 212.122C288.699 211.145 288.648 208.987 288.784 207.327C288.919 205.666 289.132 203.024 289.258 201.454C289.384 199.885 289.68 197.803 289.917 196.828C290.269 195.376 290.236 194.8 289.734 193.642C288.958 191.855 287.902 191.21 285.328 190.952C282.49 190.669 275.095 191.235 274.437 191.787C274.007 192.148 273.776 193.113 273.434 195.974C271.74 210.146 271.638 210.746 270.87 211.039ZM374.503 19.0492C369.268 15.3095 362.787 21.9413 366.48 27.2597C368.291 29.8694 371.765 30.6485 374.233 28.9994C375.578 28.1003 376.906 25.8239 377.03 24.2031C377.165 22.4421 376.039 20.1461 374.503 19.0492Z" fill="#950E0E"/>
<path opacity="0.5" fill-rule="evenodd" clip-rule="evenodd" d="M125.299 226.334C126.292 226.22 127.182 226.102 127.277 226.071C127.371 226.04 127.774 226.008 128.171 226.001C129.035 225.984 129.323 226.334 129.027 227.038C128.921 227.288 127.943 228.414 126.852 229.542C125.762 230.669 123.631 232.94 122.118 234.589C120.605 236.238 118.844 238.128 118.206 238.79C117.567 239.451 117.045 240.027 117.045 240.069C117.045 240.111 116.521 240.686 115.881 241.347C115.241 242.008 114.271 243.037 113.726 243.634C113.272 244.131 113.005 244.379 112.903 244.683C112.753 245.128 112.955 245.691 113.434 247.332C113.633 248.013 113.865 248.811 113.949 249.103C114.034 249.395 114.266 250.192 114.465 250.874C114.664 251.556 114.892 252.353 114.972 252.646L115.381 254.151C115.527 254.687 115.726 255.365 115.823 255.657C115.92 255.949 116.138 256.68 116.307 257.281L116.615 258.373L117.561 258.641C118.081 258.789 119.048 259.039 119.71 259.196C120.372 259.354 121.34 259.593 121.86 259.728C122.38 259.862 123.309 260.092 123.923 260.238C126.911 260.949 127.512 261.099 128.324 261.336C128.837 261.485 129.185 261.601 129.524 261.579C130.35 261.523 131.121 260.643 134.07 257.415C138.967 252.054 144.26 246.453 145.106 245.737C146.469 244.585 147.171 244.308 147.371 244.845C147.534 245.283 146.7 251.756 146.18 254.099C146.045 254.704 145.935 255.374 145.935 255.589C145.935 255.804 145.824 256.386 145.689 256.881C145.553 257.377 145.314 258.301 145.159 258.934C144.781 260.469 143.34 265.108 143.068 265.665C142.95 265.909 142.542 266.786 142.164 267.614C141.506 269.05 140.789 270.435 140.604 270.625C140.556 270.674 140.294 271.052 140.021 271.466C139.749 271.88 139.459 272.219 139.377 272.219C139.295 272.219 139.228 272.295 139.228 272.388C139.228 272.569 137.561 274.345 137.391 274.345C137.335 274.345 137.203 274.456 137.098 274.591C136.673 275.138 133.853 276.471 133.124 276.47C132.683 276.469 130.639 277.151 129.168 277.79C127.917 278.334 125.896 279.382 125.844 279.514C125.812 279.594 125.694 279.659 125.581 279.659C125.37 279.659 122.173 281.852 121.258 282.626C120.974 282.865 120.355 283.389 119.882 283.79C118.903 284.62 115.259 288.343 114.136 289.661C113.724 290.144 113.001 291.061 112.529 291.698C112.057 292.335 111.603 292.882 111.52 292.915C111.438 292.947 111.37 293.08 111.37 293.21C111.37 293.34 111.304 293.473 111.224 293.505C110.961 293.611 108.806 296.975 108.103 298.376C107.866 298.847 107.576 299.338 107.458 299.466C107.34 299.595 107.243 299.769 107.243 299.854C107.243 299.938 106.778 300.721 106.211 301.595C105.644 302.469 105.179 303.225 105.179 303.275C105.179 303.325 104.715 304.176 104.147 305.167C103.58 306.157 103.116 307.009 103.116 307.059C103.116 307.11 102.883 307.507 102.6 307.94C102.316 308.373 102.084 308.797 102.084 308.883C102.084 308.968 101.987 309.144 101.869 309.272C101.751 309.401 101.476 309.865 101.258 310.304C101.04 310.742 100.712 311.34 100.529 311.632C100.347 311.924 100.119 312.323 100.023 312.518C99.9274 312.713 99.7721 312.992 99.678 313.138C99.3955 313.577 97.4407 317.059 97.4407 317.123C97.4407 317.156 96.9919 317.967 96.4433 318.925C95.8946 319.882 95.3907 320.786 95.3236 320.932C95.2564 321.078 95.0476 321.437 94.8599 321.729C94.6721 322.021 94.4332 322.479 94.329 322.747C94.225 323.015 94.0893 323.235 94.0275 323.236C93.9658 323.237 93.7627 323.596 93.576 324.033C93.3892 324.471 93.184 324.829 93.1199 324.829C93.0558 324.829 92.918 325.048 92.814 325.316C92.7097 325.584 92.4709 326.042 92.2831 326.334C92.0953 326.627 91.8866 326.985 91.8193 327.131C91.7523 327.278 91.2484 328.181 90.6996 329.139C90.1511 330.097 89.7022 330.907 89.7022 330.94C89.7022 330.973 89.2534 331.783 88.7048 332.741C88.1561 333.699 87.6522 334.602 87.5852 334.748C87.5179 334.894 87.3092 335.253 87.1214 335.545C86.9336 335.838 86.6947 336.296 86.5905 336.564C86.4865 336.832 86.3508 337.052 86.289 337.053C86.2273 337.054 86.0234 337.393 85.8356 337.806C85.6478 338.219 85.445 338.597 85.3849 338.645C85.3247 338.694 85.0678 339.132 84.8141 339.62C84.5605 340.107 84.2802 340.625 84.1914 340.771C83.804 341.409 81.9638 344.703 81.9638 344.758C81.9638 344.857 80.6948 347.05 80.5815 347.148C80.5247 347.197 80.2902 347.62 80.0603 348.088C79.6195 348.986 79.4013 349.382 78.8694 350.248C78.69 350.54 78.3649 351.138 78.147 351.576C77.9291 352.015 77.7098 352.413 77.6595 352.462C77.5482 352.57 76.2889 354.765 76.2889 354.852C76.2889 354.885 75.8246 355.723 75.2571 356.713C74.6896 357.703 74.2253 358.555 74.2253 358.606C74.2253 358.657 73.9931 359.053 73.7094 359.486C73.4257 359.919 73.1935 360.344 73.1935 360.429C73.1935 360.515 73.0968 360.69 72.9785 360.819C72.8604 360.948 72.5852 361.412 72.3674 361.85C72.1493 362.289 71.8216 362.886 71.6389 363.179C71.4565 363.471 71.2286 363.87 71.1328 364.064C71.037 364.259 70.8818 364.538 70.7877 364.684C70.5051 365.123 68.5504 368.606 68.5504 368.67C68.5504 368.703 68.1016 369.513 67.553 370.471C67.0043 371.429 66.5004 372.332 66.4333 372.478C66.3661 372.625 66.1584 372.983 65.9716 373.276C65.7849 373.568 65.5487 374.005 65.4468 374.246C65.345 374.488 65.2029 374.727 65.1314 374.778C65.0598 374.828 64.8275 375.228 64.6151 375.667C64.4026 376.105 64.0801 376.703 63.8985 376.995C63.7171 377.288 63.4901 377.686 63.3943 377.881C63.2986 378.076 63.1433 378.355 63.0492 378.501C62.7667 378.94 60.8119 382.422 60.8119 382.487C60.8119 382.519 60.3631 383.33 59.8145 384.288C59.2658 385.246 58.7619 386.149 58.6949 386.295C58.6276 386.441 58.4188 386.8 58.2311 387.092C58.0433 387.384 57.8044 387.843 57.7002 388.111C57.5962 388.379 57.4584 388.598 57.3943 388.598C57.3301 388.598 57.125 388.956 56.9382 389.393C56.7515 389.831 56.5484 390.189 56.4866 390.19C56.4249 390.191 56.2892 390.411 56.1852 390.679C56.081 390.947 55.8421 391.405 55.6543 391.698C55.4665 391.99 55.2578 392.349 55.1905 392.495C55.1235 392.641 54.6196 393.544 54.0709 394.502C53.5223 395.46 53.0735 396.271 53.0735 396.305C53.0735 396.391 51.8141 398.587 51.7029 398.695C51.6525 398.743 51.4181 399.168 51.1817 399.639C50.732 400.534 50.5197 400.914 49.9791 401.794C49.7997 402.087 49.4745 402.685 49.2567 403.123C49.0388 403.561 48.8195 403.96 48.7691 404.009C48.6579 404.117 47.3986 406.312 47.3986 406.398C47.3986 406.432 46.9343 407.27 46.3668 408.26C45.7993 409.25 45.335 410.088 45.335 410.122C45.335 410.208 44.0757 412.403 43.9644 412.511C43.914 412.56 43.6948 412.959 43.4769 413.397C43.259 413.835 42.9312 414.433 42.7486 414.725C42.5662 415.018 42.3383 415.416 42.2425 415.611C42.1467 415.806 41.9715 416.122 41.853 416.313C40.5734 418.378 40.4749 418.695 40.8509 419.532C41.5 420.978 41.9106 422.212 42.5228 424.557C42.9579 426.223 42.9553 432.117 42.5189 433.768C42.0693 435.467 41.5744 437.093 41.3997 437.444C41.3151 437.614 41.0455 438.192 40.8006 438.727C40.3478 439.719 39.6444 441.047 39.4876 441.207C39.4401 441.256 39.1693 441.655 38.8857 442.093C38.2634 443.056 34.9912 446.521 34.7047 446.521C34.5928 446.521 34.5011 446.594 34.5011 446.682C34.5011 446.77 34.1424 447.069 33.704 447.346C33.2655 447.623 32.7046 447.984 32.4573 448.148C31.9404 448.491 30.9025 449.027 30.03 449.402C29.6989 449.544 29.1959 449.759 28.9122 449.881C27.5002 450.486 24.6574 451.075 22.3422 451.242C22.1534 451.256 21.9445 451.263 21.7201 451.264H21.5795C19.8323 451.255 17.2598 450.912 15.9657 450.485C15.5604 450.351 15.151 450.241 15.0557 450.241C14.9606 450.241 14.3861 450.002 13.7792 449.71C13.1723 449.418 12.5826 449.178 12.4686 449.178C12.0661 449.178 10.6499 448.109 10.4479 447.652C10.274 447.259 10.2893 447.152 10.5493 446.949C10.7178 446.818 10.9266 446.707 11.0134 446.704C11.1001 446.701 11.1261 446.652 11.0712 446.596C11.0164 446.539 10.7846 446.619 10.556 446.774C10.3275 446.928 10.0762 446.994 9.99765 446.921C9.91906 446.847 9.90238 446.873 9.96033 446.978C10.0841 447.203 9.4673 447.194 9.26851 446.969C9.19576 446.887 9.22741 446.873 9.33918 446.939C9.61313 447.1 9.75242 446.832 9.55999 446.513C9.43153 446.301 9.34332 446.295 9.05269 446.48C8.76465 446.664 8.61589 446.659 8.23069 446.448C7.29021 445.935 4.06309 442.445 4.06309 441.941C4.06309 441.83 3.99809 441.739 3.91881 441.739C3.83936 441.739 3.68356 441.559 3.57265 441.34C3.46155 441.121 3.1374 440.543 2.85228 440.056C2.56699 439.569 2.25797 438.971 2.16545 438.727C2.07293 438.484 1.89323 438.085 1.76632 437.842C1.29977 436.947 0.481042 433.799 0.188699 431.777C-0.279909 428.534 0.124551 425.056 1.39899 421.368C1.79297 420.228 3.23817 417.294 3.40584 417.294C3.48357 417.294 3.5472 417.208 3.5472 417.103C3.5472 416.561 7.52667 411.98 7.99751 411.98C8.10344 411.98 8.19028 411.91 8.19028 411.825C8.19028 411.657 10.7818 409.854 11.0241 409.854C11.1058 409.854 11.2948 409.748 11.4441 409.618C11.7247 409.374 12.9691 408.803 14.467 408.23C15.9896 407.647 18.0302 407.232 20.0095 407.102L21.9405 406.975L22.3546 406.245C22.5825 405.843 22.9809 405.116 23.2402 404.629C23.4996 404.142 23.8062 403.623 23.9214 403.477C24.0366 403.331 24.1843 403.092 24.2497 402.946C24.315 402.8 24.4622 402.521 24.5768 402.326C24.6913 402.131 25.2106 401.214 25.7308 400.289C26.251 399.363 26.77 398.447 26.8842 398.252C26.9984 398.057 27.1736 397.738 27.2737 397.543C27.3738 397.348 27.6084 396.95 27.7951 396.658C27.9819 396.365 28.1896 396.007 28.2568 395.86C28.3239 395.714 28.8125 394.837 29.3421 393.912C29.8718 392.986 30.3603 392.11 30.4274 391.963C30.4946 391.817 30.7034 391.459 30.8912 391.166C31.079 390.874 31.3178 390.416 31.4221 390.148C31.5261 389.88 31.6812 389.661 31.7665 389.661C31.8518 389.661 31.9216 389.587 31.9216 389.498C31.9216 389.408 32.3704 388.552 32.919 387.594C33.4678 386.636 33.9716 385.733 34.0387 385.587C34.1059 385.44 34.3137 385.082 34.5004 384.789C34.6872 384.497 34.9217 384.099 35.0218 383.904C35.1219 383.709 35.2971 383.39 35.4113 383.195C35.5255 383 36.0445 382.084 36.5647 381.158C37.0849 380.233 37.6039 379.316 37.7181 379.121C37.8323 378.926 38.0075 378.607 38.1076 378.412C38.2077 378.218 38.4422 377.819 38.629 377.527C38.8157 377.235 39.0235 376.876 39.0907 376.73C39.1578 376.584 39.6463 375.707 40.176 374.781C40.7056 373.856 41.1942 372.979 41.2613 372.833C41.3285 372.687 41.5373 372.328 41.7251 372.036C41.9128 371.743 42.1517 371.285 42.2559 371.017C42.3599 370.749 42.5151 370.53 42.6004 370.53C42.6857 370.53 42.7555 370.453 42.7555 370.359C42.7555 370.265 43.2953 369.258 43.9549 368.121C44.6148 366.984 45.2003 365.905 45.2564 365.723C45.3123 365.542 45.4227 365.393 45.5018 365.393C45.5807 365.393 45.7291 365.174 45.8316 364.906C45.9341 364.638 46.0957 364.299 46.191 364.153C46.4344 363.78 48.3358 360.401 48.4838 360.079C48.5511 359.933 48.7598 359.574 48.9476 359.282C49.1354 358.989 49.3743 358.531 49.4785 358.263C49.5825 357.995 49.7376 357.776 49.8229 357.776C49.9082 357.776 49.9781 357.703 49.9781 357.613C49.9781 357.524 50.4269 356.667 50.9755 355.709C51.5242 354.751 52.0281 353.848 52.0951 353.702C52.1624 353.556 52.3701 353.197 52.5569 352.905C52.7436 352.613 52.9782 352.214 53.0783 352.019C53.1784 351.824 53.3536 351.505 53.4678 351.311C53.582 351.116 54.1009 350.199 54.6211 349.274C55.1413 348.348 55.6603 347.431 55.7745 347.236C55.8887 347.042 56.0639 346.723 56.164 346.528C56.2641 346.333 56.4987 345.935 56.6854 345.642C56.8722 345.35 57.0799 344.991 57.1472 344.845C57.2142 344.699 57.7028 343.822 58.2324 342.897C58.7621 341.971 59.2506 341.094 59.3177 340.948C59.3849 340.802 59.5927 340.443 59.7794 340.151C59.9662 339.859 60.2008 339.46 60.3008 339.265C60.4009 339.07 60.5762 338.752 60.6904 338.557C60.8045 338.362 61.3235 337.445 61.8437 336.52C62.3639 335.594 62.8829 334.677 62.9971 334.483C63.1113 334.288 63.2865 333.969 63.3866 333.774C63.4867 333.579 63.7213 333.181 63.908 332.888C64.0948 332.596 64.3025 332.237 64.3697 332.091C64.4368 331.945 64.9254 331.068 65.455 330.143C65.9847 329.217 66.4732 328.34 66.5403 328.194C66.6075 328.048 66.8153 327.689 67.002 327.397C67.1888 327.105 67.4233 326.706 67.5234 326.512C67.6235 326.317 67.7987 325.998 67.9129 325.803C68.0271 325.608 68.5461 324.691 69.0663 323.766C69.5865 322.84 70.1055 321.924 70.2197 321.729C70.3339 321.534 70.5091 321.215 70.6092 321.02C70.7093 320.825 70.9438 320.427 71.1306 320.135C71.3173 319.842 71.5251 319.484 71.5923 319.337C71.6594 319.191 72.1479 318.315 72.6776 317.389C73.2072 316.463 73.6958 315.587 73.7629 315.44C73.8301 315.294 74.0378 314.936 74.2246 314.643C74.4114 314.351 74.6459 313.953 74.746 313.758C74.8461 313.563 75.0213 313.244 75.1355 313.049C75.2497 312.854 75.7687 311.938 76.2889 311.012C76.8091 310.087 77.3281 309.17 77.4423 308.975C77.5564 308.78 77.7317 308.461 77.8318 308.266C77.9318 308.072 78.1664 307.673 78.3532 307.381C78.5399 307.088 78.7477 306.73 78.8149 306.584C78.882 306.438 79.3705 305.561 79.9002 304.635C80.4298 303.71 80.9184 302.833 80.9855 302.687C81.0527 302.541 81.2604 302.182 81.4472 301.89C81.6339 301.597 81.8685 301.199 81.9686 301.004C82.0687 300.809 82.2439 300.49 82.3581 300.295C82.4723 300.1 82.9913 299.184 83.5115 298.258C84.0317 297.333 84.5506 296.416 84.6648 296.221C84.779 296.026 84.9543 295.707 85.0543 295.513C85.1544 295.318 85.389 294.919 85.5758 294.627C85.7625 294.335 85.9702 293.976 86.0375 293.83C86.1047 293.684 86.5037 292.966 86.924 292.236C87.3442 291.505 87.9948 290.309 88.3695 289.579C89.1729 288.012 89.9052 286.691 90.0396 286.567C90.0923 286.519 90.2895 286.16 90.4778 285.77C90.6659 285.38 90.8642 285.022 90.9184 284.973C90.9724 284.924 91.4265 284.008 91.9275 282.936C92.4284 281.864 92.9067 280.849 92.9901 280.68C93.5096 279.626 94.7094 275.674 95.1013 273.725C95.8256 270.124 95.9793 264.357 95.6911 251.583C95.5415 244.946 95.7601 243.13 97.0385 240.395C97.3045 239.826 97.562 239.321 97.6108 239.272C97.6596 239.223 97.9315 238.826 98.2151 238.391C98.879 237.37 101.267 234.909 102.26 234.223C102.683 233.931 103.055 233.632 103.087 233.559C103.119 233.486 103.211 233.426 103.293 233.426C103.375 233.426 103.775 233.207 104.182 232.939C105.35 232.17 105.547 232.055 106.641 231.508C108.133 230.761 109.745 230.1 112.746 229.006C113.077 228.885 113.618 228.724 113.949 228.648C114.28 228.573 115.286 228.312 116.185 228.069C118.892 227.337 122.459 226.658 125.299 226.334ZM74.0349 339.118C74.3524 339.053 74.5692 338.899 74.5692 338.738C74.5692 338.37 73.479 338.376 73.1197 338.746C72.864 339.01 72.7383 340.243 72.9455 340.457C72.9983 340.511 73.1856 340.516 73.3618 340.469C73.6177 340.4 73.664 340.266 73.5914 339.806C73.5077 339.274 73.5426 339.22 74.0349 339.118ZM75.1444 342.542C75.9107 342.542 76.2889 342.084 76.2889 341.156C76.2889 340.507 76.2414 340.417 75.902 340.417C75.5694 340.417 75.515 340.51 75.515 341.081C75.515 341.674 75.4643 341.751 75.0421 341.801C74.708 341.841 74.5692 341.958 74.5692 342.2C74.5692 342.47 74.6905 342.542 75.1444 342.542ZM29.858 418.357C29.2905 417.367 28.8262 416.483 28.8262 416.394C28.8262 416.298 25.8873 416.231 21.6303 416.231C15.6894 416.231 14.5162 416.168 14.0336 416.714C13.8624 416.908 13.7781 417.179 13.5986 417.557C13.4143 417.945 13.1666 418.369 13.0483 418.5C12.9302 418.63 12.8334 418.806 12.8334 418.892C12.8334 418.977 12.6012 419.402 12.3175 419.835C12.0337 420.268 11.8016 420.664 11.8016 420.715C11.8016 420.766 11.3373 421.618 10.7698 422.608C10.2023 423.598 9.73798 424.45 9.73798 424.501C9.73798 424.552 9.50582 424.948 9.22208 425.381C8.93834 425.814 8.70618 426.239 8.70618 426.324C8.70618 426.41 8.60953 426.585 8.49122 426.714C8.37308 426.842 8.09759 427.325 7.8792 427.785C7.6608 428.246 7.40939 428.669 7.32031 428.726C7.1136 428.857 7.10793 429.516 7.3136 429.516C7.3989 429.516 7.55401 429.735 7.65805 430.003C7.76226 430.271 7.99768 430.73 8.18151 431.022C8.36517 431.314 8.6938 431.912 8.91168 432.351C9.12956 432.789 9.34881 433.188 9.3992 433.236C9.51046 433.344 10.7698 435.54 10.7698 435.626C10.7698 435.691 12.72 439.167 13.0071 439.613C13.1011 439.759 13.2564 440.038 13.3522 440.233C13.7472 441.037 14.1491 441.627 14.3866 441.751C14.8056 441.972 17.2053 442.229 17.3994 442.075C17.619 441.9 18.3736 442.076 18.5487 442.343C18.6348 442.475 18.6757 442.466 18.6776 442.314C18.679 442.188 18.8974 442.093 19.1863 442.093C19.5997 442.093 19.6802 442.158 19.626 442.447C19.5896 442.642 19.5904 442.802 19.6278 442.802C19.8396 442.802 20.5718 442.367 20.5718 442.242C20.5718 442.16 20.8233 442.101 21.1307 442.111C21.6539 442.127 21.6621 442.137 21.2597 442.261L20.8298 442.393L21.2597 442.464C21.4962 442.504 21.6759 442.616 21.6588 442.713C21.642 442.81 21.7581 443.043 21.9168 443.23C22.1895 443.551 22.1875 443.563 21.8803 443.448C21.6023 443.343 21.587 443.365 21.7758 443.599C21.8972 443.75 21.9426 443.929 21.8767 443.996C21.8109 444.064 21.6764 444.003 21.578 443.859C21.4294 443.643 21.4153 443.65 21.4939 443.903C21.6164 444.296 21.33 444.486 21.1882 444.105C21.092 443.847 21.049 443.845 20.7832 444.083C20.6196 444.229 20.3765 444.384 20.2429 444.427C19.9734 444.512 19.8233 445.104 20.0711 445.104C20.1574 445.104 20.2279 444.99 20.2279 444.851C20.2279 444.711 20.3827 444.546 20.5718 444.484C20.761 444.423 20.9182 444.278 20.9209 444.163C20.9239 444.047 21.0043 444.091 21.1 444.26C21.3411 444.686 21.8907 444.329 22.2179 443.533C22.3839 443.129 22.4623 442.972 22.4285 442.844C22.4004 442.739 22.2945 442.653 22.0968 442.463L21.73 442.112L22.1567 442.001C22.3912 441.941 23.0012 441.913 23.5121 441.941C24.023 441.968 25.4187 441.974 26.6135 441.953C28.5088 441.921 28.7994 441.876 28.8902 441.606C28.9473 441.435 29.149 441.057 29.3382 440.765C29.5275 440.472 29.7373 440.114 29.8045 439.967C29.8716 439.821 30.3755 438.918 30.9242 437.96C31.4728 437.002 31.9216 436.176 31.9216 436.124C31.9216 436.072 32.2549 435.501 32.6623 434.854C33.0695 434.208 33.5532 433.341 33.7371 432.928C33.9207 432.515 34.1486 432.167 34.2432 432.153C34.3377 432.14 34.6395 432.119 34.914 432.107C35.2531 432.092 35.4275 431.982 35.459 431.765C35.4949 431.516 35.4541 431.489 35.2756 431.641C35.0997 431.792 35.0215 431.758 34.9412 431.498C34.8387 431.165 35.0903 430.235 35.3322 430.051C35.3991 430.001 35.5374 429.76 35.6394 429.516C35.7871 429.164 35.762 428.965 35.5162 428.542C35.3465 428.25 35.0294 427.652 34.8115 427.214C34.5936 426.775 34.3621 426.375 34.297 426.324C34.232 426.274 34.0953 426.034 33.9935 425.793C33.8915 425.551 33.6554 425.115 33.4686 424.822C33.2819 424.53 33.0741 424.171 33.0069 424.025C32.9398 423.879 32.436 422.976 31.8872 422.018C31.3386 421.06 30.8898 420.249 30.8898 420.217C30.8898 420.184 30.4255 419.347 29.858 418.357ZM16.5542 443.117C16.5019 442.949 16.5771 442.69 16.7212 442.542C16.9557 442.3 16.9361 442.276 16.5324 442.311C15.9867 442.357 15.9257 442.41 16.045 442.73C16.0959 442.867 16.0519 442.979 15.9472 442.979C15.8424 442.979 15.7568 443.114 15.7568 443.278C15.7568 443.54 15.7893 443.534 16.0115 443.234C16.2335 442.934 16.2907 442.924 16.4576 443.156C16.6211 443.383 16.6352 443.377 16.5542 443.117ZM19.1999 442.576C19.3911 442.591 19.5026 442.528 19.4477 442.436C19.3268 442.235 18.8522 442.214 18.8522 442.41C18.8522 442.486 19.0087 442.561 19.1999 442.576ZM22.0915 443.117C21.9816 443.079 21.8717 442.908 21.8475 442.738C21.8119 442.489 21.8513 442.469 22.0473 442.636C22.3414 442.888 22.3713 443.213 22.0915 443.117ZM18.992 442.923C19.116 442.974 19.2644 442.967 19.3215 442.909C19.3786 442.85 19.2771 442.808 19.0959 442.816C18.8955 442.824 18.8548 442.866 18.992 442.923ZM16.1945 443.748C16.331 443.694 16.3999 443.579 16.3475 443.492C16.2158 443.272 16.1528 443.292 16.0419 443.59C15.9781 443.761 16.0288 443.814 16.1945 443.748ZM16.9391 444.406C16.9272 444.303 16.9079 444.146 16.8961 444.056C16.8842 443.967 16.819 443.837 16.7509 443.767C16.6096 443.621 16.7148 444.307 16.8749 444.574C17.0151 444.807 17.3045 444.8 17.3045 444.563C17.3045 444.459 17.2271 444.424 17.1325 444.484C17.0379 444.545 16.9509 444.509 16.9391 444.406ZM16.2412 444.287C16.3215 444.338 16.3874 444.264 16.3874 444.122C16.3874 443.824 16.3331 443.798 16.1941 444.029C16.1396 444.12 16.1609 444.236 16.2412 444.287ZM14.9829 444.53C14.9829 444.426 14.8669 444.321 14.725 444.297C14.5831 444.273 14.3376 444.199 14.1793 444.133C13.9873 444.054 13.8299 444.133 13.7064 444.37C13.4602 444.844 13.4727 444.935 13.7684 444.818C13.9113 444.762 13.9711 444.602 13.9104 444.439C13.8311 444.226 13.8791 444.186 14.1073 444.276C14.2734 444.342 14.4511 444.396 14.5021 444.396C14.5534 444.396 14.5159 444.496 14.4189 444.617C14.2906 444.778 14.3668 444.932 14.6989 445.181L15.1549 445.523L14.8273 445.136C14.6471 444.924 14.5797 444.75 14.6774 444.75C14.9821 444.75 15.2117 445.172 15.1828 445.68C15.164 446.008 15.06 446.167 14.8641 446.167C14.7042 446.167 14.5247 446.248 14.4653 446.347C14.4058 446.446 14.2982 446.49 14.2259 446.444C14.1535 446.398 14.0944 446.467 14.0944 446.598C14.0944 446.902 14.532 446.841 14.7362 446.509C14.8216 446.37 14.8928 446.325 14.8944 446.41C14.8958 446.495 15.0084 446.47 15.1448 446.353C15.281 446.237 15.3522 446.033 15.3031 445.901C15.2397 445.731 15.3176 445.69 15.5712 445.758C16.0749 445.894 16.0154 445.554 15.4558 445.101C15.1958 444.89 14.9829 444.633 14.9829 444.53ZM12.42 446.195C12.3417 446.064 12.5092 445.771 12.8482 445.444C13.3501 444.961 13.3788 444.882 13.1395 444.635C12.958 444.448 12.8371 444.423 12.7575 444.556C12.6936 444.663 12.6992 444.75 12.7701 444.75C12.8411 444.75 12.7489 444.87 12.5653 445.016C12.2366 445.278 12.2368 445.28 12.5754 445.16C12.8796 445.052 12.8924 445.072 12.685 445.335C12.556 445.498 12.3983 445.599 12.3343 445.558C12.0874 445.401 12.2571 446.491 12.5422 446.893C12.8263 447.294 12.8328 447.296 12.659 446.917C12.5137 446.601 12.5286 446.495 12.7292 446.416C12.8784 446.357 12.9402 446.198 12.8784 446.033C12.7874 445.788 12.758 445.795 12.6611 446.08C12.5816 446.313 12.5111 446.347 12.42 446.195ZM20.4859 444.922C20.5804 444.922 20.7739 444.844 20.9158 444.75C21.0577 444.656 21.0963 444.578 21.0018 444.578C20.9072 444.578 20.7137 444.656 20.5718 444.75C20.43 444.844 20.3913 444.922 20.4859 444.922ZM16.9606 445.193C17.0551 445.133 17.1325 445.048 17.1325 445.005C17.1325 444.962 17.0551 444.927 16.9606 444.927C16.866 444.927 16.7886 445.012 16.7886 445.115C16.7886 445.218 16.866 445.253 16.9606 445.193ZM15.595 445.636C15.4949 445.636 15.4129 445.556 15.4129 445.459C15.4129 445.361 15.4469 445.281 15.4887 445.281C15.5305 445.281 15.6123 445.361 15.6708 445.459C15.7293 445.556 15.6951 445.636 15.595 445.636ZM17.6197 445.813C17.6986 445.813 17.7631 445.707 17.7631 445.577C17.7631 445.303 17.3391 445.258 17.1845 445.516C17.1256 445.613 17.1669 445.635 17.2778 445.564C17.387 445.495 17.4765 445.522 17.4765 445.625C17.4765 445.728 17.5409 445.813 17.6197 445.813ZM18.0125 446.533C18.2109 446.642 18.4367 446.664 18.5144 446.582C18.5922 446.5 18.5201 446.262 18.3542 446.053C18.0634 445.687 18.0453 445.685 17.8522 446.003C17.6854 446.278 17.7122 446.367 18.0125 446.533ZM8.67832 446.521C8.76499 446.521 8.93231 446.402 9.05011 446.256C9.16791 446.11 9.19663 445.993 9.11408 445.997C8.9091 446.006 8.4809 446.521 8.67832 446.521ZM18.0783 446.408C17.9365 446.352 17.8204 446.275 17.8204 446.237C17.8204 446.199 17.9365 446.167 18.0783 446.167C18.2202 446.167 18.3363 446.244 18.3363 446.339C18.3363 446.433 18.2202 446.464 18.0783 446.408ZM13.5909 446.848C13.6583 446.961 13.6595 447.053 13.5933 447.053C13.5273 447.053 13.3845 446.928 13.2762 446.775C13.1037 446.532 13.0791 446.542 13.0791 446.851C13.0791 447.045 13.1398 447.165 13.2141 447.118C13.4277 446.982 13.3714 447.311 13.1343 447.585C12.9543 447.793 12.9639 447.799 13.1931 447.621C13.3438 447.505 13.5178 447.449 13.5801 447.497C13.6423 447.545 13.6552 447.532 13.6088 447.468C13.5622 447.404 13.6046 447.251 13.703 447.129C13.8285 446.973 13.8203 446.868 13.675 446.776C13.5438 446.692 13.513 446.719 13.5909 446.848ZM16.0577 447.17C16.176 447.219 16.3695 447.219 16.4876 447.17C16.606 447.121 16.5091 447.081 16.2727 447.081C16.0362 447.081 15.9396 447.121 16.0577 447.17ZM15.6039 448.066C15.5461 448.152 15.228 448.219 14.897 448.214C14.5659 448.208 14.2382 448.125 14.1687 448.027C14.0973 447.927 14.0413 447.985 14.0397 448.16C14.0383 448.331 14.1121 448.47 14.2038 448.47C14.2953 448.47 14.3193 448.607 14.2571 448.774C14.168 449.013 14.2287 448.996 14.5412 448.697C14.8048 448.444 15.1018 448.336 15.423 448.378C15.7974 448.427 15.8847 448.381 15.808 448.175C15.7535 448.029 15.6617 447.979 15.6039 448.066ZM13.8074 448.67C14.0667 448.89 14.0743 448.876 13.8873 448.514C13.6741 448.102 13.5212 448.001 13.5212 448.271C13.5212 448.357 13.65 448.536 13.8074 448.67ZM14.9829 448.893C15.2667 448.828 15.5312 448.746 15.5706 448.711C15.743 448.557 14.9571 448.67 14.725 448.832C14.5367 448.964 14.6062 448.98 14.9829 448.893Z" fill="#950E0E"/>
</svg>
