<svg width="1666" height="1756" viewBox="0 0 1666 1756" fill="none" xmlns="http://www.w3.org/2000/svg">
<path opacity="0.5" d="M584.377 1709.67L584.377 1709.67L588.549 1739.34L578.219 1743.96C578.219 1743.96 578.219 1743.96 578.218 1743.96C575.151 1745.33 572.247 1746.36 570.055 1746.91C568.95 1747.19 568.087 1747.33 567.5 1747.35C567.367 1747.36 567.262 1747.36 567.183 1747.35C566.319 1746.1 563.45 1741.93 559.582 1736.32C556.883 1732.4 553.697 1727.77 550.366 1722.93L549.144 1723.77L550.366 1722.93C543.618 1713.13 539.548 1706.32 536.476 1698.22C533.394 1690.1 531.29 1680.62 528.576 1665.46C523.761 1638.55 510.578 1599.99 474.063 1505.8L425.934 1381.65L425.411 1380.3L424.043 1380.77L409.06 1385.98C404.976 1387.4 401.011 1388.57 397.92 1389.32C396.372 1389.69 395.07 1389.96 394.095 1390.09C393.605 1390.16 393.229 1390.19 392.961 1390.19C392.832 1390.19 392.755 1390.19 392.718 1390.18C392.505 1390.07 392.175 1389.81 391.757 1389.27C391.31 1388.69 390.841 1387.89 390.37 1386.9C389.43 1384.91 388.556 1382.28 387.856 1379.37C386.448 1373.51 385.822 1366.86 386.603 1362.46C387.926 1355.03 386.239 1345.32 382.485 1335.33C378.716 1325.31 372.799 1314.84 365.456 1305.85C360.636 1299.95 355.131 1290.07 347.083 1271.85C339.047 1253.66 328.526 1227.27 313.647 1188.43C297.243 1145.61 287.652 1119.83 282.556 1103.81C280.006 1095.8 278.605 1090.31 278.029 1086.38C277.453 1082.45 277.729 1080.26 278.368 1078.76C279.677 1075.67 282.092 1072.92 287.341 1069.62C292.622 1066.3 300.621 1062.52 312.923 1057.33L312.34 1055.95L312.923 1057.33C315.069 1056.42 317.103 1055.55 319.035 1054.73C328.083 1050.85 334.907 1047.94 340.602 1046.77C344.004 1046.08 346.881 1046.05 349.494 1046.77C352.096 1047.5 354.563 1049.01 357.089 1051.61C362.212 1056.9 367.379 1066.46 374.172 1082.26C379.758 1095.24 386.379 1112.28 394.95 1134.34C396.769 1139.02 398.676 1143.92 400.679 1149.06C415.259 1186.48 424.796 1212 430.807 1230.22C436.825 1248.45 439.27 1259.25 439.736 1267.26C441.561 1298.63 448.192 1316.72 463.379 1330.35L463.379 1330.35C468.667 1335.1 472.516 1340.03 474.694 1344.52C476.848 1348.96 477.269 1352.75 476.172 1355.52C476.148 1355.54 476.118 1355.56 476.08 1355.6C475.899 1355.75 475.619 1355.96 475.234 1356.23C474.467 1356.76 473.376 1357.44 472.029 1358.23C469.342 1359.81 465.714 1361.77 461.8 1363.73L447.486 1370.89L446.264 1371.51L446.759 1372.78L496.581 1500.84C534.329 1597.87 550.521 1635.11 563.425 1654.35C570.829 1665.4 575.091 1672.5 577.996 1680.17C580.901 1687.84 582.476 1696.15 584.377 1709.67ZM566.981 1747.33C566.981 1747.33 566.986 1747.33 566.994 1747.33C566.985 1747.33 566.981 1747.33 566.981 1747.33ZM476.233 1355.46C476.232 1355.46 476.232 1355.46 476.231 1355.46C476.242 1355.44 476.244 1355.44 476.233 1355.46ZM383.386 1281.06L383.386 1281.06L308.339 1079.48L308.646 1078.01C308.645 1078.01 308.645 1078.01 308.644 1078.01C306.73 1077.61 304.919 1077.45 303.359 1077.8C301.705 1078.17 300.377 1079.1 299.563 1080.72C298.797 1082.25 298.548 1084.25 298.668 1086.69C298.788 1089.16 299.294 1092.23 300.186 1096C303.743 1111.04 313.692 1138.2 331.792 1185.12C341.918 1211.36 351.509 1235.39 358.804 1252.96C362.451 1261.74 365.528 1268.92 367.815 1273.96C368.956 1276.47 369.909 1278.48 370.642 1279.88C371.006 1280.58 371.331 1281.16 371.607 1281.59C371.743 1281.81 371.887 1282.01 372.035 1282.19C372.134 1282.31 372.405 1282.63 372.822 1282.81C374.178 1283.38 376.054 1283.32 377.806 1283C379.632 1282.67 381.63 1282 383.386 1281.06ZM328.26 1070.28C328.082 1070.7 328.115 1071.12 328.125 1071.25C328.14 1071.47 328.177 1071.71 328.223 1071.95C328.315 1072.44 328.47 1073.07 328.676 1073.82C329.089 1075.33 329.736 1077.42 330.587 1080.03C332.292 1085.25 334.838 1092.58 338.03 1101.48C344.417 1119.28 353.403 1143.41 363.448 1169.56C380.155 1213.05 390.353 1238.51 397.432 1252.65C400.956 1259.68 403.794 1264.1 406.39 1266.51C407.711 1267.74 409.048 1268.53 410.459 1268.83C411.89 1269.14 413.236 1268.91 414.499 1268.37C415.643 1267.89 416.793 1266.78 417.738 1265.61C418.723 1264.39 419.65 1262.88 420.292 1261.37C420.45 1261 420.463 1260.62 420.463 1260.4C420.462 1260.14 420.435 1259.85 420.395 1259.56C420.315 1258.98 420.164 1258.24 419.958 1257.38C419.543 1255.66 418.873 1253.33 417.992 1250.48C416.226 1244.79 413.579 1236.96 410.331 1227.72C403.832 1209.24 394.907 1185.08 385.754 1161.02C376.601 1136.97 367.217 1113.01 359.801 1094.92C356.094 1085.88 352.873 1078.29 350.416 1072.89C349.189 1070.19 348.142 1068.02 347.315 1066.47C346.903 1065.7 346.529 1065.06 346.201 1064.58C346.038 1064.34 345.867 1064.11 345.691 1063.91C345.547 1063.75 345.27 1063.47 344.878 1063.3C343.689 1062.8 342.041 1062.76 340.491 1062.93C338.879 1063.11 337.107 1063.55 335.541 1064.21C333.976 1064.87 332.414 1065.84 331.139 1066.88C329.909 1067.88 328.766 1069.08 328.26 1070.28Z" stroke="#AE1717" stroke-width="3"/>
<g opacity="0.5">
<mask id="path-2-outside-1" maskUnits="userSpaceOnUse" x="868.234" y="565.264" width="677.853" height="917.397" fill="black">
<rect fill="white" x="868.234" y="565.264" width="677.853" height="917.397"/>
<path fill-rule="evenodd" clip-rule="evenodd" d="M1086.48 1456.67C1087.94 1456.87 1090.04 1456.44 1091.15 1455.72C1093.95 1453.91 1093.85 1451.44 1088.62 1393.72C1087.56 1382.07 1087.66 1378.04 1089.07 1376.24C1091.21 1373.5 1120.11 1365 1131.62 1363.73C1142.06 1362.58 1146.8 1364.25 1151.39 1370.7C1154.36 1374.87 1154.98 1377.13 1154.81 1383.2C1154.69 1387.27 1155.27 1395.79 1156.09 1402.13C1156.92 1408.47 1158.3 1419.14 1159.17 1425.85C1160.03 1432.56 1162.06 1441.09 1163.66 1444.8L1166.59 1451.55L1176.45 1444.87C1187.82 1437.17 1197.13 1427.6 1205.04 1415.49C1209.79 1408.21 1211.41 1404.34 1216.39 1388.24C1221.89 1370.47 1223.26 1362.38 1222.64 1351.34C1222.52 1349.37 1223.27 1349.49 1229.68 1352.47L1236.84 1355.8L1242.74 1348.55C1247.55 1342.62 1248.51 1340.8 1247.97 1338.62C1247.57 1337 1248.21 1334.03 1249.61 1331.01C1251.15 1327.72 1251.91 1323.74 1251.89 1319.1C1251.85 1310.04 1249.68 1299.62 1248.12 1300.98C1247.45 1301.55 1243.99 1301.93 1240.41 1301.81C1232.78 1301.57 1231.68 1300.69 1224.77 1289.4C1211.51 1267.75 1207.28 1244.06 1210.72 1210.69C1211.81 1200.1 1226.26 1151.09 1310.26 873.117C1336.44 786.474 1363.63 696.124 1370.69 672.338C1385.44 622.629 1385.14 626.098 1376.11 609.874C1368.75 596.643 1359.15 588.356 1346.04 583.907C1325.88 577.066 1307.89 580.523 1294.21 593.864L1288.05 599.876L1282.57 618.107C1279.56 628.135 1273.73 650.071 1269.62 666.856C1265.52 683.641 1260.86 702.475 1259.28 708.711C1257.7 714.946 1253.14 733.231 1249.16 749.345C1245.17 765.459 1238.37 792.896 1234.03 810.315C1229.69 827.735 1222.96 854.906 1219.07 870.695C1212.37 897.878 1207.24 918.607 1189.6 989.661C1171.94 1060.78 1166.51 1082.75 1159.43 1111.63C1147.04 1162.19 1138.16 1192.06 1131.07 1207C1115.65 1239.48 1104.01 1254.39 1066.8 1289.3C1043.93 1310.76 1032.19 1327.11 1026.49 1345.45C1018.14 1372.3 1022.43 1402.07 1037.96 1425.1C1047.95 1439.92 1070.46 1454.56 1086.48 1456.67ZM1315.74 645.07C1296.58 627.064 1316.73 595.252 1340.68 605.686C1347.7 608.746 1354.11 616.915 1355.06 624.023C1355.94 630.565 1352.59 640.728 1348 645.434C1339.59 654.068 1325.14 653.906 1315.74 645.07Z"/>
</mask>
<path d="M1086.48 1456.67L1086.88 1453.7L1086.88 1453.7L1086.48 1456.67ZM1091.15 1455.72L1089.52 1453.2L1089.52 1453.2L1091.15 1455.72ZM1088.62 1393.72L1085.63 1393.99L1085.63 1393.99L1088.62 1393.72ZM1089.07 1376.24L1091.43 1378.09L1091.43 1378.09L1089.07 1376.24ZM1131.62 1363.73L1131.29 1360.75L1131.29 1360.75L1131.62 1363.73ZM1151.39 1370.7L1153.83 1368.96L1153.83 1368.96L1151.39 1370.7ZM1154.81 1383.2L1157.8 1383.28L1157.8 1383.28L1154.81 1383.2ZM1163.66 1444.8L1160.91 1445.99L1160.91 1445.99L1163.66 1444.8ZM1166.59 1451.55L1163.84 1452.74L1165.28 1456.07L1168.27 1454.04L1166.59 1451.55ZM1176.45 1444.87L1174.77 1442.39L1174.77 1442.39L1176.45 1444.87ZM1205.04 1415.49L1202.53 1413.85L1202.53 1413.85L1205.04 1415.49ZM1216.39 1388.24L1219.26 1389.13L1219.26 1389.13L1216.39 1388.24ZM1222.64 1351.34L1225.63 1351.17L1225.63 1351.17L1222.64 1351.34ZM1229.68 1352.47L1228.41 1355.19L1228.41 1355.19L1229.68 1352.47ZM1236.84 1355.8L1235.58 1358.52L1237.7 1359.5L1239.17 1357.69L1236.84 1355.8ZM1242.74 1348.55L1245.06 1350.44L1245.06 1350.44L1242.74 1348.55ZM1247.97 1338.62L1245.06 1339.35L1245.06 1339.35L1247.97 1338.62ZM1249.61 1331.01L1252.33 1332.28L1252.33 1332.28L1249.61 1331.01ZM1251.89 1319.1L1248.89 1319.11L1248.89 1319.11L1251.89 1319.1ZM1248.12 1300.98L1250.08 1303.24L1250.09 1303.24L1248.12 1300.98ZM1240.41 1301.81L1240.32 1304.81L1240.32 1304.81L1240.41 1301.81ZM1224.77 1289.4L1222.21 1290.97L1222.21 1290.97L1224.77 1289.4ZM1210.72 1210.69L1207.74 1210.38L1207.74 1210.38L1210.72 1210.69ZM1310.26 873.117L1307.39 872.249L1307.39 872.249L1310.26 873.117ZM1370.69 672.338L1373.57 673.192L1373.57 673.192L1370.69 672.338ZM1376.11 609.874L1378.73 608.416L1378.73 608.416L1376.11 609.874ZM1346.04 583.907L1347 581.066L1346.04 583.907ZM1294.21 593.864L1292.12 591.716L1292.12 591.717L1294.21 593.864ZM1288.05 599.876L1285.96 597.729L1285.4 598.27L1285.18 599.013L1288.05 599.876ZM1282.57 618.107L1279.7 617.244L1279.7 617.244L1282.57 618.107ZM1269.62 666.856L1266.71 666.143L1266.71 666.143L1269.62 666.856ZM1249.16 749.345L1252.07 750.065L1252.07 750.065L1249.16 749.345ZM1219.07 870.695L1216.16 869.977L1216.16 869.977L1219.07 870.695ZM1189.6 989.661L1192.51 990.384L1192.51 990.384L1189.6 989.661ZM1159.43 1111.63L1162.35 1112.35L1162.35 1112.35L1159.43 1111.63ZM1131.07 1207L1133.78 1208.28L1133.78 1208.28L1131.07 1207ZM1066.8 1289.3L1064.75 1287.11L1064.75 1287.11L1066.8 1289.3ZM1037.96 1425.1L1035.47 1426.78L1035.47 1426.78L1037.96 1425.1ZM1315.74 645.07L1317.8 642.884L1317.8 642.884L1315.74 645.07ZM1340.68 605.686L1339.48 608.436L1339.48 608.436L1340.68 605.686ZM1355.06 624.023L1352.09 624.421L1352.09 624.422L1355.06 624.023ZM1348 645.434L1350.15 647.528L1350.15 647.527L1348 645.434ZM1086.09 1459.65C1087.24 1459.8 1088.48 1459.7 1089.55 1459.48C1090.61 1459.26 1091.8 1458.87 1092.78 1458.24L1089.52 1453.2C1089.39 1453.28 1088.98 1453.47 1088.35 1453.6C1087.73 1453.72 1087.19 1453.74 1086.88 1453.7L1086.09 1459.65ZM1092.78 1458.24C1093.27 1457.92 1093.93 1457.45 1094.5 1456.66C1095.06 1455.88 1095.39 1454.99 1095.61 1454.02C1096 1452.21 1096.06 1449.57 1095.9 1445.56C1095.56 1437.41 1094.22 1422.26 1091.61 1393.45L1085.63 1393.99C1088.25 1422.9 1089.58 1437.84 1089.9 1445.81C1090.07 1449.85 1089.95 1451.78 1089.74 1452.74C1089.65 1453.16 1089.58 1453.22 1089.63 1453.15C1089.69 1453.06 1089.74 1453.06 1089.52 1453.2L1092.78 1458.24ZM1091.61 1393.45C1091.08 1387.62 1090.86 1383.86 1090.92 1381.36C1090.99 1378.75 1091.37 1378.17 1091.43 1378.09L1086.7 1374.4C1085.36 1376.11 1084.99 1378.44 1084.92 1381.21C1084.85 1384.09 1085.1 1388.17 1085.63 1393.99L1091.61 1393.45ZM1091.43 1378.09C1091.25 1378.33 1091.14 1378.35 1091.39 1378.19C1091.59 1378.06 1091.91 1377.89 1092.36 1377.67C1093.25 1377.23 1094.51 1376.7 1096.06 1376.12C1099.16 1374.95 1103.25 1373.61 1107.68 1372.31C1116.58 1369.69 1126.47 1367.32 1131.95 1366.72L1131.29 1360.75C1125.26 1361.42 1114.94 1363.92 1105.99 1366.56C1101.48 1367.88 1097.23 1369.26 1093.94 1370.5C1092.31 1371.12 1090.86 1371.72 1089.72 1372.28C1089.15 1372.55 1088.62 1372.84 1088.15 1373.14C1087.74 1373.4 1087.16 1373.82 1086.7 1374.4L1091.43 1378.09ZM1131.95 1366.72C1137.03 1366.16 1140.28 1366.34 1142.7 1367.2C1145 1368.01 1146.88 1369.54 1148.94 1372.44L1153.83 1368.96C1151.31 1365.41 1148.52 1362.89 1144.69 1361.54C1140.99 1360.23 1136.65 1360.16 1131.29 1360.75L1131.95 1366.72ZM1148.94 1372.44C1150.34 1374.4 1151.01 1375.68 1151.38 1377.03C1151.77 1378.43 1151.89 1380.15 1151.81 1383.11L1157.8 1383.28C1157.89 1380.18 1157.8 1377.74 1157.17 1375.45C1156.53 1373.11 1155.4 1371.17 1153.83 1368.96L1148.94 1372.44ZM1151.81 1383.11C1151.68 1387.41 1152.28 1396.1 1153.12 1402.52L1159.07 1401.74C1158.25 1395.48 1157.69 1387.14 1157.8 1383.28L1151.81 1383.11ZM1153.12 1402.52C1153.94 1408.85 1155.33 1419.53 1156.19 1426.24L1162.14 1425.47C1161.28 1418.76 1159.89 1408.08 1159.07 1401.74L1153.12 1402.52ZM1156.19 1426.24C1157.07 1433.06 1159.14 1441.91 1160.91 1445.99L1166.42 1443.61C1164.97 1440.27 1162.99 1432.06 1162.14 1425.47L1156.19 1426.24ZM1160.91 1445.99L1163.84 1452.74L1169.34 1450.36L1166.42 1443.61L1160.91 1445.99ZM1168.27 1454.04L1178.14 1447.35L1174.77 1442.39L1164.91 1449.07L1168.27 1454.04ZM1178.14 1447.35C1189.85 1439.42 1199.43 1429.56 1207.55 1417.13L1202.53 1413.85C1194.82 1425.65 1185.79 1434.92 1174.77 1442.39L1178.14 1447.35ZM1207.55 1417.13C1212.54 1409.49 1214.25 1405.29 1219.26 1389.13L1213.53 1387.35C1208.56 1403.38 1207.05 1406.93 1202.53 1413.85L1207.55 1417.13ZM1219.26 1389.13C1224.8 1371.22 1226.29 1362.73 1225.63 1351.17L1219.64 1351.51C1220.24 1362.03 1218.98 1369.73 1213.53 1387.35L1219.26 1389.13ZM1225.63 1351.17C1225.62 1350.99 1225.63 1350.98 1225.62 1351.07C1225.61 1351.14 1225.56 1351.54 1225.24 1351.99C1224.36 1353.25 1223.04 1352.98 1223.24 1353.01C1223.35 1353.03 1223.75 1353.14 1224.71 1353.53C1225.61 1353.9 1226.81 1354.45 1228.41 1355.19L1230.94 1349.75C1229.34 1349 1228.04 1348.41 1227 1347.99C1226.02 1347.58 1225.05 1347.23 1224.18 1347.09C1223.4 1346.96 1221.52 1346.85 1220.33 1348.54C1219.86 1349.21 1219.72 1349.9 1219.67 1350.33C1219.61 1350.78 1219.62 1351.2 1219.64 1351.51L1225.63 1351.17ZM1228.41 1355.19L1235.58 1358.52L1238.11 1353.08L1230.94 1349.75L1228.41 1355.19ZM1239.17 1357.69L1245.06 1350.44L1240.41 1346.65L1234.51 1353.91L1239.17 1357.69ZM1245.06 1350.44C1247.45 1347.51 1249.08 1345.35 1250.01 1343.58C1251.06 1341.6 1251.36 1339.84 1250.88 1337.9L1245.06 1339.35C1245.12 1339.58 1245.21 1339.83 1244.71 1340.78C1244.09 1341.95 1242.84 1343.66 1240.41 1346.65L1245.06 1350.44ZM1250.88 1337.9C1250.84 1337.74 1250.8 1337.12 1251.04 1335.97C1251.28 1334.9 1251.71 1333.62 1252.33 1332.28L1246.89 1329.75C1246.11 1331.43 1245.52 1333.14 1245.18 1334.71C1244.86 1336.2 1244.69 1337.88 1245.06 1339.35L1250.88 1337.9ZM1252.33 1332.28C1254.1 1328.49 1254.91 1324.05 1254.89 1319.09L1248.89 1319.11C1248.91 1323.43 1248.2 1326.95 1246.89 1329.75L1252.33 1332.28ZM1254.89 1319.09C1254.87 1314.36 1254.3 1309.29 1253.51 1305.52C1253.13 1303.67 1252.66 1301.95 1252.09 1300.71C1251.84 1300.17 1251.4 1299.31 1250.63 1298.68C1250.21 1298.33 1249.49 1297.89 1248.53 1297.86C1247.5 1297.82 1246.68 1298.25 1246.15 1298.71L1250.09 1303.24C1249.74 1303.54 1249.13 1303.89 1248.31 1303.86C1247.54 1303.83 1247.03 1303.49 1246.82 1303.31C1246.48 1303.03 1246.46 1302.83 1246.63 1303.21C1246.92 1303.83 1247.28 1305.02 1247.64 1306.74C1248.34 1310.11 1248.87 1314.78 1248.89 1319.11L1254.89 1319.09ZM1246.15 1298.71C1246.31 1298.57 1246.45 1298.49 1246.52 1298.45C1246.59 1298.41 1246.64 1298.39 1246.64 1298.39C1246.65 1298.39 1246.59 1298.41 1246.43 1298.45C1246.13 1298.52 1245.66 1298.6 1245.03 1298.67C1243.79 1298.81 1242.18 1298.87 1240.51 1298.81L1240.32 1304.81C1242.23 1304.87 1244.13 1304.8 1245.68 1304.64C1246.45 1304.55 1247.2 1304.44 1247.84 1304.28C1248.16 1304.21 1248.51 1304.11 1248.84 1303.97C1249.13 1303.86 1249.63 1303.64 1250.08 1303.24L1246.15 1298.71ZM1240.51 1298.81C1236.7 1298.69 1235.44 1298.39 1234.19 1297.4C1233.46 1296.82 1232.63 1295.91 1231.5 1294.33C1230.37 1292.75 1229.06 1290.66 1227.33 1287.84L1222.21 1290.97C1223.94 1293.79 1225.35 1296.04 1226.62 1297.81C1227.88 1299.58 1229.09 1301.02 1230.46 1302.1C1233.39 1304.43 1236.49 1304.69 1240.32 1304.81L1240.51 1298.81ZM1227.33 1287.84C1214.5 1266.9 1210.31 1243.93 1213.7 1211L1207.74 1210.38C1204.25 1244.2 1208.51 1268.6 1222.21 1290.97L1227.33 1287.84ZM1213.7 1211C1213.95 1208.63 1214.98 1203.82 1217.82 1193.35C1220.63 1182.96 1225.15 1167.18 1232.28 1143.02C1246.52 1094.71 1271.13 1012.97 1313.13 873.984L1307.39 872.249C1265.39 1011.23 1240.77 1092.99 1226.52 1141.32C1219.4 1165.49 1214.86 1181.32 1212.03 1191.78C1209.22 1202.16 1208.04 1207.45 1207.74 1210.38L1213.7 1211ZM1313.13 873.984C1339.31 787.344 1366.51 696.986 1373.57 673.192L1367.81 671.485C1360.76 695.262 1333.57 785.604 1307.39 872.249L1313.13 873.984ZM1373.57 673.192C1377.25 660.792 1380.01 651.641 1381.92 644.685C1383.83 637.757 1384.96 632.792 1385.31 628.808C1385.66 624.693 1385.19 621.588 1383.94 618.397C1382.78 615.415 1380.9 612.307 1378.73 608.416L1373.49 611.333C1375.84 615.554 1377.38 618.096 1378.35 620.579C1379.24 622.855 1379.61 625.03 1379.33 628.29C1379.03 631.68 1378.04 636.183 1376.14 643.092C1374.24 649.973 1371.51 659.03 1367.81 671.485L1373.57 673.192ZM1378.73 608.416C1371.05 594.6 1360.89 585.777 1347 581.066L1345.08 586.748C1357.42 590.934 1366.45 598.687 1373.49 611.333L1378.73 608.416ZM1347 581.066C1325.92 573.914 1306.71 577.481 1292.12 591.716L1296.31 596.011C1309.07 583.564 1325.83 580.218 1345.08 586.748L1347 581.066ZM1292.12 591.717L1285.96 597.729L1290.15 602.024L1296.31 596.011L1292.12 591.717ZM1285.18 599.013L1279.7 617.244L1285.44 618.971L1290.92 600.74L1285.18 599.013ZM1279.7 617.244C1276.66 627.342 1270.82 649.336 1266.71 666.143L1272.54 667.569C1276.64 650.807 1282.45 628.927 1285.44 618.971L1279.7 617.244ZM1266.71 666.143C1262.6 682.929 1257.95 701.752 1256.37 707.973L1262.19 709.449C1263.77 703.199 1268.43 684.353 1272.54 667.569L1266.71 666.143ZM1256.37 707.973C1254.79 714.218 1250.23 732.512 1246.25 748.626L1252.07 750.065C1256.05 733.951 1260.61 715.674 1262.19 709.449L1256.37 707.973ZM1246.25 748.625C1242.26 764.737 1235.45 792.172 1231.12 809.591L1236.94 811.04C1241.28 793.619 1248.09 766.181 1252.07 750.065L1246.25 748.625ZM1231.12 809.591C1226.78 827.012 1220.05 854.186 1216.16 869.977L1221.98 871.413C1225.87 855.626 1232.6 828.458 1236.94 811.04L1231.12 809.591ZM1216.16 869.977C1209.46 897.158 1204.33 917.884 1186.69 988.938L1192.51 990.384C1210.15 919.33 1215.29 898.599 1221.98 871.412L1216.16 869.977ZM1186.69 988.938C1169.03 1060.06 1163.6 1082.04 1156.52 1110.92L1162.35 1112.35C1169.42 1083.47 1174.85 1061.51 1192.51 990.384L1186.69 988.938ZM1156.52 1110.92C1144.11 1161.54 1135.29 1191.1 1128.36 1205.71L1133.78 1208.28C1141.02 1193.02 1149.97 1162.85 1162.35 1112.35L1156.52 1110.92ZM1128.36 1205.71C1120.71 1221.83 1114.05 1233.47 1104.74 1245.39C1095.4 1257.35 1083.33 1269.68 1064.75 1287.11L1068.85 1291.49C1087.48 1274.01 1099.83 1261.43 1109.47 1249.09C1119.14 1236.7 1126.01 1224.64 1133.78 1208.28L1128.36 1205.71ZM1064.75 1287.11C1041.71 1308.73 1029.55 1325.5 1023.62 1344.56L1029.35 1346.34C1034.83 1328.71 1046.14 1312.8 1068.85 1291.49L1064.75 1287.11ZM1023.62 1344.56C1015.01 1372.26 1019.43 1402.99 1035.47 1426.78L1040.45 1423.42C1025.43 1401.16 1021.27 1372.33 1029.35 1346.34L1023.62 1344.56ZM1035.47 1426.78C1040.76 1434.61 1049.22 1442.24 1058.32 1448.17C1067.41 1454.08 1077.47 1458.51 1086.09 1459.65L1086.88 1453.7C1079.47 1452.72 1070.27 1448.78 1061.6 1443.14C1052.94 1437.51 1045.16 1430.41 1040.45 1423.42L1035.47 1426.78ZM1317.8 642.884C1309.43 635.023 1309.58 624.207 1314.58 616.318C1319.57 608.44 1329.09 603.912 1339.48 608.436L1341.88 602.936C1328.31 597.026 1315.79 603.187 1309.51 613.108C1303.24 623.018 1302.89 637.11 1313.69 647.256L1317.8 642.884ZM1339.48 608.436C1342.44 609.728 1345.43 612.179 1347.79 615.188C1350.16 618.208 1351.7 621.538 1352.09 624.421L1358.04 623.625C1357.47 619.4 1355.34 615.092 1352.51 611.485C1349.67 607.868 1345.94 604.704 1341.87 602.935L1339.48 608.436ZM1352.09 624.422C1352.45 627.09 1351.95 630.786 1350.73 634.478C1349.51 638.171 1347.72 641.427 1345.85 643.341L1350.15 647.527C1352.87 644.735 1355.05 640.557 1356.43 636.357C1357.82 632.155 1358.56 627.499 1358.04 623.625L1352.09 624.422ZM1345.86 643.341C1338.71 650.672 1326.14 650.729 1317.8 642.884L1313.69 647.256C1324.14 657.082 1340.47 657.465 1350.15 647.528L1345.86 643.341Z" fill="#AE1717" mask="url(#path-2-outside-1)"/>
</g>
<path opacity="0.5" d="M958.05 487.865L958.049 487.865L928.132 489.435L924.428 478.742C924.428 478.742 924.427 478.742 924.427 478.742C923.328 475.566 922.561 472.584 922.203 470.352C922.023 469.227 921.957 468.355 921.983 467.769C921.989 467.635 921.999 467.531 922.01 467.452C923.337 466.701 927.737 464.206 933.669 460.843C937.809 458.495 942.696 455.725 947.806 452.828L947.074 451.538L947.806 452.828C958.156 446.96 965.3 443.5 973.634 441.145C981.995 438.782 991.619 437.513 1006.96 436.13C1034.19 433.679 1073.75 423.907 1170.76 395.74L1298.64 358.614L1300.03 358.211L1299.67 356.807L1295.79 341.427C1294.73 337.235 1293.91 333.182 1293.43 330.039C1293.2 328.463 1293.05 327.143 1293 326.161C1292.98 325.667 1292.98 325.289 1293 325.022C1293.01 324.894 1293.02 324.818 1293.03 324.781C1293.16 324.578 1293.45 324.272 1294.02 323.904C1294.64 323.509 1295.47 323.11 1296.51 322.728C1298.57 321.965 1301.27 321.323 1304.23 320.88C1310.18 319.988 1316.87 319.944 1321.18 321.106C1328.46 323.071 1338.29 322.237 1348.56 319.367C1358.87 316.486 1369.82 311.504 1379.41 304.973C1385.72 300.685 1396.03 296.062 1414.89 289.632C1433.71 283.213 1460.91 275.032 1500.9 263.594C1544.99 250.984 1571.51 243.677 1587.91 239.997C1596.11 238.155 1601.71 237.238 1605.67 237.006C1609.63 236.775 1611.79 237.241 1613.24 238.009C1616.19 239.582 1618.73 242.227 1621.56 247.744C1624.4 253.294 1627.47 261.593 1631.57 274.3L1633 273.839L1631.57 274.3C1632.29 276.517 1632.98 278.619 1633.63 280.616C1636.7 289.966 1639.01 297.019 1639.67 302.793C1640.07 306.243 1639.85 309.112 1638.9 311.651C1637.95 314.181 1636.23 316.507 1633.42 318.796C1627.7 323.438 1617.72 327.753 1601.4 333.143C1587.97 337.575 1570.43 342.687 1547.71 349.303C1542.89 350.707 1537.83 352.179 1532.54 353.726C1493.99 364.99 1467.73 372.266 1449.06 376.667C1430.38 381.072 1419.4 382.567 1411.38 382.333C1379.97 381.417 1361.38 386.446 1346.47 400.387L1346.47 400.388C1341.28 405.242 1336.04 408.646 1331.37 410.424C1326.76 412.183 1322.95 412.273 1320.29 410.939C1320.27 410.913 1320.25 410.881 1320.22 410.84C1320.08 410.646 1319.89 410.349 1319.66 409.942C1319.2 409.132 1318.62 407.985 1317.95 406.575C1316.61 403.761 1314.97 399.976 1313.36 395.906L1307.47 381.021L1306.97 379.751L1305.66 380.133L1173.74 418.604C1073.79 447.753 1035.28 460.637 1014.98 471.814C1003.34 478.228 995.89 481.855 987.998 484.079C980.103 486.305 971.684 487.15 958.05 487.865ZM922.053 467.254C922.053 467.254 922.052 467.258 922.048 467.266C922.051 467.257 922.053 467.253 922.053 467.254ZM1320.35 411.004C1320.35 411.004 1320.34 411.004 1320.34 411.003C1320.36 411.015 1320.36 411.017 1320.35 411.004ZM1402.55 324.995L1402.55 324.996L1609.9 267.803L1611.34 268.236C1611.34 268.236 1611.34 268.235 1611.34 268.235C1611.91 266.363 1612.23 264.573 1612.02 262.988C1611.79 261.308 1610.97 259.904 1609.43 258.952C1607.98 258.056 1606.01 257.634 1603.56 257.54C1601.1 257.445 1597.99 257.681 1594.16 258.241C1578.86 260.473 1550.94 268.017 1502.63 281.96C1475.6 289.76 1450.83 297.22 1432.69 302.956C1423.62 305.823 1416.2 308.264 1410.98 310.102C1408.38 311.02 1406.3 311.795 1404.83 312.402C1404.11 312.704 1403.5 312.977 1403.05 313.214C1402.82 313.331 1402.6 313.457 1402.41 313.588C1402.29 313.677 1401.94 313.919 1401.73 314.319C1401.04 315.619 1400.94 317.494 1401.1 319.267C1401.27 321.116 1401.77 323.164 1402.55 324.995ZM1617.34 288.449C1616.93 288.236 1616.51 288.232 1616.38 288.23C1616.16 288.226 1615.92 288.242 1615.67 288.267C1615.18 288.316 1614.53 288.416 1613.77 288.555C1612.23 288.835 1610.09 289.297 1607.42 289.918C1602.07 291.162 1594.55 293.059 1585.4 295.464C1567.11 300.274 1542.29 307.123 1515.36 314.851C1470.58 327.703 1444.33 335.644 1429.63 341.464C1422.32 344.362 1417.67 346.804 1415.04 349.179C1413.7 350.388 1412.79 351.651 1412.37 353.031C1411.94 354.429 1412.06 355.79 1412.48 357.095C1412.86 358.277 1413.86 359.519 1414.95 360.563C1416.08 361.651 1417.5 362.706 1418.94 363.476C1419.3 363.666 1419.68 363.713 1419.9 363.731C1420.16 363.753 1420.45 363.752 1420.74 363.737C1421.33 363.709 1422.08 363.622 1422.95 363.491C1424.7 363.228 1427.08 362.764 1429.99 362.134C1435.82 360.871 1443.86 358.917 1453.34 356.486C1472.32 351.623 1497.16 344.837 1521.92 337.816C1546.68 330.794 1571.37 323.534 1590.04 317.723C1599.37 314.818 1607.21 312.271 1612.8 310.294C1615.6 309.307 1617.85 308.454 1619.47 307.764C1620.27 307.42 1620.94 307.104 1621.45 306.82C1621.7 306.678 1621.95 306.528 1622.16 306.37C1622.33 306.24 1622.64 305.989 1622.84 305.612C1623.44 304.473 1623.62 302.833 1623.58 301.274C1623.55 299.653 1623.26 297.85 1622.74 296.232C1622.22 294.615 1621.39 292.975 1620.47 291.615C1619.58 290.302 1618.48 289.058 1617.34 288.449Z" stroke="#AE1717" stroke-width="3"/>
<g opacity="0.5">
<mask id="path-5-outside-2" maskUnits="userSpaceOnUse" x="0" y="464.998" width="769" height="562" fill="black">
<rect fill="white" y="464.998" width="769" height="562"/>
<path fill-rule="evenodd" clip-rule="evenodd" d="M3 613.185C28.1234 625.384 61.0541 641.397 119.018 669.595C214.163 715.882 243.563 730.153 282.223 748.815C349.911 781.494 389.423 803.003 408.392 817.5C449.641 849.028 467.208 869.952 505.338 932.976C528.783 971.725 548.345 993.206 572.541 1006.77C607.952 1026.61 651.292 1029.5 688.475 1014.48C712.4 1004.81 739.835 977.421 747.632 955.42C748.341 953.42 748.364 950.324 747.684 948.541C745.968 944.041 742.45 943.442 659.364 933.509C642.589 931.503 636.931 930.148 634.817 927.628C631.581 923.775 628.257 880.414 629.921 863.775C631.431 848.685 635.211 842.495 645.689 837.948C652.477 835.003 655.858 834.808 664.37 836.873C670.088 838.26 682.292 839.998 691.493 840.736C700.694 841.473 716.187 842.726 725.922 843.518C735.657 844.311 748.307 844.013 754.035 842.855L764.446 840.75L757.97 824.811C750.511 806.454 739.789 790.429 725.06 775.624C716.204 766.721 711.218 763.28 689.978 751.405C666.539 738.303 655.524 733.941 639.741 731.512C636.926 731.08 637.317 730.065 643.449 721.908L650.301 712.788L641.827 702.285C634.91 693.714 632.623 691.807 629.387 691.916C626.966 691.996 622.972 690.203 619.132 687.31C614.94 684.154 609.551 681.886 602.99 680.519C590.181 677.85 574.808 677.786 576.262 680.407C576.875 681.513 576.364 686.521 575.128 691.537C572.489 702.239 570.928 703.53 552.906 709.907C518.343 722.136 483.621 720.997 437.517 706.117C423.055 701.449 359.474 667.066 3 471L3 613.185Z"/>
</mask>
<path d="M3 613.185H0L0 615.063L1.68961 615.883L3 613.185ZM119.018 669.595L120.33 666.898H120.33L119.018 669.595ZM282.223 748.815L283.527 746.113L283.527 746.113L282.223 748.815ZM408.392 817.5L410.214 815.117L410.214 815.117L408.392 817.5ZM505.338 932.976L502.772 934.529L502.772 934.529L505.338 932.976ZM572.541 1006.77L571.074 1009.38L572.541 1006.77ZM688.475 1014.48L689.599 1017.26L689.599 1017.26L688.475 1014.48ZM747.632 955.42L744.805 954.418L744.804 954.418L747.632 955.42ZM747.684 948.541L744.88 949.61L744.881 949.611L747.684 948.541ZM659.364 933.509L659.008 936.487L659.008 936.487L659.364 933.509ZM634.817 927.628L637.115 925.7L637.114 925.699L634.817 927.628ZM629.921 863.775L626.936 863.476V863.477L629.921 863.775ZM645.689 837.948L644.495 835.196L644.495 835.196L645.689 837.948ZM664.37 836.873L665.077 833.958L665.077 833.958L664.37 836.873ZM754.035 842.855L754.629 845.796L754.63 845.796L754.035 842.855ZM764.446 840.75L765.041 843.69L768.588 842.973L767.225 839.62L764.446 840.75ZM757.97 824.811L755.19 825.94L755.19 825.941L757.97 824.811ZM725.06 775.624L722.933 777.74L722.933 777.74L725.06 775.624ZM689.978 751.405L691.442 748.786L691.441 748.786L689.978 751.405ZM639.741 731.512L640.197 728.547L640.197 728.547L639.741 731.512ZM643.449 721.908L645.847 723.711L645.847 723.71L643.449 721.908ZM650.301 712.788L652.7 714.59L654.103 712.722L652.636 710.904L650.301 712.788ZM641.827 702.285L644.162 700.401L644.162 700.401L641.827 702.285ZM629.387 691.916L629.487 694.914L629.487 694.914L629.387 691.916ZM619.132 687.31L620.937 684.914L620.936 684.914L619.132 687.31ZM602.99 680.519L602.378 683.456L602.378 683.456L602.99 680.519ZM576.262 680.407L578.886 678.954L578.885 678.951L576.262 680.407ZM575.128 691.537L578.04 692.255V692.255L575.128 691.537ZM552.906 709.907L553.906 712.735L553.906 712.735L552.906 709.907ZM437.517 706.117L436.596 708.972L436.596 708.972L437.517 706.117ZM3 471L4.44579 468.371L0 465.926L0 471H3ZM1.68961 615.883C26.8118 628.082 59.7416 644.095 117.705 672.293L120.33 666.898C62.3666 638.7 29.4349 622.686 4.31039 610.486L1.68961 615.883ZM117.705 672.293C212.851 718.58 242.254 732.852 280.919 751.517L283.527 746.113C244.871 727.453 215.476 713.185 120.33 666.898L117.705 672.293ZM280.918 751.516C348.664 784.223 387.887 805.605 406.57 819.884L410.214 815.117C390.959 800.401 351.159 778.764 283.527 746.113L280.918 751.516ZM406.57 819.884C427.09 835.568 441.611 848.531 455.737 865.356C469.895 882.22 483.722 903.042 502.772 934.529L507.905 931.423C488.825 899.886 474.803 878.734 460.332 861.498C445.829 844.223 430.943 830.961 410.214 815.117L406.57 819.884ZM502.772 934.529C526.333 973.471 546.225 995.456 571.074 1009.38L574.008 1004.15C550.466 990.955 531.233 969.979 507.905 931.423L502.772 934.529ZM571.074 1009.38C607.268 1029.67 651.56 1032.62 689.599 1017.26L687.352 1011.69C651.024 1026.37 608.636 1023.56 574.008 1004.15L571.074 1009.38ZM689.599 1017.26C702.038 1012.23 715.205 1002.69 726.221 991.696C737.221 980.716 746.357 967.999 750.46 956.422L744.804 954.418C741.11 964.842 732.63 976.82 721.982 987.45C711.35 998.064 698.837 1007.05 687.351 1011.69L689.599 1017.26ZM750.46 956.423C750.955 955.026 751.168 953.402 751.179 951.921C751.19 950.459 751.006 948.833 750.487 947.472L744.881 949.611C745.041 950.031 745.187 950.845 745.179 951.877C745.172 952.889 745.018 953.814 744.805 954.418L750.46 956.423ZM750.487 947.473C750.214 946.756 749.81 945.86 749.027 944.996C748.252 944.14 747.269 943.494 746.079 942.956C743.816 941.934 740.264 941.079 734.541 940.105C722.967 938.135 701.215 935.491 659.72 930.53L659.008 936.487C700.599 941.46 722.149 944.082 733.535 946.02C739.292 947 742.134 947.758 743.609 948.425C744.288 948.731 744.511 948.948 744.581 949.025C744.644 949.094 744.725 949.201 744.88 949.61L750.487 947.473ZM659.72 930.53C651.329 929.526 645.878 928.703 642.291 927.844C638.593 926.958 637.504 926.163 637.115 925.7L632.518 929.557C634.244 931.613 637.041 932.756 640.894 933.679C644.859 934.628 650.625 935.485 659.008 936.487L659.72 930.53ZM637.114 925.699C637.245 925.855 637.186 925.846 637.016 925.398C636.87 925.013 636.702 924.463 636.519 923.732C636.154 922.275 635.782 920.304 635.418 917.914C634.693 913.146 634.033 906.925 633.523 900.267C632.497 886.893 632.102 872.114 632.906 864.074L626.936 863.477C626.076 872.074 626.511 887.296 627.54 900.725C628.057 907.47 628.731 913.851 629.487 918.817C629.864 921.294 630.269 923.472 630.699 925.189C630.913 926.046 631.146 926.839 631.404 927.52C631.638 928.139 631.984 928.92 632.519 929.558L637.114 925.699ZM632.906 864.074C633.647 856.667 634.915 851.891 637.003 848.471C639.024 845.161 642.005 842.817 646.883 840.7L644.495 835.196C638.896 837.626 634.748 840.651 631.882 845.345C629.082 849.93 627.705 855.794 626.936 863.476L632.906 864.074ZM646.883 840.701C650.138 839.288 652.307 838.657 654.555 838.527C656.854 838.395 659.473 838.772 663.663 839.789L665.077 833.958C660.755 832.909 657.427 832.352 654.211 832.537C650.944 832.725 648.028 833.663 644.495 835.196L646.883 840.701ZM663.663 839.789C669.595 841.228 681.973 842.982 691.253 843.726L691.733 837.745C682.611 837.014 670.581 835.293 665.077 833.958L663.663 839.789ZM691.253 843.726C700.453 844.463 715.944 845.716 725.678 846.508L726.165 840.528C716.429 839.736 700.935 838.483 691.733 837.745L691.253 843.726ZM725.678 846.508C735.533 847.311 748.503 847.034 754.629 845.796L753.441 839.915C748.111 840.992 735.781 841.311 726.165 840.528L725.678 846.508ZM754.63 845.796L765.041 843.69L763.852 837.809L753.44 839.915L754.63 845.796ZM767.225 839.62L760.749 823.682L755.19 825.941L761.667 841.879L767.225 839.62ZM760.749 823.682C753.132 804.936 742.181 788.58 727.187 773.509L722.933 777.74C737.396 792.278 747.889 807.972 755.19 825.94L760.749 823.682ZM727.187 773.509C718.027 764.3 712.742 760.695 691.442 748.786L688.514 754.023C709.693 765.864 714.381 769.142 722.933 777.74L727.187 773.509ZM691.441 748.786C667.873 735.612 656.495 731.055 640.197 728.547L639.285 734.478C654.553 736.827 665.204 740.994 688.514 754.023L691.441 748.786ZM640.197 728.547C639.91 728.503 639.814 728.472 639.819 728.474C639.83 728.478 639.905 728.504 640.015 728.568C640.128 728.633 640.295 728.748 640.468 728.934C641.432 729.971 640.89 731.072 641.039 730.687C641.158 730.379 641.513 729.724 642.362 728.484C643.176 727.295 644.314 725.75 645.847 723.711L641.051 720.106C639.518 722.145 638.307 723.785 637.411 725.095C636.55 726.352 635.834 727.508 635.441 728.527C635.077 729.469 634.583 731.415 636.073 733.019C636.672 733.663 637.377 733.979 637.863 734.146C638.361 734.318 638.868 734.413 639.285 734.478L640.197 728.547ZM645.847 723.71L652.7 714.59L647.903 710.986L641.05 720.106L645.847 723.71ZM652.636 710.904L644.162 700.401L639.493 704.169L647.967 714.672L652.636 710.904ZM644.162 700.401C640.727 696.145 638.251 693.294 636.147 691.541C633.86 689.634 631.782 688.834 629.287 688.917L629.487 694.914C630.228 694.889 630.911 694.988 632.306 696.15C633.884 697.466 636.01 699.854 639.493 704.169L644.162 700.401ZM629.288 688.917C628.75 688.935 627.641 688.719 626.021 687.991C624.473 687.296 622.706 686.247 620.937 684.914L617.327 689.706C619.398 691.267 621.548 692.56 623.563 693.465C625.505 694.337 627.604 694.976 629.487 694.914L629.288 688.917ZM620.936 684.914C616.309 681.429 610.48 679.015 603.602 677.582L602.378 683.456C608.622 684.757 613.572 686.879 617.327 689.707L620.936 684.914ZM603.602 677.582C597.003 676.207 589.756 675.502 584.29 675.479C581.595 675.468 579.141 675.62 577.37 676.016C576.565 676.195 575.466 676.513 574.599 677.203C574.122 677.583 573.519 678.233 573.272 679.217C573.011 680.255 573.266 681.19 573.639 681.862L578.885 678.951C579.077 679.297 579.281 679.924 579.092 680.677C578.916 681.375 578.507 681.761 578.337 681.897C578.082 682.099 578.045 682.013 578.678 681.871C579.781 681.625 581.697 681.469 584.265 681.479C589.324 681.5 596.169 682.162 602.378 683.456L603.602 677.582ZM573.638 681.86C573.473 681.564 573.462 681.376 573.481 681.492C573.493 681.564 573.511 681.722 573.518 681.988C573.532 682.518 573.499 683.266 573.404 684.202C573.214 686.062 572.804 688.429 572.215 690.819L578.04 692.255C578.688 689.629 579.151 686.984 579.373 684.81C579.483 683.728 579.54 682.704 579.516 681.826C579.504 681.389 579.471 680.935 579.399 680.502C579.334 680.113 579.204 679.527 578.886 678.954L573.638 681.86ZM572.215 690.819C570.897 696.164 570.018 698.259 567.874 700.032C566.702 701 565.029 701.961 562.412 703.101C559.8 704.238 556.416 705.482 551.905 707.079L553.906 712.735C558.406 711.143 561.976 709.835 564.807 708.602C567.634 707.371 569.895 706.145 571.697 704.656C575.499 701.513 576.72 697.612 578.04 692.255L572.215 690.819ZM551.905 707.079C518.136 719.027 484.117 718.005 438.439 703.262L436.596 708.972C483.125 723.989 518.55 725.245 553.906 712.735L551.905 707.079ZM438.439 703.263C435.094 702.183 428.626 699.277 415.019 692.312C401.487 685.386 381.07 674.537 349.941 657.694C287.69 624.013 182.686 566.406 4.44579 468.371L1.55421 473.628C179.788 571.66 284.812 629.278 347.086 662.971C378.219 679.817 398.688 690.693 412.285 697.653C425.807 704.575 432.71 707.718 436.596 708.972L438.439 703.263ZM0 471L0 613.185H6L6 471H0Z" fill="#AE1717" mask="url(#path-5-outside-2)"/>
</g>
</svg>
