<svg width="65" height="65" viewBox="0 0 65 65" fill="none" xmlns="http://www.w3.org/2000/svg">
<path fill-rule="evenodd" clip-rule="evenodd" d="M13.0877 7.36202C13.4995 7.04356 14.0923 7.18662 14.3941 7.61081C15.7196 9.47357 17.8962 10.6886 20.3566 10.6886C24.3954 10.6886 27.6695 7.41447 27.6695 3.37564C27.6695 2.9535 27.6338 2.53972 27.5651 2.13715C27.4775 1.6235 27.7945 1.10191 28.3113 1.03498C29.6536 0.861141 31.0224 0.771484 32.4121 0.771484C33.8022 0.771484 35.1712 0.861181 36.5139 1.0351C37.0306 1.10204 37.3477 1.62361 37.2601 2.13724C37.1914 2.53978 37.1556 2.95354 37.1556 3.37564C37.1556 7.41447 40.4297 10.6886 44.4686 10.6886C46.9288 10.6886 49.1052 9.47374 50.4308 7.6112C50.7326 7.18705 51.3254 7.04402 51.7372 7.36248C53.9569 9.07886 55.9419 11.0839 57.6361 13.3215C57.9486 13.7342 57.8032 14.3219 57.3806 14.621C55.5096 15.9455 54.2881 18.127 54.2881 20.5939C54.2881 24.6327 57.5622 27.9068 61.6011 27.9068C61.9804 27.9068 62.353 27.878 62.7168 27.8223C63.2289 27.7439 63.7423 28.0657 63.804 28.58C63.9541 29.8293 64.0313 31.1009 64.0313 32.3907C64.0313 33.8607 63.931 35.3073 63.7368 36.724C63.6678 37.228 63.1651 37.541 62.6617 37.4679C62.3154 37.4176 61.9613 37.3915 61.6011 37.3915C57.5622 37.3915 54.2881 40.6656 54.2881 44.7045C54.2881 47.0716 55.4128 49.176 57.1569 50.5126C57.5603 50.8217 57.6867 51.3997 57.3744 51.8007C55.7028 53.9474 53.7603 55.8728 51.5983 57.5256C51.1947 57.8342 50.6183 57.703 50.3126 57.2973C48.978 55.5262 46.857 54.3812 44.4686 54.3812C40.4297 54.3812 37.1556 57.6553 37.1556 61.6942C37.1556 62.03 37.1783 62.3606 37.2221 62.6845C37.2903 63.1882 36.9729 63.6875 36.4686 63.752C35.1405 63.9221 33.7865 64.0098 32.4121 64.0098C31.038 64.0098 29.6844 63.9222 28.3566 63.7522C27.8523 63.6876 27.5348 63.1883 27.6031 62.6846C27.6469 62.3607 27.6695 62.0301 27.6695 61.6942C27.6695 57.6553 24.3954 54.3812 20.3566 54.3812C17.968 54.3812 15.8469 55.5264 14.5123 57.2977C14.2066 57.7034 13.6301 57.8346 13.2265 57.5261C11.0172 55.8372 9.03715 53.8636 7.34105 51.6601C7.02655 51.2515 7.16483 50.6653 7.58168 50.3618C9.40804 49.0323 10.5952 46.8776 10.5952 44.4456C10.5952 40.4068 7.32104 37.1327 3.28221 37.1327C2.89446 37.1327 2.51376 37.1629 2.14232 37.221C1.63251 37.3008 1.11986 36.9835 1.05391 36.4717C0.881745 35.1357 0.792969 33.7735 0.792969 32.3907C0.792969 31.0075 0.881778 29.6451 1.05401 28.3088C1.11997 27.7971 1.6326 27.4798 2.1424 27.5596C2.51381 27.6177 2.89448 27.6479 3.28221 27.6479C7.32104 27.6479 10.5952 24.3738 10.5952 20.3349C10.5952 17.9031 9.40818 15.7486 7.582 14.419C7.16518 14.1155 7.02692 13.5293 7.34142 13.1207C9.00183 10.9637 10.9344 9.02701 13.0877 7.36202Z" fill="#AE1717"/>
<path fill-rule="evenodd" clip-rule="evenodd" d="M17.1084 28.6839C16.8325 28.9046 16.6719 29.2388 16.6719 29.5922V46.7587C16.6719 47.4011 17.1926 47.9218 17.835 47.9218H46.9899C47.6323 47.9218 48.153 47.4011 48.153 46.7587V29.5922C48.153 29.2388 47.9924 28.9046 47.7165 28.6839L33.1391 17.022C32.7143 16.6821 32.1106 16.6821 31.6858 17.022L17.1084 28.6839ZM32.4126 43.1782C27.006 43.1782 22.6231 38.7953 22.623 33.3888H24.123C24.1231 37.9669 27.8344 41.6782 32.4126 41.6782C36.9907 41.6782 40.702 37.9669 40.7021 33.3888H42.2021C42.202 38.7953 37.8191 43.1782 32.4126 43.1782Z" fill="white"/>
</svg>
