<svg width="64" height="64" viewBox="0 0 64 64" fill="none" xmlns="http://www.w3.org/2000/svg">
<path fill-rule="evenodd" clip-rule="evenodd" d="M12.6427 6.72872C13.0546 6.41026 13.6473 6.55332 13.9492 6.97751C15.2747 8.84026 17.4513 10.0553 19.9117 10.0553C23.9505 10.0553 27.2246 6.78117 27.2246 2.74234C27.2246 2.3202 27.1888 1.90641 27.1202 1.50385C27.0325 0.990203 27.3496 0.468605 27.8663 0.401684C29.2087 0.22784 30.5775 0.138184 31.9672 0.138184C33.3572 0.138184 34.7263 0.22788 36.069 0.4018C36.5857 0.468735 36.9027 0.990314 36.8151 1.50394C36.7464 1.90648 36.7107 2.32024 36.7107 2.74234C36.7107 6.78117 39.9848 10.0553 44.0236 10.0553C46.4838 10.0553 48.6603 8.84044 49.9858 6.9779C50.2877 6.55375 50.8804 6.41072 51.2923 6.72918C53.5119 8.44556 55.497 10.4506 57.1912 12.6882C57.5037 13.1009 57.3582 13.6886 56.9357 13.9877C55.0646 15.3122 53.8432 17.4937 53.8432 19.9606C53.8432 23.9994 57.1173 27.2735 61.1561 27.2735C61.5355 27.2735 61.9081 27.2446 62.2718 27.189C62.7839 27.1106 63.2973 27.4324 63.3591 27.9467C63.5092 29.196 63.5864 30.4676 63.5864 31.7574C63.5864 33.2274 63.486 34.674 63.2919 36.0907C63.2228 36.5947 62.7202 36.9077 62.2167 36.8346C61.8705 36.7843 61.5163 36.7582 61.1561 36.7582C57.1173 36.7582 53.8432 40.0323 53.8432 44.0712C53.8432 46.4383 54.9678 48.5427 56.7119 49.8793C57.1154 50.1884 57.2417 50.7664 56.9294 51.1674C55.2578 53.3141 53.3154 55.2395 51.1534 56.8923C50.7498 57.2009 50.1734 57.0697 49.8677 56.664C48.5331 54.8929 46.4121 53.7479 44.0236 53.7479C39.9848 53.7479 36.7107 57.022 36.7107 61.0609C36.7107 61.3967 36.7333 61.7273 36.7772 62.0512C36.8454 62.5549 36.5279 63.0542 36.0237 63.1187C34.6955 63.2888 33.3416 63.3765 31.9672 63.3765C30.5931 63.3765 29.2395 63.2889 27.9116 63.1189C27.4073 63.0543 27.0899 62.555 27.1581 62.0513C27.202 61.7274 27.2246 61.3968 27.2246 61.0609C27.2246 57.022 23.9505 53.7479 19.9117 53.7479C17.523 53.7479 15.4019 54.8931 14.0673 56.6644C13.7616 57.0701 13.1852 57.2013 12.7816 56.8928C10.5723 55.2039 8.5922 53.2303 6.8961 51.0268C6.5816 50.6182 6.71988 50.032 7.13673 49.7285C8.9631 48.399 10.1502 46.2443 10.1502 43.8123C10.1502 39.7735 6.87609 36.4994 2.83726 36.4994C2.44951 36.4994 2.06881 36.5296 1.69738 36.5877C1.18757 36.6675 0.674913 36.3502 0.608963 35.8384C0.436799 34.5024 0.348022 33.1402 0.348022 31.7574C0.348022 30.3742 0.436832 29.0118 0.60906 27.6755C0.67502 27.1638 1.18766 26.8465 1.69745 26.9263C2.06886 26.9844 2.44954 27.0146 2.83726 27.0146C6.87609 27.0146 10.1502 23.7405 10.1502 19.7016C10.1502 17.2698 8.96324 15.1153 7.13705 13.7857C6.72023 13.4822 6.58198 12.896 6.89648 12.4874C8.55688 10.3304 10.4894 8.39371 12.6427 6.72872Z" fill="#AE1717"/>
<path d="M45.354 20.1426L44.736 20.5676L44.736 20.5676L45.354 20.1426ZM45.4052 20.3283L44.6592 20.2517L44.6592 20.2514L45.4052 20.3283ZM43.1245 21.3754L42.8457 20.6791L42.8458 20.6791L43.1245 21.3754ZM42.5029 21.7125L43.1827 22.0294L43.1825 22.0297L42.5029 21.7125ZM42.8334 23.4757L42.1319 23.741L42.1319 23.741L42.8334 23.4757ZM43.4473 24.0602L43.3371 24.8021L43.337 24.8021L43.4473 24.0602ZM43.9606 23.9539L44.32 24.6121L44.32 24.6121L43.9606 23.9539ZM45.5778 23.3278L45.8301 24.0341L45.5778 23.3278ZM46.3433 23.1419L46.2966 22.3934L46.2967 22.3934L46.3433 23.1419ZM46.6403 23.1234L46.5936 22.3749L47.4966 22.3186L47.3845 23.2163L46.6403 23.1234ZM46.5806 23.6016L45.8364 23.5088L45.8364 23.5088L46.5806 23.6016ZM46.0468 25.1711L45.3963 24.7978L45.3963 24.7978L46.0468 25.1711ZM45.2731 26.0808L45.7961 26.6184L45.796 26.6185L45.2731 26.0808ZM44.058 26.9833L44.3601 27.6698L44.36 27.6698L44.058 26.9833ZM44.228 27.2163L44.6904 26.6258L44.6906 26.6259L44.228 27.2163ZM44.4795 27.4133L44.9421 26.823L45.4018 27.1832L45.1652 27.7172L44.4795 27.4133ZM44.3264 27.759L45.0121 28.0628L45.0121 28.0629L44.3264 27.759ZM44.065 28.1297L43.895 27.3993L43.8952 27.3992L44.065 28.1297ZM43.8209 28.3287L44.4118 28.7905L44.4117 28.7907L43.8209 28.3287ZM43.4333 28.6295L43.0955 27.9599L43.0955 27.9599L43.4333 28.6295ZM42.711 28.8263L43.4387 29.0074L43.4386 29.008L42.711 28.8263ZM42.5996 28.5334L43.2565 28.1715L43.2565 28.1715L42.5996 28.5334ZM41.8651 28.1974L41.9237 27.4497L41.9238 27.4497L41.8651 28.1974ZM38.7704 29.1365L38.3632 28.5068L38.3632 28.5067L38.7704 29.1365ZM28.4328 38.9222L27.9136 38.381L27.9136 38.381L28.4328 38.9222ZM22.307 44.7868L22.8235 45.3306L22.8235 45.3306L22.307 44.7868ZM20.1554 46.1291L20.1281 46.8786L20.1281 46.8786L20.1554 46.1291ZM18.0746 43.4717L17.3585 43.2488L17.3585 43.2487L18.0746 43.4717ZM18.1781 43.1392L17.462 42.9162L17.5197 42.7312L17.6597 42.5972L18.1781 43.1392ZM18.7345 42.6069L18.2161 42.065L18.2161 42.065L18.7345 42.6069ZM20.2536 41.2452L19.764 40.6771L19.764 40.677L20.2536 41.2452ZM22.8505 38.993L23.3414 39.56L23.3414 39.56L22.8505 38.993ZM26.6712 35.6805L26.1807 35.1131L26.1807 35.1131L26.6712 35.6805ZM30.4173 32.4339L30.9088 33.0004L30.9088 33.0005L30.4173 32.4339ZM34.2589 29.1072L34.7487 29.6752L34.7487 29.6752L34.2589 29.1072ZM37.1748 26.3339L37.769 26.7916L37.7689 26.7916L37.1748 26.3339ZM38.9608 22.5065L38.2404 22.2976L38.2404 22.2976L38.9608 22.5065ZM43.3252 18.9736L43.4165 18.2292L43.4166 18.2292L43.3252 18.9736ZM20.3153 43.3072L20.0616 44.013L20.0616 44.013L20.3153 43.3072ZM19.3538 44.929L19.8305 44.35L19.8305 44.35L19.3538 44.929ZM20.2788 45.1108L20.03 44.4033L20.0301 44.4032L20.2788 45.1108ZM20.9208 44.4632L21.631 44.7043L21.631 44.7044L20.9208 44.4632ZM45.9719 19.7175C46.0484 19.8288 46.0924 19.9443 46.1173 20.0344C46.1409 20.12 46.1669 20.2534 46.1513 20.4053L44.6592 20.2514C44.6534 20.3073 44.6568 20.3497 44.6596 20.3726C44.6626 20.3977 44.667 20.4179 44.6713 20.4334C44.6776 20.4562 44.6932 20.5054 44.736 20.5676L45.9719 19.7175ZM46.1513 20.405C46.1454 20.4628 46.129 20.5838 46.0597 20.7187C45.9917 20.8512 45.9007 20.9437 45.8242 21.0064C45.6961 21.1112 45.5328 21.1909 45.3887 21.2571C45.0705 21.4032 44.4801 21.6406 43.4032 22.0717L42.8458 20.6791C43.945 20.2391 44.4881 20.0201 44.7628 19.8939C44.9151 19.824 44.9131 19.8137 44.874 19.8457C44.8419 19.872 44.7773 19.9324 44.7253 20.0336C44.6722 20.1371 44.6617 20.2274 44.6592 20.2517L46.1513 20.405ZM43.4032 22.0717C43.2972 22.1142 43.2144 22.1486 43.1492 22.1772C43.083 22.2063 43.0434 22.2258 43.0211 22.2379C42.9962 22.2514 43.01 22.2465 43.0387 22.2222C43.0711 22.1949 43.1345 22.1328 43.1827 22.0294L41.8231 21.3956C41.9525 21.1182 42.1929 20.9806 42.306 20.9193C42.4443 20.8443 42.6271 20.7667 42.8457 20.6791L43.4032 22.0717ZM43.1825 22.0297C43.2336 21.9203 43.2406 21.8299 43.2413 21.8232C43.2436 21.7998 43.243 21.788 43.2431 21.7946C43.2433 21.8069 43.2451 21.8397 43.2515 21.8974C43.264 22.0095 43.2882 22.1652 43.3208 22.3395C43.3889 22.7028 43.4769 23.0569 43.5349 23.2105L42.1319 23.741C42.0243 23.4564 41.9172 22.9928 41.8465 22.6159C41.8098 22.4202 41.7787 22.2252 41.7607 22.0632C41.7519 21.9838 41.7446 21.8986 41.7433 21.8193C41.7427 21.7802 41.7432 21.7291 41.7487 21.6738C41.7526 21.6354 41.7648 21.5207 41.8233 21.3953L43.1825 22.0297ZM43.5349 23.2105C43.5642 23.288 43.5857 23.332 43.5993 23.3558C43.612 23.378 43.6119 23.3721 43.5952 23.3561C43.5868 23.3482 43.5764 23.3397 43.5644 23.3319C43.5525 23.3241 43.5419 23.3187 43.5341 23.3154C43.5197 23.3092 43.5222 23.3131 43.5576 23.3184L43.337 24.8021C43.0816 24.7641 42.8027 24.6728 42.5609 24.4425C42.3421 24.2342 42.2193 23.972 42.1319 23.741L43.5349 23.2105ZM43.5575 23.3184C43.5912 23.3234 43.5999 23.3232 43.5955 23.3231C43.5925 23.323 43.5859 23.3231 43.5768 23.3239C43.5675 23.3247 43.5576 23.3261 43.5479 23.3282C43.5278 23.3323 43.5185 23.3369 43.526 23.3337C43.5302 23.3319 43.5381 23.3284 43.5509 23.322C43.5638 23.3156 43.5801 23.3071 43.6011 23.2956L44.32 24.6121C44.1973 24.6791 44.0406 24.7579 43.8522 24.797C43.6517 24.8385 43.477 24.8229 43.3371 24.8021L43.5575 23.3184ZM43.6011 23.2956C43.7942 23.1902 44.1526 23.0395 44.4151 22.9461L44.9178 24.3593C44.693 24.4393 44.4162 24.5596 44.32 24.6121L43.6011 23.2956ZM44.4151 22.9461C44.6583 22.8596 45.0681 22.7134 45.3256 22.6215L45.8301 24.0341C45.5722 24.1262 45.1618 24.2726 44.9178 24.3593L44.4151 22.9461ZM45.3256 22.6215C45.6114 22.5194 46.0318 22.4099 46.2966 22.3934L46.3901 23.8905C46.3901 23.8905 46.3697 23.8922 46.3244 23.9004C46.2825 23.908 46.2309 23.9189 46.1729 23.933C46.0555 23.9615 45.9305 23.9982 45.8301 24.0341L45.3256 22.6215ZM46.2967 22.3934L46.5936 22.3749L46.687 23.872L46.39 23.8905L46.2967 22.3934ZM47.3845 23.2163L47.3248 23.6945L45.8364 23.5088L45.8961 23.0305L47.3845 23.2163ZM47.3248 23.6945C47.2431 24.3494 47.0353 24.9555 46.6973 25.5444L45.3963 24.7978C45.6406 24.372 45.7806 23.9555 45.8364 23.5088L47.3248 23.6945ZM46.6973 25.5444C46.4686 25.9428 46.2971 26.131 45.7961 26.6184L44.7501 25.5432C44.9965 25.3036 45.1218 25.1755 45.2062 25.0762C45.2781 24.9917 45.3237 24.9243 45.3963 24.7978L46.6973 25.5444ZM45.796 26.6185C45.2303 27.1687 44.8886 27.4372 44.3601 27.6698L43.756 26.2968C44.0463 26.169 44.2375 26.0418 44.7502 25.5432L45.796 26.6185ZM44.36 27.6698C44.3659 27.6672 44.4058 27.65 44.4548 27.6169C44.5012 27.5855 44.6072 27.5062 44.6849 27.3595C44.775 27.1893 44.7867 27.0065 44.7504 26.8525C44.7197 26.7224 44.6609 26.6363 44.6372 26.6038C44.5928 26.543 44.5542 26.5148 44.5844 26.5406C44.6026 26.5563 44.6342 26.5817 44.6904 26.6258L43.7655 27.8067C43.7093 27.7626 43.6542 27.7189 43.6081 27.6794C43.5739 27.6501 43.4931 27.5806 43.4253 27.4877C43.3695 27.4112 43.1434 27.0652 43.3593 26.6574C43.4422 26.5011 43.557 26.4132 43.6155 26.3737C43.6766 26.3324 43.7319 26.3074 43.7561 26.2967L44.36 27.6698ZM44.6906 26.6259L44.9421 26.823L44.017 28.0037L43.7654 27.8066L44.6906 26.6259ZM45.1652 27.7172L45.0121 28.0628L43.6407 27.4551L43.7938 27.1095L45.1652 27.7172ZM45.0121 28.0629C44.9534 28.1952 44.8827 28.35 44.7949 28.4746C44.6724 28.6483 44.4927 28.8003 44.2348 28.8603L43.8952 27.3992C43.8357 27.413 43.7597 27.4416 43.6854 27.4955C43.6177 27.5446 43.5808 27.5934 43.569 27.6102C43.5585 27.6251 43.5602 27.6257 43.576 27.5944C43.5909 27.5649 43.6113 27.5213 43.6407 27.4551L45.0121 28.0629ZM44.235 28.8602C44.3097 28.8428 44.3599 28.8166 44.3811 28.8045C44.4053 28.7907 44.4191 28.7798 44.423 28.7766C44.4303 28.7707 44.4242 28.7747 44.4118 28.7905L43.2299 27.8669C43.3005 27.7766 43.3834 27.6888 43.4754 27.6138C43.552 27.5514 43.6981 27.4451 43.895 27.3993L44.235 28.8602ZM44.4117 28.7907C44.237 29.014 44.011 29.1781 43.7712 29.2991L43.0955 27.9599C43.1909 27.9118 43.2236 27.8749 43.23 27.8667L44.4117 28.7907ZM43.7712 29.2991C43.5631 29.4041 43.3303 29.4919 43.1389 29.544C43.0525 29.5675 42.9274 29.5971 42.8008 29.6025C42.7581 29.6043 42.5976 29.6115 42.4233 29.5356C42.3234 29.4922 42.1641 29.3969 42.0567 29.204C41.9424 28.9985 41.9468 28.7908 41.9833 28.6446L43.4386 29.008C43.4726 28.872 43.4778 28.6729 43.3675 28.4747C43.2642 28.2889 43.112 28.1995 43.0222 28.1604C42.868 28.0932 42.7392 28.1037 42.7377 28.1038C42.6935 28.1057 42.6889 28.1119 42.7447 28.0967C42.8378 28.0713 42.9764 28.02 43.0955 27.9599L43.7712 29.2991ZM41.9832 28.6452C41.9673 28.709 41.9632 28.7624 41.9622 28.7965C41.9612 28.8321 41.963 28.8612 41.9649 28.881C41.9686 28.9194 41.9749 28.9471 41.9776 28.9584C41.9831 28.9815 41.9872 28.9904 41.9836 28.981C41.9774 28.9648 41.9629 28.932 41.9426 28.8952L43.2565 28.1715C43.3061 28.2615 43.3515 28.358 43.3857 28.4479C43.4023 28.4916 43.4217 28.5479 43.4364 28.6093C43.4437 28.6398 43.4529 28.6844 43.458 28.7371C43.462 28.7787 43.4698 28.8825 43.4387 29.0074L41.9832 28.6452ZM41.9426 28.8953C41.9265 28.8659 41.9174 28.8505 41.912 28.8419C41.9069 28.8338 41.9102 28.8401 41.9212 28.8532C41.9333 28.8677 41.9533 28.889 41.9817 28.9111C42.0105 28.9335 42.0394 28.9502 42.0647 28.9617C42.0885 28.9726 42.1041 28.9767 42.1054 28.977C42.1061 28.9772 42.0971 28.9749 42.0729 28.9713C42.049 28.9677 42.0163 28.9637 41.9706 28.9592C41.9251 28.9547 41.8716 28.9502 41.8064 28.9451L41.9238 27.4497C42.0557 27.4601 42.1836 27.4711 42.2953 27.4879C42.406 27.5044 42.5466 27.5327 42.6886 27.5977C43.0313 27.7544 43.1812 28.0349 43.2565 28.1715L41.9426 28.8953ZM41.8064 28.9451C40.9924 28.8813 40.2234 29.0902 39.1777 29.7664L38.3632 28.5067C39.5966 27.7092 40.6901 27.353 41.9237 27.4497L41.8064 28.9451ZM39.1777 29.7663C39.1777 29.7663 39.175 29.7681 39.1691 29.7723C39.1633 29.7765 39.155 29.7825 39.1441 29.7909C39.1219 29.8079 39.0917 29.8321 39.0512 29.866C38.9697 29.9341 38.8564 30.0333 38.6976 30.1769C38.3804 30.4639 37.8993 30.9126 37.1598 31.6125C35.6823 33.0112 33.1903 35.3972 28.9521 39.4634L27.9136 38.381C32.1506 34.316 34.6466 31.9261 36.1287 30.5232C36.869 29.8223 37.3606 29.3638 37.6913 29.0646C38.0061 28.7798 38.2128 28.604 38.3632 28.5068L39.1777 29.7663ZM28.9521 39.4634C26.3108 41.9974 23.5527 44.6379 22.8235 45.3306L21.7904 44.243C22.5164 43.5534 25.2716 40.9158 27.9136 38.381L28.9521 39.4634ZM22.8235 45.3306C22.4485 45.6867 22.1621 45.9613 21.9405 46.1636C21.7243 46.361 21.5296 46.5275 21.3394 46.6462C21.1213 46.7822 20.9088 46.8565 20.6685 46.8804C20.4837 46.8987 20.2686 46.8838 20.1281 46.8786L20.1828 45.3796C20.4175 45.3882 20.4688 45.3928 20.5203 45.3877C20.5285 45.3869 20.5247 45.3868 20.5178 45.3892C20.5123 45.3911 20.5197 45.3896 20.5454 45.3735C20.6092 45.3337 20.7166 45.2498 20.9291 45.0558C21.1363 44.8667 21.4051 44.609 21.7904 44.243L22.8235 45.3306ZM20.1281 46.8786C19.349 46.8502 18.6913 46.5927 18.144 46.0593L19.1909 44.9851C19.4458 45.2335 19.738 45.3634 20.1828 45.3796L20.1281 46.8786ZM18.144 46.0593C17.3537 45.2892 17.0338 44.2921 17.3585 43.2488L18.7907 43.6945C18.6562 44.1269 18.7476 44.5531 19.1909 44.9851L18.144 46.0593ZM17.3585 43.2487L17.462 42.9162L18.8942 43.3621L18.7907 43.6946L17.3585 43.2487ZM17.6597 42.5972L18.2161 42.065L19.253 43.1489L18.6966 43.6811L17.6597 42.5972ZM18.2161 42.065C18.5356 41.7594 19.2301 41.1371 19.764 40.6771L20.7432 41.8134C20.2181 42.2658 19.5455 42.869 19.253 43.1489L18.2161 42.065ZM19.764 40.677C20.2937 40.2207 20.8846 39.709 21.0775 39.5399L22.0664 40.6678C21.868 40.8417 21.2725 41.3573 20.7431 41.8134L19.764 40.677ZM21.0775 39.5399C21.2751 39.3667 21.8521 38.8653 22.3596 38.4259L23.3414 39.56C22.8338 39.9995 22.2601 40.498 22.0664 40.6678L21.0775 39.5399ZM22.3596 38.426C22.8668 37.9868 23.7302 37.238 24.2781 36.762L25.2618 37.8945C24.7134 38.3709 23.8493 39.1202 23.3414 39.56L22.3596 38.426ZM24.2781 36.762C24.8266 36.2855 25.6826 35.5436 26.1807 35.1131L27.1617 36.2479C26.6646 36.6776 25.8095 37.4187 25.2618 37.8945L24.2781 36.762ZM26.1807 35.1131C27.0368 34.3731 27.6891 33.8078 29.9258 31.8674L30.9088 33.0005C28.6721 34.9408 28.0189 35.5069 27.1617 36.2479L26.1807 35.1131ZM29.9258 31.8674C32.1647 29.9252 32.8575 29.3252 33.7692 28.5391L34.7487 29.6752C33.8389 30.4596 33.1476 31.0582 30.9088 33.0004L29.9258 31.8674ZM33.7692 28.5392C35.3757 27.1538 36.2274 26.3348 36.5807 25.8762L37.7689 26.7916C37.3059 27.3927 36.3313 28.3105 34.7487 29.6752L33.7692 28.5392ZM36.5807 25.8762C37.0043 25.3263 37.2727 24.9128 37.5054 24.4142C37.7434 23.9041 37.9551 23.2815 38.2404 22.2976L39.6811 22.7154C39.3916 23.7133 39.1541 24.4284 38.8647 25.0485C38.57 25.6801 38.2328 26.1895 37.769 26.7916L36.5807 25.8762ZM38.2404 22.2976C38.6096 21.025 39.0301 20.1587 39.7206 19.4856L40.7677 20.5597C40.3454 20.9714 40.0188 21.5512 39.6811 22.7155L38.2404 22.2976ZM39.7206 19.4856C40.6954 18.5353 42.0725 18.0642 43.4165 18.2292L43.2338 19.718C42.3478 19.6093 41.4213 19.9225 40.7677 20.5597L39.7206 19.4856ZM43.4166 18.2292C43.9029 18.2889 44.4141 18.4915 44.8441 18.7392C45.2691 18.9841 45.7001 19.3223 45.972 19.7176L44.736 20.5676C44.6373 20.4241 44.4126 20.2218 44.0952 20.0389C43.7828 19.8589 43.4648 19.7463 43.2337 19.718L43.4166 18.2292ZM20.0616 44.013C19.9871 43.9862 19.9432 43.9958 19.9139 44.0079C19.8754 44.0237 19.8311 44.059 19.7985 44.1139C19.7659 44.1689 19.7597 44.2188 19.7635 44.2493C19.7659 44.2686 19.7733 44.3029 19.8305 44.35L18.8772 45.5081C18.1344 44.8967 18.1369 43.9754 18.5082 43.349C18.8779 42.7253 19.6763 42.2805 20.569 42.6014L20.0616 44.013ZM19.8305 44.35C19.8296 44.3493 19.8396 44.3573 19.8637 44.3679C19.8872 44.3783 19.9164 44.3877 19.9481 44.3939C19.9799 44.4002 20.007 44.4018 20.026 44.4012C20.046 44.4004 20.046 44.3976 20.03 44.4033L20.5277 45.8183C20.2312 45.9226 19.9175 45.9166 19.6589 45.8658C19.3971 45.8144 19.1122 45.7016 18.8771 45.5081L19.8305 44.35ZM20.0301 44.4032C20.014 44.4089 20.0205 44.4089 20.0466 44.3909C20.0705 44.3743 20.0998 44.3502 20.1296 44.3201C20.1593 44.2901 20.1831 44.2607 20.1993 44.2369C20.217 44.2109 20.2164 44.2051 20.2106 44.2221L21.631 44.7044C21.539 44.9752 21.3602 45.2094 21.1949 45.3762C21.0293 45.5431 20.797 45.7236 20.5276 45.8183L20.0301 44.4032ZM20.2106 44.2222C20.2171 44.2031 20.2198 44.1707 20.1965 44.1263C20.1729 44.0812 20.1277 44.0368 20.0616 44.013L20.5689 42.6014C21.4003 42.9002 21.9339 43.812 21.631 44.7043L20.2106 44.2222Z" fill="white"/>
<path d="M43.597 45.8361L43.5968 45.8362C43.4556 45.9882 43.3035 46.1297 43.1635 46.2356C43.0973 46.2857 43.0082 46.3475 42.9079 46.3952C42.8597 46.4181 42.7758 46.4539 42.6698 46.4723C42.5789 46.488 42.3455 46.513 42.1093 46.3623C42.0762 46.3411 41.8441 46.1936 41.5173 45.9858C41.3106 45.8544 41.0661 45.6989 40.81 45.5361L43.597 45.8361ZM43.597 45.8361L44.0317 45.3681L44.4156 44.9549M43.597 45.8361L44.4156 44.9549M44.4156 44.9549L44.125 44.4714M44.4156 44.9549L44.125 44.4714M44.125 44.4714L43.3033 43.104C43.3033 43.104 43.3033 43.104 43.3033 43.104C42.9405 42.5002 42.6592 42.0689 42.2988 41.6924C41.9373 41.3147 41.5241 41.0212 40.9479 40.6446L40.9478 40.6446M44.125 44.4714L40.9478 40.6446M40.9478 40.6446C40.0475 40.0563 38.6101 38.705 34.852 34.8484L30.4076 30.2874L30.4972 30.1821L30.4972 30.1821C30.652 30.0003 30.7959 29.8205 30.9044 29.6744C30.9576 29.6027 31.0091 29.5301 31.0504 29.465C31.0702 29.4337 31.0959 29.3912 31.1193 29.3442C31.1309 29.321 31.148 29.2844 31.1638 29.2394C31.175 29.2075 31.2088 29.1085 31.2088 28.9787C31.2088 28.482 30.9138 28.1004 30.6354 27.8573C30.3415 27.6007 29.9584 27.3984 29.5409 27.2555M40.9478 40.6446L27.6322 25.1648M24.1201 28.912C23.408 28.537 22.2621 27.4622 19.2988 24.3896C16.0327 21.003 15.4116 20.2796 15.4116 19.8627C15.4116 19.476 15.6819 19.0875 16.6359 18.1039M24.1201 28.912L29.9261 29.696C30.219 29.3518 30.4588 29.0291 30.4588 28.9787C30.4588 28.6055 30.0012 28.2058 29.2978 27.965M24.1201 28.912C25.1595 29.4592 26.0508 30.3949 26.215 31.1113L24.1201 28.912ZM16.6359 18.1039C17.332 17.3861 17.729 16.9181 18.185 16.851C18.9556 16.7377 19.8948 17.7698 22.731 20.6775C25.6091 23.6279 26.5855 24.7406 26.96 25.4975C27.6712 26.9347 28.3348 27.635 29.2978 27.965M16.6359 18.1039L16.0975 17.5818M16.6359 18.1039L16.0975 17.5818M29.2978 27.965L29.5409 27.2555M29.2978 27.965L29.5408 27.2554C29.5408 27.2554 29.5409 27.2555 29.5409 27.2555M29.5409 27.2555C28.8483 27.0181 28.3045 26.5234 27.6322 25.1648M27.6322 25.1648C27.3993 24.6942 27.0068 24.1661 26.3481 23.4154C25.683 22.6574 24.707 21.6291 23.2679 20.1538C23.0725 19.9534 22.8855 19.7614 22.7065 19.5776C21.8594 18.7076 21.1918 18.022 20.6559 17.5094C20.0274 16.9082 19.4911 16.454 18.9845 16.2401C18.7076 16.1232 18.4118 16.0647 18.0995 16.1057C17.7926 16.146 17.5347 16.2738 17.3184 16.4226C16.9959 16.6444 16.6568 16.9986 16.3082 17.3626C16.2384 17.4356 16.1681 17.509 16.0975 17.5818L27.6322 25.1648ZM16.0975 17.5818C15.6208 18.0732 15.2758 18.455 15.0504 18.7786C14.8142 19.118 14.6616 19.4607 14.6616 19.8627C14.6616 20.1644 14.7776 20.4275 14.9191 20.6598C15.0609 20.8926 15.2729 21.1651 15.5614 21.5011C16.1419 22.1771 17.1301 23.2213 18.7589 24.9102C20.2408 26.4468 21.2796 27.4957 22.0405 28.2094C22.79 28.9125 23.3176 29.3371 23.7706 29.5756L23.7707 29.5757M16.0975 17.5818L23.7707 29.5757M24.4458 27.2648L24.0418 26.9396L23.8753 26.8056C23.8858 26.8022 23.8985 26.7985 23.9134 26.795C23.941 26.7885 23.9852 26.7807 24.0418 26.7807C24.1556 26.7807 24.2412 26.8072 24.2772 26.8194C24.2994 26.8269 24.3187 26.8347 24.3345 26.8417C24.4924 27.077 24.5058 27.1902 24.4458 27.2648ZM24.4458 27.2648L24.0418 26.9398L23.8752 26.8057C23.8658 26.8088 23.8582 26.8116 23.8526 26.8139C23.8494 26.8151 23.8465 26.8164 23.8439 26.8175C23.7607 26.932 23.7225 27.0707 23.7296 27.1991C23.7317 27.2369 23.7374 27.268 23.7432 27.2911C23.9139 27.4459 24.0185 27.5307 24.0418 27.5307C24.1463 27.5307 24.328 27.411 24.4458 27.2648ZM23.7707 29.5757C24.2175 29.8109 24.635 30.132 24.9527 30.4655C25.2845 30.8139 25.4451 31.1095 25.4839 31.2788L25.4839 31.2789M23.7707 29.5757L25.4839 31.2789M25.4839 31.2789C25.5716 31.6612 25.809 32.0699 26.0235 32.3596C26.1365 32.5121 26.2682 32.6659 26.4078 32.7903C26.4772 32.8521 26.5642 32.9208 26.6656 32.9778C26.7563 33.0288 26.9239 33.1081 27.1384 33.1081C27.3096 33.1081 27.4424 33.0497 27.4765 33.0347L27.4786 33.0338C27.5348 33.0091 27.5845 32.9812 27.6219 32.9589C27.6985 32.9131 27.7795 32.8567 27.8562 32.7997C28.0124 32.6837 28.197 32.5311 28.3774 32.3677L28.4442 32.3072L32.7026 36.6878L32.7026 36.6878M25.4839 31.2789L32.7026 36.6878M32.7026 36.6878C36.3343 40.4237 37.6656 41.919 38.3795 43.0123L38.3795 43.0124M32.7026 36.6878L38.3795 43.0124M38.3795 43.0124C38.8127 43.6755 39.1382 44.1389 39.505 44.5216M38.3795 43.0124L39.505 44.5216M39.505 44.5216C39.8813 44.9143 40.2762 45.1967 40.81 45.5361L39.505 44.5216ZM25.7774 25.6433C25.7774 25.7964 25.7273 25.9733 25.6659 26.0364C25.3406 26.3719 24.7081 25.8337 21.3836 22.3926C19.3864 20.3252 17.7522 18.5563 17.7522 18.4617C17.7522 18.367 17.8425 18.1965 17.9529 18.0827C18.0632 17.9689 18.2286 17.8758 18.3204 17.8758C18.6039 17.8758 25.7774 25.348 25.7774 25.6433ZM16.817 20.0377C16.4772 19.5279 16.5727 19.3645 16.9188 19.2958C16.9565 19.2883 17.1085 19.4019 17.3515 19.6144C17.3316 19.7748 17.2394 19.9111 17.131 19.9887C17.1045 20.0077 17.0813 20.02 17.0647 20.0276C17.0645 20.0277 17.0643 20.0278 17.0641 20.0279C17.0577 20.0308 17.0524 20.033 17.0483 20.0345C16.957 20.0505 16.8771 20.0465 16.817 20.0377ZM20.7387 23.2401C19.0027 21.4485 18.0433 20.4226 17.589 19.827C18.3087 20.4836 19.5306 21.691 20.914 23.1227C22.9715 25.2521 23.9173 26.2594 24.2834 26.7684C24.2549 26.7428 24.223 26.7138 24.1875 26.6812C23.9882 26.4979 23.7062 26.2277 23.3602 25.8882C22.6755 25.2166 21.7559 24.2895 20.7647 23.267C20.7561 23.258 20.7474 23.2491 20.7387 23.2401ZM23.3829 26.842C23.5659 27.0566 23.6656 27.1898 23.717 27.2672C23.11 26.7134 21.7369 25.348 20.2001 23.762C18.5317 22.0402 17.5417 20.987 17.0357 20.3376C17.2079 20.4936 17.4165 20.6888 17.657 20.9191C18.3589 21.5915 19.3056 22.538 20.3492 23.6175C20.3577 23.6263 20.3661 23.6351 20.3746 23.6439C21.9872 25.3128 22.8972 26.2724 23.3829 26.842Z" fill="white" stroke="#AE1717" stroke-width="1.5"/>
</svg>
