<svg width="65" height="65" viewBox="0 0 65 65" fill="none" xmlns="http://www.w3.org/2000/svg">
<path fill-rule="evenodd" clip-rule="evenodd" d="M13.2727 7.52608C13.6846 7.20762 14.2773 7.35069 14.5792 7.77487C15.9047 9.63763 18.0813 10.8527 20.5417 10.8527C24.5805 10.8527 27.8546 7.57854 27.8546 3.53971C27.8546 3.11757 27.8188 2.70378 27.7502 2.30121C27.6625 1.78757 27.9796 1.26597 28.4963 1.19905C29.8387 1.0252 31.2075 0.935547 32.5972 0.935547C33.9872 0.935547 35.3563 1.02524 36.699 1.19916C37.2157 1.2661 37.5327 1.78768 37.4451 2.30131C37.3765 2.70384 37.3407 3.1176 37.3407 3.53971C37.3407 7.57854 40.6148 10.8527 44.6536 10.8527C47.1138 10.8527 49.2903 9.6378 50.6158 7.77526C50.9177 7.35111 51.5104 7.20808 51.9223 7.52654C54.1419 9.24292 56.127 11.248 57.8212 13.4855C58.1337 13.8982 57.9882 14.4859 57.5657 14.785C55.6946 16.1095 54.4732 18.2911 54.4732 20.758C54.4732 24.7968 57.7473 28.0709 61.7861 28.0709C62.1655 28.0709 62.5381 28.042 62.9018 27.9863C63.4139 27.9079 63.9273 28.2297 63.9891 28.7441C64.1392 29.9933 64.2164 31.265 64.2164 32.5547C64.2164 34.0248 64.1161 35.4714 63.9219 36.8881C63.8528 37.3921 63.3502 37.7051 62.8467 37.6319C62.5005 37.5816 62.1463 37.5556 61.7861 37.5556C57.7473 37.5556 54.4732 40.8297 54.4732 44.8685C54.4732 47.2356 55.5978 49.3401 57.3419 50.6766C57.7454 50.9858 57.8717 51.5637 57.5594 51.9648C55.8878 54.1115 53.9454 56.0369 51.7834 57.6897C51.3798 57.9982 50.8034 57.8671 50.4977 57.4614C49.1631 55.6903 47.0421 54.5453 44.6536 54.5453C40.6148 54.5453 37.3407 57.8194 37.3407 61.8582C37.3407 62.1941 37.3633 62.5247 37.4072 62.8485C37.4754 63.3523 37.1579 63.8515 36.6537 63.9161C35.3255 64.0862 33.9716 64.1739 32.5972 64.1739C31.2231 64.1739 29.8695 64.0862 28.5416 63.9162C28.0374 63.8517 27.7199 63.3524 27.7881 62.8486C27.832 62.5247 27.8546 62.1941 27.8546 61.8582C27.8546 57.8194 24.5805 54.5453 20.5417 54.5453C18.1531 54.5453 16.0319 55.6905 14.6973 57.4617C14.3916 57.8675 13.8152 57.9987 13.4116 57.6901C11.2023 56.0012 9.22221 54.0277 7.5261 51.8242C7.2116 51.4156 7.34989 50.8293 7.76674 50.5259C9.5931 49.1963 10.7802 47.0416 10.7802 44.6097C10.7802 40.5709 7.50609 37.2967 3.46727 37.2967C3.07952 37.2967 2.69881 37.3269 2.32738 37.3851C1.81757 37.4649 1.30492 37.1476 1.23897 36.6358C1.0668 35.2998 0.978027 33.9376 0.978027 32.5547C0.978027 31.1716 1.06684 29.8092 1.23906 28.4729C1.30503 27.9611 1.81766 27.6439 2.32746 27.7236C2.69887 27.7818 3.07954 27.8119 3.46727 27.8119C7.50609 27.8119 10.7802 24.5378 10.7802 20.499C10.7802 18.0672 9.59324 15.9126 7.76706 14.5831C7.35024 14.2796 7.21198 13.6933 7.52648 13.2848C9.18688 11.1278 11.1194 9.19107 13.2727 7.52608Z" fill="#AE1717"/>
<path fill-rule="evenodd" clip-rule="evenodd" d="M48.7097 12.7965L32.0164 29.4898L25.6045 23.0778L26.6652 22.0171L32.0164 27.3685L47.649 11.7358L48.7097 12.7965Z" fill="white"/>
<path fill-rule="evenodd" clip-rule="evenodd" d="M43.178 18.328C42.9357 17.8727 42.6648 17.4349 42.3678 17.0169L41.2897 18.095C41.5788 18.5235 41.8371 18.9744 42.0613 19.4448L43.178 18.328ZM42.6489 20.9785C42.9266 21.92 43.0756 22.9167 43.0756 23.9482C43.0756 26.9202 41.8392 29.6023 39.8507 31.5102C37.9673 33.3172 35.4126 34.4266 32.5972 34.4266C29.7818 34.4266 27.2271 33.3172 25.3437 31.5102C23.3552 29.6023 22.1188 26.9202 22.1188 23.9482C22.1188 18.1611 26.8101 13.4697 32.5972 13.4697C35.6734 13.4697 38.44 14.7953 40.3569 16.9065L41.4187 15.8447C39.2293 13.4626 36.0876 11.9697 32.5972 11.9697C25.9817 11.9697 20.6188 17.3326 20.6188 23.9482C20.6188 27.1948 21.9113 30.1406 24.0081 32.2974L20.6342 48.6822L20.3794 49.9196L21.5877 49.5508L32.5972 46.1906L43.6067 49.5508L44.815 49.9196L44.5602 48.6822L41.1863 32.2974C43.2831 30.1406 44.5756 27.1948 44.5756 23.9482C44.5756 22.487 44.314 21.087 43.8351 19.7923L42.6489 20.9785ZM22.3582 47.7474L25.3023 33.4497C27.3221 35.0026 29.8523 35.9266 32.5972 35.9266C35.3421 35.9266 37.8723 35.0026 39.8922 33.4497L42.8362 47.7474L32.8161 44.6891L32.5972 44.6222L32.3783 44.6891L22.3582 47.7474Z" fill="white"/>
</svg>
