<svg width="64" height="64" viewBox="0 0 64 64" fill="none" xmlns="http://www.w3.org/2000/svg">
<path fill-rule="evenodd" clip-rule="evenodd" d="M12.8096 7.07979C13.2214 6.76133 13.8142 6.9044 14.1161 7.32858C15.4416 9.19134 17.6182 10.4064 20.0785 10.4064C24.1174 10.4064 27.3915 7.13225 27.3915 3.09342C27.3915 2.67128 27.3557 2.25749 27.287 1.85492C27.1994 1.34128 27.5164 0.819679 28.0332 0.752758C29.3756 0.578914 30.7443 0.489258 32.1341 0.489258C33.5241 0.489258 34.8932 0.578954 36.2358 0.752875C36.7526 0.819809 37.0696 1.34139 36.982 1.85502C36.9133 2.25756 36.8776 2.67131 36.8776 3.09342C36.8776 7.13225 40.1517 10.4064 44.1905 10.4064C46.6507 10.4064 48.8272 9.19151 50.1527 7.32898C50.4546 6.90482 51.0473 6.76179 51.4591 7.08025C53.6788 8.79663 55.6639 10.8017 57.358 13.0392C57.6705 13.452 57.5251 14.0396 57.1026 14.3387C55.2315 15.6632 54.01 17.8448 54.01 20.3117C54.01 24.3505 57.2842 27.6246 61.323 27.6246C61.7023 27.6246 62.0749 27.5957 62.4387 27.54C62.9508 27.4616 63.4642 27.7834 63.526 28.2978C63.676 29.547 63.7532 30.8187 63.7532 32.1084C63.7532 33.5785 63.6529 35.0251 63.4588 36.4418C63.3897 36.9458 62.887 37.2588 62.3836 37.1857C62.0373 37.1353 61.6832 37.1093 61.323 37.1093C57.2842 37.1093 54.01 40.3834 54.01 44.4222C54.01 46.7893 55.1347 48.8938 56.8788 50.2303C57.2822 50.5395 57.4086 51.1174 57.0963 51.5185C55.4247 53.6652 53.4822 55.5906 51.3203 57.2434C50.9167 57.5519 50.3403 57.4208 50.0345 57.0151C48.6999 55.244 46.5789 54.099 44.1905 54.099C40.1517 54.099 36.8776 57.3731 36.8776 61.412C36.8776 61.7478 36.9002 62.0784 36.944 62.4022C37.0122 62.906 36.6948 63.4052 36.1906 63.4698C34.8624 63.6399 33.5085 63.7276 32.1341 63.7276C30.76 63.7276 29.4063 63.64 28.0785 63.4699C27.5742 63.4054 27.2568 62.9061 27.325 62.4023C27.3688 62.0785 27.3915 61.7478 27.3915 61.412C27.3915 57.3731 24.1174 54.099 20.0785 54.099C17.6899 54.099 15.5688 55.2442 14.2342 57.0155C13.9285 57.4212 13.3521 57.5524 12.9485 57.2438C10.7392 55.5549 8.75907 53.5814 7.06297 51.3779C6.74847 50.9693 6.88675 50.3831 7.3036 50.0796C9.12997 48.75 10.3171 46.5954 10.3171 44.1634C10.3171 40.1246 7.04296 36.8505 3.00413 36.8505C2.61638 36.8505 2.23568 36.8806 1.86425 36.9388C1.35444 37.0186 0.841783 36.7013 0.775833 36.1895C0.603669 34.8535 0.514893 33.4913 0.514893 32.1084C0.514893 30.7253 0.603702 29.3629 0.77593 28.0266C0.84189 27.5149 1.35453 27.1976 1.86432 27.2774C2.23573 27.3355 2.61641 27.3657 3.00413 27.3657C7.04296 27.3657 10.3171 24.0915 10.3171 20.0527C10.3171 17.6209 9.13011 15.4663 7.30392 14.1368C6.8871 13.8333 6.74885 13.2471 7.06335 12.8385C8.72375 10.6815 10.6563 8.74478 12.8096 7.07979Z" fill="#950E0E"/>
<path d="M36.2334 34.9847L34.2403 37.4724C31.154 35.6591 28.5816 33.0881 26.7665 30.0029L29.258 28.0097C29.55 27.776 29.7564 27.4521 29.8449 27.0887C29.9333 26.7253 29.899 26.3428 29.7472 26.001L27.4761 20.8868C27.3132 20.52 27.0254 20.223 26.6639 20.0486C26.3025 19.8743 25.8909 19.8339 25.5024 19.9347L21.1788 21.0563C20.7755 21.1617 20.4248 21.4114 20.1932 21.7581C19.9617 22.1047 19.8653 22.5243 19.9223 22.9372C20.6809 28.34 23.1779 33.3489 27.0357 37.2067C30.8934 41.0644 35.9023 43.5614 41.3051 44.3201C41.7181 44.3773 42.1377 44.2811 42.4845 44.0494C42.8312 43.8178 43.0808 43.467 43.1861 43.0635L44.3076 38.7403C44.4082 38.3519 44.3678 37.9403 44.1935 37.5789C44.0193 37.2174 43.7225 36.9295 43.356 36.7662L38.2426 34.4951C37.9007 34.3432 37.5181 34.3088 37.1546 34.3974C36.791 34.486 36.4671 34.6925 36.2334 34.9847Z" fill="white"/>
</svg>
