<svg width="64" height="64" viewBox="0 0 64 64" fill="none" xmlns="http://www.w3.org/2000/svg">
<path fill-rule="evenodd" clip-rule="evenodd" d="M12.2947 6.59053C12.7065 6.27207 13.2993 6.41514 13.6012 6.83932C14.9267 8.70208 17.1033 9.91711 19.5636 9.91711C23.6025 9.91711 26.8766 6.64299 26.8766 2.60416C26.8766 2.18202 26.8408 1.76823 26.7721 1.36566C26.6845 0.852019 27.0016 0.330422 27.5183 0.2635C28.8607 0.0896563 30.2295 0 31.6192 0C33.0092 0 34.3783 0.0896966 35.7209 0.263617C36.2377 0.330551 36.5547 0.85213 36.4671 1.36576C36.3984 1.7683 36.3627 2.18205 36.3627 2.60416C36.3627 6.64299 39.6368 9.91711 43.6756 9.91711C46.1358 9.91711 48.3123 8.70225 49.6378 6.83972C49.9397 6.41557 50.5324 6.27253 50.9443 6.59099C53.1639 8.30737 55.149 10.3125 56.8432 12.55C57.1557 12.9627 57.0102 13.5504 56.5877 13.8495C54.7166 15.174 53.4951 17.3555 53.4951 19.8224C53.4951 23.8612 56.7693 27.1354 60.8081 27.1354C61.1874 27.1354 61.56 27.1065 61.9238 27.0508C62.4359 26.9724 62.9493 27.2942 63.0111 27.8085C63.1611 29.0578 63.2383 30.3295 63.2383 31.6192C63.2383 33.0892 63.138 34.5358 62.9439 35.9525C62.8748 36.4565 62.3721 36.7695 61.8687 36.6964C61.5224 36.6461 61.1683 36.62 60.8081 36.62C56.7693 36.62 53.4951 39.8942 53.4951 43.933C53.4951 46.3001 54.6198 48.4045 56.3639 49.7411C56.7674 50.0503 56.8937 50.6282 56.5814 51.0292C54.9098 53.1759 52.9673 55.1013 50.8054 56.7541C50.4018 57.0627 49.8254 56.9315 49.5196 56.5258C48.185 54.7548 46.064 53.6097 43.6756 53.6097C39.6368 53.6097 36.3627 56.8839 36.3627 60.9227C36.3627 61.2586 36.3853 61.5891 36.4291 61.913C36.4973 62.4167 36.1799 62.916 35.6757 62.9806C34.3475 63.1507 32.9936 63.2383 31.6192 63.2383C30.2451 63.2383 28.8915 63.1507 27.5636 62.9807C27.0593 62.9161 26.7419 62.4168 26.8101 61.9131C26.8539 61.5892 26.8766 61.2586 26.8766 60.9227C26.8766 56.8839 23.6025 53.6097 19.5636 53.6097C17.175 53.6097 15.0539 54.7549 13.7193 56.5262C13.4136 56.9319 12.8372 57.0631 12.4336 56.7546C10.2243 55.0657 8.24418 53.0921 6.54808 50.8886C6.23358 50.48 6.37186 49.8938 6.78871 49.5903C8.61507 48.2608 9.80219 46.1061 9.80219 43.6741C9.80219 39.6353 6.52807 36.3612 2.48924 36.3612C2.10149 36.3612 1.72079 36.3914 1.34935 36.4495C0.839545 36.5293 0.326891 36.212 0.26094 35.7002C0.0887762 34.3642 0 33.0021 0 31.6192C0 30.236 0.0888095 28.8736 0.261037 27.5374C0.326998 27.0256 0.839635 26.7083 1.34943 26.7881C1.72084 26.8462 2.10152 26.8764 2.48924 26.8764C6.52807 26.8764 9.80219 23.6023 9.80219 19.5635C9.80219 17.1317 8.61521 14.9771 6.78903 13.6475C6.37221 13.344 6.23396 12.7578 6.54846 12.3492C8.20886 10.1922 10.1414 8.25552 12.2947 6.59053Z" fill="#AE1717"/>
<path fill-rule="evenodd" clip-rule="evenodd" d="M27.7244 19.8771C27.5615 19.6645 27.2567 19.5901 27.0461 19.7557C26.2269 20.3997 25.4876 21.1407 24.8454 21.9614C24.6819 22.1703 24.7538 22.4718 24.9627 22.6352C25.6615 23.1818 26.1107 24.0329 26.1107 24.9888C26.1107 26.6382 24.7737 27.9752 23.1244 27.9752C23.0015 27.9752 22.8803 27.9678 22.7613 27.9533C22.4978 27.9214 22.2336 28.0841 22.2017 28.3476C22.1398 28.8605 22.1079 29.3826 22.1079 29.9121C22.1079 30.4415 22.1398 30.9634 22.2017 31.4761C22.2335 31.7396 22.4977 31.9023 22.7612 31.8703C22.8802 31.8559 23.0014 31.8485 23.1244 31.8485C24.7737 31.8485 26.1107 33.1855 26.1107 34.8348C26.1107 35.7909 25.6614 36.6421 24.9624 37.1887C24.7535 37.3521 24.6816 37.6536 24.8451 37.8625C25.5028 38.7031 26.2624 39.4601 27.1053 40.1149C27.3117 40.2752 27.6082 40.207 27.7724 40.0037C28.3198 39.3258 29.1577 38.8922 30.0969 38.8922C31.7462 38.8922 33.0833 40.2293 33.0833 41.8786C33.0833 41.9813 33.0781 42.0828 33.068 42.1828C33.0416 42.443 33.2044 42.7003 33.464 42.7315C33.9741 42.7928 34.4934 42.8243 35.0201 42.8243C35.5467 42.8243 36.0661 42.7928 36.5762 42.7315C36.8359 42.7003 36.9986 42.443 36.9723 42.1828C36.9622 42.0827 36.957 41.9813 36.957 41.8786C36.957 40.2293 38.294 38.8922 39.9433 38.8922C40.8825 38.8922 41.7204 39.3258 42.2679 40.0036C42.4321 40.2069 42.7285 40.2752 42.9349 40.1148C43.7593 39.4744 44.504 38.7362 45.1516 37.9177C45.3139 37.7126 45.2481 37.4154 45.046 37.2495C44.3789 36.7018 43.9534 35.8707 43.9534 34.9403C43.9534 33.291 45.2904 31.9539 46.9397 31.9539C47.0523 31.9539 47.1634 31.9601 47.2727 31.9723C47.5328 32.0011 47.7918 31.8407 47.8253 31.5811C47.8958 31.0348 47.9322 30.4777 47.9322 29.9121C47.9322 29.4209 47.9048 28.9361 47.8514 28.4591C47.8217 28.1943 47.5571 28.0293 47.2924 28.0604C47.1768 28.074 47.0591 28.081 46.9397 28.081C45.2904 28.081 43.9534 26.744 43.9534 25.0947C43.9534 24.1245 44.416 23.2625 45.1326 22.717C45.3445 22.5557 45.42 22.2534 45.2576 22.0424C44.6009 21.1894 43.8401 20.4209 42.9941 19.7557C42.7836 19.5902 42.4787 19.6645 42.3159 19.8771C41.7701 20.5899 40.9104 21.0496 39.9433 21.0496C38.294 21.0496 36.957 19.7125 36.957 18.0632C36.957 17.9269 36.9661 17.7928 36.9838 17.6613C37.0195 17.3957 36.857 17.1269 36.5909 17.0946C36.076 17.0321 35.5518 17 35.0201 17C34.4884 17 33.9642 17.0321 33.4494 17.0946C33.1833 17.1268 33.0207 17.3956 33.0565 17.6613C33.0741 17.7927 33.0833 17.9269 33.0833 18.0632C33.0833 19.7125 31.7462 21.0496 30.0969 21.0496C29.1298 21.0496 28.2701 20.5899 27.7244 19.8771ZM35.0197 37.5525C39.2393 37.5525 42.6599 34.1319 42.6599 29.9123C42.6599 25.6927 39.2393 22.272 35.0197 22.272C30.8001 22.272 27.3794 25.6927 27.3794 29.9123C27.3794 34.1319 30.8001 37.5525 35.0197 37.5525Z" fill="white"/>
<path d="M15 33.8591C15 33.5058 15.1606 33.1716 15.4365 32.9508L25.6488 24.781C26.0737 24.4412 26.6773 24.4412 27.1021 24.781L37.3144 32.9508C37.5903 33.1716 37.7509 33.5058 37.7509 33.8591V45.7875C37.7509 46.4299 37.2302 46.9506 36.5878 46.9506H16.1632C15.5208 46.9506 15 46.4299 15 45.7875V33.8591Z" fill="white"/>
</svg>
