<svg width="64" height="64" viewBox="0 0 64 64" fill="none" xmlns="http://www.w3.org/2000/svg">
<path fill-rule="evenodd" clip-rule="evenodd" d="M12.4122 7.0793C12.8241 6.76084 13.4169 6.90391 13.7187 7.32809C15.0442 9.19085 17.2208 10.4059 19.6812 10.4059C23.72 10.4059 26.9941 7.13176 26.9941 3.09293C26.9941 2.67079 26.9584 2.257 26.8897 1.85443C26.8021 1.34079 27.1191 0.819191 27.6359 0.752269C28.9782 0.578426 30.347 0.48877 31.7367 0.48877C33.1268 0.48877 34.4958 0.578466 35.8385 0.752386C36.3552 0.819321 36.6722 1.3409 36.5846 1.85453C36.516 2.25707 36.4802 2.67082 36.4802 3.09293C36.4802 7.13176 39.7543 10.4059 43.7932 10.4059C46.2534 10.4059 48.4298 9.19102 49.7554 7.32849C50.0572 6.90434 50.65 6.7613 51.0618 7.07976C53.2815 8.79614 55.2665 10.8012 56.9607 13.0388C57.2732 13.4515 57.1277 14.0391 56.7052 14.3382C54.8341 15.6627 53.6127 17.8443 53.6127 20.3112C53.6127 24.35 56.8868 27.6241 60.9256 27.6241C61.305 27.6241 61.6776 27.5952 62.0414 27.5395C62.5534 27.4612 63.0668 27.7829 63.1286 28.2973C63.2787 29.5466 63.3559 30.8182 63.3559 32.1079C63.3559 33.578 63.2556 35.0246 63.0614 36.4413C62.9923 36.9453 62.4897 37.2583 61.9863 37.1852C61.64 37.1349 61.2859 37.1088 60.9256 37.1088C56.8868 37.1088 53.6127 40.3829 53.6127 44.4218C53.6127 46.7889 54.7373 48.8933 56.4814 50.2298C56.8849 50.539 57.0113 51.1169 56.699 51.518C55.0273 53.6647 53.0849 55.5901 50.9229 57.2429C50.5193 57.5514 49.9429 57.4203 49.6372 57.0146C48.3026 55.2435 46.1816 54.0985 43.7932 54.0985C39.7543 54.0985 36.4802 57.3726 36.4802 61.4115C36.4802 61.7473 36.5029 62.0779 36.5467 62.4017C36.6149 62.9055 36.2975 63.4048 35.7932 63.4693C34.4651 63.6394 33.1111 63.7271 31.7367 63.7271C30.3626 63.7271 29.009 63.6395 27.6811 63.4694C27.1769 63.4049 26.8594 62.9056 26.9276 62.4018C26.9715 62.078 26.9941 61.7474 26.9941 61.4115C26.9941 57.3726 23.72 54.0985 19.6812 54.0985C17.2926 54.0985 15.1714 55.2437 13.8369 57.015C13.5311 57.4207 12.9547 57.5519 12.5511 57.2434C10.3418 55.5545 8.36174 53.5809 6.66563 51.3774C6.35113 50.9688 6.48941 50.3826 6.90626 50.0791C8.73263 48.7495 9.91974 46.5949 9.91974 44.1629C9.91974 40.1241 6.64562 36.85 2.60679 36.85C2.21904 36.85 1.83834 36.8801 1.46691 36.9383C0.957098 37.0181 0.444444 36.7008 0.378494 36.189C0.20633 34.853 0.117554 33.4908 0.117554 32.1079C0.117554 30.7248 0.206363 29.3624 0.378591 28.0261C0.444552 27.5144 0.957189 27.1971 1.46699 27.2769C1.83839 27.335 2.21907 27.3652 2.60679 27.3652C6.64562 27.3652 9.91974 24.0911 9.91974 20.0522C9.91974 17.6204 8.73277 15.4659 6.90659 14.1363C6.48976 13.8328 6.35151 13.2466 6.66601 12.838C8.32641 10.681 10.2589 8.74429 12.4122 7.0793Z" fill="#950E0E"/>
<path d="M31.7367 17.2119L21.345 26.2119V39.9954H28.3958V31.5518H35.0758V39.9954H42.1284V26.2119L31.7367 17.2119Z" fill="white"/>
</svg>
