<svg width="65" height="64" viewBox="0 0 65 64" fill="none" xmlns="http://www.w3.org/2000/svg">
<path fill-rule="evenodd" clip-rule="evenodd" d="M13.0877 7.31905C13.4995 7.00059 14.0923 7.14365 14.3941 7.56784C15.7196 9.4306 17.8962 10.6456 20.3566 10.6456C24.3954 10.6456 27.6695 7.3715 27.6695 3.33268C27.6695 2.91053 27.6338 2.49675 27.5651 2.09418C27.4775 1.58053 27.7945 1.05894 28.3113 0.992016C29.6536 0.818172 31.0224 0.728516 32.4121 0.728516C33.8022 0.728516 35.1712 0.818212 36.5139 0.992132C37.0306 1.05907 37.3477 1.58065 37.2601 2.09428C37.1914 2.49681 37.1556 2.91057 37.1556 3.33268C37.1556 7.3715 40.4297 10.6456 44.4686 10.6456C46.9288 10.6456 49.1052 9.43077 50.4308 7.56823C50.7326 7.14408 51.3254 7.00105 51.7372 7.31951C53.9569 9.03589 55.9419 11.041 57.6361 13.2785C57.9486 13.6912 57.8032 14.2789 57.3806 14.578C55.5096 15.9025 54.2881 18.0841 54.2881 20.5509C54.2881 24.5897 57.5622 27.8639 61.6011 27.8639C61.9804 27.8639 62.353 27.835 62.7168 27.7793C63.2289 27.7009 63.7423 28.0227 63.804 28.537C63.9541 29.7863 64.0313 31.058 64.0313 32.3477C64.0313 33.8177 63.931 35.2643 63.7368 36.681C63.6678 37.1851 63.1651 37.4981 62.6617 37.4249C62.3154 37.3746 61.9613 37.3486 61.6011 37.3486C57.5622 37.3486 54.2881 40.6227 54.2881 44.6615C54.2881 47.0286 55.4128 49.133 57.1569 50.4696C57.5603 50.7788 57.6867 51.3567 57.3744 51.7577C55.7028 53.9044 53.7603 55.8299 51.5983 57.4827C51.1947 57.7912 50.6183 57.66 50.3126 57.2543C48.978 55.4833 46.857 54.3383 44.4686 54.3383C40.4297 54.3383 37.1556 57.6124 37.1556 61.6512C37.1556 61.9871 37.1783 62.3176 37.2221 62.6415C37.2903 63.1453 36.9729 63.6445 36.4686 63.7091C35.1405 63.8792 33.7865 63.9669 32.4121 63.9669C31.038 63.9669 29.6844 63.8792 28.3566 63.7092C27.8523 63.6446 27.5348 63.1454 27.6031 62.6416C27.6469 62.3177 27.6695 61.9871 27.6695 61.6512C27.6695 57.6124 24.3954 54.3383 20.3566 54.3383C17.968 54.3383 15.8469 55.4834 14.5123 57.2547C14.2066 57.6605 13.6301 57.7916 13.2265 57.4831C11.0172 55.7942 9.03715 53.8206 7.34105 51.6171C7.02655 51.2086 7.16483 50.6223 7.58168 50.3189C9.40804 48.9893 10.5952 46.8346 10.5952 44.4027C10.5952 40.3638 7.32104 37.0897 3.28221 37.0897C2.89446 37.0897 2.51376 37.1199 2.14232 37.178C1.63251 37.2578 1.11986 36.9405 1.05391 36.4287C0.881745 35.0927 0.792969 33.7306 0.792969 32.3477C0.792969 30.9645 0.881778 29.6021 1.05401 28.2659C1.11997 27.7541 1.6326 27.4368 2.1424 27.5166C2.51381 27.5747 2.89448 27.6049 3.28221 27.6049C7.32104 27.6049 10.5952 24.3308 10.5952 20.292C10.5952 17.8602 9.40818 15.7056 7.582 14.376C7.16518 14.0725 7.02692 13.4863 7.34142 13.0777C9.00183 10.9207 10.9344 8.98404 13.0877 7.31905Z" fill="#AE1717"/>
<path d="M24.4092 28.7858C24.4092 28.6603 24.4662 28.5416 24.5642 28.4632L35.648 19.5961C35.7989 19.4754 36.0133 19.4754 36.1642 19.5961L47.248 28.4632C47.346 28.5416 47.403 28.6603 47.403 28.7858V41.7599C47.403 41.9881 47.2181 42.1731 46.9899 42.1731H24.8223C24.5942 42.1731 24.4092 41.9881 24.4092 41.7599V28.7858Z" stroke="white" stroke-width="1.5"/>
<path d="M16.6399 30.6351C16.1861 30.9982 15.9219 31.5479 15.9219 32.129V45.1032C15.9219 46.1598 16.7784 47.0163 17.835 47.0163H40.0026C41.0592 47.0163 41.9157 46.1598 41.9157 45.1032V32.129C41.9157 31.5479 41.6515 30.9982 41.1977 30.6351L30.1139 21.7681C29.4152 21.2091 28.4224 21.2091 27.7237 21.7681L16.6399 30.6351Z" fill="white" stroke="#AE1717" stroke-width="1.5"/>
</svg>
