<svg width="65" height="65" viewBox="0 0 65 65" fill="none" xmlns="http://www.w3.org/2000/svg">
<path fill-rule="evenodd" clip-rule="evenodd" d="M13.2727 7.36251C13.6846 7.04405 14.2773 7.18711 14.5792 7.6113C15.9047 9.47405 18.0813 10.6891 20.5417 10.6891C24.5805 10.6891 27.8546 7.41496 27.8546 3.37613C27.8546 2.95399 27.8188 2.5402 27.7502 2.13764C27.6625 1.62399 27.9796 1.10239 28.4963 1.03547C29.8387 0.861629 31.2075 0.771973 32.5972 0.771973C33.9872 0.771973 35.3563 0.861669 36.699 1.03559C37.2157 1.10252 37.5327 1.6241 37.4451 2.13773C37.3765 2.54027 37.3407 2.95402 37.3407 3.37613C37.3407 7.41496 40.6148 10.6891 44.6536 10.6891C47.1138 10.6891 49.2903 9.47423 50.6158 7.61169C50.9177 7.18754 51.5104 7.04451 51.9223 7.36297C54.1419 9.07935 56.127 11.0844 57.8212 13.322C58.1337 13.7347 57.9882 14.3223 57.5657 14.6214C55.6946 15.9459 54.4732 18.1275 54.4732 20.5944C54.4732 24.6332 57.7473 27.9073 61.7861 27.9073C62.1655 27.9073 62.5381 27.8784 62.9018 27.8228C63.4139 27.7444 63.9273 28.0661 63.9891 28.5805C64.1392 29.8298 64.2164 31.1014 64.2164 32.3911C64.2164 33.8612 64.1161 35.3078 63.9219 36.7245C63.8528 37.2285 63.3502 37.5415 62.8467 37.4684C62.5005 37.4181 62.1463 37.392 61.7861 37.392C57.7473 37.392 54.4732 40.6661 54.4732 44.705C54.4732 47.0721 55.5978 49.1765 57.3419 50.513C57.7454 50.8222 57.8717 51.4001 57.5594 51.8012C55.8878 53.9479 53.9454 55.8733 51.7834 57.5261C51.3798 57.8347 50.8034 57.7035 50.4977 57.2978C49.1631 55.5267 47.0421 54.3817 44.6536 54.3817C40.6148 54.3817 37.3407 57.6558 37.3407 61.6947C37.3407 62.0305 37.3633 62.3611 37.4072 62.6849C37.4754 63.1887 37.1579 63.688 36.6537 63.7525C35.3255 63.9226 33.9716 64.0103 32.5972 64.0103C31.2231 64.0103 29.8695 63.9227 28.5416 63.7527C28.0374 63.6881 27.7199 63.1888 27.7881 62.685C27.832 62.3612 27.8546 62.0306 27.8546 61.6947C27.8546 57.6558 24.5805 54.3817 20.5417 54.3817C18.1531 54.3817 16.0319 55.5269 14.6973 57.2982C14.3916 57.7039 13.8152 57.8351 13.4116 57.5266C11.2023 55.8377 9.22221 53.8641 7.5261 51.6606C7.2116 51.252 7.34989 50.6658 7.76674 50.3623C9.5931 49.0327 10.7802 46.8781 10.7802 44.4461C10.7802 40.4073 7.50609 37.1332 3.46727 37.1332C3.07952 37.1332 2.69881 37.1634 2.32738 37.2215C1.81757 37.3013 1.30492 36.984 1.23897 36.4722C1.0668 35.1362 0.978027 33.774 0.978027 32.3911C0.978027 31.008 1.06684 29.6456 1.23906 28.3093C1.30503 27.7976 1.81766 27.4803 2.32746 27.5601C2.69887 27.6182 3.07954 27.6484 3.46727 27.6484C7.50609 27.6484 10.7802 24.3743 10.7802 20.3354C10.7802 17.9036 9.59324 15.7491 7.76706 14.4195C7.35024 14.116 7.21198 13.5298 7.52648 13.1212C9.18688 10.9642 11.1194 9.0275 13.2727 7.36251Z" fill="#AE1717"/>
<path d="M32.5973 49.9604L19.2422 32.9045H25.9198V14.8212H39.2749V32.9045H45.9525L32.5973 49.9604Z" stroke="white" stroke-width="1.5"/>
<path d="M35.2183 33.4149C35.2183 33.8139 35.1147 34.19 34.9075 34.5429C34.708 34.8883 34.4088 35.176 34.0097 35.4062C33.6184 35.6288 33.1541 35.7592 32.617 35.7976V36.7299H31.8803V35.7861C31.1129 35.717 30.4952 35.4868 30.0271 35.0954C29.559 34.6964 29.3173 34.1593 29.3019 33.484H31.0285C31.0746 34.0365 31.3585 34.3703 31.8803 34.4854V32.2869C31.3278 32.1488 30.8827 32.0106 30.5451 31.8725C30.2074 31.7344 29.9158 31.5119 29.6703 31.2049C29.4247 30.898 29.3019 30.4798 29.3019 29.9503C29.3019 29.2827 29.5398 28.7378 30.0156 28.3158C30.499 27.8937 31.1206 27.652 31.8803 27.5906V26.6583H32.617V27.5906C33.3536 27.652 33.9407 27.8746 34.3781 28.2582C34.8231 28.6419 35.0725 29.1714 35.1262 29.8467H33.3882C33.3651 29.6241 33.2846 29.4323 33.1464 29.2712C33.016 29.1023 32.8395 28.9834 32.617 28.9143V31.0898C33.1925 31.2356 33.6452 31.3776 33.9752 31.5157C34.3128 31.6461 34.6044 31.8648 34.85 32.1718C35.0955 32.4711 35.2183 32.8854 35.2183 33.4149ZM30.9825 29.8697C30.9825 30.1229 31.0592 30.3301 31.2127 30.4913C31.3662 30.6447 31.5887 30.7713 31.8803 30.8711V28.8798C31.604 28.9182 31.3853 29.0218 31.2242 29.1906C31.063 29.3594 30.9825 29.5858 30.9825 29.8697ZM32.617 34.5084C32.9086 34.4547 33.1349 34.3358 33.2961 34.1516C33.4649 33.9674 33.5493 33.7449 33.5493 33.484C33.5493 33.2307 33.4687 33.0274 33.3076 32.8739C33.1464 32.7205 32.9162 32.5938 32.617 32.4941V34.5084Z" fill="white"/>
</svg>
