<svg width="64" height="64" viewBox="0 0 64 64" fill="none" xmlns="http://www.w3.org/2000/svg">
<path fill-rule="evenodd" clip-rule="evenodd" d="M12.6427 7.09053C13.0546 6.77207 13.6473 6.91514 13.9492 7.33932C15.2747 9.20208 17.4513 10.4171 19.9117 10.4171C23.9505 10.4171 27.2246 7.14299 27.2246 3.10416C27.2246 2.68202 27.1888 2.26823 27.1202 1.86566C27.0325 1.35202 27.3496 0.830422 27.8663 0.7635C29.2087 0.589656 30.5775 0.5 31.9672 0.5C33.3572 0.5 34.7263 0.589697 36.069 0.763617C36.5857 0.830551 36.9027 1.35213 36.8151 1.86576C36.7464 2.2683 36.7107 2.68205 36.7107 3.10416C36.7107 7.14299 39.9848 10.4171 44.0236 10.4171C46.4838 10.4171 48.6603 9.20225 49.9858 7.33972C50.2877 6.91557 50.8804 6.77253 51.2923 7.09099C53.5119 8.80737 55.497 10.8125 57.1912 13.05C57.5037 13.4627 57.3582 14.0504 56.9357 14.3495C55.0646 15.674 53.8432 17.8555 53.8432 20.3224C53.8432 24.3612 57.1173 27.6354 61.1561 27.6354C61.5355 27.6354 61.9081 27.6065 62.2718 27.5508C62.7839 27.4724 63.2973 27.7942 63.3591 28.3085C63.5092 29.5578 63.5864 30.8295 63.5864 32.1192C63.5864 33.5892 63.486 35.0358 63.2919 36.4525C63.2228 36.9565 62.7202 37.2695 62.2167 37.1964C61.8705 37.1461 61.5163 37.12 61.1561 37.12C57.1173 37.12 53.8432 40.3942 53.8432 44.433C53.8432 46.8001 54.9678 48.9045 56.7119 50.2411C57.1154 50.5503 57.2417 51.1282 56.9294 51.5292C55.2578 53.6759 53.3154 55.6013 51.1534 57.2541C50.7498 57.5627 50.1734 57.4315 49.8677 57.0258C48.5331 55.2548 46.4121 54.1097 44.0236 54.1097C39.9848 54.1097 36.7107 57.3839 36.7107 61.4227C36.7107 61.7586 36.7333 62.0891 36.7772 62.413C36.8454 62.9167 36.5279 63.416 36.0237 63.4806C34.6955 63.6507 33.3416 63.7383 31.9672 63.7383C30.5931 63.7383 29.2395 63.6507 27.9116 63.4807C27.4073 63.4161 27.0899 62.9168 27.1581 62.4131C27.202 62.0892 27.2246 61.7586 27.2246 61.4227C27.2246 57.3839 23.9505 54.1097 19.9117 54.1097C17.523 54.1097 15.4019 55.2549 14.0673 57.0262C13.7616 57.4319 13.1852 57.5631 12.7816 57.2546C10.5723 55.5657 8.5922 53.5921 6.8961 51.3886C6.5816 50.98 6.71988 50.3938 7.13673 50.0903C8.9631 48.7608 10.1502 46.6061 10.1502 44.1741C10.1502 40.1353 6.87609 36.8612 2.83726 36.8612C2.44951 36.8612 2.06881 36.8914 1.69738 36.9495C1.18757 37.0293 0.674913 36.712 0.608963 36.2002C0.436799 34.8642 0.348022 33.5021 0.348022 32.1192C0.348022 30.736 0.436832 29.3736 0.60906 28.0374C0.67502 27.5256 1.18766 27.2083 1.69745 27.2881C2.06886 27.3462 2.44954 27.3764 2.83726 27.3764C6.87609 27.3764 10.1502 24.1023 10.1502 20.0635C10.1502 17.6317 8.96324 15.4771 7.13705 14.1475C6.72023 13.844 6.58198 13.2578 6.89648 12.8492C8.55688 10.6922 10.4894 8.75552 12.6427 7.09053Z" fill="#AE1717"/>
<path fill-rule="evenodd" clip-rule="evenodd" d="M38.6235 21.3343C38.3962 21.3791 38.1611 21.4027 37.9206 21.4027C35.9262 21.4027 34.3094 19.7859 34.3094 17.7915C34.3094 17.6267 34.3205 17.4645 34.3419 17.3055C34.3851 16.9843 34.1885 16.6593 33.8667 16.6202C33.2441 16.5447 32.6102 16.5059 31.9673 16.5059C31.3243 16.5059 30.6905 16.5447 30.068 16.6202C29.7462 16.6592 29.5496 16.9843 29.5928 17.3055C29.6142 17.4645 29.6253 17.6267 29.6253 17.7915C29.6253 19.7859 28.0085 21.4027 26.0141 21.4027C24.8447 21.4027 23.8051 20.8468 23.1452 19.9849C22.9483 19.7278 22.5796 19.6379 22.325 19.8381C21.3345 20.6168 20.4404 21.5129 19.6638 22.5053C19.4662 22.7579 19.5531 23.1225 19.8057 23.3201C20.6507 23.981 21.1939 25.0101 21.1939 26.1661C21.1939 28.1605 19.5771 29.7773 17.5828 29.7773C17.4341 29.7773 17.2876 29.7683 17.1437 29.7508C16.825 29.7122 16.5056 29.9089 16.4671 30.2276C16.3922 30.8478 16.3536 31.4791 16.3536 32.1195C16.3536 32.7596 16.3922 33.3907 16.467 34.0106C16.5055 34.3293 16.825 34.526 17.1436 34.4874C17.2876 34.4699 17.4341 34.4609 17.5828 34.4609C19.5771 34.4609 21.1939 36.0777 21.1939 38.0721C21.1939 39.2282 20.6506 40.2574 19.8054 40.9184C19.5527 41.116 19.4658 41.4806 19.6635 41.7332C20.4588 42.7496 21.3773 43.665 22.3966 44.4568C22.6462 44.6507 23.0046 44.5682 23.2032 44.3223C23.8652 43.5026 24.8784 42.9784 26.0141 42.9784C28.0085 42.9784 29.6253 44.5951 29.6253 46.5895C29.6253 46.7137 29.619 46.8364 29.6067 46.9574C29.5749 47.272 29.7717 47.5832 30.0857 47.6209C30.7025 47.695 31.3304 47.7331 31.9673 47.7331C32.6041 47.7331 33.2321 47.695 33.849 47.6209C34.163 47.5831 34.3598 47.272 34.328 46.9574C34.3157 46.8364 34.3094 46.7137 34.3094 46.5895C34.3094 44.5951 35.9262 42.9784 37.9206 42.9784C39.0562 42.9784 40.0695 43.5026 40.7314 44.3223C40.93 44.5681 41.2885 44.6506 41.538 44.4568C42.5349 43.6823 43.4354 42.7897 44.2185 41.8C44.4147 41.552 44.3352 41.1926 44.0908 40.9919C43.2842 40.3296 42.7696 39.3247 42.7696 38.1996C42.7696 36.2052 44.3864 34.5884 46.3808 34.5884C46.5169 34.5884 46.6512 34.596 46.7833 34.6106C47.0979 34.6455 47.4111 34.4515 47.4517 34.1376C47.5369 33.477 47.5809 32.8034 47.5809 32.1195C47.5809 31.5255 47.5477 30.9392 47.4831 30.3624C47.4473 30.0422 47.1273 29.8426 46.8072 29.8803C46.6674 29.8968 46.5251 29.9052 46.3808 29.9052C44.3864 29.9052 42.7696 28.2885 42.7696 26.2941C42.7696 26.1992 42.7733 26.1051 42.7805 26.0121H38.8989C40.3345 27.6403 41.2055 29.7783 41.2055 32.1196C41.2055 37.2221 37.0692 41.3584 31.9668 41.3584C26.8644 41.3584 22.728 37.2221 22.728 32.1196C22.728 27.0172 26.8644 22.8809 31.9668 22.8809C34.5817 22.8809 36.9428 23.9672 38.6235 25.7132V21.3343Z" fill="white"/>
<path d="M37.6308 34.444L39.6301 34.4073C39.6301 31.7533 40.2729 29.8049 41.4911 28.5198C42.7 27.2446 44.6338 26.4566 47.5808 26.4566L47.5808 25.4566L47.5808 24.4566C44.3169 24.4566 42.4139 23.7045 41.296 22.4904C40.162 21.2589 39.6301 19.3338 39.6301 16.5059H38.6301H37.6301C37.6301 19.3048 37.0304 21.2381 35.8538 22.4801C34.6875 23.7113 32.7688 24.4566 29.6794 24.4566L29.6794 25.4566L29.6794 26.4566C32.6826 26.4566 34.5467 27.1579 35.7068 28.3677C36.8825 29.5937 37.524 31.5354 37.6308 34.444Z" fill="white" stroke="#AE1717" stroke-width="2"/>
</svg>
