<svg width="475" height="183" viewBox="0 0 475 183" fill="none" xmlns="http://www.w3.org/2000/svg">
<path opacity="0.7" d="M27 27.6198C27 22.8592 30.0858 19 33.8923 19H468.108C471.914 19 475 22.8592 475 27.6198V174.38C475 179.141 471.914 183 468.108 183H33.8923C30.0858 183 27 179.141 27 174.38V27.6198Z" fill="#950E0E"/>
<path d="M338.415 168L332.675 161.64V168H330.855V154.06H332.675V160.52L338.435 154.06H340.735L334.415 161.04L340.795 168H338.415ZM346.648 155.54V160.2H351.728V161.7H346.648V166.5H352.328V168H344.828V154.04H352.328V155.54H346.648ZM368.042 168H366.222L358.902 156.9V168H357.082V154.04H358.902L366.222 165.12V154.04H368.042V168ZM387.456 160.82C387.963 160.9 388.423 161.107 388.836 161.44C389.263 161.773 389.596 162.187 389.836 162.68C390.09 163.173 390.216 163.7 390.216 164.26C390.216 164.967 390.036 165.607 389.676 166.18C389.316 166.74 388.79 167.187 388.096 167.52C387.416 167.84 386.61 168 385.676 168H380.476V154.06H385.476C386.423 154.06 387.23 154.22 387.896 154.54C388.563 154.847 389.063 155.267 389.396 155.8C389.73 156.333 389.896 156.933 389.896 157.6C389.896 158.427 389.67 159.113 389.216 159.66C388.776 160.193 388.19 160.58 387.456 160.82ZM382.296 160.08H385.356C386.21 160.08 386.87 159.88 387.336 159.48C387.803 159.08 388.036 158.527 388.036 157.82C388.036 157.113 387.803 156.56 387.336 156.16C386.87 155.76 386.196 155.56 385.316 155.56H382.296V160.08ZM385.516 166.5C386.423 166.5 387.13 166.287 387.636 165.86C388.143 165.433 388.396 164.84 388.396 164.08C388.396 163.307 388.13 162.7 387.596 162.26C387.063 161.807 386.35 161.58 385.456 161.58H382.296V166.5H385.516ZM402.082 168L398.762 162.3H396.562V168H394.742V154.06H399.242C400.295 154.06 401.182 154.24 401.902 154.6C402.635 154.96 403.182 155.447 403.542 156.06C403.902 156.673 404.082 157.373 404.082 158.16C404.082 159.12 403.802 159.967 403.242 160.7C402.695 161.433 401.869 161.92 400.762 162.16L404.262 168H402.082ZM396.562 160.84H399.242C400.229 160.84 400.969 160.6 401.462 160.12C401.955 159.627 402.202 158.973 402.202 158.16C402.202 157.333 401.955 156.693 401.462 156.24C400.982 155.787 400.242 155.56 399.242 155.56H396.562V160.84ZM415.23 168.14C413.937 168.14 412.757 167.84 411.69 167.24C410.623 166.627 409.777 165.78 409.15 164.7C408.537 163.607 408.23 162.38 408.23 161.02C408.23 159.66 408.537 158.44 409.15 157.36C409.777 156.267 410.623 155.42 411.69 154.82C412.757 154.207 413.937 153.9 415.23 153.9C416.537 153.9 417.723 154.207 418.79 154.82C419.857 155.42 420.697 156.26 421.31 157.34C421.923 158.42 422.23 159.647 422.23 161.02C422.23 162.393 421.923 163.62 421.31 164.7C420.697 165.78 419.857 166.627 418.79 167.24C417.723 167.84 416.537 168.14 415.23 168.14ZM415.23 166.56C416.203 166.56 417.077 166.333 417.85 165.88C418.637 165.427 419.25 164.78 419.69 163.94C420.143 163.1 420.37 162.127 420.37 161.02C420.37 159.9 420.143 158.927 419.69 158.1C419.25 157.26 418.643 156.613 417.87 156.16C417.097 155.707 416.217 155.48 415.23 155.48C414.243 155.48 413.363 155.707 412.59 156.16C411.817 156.613 411.203 157.26 410.75 158.1C410.31 158.927 410.09 159.9 410.09 161.02C410.09 162.127 410.31 163.1 410.75 163.94C411.203 164.78 411.817 165.427 412.59 165.88C413.377 166.333 414.257 166.56 415.23 166.56ZM444.153 154.06L440.113 168H438.073L434.833 156.78L431.473 168L429.453 168.02L425.553 154.06H427.493L430.533 165.88L433.893 154.06H435.933L439.133 165.84L442.193 154.06H444.153ZM459.104 168H457.284L449.964 156.9V168H448.144V154.04H449.964L457.284 165.12V154.04H459.104V168Z" fill="white" fill-opacity="0.5"/>
<path d="M83.1271 48.848V60H81.6711V54.944H75.9911V60H74.5351V48.848H75.9911V53.744H81.6711V48.848H83.1271ZM91.0372 60.144C90.2159 60.144 89.4692 59.9573 88.7972 59.584C88.1359 59.2107 87.6132 58.6827 87.2292 58C86.8559 57.3067 86.6692 56.5067 86.6692 55.6C86.6692 54.704 86.8612 53.9147 87.2452 53.232C87.6399 52.5387 88.1732 52.0107 88.8452 51.648C89.5172 51.2747 90.2692 51.088 91.1012 51.088C91.9332 51.088 92.6852 51.2747 93.3572 51.648C94.0292 52.0107 94.5572 52.5333 94.9412 53.216C95.3359 53.8987 95.5332 54.6933 95.5332 55.6C95.5332 56.5067 95.3305 57.3067 94.9252 58C94.5305 58.6827 93.9919 59.2107 93.3092 59.584C92.6265 59.9573 91.8692 60.144 91.0372 60.144ZM91.0372 58.864C91.5599 58.864 92.0505 58.7413 92.5092 58.496C92.9679 58.2507 93.3359 57.8827 93.6132 57.392C93.9012 56.9013 94.0452 56.304 94.0452 55.6C94.0452 54.896 93.9065 54.2987 93.6292 53.808C93.3519 53.3173 92.9892 52.9547 92.5412 52.72C92.0932 52.4747 91.6079 52.352 91.0852 52.352C90.5519 52.352 90.0612 52.4747 89.6132 52.72C89.1759 52.9547 88.8239 53.3173 88.5572 53.808C88.2905 54.2987 88.1572 54.896 88.1572 55.6C88.1572 56.3147 88.2852 56.9173 88.5412 57.408C88.8079 57.8987 89.1599 58.2667 89.5972 58.512C90.0345 58.7467 90.5145 58.864 91.0372 58.864ZM103.32 51.072C104.386 51.072 105.25 51.3973 105.912 52.048C106.573 52.688 106.904 53.616 106.904 54.832V60H105.464V55.04C105.464 54.1653 105.245 53.4987 104.808 53.04C104.37 52.5707 103.773 52.336 103.016 52.336C102.248 52.336 101.634 52.576 101.176 53.056C100.728 53.536 100.504 54.2347 100.504 55.152V60H99.0476V51.232H100.504V52.48C100.792 52.032 101.181 51.6853 101.672 51.44C102.173 51.1947 102.722 51.072 103.32 51.072ZM118.882 55.28C118.882 55.5573 118.866 55.8507 118.834 56.16H111.826C111.879 57.024 112.173 57.7013 112.706 58.192C113.25 58.672 113.906 58.912 114.674 58.912C115.303 58.912 115.826 58.768 116.242 58.48C116.669 58.1813 116.967 57.7867 117.138 57.296H118.706C118.471 58.1387 118.002 58.8267 117.298 59.36C116.594 59.8827 115.719 60.144 114.674 60.144C113.842 60.144 113.095 59.9573 112.434 59.584C111.783 59.2107 111.271 58.6827 110.898 58C110.525 57.3067 110.338 56.5067 110.338 55.6C110.338 54.6933 110.519 53.8987 110.882 53.216C111.245 52.5333 111.751 52.0107 112.402 51.648C113.063 51.2747 113.821 51.088 114.674 51.088C115.506 51.088 116.242 51.2693 116.882 51.632C117.522 51.9947 118.013 52.496 118.354 53.136C118.706 53.7653 118.882 54.48 118.882 55.28ZM117.378 54.976C117.378 54.4213 117.255 53.9467 117.01 53.552C116.765 53.1467 116.429 52.8427 116.002 52.64C115.586 52.4267 115.122 52.32 114.61 52.32C113.874 52.32 113.245 52.5547 112.722 53.024C112.21 53.4933 111.917 54.144 111.842 54.976H117.378ZM125.508 60.144C124.836 60.144 124.233 60.032 123.7 59.808C123.167 59.5733 122.745 59.2533 122.436 58.848C122.127 58.432 121.956 57.9573 121.924 57.424H123.428C123.471 57.8613 123.673 58.2187 124.036 58.496C124.409 58.7733 124.895 58.912 125.492 58.912C126.047 58.912 126.484 58.7893 126.804 58.544C127.124 58.2987 127.284 57.9893 127.284 57.616C127.284 57.232 127.113 56.9493 126.772 56.768C126.431 56.576 125.903 56.3893 125.188 56.208C124.537 56.0373 124.004 55.8667 123.588 55.696C123.183 55.5147 122.831 55.2533 122.532 54.912C122.244 54.56 122.1 54.1013 122.1 53.536C122.1 53.088 122.233 52.6773 122.5 52.304C122.767 51.9307 123.145 51.6373 123.636 51.424C124.127 51.2 124.687 51.088 125.316 51.088C126.287 51.088 127.071 51.3333 127.668 51.824C128.265 52.3147 128.585 52.9867 128.628 53.84H127.172C127.14 53.3813 126.953 53.0133 126.612 52.736C126.281 52.4587 125.833 52.32 125.268 52.32C124.745 52.32 124.329 52.432 124.02 52.656C123.711 52.88 123.556 53.1733 123.556 53.536C123.556 53.824 123.647 54.064 123.828 54.256C124.02 54.4373 124.255 54.5867 124.532 54.704C124.82 54.8107 125.215 54.9333 125.716 55.072C126.345 55.2427 126.857 55.4133 127.252 55.584C127.647 55.744 127.983 55.9893 128.26 56.32C128.548 56.6507 128.697 57.0827 128.708 57.616C128.708 58.096 128.575 58.528 128.308 58.912C128.041 59.296 127.663 59.6 127.172 59.824C126.692 60.0373 126.137 60.144 125.508 60.144ZM134.139 52.432V57.6C134.139 58.0267 134.23 58.3307 134.411 58.512C134.593 58.6827 134.907 58.768 135.355 58.768H136.427V60H135.115C134.305 60 133.697 59.8133 133.291 59.44C132.886 59.0667 132.683 58.4533 132.683 57.6V52.432H131.547V51.232H132.683V49.024H134.139V51.232H136.427V52.432H134.139ZM148.761 60.144C148.089 60.144 147.486 60.032 146.953 59.808C146.42 59.5733 145.998 59.2533 145.689 58.848C145.38 58.432 145.209 57.9573 145.177 57.424H146.681C146.724 57.8613 146.926 58.2187 147.289 58.496C147.662 58.7733 148.148 58.912 148.745 58.912C149.3 58.912 149.737 58.7893 150.057 58.544C150.377 58.2987 150.537 57.9893 150.537 57.616C150.537 57.232 150.366 56.9493 150.025 56.768C149.684 56.576 149.156 56.3893 148.441 56.208C147.79 56.0373 147.257 55.8667 146.841 55.696C146.436 55.5147 146.084 55.2533 145.785 54.912C145.497 54.56 145.353 54.1013 145.353 53.536C145.353 53.088 145.486 52.6773 145.753 52.304C146.02 51.9307 146.398 51.6373 146.889 51.424C147.38 51.2 147.94 51.088 148.569 51.088C149.54 51.088 150.324 51.3333 150.921 51.824C151.518 52.3147 151.838 52.9867 151.881 53.84H150.425C150.393 53.3813 150.206 53.0133 149.865 52.736C149.534 52.4587 149.086 52.32 148.521 52.32C147.998 52.32 147.582 52.432 147.273 52.656C146.964 52.88 146.809 53.1733 146.809 53.536C146.809 53.824 146.9 54.064 147.081 54.256C147.273 54.4373 147.508 54.5867 147.785 54.704C148.073 54.8107 148.468 54.9333 148.969 55.072C149.598 55.2427 150.11 55.4133 150.505 55.584C150.9 55.744 151.236 55.9893 151.513 56.32C151.801 56.6507 151.95 57.0827 151.961 57.616C151.961 58.096 151.828 58.528 151.561 58.912C151.294 59.296 150.916 59.6 150.425 59.824C149.945 60.0373 149.39 60.144 148.761 60.144ZM163.616 55.28C163.616 55.5573 163.6 55.8507 163.568 56.16H156.56C156.614 57.024 156.907 57.7013 157.44 58.192C157.984 58.672 158.64 58.912 159.408 58.912C160.038 58.912 160.56 58.768 160.976 58.48C161.403 58.1813 161.702 57.7867 161.872 57.296H163.44C163.206 58.1387 162.736 58.8267 162.032 59.36C161.328 59.8827 160.454 60.144 159.408 60.144C158.576 60.144 157.83 59.9573 157.168 59.584C156.518 59.2107 156.006 58.6827 155.632 58C155.259 57.3067 155.072 56.5067 155.072 55.6C155.072 54.6933 155.254 53.8987 155.616 53.216C155.979 52.5333 156.486 52.0107 157.136 51.648C157.798 51.2747 158.555 51.088 159.408 51.088C160.24 51.088 160.976 51.2693 161.616 51.632C162.256 51.9947 162.747 52.496 163.088 53.136C163.44 53.7653 163.616 54.48 163.616 55.28ZM162.112 54.976C162.112 54.4213 161.99 53.9467 161.744 53.552C161.499 53.1467 161.163 52.8427 160.736 52.64C160.32 52.4267 159.856 52.32 159.344 52.32C158.608 52.32 157.979 52.5547 157.456 53.024C156.944 53.4933 156.651 54.144 156.576 54.976H162.112ZM168.594 52.656C168.85 52.1547 169.213 51.7653 169.682 51.488C170.162 51.2107 170.744 51.072 171.426 51.072V52.576H171.042C169.41 52.576 168.594 53.4613 168.594 55.232V60H167.138V51.232H168.594V52.656ZM177.971 58.656L180.691 51.232H182.243L178.803 60H177.107L173.667 51.232H175.235L177.971 58.656ZM186.028 49.808C185.75 49.808 185.516 49.712 185.324 49.52C185.132 49.328 185.036 49.0933 185.036 48.816C185.036 48.5387 185.132 48.304 185.324 48.112C185.516 47.92 185.75 47.824 186.028 47.824C186.294 47.824 186.518 47.92 186.7 48.112C186.892 48.304 186.988 48.5387 186.988 48.816C186.988 49.0933 186.892 49.328 186.7 49.52C186.518 49.712 186.294 49.808 186.028 49.808ZM186.732 51.232V60H185.276V51.232H186.732ZM190.269 55.6C190.269 54.6933 190.451 53.904 190.813 53.232C191.176 52.5493 191.677 52.0213 192.317 51.648C192.968 51.2747 193.709 51.088 194.541 51.088C195.619 51.088 196.504 51.3493 197.197 51.872C197.901 52.3947 198.365 53.12 198.589 54.048H197.021C196.872 53.5147 196.579 53.0933 196.141 52.784C195.715 52.4747 195.181 52.32 194.541 52.32C193.709 52.32 193.037 52.608 192.525 53.184C192.013 53.7493 191.757 54.5547 191.757 55.6C191.757 56.656 192.013 57.472 192.525 58.048C193.037 58.624 193.709 58.912 194.541 58.912C195.181 58.912 195.715 58.7627 196.141 58.464C196.568 58.1653 196.861 57.7387 197.021 57.184H198.589C198.355 58.08 197.885 58.8 197.181 59.344C196.477 59.8773 195.597 60.144 194.541 60.144C193.709 60.144 192.968 59.9573 192.317 59.584C191.677 59.2107 191.176 58.6827 190.813 58C190.451 57.3173 190.269 56.5173 190.269 55.6ZM210.132 55.28C210.132 55.5573 210.116 55.8507 210.084 56.16H203.076C203.129 57.024 203.423 57.7013 203.956 58.192C204.5 58.672 205.156 58.912 205.924 58.912C206.553 58.912 207.076 58.768 207.492 58.48C207.919 58.1813 208.217 57.7867 208.388 57.296H209.956C209.721 58.1387 209.252 58.8267 208.548 59.36C207.844 59.8827 206.969 60.144 205.924 60.144C205.092 60.144 204.345 59.9573 203.684 59.584C203.033 59.2107 202.521 58.6827 202.148 58C201.775 57.3067 201.588 56.5067 201.588 55.6C201.588 54.6933 201.769 53.8987 202.132 53.216C202.495 52.5333 203.001 52.0107 203.652 51.648C204.313 51.2747 205.071 51.088 205.924 51.088C206.756 51.088 207.492 51.2693 208.132 51.632C208.772 51.9947 209.263 52.496 209.604 53.136C209.956 53.7653 210.132 54.48 210.132 55.28ZM208.628 54.976C208.628 54.4213 208.505 53.9467 208.26 53.552C208.015 53.1467 207.679 52.8427 207.252 52.64C206.836 52.4267 206.372 52.32 205.86 52.32C205.124 52.32 204.495 52.5547 203.972 53.024C203.46 53.4933 203.167 54.144 203.092 54.976H208.628ZM215.542 48.848L215.366 56.848H214.15L213.974 48.848H215.542ZM214.822 60.096C214.544 60.096 214.31 60 214.118 59.808C213.926 59.616 213.83 59.3813 213.83 59.104C213.83 58.8267 213.926 58.592 214.118 58.4C214.31 58.208 214.544 58.112 214.822 58.112C215.088 58.112 215.312 58.208 215.494 58.4C215.686 58.592 215.782 58.8267 215.782 59.104C215.782 59.3813 215.686 59.616 215.494 59.808C215.312 60 215.088 60.096 214.822 60.096ZM232.189 48.848V50.032H227.341V53.792H231.277V54.976H227.341V60H225.885V48.848H232.189ZM235.004 55.584C235.004 54.688 235.185 53.904 235.548 53.232C235.91 52.5493 236.406 52.0213 237.036 51.648C237.676 51.2747 238.385 51.088 239.164 51.088C239.932 51.088 240.598 51.2533 241.164 51.584C241.729 51.9147 242.15 52.3307 242.428 52.832V51.232H243.9V60H242.428V58.368C242.14 58.88 241.708 59.3067 241.132 59.648C240.566 59.9787 239.905 60.144 239.148 60.144C238.369 60.144 237.665 59.952 237.036 59.568C236.406 59.184 235.91 58.6453 235.548 57.952C235.185 57.2587 235.004 56.4693 235.004 55.584ZM242.428 55.6C242.428 54.9387 242.294 54.3627 242.028 53.872C241.761 53.3813 241.398 53.008 240.94 52.752C240.492 52.4853 239.996 52.352 239.452 52.352C238.908 52.352 238.412 52.48 237.964 52.736C237.516 52.992 237.158 53.3653 236.892 53.856C236.625 54.3467 236.492 54.9227 236.492 55.584C236.492 56.256 236.625 56.8427 236.892 57.344C237.158 57.8347 237.516 58.2133 237.964 58.48C238.412 58.736 238.908 58.864 239.452 58.864C239.996 58.864 240.492 58.736 240.94 58.48C241.398 58.2133 241.761 57.8347 242.028 57.344C242.294 56.8427 242.428 56.2613 242.428 55.6ZM248.712 49.808C248.435 49.808 248.2 49.712 248.008 49.52C247.816 49.328 247.72 49.0933 247.72 48.816C247.72 48.5387 247.816 48.304 248.008 48.112C248.2 47.92 248.435 47.824 248.712 47.824C248.979 47.824 249.203 47.92 249.384 48.112C249.576 48.304 249.672 48.5387 249.672 48.816C249.672 49.0933 249.576 49.328 249.384 49.52C249.203 49.712 248.979 49.808 248.712 49.808ZM249.416 51.232V60H247.96V51.232H249.416ZM254.954 52.656C255.21 52.1547 255.572 51.7653 256.042 51.488C256.522 51.2107 257.103 51.072 257.786 51.072V52.576H257.402C255.77 52.576 254.954 53.4613 254.954 55.232V60H253.498V51.232H254.954V52.656ZM268.388 52.848C268.676 52.3467 269.103 51.9307 269.668 51.6C270.244 51.2587 270.911 51.088 271.668 51.088C272.447 51.088 273.151 51.2747 273.78 51.648C274.42 52.0213 274.921 52.5493 275.284 53.232C275.647 53.904 275.828 54.688 275.828 55.584C275.828 56.4693 275.647 57.2587 275.284 57.952C274.921 58.6453 274.42 59.184 273.78 59.568C273.151 59.952 272.447 60.144 271.668 60.144C270.921 60.144 270.26 59.9787 269.684 59.648C269.119 59.3067 268.687 58.8853 268.388 58.384V64.16H266.932V51.232H268.388V52.848ZM274.34 55.584C274.34 54.9227 274.207 54.3467 273.94 53.856C273.673 53.3653 273.311 52.992 272.852 52.736C272.404 52.48 271.908 52.352 271.364 52.352C270.831 52.352 270.335 52.4853 269.876 52.752C269.428 53.008 269.065 53.3867 268.788 53.888C268.521 54.3787 268.388 54.9493 268.388 55.6C268.388 56.2613 268.521 56.8427 268.788 57.344C269.065 57.8347 269.428 58.2133 269.876 58.48C270.335 58.736 270.831 58.864 271.364 58.864C271.908 58.864 272.404 58.736 272.852 58.48C273.311 58.2133 273.673 57.8347 273.94 57.344C274.207 56.8427 274.34 56.256 274.34 55.584ZM280.8 52.656C281.056 52.1547 281.419 51.7653 281.888 51.488C282.368 51.2107 282.95 51.072 283.632 51.072V52.576H283.248C281.616 52.576 280.8 53.4613 280.8 55.232V60H279.344V51.232H280.8V52.656ZM287.665 49.808C287.388 49.808 287.153 49.712 286.961 49.52C286.769 49.328 286.673 49.0933 286.673 48.816C286.673 48.5387 286.769 48.304 286.961 48.112C287.153 47.92 287.388 47.824 287.665 47.824C287.932 47.824 288.156 47.92 288.337 48.112C288.529 48.304 288.625 48.5387 288.625 48.816C288.625 49.0933 288.529 49.328 288.337 49.52C288.156 49.712 287.932 49.808 287.665 49.808ZM288.369 51.232V60H286.913V51.232H288.369ZM291.907 55.6C291.907 54.6933 292.088 53.904 292.451 53.232C292.813 52.5493 293.315 52.0213 293.955 51.648C294.605 51.2747 295.347 51.088 296.179 51.088C297.256 51.088 298.141 51.3493 298.835 51.872C299.539 52.3947 300.003 53.12 300.227 54.048H298.659C298.509 53.5147 298.216 53.0933 297.779 52.784C297.352 52.4747 296.819 52.32 296.179 52.32C295.347 52.32 294.675 52.608 294.163 53.184C293.651 53.7493 293.395 54.5547 293.395 55.6C293.395 56.656 293.651 57.472 294.163 58.048C294.675 58.624 295.347 58.912 296.179 58.912C296.819 58.912 297.352 58.7627 297.779 58.464C298.205 58.1653 298.499 57.7387 298.659 57.184H300.227C299.992 58.08 299.523 58.8 298.819 59.344C298.115 59.8773 297.235 60.144 296.179 60.144C295.347 60.144 294.605 59.9573 293.955 59.584C293.315 59.2107 292.813 58.6827 292.451 58C292.088 57.3173 291.907 56.5173 291.907 55.6ZM311.769 55.28C311.769 55.5573 311.753 55.8507 311.721 56.16H304.713C304.767 57.024 305.06 57.7013 305.593 58.192C306.137 58.672 306.793 58.912 307.561 58.912C308.191 58.912 308.713 58.768 309.129 58.48C309.556 58.1813 309.855 57.7867 310.025 57.296H311.593C311.359 58.1387 310.889 58.8267 310.185 59.36C309.481 59.8827 308.607 60.144 307.561 60.144C306.729 60.144 305.983 59.9573 305.321 59.584C304.671 59.2107 304.159 58.6827 303.785 58C303.412 57.3067 303.225 56.5067 303.225 55.6C303.225 54.6933 303.407 53.8987 303.769 53.216C304.132 52.5333 304.639 52.0107 305.289 51.648C305.951 51.2747 306.708 51.088 307.561 51.088C308.393 51.088 309.129 51.2693 309.769 51.632C310.409 51.9947 310.9 52.496 311.241 53.136C311.593 53.7653 311.769 54.48 311.769 55.28ZM310.265 54.976C310.265 54.4213 310.143 53.9467 309.897 53.552C309.652 53.1467 309.316 52.8427 308.889 52.64C308.473 52.4267 308.009 52.32 307.497 52.32C306.761 52.32 306.132 52.5547 305.609 53.024C305.097 53.4933 304.804 54.144 304.729 54.976H310.265ZM318.395 60.144C317.723 60.144 317.121 60.032 316.587 59.808C316.054 59.5733 315.633 59.2533 315.323 58.848C315.014 58.432 314.843 57.9573 314.811 57.424H316.315C316.358 57.8613 316.561 58.2187 316.923 58.496C317.297 58.7733 317.782 58.912 318.379 58.912C318.934 58.912 319.371 58.7893 319.691 58.544C320.011 58.2987 320.171 57.9893 320.171 57.616C320.171 57.232 320.001 56.9493 319.659 56.768C319.318 56.576 318.79 56.3893 318.075 56.208C317.425 56.0373 316.891 55.8667 316.475 55.696C316.07 55.5147 315.718 55.2533 315.419 54.912C315.131 54.56 314.987 54.1013 314.987 53.536C314.987 53.088 315.121 52.6773 315.387 52.304C315.654 51.9307 316.033 51.6373 316.523 51.424C317.014 51.2 317.574 51.088 318.203 51.088C319.174 51.088 319.958 51.3333 320.555 51.824C321.153 52.3147 321.473 52.9867 321.515 53.84H320.059C320.027 53.3813 319.841 53.0133 319.499 52.736C319.169 52.4587 318.721 52.32 318.155 52.32C317.633 52.32 317.217 52.432 316.907 52.656C316.598 52.88 316.443 53.1733 316.443 53.536C316.443 53.824 316.534 54.064 316.715 54.256C316.907 54.4373 317.142 54.5867 317.419 54.704C317.707 54.8107 318.102 54.9333 318.603 55.072C319.233 55.2427 319.745 55.4133 320.139 55.584C320.534 55.744 320.87 55.9893 321.147 56.32C321.435 56.6507 321.585 57.0827 321.595 57.616C321.595 58.096 321.462 58.528 321.195 58.912C320.929 59.296 320.55 59.6 320.059 59.824C319.579 60.0373 319.025 60.144 318.395 60.144ZM327.139 48.848L326.963 56.848H325.747L325.571 48.848H327.139ZM326.419 60.096C326.141 60.096 325.907 60 325.715 59.808C325.523 59.616 325.427 59.3813 325.427 59.104C325.427 58.8267 325.523 58.592 325.715 58.4C325.907 58.208 326.141 58.112 326.419 58.112C326.685 58.112 326.909 58.208 327.091 58.4C327.283 58.592 327.379 58.8267 327.379 59.104C327.379 59.3813 327.283 59.616 327.091 59.808C326.909 60 326.685 60.096 326.419 60.096ZM344.346 48.848V50.032H341.306V60H339.85V50.032H336.794V48.848H344.346ZM351.562 60.144C350.741 60.144 349.994 59.9573 349.322 59.584C348.661 59.2107 348.138 58.6827 347.754 58C347.381 57.3067 347.194 56.5067 347.194 55.6C347.194 54.704 347.386 53.9147 347.77 53.232C348.165 52.5387 348.698 52.0107 349.37 51.648C350.042 51.2747 350.794 51.088 351.626 51.088C352.458 51.088 353.21 51.2747 353.882 51.648C354.554 52.0107 355.082 52.5333 355.466 53.216C355.861 53.8987 356.058 54.6933 356.058 55.6C356.058 56.5067 355.856 57.3067 355.45 58C355.056 58.6827 354.517 59.2107 353.834 59.584C353.152 59.9573 352.394 60.144 351.562 60.144ZM351.562 58.864C352.085 58.864 352.576 58.7413 353.034 58.496C353.493 58.2507 353.861 57.8827 354.138 57.392C354.426 56.9013 354.57 56.304 354.57 55.6C354.57 54.896 354.432 54.2987 354.154 53.808C353.877 53.3173 353.514 52.9547 353.066 52.72C352.618 52.4747 352.133 52.352 351.61 52.352C351.077 52.352 350.586 52.4747 350.138 52.72C349.701 52.9547 349.349 53.3173 349.082 53.808C348.816 54.2987 348.682 54.896 348.682 55.6C348.682 56.3147 348.81 56.9173 349.066 57.408C349.333 57.8987 349.685 58.2667 350.122 58.512C350.56 58.7467 351.04 58.864 351.562 58.864ZM363.397 60.144C362.575 60.144 361.829 59.9573 361.157 59.584C360.495 59.2107 359.973 58.6827 359.589 58C359.215 57.3067 359.029 56.5067 359.029 55.6C359.029 54.704 359.221 53.9147 359.605 53.232C359.999 52.5387 360.533 52.0107 361.205 51.648C361.877 51.2747 362.629 51.088 363.461 51.088C364.293 51.088 365.045 51.2747 365.717 51.648C366.389 52.0107 366.917 52.5333 367.301 53.216C367.695 53.8987 367.893 54.6933 367.893 55.6C367.893 56.5067 367.69 57.3067 367.285 58C366.89 58.6827 366.351 59.2107 365.669 59.584C364.986 59.9573 364.229 60.144 363.397 60.144ZM363.397 58.864C363.919 58.864 364.41 58.7413 364.869 58.496C365.327 58.2507 365.695 57.8827 365.973 57.392C366.261 56.9013 366.405 56.304 366.405 55.6C366.405 54.896 366.266 54.2987 365.989 53.808C365.711 53.3173 365.349 52.9547 364.901 52.72C364.453 52.4747 363.967 52.352 363.445 52.352C362.911 52.352 362.421 52.4747 361.973 52.72C361.535 52.9547 361.183 53.3173 360.917 53.808C360.65 54.2987 360.517 54.896 360.517 55.6C360.517 56.3147 360.645 56.9173 360.901 57.408C361.167 57.8987 361.519 58.2667 361.957 58.512C362.394 58.7467 362.874 58.864 363.397 58.864ZM376.303 60L372.863 56.128V60H371.407V48.16H372.863V55.12L376.239 51.232H378.271L374.143 55.6L378.287 60H376.303ZM386.563 55.6C386.563 54.6933 386.744 53.904 387.107 53.232C387.47 52.5493 387.971 52.0213 388.611 51.648C389.262 51.2747 390.003 51.088 390.835 51.088C391.912 51.088 392.798 51.3493 393.491 51.872C394.195 52.3947 394.659 53.12 394.883 54.048H393.315C393.166 53.5147 392.872 53.0933 392.435 52.784C392.008 52.4747 391.475 52.32 390.835 52.32C390.003 52.32 389.331 52.608 388.819 53.184C388.307 53.7493 388.051 54.5547 388.051 55.6C388.051 56.656 388.307 57.472 388.819 58.048C389.331 58.624 390.003 58.912 390.835 58.912C391.475 58.912 392.008 58.7627 392.435 58.464C392.862 58.1653 393.155 57.7387 393.315 57.184H394.883C394.648 58.08 394.179 58.8 393.475 59.344C392.771 59.8773 391.891 60.144 390.835 60.144C390.003 60.144 389.262 59.9573 388.611 59.584C387.971 59.2107 387.47 58.6827 387.107 58C386.744 57.3173 386.563 56.5173 386.563 55.6ZM397.882 55.584C397.882 54.688 398.063 53.904 398.426 53.232C398.788 52.5493 399.284 52.0213 399.914 51.648C400.554 51.2747 401.263 51.088 402.042 51.088C402.81 51.088 403.476 51.2533 404.042 51.584C404.607 51.9147 405.028 52.3307 405.306 52.832V51.232H406.778V60H405.306V58.368C405.018 58.88 404.586 59.3067 404.01 59.648C403.444 59.9787 402.783 60.144 402.026 60.144C401.247 60.144 400.543 59.952 399.914 59.568C399.284 59.184 398.788 58.6453 398.426 57.952C398.063 57.2587 397.882 56.4693 397.882 55.584ZM405.306 55.6C405.306 54.9387 405.172 54.3627 404.906 53.872C404.639 53.3813 404.276 53.008 403.818 52.752C403.37 52.4853 402.874 52.352 402.33 52.352C401.786 52.352 401.29 52.48 400.842 52.736C400.394 52.992 400.036 53.3653 399.77 53.856C399.503 54.3467 399.37 54.9227 399.37 55.584C399.37 56.256 399.503 56.8427 399.77 57.344C400.036 57.8347 400.394 58.2133 400.842 58.48C401.29 58.736 401.786 58.864 402.33 58.864C402.874 58.864 403.37 58.736 403.818 58.48C404.276 58.2133 404.639 57.8347 404.906 57.344C405.172 56.8427 405.306 56.2613 405.306 55.6ZM412.294 52.656C412.55 52.1547 412.913 51.7653 413.382 51.488C413.862 51.2107 414.444 51.072 415.126 51.072V52.576H414.742C413.11 52.576 412.294 53.4613 412.294 55.232V60H410.838V51.232H412.294V52.656ZM426.407 55.28C426.407 55.5573 426.391 55.8507 426.359 56.16H419.351C419.404 57.024 419.698 57.7013 420.231 58.192C420.775 58.672 421.431 58.912 422.199 58.912C422.828 58.912 423.351 58.768 423.767 58.48C424.194 58.1813 424.492 57.7867 424.663 57.296H426.231C425.996 58.1387 425.527 58.8267 424.823 59.36C424.119 59.8827 423.244 60.144 422.199 60.144C421.367 60.144 420.62 59.9573 419.959 59.584C419.308 59.2107 418.796 58.6827 418.423 58C418.05 57.3067 417.863 56.5067 417.863 55.6C417.863 54.6933 418.044 53.8987 418.407 53.216C418.77 52.5333 419.276 52.0107 419.927 51.648C420.588 51.2747 421.346 51.088 422.199 51.088C423.031 51.088 423.767 51.2693 424.407 51.632C425.047 51.9947 425.538 52.496 425.879 53.136C426.231 53.7653 426.407 54.48 426.407 55.28ZM424.903 54.976C424.903 54.4213 424.78 53.9467 424.535 53.552C424.29 53.1467 423.954 52.8427 423.527 52.64C423.111 52.4267 422.647 52.32 422.135 52.32C421.399 52.32 420.77 52.5547 420.247 53.024C419.735 53.4933 419.442 54.144 419.367 54.976H424.903ZM91.7591 84.144C90.9377 84.144 90.1911 83.9573 89.5191 83.584C88.8577 83.2107 88.3351 82.6827 87.9511 82C87.5777 81.3067 87.3911 80.5067 87.3911 79.6C87.3911 78.704 87.5831 77.9147 87.9671 77.232C88.3617 76.5387 88.8951 76.0107 89.5671 75.648C90.2391 75.2747 90.9911 75.088 91.8231 75.088C92.6551 75.088 93.4071 75.2747 94.0791 75.648C94.7511 76.0107 95.2791 76.5333 95.6631 77.216C96.0577 77.8987 96.2551 78.6933 96.2551 79.6C96.2551 80.5067 96.0524 81.3067 95.6471 82C95.2524 82.6827 94.7137 83.2107 94.0311 83.584C93.3484 83.9573 92.5911 84.144 91.7591 84.144ZM91.7591 82.864C92.2817 82.864 92.7724 82.7413 93.2311 82.496C93.6897 82.2507 94.0577 81.8827 94.3351 81.392C94.6231 80.9013 94.7671 80.304 94.7671 79.6C94.7671 78.896 94.6284 78.2987 94.3511 77.808C94.0737 77.3173 93.7111 76.9547 93.2631 76.72C92.8151 76.4747 92.3297 76.352 91.8071 76.352C91.2737 76.352 90.7831 76.4747 90.3351 76.72C89.8977 76.9547 89.5457 77.3173 89.2791 77.808C89.0124 78.2987 88.8791 78.896 88.8791 79.6C88.8791 80.3147 89.0071 80.9173 89.2631 81.408C89.5297 81.8987 89.8817 82.2667 90.3191 82.512C90.7564 82.7467 91.2364 82.864 91.7591 82.864ZM103.337 76.432H101.497V84H100.041V76.432H98.9055V75.232H100.041V74.608C100.041 73.6267 100.292 72.912 100.793 72.464C101.305 72.0053 102.121 71.776 103.241 71.776V72.992C102.601 72.992 102.148 73.12 101.881 73.376C101.625 73.6213 101.497 74.032 101.497 74.608V75.232H103.337V76.432ZM123.045 75.072C123.727 75.072 124.335 75.216 124.869 75.504C125.402 75.7813 125.823 76.2027 126.133 76.768C126.442 77.3333 126.597 78.0213 126.597 78.832V84H125.157V79.04C125.157 78.1653 124.938 77.4987 124.501 77.04C124.074 76.5707 123.493 76.336 122.757 76.336C121.999 76.336 121.397 76.5813 120.949 77.072C120.501 77.552 120.277 78.2507 120.277 79.168V84H118.837V79.04C118.837 78.1653 118.618 77.4987 118.181 77.04C117.754 76.5707 117.173 76.336 116.437 76.336C115.679 76.336 115.077 76.5813 114.629 77.072C114.181 77.552 113.957 78.2507 113.957 79.168V84H112.501V75.232H113.957V76.496C114.245 76.0373 114.629 75.6853 115.109 75.44C115.599 75.1947 116.138 75.072 116.725 75.072C117.461 75.072 118.111 75.2373 118.677 75.568C119.242 75.8987 119.663 76.384 119.941 77.024C120.186 76.4053 120.591 75.9253 121.157 75.584C121.722 75.2427 122.351 75.072 123.045 75.072ZM138.137 75.232L132.857 88.128H131.353L133.081 83.904L129.545 75.232H131.161L133.913 82.336L136.633 75.232H138.137ZM148.842 76.432V81.6C148.842 82.0267 148.933 82.3307 149.114 82.512C149.296 82.6827 149.61 82.768 150.058 82.768H151.13V84H149.818C149.008 84 148.4 83.8133 147.994 83.44C147.589 83.0667 147.386 82.4533 147.386 81.6V76.432H146.25V75.232H147.386V73.024H148.842V75.232H151.13V76.432H148.842ZM155.95 76.656C156.206 76.1547 156.569 75.7653 157.038 75.488C157.518 75.2107 158.1 75.072 158.782 75.072V76.576H158.398C156.766 76.576 155.95 77.4613 155.95 79.232V84H154.494V75.232H155.95V76.656ZM169.839 75.232V84H168.383V82.704C168.106 83.152 167.717 83.504 167.215 83.76C166.725 84.0053 166.181 84.128 165.583 84.128C164.901 84.128 164.287 83.9893 163.743 83.712C163.199 83.424 162.767 82.9973 162.447 82.432C162.138 81.8667 161.983 81.1787 161.983 80.368V75.232H163.423V80.176C163.423 81.04 163.642 81.7067 164.079 82.176C164.517 82.6347 165.114 82.864 165.871 82.864C166.65 82.864 167.263 82.624 167.711 82.144C168.159 81.664 168.383 80.9653 168.383 80.048V75.232H169.839ZM173.354 79.6C173.354 78.6933 173.535 77.904 173.898 77.232C174.26 76.5493 174.762 76.0213 175.402 75.648C176.052 75.2747 176.794 75.088 177.626 75.088C178.703 75.088 179.588 75.3493 180.282 75.872C180.986 76.3947 181.45 77.12 181.674 78.048H180.106C179.956 77.5147 179.663 77.0933 179.226 76.784C178.799 76.4747 178.266 76.32 177.626 76.32C176.794 76.32 176.122 76.608 175.61 77.184C175.098 77.7493 174.842 78.5547 174.842 79.6C174.842 80.656 175.098 81.472 175.61 82.048C176.122 82.624 176.794 82.912 177.626 82.912C178.266 82.912 178.799 82.7627 179.226 82.464C179.652 82.1653 179.946 81.7387 180.106 81.184H181.674C181.439 82.08 180.97 82.8 180.266 83.344C179.562 83.8773 178.682 84.144 177.626 84.144C176.794 84.144 176.052 83.9573 175.402 83.584C174.762 83.2107 174.26 82.6827 173.898 82C173.535 81.3173 173.354 80.5173 173.354 79.6ZM190.112 84L186.672 80.128V84H185.216V72.16H186.672V79.12L190.048 75.232H192.08L187.952 79.6L192.096 84H190.112ZM202.372 76.656C202.628 76.1547 202.991 75.7653 203.46 75.488C203.94 75.2107 204.522 75.072 205.204 75.072V76.576H204.82C203.188 76.576 202.372 77.4613 202.372 79.232V84H200.916V75.232H202.372V76.656ZM216.485 79.28C216.485 79.5573 216.469 79.8507 216.437 80.16H209.429C209.482 81.024 209.776 81.7013 210.309 82.192C210.853 82.672 211.509 82.912 212.277 82.912C212.906 82.912 213.429 82.768 213.845 82.48C214.272 82.1813 214.57 81.7867 214.741 81.296H216.309C216.074 82.1387 215.605 82.8267 214.901 83.36C214.197 83.8827 213.322 84.144 212.277 84.144C211.445 84.144 210.698 83.9573 210.037 83.584C209.386 83.2107 208.874 82.6827 208.501 82C208.128 81.3067 207.941 80.5067 207.941 79.6C207.941 78.6933 208.122 77.8987 208.485 77.216C208.848 76.5333 209.354 76.0107 210.005 75.648C210.666 75.2747 211.424 75.088 212.277 75.088C213.109 75.088 213.845 75.2693 214.485 75.632C215.125 75.9947 215.616 76.496 215.957 77.136C216.309 77.7653 216.485 78.48 216.485 79.28ZM214.981 78.976C214.981 78.4213 214.858 77.9467 214.613 77.552C214.368 77.1467 214.032 76.8427 213.605 76.64C213.189 76.4267 212.725 76.32 212.213 76.32C211.477 76.32 210.848 76.5547 210.325 77.024C209.813 77.4933 209.52 78.144 209.445 78.976H214.981ZM221.463 76.848C221.751 76.3467 222.178 75.9307 222.743 75.6C223.319 75.2587 223.986 75.088 224.743 75.088C225.522 75.088 226.226 75.2747 226.855 75.648C227.495 76.0213 227.996 76.5493 228.359 77.232C228.722 77.904 228.903 78.688 228.903 79.584C228.903 80.4693 228.722 81.2587 228.359 81.952C227.996 82.6453 227.495 83.184 226.855 83.568C226.226 83.952 225.522 84.144 224.743 84.144C223.996 84.144 223.335 83.9787 222.759 83.648C222.194 83.3067 221.762 82.8853 221.463 82.384V88.16H220.007V75.232H221.463V76.848ZM227.415 79.584C227.415 78.9227 227.282 78.3467 227.015 77.856C226.748 77.3653 226.386 76.992 225.927 76.736C225.479 76.48 224.983 76.352 224.439 76.352C223.906 76.352 223.41 76.4853 222.951 76.752C222.503 77.008 222.14 77.3867 221.863 77.888C221.596 78.3787 221.463 78.9493 221.463 79.6C221.463 80.2613 221.596 80.8427 221.863 81.344C222.14 81.8347 222.503 82.2133 222.951 82.48C223.41 82.736 223.906 82.864 224.439 82.864C224.983 82.864 225.479 82.736 225.927 82.48C226.386 82.2133 226.748 81.8347 227.015 81.344C227.282 80.8427 227.415 80.256 227.415 79.584ZM231.875 79.584C231.875 78.688 232.057 77.904 232.419 77.232C232.782 76.5493 233.278 76.0213 233.907 75.648C234.547 75.2747 235.257 75.088 236.035 75.088C236.803 75.088 237.47 75.2533 238.035 75.584C238.601 75.9147 239.022 76.3307 239.299 76.832V75.232H240.771V84H239.299V82.368C239.011 82.88 238.579 83.3067 238.003 83.648C237.438 83.9787 236.777 84.144 236.019 84.144C235.241 84.144 234.537 83.952 233.907 83.568C233.278 83.184 232.782 82.6453 232.419 81.952C232.057 81.2587 231.875 80.4693 231.875 79.584ZM239.299 79.6C239.299 78.9387 239.166 78.3627 238.899 77.872C238.633 77.3813 238.27 77.008 237.811 76.752C237.363 76.4853 236.867 76.352 236.323 76.352C235.779 76.352 235.283 76.48 234.835 76.736C234.387 76.992 234.03 77.3653 233.763 77.856C233.497 78.3467 233.363 78.9227 233.363 79.584C233.363 80.256 233.497 80.8427 233.763 81.344C234.03 81.8347 234.387 82.2133 234.835 82.48C235.283 82.736 235.779 82.864 236.323 82.864C236.867 82.864 237.363 82.736 237.811 82.48C238.27 82.2133 238.633 81.8347 238.899 81.344C239.166 80.8427 239.299 80.2613 239.299 79.6ZM245.584 73.808C245.307 73.808 245.072 73.712 244.88 73.52C244.688 73.328 244.592 73.0933 244.592 72.816C244.592 72.5387 244.688 72.304 244.88 72.112C245.072 71.92 245.307 71.824 245.584 71.824C245.851 71.824 246.075 71.92 246.256 72.112C246.448 72.304 246.544 72.5387 246.544 72.816C246.544 73.0933 246.448 73.328 246.256 73.52C246.075 73.712 245.851 73.808 245.584 73.808ZM246.288 75.232V84H244.832V75.232H246.288ZM251.825 76.656C252.081 76.1547 252.444 75.7653 252.913 75.488C253.393 75.2107 253.975 75.072 254.657 75.072V76.576H254.273C252.641 76.576 251.825 77.4613 251.825 79.232V84H250.369V75.232H251.825V76.656ZM261.042 84.144C260.37 84.144 259.768 84.032 259.234 83.808C258.701 83.5733 258.28 83.2533 257.97 82.848C257.661 82.432 257.49 81.9573 257.458 81.424H258.962C259.005 81.8613 259.208 82.2187 259.57 82.496C259.944 82.7733 260.429 82.912 261.026 82.912C261.581 82.912 262.018 82.7893 262.338 82.544C262.658 82.2987 262.818 81.9893 262.818 81.616C262.818 81.232 262.648 80.9493 262.306 80.768C261.965 80.576 261.437 80.3893 260.722 80.208C260.072 80.0373 259.538 79.8667 259.122 79.696C258.717 79.5147 258.365 79.2533 258.066 78.912C257.778 78.56 257.634 78.1013 257.634 77.536C257.634 77.088 257.768 76.6773 258.034 76.304C258.301 75.9307 258.68 75.6373 259.17 75.424C259.661 75.2 260.221 75.088 260.85 75.088C261.821 75.088 262.605 75.3333 263.202 75.824C263.8 76.3147 264.12 76.9867 264.162 77.84H262.706C262.674 77.3813 262.488 77.0133 262.146 76.736C261.816 76.4587 261.368 76.32 260.802 76.32C260.28 76.32 259.864 76.432 259.554 76.656C259.245 76.88 259.09 77.1733 259.09 77.536C259.09 77.824 259.181 78.064 259.362 78.256C259.554 78.4373 259.789 78.5867 260.066 78.704C260.354 78.8107 260.749 78.9333 261.25 79.072C261.88 79.2427 262.392 79.4133 262.786 79.584C263.181 79.744 263.517 79.9893 263.794 80.32C264.082 80.6507 264.232 81.0827 264.242 81.616C264.242 82.096 264.109 82.528 263.842 82.912C263.576 83.296 263.197 83.6 262.706 83.824C262.226 84.0373 261.672 84.144 261.042 84.144ZM274.515 73.808C274.238 73.808 274.003 73.712 273.811 73.52C273.619 73.328 273.523 73.0933 273.523 72.816C273.523 72.5387 273.619 72.304 273.811 72.112C274.003 71.92 274.238 71.824 274.515 71.824C274.782 71.824 275.006 71.92 275.187 72.112C275.379 72.304 275.475 72.5387 275.475 72.816C275.475 73.0933 275.379 73.328 275.187 73.52C275.006 73.712 274.782 73.808 274.515 73.808ZM275.219 75.232V84H273.763V75.232H275.219ZM283.573 75.072C284.639 75.072 285.503 75.3973 286.165 76.048C286.826 76.688 287.157 77.616 287.157 78.832V84H285.717V79.04C285.717 78.1653 285.498 77.4987 285.061 77.04C284.623 76.5707 284.026 76.336 283.269 76.336C282.501 76.336 281.887 76.576 281.429 77.056C280.981 77.536 280.757 78.2347 280.757 79.152V84H279.301V75.232H280.757V76.48C281.045 76.032 281.434 75.6853 281.925 75.44C282.426 75.1947 282.975 75.072 283.573 75.072ZM296.457 79.584C296.457 78.688 296.638 77.904 297.001 77.232C297.363 76.5493 297.859 76.0213 298.489 75.648C299.129 75.2747 299.838 75.088 300.617 75.088C301.385 75.088 302.051 75.2533 302.617 75.584C303.182 75.9147 303.603 76.3307 303.881 76.832V75.232H305.353V84H303.881V82.368C303.593 82.88 303.161 83.3067 302.585 83.648C302.019 83.9787 301.358 84.144 300.601 84.144C299.822 84.144 299.118 83.952 298.489 83.568C297.859 83.184 297.363 82.6453 297.001 81.952C296.638 81.2587 296.457 80.4693 296.457 79.584ZM303.881 79.6C303.881 78.9387 303.747 78.3627 303.481 77.872C303.214 77.3813 302.851 77.008 302.393 76.752C301.945 76.4853 301.449 76.352 300.905 76.352C300.361 76.352 299.865 76.48 299.417 76.736C298.969 76.992 298.611 77.3653 298.345 77.856C298.078 78.3467 297.945 78.9227 297.945 79.584C297.945 80.256 298.078 80.8427 298.345 81.344C298.611 81.8347 298.969 82.2133 299.417 82.48C299.865 82.736 300.361 82.864 300.905 82.864C301.449 82.864 301.945 82.736 302.393 82.48C302.851 82.2133 303.214 81.8347 303.481 81.344C303.747 80.8427 303.881 80.2613 303.881 79.6ZM317.055 76.432V81.6C317.055 82.0267 317.145 82.3307 317.327 82.512C317.508 82.6827 317.823 82.768 318.271 82.768H319.343V84H318.031C317.22 84 316.612 83.8133 316.207 83.44C315.801 83.0667 315.599 82.4533 315.599 81.6V76.432H314.463V75.232H315.599V73.024H317.055V75.232H319.343V76.432H317.055ZM323.459 73.808C323.182 73.808 322.947 73.712 322.755 73.52C322.563 73.328 322.467 73.0933 322.467 72.816C322.467 72.5387 322.563 72.304 322.755 72.112C322.947 71.92 323.182 71.824 323.459 71.824C323.726 71.824 323.95 71.92 324.131 72.112C324.323 72.304 324.419 72.5387 324.419 72.816C324.419 73.0933 324.323 73.328 324.131 73.52C323.95 73.712 323.726 73.808 323.459 73.808ZM324.163 75.232V84H322.707V75.232H324.163ZM338.788 75.072C339.471 75.072 340.079 75.216 340.612 75.504C341.146 75.7813 341.567 76.2027 341.876 76.768C342.186 77.3333 342.34 78.0213 342.34 78.832V84H340.9V79.04C340.9 78.1653 340.682 77.4987 340.244 77.04C339.818 76.5707 339.236 76.336 338.5 76.336C337.743 76.336 337.14 76.5813 336.692 77.072C336.244 77.552 336.02 78.2507 336.02 79.168V84H334.58V79.04C334.58 78.1653 334.362 77.4987 333.924 77.04C333.498 76.5707 332.916 76.336 332.18 76.336C331.423 76.336 330.82 76.5813 330.372 77.072C329.924 77.552 329.7 78.2507 329.7 79.168V84H328.244V75.232H329.7V76.496C329.988 76.0373 330.372 75.6853 330.852 75.44C331.343 75.1947 331.882 75.072 332.468 75.072C333.204 75.072 333.855 75.2373 334.42 75.568C334.986 75.8987 335.407 76.384 335.684 77.024C335.93 76.4053 336.335 75.9253 336.9 75.584C337.466 75.2427 338.095 75.072 338.788 75.072ZM354.329 79.28C354.329 79.5573 354.313 79.8507 354.281 80.16H347.273C347.326 81.024 347.619 81.7013 348.153 82.192C348.697 82.672 349.353 82.912 350.121 82.912C350.75 82.912 351.273 82.768 351.689 82.48C352.115 82.1813 352.414 81.7867 352.585 81.296H354.153C353.918 82.1387 353.449 82.8267 352.745 83.36C352.041 83.8827 351.166 84.144 350.121 84.144C349.289 84.144 348.542 83.9573 347.881 83.584C347.23 83.2107 346.718 82.6827 346.345 82C345.971 81.3067 345.785 80.5067 345.785 79.6C345.785 78.6933 345.966 77.8987 346.329 77.216C346.691 76.5333 347.198 76.0107 347.849 75.648C348.51 75.2747 349.267 75.088 350.121 75.088C350.953 75.088 351.689 75.2693 352.329 75.632C352.969 75.9947 353.459 76.496 353.801 77.136C354.153 77.7653 354.329 78.48 354.329 79.28ZM352.825 78.976C352.825 78.4213 352.702 77.9467 352.457 77.552C352.211 77.1467 351.875 76.8427 351.449 76.64C351.033 76.4267 350.569 76.32 350.057 76.32C349.321 76.32 348.691 76.5547 348.169 77.024C347.657 77.4933 347.363 78.144 347.289 78.976H352.825ZM359.307 72.16V84H357.851V72.16H359.307ZM370.94 75.232L365.66 88.128H364.156L365.884 83.904L362.348 75.232H363.964L366.716 82.336L369.436 75.232H370.94ZM379.325 79.584C379.325 78.688 379.507 77.904 379.869 77.232C380.232 76.5493 380.728 76.0213 381.357 75.648C381.997 75.2747 382.707 75.088 383.485 75.088C384.253 75.088 384.92 75.2533 385.485 75.584C386.051 75.9147 386.472 76.3307 386.749 76.832V75.232H388.221V84H386.749V82.368C386.461 82.88 386.029 83.3067 385.453 83.648C384.888 83.9787 384.227 84.144 383.469 84.144C382.691 84.144 381.987 83.952 381.357 83.568C380.728 83.184 380.232 82.6453 379.869 81.952C379.507 81.2587 379.325 80.4693 379.325 79.584ZM386.749 79.6C386.749 78.9387 386.616 78.3627 386.349 77.872C386.083 77.3813 385.72 77.008 385.261 76.752C384.813 76.4853 384.317 76.352 383.773 76.352C383.229 76.352 382.733 76.48 382.285 76.736C381.837 76.992 381.48 77.3653 381.213 77.856C380.947 78.3467 380.813 78.9227 380.813 79.584C380.813 80.256 380.947 80.8427 381.213 81.344C381.48 81.8347 381.837 82.2133 382.285 82.48C382.733 82.736 383.229 82.864 383.773 82.864C384.317 82.864 384.813 82.736 385.261 82.48C385.72 82.2133 386.083 81.8347 386.349 81.344C386.616 80.8427 386.749 80.2613 386.749 79.6ZM396.554 75.072C397.621 75.072 398.485 75.3973 399.146 76.048C399.807 76.688 400.138 77.616 400.138 78.832V84H398.698V79.04C398.698 78.1653 398.479 77.4987 398.042 77.04C397.605 76.5707 397.007 76.336 396.25 76.336C395.482 76.336 394.869 76.576 394.41 77.056C393.962 77.536 393.738 78.2347 393.738 79.152V84H392.282V75.232H393.738V76.48C394.026 76.032 394.415 75.6853 394.906 75.44C395.407 75.1947 395.957 75.072 396.554 75.072ZM403.572 79.584C403.572 78.688 403.754 77.904 404.116 77.232C404.479 76.5493 404.975 76.0213 405.604 75.648C406.244 75.2747 406.959 75.088 407.748 75.088C408.431 75.088 409.066 75.248 409.652 75.568C410.239 75.8773 410.687 76.288 410.996 76.8V72.16H412.468V84H410.996V82.352C410.708 82.8747 410.282 83.3067 409.716 83.648C409.151 83.9787 408.49 84.144 407.732 84.144C406.954 84.144 406.244 83.952 405.604 83.568C404.975 83.184 404.479 82.6453 404.116 81.952C403.754 81.2587 403.572 80.4693 403.572 79.584ZM410.996 79.6C410.996 78.9387 410.863 78.3627 410.596 77.872C410.33 77.3813 409.967 77.008 409.508 76.752C409.06 76.4853 408.564 76.352 408.02 76.352C407.476 76.352 406.98 76.48 406.532 76.736C406.084 76.992 405.727 77.3653 405.46 77.856C405.194 78.3467 405.06 78.9227 405.06 79.584C405.06 80.256 405.194 80.8427 405.46 81.344C405.727 81.8347 406.084 82.2133 406.532 82.48C406.98 82.736 407.476 82.864 408.02 82.864C408.564 82.864 409.06 82.736 409.508 82.48C409.967 82.2133 410.33 81.8347 410.596 81.344C410.863 80.8427 410.996 80.2613 410.996 79.6ZM82.638 100.848C82.926 100.347 83.3526 99.9307 83.918 99.6C84.494 99.2587 85.1606 99.088 85.918 99.088C86.6966 99.088 87.4006 99.2747 88.03 99.648C88.67 100.021 89.1713 100.549 89.534 101.232C89.8966 101.904 90.078 102.688 90.078 103.584C90.078 104.469 89.8966 105.259 89.534 105.952C89.1713 106.645 88.67 107.184 88.03 107.568C87.4006 107.952 86.6966 108.144 85.918 108.144C85.1713 108.144 84.51 107.979 83.934 107.648C83.3686 107.307 82.9366 106.885 82.638 106.384V112.16H81.182V99.232H82.638V100.848ZM88.59 103.584C88.59 102.923 88.4566 102.347 88.19 101.856C87.9233 101.365 87.5606 100.992 87.102 100.736C86.654 100.48 86.158 100.352 85.614 100.352C85.0806 100.352 84.5846 100.485 84.126 100.752C83.678 101.008 83.3153 101.387 83.038 101.888C82.7713 102.379 82.638 102.949 82.638 103.6C82.638 104.261 82.7713 104.843 83.038 105.344C83.3153 105.835 83.678 106.213 84.126 106.48C84.5846 106.736 85.0806 106.864 85.614 106.864C86.158 106.864 86.654 106.736 87.102 106.48C87.5606 106.213 87.9233 105.835 88.19 105.344C88.4566 104.843 88.59 104.256 88.59 103.584ZM95.0505 100.656C95.3065 100.155 95.6691 99.7653 96.1385 99.488C96.6185 99.2107 97.1998 99.072 97.8825 99.072V100.576H97.4985C95.8665 100.576 95.0505 101.461 95.0505 103.232V108H93.5945V99.232H95.0505V100.656ZM104.987 108.144C104.166 108.144 103.419 107.957 102.747 107.584C102.086 107.211 101.563 106.683 101.179 106C100.806 105.307 100.619 104.507 100.619 103.6C100.619 102.704 100.811 101.915 101.195 101.232C101.59 100.539 102.123 100.011 102.795 99.648C103.467 99.2747 104.219 99.088 105.051 99.088C105.883 99.088 106.635 99.2747 107.307 99.648C107.979 100.011 108.507 100.533 108.891 101.216C109.286 101.899 109.483 102.693 109.483 103.6C109.483 104.507 109.281 105.307 108.875 106C108.481 106.683 107.942 107.211 107.259 107.584C106.577 107.957 105.819 108.144 104.987 108.144ZM104.987 106.864C105.51 106.864 106.001 106.741 106.459 106.496C106.918 106.251 107.286 105.883 107.563 105.392C107.851 104.901 107.995 104.304 107.995 103.6C107.995 102.896 107.857 102.299 107.579 101.808C107.302 101.317 106.939 100.955 106.491 100.72C106.043 100.475 105.558 100.352 105.035 100.352C104.502 100.352 104.011 100.475 103.563 100.72C103.126 100.955 102.774 101.317 102.507 101.808C102.241 102.299 102.107 102.896 102.107 103.6C102.107 104.315 102.235 104.917 102.491 105.408C102.758 105.899 103.11 106.267 103.547 106.512C103.985 106.747 104.465 106.864 104.987 106.864ZM116.566 100.432H114.726V108H113.27V100.432H112.134V99.232H113.27V98.608C113.27 97.6267 113.52 96.912 114.022 96.464C114.534 96.0053 115.35 95.776 116.47 95.776V96.992C115.83 96.992 115.376 97.12 115.11 97.376C114.854 97.6213 114.726 98.032 114.726 98.608V99.232H116.566V100.432ZM127.863 103.28C127.863 103.557 127.847 103.851 127.815 104.16H120.807C120.861 105.024 121.154 105.701 121.687 106.192C122.231 106.672 122.887 106.912 123.655 106.912C124.285 106.912 124.807 106.768 125.223 106.48C125.65 106.181 125.949 105.787 126.119 105.296H127.687C127.453 106.139 126.983 106.827 126.279 107.36C125.575 107.883 124.701 108.144 123.655 108.144C122.823 108.144 122.077 107.957 121.415 107.584C120.765 107.211 120.253 106.683 119.879 106C119.506 105.307 119.319 104.507 119.319 103.6C119.319 102.693 119.501 101.899 119.863 101.216C120.226 100.533 120.733 100.011 121.383 99.648C122.045 99.2747 122.802 99.088 123.655 99.088C124.487 99.088 125.223 99.2693 125.863 99.632C126.503 99.9947 126.994 100.496 127.335 101.136C127.687 101.765 127.863 102.48 127.863 103.28ZM126.359 102.976C126.359 102.421 126.237 101.947 125.991 101.552C125.746 101.147 125.41 100.843 124.983 100.64C124.567 100.427 124.103 100.32 123.591 100.32C122.855 100.32 122.226 100.555 121.703 101.024C121.191 101.493 120.898 102.144 120.823 102.976H126.359ZM134.489 108.144C133.817 108.144 133.214 108.032 132.681 107.808C132.148 107.573 131.726 107.253 131.417 106.848C131.108 106.432 130.937 105.957 130.905 105.424H132.409C132.452 105.861 132.654 106.219 133.017 106.496C133.39 106.773 133.876 106.912 134.473 106.912C135.028 106.912 135.465 106.789 135.785 106.544C136.105 106.299 136.265 105.989 136.265 105.616C136.265 105.232 136.094 104.949 135.753 104.768C135.412 104.576 134.884 104.389 134.169 104.208C133.518 104.037 132.985 103.867 132.569 103.696C132.164 103.515 131.812 103.253 131.513 102.912C131.225 102.56 131.081 102.101 131.081 101.536C131.081 101.088 131.214 100.677 131.481 100.304C131.748 99.9307 132.126 99.6373 132.617 99.424C133.108 99.2 133.668 99.088 134.297 99.088C135.268 99.088 136.052 99.3333 136.649 99.824C137.246 100.315 137.566 100.987 137.609 101.84H136.153C136.121 101.381 135.934 101.013 135.593 100.736C135.262 100.459 134.814 100.32 134.249 100.32C133.726 100.32 133.31 100.432 133.001 100.656C132.692 100.88 132.537 101.173 132.537 101.536C132.537 101.824 132.628 102.064 132.809 102.256C133.001 102.437 133.236 102.587 133.513 102.704C133.801 102.811 134.196 102.933 134.697 103.072C135.326 103.243 135.838 103.413 136.233 103.584C136.628 103.744 136.964 103.989 137.241 104.32C137.529 104.651 137.678 105.083 137.689 105.616C137.689 106.096 137.556 106.528 137.289 106.912C137.022 107.296 136.644 107.6 136.153 107.824C135.673 108.037 135.118 108.144 134.489 108.144ZM144.448 108.144C143.776 108.144 143.174 108.032 142.64 107.808C142.107 107.573 141.686 107.253 141.376 106.848C141.067 106.432 140.896 105.957 140.864 105.424H142.368C142.411 105.861 142.614 106.219 142.976 106.496C143.35 106.773 143.835 106.912 144.432 106.912C144.987 106.912 145.424 106.789 145.744 106.544C146.064 106.299 146.224 105.989 146.224 105.616C146.224 105.232 146.054 104.949 145.712 104.768C145.371 104.576 144.843 104.389 144.128 104.208C143.478 104.037 142.944 103.867 142.528 103.696C142.123 103.515 141.771 103.253 141.472 102.912C141.184 102.56 141.04 102.101 141.04 101.536C141.04 101.088 141.174 100.677 141.44 100.304C141.707 99.9307 142.086 99.6373 142.576 99.424C143.067 99.2 143.627 99.088 144.256 99.088C145.227 99.088 146.011 99.3333 146.608 99.824C147.206 100.315 147.526 100.987 147.568 101.84H146.112C146.08 101.381 145.894 101.013 145.552 100.736C145.222 100.459 144.774 100.32 144.208 100.32C143.686 100.32 143.27 100.432 142.96 100.656C142.651 100.88 142.496 101.173 142.496 101.536C142.496 101.824 142.587 102.064 142.768 102.256C142.96 102.437 143.195 102.587 143.472 102.704C143.76 102.811 144.155 102.933 144.656 103.072C145.286 103.243 145.798 103.413 146.192 103.584C146.587 103.744 146.923 103.989 147.2 104.32C147.488 104.651 147.638 105.083 147.648 105.616C147.648 106.096 147.515 106.528 147.248 106.912C146.982 107.296 146.603 107.6 146.112 107.824C145.632 108.037 145.078 108.144 144.448 108.144ZM152.056 97.808C151.778 97.808 151.544 97.712 151.352 97.52C151.16 97.328 151.064 97.0933 151.064 96.816C151.064 96.5387 151.16 96.304 151.352 96.112C151.544 95.92 151.778 95.824 152.056 95.824C152.322 95.824 152.546 95.92 152.728 96.112C152.92 96.304 153.016 96.5387 153.016 96.816C153.016 97.0933 152.92 97.328 152.728 97.52C152.546 97.712 152.322 97.808 152.056 97.808ZM152.76 99.232V108H151.304V99.232H152.76ZM160.665 108.144C159.844 108.144 159.097 107.957 158.425 107.584C157.764 107.211 157.241 106.683 156.857 106C156.484 105.307 156.297 104.507 156.297 103.6C156.297 102.704 156.489 101.915 156.873 101.232C157.268 100.539 157.801 100.011 158.473 99.648C159.145 99.2747 159.897 99.088 160.729 99.088C161.561 99.088 162.313 99.2747 162.985 99.648C163.657 100.011 164.185 100.533 164.569 101.216C164.964 101.899 165.161 102.693 165.161 103.6C165.161 104.507 164.959 105.307 164.553 106C164.159 106.683 163.62 107.211 162.937 107.584C162.255 107.957 161.497 108.144 160.665 108.144ZM160.665 106.864C161.188 106.864 161.679 106.741 162.137 106.496C162.596 106.251 162.964 105.883 163.241 105.392C163.529 104.901 163.673 104.304 163.673 103.6C163.673 102.896 163.535 102.299 163.257 101.808C162.98 101.317 162.617 100.955 162.169 100.72C161.721 100.475 161.236 100.352 160.713 100.352C160.18 100.352 159.689 100.475 159.241 100.72C158.804 100.955 158.452 101.317 158.185 101.808C157.919 102.299 157.785 102.896 157.785 103.6C157.785 104.315 157.913 104.917 158.169 105.408C158.436 105.899 158.788 106.267 159.225 106.512C159.663 106.747 160.143 106.864 160.665 106.864ZM172.948 99.072C174.014 99.072 174.878 99.3973 175.54 100.048C176.201 100.688 176.532 101.616 176.532 102.832V108H175.092V103.04C175.092 102.165 174.873 101.499 174.436 101.04C173.998 100.571 173.401 100.336 172.644 100.336C171.876 100.336 171.262 100.576 170.804 101.056C170.356 101.536 170.132 102.235 170.132 103.152V108H168.676V99.232H170.132V100.48C170.42 100.032 170.809 99.6853 171.3 99.44C171.801 99.1947 172.35 99.072 172.948 99.072ZM179.966 103.584C179.966 102.688 180.147 101.904 180.51 101.232C180.873 100.549 181.369 100.021 181.998 99.648C182.638 99.2747 183.347 99.088 184.126 99.088C184.894 99.088 185.561 99.2533 186.126 99.584C186.691 99.9147 187.113 100.331 187.39 100.832V99.232H188.862V108H187.39V106.368C187.102 106.88 186.67 107.307 186.094 107.648C185.529 107.979 184.867 108.144 184.11 108.144C183.331 108.144 182.627 107.952 181.998 107.568C181.369 107.184 180.873 106.645 180.51 105.952C180.147 105.259 179.966 104.469 179.966 103.584ZM187.39 103.6C187.39 102.939 187.257 102.363 186.99 101.872C186.723 101.381 186.361 101.008 185.902 100.752C185.454 100.485 184.958 100.352 184.414 100.352C183.87 100.352 183.374 100.48 182.926 100.736C182.478 100.992 182.121 101.365 181.854 101.856C181.587 102.347 181.454 102.923 181.454 103.584C181.454 104.256 181.587 104.843 181.854 105.344C182.121 105.835 182.478 106.213 182.926 106.48C183.374 106.736 183.87 106.864 184.414 106.864C184.958 106.864 185.454 106.736 185.902 106.48C186.361 106.213 186.723 105.835 186.99 105.344C187.257 104.843 187.39 104.261 187.39 103.6ZM194.379 96.16V108H192.923V96.16H194.379ZM214.87 99.072C215.552 99.072 216.16 99.216 216.694 99.504C217.227 99.7813 217.648 100.203 217.958 100.768C218.267 101.333 218.422 102.021 218.422 102.832V108H216.982V103.04C216.982 102.165 216.763 101.499 216.326 101.04C215.899 100.571 215.318 100.336 214.582 100.336C213.824 100.336 213.222 100.581 212.774 101.072C212.326 101.552 212.102 102.251 212.102 103.168V108H210.662V103.04C210.662 102.165 210.443 101.499 210.006 101.04C209.579 100.571 208.998 100.336 208.262 100.336C207.504 100.336 206.902 100.581 206.454 101.072C206.006 101.552 205.782 102.251 205.782 103.168V108H204.326V99.232H205.782V100.496C206.07 100.037 206.454 99.6853 206.934 99.44C207.424 99.1947 207.963 99.072 208.55 99.072C209.286 99.072 209.936 99.2373 210.502 99.568C211.067 99.8987 211.488 100.384 211.766 101.024C212.011 100.405 212.416 99.9253 212.982 99.584C213.547 99.2427 214.176 99.072 214.87 99.072ZM221.866 103.584C221.866 102.688 222.047 101.904 222.41 101.232C222.773 100.549 223.269 100.021 223.898 99.648C224.538 99.2747 225.247 99.088 226.026 99.088C226.794 99.088 227.461 99.2533 228.026 99.584C228.591 99.9147 229.013 100.331 229.29 100.832V99.232H230.762V108H229.29V106.368C229.002 106.88 228.57 107.307 227.994 107.648C227.429 107.979 226.767 108.144 226.01 108.144C225.231 108.144 224.527 107.952 223.898 107.568C223.269 107.184 222.773 106.645 222.41 105.952C222.047 105.259 221.866 104.469 221.866 103.584ZM229.29 103.6C229.29 102.939 229.157 102.363 228.89 101.872C228.623 101.381 228.261 101.008 227.802 100.752C227.354 100.485 226.858 100.352 226.314 100.352C225.77 100.352 225.274 100.48 224.826 100.736C224.378 100.992 224.021 101.365 223.754 101.856C223.487 102.347 223.354 102.923 223.354 103.584C223.354 104.256 223.487 104.843 223.754 105.344C224.021 105.835 224.378 106.213 224.826 106.48C225.274 106.736 225.77 106.864 226.314 106.864C226.858 106.864 227.354 106.736 227.802 106.48C228.261 106.213 228.623 105.835 228.89 105.344C229.157 104.843 229.29 104.261 229.29 103.6ZM239.095 99.072C240.161 99.072 241.025 99.3973 241.687 100.048C242.348 100.688 242.679 101.616 242.679 102.832V108H241.239V103.04C241.239 102.165 241.02 101.499 240.583 101.04C240.145 100.571 239.548 100.336 238.791 100.336C238.023 100.336 237.409 100.576 236.951 101.056C236.503 101.536 236.279 102.235 236.279 103.152V108H234.823V99.232H236.279V100.48C236.567 100.032 236.956 99.6853 237.447 99.44C237.948 99.1947 238.497 99.072 239.095 99.072ZM250.929 99.072C251.996 99.072 252.86 99.3973 253.521 100.048C254.182 100.688 254.513 101.616 254.513 102.832V108H253.073V103.04C253.073 102.165 252.854 101.499 252.417 101.04C251.98 100.571 251.382 100.336 250.625 100.336C249.857 100.336 249.244 100.576 248.785 101.056C248.337 101.536 248.113 102.235 248.113 103.152V108H246.657V99.232H248.113V100.48C248.401 100.032 248.79 99.6853 249.281 99.44C249.782 99.1947 250.332 99.072 250.929 99.072ZM266.491 103.28C266.491 103.557 266.475 103.851 266.443 104.16H259.435C259.489 105.024 259.782 105.701 260.315 106.192C260.859 106.672 261.515 106.912 262.283 106.912C262.913 106.912 263.435 106.768 263.851 106.48C264.278 106.181 264.577 105.787 264.747 105.296H266.315C266.081 106.139 265.611 106.827 264.907 107.36C264.203 107.883 263.329 108.144 262.283 108.144C261.451 108.144 260.705 107.957 260.043 107.584C259.393 107.211 258.881 106.683 258.507 106C258.134 105.307 257.947 104.507 257.947 103.6C257.947 102.693 258.129 101.899 258.491 101.216C258.854 100.533 259.361 100.011 260.011 99.648C260.673 99.2747 261.43 99.088 262.283 99.088C263.115 99.088 263.851 99.2693 264.491 99.632C265.131 99.9947 265.622 100.496 265.963 101.136C266.315 101.765 266.491 102.48 266.491 103.28ZM264.987 102.976C264.987 102.421 264.865 101.947 264.619 101.552C264.374 101.147 264.038 100.843 263.611 100.64C263.195 100.427 262.731 100.32 262.219 100.32C261.483 100.32 260.854 100.555 260.331 101.024C259.819 101.493 259.526 102.144 259.451 102.976H264.987ZM271.469 100.656C271.725 100.155 272.088 99.7653 272.557 99.488C273.037 99.2107 273.619 99.072 274.301 99.072V100.576H273.917C272.285 100.576 271.469 101.461 271.469 103.232V108H270.013V99.232H271.469V100.656ZM279.47 96.848L279.294 104.848H278.078L277.902 96.848H279.47ZM278.75 108.096C278.473 108.096 278.238 108 278.046 107.808C277.854 107.616 277.758 107.381 277.758 107.104C277.758 106.827 277.854 106.592 278.046 106.4C278.238 106.208 278.473 106.112 278.75 106.112C279.017 106.112 279.241 106.208 279.422 106.4C279.614 106.592 279.71 106.827 279.71 107.104C279.71 107.381 279.614 107.616 279.422 107.808C279.241 108 279.017 108.096 278.75 108.096ZM297.621 96.848L293.989 103.792V108H292.533V103.792L288.885 96.848H290.501L293.253 102.496L296.005 96.848H297.621ZM308.757 103.28C308.757 103.557 308.741 103.851 308.709 104.16H301.701C301.754 105.024 302.048 105.701 302.581 106.192C303.125 106.672 303.781 106.912 304.549 106.912C305.178 106.912 305.701 106.768 306.117 106.48C306.544 106.181 306.842 105.787 307.013 105.296H308.581C308.346 106.139 307.877 106.827 307.173 107.36C306.469 107.883 305.594 108.144 304.549 108.144C303.717 108.144 302.97 107.957 302.309 107.584C301.658 107.211 301.146 106.683 300.773 106C300.4 105.307 300.213 104.507 300.213 103.6C300.213 102.693 300.394 101.899 300.757 101.216C301.12 100.533 301.626 100.011 302.277 99.648C302.938 99.2747 303.696 99.088 304.549 99.088C305.381 99.088 306.117 99.2693 306.757 99.632C307.397 99.9947 307.888 100.496 308.229 101.136C308.581 101.765 308.757 102.48 308.757 103.28ZM307.253 102.976C307.253 102.421 307.13 101.947 306.885 101.552C306.64 101.147 306.304 100.843 305.877 100.64C305.461 100.427 304.997 100.32 304.485 100.32C303.749 100.32 303.12 100.555 302.597 101.024C302.085 101.493 301.792 102.144 301.717 102.976H307.253ZM315.383 108.144C314.711 108.144 314.108 108.032 313.575 107.808C313.041 107.573 312.62 107.253 312.311 106.848C312.001 106.432 311.831 105.957 311.799 105.424H313.303C313.345 105.861 313.548 106.219 313.911 106.496C314.284 106.773 314.769 106.912 315.367 106.912C315.921 106.912 316.359 106.789 316.679 106.544C316.999 106.299 317.159 105.989 317.159 105.616C317.159 105.232 316.988 104.949 316.647 104.768C316.305 104.576 315.777 104.389 315.063 104.208C314.412 104.037 313.879 103.867 313.463 103.696C313.057 103.515 312.705 103.253 312.407 102.912C312.119 102.56 311.975 102.101 311.975 101.536C311.975 101.088 312.108 100.677 312.375 100.304C312.641 99.9307 313.02 99.6373 313.511 99.424C314.001 99.2 314.561 99.088 315.191 99.088C316.161 99.088 316.945 99.3333 317.543 99.824C318.14 100.315 318.46 100.987 318.503 101.84H317.047C317.015 101.381 316.828 101.013 316.487 100.736C316.156 100.459 315.708 100.32 315.143 100.32C314.62 100.32 314.204 100.432 313.895 100.656C313.585 100.88 313.431 101.173 313.431 101.536C313.431 101.824 313.521 102.064 313.703 102.256C313.895 102.437 314.129 102.587 314.407 102.704C314.695 102.811 315.089 102.933 315.591 103.072C316.22 103.243 316.732 103.413 317.127 103.584C317.521 103.744 317.857 103.989 318.135 104.32C318.423 104.651 318.572 105.083 318.583 105.616C318.583 106.096 318.449 106.528 318.183 106.912C317.916 107.296 317.537 107.6 317.047 107.824C316.567 108.037 316.012 108.144 315.383 108.144ZM328.856 97.808C328.578 97.808 328.344 97.712 328.152 97.52C327.96 97.328 327.864 97.0933 327.864 96.816C327.864 96.5387 327.96 96.304 328.152 96.112C328.344 95.92 328.578 95.824 328.856 95.824C329.122 95.824 329.346 95.92 329.528 96.112C329.72 96.304 329.816 96.5387 329.816 96.816C329.816 97.0933 329.72 97.328 329.528 97.52C329.346 97.712 329.122 97.808 328.856 97.808ZM329.56 99.232V108H328.104V99.232H329.56ZM338.963 103.6C338.963 102.693 339.144 101.904 339.507 101.232C339.87 100.549 340.371 100.021 341.011 99.648C341.662 99.2747 342.403 99.088 343.235 99.088C344.312 99.088 345.198 99.3493 345.891 99.872C346.595 100.395 347.059 101.12 347.283 102.048H345.715C345.566 101.515 345.272 101.093 344.835 100.784C344.408 100.475 343.875 100.32 343.235 100.32C342.403 100.32 341.731 100.608 341.219 101.184C340.707 101.749 340.451 102.555 340.451 103.6C340.451 104.656 340.707 105.472 341.219 106.048C341.731 106.624 342.403 106.912 343.235 106.912C343.875 106.912 344.408 106.763 344.835 106.464C345.262 106.165 345.555 105.739 345.715 105.184H347.283C347.048 106.08 346.579 106.8 345.875 107.344C345.171 107.877 344.291 108.144 343.235 108.144C342.403 108.144 341.662 107.957 341.011 107.584C340.371 107.211 339.87 106.683 339.507 106C339.144 105.317 338.963 104.517 338.963 103.6ZM358.826 103.28C358.826 103.557 358.81 103.851 358.778 104.16H351.77C351.823 105.024 352.116 105.701 352.65 106.192C353.194 106.672 353.85 106.912 354.618 106.912C355.247 106.912 355.77 106.768 356.186 106.48C356.612 106.181 356.911 105.787 357.082 105.296H358.65C358.415 106.139 357.946 106.827 357.242 107.36C356.538 107.883 355.663 108.144 354.618 108.144C353.786 108.144 353.039 107.957 352.378 107.584C351.727 107.211 351.215 106.683 350.842 106C350.468 105.307 350.282 104.507 350.282 103.6C350.282 102.693 350.463 101.899 350.826 101.216C351.188 100.533 351.695 100.011 352.346 99.648C353.007 99.2747 353.764 99.088 354.618 99.088C355.45 99.088 356.186 99.2693 356.826 99.632C357.466 99.9947 357.956 100.496 358.298 101.136C358.65 101.765 358.826 102.48 358.826 103.28ZM357.322 102.976C357.322 102.421 357.199 101.947 356.954 101.552C356.708 101.147 356.372 100.843 355.946 100.64C355.53 100.427 355.066 100.32 354.554 100.32C353.818 100.32 353.188 100.555 352.666 101.024C352.154 101.493 351.86 102.144 351.786 102.976H357.322ZM363.804 100.656C364.06 100.155 364.422 99.7653 364.892 99.488C365.372 99.2107 365.953 99.072 366.636 99.072V100.576H366.252C364.62 100.576 363.804 101.461 363.804 103.232V108H362.348V99.232H363.804V100.656ZM371.692 100.432V105.6C371.692 106.027 371.783 106.331 371.964 106.512C372.146 106.683 372.46 106.768 372.908 106.768H373.98V108H372.668C371.858 108 371.25 107.813 370.844 107.44C370.439 107.067 370.236 106.453 370.236 105.6V100.432H369.1V99.232H370.236V97.024H371.692V99.232H373.98V100.432H371.692ZM376.8 103.584C376.8 102.688 376.982 101.904 377.344 101.232C377.707 100.549 378.203 100.021 378.832 99.648C379.472 99.2747 380.182 99.088 380.96 99.088C381.728 99.088 382.395 99.2533 382.96 99.584C383.526 99.9147 383.947 100.331 384.224 100.832V99.232H385.696V108H384.224V106.368C383.936 106.88 383.504 107.307 382.928 107.648C382.363 107.979 381.702 108.144 380.944 108.144C380.166 108.144 379.462 107.952 378.832 107.568C378.203 107.184 377.707 106.645 377.344 105.952C376.982 105.259 376.8 104.469 376.8 103.584ZM384.224 103.6C384.224 102.939 384.091 102.363 383.824 101.872C383.558 101.381 383.195 101.008 382.736 100.752C382.288 100.485 381.792 100.352 381.248 100.352C380.704 100.352 380.208 100.48 379.76 100.736C379.312 100.992 378.955 101.365 378.688 101.856C378.422 102.347 378.288 102.923 378.288 103.584C378.288 104.256 378.422 104.843 378.688 105.344C378.955 105.835 379.312 106.213 379.76 106.48C380.208 106.736 380.704 106.864 381.248 106.864C381.792 106.864 382.288 106.736 382.736 106.48C383.195 106.213 383.558 105.835 383.824 105.344C384.091 104.843 384.224 104.261 384.224 103.6ZM390.509 97.808C390.232 97.808 389.997 97.712 389.805 97.52C389.613 97.328 389.517 97.0933 389.517 96.816C389.517 96.5387 389.613 96.304 389.805 96.112C389.997 95.92 390.232 95.824 390.509 95.824C390.776 95.824 391 95.92 391.181 96.112C391.373 96.304 391.469 96.5387 391.469 96.816C391.469 97.0933 391.373 97.328 391.181 97.52C391 97.712 390.776 97.808 390.509 97.808ZM391.213 99.232V108H389.757V99.232H391.213ZM399.566 99.072C400.633 99.072 401.497 99.3973 402.158 100.048C402.82 100.688 403.15 101.616 403.15 102.832V108H401.71V103.04C401.71 102.165 401.492 101.499 401.054 101.04C400.617 100.571 400.02 100.336 399.262 100.336C398.494 100.336 397.881 100.576 397.422 101.056C396.974 101.536 396.75 102.235 396.75 103.152V108H395.294V99.232H396.75V100.48C397.038 100.032 397.428 99.6853 397.918 99.44C398.42 99.1947 398.969 99.072 399.566 99.072ZM408.585 96.16V108H407.129V96.16H408.585ZM420.218 99.232L414.938 112.128H413.434L415.162 107.904L411.626 99.232H413.242L415.994 106.336L418.714 99.232H420.218ZM123.53 124.656C123.786 124.155 124.149 123.765 124.618 123.488C125.098 123.211 125.679 123.072 126.362 123.072V124.576H125.978C124.346 124.576 123.53 125.461 123.53 127.232V132H122.074V123.232H123.53V124.656ZM137.643 127.28C137.643 127.557 137.627 127.851 137.595 128.16H130.587C130.64 129.024 130.934 129.701 131.467 130.192C132.011 130.672 132.667 130.912 133.435 130.912C134.064 130.912 134.587 130.768 135.003 130.48C135.43 130.181 135.728 129.787 135.899 129.296H137.467C137.232 130.139 136.763 130.827 136.059 131.36C135.355 131.883 134.48 132.144 133.435 132.144C132.603 132.144 131.856 131.957 131.195 131.584C130.544 131.211 130.032 130.683 129.659 130C129.286 129.307 129.099 128.507 129.099 127.6C129.099 126.693 129.28 125.899 129.643 125.216C130.006 124.533 130.512 124.011 131.163 123.648C131.824 123.275 132.582 123.088 133.435 123.088C134.267 123.088 135.003 123.269 135.643 123.632C136.283 123.995 136.774 124.496 137.115 125.136C137.467 125.765 137.643 126.48 137.643 127.28ZM136.139 126.976C136.139 126.421 136.016 125.947 135.771 125.552C135.526 125.147 135.19 124.843 134.763 124.64C134.347 124.427 133.883 124.32 133.371 124.32C132.635 124.32 132.006 124.555 131.483 125.024C130.971 125.493 130.678 126.144 130.603 126.976H136.139ZM140.621 127.6C140.621 126.693 140.802 125.904 141.165 125.232C141.527 124.549 142.029 124.021 142.669 123.648C143.319 123.275 144.061 123.088 144.893 123.088C145.97 123.088 146.855 123.349 147.549 123.872C148.253 124.395 148.717 125.12 148.941 126.048H147.373C147.223 125.515 146.93 125.093 146.493 124.784C146.066 124.475 145.533 124.32 144.893 124.32C144.061 124.32 143.389 124.608 142.877 125.184C142.365 125.749 142.109 126.555 142.109 127.6C142.109 128.656 142.365 129.472 142.877 130.048C143.389 130.624 144.061 130.912 144.893 130.912C145.533 130.912 146.066 130.763 146.493 130.464C146.919 130.165 147.213 129.739 147.373 129.184H148.941C148.706 130.08 148.237 130.8 147.533 131.344C146.829 131.877 145.949 132.144 144.893 132.144C144.061 132.144 143.319 131.957 142.669 131.584C142.029 131.211 141.527 130.683 141.165 130C140.802 129.317 140.621 128.517 140.621 127.6ZM156.308 132.144C155.486 132.144 154.74 131.957 154.068 131.584C153.406 131.211 152.884 130.683 152.5 130C152.126 129.307 151.94 128.507 151.94 127.6C151.94 126.704 152.132 125.915 152.516 125.232C152.91 124.539 153.444 124.011 154.116 123.648C154.788 123.275 155.54 123.088 156.372 123.088C157.204 123.088 157.956 123.275 158.628 123.648C159.3 124.011 159.828 124.533 160.212 125.216C160.606 125.899 160.804 126.693 160.804 127.6C160.804 128.507 160.601 129.307 160.196 130C159.801 130.683 159.262 131.211 158.58 131.584C157.897 131.957 157.14 132.144 156.308 132.144ZM156.308 130.864C156.83 130.864 157.321 130.741 157.78 130.496C158.238 130.251 158.606 129.883 158.884 129.392C159.172 128.901 159.316 128.304 159.316 127.6C159.316 126.896 159.177 126.299 158.9 125.808C158.622 125.317 158.26 124.955 157.812 124.72C157.364 124.475 156.878 124.352 156.356 124.352C155.822 124.352 155.332 124.475 154.884 124.72C154.446 124.955 154.094 125.317 153.828 125.808C153.561 126.299 153.428 126.896 153.428 127.6C153.428 128.315 153.556 128.917 153.812 129.408C154.078 129.899 154.43 130.267 154.868 130.512C155.305 130.747 155.785 130.864 156.308 130.864ZM174.862 123.072C175.545 123.072 176.153 123.216 176.686 123.504C177.219 123.781 177.641 124.203 177.95 124.768C178.259 125.333 178.414 126.021 178.414 126.832V132H176.974V127.04C176.974 126.165 176.755 125.499 176.318 125.04C175.891 124.571 175.31 124.336 174.574 124.336C173.817 124.336 173.214 124.581 172.766 125.072C172.318 125.552 172.094 126.251 172.094 127.168V132H170.654V127.04C170.654 126.165 170.435 125.499 169.998 125.04C169.571 124.571 168.99 124.336 168.254 124.336C167.497 124.336 166.894 124.581 166.446 125.072C165.998 125.552 165.774 126.251 165.774 127.168V132H164.318V123.232H165.774V124.496C166.062 124.037 166.446 123.685 166.926 123.44C167.417 123.195 167.955 123.072 168.542 123.072C169.278 123.072 169.929 123.237 170.494 123.568C171.059 123.899 171.481 124.384 171.758 125.024C172.003 124.405 172.409 123.925 172.974 123.584C173.539 123.243 174.169 123.072 174.862 123.072ZM192.946 123.072C193.629 123.072 194.237 123.216 194.77 123.504C195.304 123.781 195.725 124.203 196.034 124.768C196.344 125.333 196.498 126.021 196.498 126.832V132H195.058V127.04C195.058 126.165 194.84 125.499 194.402 125.04C193.976 124.571 193.394 124.336 192.658 124.336C191.901 124.336 191.298 124.581 190.85 125.072C190.402 125.552 190.178 126.251 190.178 127.168V132H188.738V127.04C188.738 126.165 188.52 125.499 188.082 125.04C187.656 124.571 187.074 124.336 186.338 124.336C185.581 124.336 184.978 124.581 184.53 125.072C184.082 125.552 183.858 126.251 183.858 127.168V132H182.402V123.232H183.858V124.496C184.146 124.037 184.53 123.685 185.01 123.44C185.501 123.195 186.04 123.072 186.626 123.072C187.362 123.072 188.013 123.237 188.578 123.568C189.144 123.899 189.565 124.384 189.842 125.024C190.088 124.405 190.493 123.925 191.058 123.584C191.624 123.243 192.253 123.072 192.946 123.072ZM208.487 127.28C208.487 127.557 208.471 127.851 208.439 128.16H201.431C201.484 129.024 201.777 129.701 202.311 130.192C202.855 130.672 203.511 130.912 204.279 130.912C204.908 130.912 205.431 130.768 205.847 130.48C206.273 130.181 206.572 129.787 206.743 129.296H208.311C208.076 130.139 207.607 130.827 206.903 131.36C206.199 131.883 205.324 132.144 204.279 132.144C203.447 132.144 202.7 131.957 202.039 131.584C201.388 131.211 200.876 130.683 200.503 130C200.129 129.307 199.943 128.507 199.943 127.6C199.943 126.693 200.124 125.899 200.487 125.216C200.849 124.533 201.356 124.011 202.007 123.648C202.668 123.275 203.425 123.088 204.279 123.088C205.111 123.088 205.847 123.269 206.487 123.632C207.127 123.995 207.617 124.496 207.959 125.136C208.311 125.765 208.487 126.48 208.487 127.28ZM206.983 126.976C206.983 126.421 206.86 125.947 206.615 125.552C206.369 125.147 206.033 124.843 205.607 124.64C205.191 124.427 204.727 124.32 204.215 124.32C203.479 124.32 202.849 124.555 202.327 125.024C201.815 125.493 201.521 126.144 201.447 126.976H206.983ZM216.281 123.072C217.347 123.072 218.211 123.397 218.873 124.048C219.534 124.688 219.865 125.616 219.865 126.832V132H218.425V127.04C218.425 126.165 218.206 125.499 217.769 125.04C217.331 124.571 216.734 124.336 215.977 124.336C215.209 124.336 214.595 124.576 214.137 125.056C213.689 125.536 213.465 126.235 213.465 127.152V132H212.009V123.232H213.465V124.48C213.753 124.032 214.142 123.685 214.633 123.44C215.134 123.195 215.683 123.072 216.281 123.072ZM223.299 127.584C223.299 126.688 223.48 125.904 223.843 125.232C224.206 124.549 224.702 124.021 225.331 123.648C225.971 123.275 226.686 123.088 227.475 123.088C228.158 123.088 228.792 123.248 229.379 123.568C229.966 123.877 230.414 124.288 230.723 124.8V120.16H232.195V132H230.723V130.352C230.435 130.875 230.008 131.307 229.443 131.648C228.878 131.979 228.216 132.144 227.459 132.144C226.68 132.144 225.971 131.952 225.331 131.568C224.702 131.184 224.206 130.645 223.843 129.952C223.48 129.259 223.299 128.469 223.299 127.584ZM230.723 127.6C230.723 126.939 230.59 126.363 230.323 125.872C230.056 125.381 229.694 125.008 229.235 124.752C228.787 124.485 228.291 124.352 227.747 124.352C227.203 124.352 226.707 124.48 226.259 124.736C225.811 124.992 225.454 125.365 225.187 125.856C224.92 126.347 224.787 126.923 224.787 127.584C224.787 128.256 224.92 128.843 225.187 129.344C225.454 129.835 225.811 130.213 226.259 130.48C226.707 130.736 227.203 130.864 227.747 130.864C228.291 130.864 228.787 130.736 229.235 130.48C229.694 130.213 230.056 129.835 230.323 129.344C230.59 128.843 230.723 128.261 230.723 127.6ZM243.897 124.432V129.6C243.897 130.027 243.988 130.331 244.169 130.512C244.35 130.683 244.665 130.768 245.113 130.768H246.185V132H244.873C244.062 132 243.454 131.813 243.049 131.44C242.644 131.067 242.441 130.453 242.441 129.6V124.432H241.305V123.232H242.441V121.024H243.897V123.232H246.185V124.432H243.897ZM253.901 123.072C254.562 123.072 255.16 123.216 255.693 123.504C256.226 123.781 256.642 124.203 256.941 124.768C257.25 125.333 257.405 126.021 257.405 126.832V132H255.965V127.04C255.965 126.165 255.746 125.499 255.309 125.04C254.872 124.571 254.274 124.336 253.517 124.336C252.749 124.336 252.136 124.576 251.677 125.056C251.229 125.536 251.005 126.235 251.005 127.152V132H249.549V120.16H251.005V124.48C251.293 124.032 251.688 123.685 252.189 123.44C252.701 123.195 253.272 123.072 253.901 123.072ZM262.136 121.808C261.858 121.808 261.624 121.712 261.432 121.52C261.24 121.328 261.144 121.093 261.144 120.816C261.144 120.539 261.24 120.304 261.432 120.112C261.624 119.92 261.858 119.824 262.136 119.824C262.402 119.824 262.626 119.92 262.808 120.112C263 120.304 263.096 120.539 263.096 120.816C263.096 121.093 263 121.328 262.808 121.52C262.626 121.712 262.402 121.808 262.136 121.808ZM262.84 123.232V132H261.384V123.232H262.84ZM270.025 132.144C269.353 132.144 268.75 132.032 268.217 131.808C267.684 131.573 267.262 131.253 266.953 130.848C266.644 130.432 266.473 129.957 266.441 129.424H267.945C267.988 129.861 268.19 130.219 268.553 130.496C268.926 130.773 269.412 130.912 270.009 130.912C270.564 130.912 271.001 130.789 271.321 130.544C271.641 130.299 271.801 129.989 271.801 129.616C271.801 129.232 271.63 128.949 271.289 128.768C270.948 128.576 270.42 128.389 269.705 128.208C269.054 128.037 268.521 127.867 268.105 127.696C267.7 127.515 267.348 127.253 267.049 126.912C266.761 126.56 266.617 126.101 266.617 125.536C266.617 125.088 266.75 124.677 267.017 124.304C267.284 123.931 267.662 123.637 268.153 123.424C268.644 123.2 269.204 123.088 269.833 123.088C270.804 123.088 271.588 123.333 272.185 123.824C272.782 124.315 273.102 124.987 273.145 125.84H271.689C271.657 125.381 271.47 125.013 271.129 124.736C270.798 124.459 270.35 124.32 269.785 124.32C269.262 124.32 268.846 124.432 268.537 124.656C268.228 124.88 268.073 125.173 268.073 125.536C268.073 125.824 268.164 126.064 268.345 126.256C268.537 126.437 268.772 126.587 269.049 126.704C269.337 126.811 269.732 126.933 270.233 127.072C270.862 127.243 271.374 127.413 271.769 127.584C272.164 127.744 272.5 127.989 272.777 128.32C273.065 128.651 273.214 129.083 273.225 129.616C273.225 130.096 273.092 130.528 272.825 130.912C272.558 131.296 272.18 131.6 271.689 131.824C271.209 132.037 270.654 132.144 270.025 132.144ZM282.202 127.6C282.202 126.693 282.383 125.904 282.746 125.232C283.109 124.549 283.61 124.021 284.25 123.648C284.901 123.275 285.642 123.088 286.474 123.088C287.551 123.088 288.437 123.349 289.13 123.872C289.834 124.395 290.298 125.12 290.522 126.048H288.954C288.805 125.515 288.511 125.093 288.074 124.784C287.647 124.475 287.114 124.32 286.474 124.32C285.642 124.32 284.97 124.608 284.458 125.184C283.946 125.749 283.69 126.555 283.69 127.6C283.69 128.656 283.946 129.472 284.458 130.048C284.97 130.624 285.642 130.912 286.474 130.912C287.114 130.912 287.647 130.763 288.074 130.464C288.501 130.165 288.794 129.739 288.954 129.184H290.522C290.287 130.08 289.818 130.8 289.114 131.344C288.41 131.877 287.53 132.144 286.474 132.144C285.642 132.144 284.901 131.957 284.25 131.584C283.61 131.211 283.109 130.683 282.746 130C282.383 129.317 282.202 128.517 282.202 127.6ZM297.889 132.144C297.067 132.144 296.321 131.957 295.649 131.584C294.987 131.211 294.465 130.683 294.081 130C293.707 129.307 293.521 128.507 293.521 127.6C293.521 126.704 293.713 125.915 294.097 125.232C294.491 124.539 295.025 124.011 295.697 123.648C296.369 123.275 297.121 123.088 297.953 123.088C298.785 123.088 299.537 123.275 300.209 123.648C300.881 124.011 301.409 124.533 301.793 125.216C302.187 125.899 302.385 126.693 302.385 127.6C302.385 128.507 302.182 129.307 301.777 130C301.382 130.683 300.843 131.211 300.161 131.584C299.478 131.957 298.721 132.144 297.889 132.144ZM297.889 130.864C298.411 130.864 298.902 130.741 299.361 130.496C299.819 130.251 300.187 129.883 300.465 129.392C300.753 128.901 300.897 128.304 300.897 127.6C300.897 126.896 300.758 126.299 300.481 125.808C300.203 125.317 299.841 124.955 299.393 124.72C298.945 124.475 298.459 124.352 297.937 124.352C297.403 124.352 296.913 124.475 296.465 124.72C296.027 124.955 295.675 125.317 295.409 125.808C295.142 126.299 295.009 126.896 295.009 127.6C295.009 128.315 295.137 128.917 295.393 129.408C295.659 129.899 296.011 130.267 296.449 130.512C296.886 130.747 297.366 130.864 297.889 130.864ZM316.443 123.072C317.126 123.072 317.734 123.216 318.267 123.504C318.8 123.781 319.222 124.203 319.531 124.768C319.84 125.333 319.995 126.021 319.995 126.832V132H318.555V127.04C318.555 126.165 318.336 125.499 317.899 125.04C317.472 124.571 316.891 124.336 316.155 124.336C315.398 124.336 314.795 124.581 314.347 125.072C313.899 125.552 313.675 126.251 313.675 127.168V132H312.235V127.04C312.235 126.165 312.016 125.499 311.579 125.04C311.152 124.571 310.571 124.336 309.835 124.336C309.078 124.336 308.475 124.581 308.027 125.072C307.579 125.552 307.355 126.251 307.355 127.168V132H305.899V123.232H307.355V124.496C307.643 124.037 308.027 123.685 308.507 123.44C308.998 123.195 309.536 123.072 310.123 123.072C310.859 123.072 311.51 123.237 312.075 123.568C312.64 123.899 313.062 124.384 313.339 125.024C313.584 124.405 313.99 123.925 314.555 123.584C315.12 123.243 315.75 123.072 316.443 123.072ZM325.44 124.848C325.728 124.347 326.154 123.931 326.72 123.6C327.296 123.259 327.962 123.088 328.72 123.088C329.498 123.088 330.202 123.275 330.832 123.648C331.472 124.021 331.973 124.549 332.336 125.232C332.698 125.904 332.88 126.688 332.88 127.584C332.88 128.469 332.698 129.259 332.336 129.952C331.973 130.645 331.472 131.184 330.832 131.568C330.202 131.952 329.498 132.144 328.72 132.144C327.973 132.144 327.312 131.979 326.736 131.648C326.17 131.307 325.738 130.885 325.44 130.384V136.16H323.984V123.232H325.44V124.848ZM331.392 127.584C331.392 126.923 331.258 126.347 330.992 125.856C330.725 125.365 330.362 124.992 329.904 124.736C329.456 124.48 328.96 124.352 328.416 124.352C327.882 124.352 327.386 124.485 326.928 124.752C326.48 125.008 326.117 125.387 325.84 125.888C325.573 126.379 325.44 126.949 325.44 127.6C325.44 128.261 325.573 128.843 325.84 129.344C326.117 129.835 326.48 130.213 326.928 130.48C327.386 130.736 327.882 130.864 328.416 130.864C328.96 130.864 329.456 130.736 329.904 130.48C330.362 130.213 330.725 129.835 330.992 129.344C331.258 128.843 331.392 128.256 331.392 127.584ZM335.852 127.584C335.852 126.688 336.033 125.904 336.396 125.232C336.759 124.549 337.255 124.021 337.884 123.648C338.524 123.275 339.233 123.088 340.012 123.088C340.78 123.088 341.447 123.253 342.012 123.584C342.577 123.915 342.999 124.331 343.276 124.832V123.232H344.748V132H343.276V130.368C342.988 130.88 342.556 131.307 341.98 131.648C341.415 131.979 340.753 132.144 339.996 132.144C339.217 132.144 338.513 131.952 337.884 131.568C337.255 131.184 336.759 130.645 336.396 129.952C336.033 129.259 335.852 128.469 335.852 127.584ZM343.276 127.6C343.276 126.939 343.143 126.363 342.876 125.872C342.609 125.381 342.247 125.008 341.788 124.752C341.34 124.485 340.844 124.352 340.3 124.352C339.756 124.352 339.26 124.48 338.812 124.736C338.364 124.992 338.007 125.365 337.74 125.856C337.473 126.347 337.34 126.923 337.34 127.584C337.34 128.256 337.473 128.843 337.74 129.344C338.007 129.835 338.364 130.213 338.812 130.48C339.26 130.736 339.756 130.864 340.3 130.864C340.844 130.864 341.34 130.736 341.788 130.48C342.247 130.213 342.609 129.835 342.876 129.344C343.143 128.843 343.276 128.261 343.276 127.6ZM353.081 123.072C354.147 123.072 355.011 123.397 355.673 124.048C356.334 124.688 356.665 125.616 356.665 126.832V132H355.225V127.04C355.225 126.165 355.006 125.499 354.569 125.04C354.131 124.571 353.534 124.336 352.777 124.336C352.009 124.336 351.395 124.576 350.937 125.056C350.489 125.536 350.265 126.235 350.265 127.152V132H348.809V123.232H350.265V124.48C350.553 124.032 350.942 123.685 351.433 123.44C351.934 123.195 352.483 123.072 353.081 123.072ZM368.195 123.232L362.915 136.128H361.411L363.139 131.904L359.603 123.232H361.219L363.971 130.336L366.691 123.232H368.195ZM373.147 120.848L372.971 128.848H371.755L371.579 120.848H373.147ZM372.427 132.096C372.149 132.096 371.915 132 371.723 131.808C371.531 131.616 371.435 131.381 371.435 131.104C371.435 130.827 371.531 130.592 371.723 130.4C371.915 130.208 372.149 130.112 372.427 130.112C372.693 130.112 372.917 130.208 373.099 130.4C373.291 130.592 373.387 130.827 373.387 131.104C373.387 131.381 373.291 131.616 373.099 131.808C372.917 132 372.693 132.096 372.427 132.096ZM379.512 120.848L379.336 128.848H378.12L377.944 120.848H379.512ZM378.792 132.096C378.515 132.096 378.28 132 378.088 131.808C377.896 131.616 377.8 131.381 377.8 131.104C377.8 130.827 377.896 130.592 378.088 130.4C378.28 130.208 378.515 130.112 378.792 130.112C379.059 130.112 379.283 130.208 379.464 130.4C379.656 130.592 379.752 130.827 379.752 131.104C379.752 131.381 379.656 131.616 379.464 131.808C379.283 132 379.059 132.096 378.792 132.096Z" fill="white"/>
<path opacity="0.2" d="M275 141L460.991 141" stroke="white"/>
<path d="M60.8643 35.6367C58.9111 37.0527 56.7871 38.1514 54.4922 38.9326C52.2461 39.7139 50.0488 40.1045 47.9004 40.1045C46.4355 40.1045 45.0195 39.9092 43.6523 39.5186C42.334 39.0791 41.1621 38.4443 40.1367 37.6143C39.1113 36.7842 38.2812 35.7344 37.6465 34.4648C37.0605 33.1465 36.7676 31.6328 36.7676 29.9238C36.7676 27.873 37.0605 25.9443 37.6465 24.1377C38.2324 22.2822 39.1357 20.2803 40.3564 18.1318C41.5771 15.9346 43.0908 13.4687 44.8975 10.7344C46.7041 8 48.8281 4.72852 51.2695 0.919922H63.8672L56.1768 22.0869L60.8643 35.6367ZM28.4912 35.7832C26.5381 37.1992 24.4141 38.2979 22.1191 39.0791C19.873 39.8115 17.6758 40.1777 15.5273 40.1777C14.0625 40.1777 12.6465 39.9824 11.2793 39.5918C9.96094 39.1523 8.78906 38.5176 7.76367 37.6875C6.73828 36.8574 5.9082 35.8076 5.27344 34.5381C4.6875 33.2197 4.39453 31.7061 4.39453 29.9971C4.39453 27.9463 4.6875 26.0176 5.27344 24.2109C5.85938 22.3555 6.7627 20.3535 7.9834 18.2051C9.2041 16.0078 10.7178 13.542 12.5244 10.8076C14.3311 8.07324 16.4551 4.80176 18.8965 0.993164H31.4941L23.8037 22.1602L28.4912 35.7832Z" fill="white" fill-opacity="0.5"/>
</svg>
