<svg width="475" height="183" viewBox="0 0 475 183" fill="none" xmlns="http://www.w3.org/2000/svg">
<path opacity="0.7" d="M27 27.6198C27 22.8592 30.0858 19 33.8923 19H468.108C471.914 19 475 22.8592 475 27.6198V174.38C475 179.141 471.914 183 468.108 183H33.8923C30.0858 183 27 179.141 27 174.38V27.6198Z" fill="#950E0E"/>
<path d="M347.347 166.52H352.227V168H345.527V154.06H347.347V166.52ZM357.94 154.06V162.88C357.94 164.12 358.24 165.04 358.84 165.64C359.453 166.24 360.3 166.54 361.38 166.54C362.447 166.54 363.28 166.24 363.88 165.64C364.493 165.04 364.8 164.12 364.8 162.88V154.06H366.62V162.86C366.62 164.02 366.387 165 365.92 165.8C365.453 166.587 364.82 167.173 364.02 167.56C363.233 167.947 362.347 168.14 361.36 168.14C360.373 168.14 359.48 167.947 358.68 167.56C357.893 167.173 357.267 166.587 356.8 165.8C356.347 165 356.12 164.02 356.12 162.86V154.06H357.94ZM373.476 154.06V168H371.656V154.06H373.476ZM382.998 168.14C382.078 168.14 381.251 167.98 380.518 167.66C379.798 167.327 379.231 166.873 378.818 166.3C378.405 165.713 378.191 165.04 378.178 164.28H380.118C380.185 164.933 380.451 165.487 380.918 165.94C381.398 166.38 382.091 166.6 382.998 166.6C383.865 166.6 384.545 166.387 385.038 165.96C385.545 165.52 385.798 164.96 385.798 164.28C385.798 163.747 385.651 163.313 385.358 162.98C385.065 162.647 384.698 162.393 384.258 162.22C383.818 162.047 383.225 161.86 382.478 161.66C381.558 161.42 380.818 161.18 380.258 160.94C379.711 160.7 379.238 160.327 378.838 159.82C378.451 159.3 378.258 158.607 378.258 157.74C378.258 156.98 378.451 156.307 378.838 155.72C379.225 155.133 379.765 154.68 380.458 154.36C381.165 154.04 381.971 153.88 382.878 153.88C384.185 153.88 385.251 154.207 386.078 154.86C386.918 155.513 387.391 156.38 387.498 157.46H385.498C385.431 156.927 385.151 156.46 384.658 156.06C384.165 155.647 383.511 155.44 382.698 155.44C381.938 155.44 381.318 155.64 380.838 156.04C380.358 156.427 380.118 156.973 380.118 157.68C380.118 158.187 380.258 158.6 380.538 158.92C380.831 159.24 381.185 159.487 381.598 159.66C382.025 159.82 382.618 160.007 383.378 160.22C384.298 160.473 385.038 160.727 385.598 160.98C386.158 161.22 386.638 161.6 387.038 162.12C387.438 162.627 387.638 163.32 387.638 164.2C387.638 164.88 387.458 165.52 387.098 166.12C386.738 166.72 386.205 167.207 385.498 167.58C384.791 167.953 383.958 168.14 382.998 168.14ZM407.888 164.9H401.808L400.688 168H398.768L403.808 154.14H405.908L410.928 168H409.008L407.888 164.9ZM407.368 163.42L404.848 156.38L402.328 163.42H407.368ZM416.945 166.52H421.825V168H415.125V154.06H416.945V166.52ZM432.738 160.82C433.244 160.9 433.704 161.107 434.118 161.44C434.544 161.773 434.878 162.187 435.118 162.68C435.371 163.173 435.498 163.7 435.498 164.26C435.498 164.967 435.318 165.607 434.958 166.18C434.598 166.74 434.071 167.187 433.378 167.52C432.698 167.84 431.891 168 430.958 168H425.758V154.06H430.758C431.704 154.06 432.511 154.22 433.178 154.54C433.844 154.847 434.344 155.267 434.678 155.8C435.011 156.333 435.178 156.933 435.178 157.6C435.178 158.427 434.951 159.113 434.498 159.66C434.058 160.193 433.471 160.58 432.738 160.82ZM427.578 160.08H430.638C431.491 160.08 432.151 159.88 432.618 159.48C433.084 159.08 433.318 158.527 433.318 157.82C433.318 157.113 433.084 156.56 432.618 156.16C432.151 155.76 431.478 155.56 430.598 155.56H427.578V160.08ZM430.798 166.5C431.704 166.5 432.411 166.287 432.918 165.86C433.424 165.433 433.678 164.84 433.678 164.08C433.678 163.307 433.411 162.7 432.878 162.26C432.344 161.807 431.631 161.58 430.738 161.58H427.578V166.5H430.798ZM441.843 155.54V160.2H446.923V161.7H441.843V166.5H447.523V168H440.023V154.04H447.523V155.54H441.843ZM454.097 155.54V160.2H459.177V161.7H454.097V166.5H459.777V168H452.277V154.04H459.777V155.54H454.097Z" fill="white" fill-opacity="0.5"/>
<path d="M182.724 109.112L180.5 106.888C179.956 107.037 179.402 107.112 178.836 107.112C177.802 107.112 176.858 106.872 176.004 106.392C175.151 105.901 174.474 105.224 173.972 104.36C173.482 103.485 173.236 102.504 173.236 101.416C173.236 100.328 173.482 99.352 173.972 98.488C174.474 97.6133 175.151 96.936 176.004 96.456C176.858 95.9653 177.802 95.72 178.836 95.72C179.882 95.72 180.831 95.9653 181.684 96.456C182.538 96.936 183.21 97.608 183.7 98.472C184.191 99.336 184.436 100.317 184.436 101.416C184.436 102.483 184.202 103.443 183.732 104.296C183.263 105.149 182.618 105.821 181.796 106.312L184.612 109.112H182.724ZM174.724 101.416C174.724 102.301 174.9 103.08 175.252 103.752C175.615 104.424 176.106 104.941 176.724 105.304C177.354 105.667 178.058 105.848 178.836 105.848C179.615 105.848 180.314 105.667 180.932 105.304C181.562 104.941 182.052 104.424 182.404 103.752C182.767 103.08 182.948 102.301 182.948 101.416C182.948 100.52 182.767 99.7413 182.404 99.08C182.052 98.408 181.567 97.8907 180.948 97.528C180.33 97.1653 179.626 96.984 178.836 96.984C178.047 96.984 177.343 97.1653 176.724 97.528C176.106 97.8907 175.615 98.408 175.252 99.08C174.9 99.7413 174.724 100.52 174.724 101.416ZM195.766 98.232V107H194.31V105.704C194.032 106.152 193.643 106.504 193.142 106.76C192.651 107.005 192.107 107.128 191.51 107.128C190.827 107.128 190.214 106.989 189.67 106.712C189.126 106.424 188.694 105.997 188.374 105.432C188.064 104.867 187.91 104.179 187.91 103.368V98.232H189.35V103.176C189.35 104.04 189.568 104.707 190.006 105.176C190.443 105.635 191.04 105.864 191.798 105.864C192.576 105.864 193.19 105.624 193.638 105.144C194.086 104.664 194.31 103.965 194.31 103.048V98.232H195.766ZM200.576 96.808C200.299 96.808 200.064 96.712 199.872 96.52C199.68 96.328 199.584 96.0933 199.584 95.816C199.584 95.5387 199.68 95.304 199.872 95.112C200.064 94.92 200.299 94.824 200.576 94.824C200.843 94.824 201.067 94.92 201.248 95.112C201.44 95.304 201.536 95.5387 201.536 95.816C201.536 96.0933 201.44 96.328 201.248 96.52C201.067 96.712 200.843 96.808 200.576 96.808ZM201.28 98.232V107H199.824V98.232H201.28ZM204.818 102.6C204.818 101.693 204.999 100.904 205.362 100.232C205.724 99.5493 206.226 99.0213 206.866 98.648C207.516 98.2747 208.258 98.088 209.09 98.088C210.167 98.088 211.052 98.3493 211.746 98.872C212.45 99.3947 212.914 100.12 213.138 101.048H211.57C211.42 100.515 211.127 100.093 210.69 99.784C210.263 99.4747 209.73 99.32 209.09 99.32C208.258 99.32 207.586 99.608 207.074 100.184C206.562 100.749 206.306 101.555 206.306 102.6C206.306 103.656 206.562 104.472 207.074 105.048C207.586 105.624 208.258 105.912 209.09 105.912C209.73 105.912 210.263 105.763 210.69 105.464C211.116 105.165 211.41 104.739 211.57 104.184H213.138C212.903 105.08 212.434 105.8 211.73 106.344C211.026 106.877 210.146 107.144 209.09 107.144C208.258 107.144 207.516 106.957 206.866 106.584C206.226 106.211 205.724 105.683 205.362 105C204.999 104.317 204.818 103.517 204.818 102.6ZM221.576 107L218.136 103.128V107H216.68V95.16H218.136V102.12L221.512 98.232H223.544L219.416 102.6L223.56 107H221.576ZM234.156 99.432V104.6C234.156 105.027 234.247 105.331 234.428 105.512C234.61 105.683 234.924 105.768 235.372 105.768H236.444V107H235.132C234.322 107 233.714 106.813 233.308 106.44C232.903 106.067 232.7 105.453 232.7 104.6V99.432H231.564V98.232H232.7V96.024H234.156V98.232H236.444V99.432H234.156ZM240.561 96.808C240.283 96.808 240.049 96.712 239.857 96.52C239.665 96.328 239.569 96.0933 239.569 95.816C239.569 95.5387 239.665 95.304 239.857 95.112C240.049 94.92 240.283 94.824 240.561 94.824C240.827 94.824 241.051 94.92 241.233 95.112C241.425 95.304 241.521 95.5387 241.521 95.816C241.521 96.0933 241.425 96.328 241.233 96.52C241.051 96.712 240.827 96.808 240.561 96.808ZM241.265 98.232V107H239.809V98.232H241.265ZM246.802 99.656C247.058 99.1547 247.421 98.7653 247.89 98.488C248.37 98.2107 248.951 98.072 249.634 98.072V99.576H249.25C247.618 99.576 246.802 100.461 246.802 102.232V107H245.346V98.232H246.802V99.656ZM260.915 102.28C260.915 102.557 260.899 102.851 260.867 103.16H253.859C253.912 104.024 254.205 104.701 254.739 105.192C255.283 105.672 255.939 105.912 256.707 105.912C257.336 105.912 257.859 105.768 258.275 105.48C258.701 105.181 259 104.787 259.171 104.296H260.739C260.504 105.139 260.035 105.827 259.331 106.36C258.627 106.883 257.752 107.144 256.707 107.144C255.875 107.144 255.128 106.957 254.467 106.584C253.816 106.211 253.304 105.683 252.931 105C252.557 104.307 252.371 103.507 252.371 102.6C252.371 101.693 252.552 100.899 252.915 100.216C253.277 99.5333 253.784 99.0107 254.435 98.648C255.096 98.2747 255.853 98.088 256.707 98.088C257.539 98.088 258.275 98.2693 258.915 98.632C259.555 98.9947 260.045 99.496 260.387 100.136C260.739 100.765 260.915 101.48 260.915 102.28ZM259.411 101.976C259.411 101.421 259.288 100.947 259.043 100.552C258.797 100.147 258.461 99.8427 258.035 99.64C257.619 99.4267 257.155 99.32 256.643 99.32C255.907 99.32 255.277 99.5547 254.755 100.024C254.243 100.493 253.949 101.144 253.875 101.976H259.411ZM271.758 99.656C272.014 99.1547 272.377 98.7653 272.846 98.488C273.326 98.2107 273.908 98.072 274.59 98.072V99.576H274.206C272.574 99.576 271.758 100.461 271.758 102.232V107H270.302V98.232H271.758V99.656ZM285.871 102.28C285.871 102.557 285.855 102.851 285.823 103.16H278.815C278.868 104.024 279.162 104.701 279.695 105.192C280.239 105.672 280.895 105.912 281.663 105.912C282.292 105.912 282.815 105.768 283.231 105.48C283.658 105.181 283.956 104.787 284.127 104.296H285.695C285.46 105.139 284.991 105.827 284.287 106.36C283.583 106.883 282.708 107.144 281.663 107.144C280.831 107.144 280.084 106.957 279.423 106.584C278.772 106.211 278.26 105.683 277.887 105C277.514 104.307 277.327 103.507 277.327 102.6C277.327 101.693 277.508 100.899 277.871 100.216C278.234 99.5333 278.74 99.0107 279.391 98.648C280.052 98.2747 280.81 98.088 281.663 98.088C282.495 98.088 283.231 98.2693 283.871 98.632C284.511 98.9947 285.002 99.496 285.343 100.136C285.695 100.765 285.871 101.48 285.871 102.28ZM284.367 101.976C284.367 101.421 284.244 100.947 283.999 100.552C283.754 100.147 283.418 99.8427 282.991 99.64C282.575 99.4267 282.111 99.32 281.599 99.32C280.863 99.32 280.234 99.5547 279.711 100.024C279.199 100.493 278.906 101.144 278.831 101.976H284.367ZM290.849 99.848C291.137 99.3467 291.564 98.9307 292.129 98.6C292.705 98.2587 293.372 98.088 294.129 98.088C294.908 98.088 295.612 98.2747 296.241 98.648C296.881 99.0213 297.382 99.5493 297.745 100.232C298.108 100.904 298.289 101.688 298.289 102.584C298.289 103.469 298.108 104.259 297.745 104.952C297.382 105.645 296.881 106.184 296.241 106.568C295.612 106.952 294.908 107.144 294.129 107.144C293.382 107.144 292.721 106.979 292.145 106.648C291.58 106.307 291.148 105.885 290.849 105.384V111.16H289.393V98.232H290.849V99.848ZM296.801 102.584C296.801 101.923 296.668 101.347 296.401 100.856C296.134 100.365 295.772 99.992 295.313 99.736C294.865 99.48 294.369 99.352 293.825 99.352C293.292 99.352 292.796 99.4853 292.337 99.752C291.889 100.008 291.526 100.387 291.249 100.888C290.982 101.379 290.849 101.949 290.849 102.6C290.849 103.261 290.982 103.843 291.249 104.344C291.526 104.835 291.889 105.213 292.337 105.48C292.796 105.736 293.292 105.864 293.825 105.864C294.369 105.864 294.865 105.736 295.313 105.48C295.772 105.213 296.134 104.835 296.401 104.344C296.668 103.843 296.801 103.256 296.801 102.584ZM301.261 102.584C301.261 101.688 301.443 100.904 301.805 100.232C302.168 99.5493 302.664 99.0213 303.293 98.648C303.933 98.2747 304.643 98.088 305.421 98.088C306.189 98.088 306.856 98.2533 307.421 98.584C307.987 98.9147 308.408 99.3307 308.685 99.832V98.232H310.157V107H308.685V105.368C308.397 105.88 307.965 106.307 307.389 106.648C306.824 106.979 306.163 107.144 305.405 107.144C304.627 107.144 303.923 106.952 303.293 106.568C302.664 106.184 302.168 105.645 301.805 104.952C301.443 104.259 301.261 103.469 301.261 102.584ZM308.685 102.6C308.685 101.939 308.552 101.363 308.285 100.872C308.019 100.381 307.656 100.008 307.197 99.752C306.749 99.4853 306.253 99.352 305.709 99.352C305.165 99.352 304.669 99.48 304.221 99.736C303.773 99.992 303.416 100.365 303.149 100.856C302.883 101.347 302.749 101.923 302.749 102.584C302.749 103.256 302.883 103.843 303.149 104.344C303.416 104.835 303.773 105.213 304.221 105.48C304.669 105.736 305.165 105.864 305.709 105.864C306.253 105.864 306.749 105.736 307.197 105.48C307.656 105.213 308.019 104.835 308.285 104.344C308.552 103.843 308.685 103.261 308.685 102.6ZM314.97 96.808C314.693 96.808 314.458 96.712 314.266 96.52C314.074 96.328 313.978 96.0933 313.978 95.816C313.978 95.5387 314.074 95.304 314.266 95.112C314.458 94.92 314.693 94.824 314.97 94.824C315.237 94.824 315.461 94.92 315.642 95.112C315.834 95.304 315.93 95.5387 315.93 95.816C315.93 96.0933 315.834 96.328 315.642 96.52C315.461 96.712 315.237 96.808 314.97 96.808ZM315.674 98.232V107H314.218V98.232H315.674ZM321.211 99.656C321.467 99.1547 321.83 98.7653 322.299 98.488C322.779 98.2107 323.361 98.072 324.043 98.072V99.576H323.659C322.027 99.576 321.211 100.461 321.211 102.232V107H319.755V98.232H321.211V99.656ZM327.788 107.096C327.511 107.096 327.276 107 327.084 106.808C326.892 106.616 326.796 106.381 326.796 106.104C326.796 105.827 326.892 105.592 327.084 105.4C327.276 105.208 327.511 105.112 327.788 105.112C328.055 105.112 328.279 105.208 328.46 105.4C328.652 105.592 328.748 105.827 328.748 106.104C328.748 106.381 328.652 106.616 328.46 106.808C328.279 107 328.055 107.096 327.788 107.096Z" fill="white"/>
<path opacity="0.2" d="M275 141L460.991 141" stroke="white"/>
<path d="M60.8643 35.6367C58.9111 37.0527 56.7871 38.1514 54.4922 38.9326C52.2461 39.7139 50.0488 40.1045 47.9004 40.1045C46.4355 40.1045 45.0195 39.9092 43.6523 39.5186C42.334 39.0791 41.1621 38.4443 40.1367 37.6143C39.1113 36.7842 38.2812 35.7344 37.6465 34.4648C37.0605 33.1465 36.7676 31.6328 36.7676 29.9238C36.7676 27.873 37.0605 25.9443 37.6465 24.1377C38.2324 22.2822 39.1357 20.2803 40.3564 18.1318C41.5771 15.9346 43.0908 13.4687 44.8975 10.7344C46.7041 8 48.8281 4.72852 51.2695 0.919922H63.8672L56.1768 22.0869L60.8643 35.6367ZM28.4912 35.7832C26.5381 37.1992 24.4141 38.2979 22.1191 39.0791C19.873 39.8115 17.6758 40.1777 15.5273 40.1777C14.0625 40.1777 12.6465 39.9824 11.2793 39.5918C9.96094 39.1523 8.78906 38.5176 7.76367 37.6875C6.73828 36.8574 5.9082 35.8076 5.27344 34.5381C4.6875 33.2197 4.39453 31.7061 4.39453 29.9971C4.39453 27.9463 4.6875 26.0176 5.27344 24.2109C5.85938 22.3555 6.7627 20.3535 7.9834 18.2051C9.2041 16.0078 10.7178 13.542 12.5244 10.8076C14.3311 8.07324 16.4551 4.80176 18.8965 0.993164H31.4941L23.8037 22.1602L28.4912 35.7832Z" fill="white" fill-opacity="0.5"/>
</svg>
