<svg width="475" height="183" viewBox="0 0 475 183" fill="none" xmlns="http://www.w3.org/2000/svg">
<path opacity="0.7" d="M27 27.6198C27 22.8592 30.0858 19 33.8923 19H468.108C471.914 19 475 22.8592 475 27.6198V174.38C475 179.141 471.914 183 468.108 183H33.8923C30.0858 183 27 179.141 27 174.38V27.6198Z" fill="#950E0E"/>
<path d="M245.71 155.54V160.2H250.79V161.7H245.71V166.5H251.39V168H243.89V154.04H251.39V155.54H245.71ZM270.284 154.16V168H268.464V157.68L263.864 168H262.584L257.964 157.66V168H256.144V154.16H258.104L263.224 165.6L268.344 154.16H270.284ZM289.511 154.16V168H287.691V157.68L283.091 168H281.811L277.191 157.66V168H275.371V154.16H277.331L282.451 165.6L287.571 154.16H289.511ZM302.837 164.9H296.757L295.637 168H293.717L298.757 154.14H300.857L305.877 168H303.957L302.837 164.9ZM302.317 163.42L299.797 156.38L297.277 163.42H302.317ZM321.034 168H319.214L311.894 156.9V168H310.074V154.04H311.894L319.214 165.12V154.04H321.034V168ZM327.916 154.06V162.88C327.916 164.12 328.216 165.04 328.816 165.64C329.43 166.24 330.276 166.54 331.356 166.54C332.423 166.54 333.256 166.24 333.856 165.64C334.47 165.04 334.776 164.12 334.776 162.88V154.06H336.596V162.86C336.596 164.02 336.363 165 335.896 165.8C335.43 166.587 334.796 167.173 333.996 167.56C333.21 167.947 332.323 168.14 331.336 168.14C330.35 168.14 329.456 167.947 328.656 167.56C327.87 167.173 327.243 166.587 326.776 165.8C326.323 165 326.096 164.02 326.096 162.86V154.06H327.916ZM343.453 155.54V160.2H348.533V161.7H343.453V166.5H349.133V168H341.633V154.04H349.133V155.54H343.453ZM355.706 166.52H360.586V168H353.886V154.06H355.706V166.52ZM376.271 168.14C375.351 168.14 374.525 167.98 373.791 167.66C373.071 167.327 372.505 166.873 372.091 166.3C371.678 165.713 371.465 165.04 371.451 164.28H373.391C373.458 164.933 373.725 165.487 374.191 165.94C374.671 166.38 375.365 166.6 376.271 166.6C377.138 166.6 377.818 166.387 378.311 165.96C378.818 165.52 379.071 164.96 379.071 164.28C379.071 163.747 378.925 163.313 378.631 162.98C378.338 162.647 377.971 162.393 377.531 162.22C377.091 162.047 376.498 161.86 375.751 161.66C374.831 161.42 374.091 161.18 373.531 160.94C372.985 160.7 372.511 160.327 372.111 159.82C371.725 159.3 371.531 158.607 371.531 157.74C371.531 156.98 371.725 156.307 372.111 155.72C372.498 155.133 373.038 154.68 373.731 154.36C374.438 154.04 375.245 153.88 376.151 153.88C377.458 153.88 378.525 154.207 379.351 154.86C380.191 155.513 380.665 156.38 380.771 157.46H378.771C378.705 156.927 378.425 156.46 377.931 156.06C377.438 155.647 376.785 155.44 375.971 155.44C375.211 155.44 374.591 155.64 374.111 156.04C373.631 156.427 373.391 156.973 373.391 157.68C373.391 158.187 373.531 158.6 373.811 158.92C374.105 159.24 374.458 159.487 374.871 159.66C375.298 159.82 375.891 160.007 376.651 160.22C377.571 160.473 378.311 160.727 378.871 160.98C379.431 161.22 379.911 161.6 380.311 162.12C380.711 162.627 380.911 163.32 380.911 164.2C380.911 164.88 380.731 165.52 380.371 166.12C380.011 166.72 379.478 167.207 378.771 167.58C378.065 167.953 377.231 168.14 376.271 168.14ZM387.41 154.06V168H385.59V154.06H387.41ZM406.651 154.16V168H404.831V157.68L400.231 168H398.951L394.331 157.66V168H392.511V154.16H394.471L399.591 165.6L404.711 154.16H406.651ZM413.558 154.06V168H411.738V154.06H413.558ZM420.48 166.52H425.36V168H418.66V154.06H420.48V166.52ZM431.113 154.06V168H429.293V154.06H431.113ZM438.035 155.54V160.2H443.115V161.7H438.035V166.5H443.715V168H436.215V154.04H443.715V155.54H438.035ZM459.428 168H457.608L450.288 156.9V168H448.468V154.04H450.288L457.608 165.12V154.04H459.428V168Z" fill="white" fill-opacity="0.5"/>
<path d="M96.5159 84.08C96.2066 83.4293 95.7586 82.928 95.1719 82.576C94.5853 82.2133 93.9026 82.032 93.1239 82.032C92.3453 82.032 91.6413 82.2133 91.0119 82.576C90.3933 82.928 89.9026 83.44 89.5399 84.112C89.1879 84.7733 89.0119 85.5413 89.0119 86.416C89.0119 87.2907 89.1879 88.0587 89.5399 88.72C89.9026 89.3813 90.3933 89.8933 91.0119 90.256C91.6413 90.608 92.3453 90.784 93.1239 90.784C94.2119 90.784 95.1079 90.4587 95.8119 89.808C96.5159 89.1573 96.9266 88.2773 97.0439 87.168H92.5959V85.984H98.5959V87.104C98.5106 88.0213 98.2226 88.864 97.7319 89.632C97.2413 90.3893 96.5959 90.992 95.7959 91.44C94.9959 91.8773 94.1053 92.096 93.1239 92.096C92.0893 92.096 91.1453 91.856 90.2919 91.376C89.4386 90.8853 88.7613 90.208 88.2599 89.344C87.7693 88.48 87.5239 87.504 87.5239 86.416C87.5239 85.328 87.7693 84.352 88.2599 83.488C88.7613 82.6133 89.4386 81.936 90.2919 81.456C91.1453 80.9653 92.0893 80.72 93.1239 80.72C94.3079 80.72 95.3533 81.0133 96.2599 81.6C97.1773 82.1867 97.8439 83.0133 98.2599 84.08H96.5159ZM105.945 92.144C105.124 92.144 104.377 91.9573 103.705 91.584C103.044 91.2107 102.521 90.6827 102.137 90C101.764 89.3067 101.577 88.5067 101.577 87.6C101.577 86.704 101.769 85.9147 102.153 85.232C102.548 84.5387 103.081 84.0107 103.753 83.648C104.425 83.2747 105.177 83.088 106.009 83.088C106.841 83.088 107.593 83.2747 108.265 83.648C108.937 84.0107 109.465 84.5333 109.849 85.216C110.244 85.8987 110.441 86.6933 110.441 87.6C110.441 88.5067 110.238 89.3067 109.833 90C109.438 90.6827 108.9 91.2107 108.217 91.584C107.534 91.9573 106.777 92.144 105.945 92.144ZM105.945 90.864C106.468 90.864 106.958 90.7413 107.417 90.496C107.876 90.2507 108.244 89.8827 108.521 89.392C108.809 88.9013 108.953 88.304 108.953 87.6C108.953 86.896 108.814 86.2987 108.537 85.808C108.26 85.3173 107.897 84.9547 107.449 84.72C107.001 84.4747 106.516 84.352 105.993 84.352C105.46 84.352 104.969 84.4747 104.521 84.72C104.084 84.9547 103.732 85.3173 103.465 85.808C103.198 86.2987 103.065 86.896 103.065 87.6C103.065 88.3147 103.193 88.9173 103.449 89.408C103.716 89.8987 104.068 90.2667 104.505 90.512C104.942 90.7467 105.422 90.864 105.945 90.864ZM117.779 92.144C116.958 92.144 116.211 91.9573 115.539 91.584C114.878 91.2107 114.355 90.6827 113.971 90C113.598 89.3067 113.411 88.5067 113.411 87.6C113.411 86.704 113.603 85.9147 113.987 85.232C114.382 84.5387 114.915 84.0107 115.587 83.648C116.259 83.2747 117.011 83.088 117.843 83.088C118.675 83.088 119.427 83.2747 120.099 83.648C120.771 84.0107 121.299 84.5333 121.683 85.216C122.078 85.8987 122.275 86.6933 122.275 87.6C122.275 88.5067 122.073 89.3067 121.667 90C121.273 90.6827 120.734 91.2107 120.051 91.584C119.369 91.9573 118.611 92.144 117.779 92.144ZM117.779 90.864C118.302 90.864 118.793 90.7413 119.251 90.496C119.71 90.2507 120.078 89.8827 120.355 89.392C120.643 88.9013 120.787 88.304 120.787 87.6C120.787 86.896 120.649 86.2987 120.371 85.808C120.094 85.3173 119.731 84.9547 119.283 84.72C118.835 84.4747 118.35 84.352 117.827 84.352C117.294 84.352 116.803 84.4747 116.355 84.72C115.918 84.9547 115.566 85.3173 115.299 85.808C115.033 86.2987 114.899 86.896 114.899 87.6C114.899 88.3147 115.027 88.9173 115.283 89.408C115.55 89.8987 115.902 90.2667 116.339 90.512C116.777 90.7467 117.257 90.864 117.779 90.864ZM125.246 87.584C125.246 86.688 125.427 85.904 125.79 85.232C126.152 84.5493 126.648 84.0213 127.278 83.648C127.918 83.2747 128.632 83.088 129.422 83.088C130.104 83.088 130.739 83.248 131.326 83.568C131.912 83.8773 132.36 84.288 132.67 84.8V80.16H134.142V92H132.67V90.352C132.382 90.8747 131.955 91.3067 131.39 91.648C130.824 91.9787 130.163 92.144 129.406 92.144C128.627 92.144 127.918 91.952 127.278 91.568C126.648 91.184 126.152 90.6453 125.79 89.952C125.427 89.2587 125.246 88.4693 125.246 87.584ZM132.67 87.6C132.67 86.9387 132.536 86.3627 132.27 85.872C132.003 85.3813 131.64 85.008 131.182 84.752C130.734 84.4853 130.238 84.352 129.694 84.352C129.15 84.352 128.654 84.48 128.206 84.736C127.758 84.992 127.4 85.3653 127.134 85.856C126.867 86.3467 126.734 86.9227 126.734 87.584C126.734 88.256 126.867 88.8427 127.134 89.344C127.4 89.8347 127.758 90.2133 128.206 90.48C128.654 90.736 129.15 90.864 129.694 90.864C130.238 90.864 130.734 90.736 131.182 90.48C131.64 90.2133 132.003 89.8347 132.27 89.344C132.536 88.8427 132.67 88.2613 132.67 87.6ZM145.844 84.432V89.6C145.844 90.0267 145.935 90.3307 146.116 90.512C146.297 90.6827 146.612 90.768 147.06 90.768H148.132V92H146.82C146.009 92 145.401 91.8133 144.996 91.44C144.591 91.0667 144.388 90.4533 144.388 89.6V84.432H143.252V83.232H144.388V81.024H145.844V83.232H148.132V84.432H145.844ZM155.32 92.144C154.499 92.144 153.752 91.9573 153.08 91.584C152.419 91.2107 151.896 90.6827 151.512 90C151.139 89.3067 150.952 88.5067 150.952 87.6C150.952 86.704 151.144 85.9147 151.528 85.232C151.923 84.5387 152.456 84.0107 153.128 83.648C153.8 83.2747 154.552 83.088 155.384 83.088C156.216 83.088 156.968 83.2747 157.64 83.648C158.312 84.0107 158.84 84.5333 159.224 85.216C159.619 85.8987 159.816 86.6933 159.816 87.6C159.816 88.5067 159.613 89.3067 159.208 90C158.813 90.6827 158.275 91.2107 157.592 91.584C156.909 91.9573 156.152 92.144 155.32 92.144ZM155.32 90.864C155.843 90.864 156.333 90.7413 156.792 90.496C157.251 90.2507 157.619 89.8827 157.896 89.392C158.184 88.9013 158.328 88.304 158.328 87.6C158.328 86.896 158.189 86.2987 157.912 85.808C157.635 85.3173 157.272 84.9547 156.824 84.72C156.376 84.4747 155.891 84.352 155.368 84.352C154.835 84.352 154.344 84.4747 153.896 84.72C153.459 84.9547 153.107 85.3173 152.84 85.808C152.573 86.2987 152.44 86.896 152.44 87.6C152.44 88.3147 152.568 88.9173 152.824 89.408C153.091 89.8987 153.443 90.2667 153.88 90.512C154.317 90.7467 154.797 90.864 155.32 90.864ZM172.812 83.088C173.569 83.088 174.231 83.2533 174.796 83.584C175.372 83.9147 175.799 84.3307 176.076 84.832V83.232H177.548V92.192C177.548 92.992 177.377 93.7013 177.036 94.32C176.695 94.9493 176.204 95.44 175.564 95.792C174.935 96.144 174.199 96.32 173.356 96.32C172.204 96.32 171.244 96.048 170.476 95.504C169.708 94.96 169.255 94.2187 169.116 93.28H170.556C170.716 93.8133 171.047 94.24 171.548 94.56C172.049 94.8907 172.652 95.056 173.356 95.056C174.156 95.056 174.807 94.8053 175.308 94.304C175.82 93.8027 176.076 93.0987 176.076 92.192V90.352C175.788 90.864 175.361 91.2907 174.796 91.632C174.231 91.9733 173.569 92.144 172.812 92.144C172.033 92.144 171.324 91.952 170.684 91.568C170.055 91.184 169.559 90.6453 169.196 89.952C168.833 89.2587 168.652 88.4693 168.652 87.584C168.652 86.688 168.833 85.904 169.196 85.232C169.559 84.5493 170.055 84.0213 170.684 83.648C171.324 83.2747 172.033 83.088 172.812 83.088ZM176.076 87.6C176.076 86.9387 175.943 86.3627 175.676 85.872C175.409 85.3813 175.047 85.008 174.588 84.752C174.14 84.4853 173.644 84.352 173.1 84.352C172.556 84.352 172.06 84.48 171.612 84.736C171.164 84.992 170.807 85.3653 170.54 85.856C170.273 86.3467 170.14 86.9227 170.14 87.584C170.14 88.256 170.273 88.8427 170.54 89.344C170.807 89.8347 171.164 90.2133 171.612 90.48C172.06 90.736 172.556 90.864 173.1 90.864C173.644 90.864 174.14 90.736 174.588 90.48C175.047 90.2133 175.409 89.8347 175.676 89.344C175.943 88.8427 176.076 88.2613 176.076 87.6ZM185.433 92.144C184.611 92.144 183.865 91.9573 183.193 91.584C182.531 91.2107 182.009 90.6827 181.625 90C181.251 89.3067 181.065 88.5067 181.065 87.6C181.065 86.704 181.257 85.9147 181.641 85.232C182.035 84.5387 182.569 84.0107 183.241 83.648C183.913 83.2747 184.665 83.088 185.497 83.088C186.329 83.088 187.081 83.2747 187.753 83.648C188.425 84.0107 188.953 84.5333 189.337 85.216C189.731 85.8987 189.929 86.6933 189.929 87.6C189.929 88.5067 189.726 89.3067 189.321 90C188.926 90.6827 188.387 91.2107 187.705 91.584C187.022 91.9573 186.265 92.144 185.433 92.144ZM185.433 90.864C185.955 90.864 186.446 90.7413 186.905 90.496C187.363 90.2507 187.731 89.8827 188.009 89.392C188.297 88.9013 188.441 88.304 188.441 87.6C188.441 86.896 188.302 86.2987 188.025 85.808C187.747 85.3173 187.385 84.9547 186.937 84.72C186.489 84.4747 186.003 84.352 185.481 84.352C184.947 84.352 184.457 84.4747 184.009 84.72C183.571 84.9547 183.219 85.3173 182.953 85.808C182.686 86.2987 182.553 86.896 182.553 87.6C182.553 88.3147 182.681 88.9173 182.937 89.408C183.203 89.8987 183.555 90.2667 183.993 90.512C184.43 90.7467 184.91 90.864 185.433 90.864ZM193.907 92.096C193.63 92.096 193.395 92 193.203 91.808C193.011 91.616 192.915 91.3813 192.915 91.104C192.915 90.8267 193.011 90.592 193.203 90.4C193.395 90.208 193.63 90.112 193.907 90.112C194.174 90.112 194.398 90.208 194.579 90.4C194.771 90.592 194.867 90.8267 194.867 91.104C194.867 91.3813 194.771 91.616 194.579 91.808C194.398 92 194.174 92.096 193.907 92.096ZM209.852 86.256C210.257 86.32 210.625 86.4853 210.956 86.752C211.297 87.0187 211.564 87.3493 211.756 87.744C211.959 88.1387 212.06 88.56 212.06 89.008C212.06 89.5733 211.916 90.0853 211.628 90.544C211.34 90.992 210.919 91.3493 210.364 91.616C209.82 91.872 209.175 92 208.428 92H204.268V80.848H208.268C209.025 80.848 209.671 80.976 210.204 81.232C210.737 81.4773 211.137 81.8133 211.404 82.24C211.671 82.6667 211.804 83.1467 211.804 83.68C211.804 84.3413 211.623 84.8907 211.26 85.328C210.908 85.7547 210.439 86.064 209.852 86.256ZM205.724 85.664H208.172C208.855 85.664 209.383 85.504 209.756 85.184C210.129 84.864 210.316 84.4213 210.316 83.856C210.316 83.2907 210.129 82.848 209.756 82.528C209.383 82.208 208.844 82.048 208.14 82.048H205.724V85.664ZM208.3 90.8C209.025 90.8 209.591 90.6293 209.996 90.288C210.401 89.9467 210.604 89.472 210.604 88.864C210.604 88.2453 210.391 87.76 209.964 87.408C209.537 87.0453 208.967 86.864 208.252 86.864H205.724V90.8H208.3ZM223.68 87.28C223.68 87.5573 223.664 87.8507 223.632 88.16H216.624C216.678 89.024 216.971 89.7013 217.504 90.192C218.048 90.672 218.704 90.912 219.472 90.912C220.102 90.912 220.624 90.768 221.04 90.48C221.467 90.1813 221.766 89.7867 221.936 89.296H223.504C223.27 90.1387 222.8 90.8267 222.096 91.36C221.392 91.8827 220.518 92.144 219.472 92.144C218.64 92.144 217.894 91.9573 217.232 91.584C216.582 91.2107 216.07 90.6827 215.696 90C215.323 89.3067 215.136 88.5067 215.136 87.6C215.136 86.6933 215.318 85.8987 215.68 85.216C216.043 84.5333 216.55 84.0107 217.2 83.648C217.862 83.2747 218.619 83.088 219.472 83.088C220.304 83.088 221.04 83.2693 221.68 83.632C222.32 83.9947 222.811 84.496 223.152 85.136C223.504 85.7653 223.68 86.48 223.68 87.28ZM222.176 86.976C222.176 86.4213 222.054 85.9467 221.808 85.552C221.563 85.1467 221.227 84.8427 220.8 84.64C220.384 84.4267 219.92 84.32 219.408 84.32C218.672 84.32 218.043 84.5547 217.52 85.024C217.008 85.4933 216.715 86.144 216.64 86.976H222.176ZM231.474 83.072C232.541 83.072 233.405 83.3973 234.066 84.048C234.728 84.688 235.058 85.616 235.058 86.832V92H233.618V87.04C233.618 86.1653 233.4 85.4987 232.962 85.04C232.525 84.5707 231.928 84.336 231.17 84.336C230.402 84.336 229.789 84.576 229.33 85.056C228.882 85.536 228.658 86.2347 228.658 87.152V92H227.202V83.232H228.658V84.48C228.946 84.032 229.336 83.6853 229.826 83.44C230.328 83.1947 230.877 83.072 231.474 83.072ZM245.654 81.808C245.377 81.808 245.142 81.712 244.95 81.52C244.758 81.328 244.662 81.0933 244.662 80.816C244.662 80.5387 244.758 80.304 244.95 80.112C245.142 79.92 245.377 79.824 245.654 79.824C245.921 79.824 246.145 79.92 246.326 80.112C246.518 80.304 246.614 80.5387 246.614 80.816C246.614 81.0933 246.518 81.328 246.326 81.52C246.145 81.712 245.921 81.808 245.654 81.808ZM246.358 83.232V92H244.902V83.232H246.358ZM253.544 92.144C252.872 92.144 252.269 92.032 251.736 91.808C251.202 91.5733 250.781 91.2533 250.472 90.848C250.162 90.432 249.992 89.9573 249.96 89.424H251.464C251.506 89.8613 251.709 90.2187 252.072 90.496C252.445 90.7733 252.93 90.912 253.528 90.912C254.082 90.912 254.52 90.7893 254.84 90.544C255.16 90.2987 255.32 89.9893 255.32 89.616C255.32 89.232 255.149 88.9493 254.808 88.768C254.466 88.576 253.938 88.3893 253.224 88.208C252.573 88.0373 252.04 87.8667 251.624 87.696C251.218 87.5147 250.866 87.2533 250.568 86.912C250.28 86.56 250.136 86.1013 250.136 85.536C250.136 85.088 250.269 84.6773 250.536 84.304C250.802 83.9307 251.181 83.6373 251.672 83.424C252.162 83.2 252.722 83.088 253.352 83.088C254.322 83.088 255.106 83.3333 255.704 83.824C256.301 84.3147 256.621 84.9867 256.664 85.84H255.208C255.176 85.3813 254.989 85.0133 254.648 84.736C254.317 84.4587 253.869 84.32 253.304 84.32C252.781 84.32 252.365 84.432 252.056 84.656C251.746 84.88 251.592 85.1733 251.592 85.536C251.592 85.824 251.682 86.064 251.864 86.256C252.056 86.4373 252.29 86.5867 252.568 86.704C252.856 86.8107 253.25 86.9333 253.752 87.072C254.381 87.2427 254.893 87.4133 255.288 87.584C255.682 87.744 256.018 87.9893 256.296 88.32C256.584 88.6507 256.733 89.0827 256.744 89.616C256.744 90.096 256.61 90.528 256.344 90.912C256.077 91.296 255.698 91.6 255.208 91.824C254.728 92.0373 254.173 92.144 253.544 92.144ZM265.721 87.584C265.721 86.688 265.902 85.904 266.265 85.232C266.627 84.5493 267.123 84.0213 267.753 83.648C268.393 83.2747 269.102 83.088 269.881 83.088C270.649 83.088 271.315 83.2533 271.881 83.584C272.446 83.9147 272.867 84.3307 273.145 84.832V83.232H274.617V92H273.145V90.368C272.857 90.88 272.425 91.3067 271.849 91.648C271.283 91.9787 270.622 92.144 269.865 92.144C269.086 92.144 268.382 91.952 267.753 91.568C267.123 91.184 266.627 90.6453 266.265 89.952C265.902 89.2587 265.721 88.4693 265.721 87.584ZM273.145 87.6C273.145 86.9387 273.011 86.3627 272.745 85.872C272.478 85.3813 272.115 85.008 271.657 84.752C271.209 84.4853 270.713 84.352 270.169 84.352C269.625 84.352 269.129 84.48 268.681 84.736C268.233 84.992 267.875 85.3653 267.609 85.856C267.342 86.3467 267.209 86.9227 267.209 87.584C267.209 88.256 267.342 88.8427 267.609 89.344C267.875 89.8347 268.233 90.2133 268.681 90.48C269.129 90.736 269.625 90.864 270.169 90.864C270.713 90.864 271.209 90.736 271.657 90.48C272.115 90.2133 272.478 89.8347 272.745 89.344C273.011 88.8427 273.145 88.2613 273.145 87.6ZM287.807 90.656L290.527 83.232H292.079L288.639 92H286.943L283.503 83.232H285.071L287.807 90.656ZM303.112 87.28C303.112 87.5573 303.096 87.8507 303.064 88.16H296.056C296.109 89.024 296.402 89.7013 296.936 90.192C297.48 90.672 298.136 90.912 298.904 90.912C299.533 90.912 300.056 90.768 300.472 90.48C300.898 90.1813 301.197 89.7867 301.368 89.296H302.936C302.701 90.1387 302.232 90.8267 301.528 91.36C300.824 91.8827 299.949 92.144 298.904 92.144C298.072 92.144 297.325 91.9573 296.664 91.584C296.013 91.2107 295.501 90.6827 295.128 90C294.754 89.3067 294.568 88.5067 294.568 87.6C294.568 86.6933 294.749 85.8987 295.112 85.216C295.474 84.5333 295.981 84.0107 296.632 83.648C297.293 83.2747 298.05 83.088 298.904 83.088C299.736 83.088 300.472 83.2693 301.112 83.632C301.752 83.9947 302.242 84.496 302.584 85.136C302.936 85.7653 303.112 86.48 303.112 87.28ZM301.608 86.976C301.608 86.4213 301.485 85.9467 301.24 85.552C300.994 85.1467 300.658 84.8427 300.232 84.64C299.816 84.4267 299.352 84.32 298.84 84.32C298.104 84.32 297.474 84.5547 296.952 85.024C296.44 85.4933 296.146 86.144 296.072 86.976H301.608ZM308.09 84.656C308.346 84.1547 308.708 83.7653 309.178 83.488C309.658 83.2107 310.239 83.072 310.922 83.072V84.576H310.538C308.906 84.576 308.09 85.4613 308.09 87.232V92H306.634V83.232H308.09V84.656ZM321.754 83.232L316.474 96.128H314.97L316.698 91.904L313.162 83.232H314.778L317.53 90.336L320.25 83.232H321.754ZM334.956 83.072C336.022 83.072 336.886 83.3973 337.548 84.048C338.209 84.688 338.54 85.616 338.54 86.832V92H337.1V87.04C337.1 86.1653 336.881 85.4987 336.444 85.04C336.006 84.5707 335.409 84.336 334.652 84.336C333.884 84.336 333.27 84.576 332.812 85.056C332.364 85.536 332.14 86.2347 332.14 87.152V92H330.684V83.232H332.14V84.48C332.428 84.032 332.817 83.6853 333.308 83.44C333.809 83.1947 334.358 83.072 334.956 83.072ZM343.27 81.808C342.993 81.808 342.758 81.712 342.566 81.52C342.374 81.328 342.278 81.0933 342.278 80.816C342.278 80.5387 342.374 80.304 342.566 80.112C342.758 79.92 342.993 79.824 343.27 79.824C343.537 79.824 343.761 79.92 343.942 80.112C344.134 80.304 344.23 80.5387 344.23 80.816C344.23 81.0933 344.134 81.328 343.942 81.52C343.761 81.712 343.537 81.808 343.27 81.808ZM343.974 83.232V92H342.518V83.232H343.974ZM347.511 87.6C347.511 86.6933 347.693 85.904 348.055 85.232C348.418 84.5493 348.919 84.0213 349.559 83.648C350.21 83.2747 350.951 83.088 351.783 83.088C352.861 83.088 353.746 83.3493 354.439 83.872C355.143 84.3947 355.607 85.12 355.831 86.048H354.263C354.114 85.5147 353.821 85.0933 353.383 84.784C352.957 84.4747 352.423 84.32 351.783 84.32C350.951 84.32 350.279 84.608 349.767 85.184C349.255 85.7493 348.999 86.5547 348.999 87.6C348.999 88.656 349.255 89.472 349.767 90.048C350.279 90.624 350.951 90.912 351.783 90.912C352.423 90.912 352.957 90.7627 353.383 90.464C353.81 90.1653 354.103 89.7387 354.263 89.184H355.831C355.597 90.08 355.127 90.8 354.423 91.344C353.719 91.8773 352.839 92.144 351.783 92.144C350.951 92.144 350.21 91.9573 349.559 91.584C348.919 91.2107 348.418 90.6827 348.055 90C347.693 89.3173 347.511 88.5173 347.511 87.6ZM367.374 87.28C367.374 87.5573 367.358 87.8507 367.326 88.16H360.318C360.372 89.024 360.665 89.7013 361.198 90.192C361.742 90.672 362.398 90.912 363.166 90.912C363.796 90.912 364.318 90.768 364.734 90.48C365.161 90.1813 365.46 89.7867 365.63 89.296H367.198C366.964 90.1387 366.494 90.8267 365.79 91.36C365.086 91.8827 364.212 92.144 363.166 92.144C362.334 92.144 361.588 91.9573 360.926 91.584C360.276 91.2107 359.764 90.6827 359.39 90C359.017 89.3067 358.83 88.5067 358.83 87.6C358.83 86.6933 359.012 85.8987 359.374 85.216C359.737 84.5333 360.244 84.0107 360.894 83.648C361.556 83.2747 362.313 83.088 363.166 83.088C363.998 83.088 364.734 83.2693 365.374 83.632C366.014 83.9947 366.505 84.496 366.846 85.136C367.198 85.7653 367.374 86.48 367.374 87.28ZM365.87 86.976C365.87 86.4213 365.748 85.9467 365.502 85.552C365.257 85.1467 364.921 84.8427 364.494 84.64C364.078 84.4267 363.614 84.32 363.102 84.32C362.366 84.32 361.737 84.5547 361.214 85.024C360.702 85.4933 360.409 86.144 360.334 86.976H365.87ZM380.378 83.088C381.135 83.088 381.796 83.2533 382.362 83.584C382.938 83.9147 383.364 84.3307 383.642 84.832V83.232H385.114V92.192C385.114 92.992 384.943 93.7013 384.602 94.32C384.26 94.9493 383.77 95.44 383.13 95.792C382.5 96.144 381.764 96.32 380.922 96.32C379.77 96.32 378.81 96.048 378.042 95.504C377.274 94.96 376.82 94.2187 376.682 93.28H378.122C378.282 93.8133 378.612 94.24 379.114 94.56C379.615 94.8907 380.218 95.056 380.922 95.056C381.722 95.056 382.372 94.8053 382.874 94.304C383.386 93.8027 383.642 93.0987 383.642 92.192V90.352C383.354 90.864 382.927 91.2907 382.362 91.632C381.796 91.9733 381.135 92.144 380.378 92.144C379.599 92.144 378.89 91.952 378.25 91.568C377.62 91.184 377.124 90.6453 376.762 89.952C376.399 89.2587 376.218 88.4693 376.218 87.584C376.218 86.688 376.399 85.904 376.762 85.232C377.124 84.5493 377.62 84.0213 378.25 83.648C378.89 83.2747 379.599 83.088 380.378 83.088ZM383.642 87.6C383.642 86.9387 383.508 86.3627 383.242 85.872C382.975 85.3813 382.612 85.008 382.154 84.752C381.706 84.4853 381.21 84.352 380.666 84.352C380.122 84.352 379.626 84.48 379.178 84.736C378.73 84.992 378.372 85.3653 378.106 85.856C377.839 86.3467 377.706 86.9227 377.706 87.584C377.706 88.256 377.839 88.8427 378.106 89.344C378.372 89.8347 378.73 90.2133 379.178 90.48C379.626 90.736 380.122 90.864 380.666 90.864C381.21 90.864 381.706 90.736 382.154 90.48C382.612 90.2133 382.975 89.8347 383.242 89.344C383.508 88.8427 383.642 88.2613 383.642 87.6ZM396.95 83.232V92H395.494V90.704C395.217 91.152 394.828 91.504 394.326 91.76C393.836 92.0053 393.292 92.128 392.694 92.128C392.012 92.128 391.398 91.9893 390.854 91.712C390.31 91.424 389.878 90.9973 389.558 90.432C389.249 89.8667 389.094 89.1787 389.094 88.368V83.232H390.534V88.176C390.534 89.04 390.753 89.7067 391.19 90.176C391.628 90.6347 392.225 90.864 392.982 90.864C393.761 90.864 394.374 90.624 394.822 90.144C395.27 89.664 395.494 88.9653 395.494 88.048V83.232H396.95ZM408.561 83.232L403.281 96.128H401.777L403.505 91.904L399.969 83.232H401.585L404.337 90.336L407.057 83.232H408.561ZM413.128 89.984L411.336 94.288H410.36L411.528 89.984H413.128ZM131.461 116L128.021 112.128V116H126.565V104.16H128.021V111.12L131.397 107.232H133.429L129.301 111.6L133.445 116H131.461ZM140.671 107.072C141.738 107.072 142.602 107.397 143.263 108.048C143.925 108.688 144.255 109.616 144.255 110.832V116H142.815V111.04C142.815 110.165 142.597 109.499 142.159 109.04C141.722 108.571 141.125 108.336 140.367 108.336C139.599 108.336 138.986 108.576 138.527 109.056C138.079 109.536 137.855 110.235 137.855 111.152V116H136.399V107.232H137.855V108.48C138.143 108.032 138.533 107.685 139.023 107.44C139.525 107.195 140.074 107.072 140.671 107.072ZM152.058 116.144C151.236 116.144 150.49 115.957 149.818 115.584C149.156 115.211 148.634 114.683 148.25 114C147.876 113.307 147.69 112.507 147.69 111.6C147.69 110.704 147.882 109.915 148.266 109.232C148.66 108.539 149.194 108.011 149.866 107.648C150.538 107.275 151.29 107.088 152.122 107.088C152.954 107.088 153.706 107.275 154.378 107.648C155.05 108.011 155.578 108.533 155.962 109.216C156.356 109.899 156.554 110.693 156.554 111.6C156.554 112.507 156.351 113.307 155.946 114C155.551 114.683 155.012 115.211 154.33 115.584C153.647 115.957 152.89 116.144 152.058 116.144ZM152.058 114.864C152.58 114.864 153.071 114.741 153.53 114.496C153.988 114.251 154.356 113.883 154.634 113.392C154.922 112.901 155.066 112.304 155.066 111.6C155.066 110.896 154.927 110.299 154.65 109.808C154.372 109.317 154.01 108.955 153.562 108.72C153.114 108.475 152.628 108.352 152.106 108.352C151.572 108.352 151.082 108.475 150.634 108.72C150.196 108.955 149.844 109.317 149.578 109.808C149.311 110.299 149.178 110.896 149.178 111.6C149.178 112.315 149.306 112.917 149.562 113.408C149.828 113.899 150.18 114.267 150.618 114.512C151.055 114.747 151.535 114.864 152.058 114.864ZM171.748 107.232L169.012 116H167.508L165.396 109.04L163.284 116H161.78L159.028 107.232H160.516L162.532 114.592L164.708 107.232H166.196L168.324 114.608L170.308 107.232H171.748ZM177.897 116.144C177.225 116.144 176.622 116.032 176.089 115.808C175.556 115.573 175.134 115.253 174.825 114.848C174.516 114.432 174.345 113.957 174.313 113.424H175.817C175.86 113.861 176.062 114.219 176.425 114.496C176.798 114.773 177.284 114.912 177.881 114.912C178.436 114.912 178.873 114.789 179.193 114.544C179.513 114.299 179.673 113.989 179.673 113.616C179.673 113.232 179.502 112.949 179.161 112.768C178.82 112.576 178.292 112.389 177.577 112.208C176.926 112.037 176.393 111.867 175.977 111.696C175.572 111.515 175.22 111.253 174.921 110.912C174.633 110.56 174.489 110.101 174.489 109.536C174.489 109.088 174.622 108.677 174.889 108.304C175.156 107.931 175.534 107.637 176.025 107.424C176.516 107.2 177.076 107.088 177.705 107.088C178.676 107.088 179.46 107.333 180.057 107.824C180.654 108.315 180.974 108.987 181.017 109.84H179.561C179.529 109.381 179.342 109.013 179.001 108.736C178.67 108.459 178.222 108.32 177.657 108.32C177.134 108.32 176.718 108.432 176.409 108.656C176.1 108.88 175.945 109.173 175.945 109.536C175.945 109.824 176.036 110.064 176.217 110.256C176.409 110.437 176.644 110.587 176.921 110.704C177.209 110.811 177.604 110.933 178.105 111.072C178.734 111.243 179.246 111.413 179.641 111.584C180.036 111.744 180.372 111.989 180.649 112.32C180.937 112.651 181.086 113.083 181.097 113.616C181.097 114.096 180.964 114.528 180.697 114.912C180.43 115.296 180.052 115.6 179.561 115.824C179.081 116.037 178.526 116.144 177.897 116.144ZM192.394 108.432V113.6C192.394 114.027 192.485 114.331 192.666 114.512C192.847 114.683 193.162 114.768 193.61 114.768H194.682V116H193.37C192.559 116 191.951 115.813 191.546 115.44C191.141 115.067 190.938 114.453 190.938 113.6V108.432H189.802V107.232H190.938V105.024H192.394V107.232H194.682V108.432H192.394ZM202.398 107.072C203.059 107.072 203.657 107.216 204.19 107.504C204.723 107.781 205.139 108.203 205.438 108.768C205.747 109.333 205.902 110.021 205.902 110.832V116H204.462V111.04C204.462 110.165 204.243 109.499 203.806 109.04C203.369 108.571 202.771 108.336 202.014 108.336C201.246 108.336 200.633 108.576 200.174 109.056C199.726 109.536 199.502 110.235 199.502 111.152V116H198.046V104.16H199.502V108.48C199.79 108.032 200.185 107.685 200.686 107.44C201.198 107.195 201.769 107.072 202.398 107.072ZM217.88 111.28C217.88 111.557 217.864 111.851 217.832 112.16H210.824C210.878 113.024 211.171 113.701 211.704 114.192C212.248 114.672 212.904 114.912 213.672 114.912C214.302 114.912 214.824 114.768 215.24 114.48C215.667 114.181 215.966 113.787 216.136 113.296H217.704C217.47 114.139 217 114.827 216.296 115.36C215.592 115.883 214.718 116.144 213.672 116.144C212.84 116.144 212.094 115.957 211.432 115.584C210.782 115.211 210.27 114.683 209.896 114C209.523 113.307 209.336 112.507 209.336 111.6C209.336 110.693 209.518 109.899 209.88 109.216C210.243 108.533 210.75 108.011 211.4 107.648C212.062 107.275 212.819 107.088 213.672 107.088C214.504 107.088 215.24 107.269 215.88 107.632C216.52 107.995 217.011 108.496 217.352 109.136C217.704 109.765 217.88 110.48 217.88 111.28ZM216.376 110.976C216.376 110.421 216.254 109.947 216.008 109.552C215.763 109.147 215.427 108.843 215 108.64C214.584 108.427 214.12 108.32 213.608 108.32C212.872 108.32 212.243 108.555 211.72 109.024C211.208 109.493 210.915 110.144 210.84 110.976H216.376ZM229.044 108.432V113.6C229.044 114.027 229.135 114.331 229.316 114.512C229.497 114.683 229.812 114.768 230.26 114.768H231.332V116H230.02C229.209 116 228.601 115.813 228.196 115.44C227.791 115.067 227.588 114.453 227.588 113.6V108.432H226.452V107.232H227.588V105.024H229.044V107.232H231.332V108.432H229.044ZM236.152 108.656C236.408 108.155 236.771 107.765 237.24 107.488C237.72 107.211 238.301 107.072 238.984 107.072V108.576H238.6C236.968 108.576 236.152 109.461 236.152 111.232V116H234.696V107.232H236.152V108.656ZM250.041 107.232V116H248.585V114.704C248.307 115.152 247.918 115.504 247.417 115.76C246.926 116.005 246.382 116.128 245.785 116.128C245.102 116.128 244.489 115.989 243.945 115.712C243.401 115.424 242.969 114.997 242.649 114.432C242.339 113.867 242.185 113.179 242.185 112.368V107.232H243.625V112.176C243.625 113.04 243.843 113.707 244.281 114.176C244.718 114.635 245.315 114.864 246.073 114.864C246.851 114.864 247.465 114.624 247.913 114.144C248.361 113.664 248.585 112.965 248.585 112.048V107.232H250.041ZM253.555 111.6C253.555 110.693 253.737 109.904 254.099 109.232C254.462 108.549 254.963 108.021 255.603 107.648C256.254 107.275 256.995 107.088 257.827 107.088C258.905 107.088 259.79 107.349 260.483 107.872C261.187 108.395 261.651 109.12 261.875 110.048H260.307C260.158 109.515 259.865 109.093 259.427 108.784C259.001 108.475 258.467 108.32 257.827 108.32C256.995 108.32 256.323 108.608 255.811 109.184C255.299 109.749 255.043 110.555 255.043 111.6C255.043 112.656 255.299 113.472 255.811 114.048C256.323 114.624 256.995 114.912 257.827 114.912C258.467 114.912 259.001 114.763 259.427 114.464C259.854 114.165 260.147 113.739 260.307 113.184H261.875C261.641 114.08 261.171 114.8 260.467 115.344C259.763 115.877 258.883 116.144 257.827 116.144C256.995 116.144 256.254 115.957 255.603 115.584C254.963 115.211 254.462 114.683 254.099 114C253.737 113.317 253.555 112.517 253.555 111.6ZM270.314 116L266.874 112.128V116H265.418V104.16H266.874V111.12L270.25 107.232H272.282L268.154 111.6L272.298 116H270.314ZM278.356 116.144C277.684 116.144 277.082 116.032 276.548 115.808C276.015 115.573 275.594 115.253 275.284 114.848C274.975 114.432 274.804 113.957 274.772 113.424H276.276C276.319 113.861 276.522 114.219 276.884 114.496C277.258 114.773 277.743 114.912 278.34 114.912C278.895 114.912 279.332 114.789 279.652 114.544C279.972 114.299 280.132 113.989 280.132 113.616C280.132 113.232 279.962 112.949 279.62 112.768C279.279 112.576 278.751 112.389 278.036 112.208C277.386 112.037 276.852 111.867 276.436 111.696C276.031 111.515 275.679 111.253 275.38 110.912C275.092 110.56 274.948 110.101 274.948 109.536C274.948 109.088 275.082 108.677 275.348 108.304C275.615 107.931 275.994 107.637 276.484 107.424C276.975 107.2 277.535 107.088 278.164 107.088C279.135 107.088 279.919 107.333 280.516 107.824C281.114 108.315 281.434 108.987 281.476 109.84H280.02C279.988 109.381 279.802 109.013 279.46 108.736C279.13 108.459 278.682 108.32 278.116 108.32C277.594 108.32 277.178 108.432 276.868 108.656C276.559 108.88 276.404 109.173 276.404 109.536C276.404 109.824 276.495 110.064 276.676 110.256C276.868 110.437 277.103 110.587 277.38 110.704C277.668 110.811 278.063 110.933 278.564 111.072C279.194 111.243 279.706 111.413 280.1 111.584C280.495 111.744 280.831 111.989 281.108 112.32C281.396 112.651 281.546 113.083 281.556 113.616C281.556 114.096 281.423 114.528 281.156 114.912C280.89 115.296 280.511 115.6 280.02 115.824C279.54 116.037 278.986 116.144 278.356 116.144ZM294.341 114.656L297.061 107.232H298.613L295.173 116H293.477L290.037 107.232H291.605L294.341 114.656ZM309.646 111.28C309.646 111.557 309.63 111.851 309.598 112.16H302.59C302.643 113.024 302.937 113.701 303.47 114.192C304.014 114.672 304.67 114.912 305.438 114.912C306.067 114.912 306.59 114.768 307.006 114.48C307.433 114.181 307.731 113.787 307.902 113.296H309.47C309.235 114.139 308.766 114.827 308.062 115.36C307.358 115.883 306.483 116.144 305.438 116.144C304.606 116.144 303.859 115.957 303.198 115.584C302.547 115.211 302.035 114.683 301.662 114C301.289 113.307 301.102 112.507 301.102 111.6C301.102 110.693 301.283 109.899 301.646 109.216C302.009 108.533 302.515 108.011 303.166 107.648C303.827 107.275 304.585 107.088 305.438 107.088C306.27 107.088 307.006 107.269 307.646 107.632C308.286 107.995 308.777 108.496 309.118 109.136C309.47 109.765 309.646 110.48 309.646 111.28ZM308.142 110.976C308.142 110.421 308.019 109.947 307.774 109.552C307.529 109.147 307.193 108.843 306.766 108.64C306.35 108.427 305.886 108.32 305.374 108.32C304.638 108.32 304.009 108.555 303.486 109.024C302.974 109.493 302.681 110.144 302.606 110.976H308.142ZM314.624 108.656C314.88 108.155 315.243 107.765 315.712 107.488C316.192 107.211 316.773 107.072 317.456 107.072V108.576H317.072C315.44 108.576 314.624 109.461 314.624 111.232V116H313.168V107.232H314.624V108.656ZM328.289 107.232L323.009 120.128H321.505L323.233 115.904L319.697 107.232H321.313L324.065 114.336L326.785 107.232H328.289ZM348.898 107.232L346.162 116H344.658L342.546 109.04L340.434 116H338.93L336.178 107.232H337.666L339.682 114.592L341.858 107.232H343.346L345.474 114.608L347.458 107.232H348.898ZM359.943 111.28C359.943 111.557 359.927 111.851 359.895 112.16H352.887C352.94 113.024 353.234 113.701 353.767 114.192C354.311 114.672 354.967 114.912 355.735 114.912C356.364 114.912 356.887 114.768 357.303 114.48C357.73 114.181 358.028 113.787 358.199 113.296H359.767C359.532 114.139 359.063 114.827 358.359 115.36C357.655 115.883 356.78 116.144 355.735 116.144C354.903 116.144 354.156 115.957 353.495 115.584C352.844 115.211 352.332 114.683 351.959 114C351.586 113.307 351.399 112.507 351.399 111.6C351.399 110.693 351.58 109.899 351.943 109.216C352.306 108.533 352.812 108.011 353.463 107.648C354.124 107.275 354.882 107.088 355.735 107.088C356.567 107.088 357.303 107.269 357.943 107.632C358.583 107.995 359.074 108.496 359.415 109.136C359.767 109.765 359.943 110.48 359.943 111.28ZM358.439 110.976C358.439 110.421 358.316 109.947 358.071 109.552C357.826 109.147 357.49 108.843 357.063 108.64C356.647 108.427 356.183 108.32 355.671 108.32C354.935 108.32 354.306 108.555 353.783 109.024C353.271 109.493 352.978 110.144 352.903 110.976H358.439ZM364.921 104.16V116H363.465V104.16H364.921ZM370.458 104.16V116H369.002V104.16H370.458ZM375.004 116.096C374.726 116.096 374.492 116 374.3 115.808C374.108 115.616 374.012 115.381 374.012 115.104C374.012 114.827 374.108 114.592 374.3 114.4C374.492 114.208 374.726 114.112 375.004 114.112C375.27 114.112 375.494 114.208 375.676 114.4C375.868 114.592 375.964 114.827 375.964 115.104C375.964 115.381 375.868 115.616 375.676 115.808C375.494 116 375.27 116.096 375.004 116.096Z" fill="white"/>
<path opacity="0.2" d="M275 141L460.991 141" stroke="white"/>
<path d="M60.8643 35.6367C58.9111 37.0527 56.7871 38.1514 54.4922 38.9326C52.2461 39.7139 50.0488 40.1045 47.9004 40.1045C46.4355 40.1045 45.0195 39.9092 43.6523 39.5186C42.334 39.0791 41.1621 38.4443 40.1367 37.6143C39.1113 36.7842 38.2812 35.7344 37.6465 34.4648C37.0605 33.1465 36.7676 31.6328 36.7676 29.9238C36.7676 27.873 37.0605 25.9443 37.6465 24.1377C38.2324 22.2822 39.1357 20.2803 40.3564 18.1318C41.5771 15.9346 43.0908 13.4687 44.8975 10.7344C46.7041 8 48.8281 4.72852 51.2695 0.919922H63.8672L56.1768 22.0869L60.8643 35.6367ZM28.4912 35.7832C26.5381 37.1992 24.4141 38.2979 22.1191 39.0791C19.873 39.8115 17.6758 40.1777 15.5273 40.1777C14.0625 40.1777 12.6465 39.9824 11.2793 39.5918C9.96094 39.1523 8.78906 38.5176 7.76367 37.6875C6.73828 36.8574 5.9082 35.8076 5.27344 34.5381C4.6875 33.2197 4.39453 31.7061 4.39453 29.9971C4.39453 27.9463 4.6875 26.0176 5.27344 24.2109C5.85938 22.3555 6.7627 20.3535 7.9834 18.2051C9.2041 16.0078 10.7178 13.542 12.5244 10.8076C14.3311 8.07324 16.4551 4.80176 18.8965 0.993164H31.4941L23.8037 22.1602L28.4912 35.7832Z" fill="white" fill-opacity="0.5"/>
</svg>
